solid pot cutter
facet normal 0.9914448613738105 -0.13052619222005143 -5.412746909284481e-13
  outer loop
    vertex 62.372603249533 44.43527618041008 1.999999999998214
    vertex 62.23630655469201 43.39999999999999 6.9999999999982885
    vertex 62.23630655468927 43.39999999999999 1.999999999998289
  endloop
endfacet
facet normal 0.9914448613738105 -0.13052619222005143 -5.412746909284481e-13
  outer loop
    vertex 62.23630655469201 43.39999999999999 6.9999999999982885
    vertex 62.372603249533 44.43527618041008 1.999999999998214
    vertex 62.37260324953573 44.43527618041008 6.999999999998213
  endloop
endfacet
facet normal 0.7933533402912357 -0.6087614290087201 -4.322692782758482e-13
  outer loop
    vertex 63.407879429943094 46.22842712474618 1.99999999999765
    vertex 62.77220493955425 45.4 6.999999999997996
    vertex 62.772204939551536 45.4 1.999999999997997
  endloop
endfacet
facet normal 0.7933533402912357 -0.6087614290087201 -4.322692782758482e-13
  outer loop
    vertex 62.77220493955425 45.4 6.999999999997996
    vertex 63.407879429943094 46.22842712474618 1.99999999999765
    vertex 63.40787942994582 46.22842712474618 6.999999999997649
  endloop
endfacet
facet normal -0.3826834323650902 -0.9238795325112865 2.085102346148266e-13
  outer loop
    vertex 67.27158273509936 47.26370330515627 1.9999999999955451
    vertex 68.23630655469202 46.86410161513775 6.999999999995018
    vertex 67.27158273510209 47.26370330515627 6.999999999995544
  endloop
endfacet
facet normal -0.3826834323650902 -0.9238795325112865 2.085102346148266e-13
  outer loop
    vertex 68.23630655469202 46.86410161513775 6.999999999995018
    vertex 67.27158273509936 47.26370330515627 1.9999999999955451
    vertex 68.23630655468921 46.86410161513775 1.9999999999950198
  endloop
endfacet
facet normal 0.3826834323650902 -0.9238795325112865 -2.085102346148266e-13
  outer loop
    vertex 64.23630655468926 46.86410161513775 1.999999999997199
    vertex 65.20103037428193 47.26370330515626 6.999999999996672
    vertex 64.236306554692 46.86410161513775 6.999999999997198
  endloop
endfacet
facet normal 0.3826834323650902 -0.9238795325112865 -2.085102346148266e-13
  outer loop
    vertex 65.20103037428193 47.26370330515626 6.999999999996672
    vertex 64.23630655468926 46.86410161513775 1.999999999997199
    vertex 65.2010303742792 47.26370330515626 1.999999999996673
  endloop
endfacet
facet normal 0.13052619222005282 -0.9914448613738103 -7.111895802486253e-14
  outer loop
    vertex 65.2010303742792 47.26370330515626 1.999999999996673
    vertex 66.236306554692 47.4 6.999999999996108
    vertex 65.20103037428193 47.26370330515626 6.999999999996672
  endloop
endfacet
facet normal 0.13052619222005282 -0.9914448613738103 -7.111895802486253e-14
  outer loop
    vertex 66.236306554692 47.4 6.999999999996108
    vertex 65.2010303742792 47.26370330515626 1.999999999996673
    vertex 66.23630655468929 47.4 1.9999999999961091
  endloop
endfacet
facet normal 0.6087614290087205 -0.7933533402912353 -3.3169188329524536e-13
  outer loop
    vertex 63.407879429943094 46.22842712474618 1.99999999999765
    vertex 64.236306554692 46.86410161513775 6.999999999997198
    vertex 63.40787942994582 46.22842712474618 6.999999999997649
  endloop
endfacet
facet normal 0.6087614290087205 -0.7933533402912353 -3.3169188329524536e-13
  outer loop
    vertex 64.236306554692 46.86410161513775 6.999999999997198
    vertex 63.407879429943094 46.22842712474618 1.99999999999765
    vertex 64.23630655468926 46.86410161513775 1.999999999997199
  endloop
endfacet
facet normal 0.9238795325112878 -0.3826834323650871 -5.033882363007103e-13
  outer loop
    vertex 62.772204939551536 45.4 1.999999999997997
    vertex 62.37260324953573 44.43527618041008 6.999999999998213
    vertex 62.372603249533 44.43527618041008 1.999999999998214
  endloop
endfacet
facet normal 0.9238795325112878 -0.3826834323650871 -5.033882363007103e-13
  outer loop
    vertex 62.37260324953573 44.43527618041008 6.999999999998213
    vertex 62.772204939551536 45.4 1.999999999997997
    vertex 62.77220493955425 45.4 6.999999999997996
  endloop
endfacet
facet normal -0.13052619222005143 -0.9914448613738105 7.111895802486177e-14
  outer loop
    vertex 66.23630655468929 47.4 1.9999999999961091
    vertex 67.27158273510209 47.26370330515627 6.999999999995544
    vertex 66.236306554692 47.4 6.999999999996108
  endloop
endfacet
facet normal -0.13052619222005143 -0.9914448613738105 7.111895802486177e-14
  outer loop
    vertex 67.27158273510209 47.26370330515627 6.999999999995544
    vertex 66.23630655468929 47.4 1.9999999999961091
    vertex 67.27158273509936 47.26370330515627 1.9999999999955451
  endloop
endfacet
facet normal -0.6087614290087205 -0.7933533402912353 3.3169188329524536e-13
  outer loop
    vertex 68.23630655468921 46.86410161513775 1.9999999999950198
    vertex 69.06473367943819 46.22842712474618 6.999999999994567
    vertex 68.23630655469202 46.86410161513775 6.999999999995018
  endloop
endfacet
facet normal -0.6087614290087205 -0.7933533402912353 3.3169188329524536e-13
  outer loop
    vertex 69.06473367943819 46.22842712474618 6.999999999994567
    vertex 68.23630655468921 46.86410161513775 1.9999999999950198
    vertex 69.06473367943539 46.22842712474618 1.999999999994568
  endloop
endfacet
facet normal -0.9914448613738105 -0.13052619222005218 5.524594539625615e-13
  outer loop
    vertex 70.10000985984829 44.43527618041008 6.999999999994003
    vertex 70.23630655468921 43.4 1.99999999999393
    vertex 70.236306554692 43.4 6.999999999993928
  endloop
endfacet
facet normal -0.9914448613738105 -0.13052619222005218 5.524594539625615e-13
  outer loop
    vertex 70.23630655468921 43.4 1.99999999999393
    vertex 70.10000985984829 44.43527618041008 6.999999999994003
    vertex 70.10000985984547 44.43527618041008 1.999999999994004
  endloop
endfacet
facet normal -0.9238795325112862 -0.38268343236509134 5.033882363007094e-13
  outer loop
    vertex 69.70040816982976 45.4 6.999999999994231
    vertex 70.10000985984547 44.43527618041008 1.999999999994004
    vertex 70.10000985984829 44.43527618041008 6.999999999994003
  endloop
endfacet
facet normal -0.9238795325112862 -0.38268343236509134 5.033882363007094e-13
  outer loop
    vertex 70.10000985984547 44.43527618041008 1.999999999994004
    vertex 69.70040816982976 45.4 6.999999999994231
    vertex 69.70040816982694 45.4 1.9999999999942217
  endloop
endfacet
facet normal -0.7933533402912372 -0.6087614290087179 4.32269278275849e-13
  outer loop
    vertex 69.06473367943819 46.22842712474618 6.999999999994567
    vertex 69.70040816982694 45.4 1.9999999999942217
    vertex 69.70040816982976 45.4 6.999999999994231
  endloop
endfacet
facet normal -0.7933533402912372 -0.6087614290087179 4.32269278275849e-13
  outer loop
    vertex 69.70040816982694 45.4 1.9999999999942217
    vertex 69.06473367943819 46.22842712474618 6.999999999994567
    vertex 69.06473367943539 46.22842712474618 1.999999999994568
  endloop
endfacet
facet normal -0.0 -1.0 0.0
  outer loop
    vertex 59.2363065546912 44.9 5.499999999999922
    vertex 61.23630655469201 44.9 6.999999999998832
    vertex 59.23630655469201 44.9 6.999999999999923
  endloop
endfacet
facet normal -0.0 -1.0 0.0
  outer loop
    vertex 61.23630655469201 44.9 6.999999999998832
    vertex 59.2363065546912 44.9 5.499999999999922
    vertex 61.2363065546912 44.9 5.499999999998833
  endloop
endfacet
facet normal 1.0 -5.4422867735482755e-30 -5.451908664975027e-13
  outer loop
    vertex 71.23630655468847 50.099999999999994 0.49999999999338346
    vertex 71.23630655468874 36.70000000000001 0.9999999999933825
    vertex 71.23630655468847 36.70000000000001 0.49999999999338346
  endloop
endfacet
facet normal 1.0 -5.4422867735482755e-30 -5.451908664975027e-13
  outer loop
    vertex 71.23630655468874 36.70000000000001 0.9999999999933825
    vertex 71.23630655468847 50.099999999999994 0.49999999999338346
    vertex 71.2363065546901 38.14337567297405 3.499999999993385
  endloop
endfacet
facet normal 1.0 -5.4422867735482755e-30 -5.451908664975027e-13
  outer loop
    vertex 71.2363065546901 38.14337567297405 3.499999999993385
    vertex 71.23630655468847 50.099999999999994 0.49999999999338346
    vertex 71.2363065546901 48.65662432702594 3.499999999993385
  endloop
endfacet
facet normal 1.0 -5.4422867735482755e-30 -5.451908664975027e-13
  outer loop
    vertex 71.2363065546901 48.65662432702594 3.499999999993385
    vertex 71.23630655468847 50.099999999999994 0.49999999999338346
    vertex 71.23630655468874 50.099999999999994 0.9999999999933825
  endloop
endfacet
facet normal 1.0 -5.4422867735482755e-30 -5.451908664975027e-13
  outer loop
    vertex 71.2363065546901 38.14337567297405 3.499999999993385
    vertex 71.236306554692 36.70000000000001 6.999999999993384
    vertex 71.23630655469147 36.70000000000001 5.999999999993385
  endloop
endfacet
facet normal 1.0 -5.4422867735482755e-30 -5.451908664975027e-13
  outer loop
    vertex 71.236306554692 36.70000000000001 6.999999999993384
    vertex 71.2363065546901 38.14337567297405 3.499999999993385
    vertex 71.236306554692 50.1 6.999999999993384
  endloop
endfacet
facet normal 1.0 -5.4422867735482755e-30 -5.451908664975027e-13
  outer loop
    vertex 71.236306554692 50.1 6.999999999993384
    vertex 71.2363065546901 38.14337567297405 3.499999999993385
    vertex 71.2363065546901 48.65662432702594 3.499999999993385
  endloop
endfacet
facet normal 1.0 -5.4422867735482755e-30 -5.451908664975027e-13
  outer loop
    vertex 71.236306554692 50.1 6.999999999993384
    vertex 71.2363065546901 48.65662432702594 3.499999999993385
    vertex 71.23630655469147 50.1 5.999999999993385
  endloop
endfacet
facet normal 0.16903085094542766 0.8451542547285168 -0.5070925528372019
  outer loop
    vertex 70.7363065546882 49.89999999999999 -6.343514602491495e-12
    vertex 69.73630655468848 50.39999999999999 0.49999999999420264
    vertex 71.23630655468847 50.099999999999994 0.49999999999338346
  endloop
endfacet
facet normal 0.0 1.0 0.0
  outer loop
    vertex 69.73630655468848 50.39999999999999 0.49999999999420264
    vertex 57.73630655468879 50.39999999999999 1.0000000000007399
    vertex 69.73630655468875 50.39999999999999 0.999999999994201
  endloop
endfacet
facet normal 0.0 1.0 0.0
  outer loop
    vertex 57.73630655468879 50.39999999999999 1.0000000000007399
    vertex 69.73630655468848 50.39999999999999 0.49999999999420264
    vertex 57.73630655468845 50.39999999999999 0.5000000000007407
  endloop
endfacet
facet normal 0.0 1.0 0.0
  outer loop
    vertex 69.73630655469148 50.4 5.999999999994203
    vertex 57.736306554691964 50.4 7.000000000000737
    vertex 69.73630655469202 50.4 6.9999999999942
  endloop
endfacet
facet normal 0.0 1.0 0.0
  outer loop
    vertex 57.736306554691964 50.4 7.000000000000737
    vertex 69.73630655469148 50.4 5.999999999994203
    vertex 57.73630655469138 50.4 6.000000000000746
  endloop
endfacet
facet normal 0.19611613513818546 0.9805806756909199 -1.0617394768287033e-13
  outer loop
    vertex 71.23630655469147 50.1 5.999999999993385
    vertex 69.73630655469202 50.4 6.9999999999942
    vertex 71.236306554692 50.1 6.999999999993384
  endloop
endfacet
facet normal 0.19611613513818546 0.9805806756909199 -1.0617394768287033e-13
  outer loop
    vertex 69.73630655469202 50.4 6.9999999999942
    vertex 71.23630655469147 50.1 5.999999999993385
    vertex 69.73630655469148 50.4 5.999999999994203
  endloop
endfacet
facet normal 5.44727598109206e-13 4.868222357045194e-18 1.0
  outer loop
    vertex 69.73630655469202 50.4 6.9999999999942
    vertex 71.236306554692 36.70000000000001 6.999999999993384
    vertex 71.236306554692 50.1 6.999999999993384
  endloop
endfacet
facet normal 5.44727598109206e-13 4.868222357045194e-18 1.0
  outer loop
    vertex 71.236306554692 36.70000000000001 6.999999999993384
    vertex 69.73630655469202 50.4 6.9999999999942
    vertex 70.236306554692 43.4 6.999999999993928
  endloop
endfacet
facet normal 5.44727598109206e-13 4.868222357045194e-18 1.0
  outer loop
    vertex 70.236306554692 43.4 6.999999999993928
    vertex 69.73630655469202 50.4 6.9999999999942
    vertex 70.10000985984829 44.43527618041008 6.999999999994003
  endloop
endfacet
facet normal 5.44727598109206e-13 4.868222357045194e-18 1.0
  outer loop
    vertex 70.10000985984829 44.43527618041008 6.999999999994003
    vertex 69.73630655469202 50.4 6.9999999999942
    vertex 69.70040816982976 45.4 6.999999999994231
  endloop
endfacet
facet normal 5.44727598109206e-13 4.868222357045194e-18 1.0
  outer loop
    vertex 69.70040816982976 45.4 6.999999999994231
    vertex 69.73630655469202 50.4 6.9999999999942
    vertex 69.06473367943819 46.22842712474618 6.999999999994567
  endloop
endfacet
facet normal 5.44727598109206e-13 4.868222357045194e-18 1.0
  outer loop
    vertex 69.06473367943819 46.22842712474618 6.999999999994567
    vertex 69.73630655469202 50.4 6.9999999999942
    vertex 68.23630655469202 46.86410161513775 6.999999999995018
  endloop
endfacet
facet normal 5.44727598109206e-13 4.868222357045194e-18 1.0
  outer loop
    vertex 68.23630655469202 46.86410161513775 6.999999999995018
    vertex 69.73630655469202 50.4 6.9999999999942
    vertex 67.27158273510209 47.26370330515627 6.999999999995544
  endloop
endfacet
facet normal 5.44727598109206e-13 4.868222357045194e-18 1.0
  outer loop
    vertex 67.27158273510209 47.26370330515627 6.999999999995544
    vertex 69.73630655469202 50.4 6.9999999999942
    vertex 57.736306554691964 50.4 7.000000000000737
  endloop
endfacet
facet normal 5.44727598109206e-13 4.868222357045194e-18 1.0
  outer loop
    vertex 67.27158273510209 47.26370330515627 6.999999999995544
    vertex 57.736306554691964 50.4 7.000000000000737
    vertex 66.236306554692 47.4 6.999999999996108
  endloop
endfacet
facet normal 5.44727598109206e-13 4.868222357045194e-18 1.0
  outer loop
    vertex 66.236306554692 47.4 6.999999999996108
    vertex 57.736306554691964 50.4 7.000000000000737
    vertex 65.20103037428193 47.26370330515626 6.999999999996672
  endloop
endfacet
facet normal 5.44727598109206e-13 4.868222357045194e-18 1.0
  outer loop
    vertex 65.20103037428193 47.26370330515626 6.999999999996672
    vertex 57.736306554691964 50.4 7.000000000000737
    vertex 64.236306554692 46.86410161513775 6.999999999997198
  endloop
endfacet
facet normal 5.44727598109206e-13 4.868222357045194e-18 1.0
  outer loop
    vertex 64.236306554692 46.86410161513775 6.999999999997198
    vertex 57.736306554691964 50.4 7.000000000000737
    vertex 63.40787942994582 46.22842712474618 6.999999999997649
  endloop
endfacet
facet normal 5.44727598109206e-13 4.868222357045194e-18 1.0
  outer loop
    vertex 63.40787942994582 46.22842712474618 6.999999999997649
    vertex 57.736306554691964 50.4 7.000000000000737
    vertex 62.77220493955425 45.4 6.999999999997996
  endloop
endfacet
facet normal 5.44727598109206e-13 4.868222357045194e-18 1.0
  outer loop
    vertex 62.77220493955425 45.4 6.999999999997996
    vertex 57.736306554691964 50.4 7.000000000000737
    vertex 62.37260324953573 44.43527618041008 6.999999999998213
  endloop
endfacet
facet normal 5.44727598109206e-13 4.868222357045194e-18 1.0
  outer loop
    vertex 62.37260324953573 44.43527618041008 6.999999999998213
    vertex 57.736306554691964 50.4 7.000000000000737
    vertex 62.23630655469201 43.39999999999999 6.9999999999982885
  endloop
endfacet
facet normal 5.44727598109206e-13 4.868222357045194e-18 1.0
  outer loop
    vertex 62.23630655469201 43.39999999999999 6.9999999999982885
    vertex 57.736306554691964 50.4 7.000000000000737
    vertex 61.23630655469201 44.9 6.999999999998832
  endloop
endfacet
facet normal 5.44727598109206e-13 4.868222357045194e-18 1.0
  outer loop
    vertex 61.23630655469201 44.9 6.999999999998832
    vertex 57.736306554691964 50.4 7.000000000000737
    vertex 59.23630655469201 44.9 6.999999999999923
  endloop
endfacet
facet normal 5.44727598109206e-13 4.868222357045194e-18 1.0
  outer loop
    vertex 59.23630655469201 44.9 6.999999999999923
    vertex 57.736306554691964 50.4 7.000000000000737
    vertex 59.23630655469201 41.89999999999994 6.999999999999923
  endloop
endfacet
facet normal 5.44727598109206e-13 4.868222357045194e-18 1.0
  outer loop
    vertex 70.236306554692 43.4 6.999999999993928
    vertex 69.73630655469202 36.39999999999998 6.9999999999942
    vertex 71.236306554692 36.70000000000001 6.999999999993384
  endloop
endfacet
facet normal 5.44727598109206e-13 4.868222357045194e-18 1.0
  outer loop
    vertex 69.73630655469202 36.39999999999998 6.9999999999942
    vertex 70.236306554692 43.4 6.999999999993928
    vertex 70.10000985984829 42.3647238195899 6.999999999994003
  endloop
endfacet
facet normal 5.44727598109206e-13 4.868222357045194e-18 1.0
  outer loop
    vertex 69.73630655469202 36.39999999999998 6.9999999999942
    vertex 70.10000985984829 42.3647238195899 6.999999999994003
    vertex 69.70040816982976 41.39999999999996 6.999999999994233
  endloop
endfacet
facet normal 5.44727598109206e-13 4.868222357045194e-18 1.0
  outer loop
    vertex 69.73630655469202 36.39999999999998 6.9999999999942
    vertex 69.70040816982976 41.39999999999996 6.999999999994233
    vertex 69.06473367943819 40.57157287525379 6.999999999994567
  endloop
endfacet
facet normal 5.44727598109206e-13 4.868222357045194e-18 1.0
  outer loop
    vertex 69.73630655469202 36.39999999999998 6.9999999999942
    vertex 69.06473367943819 40.57157287525379 6.999999999994567
    vertex 68.23630655469202 39.93589838486223 6.999999999995018
  endloop
endfacet
facet normal 5.44727598109206e-13 4.868222357045194e-18 1.0
  outer loop
    vertex 69.73630655469202 36.39999999999998 6.9999999999942
    vertex 68.23630655469202 39.93589838486223 6.999999999995018
    vertex 67.27158273510209 39.53629669484372 6.999999999995544
  endloop
endfacet
facet normal 5.44727598109206e-13 4.868222357045194e-18 1.0
  outer loop
    vertex 69.73630655469202 36.39999999999998 6.9999999999942
    vertex 67.27158273510209 39.53629669484372 6.999999999995544
    vertex 57.736306554691964 36.39999999999998 7.000000000000737
  endloop
endfacet
facet normal 5.44727598109206e-13 4.868222357045194e-18 1.0
  outer loop
    vertex 57.736306554691964 36.39999999999998 7.000000000000737
    vertex 67.27158273510209 39.53629669484372 6.999999999995544
    vertex 66.236306554692 39.39999999999994 6.999999999996108
  endloop
endfacet
facet normal 5.44727598109206e-13 4.868222357045194e-18 1.0
  outer loop
    vertex 57.736306554691964 36.39999999999998 7.000000000000737
    vertex 66.236306554692 39.39999999999994 6.999999999996108
    vertex 65.20103037428193 39.53629669484378 6.999999999996672
  endloop
endfacet
facet normal 5.44727598109206e-13 4.868222357045194e-18 1.0
  outer loop
    vertex 57.736306554691964 36.39999999999998 7.000000000000737
    vertex 65.20103037428193 39.53629669484378 6.999999999996672
    vertex 64.236306554692 39.93589838486223 6.999999999997198
  endloop
endfacet
facet normal 5.44727598109206e-13 4.868222357045194e-18 1.0
  outer loop
    vertex 57.736306554691964 36.39999999999998 7.000000000000737
    vertex 64.236306554692 39.93589838486223 6.999999999997198
    vertex 63.40787942994582 40.57157287525379 6.999999999997649
  endloop
endfacet
facet normal 5.44727598109206e-13 4.868222357045194e-18 1.0
  outer loop
    vertex 57.736306554691964 36.39999999999998 7.000000000000737
    vertex 63.40787942994582 40.57157287525379 6.999999999997649
    vertex 62.77220493955425 41.39999999999996 6.999999999997996
  endloop
endfacet
facet normal 5.44727598109206e-13 4.868222357045194e-18 1.0
  outer loop
    vertex 57.736306554691964 36.39999999999998 7.000000000000737
    vertex 62.77220493955425 41.39999999999996 6.999999999997996
    vertex 62.37260324953573 42.3647238195899 6.999999999998213
  endloop
endfacet
facet normal 5.44727598109206e-13 4.868222357045194e-18 1.0
  outer loop
    vertex 57.736306554691964 36.39999999999998 7.000000000000737
    vertex 62.37260324953573 42.3647238195899 6.999999999998213
    vertex 62.23630655469201 43.39999999999999 6.9999999999982885
  endloop
endfacet
facet normal 5.44727598109206e-13 4.868222357045194e-18 1.0
  outer loop
    vertex 57.736306554691964 36.39999999999998 7.000000000000737
    vertex 62.23630655469201 43.39999999999999 6.9999999999982885
    vertex 61.23630655469201 41.89999999999994 6.999999999998832
  endloop
endfacet
facet normal 5.44727598109206e-13 4.868222357045194e-18 1.0
  outer loop
    vertex 61.23630655469201 41.89999999999994 6.999999999998832
    vertex 62.23630655469201 43.39999999999999 6.9999999999982885
    vertex 61.23630655469201 44.9 6.999999999998832
  endloop
endfacet
facet normal 5.44727598109206e-13 4.868222357045194e-18 1.0
  outer loop
    vertex 57.736306554691964 36.39999999999998 7.000000000000737
    vertex 61.23630655469201 41.89999999999994 6.999999999998832
    vertex 59.23630655469201 41.89999999999994 6.999999999999923
  endloop
endfacet
facet normal 5.44727598109206e-13 4.868222357045194e-18 1.0
  outer loop
    vertex 57.736306554691964 36.39999999999998 7.000000000000737
    vertex 59.23630655469201 41.89999999999994 6.999999999999923
    vertex 57.736306554691964 50.4 7.000000000000737
  endloop
endfacet
facet normal 5.44727598109206e-13 4.868222357045194e-18 1.0
  outer loop
    vertex 57.736306554691964 36.39999999999998 7.000000000000737
    vertex 57.736306554691964 50.4 7.000000000000737
    vertex 56.736306554692014 50.199999999999996 7.000000000001284
  endloop
endfacet
facet normal 5.44727598109206e-13 4.868222357045194e-18 1.0
  outer loop
    vertex 57.736306554691964 36.39999999999998 7.000000000000737
    vertex 56.736306554692014 50.199999999999996 7.000000000001284
    vertex 56.736306554692014 36.59999999999999 7.000000000001284
  endloop
endfacet
facet normal 0.17066403719684256 0.8533201859828624 0.4926646390820512
  outer loop
    vertex 71.2363065546901 48.65662432702594 3.499999999993385
    vertex 69.73630655468875 50.39999999999999 0.999999999994201
    vertex 69.73630655469012 48.956624327025935 3.4999999999942033
  endloop
endfacet
facet normal 0.17066403719684256 0.8533201859828624 0.4926646390820512
  outer loop
    vertex 69.73630655468875 50.39999999999999 0.999999999994201
    vertex 71.2363065546901 48.65662432702594 3.499999999993385
    vertex 71.23630655468874 50.099999999999994 0.9999999999933825
  endloop
endfacet
facet normal 0.17066403719630477 0.8533201859828614 -0.4926646390822395
  outer loop
    vertex 71.23630655469147 50.1 5.999999999993385
    vertex 69.73630655469012 48.956624327025935 3.4999999999942033
    vertex 69.73630655469148 50.4 5.999999999994203
  endloop
endfacet
facet normal 0.17066403719630477 0.8533201859828614 -0.4926646390822395
  outer loop
    vertex 69.73630655469012 48.956624327025935 3.4999999999942033
    vertex 71.23630655469147 50.1 5.999999999993385
    vertex 71.2363065546901 48.65662432702594 3.499999999993385
  endloop
endfacet
facet normal 0.19611613513818546 0.9805806756909199 -1.0619795419579446e-13
  outer loop
    vertex 71.23630655468874 50.099999999999994 0.9999999999933825
    vertex 69.73630655468848 50.39999999999999 0.49999999999420264
    vertex 69.73630655468875 50.39999999999999 0.999999999994201
  endloop
endfacet
facet normal 0.19611613513818546 0.9805806756909199 -1.0619795419579446e-13
  outer loop
    vertex 69.73630655468848 50.39999999999999 0.49999999999420264
    vertex 71.23630655468874 50.099999999999994 0.9999999999933825
    vertex 71.23630655468847 50.099999999999994 0.49999999999338346
  endloop
endfacet
facet normal -5.447831028913144e-13 -1.322470728362724e-17 -1.0
  outer loop
    vertex 70.7363065546882 36.89999999999996 -6.343514602491495e-12
    vertex 69.1340840335554 42.623542864692396 -5.470734976142921e-12
    vertex 70.7363065546882 49.89999999999999 -6.343514602491495e-12
  endloop
endfacet
facet normal -5.447831028913144e-13 -1.322470728362724e-17 -1.0
  outer loop
    vertex 69.1340840335554 42.623542864692396 -5.470734976142921e-12
    vertex 70.7363065546882 36.89999999999996 -6.343514602491495e-12
    vertex 68.83438276604151 41.89999999999994 -5.307176920155143e-12
  endloop
endfacet
facet normal -5.447831028913144e-13 -1.322470728362724e-17 -1.0
  outer loop
    vertex 68.83438276604151 41.89999999999994 -5.307176920155143e-12
    vertex 70.7363065546882 36.89999999999996 -6.343514602491495e-12
    vertex 68.35762689824783 41.278679656440346 -5.047740003760737e-12
  endloop
endfacet
facet normal -5.447831028913144e-13 -1.322470728362724e-17 -1.0
  outer loop
    vertex 68.35762689824783 41.278679656440346 -5.047740003760737e-12
    vertex 70.7363065546882 36.89999999999996 -6.343514602491495e-12
    vertex 67.7363065546882 40.80192378864667 -4.696654176683523e-12
  endloop
endfacet
facet normal -5.447831028913144e-13 -1.322470728362724e-17 -1.0
  outer loop
    vertex 67.7363065546882 40.80192378864667 -4.696654176683523e-12
    vertex 70.7363065546882 36.89999999999996 -6.343514602491495e-12
    vertex 67.01276368999577 40.50222252113279 -4.314548718298283e-12
  endloop
endfacet
facet normal -5.447831028913144e-13 -1.322470728362724e-17 -1.0
  outer loop
    vertex 67.01276368999577 40.50222252113279 -4.314548718298283e-12
    vertex 70.7363065546882 36.89999999999996 -6.343514602491495e-12
    vertex 56.7363065546882 36.89999999999996 1.2844947328005672e-12
  endloop
endfacet
facet normal -5.447831028913144e-13 -1.322470728362724e-17 -1.0
  outer loop
    vertex 70.7363065546882 49.89999999999999 -6.343514602491495e-12
    vertex 69.1340840335554 42.623542864692396 -5.470734976142921e-12
    vertex 69.2363065546882 43.4 -5.525724322552605e-12
  endloop
endfacet
facet normal -5.447831028913144e-13 -1.322470728362724e-17 -1.0
  outer loop
    vertex 67.01276368999577 40.50222252113279 -4.314548718298283e-12
    vertex 56.7363065546882 36.89999999999996 1.2844947328005672e-12
    vertex 66.2363065546882 40.40000000000001 -3.891553745916099e-12
  endloop
endfacet
facet normal -5.447831028913144e-13 -1.322470728362724e-17 -1.0
  outer loop
    vertex 66.2363065546882 40.40000000000001 -3.891553745916099e-12
    vertex 56.7363065546882 36.89999999999996 1.2844947328005672e-12
    vertex 65.45984941938063 40.50222252113279 -3.468558773533914e-12
  endloop
endfacet
facet normal -5.447831028913144e-13 -1.322470728362724e-17 -1.0
  outer loop
    vertex 65.45984941938063 40.50222252113279 -3.468558773533914e-12
    vertex 56.7363065546882 36.89999999999996 1.2844947328005672e-12
    vertex 64.7363065546882 40.80192378864667 -3.0737634659772084e-12
  endloop
endfacet
facet normal -5.447831028913144e-13 -1.322470728362724e-17 -1.0
  outer loop
    vertex 64.7363065546882 40.80192378864667 -3.0737634659772084e-12
    vertex 56.7363065546882 36.89999999999996 1.2844947328005672e-12
    vertex 64.11498621112855 41.278679656440346 -2.7353674880714607e-12
  endloop
endfacet
facet normal -5.447831028913144e-13 -1.322470728362724e-17 -1.0
  outer loop
    vertex 64.11498621112855 41.278679656440346 -2.7353674880714607e-12
    vertex 56.7363065546882 36.89999999999996 1.2844947328005672e-12
    vertex 63.63823034333488 41.89999999999994 -2.4759305716770538e-12
  endloop
endfacet
facet normal -5.447831028913144e-13 -1.322470728362724e-17 -1.0
  outer loop
    vertex 63.63823034333488 41.89999999999994 -2.4759305716770538e-12
    vertex 56.7363065546882 36.89999999999996 1.2844947328005672e-12
    vertex 63.33852907582099 42.623542864692396 -2.312372515689276e-12
  endloop
endfacet
facet normal -5.447831028913144e-13 -1.322470728362724e-17 -1.0
  outer loop
    vertex 63.33852907582099 42.623542864692396 -2.312372515689276e-12
    vertex 56.7363065546882 36.89999999999996 1.2844947328005672e-12
    vertex 63.23630655468819 43.4 -2.2573831692795917e-12
  endloop
endfacet
facet normal -5.447831028913144e-13 -1.322470728362724e-17 -1.0
  outer loop
    vertex 70.7363065546882 49.89999999999999 -6.343514602491495e-12
    vertex 67.01276368999577 46.297777478867204 -4.314548718298283e-12
    vertex 56.7363065546882 49.89999999999999 1.2844947328005672e-12
  endloop
endfacet
facet normal -5.447831028913144e-13 -1.322470728362724e-17 -1.0
  outer loop
    vertex 67.01276368999577 46.297777478867204 -4.314548718298283e-12
    vertex 70.7363065546882 49.89999999999999 -6.343514602491495e-12
    vertex 67.7363065546882 45.998076211353315 -4.698064159924797e-12
  endloop
endfacet
facet normal -5.447831028913144e-13 -1.322470728362724e-17 -1.0
  outer loop
    vertex 67.7363065546882 45.998076211353315 -4.698064159924797e-12
    vertex 70.7363065546882 49.89999999999999 -6.343514602491495e-12
    vertex 68.35762689824783 45.521320343559644 -5.047740003760737e-12
  endloop
endfacet
facet normal -5.447831028913144e-13 -1.322470728362724e-17 -1.0
  outer loop
    vertex 68.35762689824783 45.521320343559644 -5.047740003760737e-12
    vertex 70.7363065546882 49.89999999999999 -6.343514602491495e-12
    vertex 68.83438276604151 44.9 -5.307176920155143e-12
  endloop
endfacet
facet normal -5.447831028913144e-13 -1.322470728362724e-17 -1.0
  outer loop
    vertex 68.83438276604151 44.9 -5.307176920155143e-12
    vertex 70.7363065546882 49.89999999999999 -6.343514602491495e-12
    vertex 69.1340840335554 44.17645713530756 -5.470734976142921e-12
  endloop
endfacet
facet normal -5.447831028913144e-13 -1.322470728362724e-17 -1.0
  outer loop
    vertex 69.1340840335554 44.17645713530756 -5.470734976142921e-12
    vertex 70.7363065546882 49.89999999999999 -6.343514602491495e-12
    vertex 69.2363065546882 43.4 -5.525724322552605e-12
  endloop
endfacet
facet normal -5.447831028913144e-13 -1.322470728362724e-17 -1.0
  outer loop
    vertex 56.7363065546882 49.89999999999999 1.2844947328005672e-12
    vertex 67.01276368999577 46.297777478867204 -4.314548718298283e-12
    vertex 66.2363065546882 46.39999999999999 -3.891553745916099e-12
  endloop
endfacet
facet normal -5.447831028913144e-13 -1.322470728362724e-17 -1.0
  outer loop
    vertex 56.7363065546882 49.89999999999999 1.2844947328005672e-12
    vertex 66.2363065546882 46.39999999999999 -3.891553745916099e-12
    vertex 65.45984941938063 46.297777478867204 -3.468558773533914e-12
  endloop
endfacet
facet normal -5.447831028913144e-13 -1.322470728362724e-17 -1.0
  outer loop
    vertex 56.7363065546882 49.89999999999999 1.2844947328005672e-12
    vertex 65.45984941938063 46.297777478867204 -3.468558773533914e-12
    vertex 64.7363065546882 45.998076211353315 -3.0737634659772084e-12
  endloop
endfacet
facet normal -5.447831028913144e-13 -1.322470728362724e-17 -1.0
  outer loop
    vertex 56.7363065546882 49.89999999999999 1.2844947328005672e-12
    vertex 64.7363065546882 45.998076211353315 -3.0737634659772084e-12
    vertex 64.11498621112855 45.521320343559644 -2.7353674880714607e-12
  endloop
endfacet
facet normal -5.447831028913144e-13 -1.322470728362724e-17 -1.0
  outer loop
    vertex 56.7363065546882 49.89999999999999 1.2844947328005672e-12
    vertex 64.11498621112855 45.521320343559644 -2.7353674880714607e-12
    vertex 63.63823034333488 44.9 -2.4759305716770538e-12
  endloop
endfacet
facet normal -5.447831028913144e-13 -1.322470728362724e-17 -1.0
  outer loop
    vertex 56.7363065546882 49.89999999999999 1.2844947328005672e-12
    vertex 63.63823034333488 44.9 -2.4759305716770538e-12
    vertex 63.33852907582099 44.17645713530756 -2.312372515689276e-12
  endloop
endfacet
facet normal -5.447831028913144e-13 -1.322470728362724e-17 -1.0
  outer loop
    vertex 56.7363065546882 49.89999999999999 1.2844947328005672e-12
    vertex 63.33852907582099 44.17645713530756 -2.312372515689276e-12
    vertex 63.23630655468819 43.4 -2.2573831692795917e-12
  endloop
endfacet
facet normal -5.447831028913144e-13 -1.322470728362724e-17 -1.0
  outer loop
    vertex 56.7363065546882 49.89999999999999 1.2844947328005672e-12
    vertex 63.23630655468819 43.4 -2.2573831692795917e-12
    vertex 56.7363065546882 36.89999999999996 1.2844947328005672e-12
  endloop
endfacet
facet normal -3.8522470152945547e-13 0.7071067811865486 -0.7071067811865466
  outer loop
    vertex 70.7363065546882 49.89999999999999 -6.343514602491495e-12
    vertex 57.73630655468845 50.39999999999999 0.5000000000007407
    vertex 69.73630655468848 50.39999999999999 0.49999999999420264
  endloop
endfacet
facet normal -3.8522470152945547e-13 0.7071067811865486 -0.7071067811865466
  outer loop
    vertex 57.73630655468845 50.39999999999999 0.5000000000007407
    vertex 70.7363065546882 49.89999999999999 -6.343514602491495e-12
    vertex 56.7363065546882 49.89999999999999 1.2844947328005672e-12
  endloop
endfacet
facet normal -0.19611613513817772 0.9805806756909216 1.349508976815096e-13
  outer loop
    vertex 57.73630655468845 50.39999999999999 0.5000000000007407
    vertex 56.236306554688746 50.099999999999994 1.0000000000015548
    vertex 57.73630655468879 50.39999999999999 1.0000000000007399
  endloop
endfacet
facet normal -0.19611613513817772 0.9805806756909216 1.349508976815096e-13
  outer loop
    vertex 56.236306554688746 50.099999999999994 1.0000000000015548
    vertex 57.73630655468845 50.39999999999999 0.5000000000007407
    vertex 56.2363065546884 50.099999999999994 0.5000000000015543
  endloop
endfacet
facet normal -0.1961161351381898 0.980580675690919 1.1696046868630538e-13
  outer loop
    vertex 57.736306554691964 50.4 7.000000000000737
    vertex 56.23630655469173 50.1 6.500000000001559
    vertex 56.736306554692014 50.199999999999996 7.000000000001284
  endloop
endfacet
facet normal -0.1961161351381898 0.980580675690919 1.1696046868630538e-13
  outer loop
    vertex 56.23630655469173 50.1 6.500000000001559
    vertex 57.736306554691964 50.4 7.000000000000737
    vertex 57.73630655469138 50.4 6.000000000000746
  endloop
endfacet
facet normal -0.1961161351381898 0.980580675690919 1.1696046868630538e-13
  outer loop
    vertex 56.23630655469173 50.1 6.500000000001559
    vertex 57.73630655469138 50.4 6.000000000000746
    vertex 56.23630655469142 50.1 6.000000000001559
  endloop
endfacet
facet normal -0.17066403719630477 0.8533201859828645 0.4926646390822342
  outer loop
    vertex 57.73630655469005 48.956624327025935 3.500000000000745
    vertex 56.236306554688746 50.099999999999994 1.0000000000015548
    vertex 56.236306554690096 48.65662432702594 3.5000000000015627
  endloop
endfacet
facet normal -0.17066403719630477 0.8533201859828645 0.4926646390822342
  outer loop
    vertex 56.236306554688746 50.099999999999994 1.0000000000015548
    vertex 57.73630655469005 48.956624327025935 3.500000000000745
    vertex 57.73630655468879 50.39999999999999 1.0000000000007399
  endloop
endfacet
facet normal -0.17066403719684406 0.8533201859828599 -0.49266463908205516
  outer loop
    vertex 57.73630655469005 48.956624327025935 3.500000000000745
    vertex 56.23630655469142 50.1 6.000000000001559
    vertex 57.73630655469138 50.4 6.000000000000746
  endloop
endfacet
facet normal -0.17066403719684406 0.8533201859828599 -0.49266463908205516
  outer loop
    vertex 56.23630655469142 50.1 6.000000000001559
    vertex 57.73630655469005 48.956624327025935 3.500000000000745
    vertex 56.236306554690096 48.65662432702594 3.5000000000015627
  endloop
endfacet
facet normal -0.16903085094597095 0.8451542547285088 -0.5070925528370337
  outer loop
    vertex 56.7363065546882 49.89999999999999 1.2844947328005672e-12
    vertex 56.2363065546884 50.099999999999994 0.5000000000015543
    vertex 57.73630655468845 50.39999999999999 0.5000000000007407
  endloop
endfacet
facet normal -1.0 -1.743343278493676e-30 5.470021060577716e-13
  outer loop
    vertex 56.23630655469173 50.1 6.500000000001559
    vertex 56.23630655469142 36.70000000000001 6.000000000001559
    vertex 56.23630655469173 36.70000000000001 6.500000000001559
  endloop
endfacet
facet normal -1.0 -1.743343278493676e-30 5.470021060577716e-13
  outer loop
    vertex 56.23630655469142 36.70000000000001 6.000000000001559
    vertex 56.23630655469173 50.1 6.500000000001559
    vertex 56.236306554690096 38.14337567297405 3.5000000000015627
  endloop
endfacet
facet normal -1.0 -1.743343278493676e-30 5.470021060577716e-13
  outer loop
    vertex 56.236306554690096 38.14337567297405 3.5000000000015627
    vertex 56.23630655469173 50.1 6.500000000001559
    vertex 56.236306554690096 48.65662432702594 3.5000000000015627
  endloop
endfacet
facet normal -1.0 -1.743343278493676e-30 5.470021060577716e-13
  outer loop
    vertex 56.236306554690096 48.65662432702594 3.5000000000015627
    vertex 56.23630655469173 50.1 6.500000000001559
    vertex 56.23630655469142 50.1 6.000000000001559
  endloop
endfacet
facet normal -1.0 -1.743343278493676e-30 5.470021060577716e-13
  outer loop
    vertex 56.236306554690096 38.14337567297405 3.5000000000015627
    vertex 56.2363065546884 36.70000000000001 0.5000000000015543
    vertex 56.236306554688746 36.70000000000001 1.0000000000015548
  endloop
endfacet
facet normal -1.0 -1.743343278493676e-30 5.470021060577716e-13
  outer loop
    vertex 56.2363065546884 36.70000000000001 0.5000000000015543
    vertex 56.236306554690096 38.14337567297405 3.5000000000015627
    vertex 56.2363065546884 50.099999999999994 0.5000000000015543
  endloop
endfacet
facet normal -1.0 -1.743343278493676e-30 5.470021060577716e-13
  outer loop
    vertex 56.2363065546884 50.099999999999994 0.5000000000015543
    vertex 56.236306554690096 38.14337567297405 3.5000000000015627
    vertex 56.236306554690096 48.65662432702594 3.5000000000015627
  endloop
endfacet
facet normal -1.0 -1.743343278493676e-30 5.470021060577716e-13
  outer loop
    vertex 56.2363065546884 50.099999999999994 0.5000000000015543
    vertex 56.236306554690096 48.65662432702594 3.5000000000015627
    vertex 56.236306554688746 50.099999999999994 1.0000000000015548
  endloop
endfacet
facet normal -2.726011855087657e-13 0.8660254037844388 -0.4999999999999997
  outer loop
    vertex 69.73630655469148 50.4 5.999999999994203
    vertex 57.73630655469005 48.956624327025935 3.500000000000745
    vertex 57.73630655469138 50.4 6.000000000000746
  endloop
endfacet
facet normal -2.726011855087657e-13 0.8660254037844388 -0.4999999999999997
  outer loop
    vertex 57.73630655469005 48.956624327025935 3.500000000000745
    vertex 69.73630655469148 50.4 5.999999999994203
    vertex 69.73630655469012 48.956624327025935 3.4999999999942033
  endloop
endfacet
facet normal 2.72510469405838e-13 0.86602540378444 0.49999999999999767
  outer loop
    vertex 69.73630655469012 48.956624327025935 3.4999999999942033
    vertex 57.73630655468879 50.39999999999999 1.0000000000007399
    vertex 57.73630655469005 48.956624327025935 3.500000000000745
  endloop
endfacet
facet normal 2.72510469405838e-13 0.86602540378444 0.49999999999999767
  outer loop
    vertex 57.73630655468879 50.39999999999999 1.0000000000007399
    vertex 69.73630655469012 48.956624327025935 3.4999999999942033
    vertex 69.73630655468875 50.39999999999999 0.999999999994201
  endloop
endfacet
facet normal 0.17066403719685036 -0.853320185982861 0.49266463908205127
  outer loop
    vertex 69.73630655468875 36.39999999999998 0.999999999994201
    vertex 71.2363065546901 38.14337567297405 3.499999999993385
    vertex 69.73630655469012 37.84337567297406 3.4999999999942033
  endloop
endfacet
facet normal 0.17066403719685036 -0.853320185982861 0.49266463908205127
  outer loop
    vertex 71.2363065546901 38.14337567297405 3.499999999993385
    vertex 69.73630655468875 36.39999999999998 0.999999999994201
    vertex 71.23630655468874 36.70000000000001 0.9999999999933825
  endloop
endfacet
facet normal 0.1706640371963126 -0.8533201859828606 -0.49266463908223807
  outer loop
    vertex 69.73630655469012 37.84337567297406 3.4999999999942033
    vertex 71.23630655469147 36.70000000000001 5.999999999993385
    vertex 69.73630655469148 36.39999999999998 5.999999999994203
  endloop
endfacet
facet normal 0.1706640371963126 -0.8533201859828606 -0.49266463908223807
  outer loop
    vertex 71.23630655469147 36.70000000000001 5.999999999993385
    vertex 69.73630655469012 37.84337567297406 3.4999999999942033
    vertex 71.2363065546901 38.14337567297405 3.499999999993385
  endloop
endfacet
facet normal -0.7071067811868935 -4.981694189163004e-29 -0.7071067811862015
  outer loop
    vertex 56.2363065546884 36.70000000000001 0.5000000000015543
    vertex 56.7363065546882 49.89999999999999 1.2844947328005672e-12
    vertex 56.7363065546882 36.89999999999996 1.2844947328005672e-12
  endloop
endfacet
facet normal -0.7071067811868935 -4.981694189163004e-29 -0.7071067811862015
  outer loop
    vertex 56.7363065546882 49.89999999999999 1.2844947328005672e-12
    vertex 56.2363065546884 36.70000000000001 0.5000000000015543
    vertex 56.2363065546884 50.099999999999994 0.5000000000015543
  endloop
endfacet
facet normal -0.16903085094599465 -0.8451542547285346 -0.5070925528369833
  outer loop
    vertex 56.7363065546882 36.89999999999996 1.2844947328005672e-12
    vertex 57.73630655468845 36.39999999999998 0.5000000000007407
    vertex 56.2363065546884 36.70000000000001 0.5000000000015543
  endloop
endfacet
facet normal 0.0 -1.0 0.0
  outer loop
    vertex 57.73630655468845 36.39999999999998 0.5000000000007407
    vertex 69.73630655468875 36.39999999999998 0.999999999994201
    vertex 57.73630655468879 36.39999999999998 1.0000000000007399
  endloop
endfacet
facet normal 0.0 -1.0 0.0
  outer loop
    vertex 69.73630655468875 36.39999999999998 0.999999999994201
    vertex 57.73630655468845 36.39999999999998 0.5000000000007407
    vertex 69.73630655468848 36.39999999999998 0.49999999999420264
  endloop
endfacet
facet normal 0.7071067811861633 1.135207230612963e-18 -0.7071067811869318
  outer loop
    vertex 70.7363065546882 36.89999999999996 -6.343514602491495e-12
    vertex 71.23630655468847 50.099999999999994 0.49999999999338346
    vertex 71.23630655468847 36.70000000000001 0.49999999999338346
  endloop
endfacet
facet normal 0.7071067811861633 1.135207230612963e-18 -0.7071067811869318
  outer loop
    vertex 71.23630655468847 50.099999999999994 0.49999999999338346
    vertex 70.7363065546882 36.89999999999996 -6.343514602491495e-12
    vertex 70.7363065546882 49.89999999999999 -6.343514602491495e-12
  endloop
endfacet
facet normal -3.8526727684102366e-13 -0.707106781186561 -0.707106781186534
  outer loop
    vertex 56.7363065546882 36.89999999999996 1.2844947328005672e-12
    vertex 69.73630655468848 36.39999999999998 0.49999999999420264
    vertex 57.73630655468845 36.39999999999998 0.5000000000007407
  endloop
endfacet
facet normal -3.8526727684102366e-13 -0.707106781186561 -0.707106781186534
  outer loop
    vertex 69.73630655468848 36.39999999999998 0.49999999999420264
    vertex 56.7363065546882 36.89999999999996 1.2844947328005672e-12
    vertex 70.7363065546882 36.89999999999996 -6.343514602491495e-12
  endloop
endfacet
facet normal 0.1690308509454519 -0.8451542547285424 -0.5070925528371506
  outer loop
    vertex 70.7363065546882 36.89999999999996 -6.343514602491495e-12
    vertex 71.23630655468847 36.70000000000001 0.49999999999338346
    vertex 69.73630655468848 36.39999999999998 0.49999999999420264
  endloop
endfacet
facet normal -0.7071067811861573 2.9283173570418805e-29 0.7071067811869378
  outer loop
    vertex 56.23630655469173 50.1 6.500000000001559
    vertex 56.736306554692014 36.59999999999999 7.000000000001284
    vertex 56.736306554692014 50.199999999999996 7.000000000001284
  endloop
endfacet
facet normal -0.7071067811861573 2.9283173570418805e-29 0.7071067811869378
  outer loop
    vertex 56.736306554692014 36.59999999999999 7.000000000001284
    vertex 56.23630655469173 50.1 6.500000000001559
    vertex 56.23630655469173 36.70000000000001 6.500000000001559
  endloop
endfacet
facet normal 5.447235255455032e-13 1.178105327806409e-30 1.0
  outer loop
    vertex 59.2363065546912 44.9 5.499999999999922
    vertex 61.2363065546912 41.89999999999994 5.499999999998833
    vertex 61.2363065546912 44.9 5.499999999998833
  endloop
endfacet
facet normal 5.447235255455032e-13 1.178105327806409e-30 1.0
  outer loop
    vertex 61.2363065546912 41.89999999999994 5.499999999998833
    vertex 59.2363065546912 44.9 5.499999999999922
    vertex 59.2363065546912 41.89999999999994 5.499999999999922
  endloop
endfacet
facet normal 0.19611613513820678 -0.9805806756909158 -1.0623224921416778e-13
  outer loop
    vertex 69.73630655468848 36.39999999999998 0.49999999999420264
    vertex 71.23630655468874 36.70000000000001 0.9999999999933825
    vertex 69.73630655468875 36.39999999999998 0.999999999994201
  endloop
endfacet
facet normal 0.19611613513820678 -0.9805806756909158 -1.0623224921416778e-13
  outer loop
    vertex 71.23630655468874 36.70000000000001 0.9999999999933825
    vertex 69.73630655468848 36.39999999999998 0.49999999999420264
    vertex 71.23630655468847 36.70000000000001 0.49999999999338346
  endloop
endfacet
facet normal 0.0 -1.0 0.0
  outer loop
    vertex 57.736306554691964 36.39999999999998 7.000000000000737
    vertex 69.73630655469148 36.39999999999998 5.999999999994203
    vertex 69.73630655469202 36.39999999999998 6.9999999999942
  endloop
endfacet
facet normal 0.0 -1.0 0.0
  outer loop
    vertex 69.73630655469148 36.39999999999998 5.999999999994203
    vertex 57.736306554691964 36.39999999999998 7.000000000000737
    vertex 57.73630655469138 36.39999999999998 6.000000000000746
  endloop
endfacet
facet normal -0.170664037196852 -0.8533201859828592 -0.4926646390820538
  outer loop
    vertex 56.23630655469142 36.70000000000001 6.000000000001559
    vertex 57.73630655469005 37.84337567297406 3.500000000000745
    vertex 57.73630655469138 36.39999999999998 6.000000000000746
  endloop
endfacet
facet normal -0.170664037196852 -0.8533201859828592 -0.4926646390820538
  outer loop
    vertex 57.73630655469005 37.84337567297406 3.500000000000745
    vertex 56.23630655469142 36.70000000000001 6.000000000001559
    vertex 56.236306554690096 38.14337567297405 3.5000000000015627
  endloop
endfacet
facet normal 0.19611613513820675 -0.9805806756909156 -1.0618252143747235e-13
  outer loop
    vertex 69.73630655469202 36.39999999999998 6.9999999999942
    vertex 71.23630655469147 36.70000000000001 5.999999999993385
    vertex 71.236306554692 36.70000000000001 6.999999999993384
  endloop
endfacet
facet normal 0.19611613513820675 -0.9805806756909156 -1.0618252143747235e-13
  outer loop
    vertex 71.23630655469147 36.70000000000001 5.999999999993385
    vertex 69.73630655469202 36.39999999999998 6.9999999999942
    vertex 69.73630655469148 36.39999999999998 5.999999999994203
  endloop
endfacet
facet normal -2.726011855087679e-13 -0.8660254037844364 -0.5000000000000041
  outer loop
    vertex 57.73630655469005 37.84337567297406 3.500000000000745
    vertex 69.73630655469148 36.39999999999998 5.999999999994203
    vertex 57.73630655469138 36.39999999999998 6.000000000000746
  endloop
endfacet
facet normal -2.726011855087679e-13 -0.8660254037844364 -0.5000000000000041
  outer loop
    vertex 69.73630655469148 36.39999999999998 5.999999999994203
    vertex 57.73630655469005 37.84337567297406 3.500000000000745
    vertex 69.73630655469012 37.84337567297406 3.4999999999942033
  endloop
endfacet
facet normal 0.6087614290087265 0.7933533402912306 -3.323485503534208e-13
  outer loop
    vertex 64.23630655468926 39.93589838486223 1.999999999997199
    vertex 63.40787942994582 40.57157287525379 6.999999999997649
    vertex 64.236306554692 39.93589838486223 6.999999999997198
  endloop
endfacet
facet normal 0.6087614290087265 0.7933533402912306 -3.323485503534208e-13
  outer loop
    vertex 63.40787942994582 40.57157287525379 6.999999999997649
    vertex 64.23630655468926 39.93589838486223 1.999999999997199
    vertex 63.407879429943094 40.57157287525379 1.99999999999765
  endloop
endfacet
facet normal 0.9238795325112867 0.3826834323650903 -5.033476312554509e-13
  outer loop
    vertex 62.372603249533 42.3647238195899 1.999999999998214
    vertex 62.77220493955425 41.39999999999996 6.999999999997996
    vertex 62.772204939551536 41.39999999999996 1.999999999997997
  endloop
endfacet
facet normal 0.9238795325112867 0.3826834323650903 -5.033476312554509e-13
  outer loop
    vertex 62.77220493955425 41.39999999999996 6.999999999997996
    vertex 62.372603249533 42.3647238195899 1.999999999998214
    vertex 62.37260324953573 42.3647238195899 6.999999999998213
  endloop
endfacet
facet normal 0.9914448613738107 0.13052619222005007 -5.412732301129836e-13
  outer loop
    vertex 62.23630655468927 43.39999999999999 1.999999999998289
    vertex 62.37260324953573 42.3647238195899 6.999999999998213
    vertex 62.372603249533 42.3647238195899 1.999999999998214
  endloop
endfacet
facet normal 0.9914448613738107 0.13052619222005007 -5.412732301129836e-13
  outer loop
    vertex 62.37260324953573 42.3647238195899 6.999999999998213
    vertex 62.23630655468927 43.39999999999999 1.999999999998289
    vertex 62.23630655469201 43.39999999999999 6.9999999999982885
  endloop
endfacet
facet normal 0.1305261922201523 0.9914448613737972 -7.111101259141697e-14
  outer loop
    vertex 66.23630655468929 39.39999999999994 1.9999999999961091
    vertex 65.20103037428193 39.53629669484378 6.999999999996672
    vertex 66.236306554692 39.39999999999994 6.999999999996108
  endloop
endfacet
facet normal 0.1305261922201523 0.9914448613737972 -7.111101259141697e-14
  outer loop
    vertex 65.20103037428193 39.53629669484378 6.999999999996672
    vertex 66.23630655468929 39.39999999999994 1.9999999999961091
    vertex 65.2010303742792 39.53629669484378 1.999999999996673
  endloop
endfacet
facet normal 0.0 1.0 0.0
  outer loop
    vertex 61.2363065546912 41.89999999999994 5.499999999998833
    vertex 59.23630655469201 41.89999999999994 6.999999999999923
    vertex 61.23630655469201 41.89999999999994 6.999999999998832
  endloop
endfacet
facet normal 0.0 1.0 0.0
  outer loop
    vertex 59.23630655469201 41.89999999999994 6.999999999999923
    vertex 61.2363065546912 41.89999999999994 5.499999999998833
    vertex 59.2363065546912 41.89999999999994 5.499999999999922
  endloop
endfacet
facet normal 0.7933533402912287 0.6087614290087292 -4.3223040424440584e-13
  outer loop
    vertex 62.772204939551536 41.39999999999996 1.999999999997997
    vertex 63.40787942994582 40.57157287525379 6.999999999997649
    vertex 63.407879429943094 40.57157287525379 1.99999999999765
  endloop
endfacet
facet normal 0.7933533402912287 0.6087614290087292 -4.3223040424440584e-13
  outer loop
    vertex 63.40787942994582 40.57157287525379 6.999999999997649
    vertex 62.772204939551536 41.39999999999996 1.999999999997997
    vertex 62.77220493955425 41.39999999999996 6.999999999997996
  endloop
endfacet
facet normal -0.3826834323650852 0.9238795325112888 2.1151444621520198e-13
  outer loop
    vertex 68.2363065546892 39.93589838486223 1.9999999999950198
    vertex 67.27158273510209 39.53629669484372 6.999999999995544
    vertex 68.23630655469202 39.93589838486223 6.999999999995018
  endloop
endfacet
facet normal -0.3826834323650852 0.9238795325112888 2.1151444621520198e-13
  outer loop
    vertex 67.27158273510209 39.53629669484372 6.999999999995544
    vertex 68.2363065546892 39.93589838486223 1.9999999999950198
    vertex 67.27158273509936 39.53629669484372 1.9999999999955451
  endloop
endfacet
facet normal 0.38268343236502755 0.9238795325113125 -2.0892418221995797e-13
  outer loop
    vertex 65.2010303742792 39.53629669484378 1.999999999996673
    vertex 64.236306554692 39.93589838486223 6.999999999997198
    vertex 65.20103037428193 39.53629669484378 6.999999999996672
  endloop
endfacet
facet normal 0.38268343236502755 0.9238795325113125 -2.0892418221995797e-13
  outer loop
    vertex 64.236306554692 39.93589838486223 6.999999999997198
    vertex 65.2010303742792 39.53629669484378 1.999999999996673
    vertex 64.23630655468926 39.93589838486223 1.999999999997199
  endloop
endfacet
facet normal -0.99144486137381 0.13052619222005468 5.5357452765137e-13
  outer loop
    vertex 70.236306554692 43.4 6.999999999993928
    vertex 70.10000985984547 42.3647238195899 1.999999999994004
    vertex 70.10000985984829 42.3647238195899 6.999999999994003
  endloop
endfacet
facet normal -0.99144486137381 0.13052619222005468 5.5357452765137e-13
  outer loop
    vertex 70.10000985984547 42.3647238195899 1.999999999994004
    vertex 70.236306554692 43.4 6.999999999993928
    vertex 70.23630655468921 43.4 1.99999999999393
  endloop
endfacet
facet normal -0.7933533402912314 0.6087614290087259 4.438638799094135e-13
  outer loop
    vertex 69.70040816982976 41.39999999999996 6.999999999994233
    vertex 69.06473367943538 40.57157287525379 1.999999999994568
    vertex 69.06473367943819 40.57157287525379 6.999999999994567
  endloop
endfacet
facet normal -0.7933533402912314 0.6087614290087259 4.438638799094135e-13
  outer loop
    vertex 69.06473367943538 40.57157287525379 1.999999999994568
    vertex 69.70040816982976 41.39999999999996 6.999999999994233
    vertex 69.70040816982693 41.39999999999996 1.9999999999942217
  endloop
endfacet
facet normal -0.9238795325112846 0.38268343236509467 5.168927841633905e-13
  outer loop
    vertex 70.10000985984829 42.3647238195899 6.999999999994003
    vertex 69.70040816982693 41.39999999999996 1.9999999999942217
    vertex 69.70040816982976 41.39999999999996 6.999999999994233
  endloop
endfacet
facet normal -0.9238795325112846 0.38268343236509467 5.168927841633905e-13
  outer loop
    vertex 69.70040816982693 41.39999999999996 1.9999999999942217
    vertex 70.10000985984829 42.3647238195899 6.999999999994003
    vertex 70.10000985984547 42.3647238195899 1.999999999994004
  endloop
endfacet
facet normal -0.13052619222010062 0.9914448613738039 7.111239959077422e-14
  outer loop
    vertex 67.27158273509936 39.53629669484372 1.9999999999955451
    vertex 66.236306554692 39.39999999999994 6.999999999996108
    vertex 67.27158273510209 39.53629669484372 6.999999999995544
  endloop
endfacet
facet normal -0.13052619222010062 0.9914448613738039 7.111239959077422e-14
  outer loop
    vertex 66.236306554692 39.39999999999994 6.999999999996108
    vertex 67.27158273509936 39.53629669484372 1.9999999999955451
    vertex 66.23630655468929 39.39999999999994 1.9999999999961091
  endloop
endfacet
facet normal -0.6087614290087265 0.7933533402912306 3.4058662222076204e-13
  outer loop
    vertex 69.06473367943538 40.57157287525379 1.999999999994568
    vertex 68.23630655469202 39.93589838486223 6.999999999995018
    vertex 69.06473367943819 40.57157287525379 6.999999999994567
  endloop
endfacet
facet normal -0.6087614290087265 0.7933533402912306 3.4058662222076204e-13
  outer loop
    vertex 68.23630655469202 39.93589838486223 6.999999999995018
    vertex 69.06473367943538 40.57157287525379 1.999999999994568
    vertex 68.2363065546892 39.93589838486223 1.9999999999950198
  endloop
endfacet
facet normal -1.0 0.0 5.414335646491966e-13
  outer loop
    vertex 61.23630655469201 44.9 6.999999999998832
    vertex 61.2363065546912 41.89999999999994 5.499999999998833
    vertex 61.23630655469201 41.89999999999994 6.999999999998832
  endloop
endfacet
facet normal -1.0 0.0 5.414335646491966e-13
  outer loop
    vertex 61.2363065546912 41.89999999999994 5.499999999998833
    vertex 61.23630655469201 44.9 6.999999999998832
    vertex 61.2363065546912 44.9 5.499999999998833
  endloop
endfacet
facet normal -0.196116135138199 -0.9805806756909173 1.3496118618695704e-13
  outer loop
    vertex 56.236306554688746 36.70000000000001 1.0000000000015548
    vertex 57.73630655468845 36.39999999999998 0.5000000000007407
    vertex 57.73630655468879 36.39999999999998 1.0000000000007399
  endloop
endfacet
facet normal -0.196116135138199 -0.9805806756909173 1.3496118618695704e-13
  outer loop
    vertex 57.73630655468845 36.39999999999998 0.5000000000007407
    vertex 56.236306554688746 36.70000000000001 1.0000000000015548
    vertex 56.2363065546884 36.70000000000001 0.5000000000015543
  endloop
endfacet
facet normal 1.0 0.0 -5.414335646491964e-13
  outer loop
    vertex 59.2363065546912 44.9 5.499999999999922
    vertex 59.23630655469201 41.89999999999994 6.999999999999923
    vertex 59.2363065546912 41.89999999999994 5.499999999999922
  endloop
endfacet
facet normal 1.0 0.0 -5.414335646491964e-13
  outer loop
    vertex 59.23630655469201 41.89999999999994 6.999999999999923
    vertex 59.2363065546912 44.9 5.499999999999922
    vertex 59.23630655469201 44.9 6.999999999999923
  endloop
endfacet
facet normal -0.1961161351382092 -0.9805806756909152 1.0884235338093309e-13
  outer loop
    vertex 56.23630655469173 36.70000000000001 6.500000000001559
    vertex 57.736306554691964 36.39999999999998 7.000000000000737
    vertex 56.736306554692014 36.59999999999999 7.000000000001284
  endloop
endfacet
facet normal -0.1961161351382092 -0.9805806756909152 1.0884235338093309e-13
  outer loop
    vertex 57.736306554691964 36.39999999999998 7.000000000000737
    vertex 56.23630655469173 36.70000000000001 6.500000000001559
    vertex 57.73630655469138 36.39999999999998 6.000000000000746
  endloop
endfacet
facet normal -0.1961161351382092 -0.9805806756909152 1.0884235338093309e-13
  outer loop
    vertex 57.73630655469138 36.39999999999998 6.000000000000746
    vertex 56.23630655469173 36.70000000000001 6.500000000001559
    vertex 56.23630655469142 36.70000000000001 6.000000000001559
  endloop
endfacet
facet normal 2.7251046940584107e-13 -0.8660254037844367 0.5000000000000037
  outer loop
    vertex 57.73630655468879 36.39999999999998 1.0000000000007399
    vertex 69.73630655469012 37.84337567297406 3.4999999999942033
    vertex 57.73630655469005 37.84337567297406 3.500000000000745
  endloop
endfacet
facet normal 2.7251046940584107e-13 -0.8660254037844367 0.5000000000000037
  outer loop
    vertex 69.73630655469012 37.84337567297406 3.4999999999942033
    vertex 57.73630655468879 36.39999999999998 1.0000000000007399
    vertex 69.73630655468875 36.39999999999998 0.999999999994201
  endloop
endfacet
facet normal -0.17066403719631246 -0.8533201859828629 0.49266463908223407
  outer loop
    vertex 56.236306554688746 36.70000000000001 1.0000000000015548
    vertex 57.73630655469005 37.84337567297406 3.500000000000745
    vertex 56.236306554690096 38.14337567297405 3.5000000000015627
  endloop
endfacet
facet normal -0.17066403719631246 -0.8533201859828629 0.49266463908223407
  outer loop
    vertex 57.73630655469005 37.84337567297406 3.500000000000745
    vertex 56.236306554688746 36.70000000000001 1.0000000000015548
    vertex 57.73630655468879 36.39999999999998 1.0000000000007399
  endloop
endfacet
facet normal -0.29982392600138164 -0.7238389884772736 0.6214199322175912
  outer loop
    vertex 67.0645274990168 46.49096264412503 0.9999999999956547
    vertex 68.23630655468921 46.86410161513775 1.9999999999950198
    vertex 67.27158273509936 47.26370330515627 1.9999999999955451
  endloop
endfacet
facet normal -0.29982392600138164 -0.7238389884772736 0.6214199322175912
  outer loop
    vertex 68.23630655468921 46.86410161513775 1.9999999999950198
    vertex 67.0645274990168 46.49096264412503 0.9999999999956547
    vertex 67.83630655468875 46.17128129211021 0.9999999999952353
  endloop
endfacet
facet normal -0.10226435765843253 -0.7767749152718035 0.6214199322174907
  outer loop
    vertex 66.23630655468874 46.6 0.9999999999961059
    vertex 67.27158273509936 47.26370330515627 1.9999999999955451
    vertex 66.23630655468929 47.4 1.9999999999961091
  endloop
endfacet
facet normal -0.10226435765843253 -0.7767749152718035 0.6214199322174907
  outer loop
    vertex 67.27158273509936 47.26370330515627 1.9999999999955451
    vertex 66.23630655468874 46.6 0.9999999999961059
    vertex 67.0645274990168 46.49096264412503 0.9999999999956547
  endloop
endfacet
facet normal 0.7238389884776065 -0.2998239260017162 0.621419932217042
  outer loop
    vertex 63.465025262578536 45.0 0.999999999997616
    vertex 62.372603249533 44.43527618041008 1.999999999998214
    vertex 63.14534391056371 44.22822094432807 0.9999999999977901
  endloop
endfacet
facet normal 0.7238389884776065 -0.2998239260017162 0.621419932217042
  outer loop
    vertex 62.372603249533 44.43527618041008 1.999999999998214
    vertex 63.465025262578536 45.0 0.999999999997616
    vertex 62.772204939551536 45.4 1.999999999997997
  endloop
endfacet
facet normal -0.4769509892697709 -0.621574630818511 0.621419932217674
  outer loop
    vertex 67.83630655468875 46.17128129211021 0.9999999999952353
    vertex 69.06473367943539 46.22842712474618 1.999999999994568
    vertex 68.23630655468921 46.86410161513775 1.9999999999950198
  endloop
endfacet
facet normal -0.4769509892697709 -0.621574630818511 0.621419932217674
  outer loop
    vertex 69.06473367943539 46.22842712474618 1.999999999994568
    vertex 67.83630655468875 46.17128129211021 0.9999999999952353
    vertex 68.49904825448569 45.66274169979695 0.9999999999948743
  endloop
endfacet
facet normal 0.4769509892704349 -0.621574630818498 0.6214199322171776
  outer loop
    vertex 63.973564854891784 45.66274169979695 0.9999999999973389
    vertex 64.23630655468926 46.86410161513775 1.999999999997199
    vertex 63.407879429943094 46.22842712474618 1.99999999999765
  endloop
endfacet
facet normal 0.4769509892704349 -0.621574630818498 0.6214199322171776
  outer loop
    vertex 64.23630655468926 46.86410161513775 1.999999999997199
    vertex 63.973564854891784 45.66274169979695 0.9999999999973389
    vertex 64.63630655468874 46.17128129211021 0.999999999996978
  endloop
endfacet
facet normal 0.9725103539709196 -0.1280334170298623 0.19450207079364074
  outer loop
    vertex 63.33852907582099 44.17645713530756 -2.312372515689276e-12
    vertex 63.03630655468873 43.4 0.9999999999978494
    vertex 63.23630655468819 43.4 -2.2573831692795917e-12
  endloop
endfacet
facet normal 0.9725103539709196 -0.1280334170298623 0.19450207079364074
  outer loop
    vertex 63.03630655468873 43.4 0.9999999999978494
    vertex 63.33852907582099 44.17645713530756 -2.312372515689276e-12
    vertex 63.14534391056371 44.22822094432807 0.9999999999977901
  endloop
endfacet
facet normal 0.9062353804971544 -0.37537498530422647 0.19450207079368004
  outer loop
    vertex 63.63823034333488 44.9 -2.4759305716770538e-12
    vertex 63.14534391056371 44.22822094432807 0.9999999999977901
    vertex 63.33852907582099 44.17645713530756 -2.312372515689276e-12
  endloop
endfacet
facet normal 0.9062353804971544 -0.37537498530422647 0.19450207079368004
  outer loop
    vertex 63.14534391056371 44.22822094432807 0.9999999999977901
    vertex 63.63823034333488 44.9 -2.4759305716770538e-12
    vertex 63.465025262578536 45.0 0.999999999997616
  endloop
endfacet
facet normal -0.972510353970709 -0.12803341702986182 0.19450207079469348
  outer loop
    vertex 69.32726919881377 44.22822094432807 0.9999999999944224
    vertex 69.2363065546882 43.4 -5.525724322552605e-12
    vertex 69.43630655468874 43.39999999999999 0.9999999999943632
  endloop
endfacet
facet normal -0.972510353970709 -0.12803341702986182 0.19450207079469348
  outer loop
    vertex 69.2363065546882 43.4 -5.525724322552605e-12
    vertex 69.32726919881377 44.22822094432807 0.9999999999944224
    vertex 69.1340840335554 44.17645713530756 -5.470734976142921e-12
  endloop
endfacet
facet normal 0.7782019634672972 -0.5971353686665923 0.1945020707937481
  outer loop
    vertex 64.11498621112855 45.521320343559644 -2.7353674880714607e-12
    vertex 63.465025262578536 45.0 0.999999999997616
    vertex 63.63823034333488 44.9 -2.4759305716770538e-12
  endloop
endfacet
facet normal 0.7782019634672972 -0.5971353686665923 0.1945020707937481
  outer loop
    vertex 63.465025262578536 45.0 0.999999999997616
    vertex 64.11498621112855 45.521320343559644 -2.7353674880714607e-12
    vertex 63.973564854891784 45.66274169979695 0.9999999999973389
  endloop
endfacet
facet normal -0.12803341702974932 -0.9725103539708143 0.19450207079424095
  outer loop
    vertex 66.2363065546882 46.39999999999999 -3.891553745916099e-12
    vertex 67.0645274990168 46.49096264412503 0.9999999999956547
    vertex 66.23630655468874 46.6 0.9999999999961059
  endloop
endfacet
facet normal -0.12803341702974932 -0.9725103539708143 0.19450207079424095
  outer loop
    vertex 67.0645274990168 46.49096264412503 0.9999999999956547
    vertex 66.2363065546882 46.39999999999999 -3.891553745916099e-12
    vertex 67.01276368999577 46.297777478867204 -4.314548718298283e-12
  endloop
endfacet
facet normal 0.3753749853043322 -0.9062353804970493 0.1945020707939659
  outer loop
    vertex 64.7363065546882 45.998076211353315 -3.0737634659772084e-12
    vertex 65.40808561036067 46.49096264412503 0.9999999999965571
    vertex 64.63630655468874 46.17128129211021 0.999999999996978
  endloop
endfacet
facet normal 0.3753749853043322 -0.9062353804970493 0.1945020707939659
  outer loop
    vertex 65.40808561036067 46.49096264412503 0.9999999999965571
    vertex 64.7363065546882 45.998076211353315 -3.0737634659772084e-12
    vertex 65.45984941938063 46.297777478867204 -3.468558773533914e-12
  endloop
endfacet
facet normal -0.778201963467086 -0.597135368666593 0.1945020707945908
  outer loop
    vertex 69.00758784679894 45.0 0.9999999999945965
    vertex 68.35762689824783 45.521320343559644 -5.047740003760737e-12
    vertex 68.83438276604151 44.9 -5.307176920155143e-12
  endloop
endfacet
facet normal -0.778201963467086 -0.597135368666593 0.1945020707945908
  outer loop
    vertex 68.35762689824783 45.521320343559644 -5.047740003760737e-12
    vertex 69.00758784679894 45.0 0.9999999999945965
    vertex 68.49904825448569 45.66274169979695 0.9999999999948743
  endloop
endfacet
facet normal -0.9062353804969435 -0.37537498530422725 0.1945020707946614
  outer loop
    vertex 69.32726919881377 44.22822094432807 0.9999999999944224
    vertex 68.83438276604151 44.9 -5.307176920155143e-12
    vertex 69.1340840335554 44.17645713530756 -5.470734976142921e-12
  endloop
endfacet
facet normal -0.9062353804969435 -0.37537498530422725 0.1945020707946614
  outer loop
    vertex 68.83438276604151 44.9 -5.307176920155143e-12
    vertex 69.32726919881377 44.22822094432807 0.9999999999944224
    vertex 69.00758784679894 45.0 0.9999999999945965
  endloop
endfacet
facet normal 0.5971353686666979 -0.7782019634671917 0.1945020707938468
  outer loop
    vertex 64.11498621112855 45.521320343559644 -2.7353674880714607e-12
    vertex 64.63630655468874 46.17128129211021 0.999999999996978
    vertex 63.973564854891784 45.66274169979695 0.9999999999973389
  endloop
endfacet
facet normal 0.5971353686666979 -0.7782019634671917 0.1945020707938468
  outer loop
    vertex 64.63630655468874 46.17128129211021 0.999999999996978
    vertex 64.11498621112855 45.521320343559644 -2.7353674880714607e-12
    vertex 64.7363065546882 45.998076211353315 -3.0737634659772084e-12
  endloop
endfacet
facet normal -0.6215746308181814 -0.4769509892701068 0.6214199322177459
  outer loop
    vertex 69.70040816982694 45.4 1.9999999999942217
    vertex 68.49904825448569 45.66274169979695 0.9999999999948743
    vertex 69.00758784679894 45.0 0.9999999999945965
  endloop
endfacet
facet normal -0.6215746308181814 -0.4769509892701068 0.6214199322177459
  outer loop
    vertex 68.49904825448569 45.66274169979695 0.9999999999948743
    vertex 69.70040816982694 45.4 1.9999999999942217
    vertex 69.06473367943539 46.22842712474618 1.999999999994568
  endloop
endfacet
facet normal -0.37537498530411645 -0.906235380497051 0.19450207079437318
  outer loop
    vertex 67.0645274990168 46.49096264412503 0.9999999999956547
    vertex 67.7363065546882 45.998076211353315 -4.698064159924797e-12
    vertex 67.83630655468875 46.17128129211021 0.9999999999952353
  endloop
endfacet
facet normal -0.37537498530411645 -0.906235380497051 0.19450207079437318
  outer loop
    vertex 67.7363065546882 45.998076211353315 -4.698064159924797e-12
    vertex 67.0645274990168 46.49096264412503 0.9999999999956547
    vertex 67.01276368999577 46.297777478867204 -4.314548718298283e-12
  endloop
endfacet
facet normal 0.12803341702996127 -0.9725103539708141 0.19450207079410226
  outer loop
    vertex 65.45984941938063 46.297777478867204 -3.468558773533914e-12
    vertex 66.23630655468874 46.6 0.9999999999961059
    vertex 65.40808561036067 46.49096264412503 0.9999999999965571
  endloop
endfacet
facet normal 0.12803341702996127 -0.9725103539708141 0.19450207079410226
  outer loop
    vertex 66.23630655468874 46.6 0.9999999999961059
    vertex 65.45984941938063 46.297777478867204 -3.468558773533914e-12
    vertex 66.2363065546882 46.39999999999999 -3.891553745916099e-12
  endloop
endfacet
facet normal -0.5971353686664921 -0.7782019634671878 0.19450207079449422
  outer loop
    vertex 67.7363065546882 45.998076211353315 -4.698064159924797e-12
    vertex 68.49904825448569 45.66274169979695 0.9999999999948743
    vertex 67.83630655468875 46.17128129211021 0.9999999999952353
  endloop
endfacet
facet normal -0.5971353686664921 -0.7782019634671878 0.19450207079449422
  outer loop
    vertex 68.49904825448569 45.66274169979695 0.9999999999948743
    vertex 67.7363065546882 45.998076211353315 -4.698064159924797e-12
    vertex 68.35762689824783 45.521320343559644 -5.047740003760737e-12
  endloop
endfacet
facet normal 0.621574630818841 -0.47695098927009316 0.6214199322170967
  outer loop
    vertex 63.973564854891784 45.66274169979695 0.9999999999973389
    vertex 62.772204939551536 45.4 1.999999999997997
    vertex 63.465025262578536 45.0 0.999999999997616
  endloop
endfacet
facet normal 0.621574630818841 -0.47695098927009316 0.6214199322170967
  outer loop
    vertex 62.772204939551536 45.4 1.999999999997997
    vertex 63.973564854891784 45.66274169979695 0.9999999999973389
    vertex 63.407879429943094 46.22842712474618 1.99999999999765
  endloop
endfacet
facet normal 0.2998239260020448 -0.723838988477273 0.6214199322172718
  outer loop
    vertex 64.63630655468874 46.17128129211021 0.999999999996978
    vertex 65.2010303742792 47.26370330515626 1.999999999996673
    vertex 64.23630655468926 46.86410161513775 1.999999999997199
  endloop
endfacet
facet normal 0.2998239260020448 -0.723838988477273 0.6214199322172718
  outer loop
    vertex 65.2010303742792 47.26370330515626 1.999999999996673
    vertex 64.63630655468874 46.17128129211021 0.999999999996978
    vertex 65.40808561036067 46.49096264412503 0.9999999999965571
  endloop
endfacet
facet normal -0.7767749152714896 -0.10226435765877298 0.6214199322178271
  outer loop
    vertex 70.23630655468921 43.4 1.99999999999393
    vertex 69.32726919881377 44.22822094432807 0.9999999999944224
    vertex 69.43630655468874 43.39999999999999 0.9999999999943632
  endloop
endfacet
facet normal -0.7767749152714896 -0.10226435765877298 0.6214199322178271
  outer loop
    vertex 69.32726919881377 44.22822094432807 0.9999999999944224
    vertex 70.23630655468921 43.4 1.99999999999393
    vertex 70.10000985984547 44.43527618041008 1.999999999994004
  endloop
endfacet
facet normal -0.7238389884769535 -0.2998239260017258 0.6214199322177978
  outer loop
    vertex 70.10000985984547 44.43527618041008 1.999999999994004
    vertex 69.00758784679894 45.0 0.9999999999945965
    vertex 69.32726919881377 44.22822094432807 0.9999999999944224
  endloop
endfacet
facet normal -0.7238389884769535 -0.2998239260017258 0.6214199322177978
  outer loop
    vertex 69.00758784679894 45.0 0.9999999999945965
    vertex 70.10000985984547 44.43527618041008 1.999999999994004
    vertex 69.70040816982694 45.4 1.9999999999942217
  endloop
endfacet
facet normal 0.7767749152721394 -0.10226435765876922 0.6214199322170155
  outer loop
    vertex 63.03630655468873 43.4 0.9999999999978494
    vertex 62.372603249533 44.43527618041008 1.999999999998214
    vertex 62.23630655468927 43.39999999999999 1.999999999998289
  endloop
endfacet
facet normal 0.7767749152721394 -0.10226435765876922 0.6214199322170155
  outer loop
    vertex 62.372603249533 44.43527618041008 1.999999999998214
    vertex 63.03630655468873 43.4 0.9999999999978494
    vertex 63.14534391056371 44.22822094432807 0.9999999999977901
  endloop
endfacet
facet normal 0.10226435765911093 -0.7767749152718048 0.6214199322173776
  outer loop
    vertex 65.40808561036067 46.49096264412503 0.9999999999965571
    vertex 66.23630655468929 47.4 1.9999999999961091
    vertex 65.2010303742792 47.26370330515626 1.999999999996673
  endloop
endfacet
facet normal 0.10226435765911093 -0.7767749152718048 0.6214199322173776
  outer loop
    vertex 66.23630655468929 47.4 1.9999999999961091
    vertex 65.40808561036067 46.49096264412503 0.9999999999965571
    vertex 66.23630655468874 46.6 0.9999999999961059
  endloop
endfacet
facet normal -0.10226435765845376 0.7767749152717887 0.6214199322175058
  outer loop
    vertex 67.0645274990168 40.30903735587497 0.9999999999956554
    vertex 66.23630655468929 39.39999999999994 1.9999999999961091
    vertex 67.27158273509936 39.53629669484372 1.9999999999955451
  endloop
endfacet
facet normal -0.10226435765845376 0.7767749152717887 0.6214199322175058
  outer loop
    vertex 66.23630655468929 39.39999999999994 1.9999999999961091
    vertex 67.0645274990168 40.30903735587497 0.9999999999956554
    vertex 66.23630655468874 40.199999999999996 0.9999999999961066
  endloop
endfacet
facet normal -0.2998239260013762 0.7238389884772702 0.6214199322175975
  outer loop
    vertex 67.83630655468873 40.62871870788979 0.9999999999952353
    vertex 67.27158273509936 39.53629669484372 1.9999999999955451
    vertex 68.2363065546892 39.93589838486223 1.9999999999950198
  endloop
endfacet
facet normal -0.2998239260013762 0.7238389884772702 0.6214199322175975
  outer loop
    vertex 67.27158273509936 39.53629669484372 1.9999999999955451
    vertex 67.83630655468873 40.62871870788979 0.9999999999952353
    vertex 67.0645274990168 40.30903735587497 0.9999999999956554
  endloop
endfacet
facet normal 0.7238389884776035 0.29982392600171165 0.6214199322170475
  outer loop
    vertex 63.465025262578536 41.8 0.9999999999976167
    vertex 62.372603249533 42.3647238195899 1.999999999998214
    vertex 62.772204939551536 41.39999999999996 1.999999999997997
  endloop
endfacet
facet normal 0.7238389884776035 0.29982392600171165 0.6214199322170475
  outer loop
    vertex 62.372603249533 42.3647238195899 1.999999999998214
    vertex 63.465025262578536 41.8 0.9999999999976167
    vertex 63.14534391056371 42.57177905567193 0.9999999999977901
  endloop
endfacet
facet normal -0.4769509892697655 0.6215746308185082 0.6214199322176811
  outer loop
    vertex 68.49904825448569 41.137258300203044 0.9999999999948743
    vertex 68.2363065546892 39.93589838486223 1.9999999999950198
    vertex 69.06473367943538 40.57157287525379 1.999999999994568
  endloop
endfacet
facet normal -0.4769509892697655 0.6215746308185082 0.6214199322176811
  outer loop
    vertex 68.2363065546892 39.93589838486223 1.9999999999950198
    vertex 68.49904825448569 41.137258300203044 0.9999999999948743
    vertex 67.83630655468873 40.62871870788979 0.9999999999952353
  endloop
endfacet
facet normal 0.4769509892704306 0.6215746308184925 0.6214199322171864
  outer loop
    vertex 64.63630655468874 40.62871870788979 0.9999999999969786
    vertex 63.407879429943094 40.57157287525379 1.99999999999765
    vertex 64.23630655468926 39.93589838486223 1.999999999997199
  endloop
endfacet
facet normal 0.4769509892704306 0.6215746308184925 0.6214199322171864
  outer loop
    vertex 63.407879429943094 40.57157287525379 1.99999999999765
    vertex 64.63630655468874 40.62871870788979 0.9999999999969786
    vertex 63.973564854891784 41.137258300203044 0.9999999999973397
  endloop
endfacet
facet normal 0.37537498530432173 0.9062353804970559 0.19450207079395607
  outer loop
    vertex 65.45984941938063 40.50222252113279 -3.468558773533914e-12
    vertex 64.63630655468874 40.62871870788979 0.9999999999969786
    vertex 65.40808561036067 40.30903735587497 0.9999999999965578
  endloop
endfacet
facet normal 0.37537498530432173 0.9062353804970559 0.19450207079395607
  outer loop
    vertex 64.63630655468874 40.62871870788979 0.9999999999969786
    vertex 65.45984941938063 40.50222252113279 -3.468558773533914e-12
    vertex 64.7363065546882 40.80192378864667 -3.0737634659772084e-12
  endloop
endfacet
facet normal -0.12803341702974608 0.9725103539708143 0.19450207079424345
  outer loop
    vertex 67.01276368999577 40.50222252113279 -4.314548718298283e-12
    vertex 66.23630655468874 40.199999999999996 0.9999999999961066
    vertex 67.0645274990168 40.30903735587497 0.9999999999956554
  endloop
endfacet
facet normal -0.12803341702974608 0.9725103539708143 0.19450207079424345
  outer loop
    vertex 66.23630655468874 40.199999999999996 0.9999999999961066
    vertex 67.01276368999577 40.50222252113279 -4.314548718298283e-12
    vertex 66.2363065546882 40.40000000000001 -3.891553745916099e-12
  endloop
endfacet
facet normal -0.7782019634670769 0.5971353686666114 0.19450207079457132
  outer loop
    vertex 69.00758784679894 41.79999999999999 0.9999999999945965
    vertex 68.35762689824783 41.278679656440346 -5.047740003760737e-12
    vertex 68.49904825448569 41.137258300203044 0.9999999999948743
  endloop
endfacet
facet normal -0.7782019634670769 0.5971353686666114 0.19450207079457132
  outer loop
    vertex 68.35762689824783 41.278679656440346 -5.047740003760737e-12
    vertex 69.00758784679894 41.79999999999999 0.9999999999945965
    vertex 68.83438276604151 41.89999999999994 -5.307176920155143e-12
  endloop
endfacet
facet normal -0.9062353804969481 0.3753749853042249 0.19450207079464393
  outer loop
    vertex 69.32726919881377 42.571779055671925 0.9999999999944224
    vertex 68.83438276604151 41.89999999999994 -5.307176920155143e-12
    vertex 69.00758784679894 41.79999999999999 0.9999999999945965
  endloop
endfacet
facet normal -0.9062353804969481 0.3753749853042249 0.19450207079464393
  outer loop
    vertex 68.83438276604151 41.89999999999994 -5.307176920155143e-12
    vertex 69.32726919881377 42.571779055671925 0.9999999999944224
    vertex 69.1340840335554 42.623542864692396 -5.470734976142921e-12
  endloop
endfacet
facet normal -0.3753749853041088 0.906235380497057 0.1945020707943614
  outer loop
    vertex 67.7363065546882 40.80192378864667 -4.696654176683523e-12
    vertex 67.0645274990168 40.30903735587497 0.9999999999956554
    vertex 67.83630655468873 40.62871870788979 0.9999999999952353
  endloop
endfacet
facet normal -0.3753749853041088 0.906235380497057 0.1945020707943614
  outer loop
    vertex 67.0645274990168 40.30903735587497 0.9999999999956554
    vertex 67.7363065546882 40.80192378864667 -4.696654176683523e-12
    vertex 67.01276368999577 40.50222252113279 -4.314548718298283e-12
  endloop
endfacet
facet normal 0.9062353804971592 0.3753749853042245 0.1945020707936606
  outer loop
    vertex 63.63823034333488 41.89999999999994 -2.4759305716770538e-12
    vertex 63.14534391056371 42.57177905567193 0.9999999999977901
    vertex 63.465025262578536 41.8 0.9999999999976167
  endloop
endfacet
facet normal 0.9062353804971592 0.3753749853042245 0.1945020707936606
  outer loop
    vertex 63.14534391056371 42.57177905567193 0.9999999999977901
    vertex 63.63823034333488 41.89999999999994 -2.4759305716770538e-12
    vertex 63.33852907582099 42.623542864692396 -2.312372515689276e-12
  endloop
endfacet
facet normal -0.9725103539707097 0.12803341702985893 0.1945020707946918
  outer loop
    vertex 69.43630655468874 43.39999999999999 0.9999999999943632
    vertex 69.1340840335554 42.623542864692396 -5.470734976142921e-12
    vertex 69.32726919881377 42.571779055671925 0.9999999999944224
  endloop
endfacet
facet normal -0.9725103539707097 0.12803341702985893 0.1945020707946918
  outer loop
    vertex 69.1340840335554 42.623542864692396 -5.470734976142921e-12
    vertex 69.43630655468874 43.39999999999999 0.9999999999943632
    vertex 69.2363065546882 43.4 -5.525724322552605e-12
  endloop
endfacet
facet normal 0.5971353686667035 0.7782019634671905 0.19450207079383405
  outer loop
    vertex 64.7363065546882 40.80192378864667 -3.0737634659772084e-12
    vertex 63.973564854891784 41.137258300203044 0.9999999999973397
    vertex 64.63630655468874 40.62871870788979 0.9999999999969786
  endloop
endfacet
facet normal 0.5971353686667035 0.7782019634671905 0.19450207079383405
  outer loop
    vertex 63.973564854891784 41.137258300203044 0.9999999999973397
    vertex 64.7363065546882 40.80192378864667 -3.0737634659772084e-12
    vertex 64.11498621112855 41.278679656440346 -2.7353674880714607e-12
  endloop
endfacet
facet normal 0.12803341702995796 0.9725103539708141 0.19450207079410475
  outer loop
    vertex 66.2363065546882 40.40000000000001 -3.891553745916099e-12
    vertex 65.40808561036067 40.30903735587497 0.9999999999965578
    vertex 66.23630655468874 40.199999999999996 0.9999999999961066
  endloop
endfacet
facet normal 0.12803341702995796 0.9725103539708141 0.19450207079410475
  outer loop
    vertex 65.40808561036067 40.30903735587497 0.9999999999965578
    vertex 66.2363065546882 40.40000000000001 -3.891553745916099e-12
    vertex 65.45984941938063 40.50222252113279 -3.468558773533914e-12
  endloop
endfacet
facet normal -0.6215746308181752 0.4769509892701094 0.6214199322177502
  outer loop
    vertex 69.70040816982693 41.39999999999996 1.9999999999942217
    vertex 68.49904825448569 41.137258300203044 0.9999999999948743
    vertex 69.06473367943538 40.57157287525379 1.999999999994568
  endloop
endfacet
facet normal -0.6215746308181752 0.4769509892701094 0.6214199322177502
  outer loop
    vertex 68.49904825448569 41.137258300203044 0.9999999999948743
    vertex 69.70040816982693 41.39999999999996 1.9999999999942217
    vertex 69.00758784679894 41.79999999999999 0.9999999999945965
  endloop
endfacet
facet normal 0.7782019634672895 0.5971353686666093 0.19450207079372703
  outer loop
    vertex 64.11498621112855 41.278679656440346 -2.7353674880714607e-12
    vertex 63.465025262578536 41.8 0.9999999999976167
    vertex 63.973564854891784 41.137258300203044 0.9999999999973397
  endloop
endfacet
facet normal 0.7782019634672895 0.5971353686666093 0.19450207079372703
  outer loop
    vertex 63.465025262578536 41.8 0.9999999999976167
    vertex 64.11498621112855 41.278679656440346 -2.7353674880714607e-12
    vertex 63.63823034333488 41.89999999999994 -2.4759305716770538e-12
  endloop
endfacet
facet normal 0.9725103539709206 0.128033417029859 0.19450207079363793
  outer loop
    vertex 63.33852907582099 42.623542864692396 -2.312372515689276e-12
    vertex 63.03630655468873 43.4 0.9999999999978494
    vertex 63.14534391056371 42.57177905567193 0.9999999999977901
  endloop
endfacet
facet normal 0.9725103539709206 0.128033417029859 0.19450207079363793
  outer loop
    vertex 63.03630655468873 43.4 0.9999999999978494
    vertex 63.33852907582099 42.623542864692396 -2.312372515689276e-12
    vertex 63.23630655468819 43.4 -2.2573831692795917e-12
  endloop
endfacet
facet normal 0.29982392600201974 0.7238389884772876 0.6214199322172669
  outer loop
    vertex 65.40808561036067 40.30903735587497 0.9999999999965578
    vertex 64.23630655468926 39.93589838486223 1.999999999997199
    vertex 65.2010303742792 39.53629669484378 1.999999999996673
  endloop
endfacet
facet normal 0.29982392600201974 0.7238389884772876 0.6214199322172669
  outer loop
    vertex 64.23630655468926 39.93589838486223 1.999999999997199
    vertex 65.40808561036067 40.30903735587497 0.9999999999965578
    vertex 64.63630655468874 40.62871870788979 0.9999999999969786
  endloop
endfacet
facet normal 0.6215746308188324 0.4769509892700924 0.6214199322171061
  outer loop
    vertex 63.973564854891784 41.137258300203044 0.9999999999973397
    vertex 62.772204939551536 41.39999999999996 1.999999999997997
    vertex 63.407879429943094 40.57157287525379 1.99999999999765
  endloop
endfacet
facet normal 0.6215746308188324 0.4769509892700924 0.6214199322171061
  outer loop
    vertex 62.772204939551536 41.39999999999996 1.999999999997997
    vertex 63.973564854891784 41.137258300203044 0.9999999999973397
    vertex 63.465025262578536 41.8 0.9999999999976167
  endloop
endfacet
facet normal -0.5971353686664946 0.7782019634671898 0.19450207079447837
  outer loop
    vertex 68.35762689824783 41.278679656440346 -5.047740003760737e-12
    vertex 67.83630655468873 40.62871870788979 0.9999999999952353
    vertex 68.49904825448569 41.137258300203044 0.9999999999948743
  endloop
endfacet
facet normal -0.5971353686664946 0.7782019634671898 0.19450207079447837
  outer loop
    vertex 67.83630655468873 40.62871870788979 0.9999999999952353
    vertex 68.35762689824783 41.278679656440346 -5.047740003760737e-12
    vertex 67.7363065546882 40.80192378864667 -4.696654176683523e-12
  endloop
endfacet
facet normal -0.7238389884769548 0.29982392600172325 0.6214199322177975
  outer loop
    vertex 70.10000985984547 42.3647238195899 1.999999999994004
    vertex 69.00758784679894 41.79999999999999 0.9999999999945965
    vertex 69.70040816982693 41.39999999999996 1.9999999999942217
  endloop
endfacet
facet normal -0.7238389884769548 0.29982392600172325 0.6214199322177975
  outer loop
    vertex 69.00758784679894 41.79999999999999 0.9999999999945965
    vertex 70.10000985984547 42.3647238195899 1.999999999994004
    vertex 69.32726919881377 42.571779055671925 0.9999999999944224
  endloop
endfacet
facet normal 0.10226435765915626 0.7767749152717963 0.6214199322173806
  outer loop
    vertex 66.23630655468874 40.199999999999996 0.9999999999961066
    vertex 65.2010303742792 39.53629669484378 1.999999999996673
    vertex 66.23630655468929 39.39999999999994 1.9999999999961091
  endloop
endfacet
facet normal 0.10226435765915626 0.7767749152717963 0.6214199322173806
  outer loop
    vertex 65.2010303742792 39.53629669484378 1.999999999996673
    vertex 66.23630655468874 40.199999999999996 0.9999999999961066
    vertex 65.40808561036067 40.30903735587497 0.9999999999965578
  endloop
endfacet
facet normal 0.7767749152721387 0.1022643576587684 0.6214199322170164
  outer loop
    vertex 63.14534391056371 42.57177905567193 0.9999999999977901
    vertex 62.23630655468927 43.39999999999999 1.999999999998289
    vertex 62.372603249533 42.3647238195899 1.999999999998214
  endloop
endfacet
facet normal 0.7767749152721387 0.1022643576587684 0.6214199322170164
  outer loop
    vertex 62.23630655468927 43.39999999999999 1.999999999998289
    vertex 63.14534391056371 42.57177905567193 0.9999999999977901
    vertex 63.03630655468873 43.4 0.9999999999978494
  endloop
endfacet
facet normal -0.7767749152714912 0.1022643576587772 0.6214199322178244
  outer loop
    vertex 70.23630655468921 43.4 1.99999999999393
    vertex 69.32726919881377 42.571779055671925 0.9999999999944224
    vertex 70.10000985984547 42.3647238195899 1.999999999994004
  endloop
endfacet
facet normal -0.7767749152714912 0.1022643576587772 0.6214199322178244
  outer loop
    vertex 69.32726919881377 42.571779055671925 0.9999999999944224
    vertex 70.23630655468921 43.4 1.99999999999393
    vertex 69.43630655468874 43.39999999999999 0.9999999999943632
  endloop
endfacet
endsolid pot cutter
