solid pot cutter
facet normal 0.19611613513818377 -0.9805806756909203 1.509728088089254e-13
  outer loop
    vertex 34.986306554693506 48.59999999999999 3.0000000000011844
    vertex 33.986306554684276 48.39999999999999 15.000000000000387
    vertex 33.98630655469351 48.39999999999999 3.000000000000415
  endloop
endfacet
facet normal 0.19611613513818377 -0.9805806756909203 1.509728088089254e-13
  outer loop
    vertex 33.986306554684276 48.39999999999999 15.000000000000387
    vertex 34.986306554693506 48.59999999999999 3.0000000000011844
    vertex 34.98630655468427 48.59999999999999 15.000000000001156
  endloop
endfacet
facet normal 1.0 -5.61042061555643e-17 7.698160782567471e-13
  outer loop
    vertex 35.186306554695435 36.099999999999994 0.5000000000013357
    vertex 35.18630655468427 37.199999999999996 15.00000000000131
    vertex 35.18630655468427 36.099999999999994 15.00000000000131
  endloop
endfacet
facet normal 1.0 -5.61042061555643e-17 7.698160782567471e-13
  outer loop
    vertex 35.18630655468427 37.199999999999996 15.00000000000131
    vertex 35.186306554695435 36.099999999999994 0.5000000000013357
    vertex 35.18630655469429 37.199999999999996 2.0000000000013385
  endloop
endfacet
facet normal 1.0 -5.61042061555643e-17 7.698160782567471e-13
  outer loop
    vertex 35.18630655469429 37.199999999999996 2.0000000000013385
    vertex 35.186306554695435 36.099999999999994 0.5000000000013357
    vertex 35.18630655469429 49.599999999999994 2.0000000000013385
  endloop
endfacet
facet normal 1.0 -5.61042061555643e-17 7.698160782567471e-13
  outer loop
    vertex 35.18630655469429 49.599999999999994 2.0000000000013385
    vertex 35.18630655468428 50.699999999999996 15.00000000000131
    vertex 35.18630655468427 49.599999999999994 15.00000000000131
  endloop
endfacet
facet normal 1.0 -5.61042061555643e-17 7.698160782567471e-13
  outer loop
    vertex 35.18630655468428 50.699999999999996 15.00000000000131
    vertex 35.18630655469429 49.599999999999994 2.0000000000013385
    vertex 35.186306554695435 50.699999999999996 0.5000000000013357
  endloop
endfacet
facet normal 1.0 -5.61042061555643e-17 7.698160782567471e-13
  outer loop
    vertex 35.186306554695435 50.699999999999996 0.5000000000013357
    vertex 35.18630655469429 49.599999999999994 2.0000000000013385
    vertex 35.186306554695435 36.099999999999994 0.5000000000013357
  endloop
endfacet
facet normal 0.0 1.0 0.0
  outer loop
    vertex 42.486306554684276 52.699999999999996 15.00000000000693
    vertex 25.98630655469543 52.699999999999996 0.4999999999942548
    vertex 25.98630655468427 52.699999999999996 14.999999999994229
  endloop
endfacet
facet normal 0.0 1.0 0.0
  outer loop
    vertex 25.98630655469543 52.699999999999996 0.4999999999942548
    vertex 42.486306554684276 52.699999999999996 15.00000000000693
    vertex 42.48630655469544 52.699999999999996 0.500000000006956
  endloop
endfacet
facet normal -0.5000000000000002 0.8660254037844387 -3.849066490693123e-13
  outer loop
    vertex 38.986306554684276 37.54337567297406 15.000000000004237
    vertex 36.48630655469544 36.099999999999994 0.5000000000023368
    vertex 36.486306554684276 36.099999999999994 15.000000000002311
  endloop
endfacet
facet normal -0.5000000000000002 0.8660254037844387 -3.849066490693123e-13
  outer loop
    vertex 36.48630655469544 36.099999999999994 0.5000000000023368
    vertex 38.986306554684276 37.54337567297406 15.000000000004237
    vertex 38.98630655469543 37.54337567297406 0.5000000000042629
  endloop
endfacet
facet normal -0.1961161351381837 -0.9805806756909203 -1.5097280880892535e-13
  outer loop
    vertex 28.98630655469351 48.39999999999999 2.9999999999965654
    vertex 27.986306554684273 48.59999999999999 14.999999999995769
    vertex 27.98630655469351 48.59999999999999 2.9999999999957954
  endloop
endfacet
facet normal -0.1961161351381837 -0.9805806756909203 -1.5097280880892535e-13
  outer loop
    vertex 27.986306554684273 48.59999999999999 14.999999999995769
    vertex 28.98630655469351 48.39999999999999 2.9999999999965654
    vertex 28.98630655468427 48.39999999999999 14.999999999996538
  endloop
endfacet
facet normal 0.0 -1.0 0.0
  outer loop
    vertex 41.48630655469544 50.699999999999996 0.500000000006186
    vertex 42.486306554684276 50.699999999999996 15.00000000000693
    vertex 41.48630655468427 50.699999999999996 15.00000000000616
  endloop
endfacet
facet normal 0.0 -1.0 0.0
  outer loop
    vertex 42.486306554684276 50.699999999999996 15.00000000000693
    vertex 41.48630655469544 50.699999999999996 0.500000000006186
    vertex 42.48630655469544 50.699999999999996 0.500000000006956
  endloop
endfacet
facet normal 0.707106781186547 -0.7071067811865481 5.44340007087676e-13
  outer loop
    vertex 27.98630655469351 48.59999999999999 2.9999999999957954
    vertex 27.786306554684273 48.39999999999999 14.999999999995612
    vertex 27.78630655469351 48.39999999999999 2.9999999999956417
  endloop
endfacet
facet normal 0.707106781186547 -0.7071067811865481 5.44340007087676e-13
  outer loop
    vertex 27.786306554684273 48.39999999999999 14.999999999995612
    vertex 27.98630655469351 48.59999999999999 2.9999999999957954
    vertex 27.986306554684273 48.59999999999999 14.999999999995769
  endloop
endfacet
facet normal 1.0 0.0 7.698132981386243e-13
  outer loop
    vertex 27.986306554695435 38.39999999999999 0.49999999999579453
    vertex 27.98630655469351 39.4 2.9999999999957954
    vertex 27.98630655469351 38.39999999999999 2.9999999999957954
  endloop
endfacet
facet normal 1.0 0.0 7.698132981386243e-13
  outer loop
    vertex 27.98630655469351 39.4 2.9999999999957954
    vertex 27.986306554695435 38.39999999999999 0.49999999999579453
    vertex 27.98630655469351 47.39999999999999 2.9999999999957954
  endloop
endfacet
facet normal 1.0 0.0 7.698132981386243e-13
  outer loop
    vertex 27.98630655469351 47.39999999999999 2.9999999999957954
    vertex 27.986306554695435 38.39999999999999 0.49999999999579453
    vertex 27.98630655469351 48.39999999999999 2.9999999999957954
  endloop
endfacet
facet normal 1.0 0.0 7.698132981386243e-13
  outer loop
    vertex 27.98630655469351 48.39999999999999 2.9999999999957954
    vertex 27.986306554695435 38.39999999999999 0.49999999999579453
    vertex 27.986306554695435 48.39999999999999 0.49999999999579453
  endloop
endfacet
facet normal 1.0 0.0 7.698132981386243e-13
  outer loop
    vertex 27.98630655469351 39.4 2.9999999999957954
    vertex 27.986306554684273 47.39999999999999 14.999999999995769
    vertex 27.986306554684273 39.4 14.999999999995769
  endloop
endfacet
facet normal 1.0 0.0 7.698132981386243e-13
  outer loop
    vertex 27.986306554684273 47.39999999999999 14.999999999995769
    vertex 27.98630655469351 39.4 2.9999999999957954
    vertex 27.98630655469351 47.39999999999999 2.9999999999957954
  endloop
endfacet
facet normal 0.4999999999999996 -0.866025403784439 3.8490664906931186e-13
  outer loop
    vertex 41.48630655469544 50.699999999999996 0.500000000006186
    vertex 38.986306554684276 49.25662432702593 15.000000000004237
    vertex 38.98630655469543 49.25662432702593 0.5000000000042629
  endloop
endfacet
facet normal 0.4999999999999996 -0.866025403784439 3.8490664906931186e-13
  outer loop
    vertex 38.986306554684276 49.25662432702593 15.000000000004237
    vertex 41.48630655469544 50.699999999999996 0.500000000006186
    vertex 41.48630655468427 50.699999999999996 15.00000000000616
  endloop
endfacet
facet normal 0.9805806756909201 0.1961161351381844 7.548645339734633e-13
  outer loop
    vertex 27.98630655469351 47.39999999999999 2.9999999999957954
    vertex 27.786306554684273 48.39999999999999 14.999999999995612
    vertex 27.986306554684273 47.39999999999999 14.999999999995769
  endloop
endfacet
facet normal 0.9805806756909201 0.1961161351381844 7.548645339734633e-13
  outer loop
    vertex 27.786306554684273 48.39999999999999 14.999999999995612
    vertex 27.98630655469351 47.39999999999999 2.9999999999957954
    vertex 27.78630655469351 48.39999999999999 2.9999999999956417
  endloop
endfacet
facet normal 0.5 0.8660254037844387 3.8490664906931216e-13
  outer loop
    vertex 38.986306554684276 37.54337567297406 15.000000000004237
    vertex 41.48630655469544 36.099999999999994 0.500000000006186
    vertex 38.98630655469543 37.54337567297406 0.5000000000042629
  endloop
endfacet
facet normal 0.5 0.8660254037844387 3.8490664906931216e-13
  outer loop
    vertex 41.48630655469544 36.099999999999994 0.500000000006186
    vertex 38.986306554684276 37.54337567297406 15.000000000004237
    vertex 41.48630655468427 36.099999999999994 15.00000000000616
  endloop
endfacet
facet normal 0.9805806756909203 0.19611613513818374 7.548645963053639e-13
  outer loop
    vertex 35.18630655469429 37.199999999999996 2.0000000000013385
    vertex 34.98630655468427 38.19999999999999 15.000000000001156
    vertex 35.18630655468427 37.199999999999996 15.00000000000131
  endloop
endfacet
facet normal 0.9805806756909203 0.19611613513818374 7.548645963053639e-13
  outer loop
    vertex 34.98630655468427 38.19999999999999 15.000000000001156
    vertex 35.18630655469429 37.199999999999996 2.0000000000013385
    vertex 34.986306554693506 38.19999999999999 3.0000000000011844
  endloop
endfacet
facet normal -0.49999999999999983 -0.8660254037844389 -3.84906649069312e-13
  outer loop
    vertex 38.98630655469543 49.25662432702593 0.5000000000042629
    vertex 36.486306554684276 50.699999999999996 15.000000000002311
    vertex 36.48630655469544 50.699999999999996 0.5000000000023368
  endloop
endfacet
facet normal -0.49999999999999983 -0.8660254037844389 -3.84906649069312e-13
  outer loop
    vertex 36.486306554684276 50.699999999999996 15.000000000002311
    vertex 38.98630655469543 49.25662432702593 0.5000000000042629
    vertex 38.986306554684276 49.25662432702593 15.000000000004237
  endloop
endfacet
facet normal 0.0 1.0 0.0
  outer loop
    vertex 42.486306554684276 36.099999999999994 15.00000000000693
    vertex 41.48630655469544 36.099999999999994 0.500000000006186
    vertex 41.48630655468427 36.099999999999994 15.00000000000616
  endloop
endfacet
facet normal 0.0 1.0 0.0
  outer loop
    vertex 41.48630655469544 36.099999999999994 0.500000000006186
    vertex 42.486306554684276 36.099999999999994 15.00000000000693
    vertex 42.48630655469544 36.099999999999994 0.500000000006956
  endloop
endfacet
facet normal 0.19611613513818443 0.9805806756909201 1.509728088089259e-13
  outer loop
    vertex 34.98630655468427 38.19999999999999 15.000000000001156
    vertex 33.98630655469351 38.39999999999999 3.000000000000415
    vertex 33.986306554684276 38.39999999999999 15.000000000000387
  endloop
endfacet
facet normal 0.19611613513818443 0.9805806756909201 1.509728088089259e-13
  outer loop
    vertex 33.98630655469351 38.39999999999999 3.000000000000415
    vertex 34.98630655468427 38.19999999999999 15.000000000001156
    vertex 34.986306554693506 38.19999999999999 3.0000000000011844
  endloop
endfacet
facet normal 0.0 -1.0 0.0
  outer loop
    vertex 42.48630655469544 34.099999999999994 0.500000000006956
    vertex 25.98630655468427 34.099999999999994 14.999999999994229
    vertex 25.98630655469543 34.099999999999994 0.4999999999942548
  endloop
endfacet
facet normal 0.0 -1.0 0.0
  outer loop
    vertex 25.98630655468427 34.099999999999994 14.999999999994229
    vertex 42.48630655469544 34.099999999999994 0.500000000006956
    vertex 42.486306554684276 34.099999999999994 15.00000000000693
  endloop
endfacet
facet normal -1.0 0.0 -7.698132981386243e-13
  outer loop
    vertex 25.98630655469543 52.699999999999996 0.4999999999942548
    vertex 25.98630655468427 34.099999999999994 14.999999999994229
    vertex 25.98630655468427 52.699999999999996 14.999999999994229
  endloop
endfacet
facet normal -1.0 0.0 -7.698132981386243e-13
  outer loop
    vertex 25.98630655468427 34.099999999999994 14.999999999994229
    vertex 25.98630655469543 52.699999999999996 0.4999999999942548
    vertex 25.98630655469543 34.099999999999994 0.4999999999942548
  endloop
endfacet
facet normal 1.0 0.0 7.698132981386243e-13
  outer loop
    vertex 42.48630655469544 34.099999999999994 0.500000000006956
    vertex 42.486306554684276 36.099999999999994 15.00000000000693
    vertex 42.486306554684276 34.099999999999994 15.00000000000693
  endloop
endfacet
facet normal 1.0 0.0 7.698132981386243e-13
  outer loop
    vertex 42.486306554684276 36.099999999999994 15.00000000000693
    vertex 42.48630655469544 34.099999999999994 0.500000000006956
    vertex 42.48630655469544 36.099999999999994 0.500000000006956
  endloop
endfacet
facet normal 1.0 0.0 7.698132981386243e-13
  outer loop
    vertex 42.48630655469544 50.699999999999996 0.500000000006956
    vertex 42.486306554684276 52.699999999999996 15.00000000000693
    vertex 42.486306554684276 50.699999999999996 15.00000000000693
  endloop
endfacet
facet normal 1.0 0.0 7.698132981386243e-13
  outer loop
    vertex 42.486306554684276 52.699999999999996 15.00000000000693
    vertex 42.48630655469544 50.699999999999996 0.500000000006956
    vertex 42.48630655469544 52.699999999999996 0.500000000006956
  endloop
endfacet
facet normal -1.0 0.0 -7.698132981386243e-13
  outer loop
    vertex 30.986306554695435 48.39999999999999 0.49999999999810407
    vertex 30.98630655469351 38.39999999999999 2.999999999998105
    vertex 30.98630655469351 48.39999999999999 2.999999999998105
  endloop
endfacet
facet normal -1.0 0.0 -7.698132981386243e-13
  outer loop
    vertex 30.98630655469351 38.39999999999999 2.999999999998105
    vertex 30.986306554695435 48.39999999999999 0.49999999999810407
    vertex 30.986306554695435 38.39999999999999 0.49999999999810407
  endloop
endfacet
facet normal -0.19611613513818438 0.9805806756909201 -1.5097267271758275e-13
  outer loop
    vertex 28.98630655468427 38.39999999999999 14.999999999996538
    vertex 27.98630655469351 38.19999999999999 2.9999999999957954
    vertex 27.986306554684273 38.19999999999999 14.999999999995769
  endloop
endfacet
facet normal -0.19611613513818438 0.9805806756909201 -1.5097267271758275e-13
  outer loop
    vertex 27.98630655469351 38.19999999999999 2.9999999999957954
    vertex 28.98630655468427 38.39999999999999 14.999999999996538
    vertex 28.98630655469351 38.39999999999999 2.9999999999965654
  endloop
endfacet
facet normal 0.9805806756909203 -0.19611613513818407 7.548637718619418e-13
  outer loop
    vertex 27.78630655469351 38.39999999999999 2.9999999999956417
    vertex 27.986306554684273 39.4 14.999999999995769
    vertex 27.786306554684273 38.39999999999999 14.999999999995612
  endloop
endfacet
facet normal 0.9805806756909203 -0.19611613513818407 7.548637718619418e-13
  outer loop
    vertex 27.986306554684273 39.4 14.999999999995769
    vertex 27.78630655469351 38.39999999999999 2.9999999999956417
    vertex 27.98630655469351 39.4 2.9999999999957954
  endloop
endfacet
facet normal 0.7071067811865482 0.7071067811865469 5.443403014982664e-13
  outer loop
    vertex 27.98630655469351 38.19999999999999 2.9999999999957954
    vertex 27.786306554684273 38.39999999999999 14.999999999995612
    vertex 27.986306554684273 38.19999999999999 14.999999999995769
  endloop
endfacet
facet normal 0.7071067811865482 0.7071067811865469 5.443403014982664e-13
  outer loop
    vertex 27.786306554684273 38.39999999999999 14.999999999995612
    vertex 27.98630655469351 38.19999999999999 2.9999999999957954
    vertex 27.78630655469351 38.39999999999999 2.9999999999956417
  endloop
endfacet
facet normal -7.698132981386243e-13 0.0 1.0
  outer loop
    vertex 28.98630655469351 38.39999999999999 2.9999999999965654
    vertex 27.78630655469351 38.39999999999999 2.9999999999956417
    vertex 27.98630655469351 38.19999999999999 2.9999999999957954
  endloop
endfacet
facet normal -7.698132981386243e-13 0.0 1.0
  outer loop
    vertex 27.78630655469351 38.39999999999999 2.9999999999956417
    vertex 28.98630655469351 38.39999999999999 2.9999999999965654
    vertex 27.98630655469351 38.39999999999999 2.9999999999957954
  endloop
endfacet
facet normal -7.698132981386243e-13 0.0 1.0
  outer loop
    vertex 27.78630655469351 38.39999999999999 2.9999999999956417
    vertex 27.98630655469351 38.39999999999999 2.9999999999957954
    vertex 27.98630655469351 39.4 2.9999999999957954
  endloop
endfacet
facet normal -7.698132981386243e-13 0.0 1.0
  outer loop
    vertex 27.98630655469351 48.59999999999999 2.9999999999957954
    vertex 27.98630655469351 48.39999999999999 2.9999999999957954
    vertex 28.98630655469351 48.39999999999999 2.9999999999965654
  endloop
endfacet
facet normal -7.698132981386243e-13 0.0 1.0
  outer loop
    vertex 27.98630655469351 48.39999999999999 2.9999999999957954
    vertex 27.98630655469351 48.59999999999999 2.9999999999957954
    vertex 27.78630655469351 48.39999999999999 2.9999999999956417
  endloop
endfacet
facet normal -7.698132981386243e-13 0.0 1.0
  outer loop
    vertex 27.78630655469351 48.39999999999999 2.9999999999956417
    vertex 27.98630655469351 47.39999999999999 2.9999999999957954
    vertex 27.98630655469351 48.39999999999999 2.9999999999957954
  endloop
endfacet
facet normal 0.9805806756909203 -0.19611613513818346 7.548636298490764e-13
  outer loop
    vertex 34.986306554693506 48.59999999999999 3.0000000000011844
    vertex 35.18630655468427 49.599999999999994 15.00000000000131
    vertex 34.98630655468427 48.59999999999999 15.000000000001156
  endloop
endfacet
facet normal 0.9805806756909203 -0.19611613513818346 7.548636298490764e-13
  outer loop
    vertex 35.18630655468427 49.599999999999994 15.00000000000131
    vertex 34.986306554693506 48.59999999999999 3.0000000000011844
    vertex 35.18630655469429 49.599999999999994 2.0000000000013385
  endloop
endfacet
facet normal 0.9805806756907693 -2.0949919652117402e-19 0.19611613513893894
  outer loop
    vertex 35.18630655469429 37.199999999999996 2.0000000000013385
    vertex 34.986306554693506 48.59999999999999 3.0000000000011844
    vertex 34.986306554693506 38.19999999999999 3.0000000000011844
  endloop
endfacet
facet normal 0.9805806756907693 -2.0949919652117402e-19 0.19611613513893894
  outer loop
    vertex 34.986306554693506 48.59999999999999 3.0000000000011844
    vertex 35.18630655469429 37.199999999999996 2.0000000000013385
    vertex 35.18630655469429 49.599999999999994 2.0000000000013385
  endloop
endfacet
facet normal 7.698132981386243e-13 0.0 -1.0
  outer loop
    vertex 34.98630655469582 35.599999999999994 1.184385922670117e-12
    vertex 31.786306554695823 37.89999999999999 -1.2802647830767454e-12
    vertex 34.98630655469582 51.199999999999996 1.184385922670117e-12
  endloop
endfacet
facet normal 7.698132981386243e-13 0.0 -1.0
  outer loop
    vertex 31.786306554695823 37.89999999999999 -1.2802647830767454e-12
    vertex 34.98630655469582 35.599999999999994 1.184385922670117e-12
    vertex 27.48630655469582 37.89999999999999 -4.590905433587977e-12
  endloop
endfacet
facet normal 7.698132981386243e-13 0.0 -1.0
  outer loop
    vertex 34.98630655469582 51.199999999999996 1.184385922670117e-12
    vertex 31.786306554695823 37.89999999999999 -1.2802647830767454e-12
    vertex 31.786306554695823 48.89999999999999 -1.2802647830767454e-12
  endloop
endfacet
facet normal 7.698132981386243e-13 0.0 -1.0
  outer loop
    vertex 26.48630655469582 34.599999999999994 -5.360756283323553e-12
    vertex 34.98630655469582 35.599999999999994 1.184385922670117e-12
    vertex 41.98630655469582 34.599999999999994 6.573341870819149e-12
  endloop
endfacet
facet normal 7.698132981386243e-13 0.0 -1.0
  outer loop
    vertex 34.98630655469582 35.599999999999994 1.184385922670117e-12
    vertex 26.48630655469582 34.599999999999994 -5.360756283323553e-12
    vertex 27.48630655469582 37.89999999999999 -4.590905433587977e-12
  endloop
endfacet
facet normal 7.698132981386243e-13 0.0 -1.0
  outer loop
    vertex 27.48630655469582 37.89999999999999 -4.590905433587977e-12
    vertex 26.48630655469582 34.599999999999994 -5.360756283323553e-12
    vertex 26.48630655469582 52.199999999999996 -5.360756283323553e-12
  endloop
endfacet
facet normal 7.698132981386243e-13 0.0 -1.0
  outer loop
    vertex 27.48630655469582 37.89999999999999 -4.590905433587977e-12
    vertex 26.48630655469582 52.199999999999996 -5.360756283323553e-12
    vertex 27.48630655469582 48.89999999999999 -4.590905433587977e-12
  endloop
endfacet
facet normal 7.698132981386243e-13 0.0 -1.0
  outer loop
    vertex 27.48630655469582 48.89999999999999 -4.590905433587977e-12
    vertex 26.48630655469582 52.199999999999996 -5.360756283323553e-12
    vertex 31.786306554695823 48.89999999999999 -1.2802647830767454e-12
  endloop
endfacet
facet normal 7.698132981386243e-13 0.0 -1.0
  outer loop
    vertex 31.786306554695823 48.89999999999999 -1.2802647830767454e-12
    vertex 26.48630655469582 52.199999999999996 -5.360756283323553e-12
    vertex 34.98630655469582 51.199999999999996 1.184385922670117e-12
  endloop
endfacet
facet normal 7.698132981386243e-13 0.0 -1.0
  outer loop
    vertex 34.98630655469582 51.199999999999996 1.184385922670117e-12
    vertex 26.48630655469582 52.199999999999996 -5.360756283323553e-12
    vertex 36.62028115091138 51.199999999999996 2.442090973886479e-12
  endloop
endfacet
facet normal 7.698132981386243e-13 0.0 -1.0
  outer loop
    vertex 36.62028115091138 51.199999999999996 2.442090973886479e-12
    vertex 26.48630655469582 52.199999999999996 -5.360756283323553e-12
    vertex 41.352331958480256 51.199999999999996 6.085487669338363e-12
  endloop
endfacet
facet normal 7.698132981386243e-13 0.0 -1.0
  outer loop
    vertex 41.352331958480256 51.199999999999996 6.085487669338363e-12
    vertex 26.48630655469582 52.199999999999996 -5.360756283323553e-12
    vertex 41.98630655469582 51.199999999999996 6.573341870819149e-12
  endloop
endfacet
facet normal 7.698132981386243e-13 0.0 -1.0
  outer loop
    vertex 41.98630655469582 51.199999999999996 6.573341870819149e-12
    vertex 26.48630655469582 52.199999999999996 -5.360756283323553e-12
    vertex 41.98630655469582 52.199999999999996 6.573341870819149e-12
  endloop
endfacet
facet normal 7.698132981386243e-13 0.0 -1.0
  outer loop
    vertex 41.352331958480256 51.199999999999996 6.085487669338363e-12
    vertex 38.98630655469582 49.833974596215555 4.263789321612421e-12
    vertex 36.62028115091138 51.199999999999996 2.442090973886479e-12
  endloop
endfacet
facet normal 7.698132981386243e-13 0.0 -1.0
  outer loop
    vertex 38.98630655469582 36.966025403784435 4.263789321612421e-12
    vertex 41.352331958480256 35.599999999999994 6.085487669338363e-12
    vertex 36.62028115091138 35.599999999999994 2.442090973886479e-12
  endloop
endfacet
facet normal 7.698132981386243e-13 0.0 -1.0
  outer loop
    vertex 34.98630655469582 35.599999999999994 1.184385922670117e-12
    vertex 41.98630655469582 35.599999999999994 6.573341870819149e-12
    vertex 41.98630655469582 34.599999999999994 6.573341870819149e-12
  endloop
endfacet
facet normal 7.698132981386243e-13 0.0 -1.0
  outer loop
    vertex 41.98630655469582 35.599999999999994 6.573341870819149e-12
    vertex 34.98630655469582 35.599999999999994 1.184385922670117e-12
    vertex 36.62028115091138 35.599999999999994 2.442090973886479e-12
  endloop
endfacet
facet normal 7.698132981386243e-13 0.0 -1.0
  outer loop
    vertex 41.98630655469582 35.599999999999994 6.573341870819149e-12
    vertex 36.62028115091138 35.599999999999994 2.442090973886479e-12
    vertex 41.352331958480256 35.599999999999994 6.085487669338363e-12
  endloop
endfacet
facet normal 5.443179750854341e-13 0.707106781186547 -0.7071067811865481
  outer loop
    vertex 41.48630655469544 36.099999999999994 0.500000000006186
    vertex 41.98630655469582 35.599999999999994 6.573341870819149e-12
    vertex 41.352331958480256 35.599999999999994 6.085487669338363e-12
  endloop
endfacet
facet normal 5.443179750854341e-13 0.707106781186547 -0.7071067811865481
  outer loop
    vertex 41.98630655469582 35.599999999999994 6.573341870819149e-12
    vertex 41.48630655469544 36.099999999999994 0.500000000006186
    vertex 42.48630655469544 36.099999999999994 0.500000000006956
  endloop
endfacet
facet normal 0.35355339059381785 0.6123724356957941 -0.7071067811862759
  outer loop
    vertex 38.98630655469582 36.966025403784435 4.263789321612421e-12
    vertex 41.48630655469544 36.099999999999994 0.500000000006186
    vertex 41.352331958480256 35.599999999999994 6.085487669338363e-12
  endloop
endfacet
facet normal 0.35355339059381785 0.6123724356957941 -0.7071067811862759
  outer loop
    vertex 41.48630655469544 36.099999999999994 0.500000000006186
    vertex 38.98630655469582 36.966025403784435 4.263789321612421e-12
    vertex 38.98630655469543 37.54337567297406 0.5000000000042629
  endloop
endfacet
facet normal -0.3535533905927292 0.6123724356957942 -0.70710678118682
  outer loop
    vertex 36.48630655469544 36.099999999999994 0.5000000000023368
    vertex 38.98630655469582 36.966025403784435 4.263789321612421e-12
    vertex 36.62028115091138 35.599999999999994 2.442090973886479e-12
  endloop
endfacet
facet normal -0.3535533905927292 0.6123724356957942 -0.70710678118682
  outer loop
    vertex 38.98630655469582 36.966025403784435 4.263789321612421e-12
    vertex 36.48630655469544 36.099999999999994 0.5000000000023368
    vertex 38.98630655469543 37.54337567297406 0.5000000000042629
  endloop
endfacet
facet normal 0.7071067811870919 0.0 -0.7071067811860032
  outer loop
    vertex 41.98630655469582 51.199999999999996 6.573341870819149e-12
    vertex 42.48630655469544 52.699999999999996 0.500000000006956
    vertex 42.48630655469544 50.699999999999996 0.500000000006956
  endloop
endfacet
facet normal 0.7071067811870919 0.0 -0.7071067811860032
  outer loop
    vertex 42.48630655469544 52.699999999999996 0.500000000006956
    vertex 41.98630655469582 51.199999999999996 6.573341870819149e-12
    vertex 41.98630655469582 52.199999999999996 6.573341870819149e-12
  endloop
endfacet
facet normal 0.35355339059381813 -0.612372435695795 -0.7071067811862751
  outer loop
    vertex 38.98630655469582 49.833974596215555 4.263789321612421e-12
    vertex 41.48630655469544 50.699999999999996 0.500000000006186
    vertex 38.98630655469543 49.25662432702593 0.5000000000042629
  endloop
endfacet
facet normal 0.35355339059381813 -0.612372435695795 -0.7071067811862751
  outer loop
    vertex 41.48630655469544 50.699999999999996 0.500000000006186
    vertex 38.98630655469582 49.833974596215555 4.263789321612421e-12
    vertex 41.352331958480256 51.199999999999996 6.085487669338363e-12
  endloop
endfacet
facet normal 5.443402033614027e-13 -0.7071067811865476 -0.7071067811865476
  outer loop
    vertex 41.352331958480256 51.199999999999996 6.085487669338363e-12
    vertex 42.48630655469544 50.699999999999996 0.500000000006956
    vertex 41.48630655469544 50.699999999999996 0.500000000006186
  endloop
endfacet
facet normal 5.443402033614027e-13 -0.7071067811865476 -0.7071067811865476
  outer loop
    vertex 42.48630655469544 50.699999999999996 0.500000000006956
    vertex 41.352331958480256 51.199999999999996 6.085487669338363e-12
    vertex 41.98630655469582 51.199999999999996 6.573341870819149e-12
  endloop
endfacet
facet normal 5.443402033614031e-13 -0.707106781186547 -0.707106781186548
  outer loop
    vertex 26.48630655469582 34.599999999999994 -5.360756283323553e-12
    vertex 42.48630655469544 34.099999999999994 0.500000000006956
    vertex 25.98630655469543 34.099999999999994 0.4999999999942548
  endloop
endfacet
facet normal 5.443402033614031e-13 -0.707106781186547 -0.707106781186548
  outer loop
    vertex 42.48630655469544 34.099999999999994 0.500000000006956
    vertex 26.48630655469582 34.599999999999994 -5.360756283323553e-12
    vertex 41.98630655469582 34.599999999999994 6.573341870819149e-12
  endloop
endfacet
facet normal -0.7071067811860027 -5.359625961868839e-34 -0.7071067811870925
  outer loop
    vertex 25.98630655469543 52.699999999999996 0.4999999999942548
    vertex 26.48630655469582 34.599999999999994 -5.360756283323553e-12
    vertex 25.98630655469543 34.099999999999994 0.4999999999942548
  endloop
endfacet
facet normal -0.7071067811860027 -5.359625961868839e-34 -0.7071067811870925
  outer loop
    vertex 26.48630655469582 34.599999999999994 -5.360756283323553e-12
    vertex 25.98630655469543 52.699999999999996 0.4999999999942548
    vertex 26.48630655469582 52.199999999999996 -5.360756283323553e-12
  endloop
endfacet
facet normal 5.443402033614027e-13 0.7071067811865476 -0.7071067811865476
  outer loop
    vertex 25.98630655469543 52.699999999999996 0.4999999999942548
    vertex 41.98630655469582 52.199999999999996 6.573341870819149e-12
    vertex 26.48630655469582 52.199999999999996 -5.360756283323553e-12
  endloop
endfacet
facet normal 5.443402033614027e-13 0.7071067811865476 -0.7071067811865476
  outer loop
    vertex 41.98630655469582 52.199999999999996 6.573341870819149e-12
    vertex 25.98630655469543 52.699999999999996 0.4999999999942548
    vertex 42.48630655469544 52.699999999999996 0.500000000006956
  endloop
endfacet
facet normal -0.3535533905927293 -0.6123724356957946 -0.7071067811868198
  outer loop
    vertex 36.48630655469544 50.699999999999996 0.5000000000023368
    vertex 38.98630655469582 49.833974596215555 4.263789321612421e-12
    vertex 38.98630655469543 49.25662432702593 0.5000000000042629
  endloop
endfacet
facet normal -0.3535533905927293 -0.6123724356957946 -0.7071067811868198
  outer loop
    vertex 38.98630655469582 49.833974596215555 4.263789321612421e-12
    vertex 36.48630655469544 50.699999999999996 0.5000000000023368
    vertex 36.62028115091138 51.199999999999996 2.442090973886479e-12
  endloop
endfacet
facet normal 0.7071067811870912 3.5066801875726105e-33 -0.7071067811860039
  outer loop
    vertex 27.48630655469582 48.89999999999999 -4.590905433587977e-12
    vertex 27.986306554695435 38.39999999999999 0.49999999999579453
    vertex 27.48630655469582 37.89999999999999 -4.590905433587977e-12
  endloop
endfacet
facet normal 0.7071067811870912 3.5066801875726105e-33 -0.7071067811860039
  outer loop
    vertex 27.986306554695435 38.39999999999999 0.49999999999579453
    vertex 27.48630655469582 48.89999999999999 -4.590905433587977e-12
    vertex 27.986306554695435 48.39999999999999 0.49999999999579453
  endloop
endfacet
facet normal 0.7071067811870919 0.0 -0.7071067811860032
  outer loop
    vertex 41.98630655469582 34.599999999999994 6.573341870819149e-12
    vertex 42.48630655469544 36.099999999999994 0.500000000006956
    vertex 42.48630655469544 34.099999999999994 0.500000000006956
  endloop
endfacet
facet normal 0.7071067811870919 0.0 -0.7071067811860032
  outer loop
    vertex 42.48630655469544 36.099999999999994 0.500000000006956
    vertex 41.98630655469582 34.599999999999994 6.573341870819149e-12
    vertex 41.98630655469582 35.599999999999994 6.573341870819149e-12
  endloop
endfacet
facet normal 5.443453045098163e-13 0.707106781186547 -0.707106781186548
  outer loop
    vertex 27.986306554695435 38.39999999999999 0.49999999999579453
    vertex 31.786306554695823 37.89999999999999 -1.2802647830767454e-12
    vertex 27.48630655469582 37.89999999999999 -4.590905433587977e-12
  endloop
endfacet
facet normal 5.443453045098163e-13 0.707106781186547 -0.707106781186548
  outer loop
    vertex 31.786306554695823 37.89999999999999 -1.2802647830767454e-12
    vertex 27.986306554695435 38.39999999999999 0.49999999999579453
    vertex 30.986306554695435 38.39999999999999 0.49999999999810407
  endloop
endfacet
facet normal 5.443402033614027e-13 -0.7071067811865476 -0.7071067811865476
  outer loop
    vertex 27.48630655469582 48.89999999999999 -4.590905433587977e-12
    vertex 30.986306554695435 48.39999999999999 0.49999999999810407
    vertex 27.986306554695435 48.39999999999999 0.49999999999579453
  endloop
endfacet
facet normal 5.443402033614027e-13 -0.7071067811865476 -0.7071067811865476
  outer loop
    vertex 30.986306554695435 48.39999999999999 0.49999999999810407
    vertex 27.48630655469582 48.89999999999999 -4.590905433587977e-12
    vertex 31.786306554695823 48.89999999999999 -1.2802647830767454e-12
  endloop
endfacet
facet normal -0.5299989400025269 8.051961156004682e-19 -0.8479983040054963
  outer loop
    vertex 30.986306554695435 38.39999999999999 0.49999999999810407
    vertex 31.786306554695823 48.89999999999999 -1.2802647830767454e-12
    vertex 31.786306554695823 37.89999999999999 -1.2802647830767454e-12
  endloop
endfacet
facet normal -0.5299989400025269 8.051961156004682e-19 -0.8479983040054963
  outer loop
    vertex 31.786306554695823 48.89999999999999 -1.2802647830767454e-12
    vertex 30.986306554695435 38.39999999999999 0.49999999999810407
    vertex 30.986306554695435 48.39999999999999 0.49999999999810407
  endloop
endfacet
facet normal -7.698132981386243e-13 0.0 1.0
  outer loop
    vertex 38.986306554684276 37.54337567297406 15.000000000004237
    vertex 36.486306554684276 36.099999999999994 15.000000000002311
    vertex 41.48630655468427 36.099999999999994 15.00000000000616
  endloop
endfacet
facet normal -7.698132981386243e-13 0.0 1.0
  outer loop
    vertex 33.986306554684276 38.39999999999999 15.000000000000387
    vertex 27.986306554684273 38.19999999999999 14.999999999995769
    vertex 34.98630655468427 38.19999999999999 15.000000000001156
  endloop
endfacet
facet normal -7.698132981386243e-13 0.0 1.0
  outer loop
    vertex 27.986306554684273 38.19999999999999 14.999999999995769
    vertex 33.986306554684276 38.39999999999999 15.000000000000387
    vertex 28.98630655468427 38.39999999999999 14.999999999996538
  endloop
endfacet
facet normal -7.698132981386243e-13 0.0 1.0
  outer loop
    vertex 34.98630655468427 48.59999999999999 15.000000000001156
    vertex 28.98630655468427 48.39999999999999 14.999999999996538
    vertex 33.986306554684276 48.39999999999999 15.000000000000387
  endloop
endfacet
facet normal -7.698132981386243e-13 0.0 1.0
  outer loop
    vertex 28.98630655468427 48.39999999999999 14.999999999996538
    vertex 34.98630655468427 48.59999999999999 15.000000000001156
    vertex 27.986306554684273 48.59999999999999 14.999999999995769
  endloop
endfacet
facet normal -7.698132981386243e-13 0.0 1.0
  outer loop
    vertex 27.986306554684273 48.59999999999999 14.999999999995769
    vertex 34.98630655468427 48.59999999999999 15.000000000001156
    vertex 35.18630655468427 49.599999999999994 15.00000000000131
  endloop
endfacet
facet normal -7.698132981386243e-13 0.0 1.0
  outer loop
    vertex 42.486306554684276 52.699999999999996 15.00000000000693
    vertex 41.48630655468427 50.699999999999996 15.00000000000616
    vertex 42.486306554684276 50.699999999999996 15.00000000000693
  endloop
endfacet
facet normal -7.698132981386243e-13 0.0 1.0
  outer loop
    vertex 41.48630655468427 50.699999999999996 15.00000000000616
    vertex 42.486306554684276 52.699999999999996 15.00000000000693
    vertex 36.486306554684276 50.699999999999996 15.000000000002311
  endloop
endfacet
facet normal -7.698132981386243e-13 0.0 1.0
  outer loop
    vertex 36.486306554684276 50.699999999999996 15.000000000002311
    vertex 42.486306554684276 52.699999999999996 15.00000000000693
    vertex 35.18630655468428 50.699999999999996 15.00000000000131
  endloop
endfacet
facet normal -7.698132981386243e-13 0.0 1.0
  outer loop
    vertex 42.486306554684276 36.099999999999994 15.00000000000693
    vertex 25.98630655468427 34.099999999999994 14.999999999994229
    vertex 42.486306554684276 34.099999999999994 15.00000000000693
  endloop
endfacet
facet normal -7.698132981386243e-13 0.0 1.0
  outer loop
    vertex 25.98630655468427 34.099999999999994 14.999999999994229
    vertex 42.486306554684276 36.099999999999994 15.00000000000693
    vertex 35.18630655468427 36.099999999999994 15.00000000000131
  endloop
endfacet
facet normal -7.698132981386243e-13 0.0 1.0
  outer loop
    vertex 25.98630655468427 34.099999999999994 14.999999999994229
    vertex 35.18630655468427 36.099999999999994 15.00000000000131
    vertex 27.986306554684273 38.19999999999999 14.999999999995769
  endloop
endfacet
facet normal -7.698132981386243e-13 0.0 1.0
  outer loop
    vertex 25.98630655468427 34.099999999999994 14.999999999994229
    vertex 27.986306554684273 38.19999999999999 14.999999999995769
    vertex 27.786306554684273 38.39999999999999 14.999999999995612
  endloop
endfacet
facet normal -7.698132981386243e-13 0.0 1.0
  outer loop
    vertex 25.98630655468427 34.099999999999994 14.999999999994229
    vertex 27.786306554684273 38.39999999999999 14.999999999995612
    vertex 25.98630655468427 52.699999999999996 14.999999999994229
  endloop
endfacet
facet normal -7.698132981386243e-13 0.0 1.0
  outer loop
    vertex 35.18630655468427 36.099999999999994 15.00000000000131
    vertex 42.486306554684276 36.099999999999994 15.00000000000693
    vertex 41.48630655468427 36.099999999999994 15.00000000000616
  endloop
endfacet
facet normal -7.698132981386243e-13 0.0 1.0
  outer loop
    vertex 35.18630655468427 36.099999999999994 15.00000000000131
    vertex 41.48630655468427 36.099999999999994 15.00000000000616
    vertex 36.486306554684276 36.099999999999994 15.000000000002311
  endloop
endfacet
facet normal -7.698132981386243e-13 0.0 1.0
  outer loop
    vertex 27.986306554684273 38.19999999999999 14.999999999995769
    vertex 35.18630655468427 36.099999999999994 15.00000000000131
    vertex 35.18630655468427 37.199999999999996 15.00000000000131
  endloop
endfacet
facet normal -7.698132981386243e-13 0.0 1.0
  outer loop
    vertex 27.986306554684273 38.19999999999999 14.999999999995769
    vertex 35.18630655468427 37.199999999999996 15.00000000000131
    vertex 34.98630655468427 38.19999999999999 15.000000000001156
  endloop
endfacet
facet normal -7.698132981386243e-13 0.0 1.0
  outer loop
    vertex 25.98630655468427 52.699999999999996 14.999999999994229
    vertex 27.786306554684273 38.39999999999999 14.999999999995612
    vertex 27.986306554684273 39.4 14.999999999995769
  endloop
endfacet
facet normal -7.698132981386243e-13 0.0 1.0
  outer loop
    vertex 25.98630655468427 52.699999999999996 14.999999999994229
    vertex 27.986306554684273 39.4 14.999999999995769
    vertex 27.986306554684273 47.39999999999999 14.999999999995769
  endloop
endfacet
facet normal -7.698132981386243e-13 0.0 1.0
  outer loop
    vertex 25.98630655468427 52.699999999999996 14.999999999994229
    vertex 27.986306554684273 47.39999999999999 14.999999999995769
    vertex 27.786306554684273 48.39999999999999 14.999999999995612
  endloop
endfacet
facet normal -7.698132981386243e-13 0.0 1.0
  outer loop
    vertex 25.98630655468427 52.699999999999996 14.999999999994229
    vertex 27.786306554684273 48.39999999999999 14.999999999995612
    vertex 27.986306554684273 48.59999999999999 14.999999999995769
  endloop
endfacet
facet normal -7.698132981386243e-13 0.0 1.0
  outer loop
    vertex 25.98630655468427 52.699999999999996 14.999999999994229
    vertex 27.986306554684273 48.59999999999999 14.999999999995769
    vertex 35.18630655468427 49.599999999999994 15.00000000000131
  endloop
endfacet
facet normal -7.698132981386243e-13 0.0 1.0
  outer loop
    vertex 25.98630655468427 52.699999999999996 14.999999999994229
    vertex 35.18630655468427 49.599999999999994 15.00000000000131
    vertex 35.18630655468428 50.699999999999996 15.00000000000131
  endloop
endfacet
facet normal -7.698132981386243e-13 0.0 1.0
  outer loop
    vertex 25.98630655468427 52.699999999999996 14.999999999994229
    vertex 35.18630655468428 50.699999999999996 15.00000000000131
    vertex 42.486306554684276 52.699999999999996 15.00000000000693
  endloop
endfacet
facet normal -7.698132981386243e-13 0.0 1.0
  outer loop
    vertex 36.486306554684276 50.699999999999996 15.000000000002311
    vertex 38.986306554684276 49.25662432702593 15.000000000004237
    vertex 41.48630655468427 50.699999999999996 15.00000000000616
  endloop
endfacet
facet normal 5.443402033614027e-13 -0.7071067811865476 -0.7071067811865476
  outer loop
    vertex 34.98630655469582 51.199999999999996 1.184385922670117e-12
    vertex 36.48630655469544 50.699999999999996 0.5000000000023368
    vertex 35.186306554695435 50.699999999999996 0.5000000000013357
  endloop
endfacet
facet normal 5.443402033614027e-13 -0.7071067811865476 -0.7071067811865476
  outer loop
    vertex 36.48630655469544 50.699999999999996 0.5000000000023368
    vertex 34.98630655469582 51.199999999999996 1.184385922670117e-12
    vertex 36.62028115091138 51.199999999999996 2.442090973886479e-12
  endloop
endfacet
facet normal 0.9284766908855445 -8.717815224269405e-17 -0.3713906763533912
  outer loop
    vertex 34.98630655469582 35.599999999999994 1.184385922670117e-12
    vertex 35.186306554695435 50.699999999999996 0.5000000000013357
    vertex 35.186306554695435 36.099999999999994 0.5000000000013357
  endloop
endfacet
facet normal 0.9284766908855445 -8.717815224269405e-17 -0.3713906763533912
  outer loop
    vertex 35.186306554695435 50.699999999999996 0.5000000000013357
    vertex 34.98630655469582 35.599999999999994 1.184385922670117e-12
    vertex 34.98630655469582 51.199999999999996 1.184385922670117e-12
  endloop
endfacet
facet normal 5.44336629593429e-13 0.7071067811865471 -0.707106781186548
  outer loop
    vertex 35.186306554695435 36.099999999999994 0.5000000000013357
    vertex 36.62028115091138 35.599999999999994 2.442090973886479e-12
    vertex 34.98630655469582 35.599999999999994 1.184385922670117e-12
  endloop
endfacet
facet normal 5.44336629593429e-13 0.7071067811865471 -0.707106781186548
  outer loop
    vertex 36.62028115091138 35.599999999999994 2.442090973886479e-12
    vertex 35.186306554695435 36.099999999999994 0.5000000000013357
    vertex 36.48630655469544 36.099999999999994 0.5000000000023368
  endloop
endfacet
facet normal 0.0 1.0 0.0
  outer loop
    vertex 33.986306554684276 38.39999999999999 15.000000000000387
    vertex 28.98630655469351 38.39999999999999 2.9999999999965654
    vertex 28.98630655468427 38.39999999999999 14.999999999996538
  endloop
endfacet
facet normal 0.0 1.0 0.0
  outer loop
    vertex 28.98630655469351 38.39999999999999 2.9999999999965654
    vertex 33.986306554684276 38.39999999999999 15.000000000000387
    vertex 30.98630655469351 38.39999999999999 2.999999999998105
  endloop
endfacet
facet normal 0.0 1.0 0.0
  outer loop
    vertex 30.98630655469351 38.39999999999999 2.999999999998105
    vertex 33.986306554684276 38.39999999999999 15.000000000000387
    vertex 33.98630655469351 38.39999999999999 3.000000000000415
  endloop
endfacet
facet normal 0.0 1.0 0.0
  outer loop
    vertex 28.98630655469351 38.39999999999999 2.9999999999965654
    vertex 27.986306554695435 38.39999999999999 0.49999999999579453
    vertex 27.98630655469351 38.39999999999999 2.9999999999957954
  endloop
endfacet
facet normal 0.0 1.0 0.0
  outer loop
    vertex 27.986306554695435 38.39999999999999 0.49999999999579453
    vertex 28.98630655469351 38.39999999999999 2.9999999999965654
    vertex 30.986306554695435 38.39999999999999 0.49999999999810407
  endloop
endfacet
facet normal 0.0 1.0 0.0
  outer loop
    vertex 30.986306554695435 38.39999999999999 0.49999999999810407
    vertex 28.98630655469351 38.39999999999999 2.9999999999965654
    vertex 30.98630655469351 38.39999999999999 2.999999999998105
  endloop
endfacet
facet normal 0.0 1.0 0.0
  outer loop
    vertex 36.486306554684276 36.099999999999994 15.000000000002311
    vertex 35.186306554695435 36.099999999999994 0.5000000000013357
    vertex 35.18630655468427 36.099999999999994 15.00000000000131
  endloop
endfacet
facet normal 0.0 1.0 0.0
  outer loop
    vertex 35.186306554695435 36.099999999999994 0.5000000000013357
    vertex 36.486306554684276 36.099999999999994 15.000000000002311
    vertex 36.48630655469544 36.099999999999994 0.5000000000023368
  endloop
endfacet
facet normal 0.0 -1.0 0.0
  outer loop
    vertex 30.986306554695435 48.39999999999999 0.49999999999810407
    vertex 27.98630655469351 48.39999999999999 2.9999999999957954
    vertex 27.986306554695435 48.39999999999999 0.49999999999579453
  endloop
endfacet
facet normal 0.0 -1.0 0.0
  outer loop
    vertex 27.98630655469351 48.39999999999999 2.9999999999957954
    vertex 30.986306554695435 48.39999999999999 0.49999999999810407
    vertex 28.98630655469351 48.39999999999999 2.9999999999965654
  endloop
endfacet
facet normal 0.0 -1.0 0.0
  outer loop
    vertex 28.98630655469351 48.39999999999999 2.9999999999965654
    vertex 30.986306554695435 48.39999999999999 0.49999999999810407
    vertex 28.98630655468427 48.39999999999999 14.999999999996538
  endloop
endfacet
facet normal 0.0 -1.0 0.0
  outer loop
    vertex 28.98630655468427 48.39999999999999 14.999999999996538
    vertex 30.986306554695435 48.39999999999999 0.49999999999810407
    vertex 30.98630655469351 48.39999999999999 2.999999999998105
  endloop
endfacet
facet normal 0.0 -1.0 0.0
  outer loop
    vertex 28.98630655468427 48.39999999999999 14.999999999996538
    vertex 30.98630655469351 48.39999999999999 2.999999999998105
    vertex 33.986306554684276 48.39999999999999 15.000000000000387
  endloop
endfacet
facet normal 0.0 -1.0 0.0
  outer loop
    vertex 33.986306554684276 48.39999999999999 15.000000000000387
    vertex 30.98630655469351 48.39999999999999 2.999999999998105
    vertex 33.98630655469351 48.39999999999999 3.000000000000415
  endloop
endfacet
facet normal 0.0 -1.0 0.0
  outer loop
    vertex 36.48630655469544 50.699999999999996 0.5000000000023368
    vertex 35.18630655468428 50.699999999999996 15.00000000000131
    vertex 35.186306554695435 50.699999999999996 0.5000000000013357
  endloop
endfacet
facet normal 0.0 -1.0 0.0
  outer loop
    vertex 35.18630655468428 50.699999999999996 15.00000000000131
    vertex 36.48630655469544 50.699999999999996 0.5000000000023368
    vertex 36.486306554684276 50.699999999999996 15.000000000002311
  endloop
endfacet
facet normal -7.698132981386243e-13 0.0 1.0
  outer loop
    vertex 34.986306554693506 48.59999999999999 3.0000000000011844
    vertex 33.98630655469351 38.39999999999999 3.000000000000415
    vertex 34.986306554693506 38.19999999999999 3.0000000000011844
  endloop
endfacet
facet normal -7.698132981386243e-13 0.0 1.0
  outer loop
    vertex 33.98630655469351 38.39999999999999 3.000000000000415
    vertex 34.986306554693506 48.59999999999999 3.0000000000011844
    vertex 30.98630655469351 38.39999999999999 2.999999999998105
  endloop
endfacet
facet normal -7.698132981386243e-13 0.0 1.0
  outer loop
    vertex 30.98630655469351 38.39999999999999 2.999999999998105
    vertex 34.986306554693506 48.59999999999999 3.0000000000011844
    vertex 33.98630655469351 48.39999999999999 3.000000000000415
  endloop
endfacet
facet normal -7.698132981386243e-13 0.0 1.0
  outer loop
    vertex 30.98630655469351 48.39999999999999 2.999999999998105
    vertex 30.98630655469351 38.39999999999999 2.999999999998105
    vertex 33.98630655469351 48.39999999999999 3.000000000000415
  endloop
endfacet
endsolid pot cutter
