solid Indexer
facet normal 1.7833756955251506e-09 0.8660254298423086 0.49999995486644294
  outer loop
    vertex 264.4473658477528 568.7829015132413 13.301908138267255
    vertex 255.44736583561001 569.6489268286648 11.801908142879409
    vertex 255.44736584775276 568.7829015143892 13.301908168379748
  endloop
endfacet
facet normal 1.7833756955251506e-09 0.8660254298423086 0.49999995486644294
  outer loop
    vertex 255.44736583561001 569.6489268286648 11.801908142879409
    vertex 264.4473658477528 568.7829015132413 13.301908138267255
    vertex 264.44736583561007 569.6489268275169 11.801908112766915
  endloop
endfacet
facet normal -1.5624580517688678e-09 0.8660253963338598 -0.5000000129047808
  outer loop
    vertex 264.4473658503073 569.2159142263095 14.05190813181486
    vertex 255.44736584775276 568.7829015143892 13.301908168379748
    vertex 255.44736585030728 569.2159142274573 14.051908161927347
  endloop
endfacet
facet normal -1.5624580517688678e-09 0.8660253963338598 -0.5000000129047808
  outer loop
    vertex 255.44736584775276 568.7829015143892 13.301908168379748
    vertex 264.4473658503073 569.2159142263095 14.05190813181486
    vertex 264.4473658477528 568.7829015132413 13.301908138267255
  endloop
endfacet
facet normal 1.7865016264133029e-09 0.8654729242517893 0.5009557040168885
  outer loop
    vertex 264.44736584995053 568.7829015355647 14.799999742893418
    vertex 255.44736585030728 569.2159142274573 14.051908161927347
    vertex 255.44736584995053 568.7829015367126 14.799999773005908
  endloop
endfacet
facet normal 1.7865016264133029e-09 0.8654729242517893 0.5009557040168885
  outer loop
    vertex 255.44736585030728 569.2159142274573 14.051908161927347
    vertex 264.44736584995053 568.7829015355647 14.799999742893418
    vertex 264.4473658503073 569.2159142263095 14.05190813181486
  endloop
endfacet
facet normal 3.651082852879236e-09 -0.002203602125884168 0.999997572065888
  outer loop
    vertex 255.4473658455723 560.8016519164289 14.782412209420261
    vertex 264.4473658463945 561.7878817261812 14.784585439942356
    vertex 255.44736584480367 561.7878817264414 14.784585475552618
  endloop
endfacet
facet normal 3.651082852879236e-09 -0.002203602125884168 0.999997572065888
  outer loop
    vertex 264.4473658463945 561.7878817261812 14.784585439942356
    vertex 255.4473658455723 560.8016519164289 14.782412209420261
    vertex 264.44736584557234 560.8016519152809 14.782412179307768
  endloop
endfacet
facet normal 1.5592004723193786e-09 -0.8665747292900956 0.4990473309775313
  outer loop
    vertex 255.4473658453294 560.368639203332 14.030503820498822
    vertex 264.44736584557234 560.8016519152809 14.782412179307768
    vertex 255.4473658455723 560.8016519164289 14.782412209420261
  endloop
endfacet
facet normal 1.5592004723193786e-09 -0.8665747292900956 0.4990473309775313
  outer loop
    vertex 264.44736584557234 560.8016519152809 14.782412179307768
    vertex 255.4473658453294 560.368639203332 14.030503820498822
    vertex 264.44736584532944 560.368639202184 14.030503790386328
  endloop
endfacet
facet normal -1.7833744253026842e-09 -0.8660254112350002 -0.49999998709524873
  outer loop
    vertex 255.44736584324653 560.8016518940487 13.280503814046401
    vertex 264.44736584532944 560.368639202184 14.030503790386328
    vertex 255.4473658453294 560.368639203332 14.030503820498822
  endloop
endfacet
facet normal -1.7833744253026842e-09 -0.8660254112350002 -0.49999998709524873
  outer loop
    vertex 264.44736584532944 560.368639202184 14.030503790386328
    vertex 255.44736584324653 560.8016518940487 13.280503814046401
    vertex 264.44736584324653 560.8016518929007 13.280503783933908
  endloop
endfacet
facet normal 1.5624564208457636e-09 -0.8660254558118923 0.49999990988579596
  outer loop
    vertex 255.44736583783433 559.9356267131624 11.780503839660375
    vertex 264.44736584324653 560.8016518929007 13.280503783933908
    vertex 255.44736584324653 560.8016518940487 13.280503814046401
  endloop
endfacet
facet normal 1.5624564208457636e-09 -0.8660254558118923 0.49999990988579596
  outer loop
    vertex 264.44736584324653 560.8016518929007 13.280503783933908
    vertex 255.44736583783433 559.9356267131624 11.780503839660375
    vertex 264.44736583783435 559.9356267120144 11.78050380954788
  endloop
endfacet
facet normal 1.7389534946022904e-09 -0.8950165732409079 0.4460328840165295
  outer loop
    vertex 255.44736583672218 566.7922767858145 12.79120596146752
    vertex 264.4473658479782 567.7922743874818 14.79781678124203
    vertex 255.44736584638727 567.7922743877418 14.79781681685229
  endloop
endfacet
facet normal 1.7389534946022904e-09 -0.8950165732409079 0.4460328840165295
  outer loop
    vertex 264.4473658479782 567.7922743874818 14.79781678124203
    vertex 255.44736583672218 566.7922767858145 12.79120596146752
    vertex 264.4473658383131 566.7922767855545 12.79120592585726
  endloop
endfacet
facet normal 3.956695698852815e-09 1.490118228808515e-08 1.0
  outer loop
    vertex 264.4473658383131 562.7922767855545 12.791205985461989
    vertex 255.44736583672218 566.7922767858145 12.79120596146752
    vertex 255.44736583672218 562.7922767858145 12.79120602107225
  endloop
endfacet
facet normal 3.956695698852815e-09 1.490118228808515e-08 1.0
  outer loop
    vertex 255.44736583672218 566.7922767858145 12.79120596146752
    vertex 264.4473658383131 562.7922767855545 12.791205985461989
    vertex 264.4473658383131 566.7922767855545 12.79120592585726
  endloop
endfacet
facet normal 1.80621230049931e-09 0.8930421195539888 0.44997307997536806
  outer loop
    vertex 264.4473658463945 561.7878817261812 14.784585439942356
    vertex 255.44736583672218 562.7922767858145 12.79120602107225
    vertex 255.44736584480367 561.7878817264414 14.784585475552618
  endloop
endfacet
facet normal 1.80621230049931e-09 0.8930421195539888 0.44997307997536806
  outer loop
    vertex 255.44736583672218 562.7922767858145 12.79120602107225
    vertex 264.4473658463945 561.7878817261812 14.784585439942356
    vertex 264.4473658383131 562.7922767855545 12.791205985461989
  endloop
endfacet
facet normal 3.651082695738655e-09 -0.0022036076899874277 0.9999975720536268
  outer loop
    vertex 264.4473658479782 567.7922743874818 14.79781678124203
    vertex 255.44736584995053 568.7829015367126 14.799999773005908
    vertex 255.44736584638727 567.7922743877418 14.79781681685229
  endloop
endfacet
facet normal 3.651082695738655e-09 -0.0022036076899874277 0.9999975720536268
  outer loop
    vertex 255.44736584995053 568.7829015367126 14.799999773005908
    vertex 264.4473658479782 567.7922743874818 14.79781678124203
    vertex 264.44736584995053 568.7829015355647 14.799999742893418
  endloop
endfacet
facet normal -3.766008667999463e-09 -1.519901403174314e-08 -1.0
  outer loop
    vertex 255.9644029241573 569.9153980290198 10.791433331463674
    vertex 255.9473658377951 559.7864498453876 10.791433485235032
    vertex 255.94736583728448 569.7859885063363 10.79143333349518
  endloop
endfacet
facet normal -3.766008667999463e-09 -1.519901403174314e-08 -1.0
  outer loop
    vertex 255.9473658377951 559.7864498453876 10.791433485235032
    vertex 255.9644029241573 569.9153980290198 10.791433331463674
    vertex 255.96440292465056 559.6570403228363 10.791433487056517
  endloop
endfacet
facet normal -3.766008667999463e-09 -1.519901403174314e-08 -1.0
  outer loop
    vertex 255.96440292465056 559.6570403228363 10.791433487056517
    vertex 255.9644029241573 569.9153980290198 10.791433331463674
    vertex 256.0143531354607 570.0359885065916 10.791433329441645
  endloop
endfacet
facet normal -3.766008667999463e-09 -1.519901403174314e-08 -1.0
  outer loop
    vertex 255.96440292465056 559.6570403228363 10.791433487056517
    vertex 256.0143531354607 570.0359885065916 10.791433329441645
    vertex 256.0143531359028 559.5364498453876 10.791433488666536
  endloop
endfacet
facet normal -3.766008667999463e-09 -1.519901403174314e-08 -1.0
  outer loop
    vertex 256.0143531359028 559.5364498453876 10.791433488666536
    vertex 256.0143531354607 570.0359885065916 10.791433329441645
    vertex 256.0938124468408 570.1395418972907 10.791433327566887
  endloop
endfacet
facet normal -3.766008667999463e-09 -1.519901403174314e-08 -1.0
  outer loop
    vertex 256.0143531359028 559.5364498453876 10.791433488666536
    vertex 256.0938124468408 570.1395418972907 10.791433327566887
    vertex 256.09381244720174 559.4328964547942 10.791433489955368
  endloop
endfacet
facet normal -3.766008667999463e-09 -1.519901403174314e-08 -1.0
  outer loop
    vertex 256.09381244720174 559.4328964547942 10.791433489955368
    vertex 256.0938124468408 570.1395418972907 10.791433327566887
    vertex 256.1973658375398 570.2190012086708 10.791433325967166
  endloop
endfacet
facet normal -3.766008667999463e-09 -1.519901403174314e-08 -1.0
  outer loop
    vertex 256.09381244720174 559.4328964547942 10.791433489955368
    vertex 256.1973658375398 570.2190012086708 10.791433325967166
    vertex 256.19736583779496 559.3534371434953 10.791433490835185
  endloop
endfacet
facet normal -3.766008667999463e-09 -1.519901403174314e-08 -1.0
  outer loop
    vertex 256.19736583779496 559.3534371434953 10.791433490835185
    vertex 256.1973658375398 570.2190012086708 10.791433325967166
    vertex 256.3179563151117 570.2689514199741 10.791433324751496
  endloop
endfacet
facet normal -3.766008667999463e-09 -1.519901403174314e-08 -1.0
  outer loop
    vertex 256.19736583779496 559.3534371434953 10.791433490835185
    vertex 256.3179563151117 570.2689514199741 10.791433324751496
    vertex 256.3179563152437 559.3034869322429 10.791433491246025
  endloop
endfacet
facet normal -3.766008667999463e-09 -1.519901403174314e-08 -1.0
  outer loop
    vertex 256.3179563152437 559.3034869322429 10.791433491246025
    vertex 256.3179563151117 570.2689514199741 10.791433324751496
    vertex 256.44736583779513 570.2859885068469 10.791433324002726
  endloop
endfacet
facet normal -3.766008667999463e-09 -1.519901403174314e-08 -1.0
  outer loop
    vertex 256.3179563152437 559.3034869322429 10.791433491246025
    vertex 256.44736583779513 570.2859885068469 10.791433324002726
    vertex 256.4473658377949 559.2864498453874 10.791433491159893
  endloop
endfacet
facet normal -3.766008667999463e-09 -1.519901403174314e-08 -1.0
  outer loop
    vertex 256.4473658377949 559.2864498453874 10.791433491159893
    vertex 256.44736583779513 570.2859885068469 10.791433324002726
    vertex 263.44736583735755 559.2864498453878 10.79143346463743
  endloop
endfacet
facet normal -3.766008667999463e-09 -1.519901403174314e-08 -1.0
  outer loop
    vertex 263.44736583735755 559.2864498453878 10.79143346463743
    vertex 256.44736583779513 570.2859885068469 10.791433324002726
    vertex 263.4473658373573 570.2859885063365 10.791433297316935
  endloop
endfacet
facet normal -3.766008667999463e-09 -1.519901403174314e-08 -1.0
  outer loop
    vertex 263.44736583735755 559.2864498453878 10.79143346463743
    vertex 263.4473658373573 570.2859885063365 10.791433297316935
    vertex 263.5767753599086 570.268951419481 10.79143329713051
  endloop
endfacet
facet normal -3.766008667999463e-09 -1.519901403174314e-08 -1.0
  outer loop
    vertex 263.44736583735755 559.2864498453878 10.79143346463743
    vertex 263.5767753599086 570.268951419481 10.79143329713051
    vertex 263.57677535990877 559.3034869322432 10.791433463950574
  endloop
endfacet
facet normal -3.766008667999463e-09 -1.519901403174314e-08 -1.0
  outer loop
    vertex 263.57677535990877 559.3034869322432 10.791433463950574
    vertex 263.5767753599086 570.268951419481 10.79143329713051
    vertex 263.6973658373573 570.2190012082289 10.791433297469206
  endloop
endfacet
facet normal -3.766008667999463e-09 -1.519901403174314e-08 -1.0
  outer loop
    vertex 263.57677535990877 559.3034869322432 10.791433463950574
    vertex 263.6973658373573 570.2190012082289 10.791433297469206
    vertex 263.69736583735744 559.3534371434955 10.791433462802782
  endloop
endfacet
facet normal -3.766008667999463e-09 -1.519901403174314e-08 -1.0
  outer loop
    vertex 263.69736583735744 559.3534371434955 10.791433462802782
    vertex 263.6973658373573 570.2190012082289 10.791433297469206
    vertex 263.80091922795066 570.1395418969299 10.791433298309942
  endloop
endfacet
facet normal -3.766008667999463e-09 -1.519901403174314e-08 -1.0
  outer loop
    vertex 263.69736583735744 559.3534371434955 10.791433462802782
    vertex 263.80091922795066 570.1395418969299 10.791433298309942
    vertex 263.8009192279507 559.4328964547944 10.791433461272272
  endloop
endfacet
facet normal -3.766008667999463e-09 -1.519901403174314e-08 -1.0
  outer loop
    vertex 263.8009192279507 559.4328964547944 10.791433461272272
    vertex 263.80091922795066 570.1395418969299 10.791433298309942
    vertex 263.88037853924965 570.0359885063367 10.79143329959542
  endloop
endfacet
facet normal -3.766008667999463e-09 -1.519901403174314e-08 -1.0
  outer loop
    vertex 263.8009192279507 559.4328964547944 10.791433461272272
    vertex 263.88037853924965 570.0359885063367 10.79143329959542
    vertex 263.8803785392496 559.5364498453877 10.791433459463347
  endloop
endfacet
facet normal -3.766008667999463e-09 -1.519901403174314e-08 -1.0
  outer loop
    vertex 263.8803785392496 559.5364498453877 10.791433459463347
    vertex 263.88037853924965 570.0359885063367 10.79143329959542
    vertex 263.9303287505019 559.6570403228363 10.79143345749928
  endloop
endfacet
facet normal -3.766008667999463e-09 -1.519901403174314e-08 -1.0
  outer loop
    vertex 263.9303287505019 559.6570403228363 10.79143345749928
    vertex 263.88037853924965 570.0359885063367 10.79143329959542
    vertex 263.930328750502 569.915398028888 10.79143330123804
  endloop
endfacet
facet normal -3.766008667999463e-09 -1.519901403174314e-08 -1.0
  outer loop
    vertex 263.9303287505019 559.6570403228363 10.79143345749928
    vertex 263.930328750502 569.915398028888 10.79143330123804
    vertex 263.9473658373574 559.7864498453876 10.791433455513923
  endloop
endfacet
facet normal -3.766008667999463e-09 -1.519901403174314e-08 -1.0
  outer loop
    vertex 263.9473658373574 559.7864498453876 10.791433455513923
    vertex 263.930328750502 569.915398028888 10.79143330123804
    vertex 263.94736583735755 569.7859885063367 10.791433303125858
  endloop
endfacet
facet normal 3.6791479204375735e-09 1.6810626494663864e-08 1.0
  outer loop
    vertex 264.44736583561007 569.6489268275169 11.801908112766915
    vertex 255.44736583913348 569.7859885217847 11.801908140837028
    vertex 255.44736583561001 569.6489268286648 11.801908142879409
  endloop
endfacet
facet normal 3.6791479204375735e-09 1.6810626494663864e-08 1.0
  outer loop
    vertex 255.44736583913348 569.7859885217847 11.801908140837028
    vertex 264.44736583561007 569.6489268275169 11.801908112766915
    vertex 255.48144001287923 570.0448075671515 11.801908136768622
  endloop
endfacet
facet normal 3.6791479204375735e-09 1.6810626494663864e-08 1.0
  outer loop
    vertex 255.48144001287923 570.0448075671515 11.801908136768622
    vertex 264.44736583561007 569.6489268275169 11.801908112766915
    vertex 255.58134043548583 570.2859885222952 11.801908132718971
  endloop
endfacet
facet normal 3.6791479204375735e-09 1.6810626494663864e-08 1.0
  outer loop
    vertex 255.58134043548583 570.2859885222952 11.801908132718971
    vertex 264.44736583561007 569.6489268275169 11.801908112766915
    vertex 255.74025905824595 570.4930953036932 11.80190812896405
  endloop
endfacet
facet normal 3.6791479204375735e-09 1.6810626494663864e-08 1.0
  outer loop
    vertex 255.74025905824595 570.4930953036932 11.80190812896405
    vertex 264.44736583561007 569.6489268275169 11.801908112766915
    vertex 255.9473658396439 570.6520139264532 11.801908125759752
  endloop
endfacet
facet normal 3.6791479204375735e-09 1.6810626494663864e-08 1.0
  outer loop
    vertex 255.9473658396439 570.6520139264532 11.801908125759752
    vertex 264.44736583561007 569.6489268275169 11.801908112766915
    vertex 256.1885467947876 570.7519143490598 11.80190812332445
  endloop
endfacet
facet normal 3.6791479204375735e-09 1.6810626494663864e-08 1.0
  outer loop
    vertex 256.1885467947876 570.7519143490598 11.80190812332445
    vertex 264.44736583561007 569.6489268275169 11.801908112766915
    vertex 256.4473658401543 570.7859885228057 11.801908122142644
  endloop
endfacet
facet normal 3.6791479204375735e-09 1.6810626494663864e-08 1.0
  outer loop
    vertex 256.4473658401543 570.7859885228057 11.801908122142644
    vertex 264.44736583561007 569.6489268275169 11.801908112766915
    vertex 263.44736583687455 570.7859885205615 11.801908095238923
  endloop
endfacet
facet normal 3.6791479204375735e-09 1.6810626494663864e-08 1.0
  outer loop
    vertex 263.44736583687455 570.7859885205615 11.801908095238923
    vertex 264.44736583561007 569.6489268275169 11.801908112766915
    vertex 263.7061848819771 570.7519143468508 11.801908094785599
  endloop
endfacet
facet normal 3.6791479204375735e-09 1.6810626494663864e-08 1.0
  outer loop
    vertex 263.7061848819771 570.7519143468508 11.801908094785599
    vertex 264.44736583561007 569.6489268275169 11.801908112766915
    vertex 263.9473658368746 570.6520139243462 11.801908095387995
  endloop
endfacet
facet normal 3.6791479204375735e-09 1.6810626494663864e-08 1.0
  outer loop
    vertex 263.9473658368746 570.6520139243462 11.801908095387995
    vertex 264.44736583561007 569.6489268275169 11.801908112766915
    vertex 264.15447261806116 570.4930953017483 11.801908097005064
  endloop
endfacet
facet normal 3.6791479204375735e-09 1.6810626494663864e-08 1.0
  outer loop
    vertex 264.15447261806116 570.4930953017483 11.801908097005064
    vertex 264.44736583561007 569.6489268275169 11.801908112766915
    vertex 264.3133912406591 570.2859885205618 11.801908099526608
  endloop
endfacet
facet normal 3.6791479204375735e-09 1.6810626494663864e-08 1.0
  outer loop
    vertex 264.3133912406591 570.2859885205618 11.801908099526608
    vertex 264.44736583561007 569.6489268275169 11.801908112766915
    vertex 264.41329166316376 570.0448075656643 11.801908102780784
  endloop
endfacet
facet normal 3.6791479204375735e-09 1.6810626494663864e-08 1.0
  outer loop
    vertex 264.41329166316376 570.0448075656643 11.801908102780784
    vertex 264.44736583561007 569.6489268275169 11.801908112766915
    vertex 264.4473658368747 569.785988520562 11.801908110277166
  endloop
endfacet
facet normal 3.4280777624049573e-09 0.00036958037236108955 0.999999931705172
  outer loop
    vertex 255.44736583842854 559.7864498594859 11.781262483524227
    vertex 264.44736583783435 559.9356267120144 11.78050380954788
    vertex 255.44736583783433 559.9356267131624 11.780503839660375
  endloop
endfacet
facet normal 3.4280777624049573e-09 0.00036958037236108955 0.999999931705172
  outer loop
    vertex 264.44736583783435 559.9356267120144 11.78050380954788
    vertex 255.44736583842854 559.7864498594859 11.781262483524227
    vertex 255.48144001213947 559.5276308143831 11.78126249061276
  endloop
endfacet
facet normal 3.4280777624049573e-09 0.00036958037236108955 0.999999931705172
  outer loop
    vertex 264.44736583783435 559.9356267120144 11.78050380954788
    vertex 255.48144001213947 559.5276308143831 11.78126249061276
    vertex 255.58134043464412 559.2864498594857 11.781262493872392
  endloop
endfacet
facet normal 3.4280777624049573e-09 0.00036958037236108955 0.999999931705172
  outer loop
    vertex 264.44736583783435 559.9356267120144 11.78050380954788
    vertex 255.58134043464412 559.2864498594857 11.781262493872392
    vertex 255.74025905724199 559.0793430782992 11.78126249642681
  endloop
endfacet
facet normal 3.4280777624049573e-09 0.00036958037236108955 0.999999931705172
  outer loop
    vertex 264.44736583783435 559.9356267120144 11.78050380954788
    vertex 255.74025905724199 559.0793430782992 11.78126249642681
    vertex 255.9473658384285 558.9204244557012 11.781262498101944
  endloop
endfacet
facet normal 3.4280777624049573e-09 0.00036958037236108955 0.999999931705172
  outer loop
    vertex 264.44736583783435 559.9356267120144 11.78050380954788
    vertex 255.9473658384285 558.9204244557012 11.781262498101944
    vertex 256.188546793326 558.8205240331966 11.781262498783626
  endloop
endfacet
facet normal 3.4280777624049573e-09 0.00036958037236108955 0.999999931705172
  outer loop
    vertex 264.44736583783435 559.9356267120144 11.78050380954788
    vertex 256.188546793326 558.8205240331966 11.781262498783626
    vertex 256.4473658384285 558.7864498594856 11.781262498425408
  endloop
endfacet
facet normal 3.4280777624049573e-09 0.00036958037236108955 0.999999931705172
  outer loop
    vertex 264.44736583783435 559.9356267120144 11.78050380954788
    vertex 256.4473658384285 558.7864498594856 11.781262498425408
    vertex 263.44736584066936 558.7864498601374 11.781262473684235
  endloop
endfacet
facet normal 3.4280777624049573e-09 0.00036958037236108955 0.999999931705172
  outer loop
    vertex 264.44736583783435 559.9356267120144 11.78050380954788
    vertex 263.44736584066936 558.7864498601374 11.781262473684235
    vertex 263.7061848857719 558.8205240338483 11.781262472310521
  endloop
endfacet
facet normal 3.4280777624049573e-09 0.00036958037236108955 0.999999931705172
  outer loop
    vertex 264.44736583783435 559.9356267120144 11.78050380954788
    vertex 263.7061848857719 558.8205240338483 11.781262472310521
    vertex 263.94736584066936 558.9204244563529 11.781262470014935
  endloop
endfacet
facet normal 3.4280777624049573e-09 0.00036958037236108955 0.999999931705172
  outer loop
    vertex 264.44736583783435 559.9356267120144 11.78050380954788
    vertex 263.94736584066936 558.9204244563529 11.781262470014935
    vertex 264.1544726218559 559.0793430789507 11.781262466953915
  endloop
endfacet
facet normal 3.4280777624049573e-09 0.00036958037236108955 0.999999931705172
  outer loop
    vertex 264.44736583783435 559.9356267120144 11.78050380954788
    vertex 264.1544726218559 559.0793430789507 11.781262466953915
    vertex 264.31339124445384 559.2864498601373 11.781262463336066
  endloop
endfacet
facet normal 3.4280777624049573e-09 0.00036958037236108955 0.999999931705172
  outer loop
    vertex 264.44736583783435 559.9356267120144 11.78050380954788
    vertex 264.31339124445384 559.2864498601373 11.781262463336066
    vertex 264.41329166695846 559.5276308150349 11.781262459407932
  endloop
endfacet
facet normal 3.4280777624049573e-09 0.00036958037236108955 0.999999931705172
  outer loop
    vertex 264.44736583783435 559.9356267120144 11.78050380954788
    vertex 264.41329166695846 559.5276308150349 11.781262459407932
    vertex 264.44736584066936 559.7864498601374 11.781262455437217
  endloop
endfacet
facet normal -0.7071067812250948 -1.0671755529335176e-08 -0.7071067811480002
  outer loop
    vertex 255.94736583728448 569.7859885063363 10.79143333349518
    vertex 255.4473658377951 559.7864498528384 11.291433483953506
    vertex 255.44736583677428 569.7859885137871 11.291433335395924
  endloop
endfacet
facet normal -0.7071067812250948 -1.0671755529335176e-08 -0.7071067811480002
  outer loop
    vertex 255.4473658377951 559.7864498528384 11.291433483953506
    vertex 255.94736583728448 569.7859885063363 10.79143333349518
    vertex 255.9473658377951 559.7864498453876 10.791433485235032
  endloop
endfacet
facet normal -0.7040625932265127 0.09269158779180048 -0.7040625926519554
  outer loop
    vertex 255.9644029241573 569.9153980290198 10.791433331463674
    vertex 255.44736583677428 569.7859885137871 11.291433335395924
    vertex 255.48144001051998 570.0448075591538 11.291433331327518
  endloop
endfacet
facet normal -0.7040625932265127 0.09269158779180048 -0.7040625926519554
  outer loop
    vertex 255.44736583677428 569.7859885137871 11.291433335395924
    vertex 255.9644029241573 569.9153980290198 10.791433331463674
    vertex 255.94736583728448 569.7859885063363 10.79143333349518
  endloop
endfacet
facet normal -0.6560818913063696 0.2717580055878943 -0.7040625954407372
  outer loop
    vertex 255.5813404331266 570.2859885142975 11.291433327277867
    vertex 255.9644029241573 569.9153980290198 10.791433331463674
    vertex 255.48144001051998 570.0448075591538 11.291433331327518
  endloop
endfacet
facet normal -0.6560818913063696 0.2717580055878943 -0.7040625954407372
  outer loop
    vertex 255.9644029241573 569.9153980290198 10.791433331463674
    vertex 255.5813404331266 570.2859885142975 11.291433327277867
    vertex 256.0143531354607 570.0359885065916 10.791433329441645
  endloop
endfacet
facet normal -0.5633902929439968 0.4323045637800979 -0.7040625980347038
  outer loop
    vertex 255.7402590558867 570.4930952956954 11.291433323522948
    vertex 256.0143531354607 570.0359885065916 10.791433329441645
    vertex 255.5813404331266 570.2859885142975 11.291433327277867
  endloop
endfacet
facet normal -0.5633902929439968 0.4323045637800979 -0.7040625980347038
  outer loop
    vertex 256.0143531354607 570.0359885065916 10.791433329441645
    vertex 255.7402590558867 570.4930952956954 11.291433323522948
    vertex 256.0938124468408 570.1395418972907 10.791433327566887
  endloop
endfacet
facet normal -0.43230457732484423 0.5633902797735237 -0.7040626002570359
  outer loop
    vertex 255.9473658372847 570.6520139184555 11.291433320318651
    vertex 256.0938124468408 570.1395418972907 10.791433327566887
    vertex 255.7402590558867 570.4930952956954 11.291433323522948
  endloop
endfacet
facet normal -0.43230457732484423 0.5633902797735237 -0.7040626002570359
  outer loop
    vertex 256.0938124468408 570.1395418972907 10.791433327566887
    vertex 255.9473658372847 570.6520139184555 11.291433320318651
    vertex 256.1973658375398 570.2190012086708 10.791433325967166
  endloop
endfacet
facet normal -0.27175801926978815 0.6560818786470733 -0.7040626019563094
  outer loop
    vertex 256.1885467924284 570.7519143410622 11.291433317883346
    vertex 256.1973658375398 570.2190012086708 10.791433325967166
    vertex 255.9473658372847 570.6520139184555 11.291433320318651
  endloop
endfacet
facet normal -0.27175801926978815 0.6560818786470733 -0.7040626019563094
  outer loop
    vertex 256.1973658375398 570.2190012086708 10.791433325967166
    vertex 256.1885467924284 570.7519143410622 11.291433317883346
    vertex 256.3179563151117 570.2689514199741 10.791433324751496
  endloop
endfacet
facet normal -0.0926916006702851 0.7040625812792405 -0.7040626029037429
  outer loop
    vertex 256.44736583779513 570.7859885148081 11.291433316701543
    vertex 256.3179563151117 570.2689514199741 10.791433324751496
    vertex 256.1885467924284 570.7519143410622 11.291433317883346
  endloop
endfacet
facet normal -0.0926916006702851 0.7040625812792405 -0.7040626029037429
  outer loop
    vertex 256.3179563151117 570.2689514199741 10.791433324751496
    vertex 256.44736583779513 570.7859885148081 11.291433316701543
    vertex 256.44736583779513 570.2859885068469 10.791433324002726
  endloop
endfacet
facet normal -2.6293340595556737e-09 0.7071067704978644 -0.7071067918752306
  outer loop
    vertex 263.4473658373574 570.7859885137872 11.291433289797821
    vertex 256.44736583779513 570.2859885068469 10.791433324002726
    vertex 256.44736583779513 570.7859885148081 11.291433316701543
  endloop
endfacet
facet normal -2.6293340595556737e-09 0.7071067704978644 -0.7071067918752306
  outer loop
    vertex 256.44736583779513 570.2859885068469 10.791433324002726
    vertex 263.4473658373574 570.7859885137872 11.291433289797821
    vertex 263.4473658373573 570.2859885063365 10.791433297316935
  endloop
endfacet
facet normal 0.09269159616622094 0.7040625818312594 -0.7040626029446954
  outer loop
    vertex 263.4473658373574 570.7859885137872 11.291433289797821
    vertex 263.5767753599086 570.268951419481 10.79143329713051
    vertex 263.4473658373573 570.2859885063365 10.791433297316935
  endloop
endfacet
facet normal 0.09269159616622094 0.7040625818312594 -0.7040626029446954
  outer loop
    vertex 263.5767753599086 570.268951419481 10.79143329713051
    vertex 263.4473658373574 570.7859885137872 11.291433289797821
    vertex 263.70618488245987 570.7519143400764 11.291433289344493
  endloop
endfacet
facet normal 0.27175801450310183 0.65608187994653 -0.7040626025852808
  outer loop
    vertex 263.70618488245987 570.7519143400764 11.291433289344493
    vertex 263.6973658373573 570.2190012082289 10.791433297469206
    vertex 263.5767753599086 570.268951419481 10.79143329713051
  endloop
endfacet
facet normal 0.27175801450310183 0.65608187994653 -0.7040626025852808
  outer loop
    vertex 263.6973658373573 570.2190012082289 10.791433297469206
    vertex 263.70618488245987 570.7519143400764 11.291433289344493
    vertex 263.9473658373574 570.6520139175718 11.291433289946893
  endloop
endfacet
facet normal 0.432304573196391 0.5633902813637952 -0.7040626015194316
  outer loop
    vertex 263.9473658373574 570.6520139175718 11.291433289946893
    vertex 263.80091922795066 570.1395418969299 10.791433298309942
    vertex 263.6973658373573 570.2190012082289 10.791433297469206
  endloop
endfacet
facet normal 0.432304573196391 0.5633902813637952 -0.7040626015194316
  outer loop
    vertex 263.80091922795066 570.1395418969299 10.791433298309942
    vertex 263.9473658373574 570.6520139175718 11.291433289946893
    vertex 264.154472618544 570.4930952949738 11.291433291563964
  endloop
endfacet
facet normal 0.5633902895327881 0.4323045653183574 -0.7040625998198367
  outer loop
    vertex 264.154472618544 570.4930952949738 11.291433291563964
    vertex 263.88037853924965 570.0359885063367 10.79143329959542
    vertex 263.80091922795066 570.1395418969299 10.791433298309942
  endloop
endfacet
facet normal 0.5633902895327881 0.4323045653183574 -0.7040625998198367
  outer loop
    vertex 263.88037853924965 570.0359885063367 10.79143329959542
    vertex 264.154472618544 570.4930952949738 11.291433291563964
    vertex 264.31339124114186 570.2859885137874 11.291433294085504
  endloop
endfacet
facet normal 0.6560818885129004 0.2717580067318062 -0.7040625976023025
  outer loop
    vertex 264.31339124114186 570.2859885137874 11.291433294085504
    vertex 263.930328750502 569.915398028888 10.79143330123804
    vertex 263.88037853924965 570.0359885063367 10.79143329959542
  endloop
endfacet
facet normal 0.6560818885129004 0.2717580067318062 -0.7040625976023025
  outer loop
    vertex 263.930328750502 569.915398028888 10.79143330123804
    vertex 264.31339124114186 570.2859885137874 11.291433294085504
    vertex 264.4132916636466 570.0448075588899 11.291433297339676
  endloop
endfacet
facet normal 0.7040625931482276 0.09269158047802081 -0.7040625936931176
  outer loop
    vertex 264.44736583735755 569.7859885137876 11.291433304836065
    vertex 263.930328750502 569.915398028888 10.79143330123804
    vertex 264.4132916636466 570.0448075588899 11.291433297339676
  endloop
endfacet
facet normal 0.7040625931482276 0.09269158047802081 -0.7040625936931176
  outer loop
    vertex 263.930328750502 569.915398028888 10.79143330123804
    vertex 264.44736583735755 569.7859885137876 11.291433304836065
    vertex 263.94736583735755 569.7859885063367 10.791433303125858
  endloop
endfacet
facet normal 0.7071067811996453 -1.0656349238024007e-08 -0.7071067811734498
  outer loop
    vertex 264.4473658373576 559.7864498528384 11.29143345384101
    vertex 263.94736583735755 569.7859885063367 10.791433303125858
    vertex 264.44736583735755 569.7859885137876 11.291433304836065
  endloop
endfacet
facet normal 0.7071067811996453 -1.0656349238024007e-08 -0.7071067811734498
  outer loop
    vertex 263.94736583735755 569.7859885063367 10.791433303125858
    vertex 264.4473658373576 559.7864498528384 11.29143345384101
    vertex 263.9473658373574 559.7864498453876 10.791433455513923
  endloop
endfacet
facet normal 0.7040625910315228 -0.09269160936865906 -0.704062592006298
  outer loop
    vertex 263.9473658373574 559.7864498453876 10.791433455513923
    vertex 264.41329166364665 559.5276308077358 11.291433457811724
    vertex 263.9303287505019 559.6570403228363 10.79143345749928
  endloop
endfacet
facet normal 0.7040625910315228 -0.09269160936865906 -0.704062592006298
  outer loop
    vertex 264.41329166364665 559.5276308077358 11.291433457811724
    vertex 263.9473658373574 559.7864498453876 10.791433455513923
    vertex 264.4473658373576 559.7864498528384 11.29143345384101
  endloop
endfacet
facet normal 0.6560818887365367 -0.27175802780905767 -0.7040625892583914
  outer loop
    vertex 263.9303287505019 559.6570403228363 10.79143345749928
    vertex 264.313391241142 559.2864498528382 11.291433461739858
    vertex 263.8803785392496 559.5364498453877 10.791433459463347
  endloop
endfacet
facet normal 0.6560818887365367 -0.27175802780905767 -0.7040625892583914
  outer loop
    vertex 264.313391241142 559.2864498528382 11.291433461739858
    vertex 263.9303287505019 559.6570403228363 10.79143345749928
    vertex 264.41329166364665 559.5276308077358 11.291433457811724
  endloop
endfacet
facet normal 0.5633902897466481 -0.4323045863869222 -0.7040625867123036
  outer loop
    vertex 263.8803785392496 559.5364498453877 10.791433459463347
    vertex 264.1544726185441 559.0793430716517 11.291433465357708
    vertex 263.8009192279507 559.4328964547944 10.791433461272272
  endloop
endfacet
facet normal 0.5633902897466481 -0.4323045863869222 -0.7040625867123036
  outer loop
    vertex 264.1544726185441 559.0793430716517 11.291433465357708
    vertex 263.8803785392496 559.5364498453877 10.791433459463347
    vertex 264.313391241142 559.2864498528382 11.291433461739858
  endloop
endfacet
facet normal 0.43230457340630085 -0.5633903024197973 -0.7040625845415488
  outer loop
    vertex 263.8009192279507 559.4328964547944 10.791433461272272
    vertex 263.94736583735755 558.9204244490538 11.29143346841873
    vertex 263.69736583735744 559.3534371434955 10.791433462802782
  endloop
endfacet
facet normal 0.43230457340630085 -0.5633903024197973 -0.7040625845415488
  outer loop
    vertex 263.94736583735755 558.9204244490538 11.29143346841873
    vertex 263.8009192279507 559.4328964547944 10.791433461272272
    vertex 264.1544726185441 559.0793430716517 11.291433465357708
  endloop
endfacet
facet normal 0.27175801471608946 -0.6560819009895934 -0.7040625828940571
  outer loop
    vertex 263.69736583735744 559.3534371434955 10.791433462802782
    vertex 263.7061848824601 558.8205240265492 11.291433470714313
    vertex 263.57677535990877 559.3034869322432 10.791433463950574
  endloop
endfacet
facet normal 0.27175801471608946 -0.6560819009895934 -0.7040625828940571
  outer loop
    vertex 263.7061848824601 558.8205240265492 11.291433470714313
    vertex 263.69736583735744 559.3534371434955 10.791433462802782
    vertex 263.94736583735755 558.9204244490538 11.29143346841873
  endloop
endfacet
facet normal 0.09269159638774507 -0.7040626028647741 -0.7040625818820164
  outer loop
    vertex 263.44736583735755 559.2864498453878 10.79143346463743
    vertex 263.7061848824601 558.8205240265492 11.291433470714313
    vertex 263.44736583735755 558.7864498528385 11.291433472088029
  endloop
endfacet
facet normal 0.09269159638774507 -0.7040626028647741 -0.7040625818820164
  outer loop
    vertex 263.7061848824601 558.8205240265492 11.291433470714313
    vertex 263.44736583735755 559.2864498453878 10.79143346463743
    vertex 263.57677535990877 559.3034869322432 10.791433463950574
  endloop
endfacet
facet normal -2.6914704120230666e-09 -0.7071067918096853 -0.7071067705634096
  outer loop
    vertex 256.4473658377949 559.2864498453874 10.791433491159893
    vertex 263.44736583735755 558.7864498528385 11.291433472088029
    vertex 256.44736583779513 558.7864498528381 11.291433498854685
  endloop
endfacet
facet normal -2.6914704120230666e-09 -0.7071067918096853 -0.7071067705634096
  outer loop
    vertex 263.44736583735755 558.7864498528385 11.291433472088029
    vertex 256.4473658377949 559.2864498453874 10.791433491159893
    vertex 263.44736583735755 559.2864498453878 10.79143346463743
  endloop
endfacet
facet normal -0.0926916009864821 -0.7040626027733388 -0.7040625813680165
  outer loop
    vertex 256.3179563152437 559.3034869322429 10.791433491246025
    vertex 256.44736583779513 558.7864498528381 11.291433498854685
    vertex 256.1885467926926 558.820524026549 11.291433499212904
  endloop
endfacet
facet normal -0.0926916009864821 -0.7040626027733388 -0.7040625813680165
  outer loop
    vertex 256.44736583779513 558.7864498528381 11.291433498854685
    vertex 256.3179563152437 559.3034869322429 10.791433491246025
    vertex 256.4473658377949 559.2864498453874 10.791433491159893
  endloop
endfacet
facet normal -0.2717580191099889 -0.6560819004207666 -0.7040625817281375
  outer loop
    vertex 256.19736583779496 559.3534371434953 10.791433490835185
    vertex 256.1885467926926 558.820524026549 11.291433499212904
    vertex 255.9473658377951 558.9204244490536 11.291433498531221
  endloop
endfacet
facet normal -0.2717580191099889 -0.6560819004207666 -0.7040625817281375
  outer loop
    vertex 256.1885467926926 558.820524026549 11.291433499212904
    vertex 256.19736583779496 559.3534371434953 10.791433490835185
    vertex 256.3179563152437 559.3034869322429 10.791433491246025
  endloop
endfacet
facet normal -0.43230457738486305 -0.5633903015392866 -0.7040625828032382
  outer loop
    vertex 256.09381244720174 559.4328964547942 10.791433489955368
    vertex 255.9473658377951 558.9204244490536 11.291433498531221
    vertex 255.74025905660855 559.0793430716516 11.291433496856092
  endloop
endfacet
facet normal -0.43230457738486305 -0.5633903015392866 -0.7040625828032382
  outer loop
    vertex 255.9473658377951 558.9204244490536 11.291433498531221
    vertex 256.09381244720174 559.4328964547942 10.791433489955368
    vertex 256.19736583779496 559.3534371434953 10.791433490835185
  endloop
endfacet
facet normal -0.5633902932094225 -0.43230458544454464 -0.7040625845200279
  outer loop
    vertex 256.0143531359028 559.5364498453876 10.791433488666536
    vertex 255.74025905660855 559.0793430716516 11.291433496856092
    vertex 255.58134043401068 559.2864498528381 11.291433494301673
  endloop
endfacet
facet normal -0.5633902932094225 -0.43230458544454464 -0.7040625845200279
  outer loop
    vertex 255.74025905660855 559.0793430716516 11.291433496856092
    vertex 256.0143531359028 559.5364498453876 10.791433488666536
    vertex 256.09381244720174 559.4328964547942 10.791433489955368
  endloop
endfacet
facet normal -0.6560818917216715 -0.2717580270710043 -0.7040625867615664
  outer loop
    vertex 255.96440292465056 559.6570403228363 10.791433487056517
    vertex 255.58134043401068 559.2864498528381 11.291433494301673
    vertex 255.48144001150604 559.5276308077356 11.291433491042039
  endloop
endfacet
facet normal -0.6560818917216715 -0.2717580270710043 -0.7040625867615664
  outer loop
    vertex 255.58134043401068 559.2864498528381 11.291433494301673
    vertex 255.96440292465056 559.6570403228363 10.791433487056517
    vertex 256.0143531359028 559.5364498453876 10.791433488666536
  endloop
endfacet
facet normal -0.7040625915952611 -0.09269161604952739 -0.7040625905630065
  outer loop
    vertex 255.9473658377951 559.7864498453876 10.791433485235032
    vertex 255.48144001150604 559.5276308077356 11.291433491042039
    vertex 255.4473658377951 559.7864498528384 11.291433483953506
  endloop
endfacet
facet normal -0.7040625915952611 -0.09269161604952739 -0.7040625905630065
  outer loop
    vertex 255.48144001150604 559.5276308077356 11.291433491042039
    vertex 255.9473658377951 559.7864498453876 10.791433485235032
    vertex 255.96440292465056 559.6570403228363 10.791433487056517
  endloop
endfacet
facet normal 4.658267585225559e-11 -1.0 1.4236107355390228e-08
  outer loop
    vertex 256.44736583779513 558.7864498528381 11.291433498854685
    vertex 263.44736584066936 558.7864498601374 11.781262473684235
    vertex 256.4473658384285 558.7864498594856 11.781262498425408
  endloop
endfacet
facet normal 4.658267585225559e-11 -1.0 1.4236107355390228e-08
  outer loop
    vertex 263.44736584066936 558.7864498601374 11.781262473684235
    vertex 256.44736583779513 558.7864498528381 11.291433498854685
    vertex 263.44736583735755 558.7864498528385 11.291433472088029
  endloop
endfacet
facet normal -0.9238795325113017 0.382683432365054 -1.7257309440784658e-09
  outer loop
    vertex 255.5813404331266 570.2859885142975 11.291433327277867
    vertex 255.48144001287923 570.0448075671515 11.801908136768622
    vertex 255.58134043548583 570.2859885222952 11.801908132718971
  endloop
endfacet
facet normal -0.9238795325113017 0.382683432365054 -1.7257309440784658e-09
  outer loop
    vertex 255.48144001287923 570.0448075671515 11.801908136768622
    vertex 255.5813404331266 570.2859885142975 11.291433327277867
    vertex 255.48144001051998 570.0448075591538 11.291433331327518
  endloop
endfacet
facet normal -0.38268343236512126 0.9238795325112736 -1.270595410077878e-08
  outer loop
    vertex 256.1885467947876 570.7519143490598 11.80190812332445
    vertex 255.9473658372847 570.6520139184555 11.291433320318651
    vertex 255.9473658396439 570.6520139264532 11.801908125759752
  endloop
endfacet
facet normal -0.38268343236512126 0.9238795325112736 -1.270595410077878e-08
  outer loop
    vertex 255.9473658372847 570.6520139184555 11.291433320318651
    vertex 256.1885467947876 570.7519143490598 11.80190812332445
    vertex 256.1885467924284 570.7519143410622 11.291433317883346
  endloop
endfacet
facet normal 0.7933533402911987 -0.6087614290087682 3.7073350516015398e-09
  outer loop
    vertex 264.1544726218559 559.0793430789507 11.781262466953915
    vertex 264.313391241142 559.2864498528382 11.291433461739858
    vertex 264.31339124445384 559.2864498601373 11.781262463336066
  endloop
endfacet
facet normal 0.7933533402911987 -0.6087614290087682 3.7073350516015398e-09
  outer loop
    vertex 264.313391241142 559.2864498528382 11.291433461739858
    vertex 264.1544726218559 559.0793430789507 11.781262466953915
    vertex 264.1544726185441 559.0793430716517 11.291433465357708
  endloop
endfacet
facet normal 0.9914448613738086 -0.1305261922200665 -4.75829373847407e-09
  outer loop
    vertex 264.41329166695846 559.5276308150349 11.781262459407932
    vertex 264.4473658373576 559.7864498528384 11.29143345384101
    vertex 264.44736584066936 559.7864498601374 11.781262455437217
  endloop
endfacet
facet normal 0.9914448613738086 -0.1305261922200665 -4.75829373847407e-09
  outer loop
    vertex 264.4473658373576 559.7864498528384 11.29143345384101
    vertex 264.41329166695846 559.5276308150349 11.781262459407932
    vertex 264.41329166364665 559.5276308077358 11.291433457811724
  endloop
endfacet
facet normal 0.13052619221947181 -0.9914448613738867 1.389117353635464e-08
  outer loop
    vertex 263.44736583735755 558.7864498528385 11.291433472088029
    vertex 263.7061848857719 558.8205240338483 11.781262472310521
    vertex 263.44736584066936 558.7864498601374 11.781262473684235
  endloop
endfacet
facet normal 0.13052619221947181 -0.9914448613738867 1.389117353635464e-08
  outer loop
    vertex 263.7061848857719 558.8205240338483 11.781262472310521
    vertex 263.44736583735755 558.7864498528385 11.291433472088029
    vertex 263.7061848824601 558.8205240265492 11.291433470714313
  endloop
endfacet
facet normal 0.608761429008787 -0.7933533402911842 7.70596450738586e-09
  outer loop
    vertex 263.94736583735755 558.9204244490538 11.29143346841873
    vertex 264.1544726218559 559.0793430789507 11.781262466953915
    vertex 263.94736584066936 558.9204244563529 11.781262470014935
  endloop
endfacet
facet normal 0.608761429008787 -0.7933533402911842 7.70596450738586e-09
  outer loop
    vertex 264.1544726218559 559.0793430789507 11.781262466953915
    vertex 263.94736583735755 558.9204244490538 11.29143346841873
    vertex 264.1544726185441 559.0793430716517 11.291433465357708
  endloop
endfacet
facet normal 0.92387953251132 -0.38268343236500973 -5.440162608249677e-10
  outer loop
    vertex 264.31339124445384 559.2864498601373 11.781262463336066
    vertex 264.41329166364665 559.5276308077358 11.291433457811724
    vertex 264.41329166695846 559.5276308150349 11.781262459407932
  endloop
endfacet
facet normal 0.92387953251132 -0.38268343236500973 -5.440162608249677e-10
  outer loop
    vertex 264.41329166364665 559.5276308077358 11.291433457811724
    vertex 264.31339124445384 559.2864498601373 11.781262463336066
    vertex 264.313391241142 559.2864498528382 11.291433461739858
  endloop
endfacet
facet normal 0.3826834323649969 -0.9238795325113252 1.1179501300648296e-08
  outer loop
    vertex 263.7061848824601 558.8205240265492 11.291433470714313
    vertex 263.94736584066936 558.9204244563529 11.781262470014935
    vertex 263.7061848857719 558.8205240338483 11.781262472310521
  endloop
endfacet
facet normal 0.3826834323649969 -0.9238795325113252 1.1179501300648296e-08
  outer loop
    vertex 263.94736584066936 558.9204244563529 11.781262470014935
    vertex 263.7061848824601 558.8205240265492 11.291433470714313
    vertex 263.94736583735755 558.9204244490538 11.29143346841873
  endloop
endfacet
facet normal 2.33216006769193e-10 1.0 -1.4468992656603191e-08
  outer loop
    vertex 263.44736583687455 570.7859885205615 11.801908095238923
    vertex 256.44736583779513 570.7859885148081 11.291433316701543
    vertex 256.4473658401543 570.7859885228057 11.801908122142644
  endloop
endfacet
facet normal 2.33216006769193e-10 1.0 -1.4468992656603191e-08
  outer loop
    vertex 256.44736583779513 570.7859885148081 11.291433316701543
    vertex 263.44736583687455 570.7859885205615 11.801908095238923
    vertex 263.4473658373574 570.7859885137872 11.291433289797821
  endloop
endfacet
facet normal 1.0 -1.1142394298360242e-10 -3.3834570262798876e-09
  outer loop
    vertex 264.44736584995053 568.7829015355647 14.799999742893418
    vertex 264.4473658477528 568.7829015132413 13.301908138267255
    vertex 264.4473658503073 569.2159142263095 14.05190813181486
  endloop
endfacet
facet normal 1.0 -1.1142394298360242e-10 -3.3834570262798876e-09
  outer loop
    vertex 264.4473658477528 568.7829015132413 13.301908138267255
    vertex 264.44736584995053 568.7829015355647 14.799999742893418
    vertex 264.4473658479782 567.7922743874818 14.79781678124203
  endloop
endfacet
facet normal 1.0 -1.1142394298360242e-10 -3.3834570262798876e-09
  outer loop
    vertex 264.44736584532944 560.368639202184 14.030503790386328
    vertex 264.44736584324653 560.8016518929007 13.280503783933908
    vertex 264.44736584557234 560.8016519152809 14.782412179307768
  endloop
endfacet
facet normal 1.0 -1.1142394298360242e-10 -3.3834570262798876e-09
  outer loop
    vertex 264.4473658368747 569.785988520562 11.801908110277166
    vertex 264.4473658373576 559.7864498528384 11.29143345384101
    vertex 264.44736583735755 569.7859885137876 11.291433304836065
  endloop
endfacet
facet normal 1.0 -1.1142394298360242e-10 -3.3834570262798876e-09
  outer loop
    vertex 264.4473658373576 559.7864498528384 11.29143345384101
    vertex 264.4473658368747 569.785988520562 11.801908110277166
    vertex 264.44736583561007 569.6489268275169 11.801908112766915
  endloop
endfacet
facet normal 1.0 -1.1142394298360242e-10 -3.3834570262798876e-09
  outer loop
    vertex 264.4473658373576 559.7864498528384 11.29143345384101
    vertex 264.44736583561007 569.6489268275169 11.801908112766915
    vertex 264.4473658383131 566.7922767855545 12.79120592585726
  endloop
endfacet
facet normal 1.0 -1.1142394298360242e-10 -3.3834570262798876e-09
  outer loop
    vertex 264.4473658383131 566.7922767855545 12.79120592585726
    vertex 264.44736583561007 569.6489268275169 11.801908112766915
    vertex 264.4473658477528 568.7829015132413 13.301908138267255
  endloop
endfacet
facet normal 1.0 -1.1142394298360242e-10 -3.3834570262798876e-09
  outer loop
    vertex 264.4473658383131 566.7922767855545 12.79120592585726
    vertex 264.4473658477528 568.7829015132413 13.301908138267255
    vertex 264.4473658479782 567.7922743874818 14.79781678124203
  endloop
endfacet
facet normal 1.0 -1.1142394298360242e-10 -3.3834570262798876e-09
  outer loop
    vertex 264.4473658373576 559.7864498528384 11.29143345384101
    vertex 264.4473658383131 566.7922767855545 12.79120592585726
    vertex 264.4473658383131 562.7922767855545 12.791205985461989
  endloop
endfacet
facet normal 1.0 -1.1142394298360242e-10 -3.3834570262798876e-09
  outer loop
    vertex 264.4473658373576 559.7864498528384 11.29143345384101
    vertex 264.4473658383131 562.7922767855545 12.791205985461989
    vertex 264.4473658463945 561.7878817261812 14.784585439942356
  endloop
endfacet
facet normal 1.0 -1.1142394298360242e-10 -3.3834570262798876e-09
  outer loop
    vertex 264.4473658373576 559.7864498528384 11.29143345384101
    vertex 264.4473658463945 561.7878817261812 14.784585439942356
    vertex 264.44736584324653 560.8016518929007 13.280503783933908
  endloop
endfacet
facet normal 1.0 -1.1142394298360242e-10 -3.3834570262798876e-09
  outer loop
    vertex 264.44736584324653 560.8016518929007 13.280503783933908
    vertex 264.4473658463945 561.7878817261812 14.784585439942356
    vertex 264.44736584557234 560.8016519152809 14.782412179307768
  endloop
endfacet
facet normal 1.0 -1.1142394298360242e-10 -3.3834570262798876e-09
  outer loop
    vertex 264.4473658373576 559.7864498528384 11.29143345384101
    vertex 264.44736584324653 560.8016518929007 13.280503783933908
    vertex 264.44736583783435 559.9356267120144 11.78050380954788
  endloop
endfacet
facet normal 1.0 -1.1142394298360242e-10 -3.3834570262798876e-09
  outer loop
    vertex 264.4473658373576 559.7864498528384 11.29143345384101
    vertex 264.44736583783435 559.9356267120144 11.78050380954788
    vertex 264.44736584066936 559.7864498601374 11.781262455437217
  endloop
endfacet
facet normal -0.6087614290089166 -0.7933533402910848 1.1553931917887865e-08
  outer loop
    vertex 255.74025905660855 559.0793430716516 11.291433496856092
    vertex 255.9473658384285 558.9204244557012 11.781262498101944
    vertex 255.74025905724199 559.0793430782992 11.78126249642681
  endloop
endfacet
facet normal -0.6087614290089166 -0.7933533402910848 1.1553931917887865e-08
  outer loop
    vertex 255.9473658384285 558.9204244557012 11.781262498101944
    vertex 255.74025905660855 559.0793430716516 11.291433496856092
    vertex 255.9473658377951 558.9204244490536 11.291433498531221
  endloop
endfacet
facet normal -0.3826834323648645 -0.92387953251138 1.3032969859783829e-08
  outer loop
    vertex 255.9473658377951 558.9204244490536 11.291433498531221
    vertex 256.188546793326 558.8205240331966 11.781262498783626
    vertex 255.9473658384285 558.9204244557012 11.781262498101944
  endloop
endfacet
facet normal -0.3826834323648645 -0.92387953251138 1.3032969859783829e-08
  outer loop
    vertex 256.188546793326 558.8205240331966 11.781262498783626
    vertex 255.9473658377951 558.9204244490536 11.291433498531221
    vertex 256.1885467926926 558.820524026549 11.291433499212904
  endloop
endfacet
facet normal -0.7933533402912197 -0.6087614290087409 9.287512635042898e-09
  outer loop
    vertex 255.74025905660855 559.0793430716516 11.291433496856092
    vertex 255.58134043464412 559.2864498594857 11.781262493872392
    vertex 255.58134043401068 559.2864498528381 11.291433494301673
  endloop
endfacet
facet normal -0.7933533402912197 -0.6087614290087409 9.287512635042898e-09
  outer loop
    vertex 255.58134043464412 559.2864498594857 11.781262493872392
    vertex 255.74025905660855 559.0793430716516 11.291433496856092
    vertex 255.74025905724199 559.0793430782992 11.78126249642681
  endloop
endfacet
facet normal -0.991444861373826 -0.13052619221993442 3.053473888342608e-09
  outer loop
    vertex 255.48144001150604 559.5276308077356 11.291433491042039
    vertex 255.44736583842854 559.7864498594859 11.781262483524227
    vertex 255.4473658377951 559.7864498528384 11.291433483953506
  endloop
endfacet
facet normal -0.991444861373826 -0.13052619221993442 3.053473888342608e-09
  outer loop
    vertex 255.44736583842854 559.7864498594859 11.781262483524227
    vertex 255.48144001150604 559.5276308077356 11.291433491042039
    vertex 255.48144001213947 559.5276308143831 11.78126249061276
  endloop
endfacet
facet normal -0.9238795325112541 -0.3826834323651686 6.388164689722966e-09
  outer loop
    vertex 255.58134043401068 559.2864498528381 11.291433494301673
    vertex 255.48144001213947 559.5276308143831 11.78126249061276
    vertex 255.48144001150604 559.5276308077356 11.291433491042039
  endloop
endfacet
facet normal -0.9238795325112541 -0.3826834323651686 6.388164689722966e-09
  outer loop
    vertex 255.48144001213947 559.5276308143831 11.78126249061276
    vertex 255.58134043401068 559.2864498528381 11.291433494301673
    vertex 255.58134043464412 559.2864498594857 11.781262493872392
  endloop
endfacet
facet normal -0.13052619222032677 -0.9914448613737741 1.3623832431461285e-08
  outer loop
    vertex 256.1885467926926 558.820524026549 11.291433499212904
    vertex 256.4473658384285 558.7864498594856 11.781262498425408
    vertex 256.188546793326 558.8205240331966 11.781262498783626
  endloop
endfacet
facet normal -0.13052619222032677 -0.9914448613737741 1.3623832431461285e-08
  outer loop
    vertex 256.4473658384285 558.7864498594856 11.781262498425408
    vertex 256.1885467926926 558.820524026549 11.291433499212904
    vertex 256.44736583779513 558.7864498528381 11.291433498854685
  endloop
endfacet
facet normal -1.0 1.7473028409285874e-10 3.222477574339966e-09
  outer loop
    vertex 255.44736584995053 568.7829015367126 14.799999773005908
    vertex 255.44736585030728 569.2159142274573 14.051908161927347
    vertex 255.44736584775276 568.7829015143892 13.301908168379748
  endloop
endfacet
facet normal -1.0 1.7473028409285874e-10 3.222477574339966e-09
  outer loop
    vertex 255.44736583677428 569.7859885137871 11.291433335395924
    vertex 255.44736583561001 569.6489268286648 11.801908142879409
    vertex 255.44736583913348 569.7859885217847 11.801908140837028
  endloop
endfacet
facet normal -1.0 1.7473028409285874e-10 3.222477574339966e-09
  outer loop
    vertex 255.44736583561001 569.6489268286648 11.801908142879409
    vertex 255.44736583677428 569.7859885137871 11.291433335395924
    vertex 255.4473658377951 559.7864498528384 11.291433483953506
  endloop
endfacet
facet normal -1.0 1.7473028409285874e-10 3.222477574339966e-09
  outer loop
    vertex 255.44736583561001 569.6489268286648 11.801908142879409
    vertex 255.4473658377951 559.7864498528384 11.291433483953506
    vertex 255.44736583672218 566.7922767858145 12.79120596146752
  endloop
endfacet
facet normal -1.0 1.7473028409285874e-10 3.222477574339966e-09
  outer loop
    vertex 255.44736583561001 569.6489268286648 11.801908142879409
    vertex 255.44736583672218 566.7922767858145 12.79120596146752
    vertex 255.44736584775276 568.7829015143892 13.301908168379748
  endloop
endfacet
facet normal -1.0 1.7473028409285874e-10 3.222477574339966e-09
  outer loop
    vertex 255.44736584775276 568.7829015143892 13.301908168379748
    vertex 255.44736583672218 566.7922767858145 12.79120596146752
    vertex 255.44736584995053 568.7829015367126 14.799999773005908
  endloop
endfacet
facet normal -1.0 1.7473028409285874e-10 3.222477574339966e-09
  outer loop
    vertex 255.44736584995053 568.7829015367126 14.799999773005908
    vertex 255.44736583672218 566.7922767858145 12.79120596146752
    vertex 255.44736584638727 567.7922743877418 14.79781681685229
  endloop
endfacet
facet normal -1.0 1.7473028409285874e-10 3.222477574339966e-09
  outer loop
    vertex 255.44736583672218 566.7922767858145 12.79120596146752
    vertex 255.4473658377951 559.7864498528384 11.291433483953506
    vertex 255.44736583672218 562.7922767858145 12.79120602107225
  endloop
endfacet
facet normal -1.0 1.7473028409285874e-10 3.222477574339966e-09
  outer loop
    vertex 255.44736583672218 562.7922767858145 12.79120602107225
    vertex 255.4473658377951 559.7864498528384 11.291433483953506
    vertex 255.44736584480367 561.7878817264414 14.784585475552618
  endloop
endfacet
facet normal -1.0 1.7473028409285874e-10 3.222477574339966e-09
  outer loop
    vertex 255.44736584480367 561.7878817264414 14.784585475552618
    vertex 255.4473658377951 559.7864498528384 11.291433483953506
    vertex 255.44736584324653 560.8016518940487 13.280503814046401
  endloop
endfacet
facet normal -1.0 1.7473028409285874e-10 3.222477574339966e-09
  outer loop
    vertex 255.44736584324653 560.8016518940487 13.280503814046401
    vertex 255.4473658377951 559.7864498528384 11.291433483953506
    vertex 255.44736583783433 559.9356267131624 11.780503839660375
  endloop
endfacet
facet normal -1.0 1.7473028409285874e-10 3.222477574339966e-09
  outer loop
    vertex 255.44736583783433 559.9356267131624 11.780503839660375
    vertex 255.4473658377951 559.7864498528384 11.291433483953506
    vertex 255.44736583842854 559.7864498594859 11.781262483524227
  endloop
endfacet
facet normal -1.0 1.7473028409285874e-10 3.222477574339966e-09
  outer loop
    vertex 255.44736584324653 560.8016518940487 13.280503814046401
    vertex 255.4473658455723 560.8016519164289 14.782412209420261
    vertex 255.44736584480367 561.7878817264414 14.784585475552618
  endloop
endfacet
facet normal -1.0 1.7473028409285874e-10 3.222477574339966e-09
  outer loop
    vertex 255.4473658455723 560.8016519164289 14.782412209420261
    vertex 255.44736584324653 560.8016518940487 13.280503814046401
    vertex 255.4473658453294 560.368639203332 14.030503820498822
  endloop
endfacet
facet normal -0.793353340291215 0.608761429008747 -5.870978036675306e-09
  outer loop
    vertex 255.7402590558867 570.4930952956954 11.291433323522948
    vertex 255.58134043548583 570.2859885222952 11.801908132718971
    vertex 255.74025905824595 570.4930953036932 11.80190812896405
  endloop
endfacet
facet normal -0.793353340291215 0.608761429008747 -5.870978036675306e-09
  outer loop
    vertex 255.58134043548583 570.2859885222952 11.801908132718971
    vertex 255.7402590558867 570.4930952956954 11.291433323522948
    vertex 255.5813404331266 570.2859885142975 11.291433327277867
  endloop
endfacet
facet normal 0.1305261922196472 0.9914448613738636 -1.3033831370406413e-08
  outer loop
    vertex 263.7061848819771 570.7519143468508 11.801908094785599
    vertex 263.4473658373574 570.7859885137872 11.291433289797821
    vertex 263.44736583687455 570.7859885205615 11.801908095238923
  endloop
endfacet
facet normal 0.1305261922196472 0.9914448613738636 -1.3033831370406413e-08
  outer loop
    vertex 263.4473658373574 570.7859885137872 11.291433289797821
    vertex 263.7061848819771 570.7519143468508 11.801908094785599
    vertex 263.70618488245987 570.7519143400764 11.291433289344493
  endloop
endfacet
facet normal 0.9238795325112082 0.3826834323652792 -4.204727116547744e-09
  outer loop
    vertex 264.3133912406591 570.2859885205618 11.801908099526608
    vertex 264.4132916636466 570.0448075588899 11.291433297339676
    vertex 264.31339124114186 570.2859885137874 11.291433294085504
  endloop
endfacet
facet normal 0.9238795325112082 0.3826834323652792 -4.204727116547744e-09
  outer loop
    vertex 264.4132916636466 570.0448075588899 11.291433297339676
    vertex 264.3133912406591 570.2859885205618 11.801908099526608
    vertex 264.41329166316376 570.0448075656643 11.801908102780784
  endloop
endfacet
facet normal -0.13052619222084938 0.9914448613737054 -1.4929890756518424e-08
  outer loop
    vertex 256.4473658401543 570.7859885228057 11.801908122142644
    vertex 256.1885467924284 570.7519143410622 11.291433317883346
    vertex 256.1885467947876 570.7519143490598 11.80190812332445
  endloop
endfacet
facet normal -0.13052619222084938 0.9914448613737054 -1.4929890756518424e-08
  outer loop
    vertex 256.1885467924284 570.7519143410622 11.291433317883346
    vertex 256.4473658401543 570.7859885228057 11.801908122142644
    vertex 256.44736583779513 570.7859885148081 11.291433316701543
  endloop
endfacet
facet normal 0.9914448613737745 0.1305261922203258 -7.944925545072528e-10
  outer loop
    vertex 264.41329166316376 570.0448075656643 11.801908102780784
    vertex 264.44736583735755 569.7859885137876 11.291433304836065
    vertex 264.4132916636466 570.0448075588899 11.291433297339676
  endloop
endfacet
facet normal 0.9914448613737745 0.1305261922203258 -7.944925545072528e-10
  outer loop
    vertex 264.44736583735755 569.7859885137876 11.291433304836065
    vertex 264.41329166316376 570.0448075656643 11.801908102780784
    vertex 264.4473658368747 569.785988520562 11.801908110277166
  endloop
endfacet
facet normal 0.3826834323648341 0.9238795325113927 -1.1898697159273406e-08
  outer loop
    vertex 263.9473658368746 570.6520139243462 11.801908095387995
    vertex 263.70618488245987 570.7519143400764 11.291433289344493
    vertex 263.7061848819771 570.7519143468508 11.801908094785599
  endloop
endfacet
facet normal 0.3826834323648341 0.9238795325113927 -1.1898697159273406e-08
  outer loop
    vertex 263.70618488245987 570.7519143400764 11.291433289344493
    vertex 263.9473658368746 570.6520139243462 11.801908095387995
    vertex 263.9473658373574 570.6520139175718 11.291433289946893
  endloop
endfacet
facet normal 0.6087614290086574 0.7933533402912837 -9.952686381859086e-09
  outer loop
    vertex 264.15447261806116 570.4930953017483 11.801908097005064
    vertex 263.9473658373574 570.6520139175718 11.291433289946893
    vertex 263.9473658368746 570.6520139243462 11.801908095387995
  endloop
endfacet
facet normal 0.6087614290086574 0.7933533402912837 -9.952686381859086e-09
  outer loop
    vertex 263.9473658373574 570.6520139175718 11.291433289946893
    vertex 264.15447261806116 570.4930953017483 11.801908097005064
    vertex 264.154472618544 570.4930952949738 11.291433291563964
  endloop
endfacet
facet normal -0.6087614290085357 0.793353340291377 -9.616127672304174e-09
  outer loop
    vertex 255.9473658396439 570.6520139264532 11.801908125759752
    vertex 255.7402590558867 570.4930952956954 11.291433323522948
    vertex 255.74025905824595 570.4930953036932 11.80190812896405
  endloop
endfacet
facet normal -0.6087614290085357 0.793353340291377 -9.616127672304174e-09
  outer loop
    vertex 255.7402590558867 570.4930952956954 11.291433323522948
    vertex 255.9473658396439 570.6520139264532 11.801908125759752
    vertex 255.9473658372847 570.6520139184555 11.291433320318651
  endloop
endfacet
facet normal -0.9914448613738132 0.13052619222003128 2.537121855367202e-09
  outer loop
    vertex 255.48144001051998 570.0448075591538 11.291433331327518
    vertex 255.44736583913348 569.7859885217847 11.801908140837028
    vertex 255.48144001287923 570.0448075671515 11.801908136768622
  endloop
endfacet
facet normal -0.9914448613738132 0.13052619222003128 2.537121855367202e-09
  outer loop
    vertex 255.44736583913348 569.7859885217847 11.801908140837028
    vertex 255.48144001051998 570.0448075591538 11.291433331327518
    vertex 255.44736583677428 569.7859885137871 11.291433335395924
  endloop
endfacet
facet normal 0.7933533402911361 0.6087614290088496 -7.328416488188672e-09
  outer loop
    vertex 264.15447261806116 570.4930953017483 11.801908097005064
    vertex 264.31339124114186 570.2859885137874 11.291433294085504
    vertex 264.154472618544 570.4930952949738 11.291433291563964
  endloop
endfacet
facet normal 0.7933533402911361 0.6087614290088496 -7.328416488188672e-09
  outer loop
    vertex 264.31339124114186 570.2859885137874 11.291433294085504
    vertex 264.15447261806116 570.4930953017483 11.801908097005064
    vertex 264.3133912406591 570.2859885205618 11.801908099526608
  endloop
endfacet
endsolid Indexer
