solid Indexer
facet normal 4.039294999829884e-17 7.478815893624268e-17 -1.0
  outer loop
    vertex 55.29955162996361 576.8541231117741 1.250000096233743
    vertex 55.79955162996361 576.3541231117741 1.2500000962337432
    vertex 55.29955162996361 574.5541231117742 1.250000096233743
  endloop
endfacet
facet normal 4.039294999829884e-17 7.478815893624268e-17 -1.0
  outer loop
    vertex 55.79955162996361 576.3541231117741 1.2500000962337432
    vertex 55.29955162996361 576.8541231117741 1.250000096233743
    vertex 59.399551629963604 576.8541231117741 1.2500000962337434
  endloop
endfacet
facet normal 4.039294999829884e-17 7.478815893624268e-17 -1.0
  outer loop
    vertex 55.79955162996361 576.3541231117741 1.2500000962337432
    vertex 59.399551629963604 576.8541231117741 1.2500000962337434
    vertex 57.09955162996361 576.3541231117741 1.2500000962337432
  endloop
endfacet
facet normal 4.039294999829884e-17 7.478815893624268e-17 -1.0
  outer loop
    vertex 57.09955162996361 576.3541231117741 1.2500000962337432
    vertex 59.399551629963604 576.8541231117741 1.2500000962337434
    vertex 57.59955162996361 576.3541231117741 1.2500000962337434
  endloop
endfacet
facet normal 4.039294999829884e-17 7.478815893624268e-17 -1.0
  outer loop
    vertex 57.09955162996361 576.3541231117741 1.2500000962337432
    vertex 57.59955162996361 576.3541231117741 1.2500000962337434
    vertex 57.09955162996361 575.0541231117741 1.2500000962337434
  endloop
endfacet
facet normal 4.039294999829884e-17 7.478815893624268e-17 -1.0
  outer loop
    vertex 57.59955162996361 576.3541231117741 1.2500000962337434
    vertex 59.399551629963604 576.8541231117741 1.2500000962337434
    vertex 58.899551629963604 576.3541231117741 1.2500000962337434
  endloop
endfacet
facet normal 4.039294999829884e-17 7.478815893624268e-17 -1.0
  outer loop
    vertex 58.899551629963604 576.3541231117741 1.2500000962337434
    vertex 59.399551629963604 576.8541231117741 1.2500000962337434
    vertex 58.899551629963604 575.0541231117741 1.2500000962337434
  endloop
endfacet
facet normal 4.039294999829884e-17 7.478815893624268e-17 -1.0
  outer loop
    vertex 55.29955162996361 574.5541231117742 1.250000096233743
    vertex 55.79955162996361 575.0541231117741 1.2500000962337434
    vertex 59.399551629963604 574.5541231117742 1.250000096233743
  endloop
endfacet
facet normal 4.039294999829884e-17 7.478815893624268e-17 -1.0
  outer loop
    vertex 55.79955162996361 575.0541231117741 1.2500000962337434
    vertex 55.29955162996361 574.5541231117742 1.250000096233743
    vertex 55.79955162996361 576.3541231117741 1.2500000962337432
  endloop
endfacet
facet normal 4.039294999829884e-17 7.478815893624268e-17 -1.0
  outer loop
    vertex 59.399551629963604 574.5541231117742 1.250000096233743
    vertex 55.79955162996361 575.0541231117741 1.2500000962337434
    vertex 57.09955162996361 575.0541231117741 1.2500000962337434
  endloop
endfacet
facet normal 4.039294999829884e-17 7.478815893624268e-17 -1.0
  outer loop
    vertex 59.399551629963604 574.5541231117742 1.250000096233743
    vertex 57.09955162996361 575.0541231117741 1.2500000962337434
    vertex 57.59955162996361 575.0541231117741 1.2500000962337434
  endloop
endfacet
facet normal 4.039294999829884e-17 7.478815893624268e-17 -1.0
  outer loop
    vertex 57.59955162996361 575.0541231117741 1.2500000962337434
    vertex 57.09955162996361 575.0541231117741 1.2500000962337434
    vertex 57.59955162996361 576.3541231117741 1.2500000962337434
  endloop
endfacet
facet normal 4.039294999829884e-17 7.478815893624268e-17 -1.0
  outer loop
    vertex 59.399551629963604 574.5541231117742 1.250000096233743
    vertex 57.59955162996361 575.0541231117741 1.2500000962337434
    vertex 58.899551629963604 575.0541231117741 1.2500000962337434
  endloop
endfacet
facet normal 4.039294999829884e-17 7.478815893624268e-17 -1.0
  outer loop
    vertex 59.399551629963604 574.5541231117742 1.250000096233743
    vertex 58.899551629963604 575.0541231117741 1.2500000962337434
    vertex 59.399551629963604 576.8541231117741 1.2500000962337434
  endloop
endfacet
facet normal 5.396299913881446e-35 -1.0 -7.478815893624267e-17
  outer loop
    vertex 57.09955162996361 576.3541231117741 1.2500000962337432
    vertex 55.79955162996361 576.3541231117741 3.7500000962337436
    vertex 55.79955162996361 576.3541231117741 1.2500000962337432
  endloop
endfacet
facet normal 5.396299913881446e-35 -1.0 -7.478815893624267e-17
  outer loop
    vertex 55.79955162996361 576.3541231117741 3.7500000962337436
    vertex 57.09955162996361 576.3541231117741 1.2500000962337432
    vertex 57.09955162996361 576.3541231117741 3.7500000962337436
  endloop
endfacet
facet normal -5.396299913881446e-35 1.0 7.478815893624267e-17
  outer loop
    vertex 55.79955162996361 575.0541231117741 3.7500000962337436
    vertex 57.09955162996361 575.0541231117741 1.2500000962337434
    vertex 55.79955162996361 575.0541231117741 1.2500000962337434
  endloop
endfacet
facet normal -5.396299913881446e-35 1.0 7.478815893624267e-17
  outer loop
    vertex 57.09955162996361 575.0541231117741 1.2500000962337434
    vertex 55.79955162996361 575.0541231117741 3.7500000962337436
    vertex 57.09955162996361 575.0541231117741 3.7500000962337436
  endloop
endfacet
facet normal -1.0 0.0 -4.0392949998298847e-17
  outer loop
    vertex 55.29955162996361 576.8541231117741 3.7500000962337428
    vertex 55.29955162996361 574.5541231117742 1.250000096233743
    vertex 55.29955162996361 574.5541231117742 3.7500000962337428
  endloop
endfacet
facet normal -1.0 0.0 -4.0392949998298847e-17
  outer loop
    vertex 55.29955162996361 574.5541231117742 1.250000096233743
    vertex 55.29955162996361 576.8541231117741 3.7500000962337428
    vertex 55.29955162996361 576.8541231117741 1.250000096233743
  endloop
endfacet
facet normal -1.0 -3.6315067080129544e-33 -4.0392949998298834e-17
  outer loop
    vertex 57.09955162996361 576.3541231117741 3.7500000962337436
    vertex 57.09955162996361 575.0541231117741 1.2500000962337434
    vertex 57.09955162996361 575.0541231117741 3.7500000962337436
  endloop
endfacet
facet normal -1.0 -3.6315067080129544e-33 -4.0392949998298834e-17
  outer loop
    vertex 57.09955162996361 575.0541231117741 1.2500000962337434
    vertex 57.09955162996361 576.3541231117741 3.7500000962337436
    vertex 57.09955162996361 576.3541231117741 1.2500000962337432
  endloop
endfacet
facet normal 1.0 0.0 4.0392949998298834e-17
  outer loop
    vertex 57.59955162996361 576.3541231117741 1.2500000962337434
    vertex 57.59955162996361 575.0541231117741 3.7500000962337436
    vertex 57.59955162996361 575.0541231117741 1.2500000962337434
  endloop
endfacet
facet normal 1.0 0.0 4.0392949998298834e-17
  outer loop
    vertex 57.59955162996361 575.0541231117741 3.7500000962337436
    vertex 57.59955162996361 576.3541231117741 1.2500000962337434
    vertex 57.59955162996361 576.3541231117741 3.7500000962337436
  endloop
endfacet
facet normal -4.039294999829884e-17 -7.478815893624268e-17 1.0
  outer loop
    vertex 55.29955162996361 574.5541231117742 3.7500000962337428
    vertex 55.79955162996361 575.0541231117741 3.7500000962337436
    vertex 55.29955162996361 576.8541231117741 3.7500000962337428
  endloop
endfacet
facet normal -4.039294999829884e-17 -7.478815893624268e-17 1.0
  outer loop
    vertex 55.79955162996361 575.0541231117741 3.7500000962337436
    vertex 55.29955162996361 574.5541231117742 3.7500000962337428
    vertex 59.399551629963604 574.5541231117742 3.7500000962337428
  endloop
endfacet
facet normal -4.039294999829884e-17 -7.478815893624268e-17 1.0
  outer loop
    vertex 55.79955162996361 575.0541231117741 3.7500000962337436
    vertex 59.399551629963604 574.5541231117742 3.7500000962337428
    vertex 57.09955162996361 575.0541231117741 3.7500000962337436
  endloop
endfacet
facet normal -4.039294999829884e-17 -7.478815893624268e-17 1.0
  outer loop
    vertex 57.09955162996361 575.0541231117741 3.7500000962337436
    vertex 59.399551629963604 574.5541231117742 3.7500000962337428
    vertex 57.59955162996361 575.0541231117741 3.7500000962337436
  endloop
endfacet
facet normal -4.039294999829884e-17 -7.478815893624268e-17 1.0
  outer loop
    vertex 57.09955162996361 575.0541231117741 3.7500000962337436
    vertex 57.59955162996361 575.0541231117741 3.7500000962337436
    vertex 57.09955162996361 576.3541231117741 3.7500000962337436
  endloop
endfacet
facet normal -4.039294999829884e-17 -7.478815893624268e-17 1.0
  outer loop
    vertex 57.59955162996361 575.0541231117741 3.7500000962337436
    vertex 59.399551629963604 574.5541231117742 3.7500000962337428
    vertex 58.899551629963604 575.0541231117741 3.7500000962337436
  endloop
endfacet
facet normal -4.039294999829884e-17 -7.478815893624268e-17 1.0
  outer loop
    vertex 58.899551629963604 575.0541231117741 3.7500000962337436
    vertex 59.399551629963604 574.5541231117742 3.7500000962337428
    vertex 58.899551629963604 576.3541231117741 3.7500000962337436
  endloop
endfacet
facet normal -4.039294999829884e-17 -7.478815893624268e-17 1.0
  outer loop
    vertex 55.29955162996361 576.8541231117741 3.7500000962337428
    vertex 55.79955162996361 576.3541231117741 3.7500000962337436
    vertex 59.399551629963604 576.8541231117741 3.7500000962337436
  endloop
endfacet
facet normal -4.039294999829884e-17 -7.478815893624268e-17 1.0
  outer loop
    vertex 55.79955162996361 576.3541231117741 3.7500000962337436
    vertex 55.29955162996361 576.8541231117741 3.7500000962337428
    vertex 55.79955162996361 575.0541231117741 3.7500000962337436
  endloop
endfacet
facet normal -4.039294999829884e-17 -7.478815893624268e-17 1.0
  outer loop
    vertex 59.399551629963604 576.8541231117741 3.7500000962337436
    vertex 55.79955162996361 576.3541231117741 3.7500000962337436
    vertex 57.09955162996361 576.3541231117741 3.7500000962337436
  endloop
endfacet
facet normal -4.039294999829884e-17 -7.478815893624268e-17 1.0
  outer loop
    vertex 59.399551629963604 576.8541231117741 3.7500000962337436
    vertex 57.09955162996361 576.3541231117741 3.7500000962337436
    vertex 57.59955162996361 576.3541231117741 3.7500000962337436
  endloop
endfacet
facet normal -4.039294999829884e-17 -7.478815893624268e-17 1.0
  outer loop
    vertex 57.59955162996361 576.3541231117741 3.7500000962337436
    vertex 57.09955162996361 576.3541231117741 3.7500000962337436
    vertex 57.59955162996361 575.0541231117741 3.7500000962337436
  endloop
endfacet
facet normal -4.039294999829884e-17 -7.478815893624268e-17 1.0
  outer loop
    vertex 59.399551629963604 576.8541231117741 3.7500000962337436
    vertex 57.59955162996361 576.3541231117741 3.7500000962337436
    vertex 58.899551629963604 576.3541231117741 3.7500000962337436
  endloop
endfacet
facet normal -4.039294999829884e-17 -7.478815893624268e-17 1.0
  outer loop
    vertex 59.399551629963604 576.8541231117741 3.7500000962337436
    vertex 58.899551629963604 576.3541231117741 3.7500000962337436
    vertex 59.399551629963604 574.5541231117742 3.7500000962337428
  endloop
endfacet
facet normal 0.0 -1.0 0.0
  outer loop
    vertex 59.399551629963604 574.5541231117742 1.250000096233743
    vertex 55.29955162996361 574.5541231117742 3.7500000962337428
    vertex 55.29955162996361 574.5541231117742 1.250000096233743
  endloop
endfacet
facet normal 0.0 -1.0 0.0
  outer loop
    vertex 55.29955162996361 574.5541231117742 3.7500000962337428
    vertex 59.399551629963604 574.5541231117742 1.250000096233743
    vertex 59.399551629963604 574.5541231117742 3.7500000962337428
  endloop
endfacet
facet normal 1.0 3.6315067080129544e-33 4.0392949998298834e-17
  outer loop
    vertex 55.79955162996361 576.3541231117741 1.2500000962337432
    vertex 55.79955162996361 575.0541231117741 3.7500000962337436
    vertex 55.79955162996361 575.0541231117741 1.2500000962337434
  endloop
endfacet
facet normal 1.0 3.6315067080129544e-33 4.0392949998298834e-17
  outer loop
    vertex 55.79955162996361 575.0541231117741 3.7500000962337436
    vertex 55.79955162996361 576.3541231117741 1.2500000962337432
    vertex 55.79955162996361 576.3541231117741 3.7500000962337436
  endloop
endfacet
facet normal -6.759618637553518e-33 1.0 7.478815893624268e-17
  outer loop
    vertex 55.29955162996361 576.8541231117741 3.7500000962337428
    vertex 59.399551629963604 576.8541231117741 1.2500000962337434
    vertex 55.29955162996361 576.8541231117741 1.250000096233743
  endloop
endfacet
facet normal -6.759618637553518e-33 1.0 7.478815893624268e-17
  outer loop
    vertex 59.399551629963604 576.8541231117741 1.2500000962337434
    vertex 55.29955162996361 576.8541231117741 3.7500000962337428
    vertex 59.399551629963604 576.8541231117741 3.7500000962337436
  endloop
endfacet
facet normal -1.0 0.0 -4.0392949998298834e-17
  outer loop
    vertex 58.899551629963604 576.3541231117741 3.7500000962337436
    vertex 58.899551629963604 575.0541231117741 1.2500000962337434
    vertex 58.899551629963604 575.0541231117741 3.7500000962337436
  endloop
endfacet
facet normal -1.0 0.0 -4.0392949998298834e-17
  outer loop
    vertex 58.899551629963604 575.0541231117741 1.2500000962337434
    vertex 58.899551629963604 576.3541231117741 3.7500000962337436
    vertex 58.899551629963604 576.3541231117741 1.2500000962337434
  endloop
endfacet
facet normal 0.0 1.0 7.478815893624267e-17
  outer loop
    vertex 57.59955162996361 575.0541231117741 3.7500000962337436
    vertex 58.899551629963604 575.0541231117741 1.2500000962337434
    vertex 57.59955162996361 575.0541231117741 1.2500000962337434
  endloop
endfacet
facet normal 0.0 1.0 7.478815893624267e-17
  outer loop
    vertex 58.899551629963604 575.0541231117741 1.2500000962337434
    vertex 57.59955162996361 575.0541231117741 3.7500000962337436
    vertex 58.899551629963604 575.0541231117741 3.7500000962337436
  endloop
endfacet
facet normal 1.0 -6.471975291274646e-33 4.0392949998298847e-17
  outer loop
    vertex 59.399551629963604 576.8541231117741 1.2500000962337434
    vertex 59.399551629963604 574.5541231117742 3.7500000962337428
    vertex 59.399551629963604 574.5541231117742 1.250000096233743
  endloop
endfacet
facet normal 1.0 -6.471975291274646e-33 4.0392949998298847e-17
  outer loop
    vertex 59.399551629963604 574.5541231117742 3.7500000962337428
    vertex 59.399551629963604 576.8541231117741 1.2500000962337434
    vertex 59.399551629963604 576.8541231117741 3.7500000962337436
  endloop
endfacet
facet normal -0.0 -1.0 -7.478815893624267e-17
  outer loop
    vertex 58.899551629963604 576.3541231117741 1.2500000962337434
    vertex 57.59955162996361 576.3541231117741 3.7500000962337436
    vertex 57.59955162996361 576.3541231117741 1.2500000962337434
  endloop
endfacet
facet normal -0.0 -1.0 -7.478815893624267e-17
  outer loop
    vertex 57.59955162996361 576.3541231117741 3.7500000962337436
    vertex 58.899551629963604 576.3541231117741 1.2500000962337434
    vertex 58.899551629963604 576.3541231117741 3.7500000962337436
  endloop
endfacet
endsolid Indexer
