solid Indexer
facet normal -1.0 -5.365042577679609e-09 -1.5409890080370753e-08
  outer loop
    vertex 61.45420717481697 598.4182451936657 6.249993096678504
    vertex 61.45420717965752 601.8182451933609 4.752143586113137
    vertex 61.45420718236683 598.4182451933609 4.752143586113137
  endloop
endfacet
facet normal -1.0 -5.365042577679609e-09 -1.5409890080370753e-08
  outer loop
    vertex 61.45420717965752 601.8182451933609 4.752143586113137
    vertex 61.45420717481697 598.4182451936657 6.249993096678504
    vertex 61.45420714104399 601.8182451933609 6.249993120830909
  endloop
endfacet
facet normal -1.0 -7.656968639533369e-09 -1.5801099501253778e-08
  outer loop
    vertex 61.454207188453886 598.4182451933608 1.2500078792941602
    vertex 61.45420714102173 601.8182451933609 1.750006068905928
    vertex 61.454207141042374 602.3182451933608 1.250006068905931
  endloop
endfacet
facet normal -1.0 -7.656968639533369e-09 -1.5801099501253778e-08
  outer loop
    vertex 61.45420714102173 601.8182451933609 1.750006068905928
    vertex 61.454207188453886 598.4182451933608 1.2500078792941602
    vertex 61.45420714368958 598.4182451933609 2.75214358611314
  endloop
endfacet
facet normal -1.0 -7.656968639533369e-09 -1.5801099501253778e-08
  outer loop
    vertex 61.45420714102173 601.8182451933609 1.750006068905928
    vertex 61.45420714368958 598.4182451933609 2.75214358611314
    vertex 61.45420714098036 601.8182451933609 2.75214358611314
  endloop
endfacet
facet normal -1.0 -1.9650459943106773e-09 -3.164837103497938e-09
  outer loop
    vertex 60.954207154752446 598.9182451933609 4.25214358593747
    vertex 60.954207152218636 601.8182451933609 3.2521435861133114
    vertex 60.954207161082444 598.9182451933609 3.2521435838273476
  endloop
endfacet
facet normal -1.0 -1.9650459943106773e-09 -3.164837103497938e-09
  outer loop
    vertex 60.954207152218636 601.8182451933609 3.2521435861133114
    vertex 60.954207154752446 598.9182451933609 4.25214358593747
    vertex 60.954207152218984 601.8182451933609 4.252143586113309
  endloop
endfacet
facet normal -0.7071067619355336 -6.043733348034759e-10 0.7071068004375611
  outer loop
    vertex 61.45420717965752 601.8182451933609 4.752143586113137
    vertex 60.954207154752446 598.9182451933609 4.25214358593747
    vertex 61.45420718236683 598.4182451933609 4.752143586113137
  endloop
endfacet
facet normal -0.7071067619355336 -6.043733348034759e-10 0.7071068004375611
  outer loop
    vertex 60.954207154752446 598.9182451933609 4.25214358593747
    vertex 61.45420717965752 601.8182451933609 4.752143586113137
    vertex 60.954207152218984 601.8182451933609 4.252143586113309
  endloop
endfacet
facet normal -0.7071067907515052 -1.0016025103310277e-09 -0.7071067716215899
  outer loop
    vertex 60.954207161082444 598.9182451933609 3.2521435838273476
    vertex 61.45420714098036 601.8182451933609 2.75214358611314
    vertex 61.45420714368958 598.4182451933609 2.75214358611314
  endloop
endfacet
facet normal -0.7071067907515052 -1.0016025103310277e-09 -0.7071067716215899
  outer loop
    vertex 61.45420714098036 601.8182451933609 2.75214358611314
    vertex 60.954207161082444 598.9182451933609 3.2521435838273476
    vertex 60.954207152218636 601.8182451933609 3.2521435861133114
  endloop
endfacet
facet normal -0.7071067775726458 -0.7071067848004492 1.0044408065345453e-08
  outer loop
    vertex 60.954207154752446 598.9182451933609 4.25214358593747
    vertex 61.45420714368958 598.4182451933609 2.75214358611314
    vertex 61.45420718236683 598.4182451933609 4.752143586113137
  endloop
endfacet
facet normal -0.7071067775726458 -0.7071067848004492 1.0044408065345453e-08
  outer loop
    vertex 61.45420714368958 598.4182451933609 2.75214358611314
    vertex 60.954207154752446 598.9182451933609 4.25214358593747
    vertex 60.954207161082444 598.9182451933609 3.2521435838273476
  endloop
endfacet
facet normal 0.196116147910494 -0.9805806731364581 5.055739346809863e-09
  outer loop
    vertex 61.45420714104399 601.8182451933609 6.249993120830909
    vertex 60.45420717965752 601.6182451798146 4.752143586113478
    vertex 61.45420717965752 601.8182451933609 4.752143586113137
  endloop
endfacet
facet normal 0.196116147910494 -0.9805806731364581 5.055739346809863e-09
  outer loop
    vertex 60.45420717965752 601.6182451798146 4.752143586113478
    vertex 61.45420714104399 601.8182451933609 6.249993120830909
    vertex 60.454207141043995 601.6182451798146 6.24999312083125
  endloop
endfacet
facet normal 4.2365018302002273e-07 -0.7071077979497877 -0.7071057644217185
  outer loop
    vertex 60.45420714102176 601.6182451798146 1.750006068906273
    vertex 58.05420714104231 602.1182451473037 1.2500032255792344
    vertex 60.4542071410424 602.1182451798146 1.2500060689062737
  endloop
endfacet
facet normal 4.2365018302002273e-07 -0.7071077979497877 -0.7071057644217185
  outer loop
    vertex 58.05420714104231 602.1182451473037 1.2500032255792344
    vertex 60.45420714102176 601.6182451798146 1.750006068906273
    vertex 58.054206978487784 601.6182451798146 1.7500060689070993
  endloop
endfacet
facet normal 0.1961161479104983 -0.9805806731364572 -6.636257528086455e-14
  outer loop
    vertex 59.95420715221901 601.6182451798146 4.25214358611365
    vertex 60.954207152218636 601.8182451933609 3.2521435861133114
    vertex 60.954207152218984 601.8182451933609 4.252143586113309
  endloop
endfacet
facet normal 0.1961161479104983 -0.9805806731364572 -6.636257528086455e-14
  outer loop
    vertex 60.954207152218636 601.8182451933609 3.2521435861133114
    vertex 59.95420715221901 601.6182451798146 4.25214358611365
    vertex 59.954207152218665 601.6182451798146 3.2521435861136525
  endloop
endfacet
facet normal 0.1924501014080106 -0.962250441865889 -0.19245011196917386
  outer loop
    vertex 60.45420717965752 601.6182451798146 4.752143586113478
    vertex 60.954207152218984 601.8182451933609 4.252143586113309
    vertex 61.45420717965752 601.8182451933609 4.752143586113137
  endloop
endfacet
facet normal 0.1924501014080106 -0.962250441865889 -0.19245011196917386
  outer loop
    vertex 60.954207152218984 601.8182451933609 4.252143586113309
    vertex 60.45420717965752 601.6182451798146 4.752143586113478
    vertex 59.95420715221901 601.6182451798146 4.25214358611365
  endloop
endfacet
facet normal 0.19611614791049833 -0.9805806731364572 8.096772721876909e-12
  outer loop
    vertex 61.45420714098036 601.8182451933609 2.75214358611314
    vertex 60.45420714102176 601.6182451798146 1.750006068906273
    vertex 61.45420714102173 601.8182451933609 1.750006068905928
  endloop
endfacet
facet normal 0.19611614791049833 -0.9805806731364572 8.096772721876909e-12
  outer loop
    vertex 60.45420714102176 601.6182451798146 1.750006068906273
    vertex 61.45420714098036 601.8182451933609 2.75214358611314
    vertex 60.45420714098039 601.6182451798146 2.7521435861134815
  endloop
endfacet
facet normal 0.19245010195949913 -0.9622504446226638 0.19245009763381343
  outer loop
    vertex 60.954207152218636 601.8182451933609 3.2521435861133114
    vertex 60.45420714098039 601.6182451798146 2.7521435861134815
    vertex 61.45420714098036 601.8182451933609 2.75214358611314
  endloop
endfacet
facet normal 0.19245010195949913 -0.9622504446226638 0.19245009763381343
  outer loop
    vertex 60.45420714098039 601.6182451798146 2.7521435861134815
    vertex 60.954207152218636 601.8182451933609 3.2521435861133114
    vertex 59.954207152218665 601.6182451798146 3.2521435861136525
  endloop
endfacet
facet normal 1.0 8.3084063515915e-09 4.5011616921726565e-09
  outer loop
    vertex 57.054207141042454 601.8182451337577 1.7500060689074437
    vertex 57.05420719031652 598.4182451337578 1.250005571365067
    vertex 57.0542071410423 602.3182451337577 1.2500032255795808
  endloop
endfacet
facet normal 1.0 8.3084063515915e-09 4.5011616921726565e-09
  outer loop
    vertex 57.05420719031652 598.4182451337578 1.250005571365067
    vertex 57.054207141042454 601.8182451337577 1.7500060689074437
    vertex 57.05420714375322 598.4182451337578 6.249993120832421
  endloop
endfacet
facet normal 1.0 8.3084063515915e-09 4.5011616921726565e-09
  outer loop
    vertex 57.05420714375322 598.4182451337578 6.249993120832421
    vertex 57.054207141042454 601.8182451337577 1.7500060689074437
    vertex 57.05420714104391 601.8182451337577 6.249993120832421
  endloop
endfacet
facet normal -0.19611612236612708 -0.9805806782453315 6.32687993055476e-14
  outer loop
    vertex 57.05420714104391 601.8182451337577 6.249993120832421
    vertex 58.054206978487784 601.6182451798146 1.7500060689070993
    vertex 58.054207141043904 601.6182451473038 6.249993120832071
  endloop
endfacet
facet normal -0.19611612236612708 -0.9805806782453315 6.32687993055476e-14
  outer loop
    vertex 58.054206978487784 601.6182451798146 1.7500060689070993
    vertex 57.05420714104391 601.8182451337577 6.249993120832421
    vertex 57.054207141042454 601.8182451337577 1.7500060689074437
  endloop
endfacet
facet normal 6.77316557802442e-09 -1.0 -3.234788233997396e-09
  outer loop
    vertex 60.454207141043995 601.6182451798146 6.24999312083125
    vertex 59.95420715221901 601.6182451798146 4.25214358611365
    vertex 60.45420717965752 601.6182451798146 4.752143586113478
  endloop
endfacet
facet normal 6.77316557802442e-09 -1.0 -3.234788233997396e-09
  outer loop
    vertex 59.95420715221901 601.6182451798146 4.25214358611365
    vertex 60.454207141043995 601.6182451798146 6.24999312083125
    vertex 58.054207141043904 601.6182451473038 6.249993120832071
  endloop
endfacet
facet normal 6.77316557802442e-09 -1.0 -3.234788233997396e-09
  outer loop
    vertex 59.95420715221901 601.6182451798146 4.25214358611365
    vertex 58.054207141043904 601.6182451473038 6.249993120832071
    vertex 59.954207152218665 601.6182451798146 3.2521435861136525
  endloop
endfacet
facet normal 6.77316557802442e-09 -1.0 -3.234788233997396e-09
  outer loop
    vertex 60.45420714098039 601.6182451798146 2.7521435861134815
    vertex 58.054206978487784 601.6182451798146 1.7500060689070993
    vertex 60.45420714102176 601.6182451798146 1.750006068906273
  endloop
endfacet
facet normal 6.77316557802442e-09 -1.0 -3.234788233997396e-09
  outer loop
    vertex 58.054206978487784 601.6182451798146 1.7500060689070993
    vertex 60.45420714098039 601.6182451798146 2.7521435861134815
    vertex 59.954207152218665 601.6182451798146 3.2521435861136525
  endloop
endfacet
facet normal 6.77316557802442e-09 -1.0 -3.234788233997396e-09
  outer loop
    vertex 58.054206978487784 601.6182451798146 1.7500060689070993
    vertex 59.954207152218665 601.6182451798146 3.2521435861136525
    vertex 58.054207141043904 601.6182451473038 6.249993120832071
  endloop
endfacet
facet normal -0.1400283894419843 -0.7001419946291269 -0.7001380131852805
  outer loop
    vertex 58.054206978487784 601.6182451798146 1.7500060689070993
    vertex 57.0542071410423 602.3182451337577 1.2500032255795808
    vertex 58.05420714104231 602.1182451473037 1.2500032255792344
  endloop
endfacet
facet normal -0.1400283894419843 -0.7001419946291269 -0.7001380131852805
  outer loop
    vertex 57.0542071410423 602.3182451337577 1.2500032255795808
    vertex 58.054206978487784 601.6182451798146 1.7500060689070993
    vertex 57.054207141042454 601.8182451337577 1.7500060689074437
  endloop
endfacet
facet normal 0.14002801770145218 -0.7001400410870456 -0.7001400410812338
  outer loop
    vertex 61.45420714102173 601.8182451933609 1.750006068905928
    vertex 60.4542071410424 602.1182451798146 1.2500060689062737
    vertex 61.454207141042374 602.3182451933608 1.250006068905931
  endloop
endfacet
facet normal 0.14002801770145218 -0.7001400410870456 -0.7001400410812338
  outer loop
    vertex 60.4542071410424 602.1182451798146 1.2500060689062737
    vertex 61.45420714102173 601.8182451933609 1.750006068905928
    vertex 60.45420714102176 601.6182451798146 1.750006068906273
  endloop
endfacet
facet normal -0.7071092663634377 -0.7071042960009079 -1.470167008967105e-07
  outer loop
    vertex 57.05420719031652 598.4182451337578 1.250005571365067
    vertex 55.354219112382054 600.118244733064 1.7500042851582651
    vertex 55.854225564947264 599.6182376566451 1.2500044638001904
  endloop
endfacet
facet normal -0.7071092663634377 -0.7071042960009079 -1.470167008967105e-07
  outer loop
    vertex 55.354219112382054 600.118244733064 1.7500042851582651
    vertex 57.05420719031652 598.4182451337578 1.250005571365067
    vertex 57.05420714375322 598.4182451337578 6.249993120832421
  endloop
endfacet
facet normal -0.7071092663634377 -0.7071042960009079 -1.470167008967105e-07
  outer loop
    vertex 55.354219112382054 600.118244733064 1.7500042851582651
    vertex 57.05420714375322 598.4182451337578 6.249993120832421
    vertex 55.3542191123836 600.118244733064 6.249993120832973
  endloop
endfacet
facet normal -0.9999999999995226 9.056060280000998e-07 -3.673271266277882e-07
  outer loop
    vertex 55.3542191123836 600.118244733064 6.249993120832973
    vertex 55.35422823467061 609.1326241053656 1.750004285158313
    vertex 55.354219112382054 600.118244733064 1.7500042851582651
  endloop
endfacet
facet normal -0.9999999999995226 9.056060280000998e-07 -3.673271266277882e-07
  outer loop
    vertex 55.35422823467061 609.1326241053656 1.750004285158313
    vertex 55.3542191123836 600.118244733064 6.249993120832973
    vertex 55.35422908307049 609.1326241053655 6.249993811936264
  endloop
endfacet
facet normal -0.7071068746184029 -3.2975257038606976e-08 -0.707106687754679
  outer loop
    vertex 55.854225564947264 599.6182376566451 1.2500044638001904
    vertex 55.35422823467061 609.1326241053656 1.750004285158313
    vertex 55.85422556495219 611.9682450629371 1.2499990178397915
  endloop
endfacet
facet normal -0.7071068746184029 -3.2975257038606976e-08 -0.707106687754679
  outer loop
    vertex 55.35422823467061 609.1326241053656 1.750004285158313
    vertex 55.854225564947264 599.6182376566451 1.2500044638001904
    vertex 55.354219112382054 600.118244733064 1.7500042851582651
  endloop
endfacet
facet normal -0.9848077437746606 0.1736482300556455 6.406981760335203e-08
  outer loop
    vertex 55.35422823467061 609.1326241053656 1.750004285158313
    vertex 55.9683172235127 612.6152926853629 1.335178494473798
    vertex 55.85422556495219 611.9682450629371 1.2499990178397915
  endloop
endfacet
facet normal -0.9848077437746606 0.1736482300556455 6.406981760335203e-08
  outer loop
    vertex 55.9683172235127 612.6152926853629 1.335178494473798
    vertex 55.35422823467061 609.1326241053656 1.750004285158313
    vertex 56.07463403261498 613.2182450662214 1.5849296112752074
  endloop
endfacet
facet normal -0.9848077437746606 0.1736482300556455 6.406981760335203e-08
  outer loop
    vertex 56.07463403261498 613.2182450662214 1.5849296112752074
    vertex 55.35422823467061 609.1326241053656 1.750004285158313
    vertex 56.16593035711655 613.7360120205481 1.9822261677697826
  endloop
endfacet
facet normal -0.9848077437746606 0.1736482300556455 6.406981760335203e-08
  outer loop
    vertex 56.16593035711655 613.7360120205481 1.9822261677697826
    vertex 55.35422823467061 609.1326241053656 1.750004285158313
    vertex 55.79946116181816 611.6576622079981 2.5908821291892963
  endloop
endfacet
facet normal -0.9848077437746606 0.1736482300556455 6.406981760335203e-08
  outer loop
    vertex 55.79946116181816 611.6576622079981 2.5908821291892963
    vertex 55.35422823467061 609.1326241053656 1.750004285158313
    vertex 55.74842910534413 611.3682450613607 2.7107626361948762
  endloop
endfacet
facet normal -0.9848077437746606 0.1736482300556455 6.406981760335203e-08
  outer loop
    vertex 55.74842910534413 611.3682450613607 2.7107626361948762
    vertex 55.35422823467061 609.1326241053656 1.750004285158313
    vertex 55.70460688957859 611.1197169232838 2.9014649833124273
  endloop
endfacet
facet normal -0.9848077437746606 0.1736482300556455 6.406981760335203e-08
  outer loop
    vertex 55.70460688957859 611.1197169232838 2.9014649833124273
    vertex 55.35422823467061 609.1326241053656 1.750004285158313
    vertex 55.67098092610642 610.9290145756651 3.1499931207362653
  endloop
endfacet
facet normal -0.9848077437746606 0.1736482300556455 6.406981760335203e-08
  outer loop
    vertex 55.67098092610642 610.9290145756651 3.1499931207362653
    vertex 55.35422823467061 609.1326241053656 1.750004285158313
    vertex 55.35422908307049 609.1326241053655 6.249993811936264
  endloop
endfacet
facet normal -0.9848077437746606 0.1736482300556455 6.406981760335203e-08
  outer loop
    vertex 56.16593035711655 613.7360120205481 1.9822261677697826
    vertex 55.79946116181816 611.6576622079981 2.5908821291892963
    vertex 55.85422530868641 611.9682450629368 2.5499931207362594
  endloop
endfacet
facet normal -0.9848077437746606 0.1736482300556455 6.406981760335203e-08
  outer loop
    vertex 56.16593035711655 613.7360120205481 1.9822261677697826
    vertex 55.85422530868641 611.9682450629368 2.5499931207362594
    vertex 56.23598450197183 614.1333085780866 2.499993120736191
  endloop
endfacet
facet normal -0.9848077437746606 0.1736482300556455 6.406981760335203e-08
  outer loop
    vertex 55.67098092610642 610.9290145756651 3.1499931207362653
    vertex 55.35422908307049 609.1326241053655 6.249993811936264
    vertex 55.649842768768686 610.8091340683447 3.4394102666133426
  endloop
endfacet
facet normal -0.9848077437746606 0.1736482300556455 6.406981760335203e-08
  outer loop
    vertex 55.649842768768686 610.8091340683447 3.4394102666133426
    vertex 55.35422908307049 609.1326241053655 6.249993811936264
    vertex 55.6426329480554 610.7682450597841 3.7499931207363604
  endloop
endfacet
facet normal -0.9848077437746606 0.1736482300556455 6.406981760335203e-08
  outer loop
    vertex 55.6426329480554 610.7682450597841 3.7499931207363604
    vertex 55.35422908307049 609.1326241053655 6.249993811936264
    vertex 55.649842801333534 610.8091340683446 4.060575974859382
  endloop
endfacet
facet normal -0.9848077437746606 0.1736482300556455 6.406981760335203e-08
  outer loop
    vertex 55.649842801333534 610.8091340683446 4.060575974859382
    vertex 55.35422908307049 609.1326241053655 6.249993811936264
    vertex 55.670980989016925 610.9290145756652 4.349993120736378
  endloop
endfacet
facet normal -0.9848077437746606 0.1736482300556455 6.406981760335203e-08
  outer loop
    vertex 55.670980989016925 610.9290145756652 4.349993120736378
    vertex 55.35422908307049 609.1326241053655 6.249993811936264
    vertex 55.704606978547474 611.1197169232837 4.598521258160211
  endloop
endfacet
facet normal -0.9848077437746606 0.1736482300556455 6.406981760335203e-08
  outer loop
    vertex 55.704606978547474 611.1197169232837 4.598521258160211
    vertex 55.35422908307049 609.1326241053655 6.249993811936264
    vertex 55.74842921430826 611.3682450613607 4.789223605277707
  endloop
endfacet
facet normal -0.9848077437746606 0.1736482300556455 6.406981760335203e-08
  outer loop
    vertex 55.74842921430826 611.3682450613607 4.789223605277707
    vertex 55.35422908307049 609.1326241053655 6.249993811936264
    vertex 55.799461283351846 611.6576622079981 4.909104112283286
  endloop
endfacet
facet normal -0.9848077437746606 0.1736482300556455 6.406981760335203e-08
  outer loop
    vertex 55.799461283351846 611.6576622079981 4.909104112283286
    vertex 55.35422908307049 609.1326241053655 6.249993811936264
    vertex 55.854225434507356 611.968245062937 4.949993120736301
  endloop
endfacet
facet normal -0.9848077437746606 0.1736482300556455 6.406981760335203e-08
  outer loop
    vertex 55.854225434507356 611.968245062937 4.949993120736301
    vertex 55.35422908307049 609.1326241053655 6.249993811936264
    vertex 56.23598463303534 614.1333085780867 4.999993120736196
  endloop
endfacet
facet normal -0.9848077437746606 0.1736482300556455 6.406981760335203e-08
  outer loop
    vertex 56.23598463303534 614.1333085780867 4.999993120736196
    vertex 55.35422908307049 609.1326241053655 6.249993811936264
    vertex 56.16593054246828 613.7360120205482 5.517760073702589
  endloop
endfacet
facet normal -0.9848077437746606 0.1736482300556455 6.406981760335203e-08
  outer loop
    vertex 56.16593054246828 613.7360120205482 5.517760073702589
    vertex 55.35422908307049 609.1326241053655 6.249993811936264
    vertex 56.074634259623544 613.2182450662215 5.915056630197329
  endloop
endfacet
facet normal -0.9848077437746606 0.1736482300556455 6.406981760335203e-08
  outer loop
    vertex 56.074634259623544 613.2182450662215 5.915056630197329
    vertex 55.35422908307049 609.1326241053655 6.249993811936264
    vertex 55.968317444364985 612.6152925019369 6.164807875400003
  endloop
endfacet
facet normal -0.9848077437746606 0.1736482300556455 6.406981760335203e-08
  outer loop
    vertex 55.968317444364985 612.6152925019369 6.164807875400003
    vertex 55.35422908307049 609.1326241053655 6.249993811936264
    vertex 55.85422553530531 611.9682448947908 6.2499938581603764
  endloop
endfacet
facet normal -0.9848077437746606 0.1736482300556455 6.406981760335203e-08
  outer loop
    vertex 56.23598450197183 614.1333085780866 2.499993120736191
    vertex 55.90898945984195 612.2788279178759 2.5908821291893527
    vertex 56.28002239297887 614.3830596350044 3.102945507979839
  endloop
endfacet
facet normal -0.9848077437746606 0.1736482300556455 6.406981760335203e-08
  outer loop
    vertex 55.90898945984195 612.2788279178759 2.5908821291893527
    vertex 56.23598450197183 614.1333085780866 2.499993120736191
    vertex 55.85422530868641 611.9682450629368 2.5499931207362594
  endloop
endfacet
facet normal -0.9848077437746606 0.1736482300556455 6.406981760335203e-08
  outer loop
    vertex 56.28002239297887 614.3830596350044 3.102945507979839
    vertex 55.90898945984195 612.2788279178759 2.5908821291893527
    vertex 55.960021528885534 612.5682450645135 2.7107626361948762
  endloop
endfacet
facet normal -0.9848077437746606 0.1736482300556455 6.406981760335203e-08
  outer loop
    vertex 56.28002239297887 614.3830596350044 3.102945507979839
    vertex 55.960021528885534 612.5682450645135 2.7107626361948762
    vertex 56.0038437646463 612.8167732025904 2.901464983312406
  endloop
endfacet
facet normal -0.9848077437746606 0.1736482300556455 6.406981760335203e-08
  outer loop
    vertex 56.28002239297887 614.3830596350044 3.102945507979839
    vertex 56.0038437646463 612.8167732025904 2.901464983312406
    vertex 56.03746975417688 613.0074755502088 3.1499931207362266
  endloop
endfacet
facet normal -0.9848077437746606 0.1736482300556455 6.406981760335203e-08
  outer loop
    vertex 56.28002239297887 614.3830596350044 3.102945507979839
    vertex 56.03746975417688 613.0074755502088 3.1499931207362266
    vertex 56.29504292064154 614.4682450695055 3.7499931207361468
  endloop
endfacet
facet normal -0.9848077437746606 0.1736482300556455 6.406981760335203e-08
  outer loop
    vertex 56.29504292064154 614.4682450695055 3.7499931207361468
    vertex 56.03746975417688 613.0074755502088 3.1499931207362266
    vertex 56.058607941860245 613.1273560575294 3.4394102666131805
  endloop
endfacet
facet normal -0.9848077437746606 0.1736482300556455 6.406981760335203e-08
  outer loop
    vertex 56.29504292064154 614.4682450695055 3.7499931207361468
    vertex 56.058607941860245 613.1273560575294 3.4394102666131805
    vertex 56.065817795138315 613.16824506609 3.7499931207362094
  endloop
endfacet
facet normal -0.9848077437746606 0.1736482300556455 6.406981760335203e-08
  outer loop
    vertex 56.29504292064154 614.4682450695055 3.7499931207361468
    vertex 56.065817795138315 613.16824506609 3.7499931207362094
    vertex 56.058607974425094 613.1273560575293 4.06057597485923
  endloop
endfacet
facet normal -0.9848077437746606 0.1736482300556455 6.406981760335203e-08
  outer loop
    vertex 56.29504292064154 614.4682450695055 3.7499931207361468
    vertex 56.058607974425094 613.1273560575293 4.06057597485923
    vertex 56.28002246082237 614.3830596350045 4.3970407334924735
  endloop
endfacet
facet normal -0.9848077437746606 0.1736482300556455 6.406981760335203e-08
  outer loop
    vertex 56.28002246082237 614.3830596350045 4.3970407334924735
    vertex 56.058607974425094 613.1273560575293 4.06057597485923
    vertex 56.037469817087356 613.0074755502089 4.34999312073626
  endloop
endfacet
facet normal -0.9848077437746606 0.1736482300556455 6.406981760335203e-08
  outer loop
    vertex 56.28002246082237 614.3830596350045 4.3970407334924735
    vertex 56.037469817087356 613.0074755502089 4.34999312073626
    vertex 56.003843853615166 612.8167732025903 4.5985212581602
  endloop
endfacet
facet normal -0.9848077437746606 0.1736482300556455 6.406981760335203e-08
  outer loop
    vertex 56.28002246082237 614.3830596350045 4.3970407334924735
    vertex 56.003843853615166 612.8167732025903 4.5985212581602
    vertex 56.23598463303534 614.1333085780867 4.999993120736196
  endloop
endfacet
facet normal -0.9848077437746606 0.1736482300556455 6.406981760335203e-08
  outer loop
    vertex 56.23598463303534 614.1333085780867 4.999993120736196
    vertex 56.003843853615166 612.8167732025903 4.5985212581602
    vertex 55.960021637849685 612.5682450645135 4.789223605277661
  endloop
endfacet
facet normal -0.9848077437746606 0.1736482300556455 6.406981760335203e-08
  outer loop
    vertex 56.23598463303534 614.1333085780867 4.999993120736196
    vertex 55.960021637849685 612.5682450645135 4.789223605277661
    vertex 55.90898958137573 612.2788279178762 4.909104112283106
  endloop
endfacet
facet normal -0.9848077437746606 0.1736482300556455 6.406981760335203e-08
  outer loop
    vertex 56.23598463303534 614.1333085780867 4.999993120736196
    vertex 55.90898958137573 612.2788279178762 4.909104112283106
    vertex 55.854225434507356 611.968245062937 4.949993120736301
  endloop
endfacet
facet normal -1.5076159034038118e-08 0.9914448613735259 -0.13052619222221223
  outer loop
    vertex 55.6426329480554 610.7682450597841 3.7499931207363604
    vertex 62.85859312057937 610.8091341787407 4.060575974856948
    vertex 62.86580295596499 610.768245170395 3.749993120733933
  endloop
endfacet
facet normal -1.5076159034038118e-08 0.9914448613735259 -0.13052619222221223
  outer loop
    vertex 62.85859312057937 610.8091341787407 4.060575974856948
    vertex 55.6426329480554 610.7682450597841 3.7499931207363604
    vertex 55.649842801333534 610.8091340683446 4.060575974859382
  endloop
endfacet
facet normal 9.275554964840472e-09 -0.6087614290010832 -0.7933533402970956
  outer loop
    vertex 56.003843853615166 612.8167732025903 4.5985212581602
    vertex 62.54841439152397 612.5682451656661 4.789223605275925
    vertex 55.960021637849685 612.5682450645135 4.789223605277661
  endloop
endfacet
facet normal 9.275554964840472e-09 -0.6087614290010832 -0.7933533402970956
  outer loop
    vertex 62.54841439152397 612.5682451656661 4.789223605275925
    vertex 56.003843853615166 612.8167732025903 4.5985212581602
    vertex 62.504592175545994 612.816773302437 4.5985212581584625
  endloop
endfacet
facet normal 9.275994436514245e-09 -0.6087614290013218 0.7933533402969123
  outer loop
    vertex 62.548414391523316 612.5682451656658 2.710762636192689
    vertex 56.0038437646463 612.8167732025904 2.901464983312406
    vertex 55.960021528885534 612.5682450645135 2.7107626361948762
  endloop
endfacet
facet normal 9.275994436514245e-09 -0.6087614290013218 0.7933533402969123
  outer loop
    vertex 56.0038437646463 612.8167732025904 2.901464983312406
    vertex 62.548414391523316 612.5682451656658 2.710762636192689
    vertex 62.50459217554542 612.8167733024367 2.9014649833102726
  endloop
endfacet
facet normal -5.823085636641033e-09 0.38268343235889535 0.9238795325138526
  outer loop
    vertex 62.7600067678175 611.3682451688188 2.710762636192509
    vertex 55.79946116181816 611.6576622079981 2.5908821291892963
    vertex 55.74842910534413 611.3682450613607 2.7107626361948762
  endloop
endfacet
facet normal -5.823085636641033e-09 0.38268343235889535 0.9238795325138526
  outer loop
    vertex 55.79946116181816 611.6576622079981 2.5908821291892963
    vertex 62.7600067678175 611.3682451688188 2.710762636192509
    vertex 62.70897471645382 611.6576623139354 2.5908821291870643
  endloop
endfacet
facet normal -1.5140492189054187e-08 0.9914448613734528 -0.13052619222276737
  outer loop
    vertex 56.28002239297887 614.3830596350044 3.102945507979839
    vertex 62.213393129057806 614.4682451606735 3.749993120734148
    vertex 62.2284136194446 614.3830597266201 3.1029455079778274
  endloop
endfacet
facet normal -1.5140492189054187e-08 0.9914448613734528 -0.13052619222276737
  outer loop
    vertex 62.213393129057806 614.4682451606735 3.749993120734148
    vertex 56.28002239297887 614.3830596350044 3.102945507979839
    vertex 56.29504292064154 614.4682450695055 3.7499931207361468
  endloop
endfacet
facet normal 1.9879017446424946e-09 -0.13052619221758005 0.9914448613741359
  outer loop
    vertex 62.65421057967036 611.9682451672421 2.549993120733847
    vertex 55.90898945984195 612.2788279178759 2.5908821291893527
    vertex 55.85422530868641 611.9682450629368 2.5499931207362594
  endloop
endfacet
facet normal 1.9879017446424946e-09 -0.13052619221758005 0.9914448613741359
  outer loop
    vertex 55.90898945984195 612.2788279178759 2.5908821291893527
    vertex 62.65421057967036 611.9682451672421 2.549993120733847
    vertex 62.59944644288693 612.2788280205491 2.5908821291869852
  endloop
endfacet
facet normal -5.823750844655445e-09 0.38268343235907204 -0.9238795325137794
  outer loop
    vertex 55.799461283351846 611.6576622079981 4.909104112283286
    vertex 62.760006767818226 611.3682451688189 4.789223605275068
    vertex 55.74842921430826 611.3682450613607 4.789223605277707
  endloop
endfacet
facet normal -5.823750844655445e-09 0.38268343235907204 -0.9238795325137794
  outer loop
    vertex 62.760006767818226 611.3682451688189 4.789223605275068
    vertex 55.799461283351846 611.6576622079981 4.909104112283286
    vertex 62.708974716454584 611.6576623139355 4.909104112280647
  endloop
endfacet
facet normal 1.4083662846408167e-08 -0.9238795325084092 0.38268343237203695
  outer loop
    vertex 62.449828038762185 613.1273561557438 3.439410266610994
    vertex 56.03746975417688 613.0074755502088 3.1499931207362266
    vertex 62.47096620655265 613.007475649053 3.1499931207341274
  endloop
endfacet
facet normal 1.4083662846408167e-08 -0.9238795325084092 0.38268343237203695
  outer loop
    vertex 56.03746975417688 613.0074755502088 3.1499931207362266
    vertex 62.449828038762185 613.1273561557438 3.439410266610994
    vertex 56.058607941860245 613.1273560575294 3.4394102666131805
  endloop
endfacet
facet normal 5.828908529868865e-09 -0.3826834323578951 -0.923879532514267
  outer loop
    vertex 55.960021637849685 612.5682450645135 4.789223605277661
    vertex 62.599446442887675 612.2788280205496 4.9091041122810095
    vertex 55.90898958137573 612.2788279178762 4.909104112283106
  endloop
endfacet
facet normal 5.828908529868865e-09 -0.3826834323578951 -0.923879532514267
  outer loop
    vertex 62.599446442887675 612.2788280205496 4.9091041122810095
    vertex 55.960021637849685 612.5682450645135 4.789223605277661
    vertex 62.54841439152397 612.5682451656661 4.789223605275925
  endloop
endfacet
facet normal 1.5115042880591433e-08 -0.9914448613734508 0.13052619222278355
  outer loop
    vertex 62.442618203376504 613.1682451640895 3.749993120734033
    vertex 56.058607941860245 613.1273560575294 3.4394102666131805
    vertex 62.449828038762185 613.1273561557438 3.439410266610994
  endloop
endfacet
facet normal 1.5115042880591433e-08 -0.9914448613734508 0.13052619222278355
  outer loop
    vertex 56.058607941860245 613.1273560575294 3.4394102666131805
    vertex 62.442618203376504 613.1682451640895 3.749993120734033
    vertex 56.065817795138315 613.16824506609 3.7499931207362094
  endloop
endfacet
facet normal -1.2106872734678263e-08 0.7933533402849515 0.6087614290169097
  outer loop
    vertex 62.272451469008935 614.1333086710146 4.999993120733776
    vertex 56.16593054246828 613.7360120205482 5.517760073702589
    vertex 62.342505571077616 613.7360121155635 5.517760073700106
  endloop
endfacet
facet normal -1.2106872734678263e-08 0.7933533402849515 0.6087614290169097
  outer loop
    vertex 56.16593054246828 613.7360120205482 5.517760073702589
    vertex 62.272451469008935 614.1333086710146 4.999993120733776
    vertex 56.23598463303534 614.1333085780867 4.999993120736196
  endloop
endfacet
facet normal -1.210735407323902e-08 0.7933533402854078 -0.6087614290163149
  outer loop
    vertex 56.16593035711655 613.7360120205481 1.9822261677697826
    vertex 62.272451469008104 614.1333086710143 2.4999931207342962
    vertex 62.342505571076366 613.7360121155639 1.9822261677675055
  endloop
endfacet
facet normal -1.210735407323902e-08 0.7933533402854078 -0.6087614290163149
  outer loop
    vertex 62.272451469008104 614.1333086710143 2.4999931207342962
    vertex 56.16593035711655 613.7360120205481 1.9822261677697826
    vertex 56.23598450197183 614.1333085780866 2.499993120736191
  endloop
endfacet
facet normal 1.2091715399865092e-08 -0.7933533402853242 0.6087614290164238
  outer loop
    vertex 62.47096620655265 613.007475649053 3.1499931207341274
    vertex 56.0038437646463 612.8167732025904 2.901464983312406
    vertex 62.50459217554542 612.8167733024367 2.9014649833102726
  endloop
endfacet
facet normal 1.2091715399865092e-08 -0.7933533402853242 0.6087614290164238
  outer loop
    vertex 56.0038437646463 612.8167732025904 2.901464983312406
    vertex 62.47096620655265 613.007475649053 3.1499931207341274
    vertex 56.03746975417688 613.0074755502088 3.1499931207362266
  endloop
endfacet
facet normal -1.2066834532453288e-08 0.7933533402858246 -0.6087614290157719
  outer loop
    vertex 55.670980989016925 610.9290145756652 4.349993120736378
    vertex 62.80382898379615 611.1197170320474 4.598521258158091
    vertex 62.837454952788974 610.9290146854311 4.3499931207342355
  endloop
endfacet
facet normal -1.2066834532453288e-08 0.7933533402858246 -0.6087614290157719
  outer loop
    vertex 62.80382898379615 611.1197170320474 4.598521258158091
    vertex 55.670980989016925 610.9290145756652 4.349993120736378
    vertex 55.704606978547474 611.1197169232837 4.598521258160211
  endloop
endfacet
facet normal -1.5140450554081087e-08 0.9914448613735447 0.130526192222069
  outer loop
    vertex 62.213393129057806 614.4682451606735 3.749993120734148
    vertex 56.28002246082237 614.3830596350045 4.3970407334924735
    vertex 62.22841361944494 614.3830597266207 4.397040733490604
  endloop
endfacet
facet normal -1.5140450554081087e-08 0.9914448613735447 0.130526192222069
  outer loop
    vertex 56.28002246082237 614.3830596350045 4.3970407334924735
    vertex 62.213393129057806 614.4682451606735 3.749993120734148
    vertex 56.29504292064154 614.4682450695055 3.7499931207361468
  endloop
endfacet
facet normal -9.284889158868384e-09 0.6087614290008062 -0.793353340297308
  outer loop
    vertex 56.16593035711655 613.7360120205481 1.9822261677697826
    vertex 62.433801854363566 613.2182451639579 1.5849296112727498
    vertex 56.07463403261498 613.2182450662214 1.5849296112752074
  endloop
endfacet
facet normal -9.284889158868384e-09 0.6087614290008062 -0.793353340297308
  outer loop
    vertex 62.433801854363566 613.2182451639579 1.5849296112727498
    vertex 56.16593035711655 613.7360120205481 1.9822261677697826
    vertex 62.342505571076366 613.7360121155639 1.9822261677675055
  endloop
endfacet
facet normal -1.4105431011016547e-08 0.9238795325081948 -0.38268343237255414
  outer loop
    vertex 56.23598450197183 614.1333085780866 2.499993120736191
    vertex 62.2284136194446 614.3830597266201 3.1029455079778274
    vertex 62.272451469008104 614.1333086710143 2.4999931207342962
  endloop
endfacet
facet normal -1.4105431011016547e-08 0.9238795325081948 -0.38268343237255414
  outer loop
    vertex 62.2284136194446 614.3830597266201 3.1029455079778274
    vertex 56.23598450197183 614.1333085780866 2.499993120736191
    vertex 56.28002239297887 614.3830596350044 3.102945507979839
  endloop
endfacet
facet normal -1.4049692827405625e-08 0.9238795325097475 0.3826834323688055
  outer loop
    vertex 62.83745495278857 610.929014685431 3.1499931207336815
    vertex 55.649842768768686 610.8091340683447 3.4394102666133426
    vertex 62.8585931205791 610.8091341787413 3.4394102666109028
  endloop
endfacet
facet normal -1.4049692827405625e-08 0.9238795325097475 0.3826834323688055
  outer loop
    vertex 55.649842768768686 610.8091340683447 3.4394102666133426
    vertex 62.83745495278857 610.929014685431 3.1499931207336815
    vertex 55.67098092610642 610.9290145756651 3.1499931207362653
  endloop
endfacet
facet normal 1.511496072585854e-08 -0.9914448613734371 -0.13052619222288597
  outer loop
    vertex 56.058607974425094 613.1273560575293 4.06057597485923
    vertex 62.442618203376504 613.1682451640895 3.749993120734033
    vertex 62.449828038762405 613.1273561557438 4.060575974857048
  endloop
endfacet
facet normal 1.511496072585854e-08 -0.9914448613734371 -0.13052619222288597
  outer loop
    vertex 62.442618203376504 613.1682451640895 3.749993120734033
    vertex 56.058607974425094 613.1273560575293 4.06057597485923
    vertex 56.065817795138315 613.16824506609 3.7499931207362094
  endloop
endfacet
facet normal 1.2091342417366927e-08 -0.7933533402862697 -0.6087614290151916
  outer loop
    vertex 56.003843853615166 612.8167732025903 4.5985212581602
    vertex 62.470966206553065 613.0074756490529 4.3499931207339495
    vertex 62.504592175545994 612.816773302437 4.5985212581584625
  endloop
endfacet
facet normal 1.2091342417366927e-08 -0.7933533402862697 -0.6087614290151916
  outer loop
    vertex 62.470966206553065 613.0074756490529 4.3499931207339495
    vertex 56.003843853615166 612.8167732025903 4.5985212581602
    vertex 56.037469817087356 613.0074755502089 4.34999312073626
  endloop
endfacet
facet normal 1.4083394510905774e-08 -0.9238795325084344 -0.38268343237197594
  outer loop
    vertex 56.037469817087356 613.0074755502089 4.34999312073626
    vertex 62.449828038762405 613.1273561557438 4.060575974857048
    vertex 62.470966206553065 613.0074756490529 4.3499931207339495
  endloop
endfacet
facet normal 1.4083394510905774e-08 -0.9238795325084344 -0.38268343237197594
  outer loop
    vertex 62.449828038762405 613.1273561557438 4.060575974857048
    vertex 56.037469817087356 613.0074755502089 4.34999312073626
    vertex 56.058607974425094 613.1273560575293 4.06057597485923
  endloop
endfacet
facet normal -9.261387692237003e-09 0.6087614290003801 -0.7933533402976352
  outer loop
    vertex 55.74842921430826 611.3682450613607 4.789223605277707
    vertex 62.80382898379615 611.1197170320474 4.598521258158091
    vertex 55.704606978547474 611.1197169232837 4.598521258160211
  endloop
endfacet
facet normal -9.261387692237003e-09 0.6087614290003801 -0.7933533402976352
  outer loop
    vertex 62.80382898379615 611.1197170320474 4.598521258158091
    vertex 55.74842921430826 611.3682450613607 4.789223605277707
    vertex 62.760006767818226 611.3682451688189 4.789223605275068
  endloop
endfacet
facet normal -9.260873108353712e-09 0.6087614290019839 0.7933533402964045
  outer loop
    vertex 62.80382898379551 611.1197170320478 2.9014649833103308
    vertex 55.74842910534413 611.3682450613607 2.7107626361948762
    vertex 55.70460688957859 611.1197169232838 2.9014649833124273
  endloop
endfacet
facet normal -9.260873108353712e-09 0.6087614290019839 0.7933533402964045
  outer loop
    vertex 55.74842910534413 611.3682450613607 2.7107626361948762
    vertex 62.80382898379551 611.1197170320478 2.9014649833103308
    vertex 62.7600067678175 611.3682451688188 2.710762636192509
  endloop
endfacet
facet normal -9.284312432732347e-09 0.6087614290016766 0.7933533402966401
  outer loop
    vertex 62.43380185436497 613.2182451639582 5.915056630195685
    vertex 56.16593054246828 613.7360120205482 5.517760073702589
    vertex 56.074634259623544 613.2182450662215 5.915056630197329
  endloop
endfacet
facet normal -9.284312432732347e-09 0.6087614290016766 0.7933533402966401
  outer loop
    vertex 56.16593054246828 613.7360120205482 5.517760073702589
    vertex 62.43380185436497 613.2182451639582 5.915056630195685
    vertex 62.342505571077616 613.7360121155635 5.517760073700106
  endloop
endfacet
facet normal -1.9865424266588913e-09 0.13052619221786416 0.9914448613740984
  outer loop
    vertex 62.70897471645382 611.6576623139354 2.5908821291870643
    vertex 55.85422530868641 611.9682450629368 2.5499931207362594
    vertex 55.79946116181816 611.6576622079981 2.5908821291892963
  endloop
endfacet
facet normal -1.9865424266588913e-09 0.13052619221786416 0.9914448613740984
  outer loop
    vertex 55.85422530868641 611.9682450629368 2.5499931207362594
    vertex 62.70897471645382 611.6576623139354 2.5908821291870643
    vertex 62.65421057967036 611.9682451672421 2.549993120733847
  endloop
endfacet
facet normal -1.4049908154916723e-08 0.9238795325091093 -0.38268343237034663
  outer loop
    vertex 55.649842801333534 610.8091340683446 4.060575974859382
    vertex 62.837454952788974 610.9290146854311 4.3499931207342355
    vertex 62.85859312057937 610.8091341787407 4.060575974856948
  endloop
endfacet
facet normal -1.4049908154916723e-08 0.9238795325091093 -0.38268343237034663
  outer loop
    vertex 62.837454952788974 610.9290146854311 4.3499931207342355
    vertex 55.649842801333534 610.8091340683446 4.060575974859382
    vertex 55.670980989016925 610.9290145756652 4.349993120736378
  endloop
endfacet
facet normal 1.9872279885337243e-09 -0.13052619221726708 -0.991444861374177
  outer loop
    vertex 55.90898958137573 612.2788279178762 4.909104112283106
    vertex 62.65421057967122 611.9682451672421 4.949993120733999
    vertex 55.854225434507356 611.968245062937 4.949993120736301
  endloop
endfacet
facet normal 1.9872279885337243e-09 -0.13052619221726708 -0.991444861374177
  outer loop
    vertex 62.65421057967122 611.9682451672421 4.949993120733999
    vertex 55.90898958137573 612.2788279178762 4.909104112283106
    vertex 62.599446442887675 612.2788280205496 4.9091041122810095
  endloop
endfacet
facet normal -1.2066467357771444e-08 0.7933533402849267 0.608761429016942
  outer loop
    vertex 62.80382898379551 611.1197170320478 2.9014649833103308
    vertex 55.67098092610642 610.9290145756651 3.1499931207362653
    vertex 62.83745495278857 610.929014685431 3.1499931207336815
  endloop
endfacet
facet normal -1.2066467357771444e-08 0.7933533402849267 0.608761429016942
  outer loop
    vertex 55.67098092610642 610.9290145756651 3.1499931207362653
    vertex 62.80382898379551 611.1197170320478 2.9014649833103308
    vertex 55.70460688957859 611.1197169232838 2.9014649833124273
  endloop
endfacet
facet normal -8.578084063753239e-08 0.13052654548365192 0.9914448148657075
  outer loop
    vertex 62.54011907089354 612.6152902667482 6.164808990223061
    vertex 55.85422553530531 611.9682448947908 6.2499938581603764
    vertex 62.65421102440719 611.9682426450214 6.249994507826371
  endloop
endfacet
facet normal -8.578084063753239e-08 0.13052654548365192 0.9914448148657075
  outer loop
    vertex 55.85422553530531 611.9682448947908 6.2499938581603764
    vertex 62.54011907089354 612.6152902667482 6.164808990223061
    vertex 55.968317444364985 612.6152925019369 6.164807875400003
  endloop
endfacet
facet normal 5.829479665099466e-09 -0.382683432358825 0.9238795325138817
  outer loop
    vertex 62.59944644288693 612.2788280205491 2.5908821291869852
    vertex 55.960021528885534 612.5682450645135 2.7107626361948762
    vertex 55.90898945984195 612.2788279178759 2.5908821291893527
  endloop
endfacet
facet normal 5.829479665099466e-09 -0.382683432358825 0.9238795325138817
  outer loop
    vertex 55.960021528885534 612.5682450645135 2.7107626361948762
    vertex 62.59944644288693 612.2788280205491 2.5908821291869852
    vertex 62.548414391523316 612.5682451656658 2.710762636192689
  endloop
endfacet
facet normal -1.643287014069646e-08 0.3826837122147648 0.9238794165937062
  outer loop
    vertex 62.43380185436497 613.2182451639582 5.915056630195685
    vertex 55.968317444364985 612.6152925019369 6.164807875400003
    vertex 62.54011907089354 612.6152902667482 6.164808990223061
  endloop
endfacet
facet normal -1.643287014069646e-08 0.3826837122147648 0.9238794165937062
  outer loop
    vertex 55.968317444364985 612.6152925019369 6.164807875400003
    vertex 62.43380185436497 613.2182451639582 5.915056630195685
    vertex 56.074634259623544 613.2182450662215 5.915056630197329
  endloop
endfacet
facet normal 8.239634100962626e-08 0.3826824521889901 -0.9238799385129081
  outer loop
    vertex 55.9683172235127 612.6152926853629 1.335178494473798
    vertex 62.433801854363566 613.2182451639579 1.5849296112727498
    vertex 62.54011865359758 612.6152926333416 1.3351796561278257
  endloop
endfacet
facet normal 8.239634100962626e-08 0.3826824521889901 -0.9238799385129081
  outer loop
    vertex 62.433801854363566 613.2182451639579 1.5849296112727498
    vertex 55.9683172235127 612.6152926853629 1.335178494473798
    vertex 56.07463403261498 613.2182450662214 1.5849296112752074
  endloop
endfacet
facet normal -1.5076107885570786e-08 0.99144486137334 0.13052619222362474
  outer loop
    vertex 62.8585931205791 610.8091341787413 3.4394102666109028
    vertex 55.6426329480554 610.7682450597841 3.7499931207363604
    vertex 62.86580295596499 610.768245170395 3.749993120733933
  endloop
endfacet
facet normal -1.5076107885570786e-08 0.99144486137334 0.13052619222362474
  outer loop
    vertex 55.6426329480554 610.7682450597841 3.7499931207363604
    vertex 62.8585931205791 610.8091341787413 3.4394102666109028
    vertex 55.649842768768686 610.8091340683447 3.4394102666133426
  endloop
endfacet
facet normal -1.4105210504891574e-08 0.9238795325080018 0.3826834323730201
  outer loop
    vertex 62.22841361944494 614.3830597266207 4.397040733490604
    vertex 56.23598463303534 614.1333085780867 4.999993120736196
    vertex 62.272451469008935 614.1333086710146 4.999993120733776
  endloop
endfacet
facet normal -1.4105210504891574e-08 0.9238795325080018 0.3826834323730201
  outer loop
    vertex 56.23598463303534 614.1333085780867 4.999993120736196
    vertex 62.22841361944494 614.3830597266207 4.397040733490604
    vertex 56.28002246082237 614.3830596350045 4.3970407334924735
  endloop
endfacet
facet normal -1.9872372261947584e-09 0.13052619221810846 -0.9914448613740663
  outer loop
    vertex 55.854225434507356 611.968245062937 4.949993120736301
    vertex 62.708974716454584 611.6576623139355 4.909104112280647
    vertex 55.799461283351846 611.6576622079981 4.909104112283286
  endloop
endfacet
facet normal -1.9872372261947584e-09 0.13052619221810846 -0.9914448613740663
  outer loop
    vertex 62.708974716454584 611.6576623139355 4.909104112280647
    vertex 55.854225434507356 611.968245062937 4.949993120736301
    vertex 62.65421057967122 611.9682451672421 4.949993120733999
  endloop
endfacet
facet normal 1.4856349450741585e-07 0.13051753914320824 -0.9914460005345623
  outer loop
    vertex 55.9683172235127 612.6152926853629 1.335178494473798
    vertex 62.654210579669865 611.9682451672423 1.2499998879516516
    vertex 55.85422556495219 611.9682450629371 1.2499990178397915
  endloop
endfacet
facet normal 1.4856349450741585e-07 0.13051753914320824 -0.9914460005345623
  outer loop
    vertex 62.654210579669865 611.9682451672423 1.2499998879516516
    vertex 55.9683172235127 612.6152926853629 1.335178494473798
    vertex 62.54011865359758 612.6152926333416 1.3351796561278257
  endloop
endfacet
facet normal 0.7070977429383243 -3.1191443422181086e-07 -0.7071158193191766
  outer loop
    vertex 62.654210579669865 611.9682451672423 1.2499998879516516
    vertex 63.15422437479171 600.1182478588926 1.7500064575362293
    vertex 62.65421057966991 599.6182475585185 1.2500067022509405
  endloop
endfacet
facet normal 0.7070977429383243 -3.1191443422181086e-07 -0.7071158193191766
  outer loop
    vertex 63.15422437479171 600.1182478588926 1.7500064575362293
    vertex 62.654210579669865 611.9682451672423 1.2499998879516516
    vertex 63.154228122438646 609.1325047674495 1.7500080587051141
  endloop
endfacet
facet normal 0.9848077530122049 0.17364817766694837 -3.3751733986930603e-13
  outer loop
    vertex 62.272451469008104 614.1333086710143 2.4999931207342962
    vertex 62.59944644288693 612.2788280205491 2.5908821291869852
    vertex 62.65421057967036 611.9682451672421 2.549993120733847
  endloop
endfacet
facet normal 0.9848077530122049 0.17364817766694837 -3.3751733986930603e-13
  outer loop
    vertex 62.59944644288693 612.2788280205491 2.5908821291869852
    vertex 62.272451469008104 614.1333086710143 2.4999931207342962
    vertex 62.2284136194446 614.3830597266201 3.1029455079778274
  endloop
endfacet
facet normal 0.9848077530122049 0.17364817766694837 -3.3751733986930603e-13
  outer loop
    vertex 62.59944644288693 612.2788280205491 2.5908821291869852
    vertex 62.2284136194446 614.3830597266201 3.1029455079778274
    vertex 62.548414391523316 612.5682451656658 2.710762636192689
  endloop
endfacet
facet normal 0.9848077530122049 0.17364817766694837 -3.3751733986930603e-13
  outer loop
    vertex 62.548414391523316 612.5682451656658 2.710762636192689
    vertex 62.2284136194446 614.3830597266201 3.1029455079778274
    vertex 62.50459217554542 612.8167733024367 2.9014649833102726
  endloop
endfacet
facet normal 0.9848077530122049 0.17364817766694837 -3.3751733986930603e-13
  outer loop
    vertex 62.50459217554542 612.8167733024367 2.9014649833102726
    vertex 62.2284136194446 614.3830597266201 3.1029455079778274
    vertex 62.47096620655265 613.007475649053 3.1499931207341274
  endloop
endfacet
facet normal 0.9848077530122049 0.17364817766694837 -3.3751733986930603e-13
  outer loop
    vertex 62.47096620655265 613.007475649053 3.1499931207341274
    vertex 62.2284136194446 614.3830597266201 3.1029455079778274
    vertex 62.213393129057806 614.4682451606735 3.749993120734148
  endloop
endfacet
facet normal 0.9848077530122049 0.17364817766694837 -3.3751733986930603e-13
  outer loop
    vertex 62.47096620655265 613.007475649053 3.1499931207341274
    vertex 62.213393129057806 614.4682451606735 3.749993120734148
    vertex 62.449828038762185 613.1273561557438 3.439410266610994
  endloop
endfacet
facet normal 0.9848077530122049 0.17364817766694837 -3.3751733986930603e-13
  outer loop
    vertex 62.449828038762185 613.1273561557438 3.439410266610994
    vertex 62.213393129057806 614.4682451606735 3.749993120734148
    vertex 62.442618203376504 613.1682451640895 3.749993120734033
  endloop
endfacet
facet normal 0.9848077530122049 0.17364817766694837 -3.3751733986930603e-13
  outer loop
    vertex 62.442618203376504 613.1682451640895 3.749993120734033
    vertex 62.213393129057806 614.4682451606735 3.749993120734148
    vertex 62.449828038762405 613.1273561557438 4.060575974857048
  endloop
endfacet
facet normal 0.9848077530122049 0.17364817766694837 -3.3751733986930603e-13
  outer loop
    vertex 62.449828038762405 613.1273561557438 4.060575974857048
    vertex 62.213393129057806 614.4682451606735 3.749993120734148
    vertex 62.22841361944494 614.3830597266207 4.397040733490604
  endloop
endfacet
facet normal 0.9848077530122049 0.17364817766694837 -3.3751733986930603e-13
  outer loop
    vertex 62.449828038762405 613.1273561557438 4.060575974857048
    vertex 62.22841361944494 614.3830597266207 4.397040733490604
    vertex 62.470966206553065 613.0074756490529 4.3499931207339495
  endloop
endfacet
facet normal 0.9848077530122049 0.17364817766694837 -3.3751733986930603e-13
  outer loop
    vertex 62.470966206553065 613.0074756490529 4.3499931207339495
    vertex 62.22841361944494 614.3830597266207 4.397040733490604
    vertex 62.504592175545994 612.816773302437 4.5985212581584625
  endloop
endfacet
facet normal 0.9848077530122049 0.17364817766694837 -3.3751733986930603e-13
  outer loop
    vertex 62.504592175545994 612.816773302437 4.5985212581584625
    vertex 62.22841361944494 614.3830597266207 4.397040733490604
    vertex 62.272451469008935 614.1333086710146 4.999993120733776
  endloop
endfacet
facet normal 0.9848077530122049 0.17364817766694837 -3.3751733986930603e-13
  outer loop
    vertex 62.504592175545994 612.816773302437 4.5985212581584625
    vertex 62.272451469008935 614.1333086710146 4.999993120733776
    vertex 62.54841439152397 612.5682451656661 4.789223605275925
  endloop
endfacet
facet normal 0.9848077530122049 0.17364817766694837 -3.3751733986930603e-13
  outer loop
    vertex 62.54841439152397 612.5682451656661 4.789223605275925
    vertex 62.272451469008935 614.1333086710146 4.999993120733776
    vertex 62.599446442887675 612.2788280205496 4.9091041122810095
  endloop
endfacet
facet normal 0.9848077530122049 0.17364817766694837 -3.3751733986930603e-13
  outer loop
    vertex 62.599446442887675 612.2788280205496 4.9091041122810095
    vertex 62.272451469008935 614.1333086710146 4.999993120733776
    vertex 62.65421057967122 611.9682451672421 4.949993120733999
  endloop
endfacet
facet normal 0.9848077530122049 0.17364817766694837 -3.3751733986930603e-13
  outer loop
    vertex 62.54011865359758 612.6152926333416 1.3351796561278257
    vertex 63.154228122438646 609.1325047674495 1.7500080587051141
    vertex 62.654210579669865 611.9682451672423 1.2499998879516516
  endloop
endfacet
facet normal 0.9848077530122049 0.17364817766694837 -3.3751733986930603e-13
  outer loop
    vertex 63.154228122438646 609.1325047674495 1.7500080587051141
    vertex 62.54011865359758 612.6152926333416 1.3351796561278257
    vertex 62.433801854363566 613.2182451639579 1.5849296112727498
  endloop
endfacet
facet normal 0.9848077530122049 0.17364817766694837 -3.3751733986930603e-13
  outer loop
    vertex 63.154228122438646 609.1325047674495 1.7500080587051141
    vertex 62.433801854363566 613.2182451639579 1.5849296112727498
    vertex 62.342505571076366 613.7360121155639 1.9822261677675055
  endloop
endfacet
facet normal 0.9848077530122049 0.17364817766694837 -3.3751733986930603e-13
  outer loop
    vertex 63.154228122438646 609.1325047674495 1.7500080587051141
    vertex 62.342505571076366 613.7360121155639 1.9822261677675055
    vertex 62.70897471645382 611.6576623139354 2.5908821291870643
  endloop
endfacet
facet normal 0.9848077530122049 0.17364817766694837 -3.3751733986930603e-13
  outer loop
    vertex 63.154228122438646 609.1325047674495 1.7500080587051141
    vertex 62.70897471645382 611.6576623139354 2.5908821291870643
    vertex 62.7600067678175 611.3682451688188 2.710762636192509
  endloop
endfacet
facet normal 0.9848077530122049 0.17364817766694837 -3.3751733986930603e-13
  outer loop
    vertex 63.154228122438646 609.1325047674495 1.7500080587051141
    vertex 62.7600067678175 611.3682451688188 2.710762636192509
    vertex 62.80382898379551 611.1197170320478 2.9014649833103308
  endloop
endfacet
facet normal 0.9848077530122049 0.17364817766694837 -3.3751733986930603e-13
  outer loop
    vertex 63.154228122438646 609.1325047674495 1.7500080587051141
    vertex 62.80382898379551 611.1197170320478 2.9014649833103308
    vertex 62.83745495278857 610.929014685431 3.1499931207336815
  endloop
endfacet
facet normal 0.9848077530122049 0.17364817766694837 -3.3751733986930603e-13
  outer loop
    vertex 63.154228122438646 609.1325047674495 1.7500080587051141
    vertex 62.83745495278857 610.929014685431 3.1499931207336815
    vertex 63.15422812244019 609.1325047674495 6.249994694427673
  endloop
endfacet
facet normal 0.9848077530122049 0.17364817766694837 -3.3751733986930603e-13
  outer loop
    vertex 62.70897471645382 611.6576623139354 2.5908821291870643
    vertex 62.342505571076366 613.7360121155639 1.9822261677675055
    vertex 62.65421057967036 611.9682451672421 2.549993120733847
  endloop
endfacet
facet normal 0.9848077530122049 0.17364817766694837 -3.3751733986930603e-13
  outer loop
    vertex 62.65421057967036 611.9682451672421 2.549993120733847
    vertex 62.342505571076366 613.7360121155639 1.9822261677675055
    vertex 62.272451469008104 614.1333086710143 2.4999931207342962
  endloop
endfacet
facet normal 0.9848077530122049 0.17364817766694837 -3.3751733986930603e-13
  outer loop
    vertex 63.15422812244019 609.1325047674495 6.249994694427673
    vertex 62.83745495278857 610.929014685431 3.1499931207336815
    vertex 62.8585931205791 610.8091341787413 3.4394102666109028
  endloop
endfacet
facet normal 0.9848077530122049 0.17364817766694837 -3.3751733986930603e-13
  outer loop
    vertex 63.15422812244019 609.1325047674495 6.249994694427673
    vertex 62.8585931205791 610.8091341787413 3.4394102666109028
    vertex 62.86580295596499 610.768245170395 3.749993120733933
  endloop
endfacet
facet normal 0.9848077530122049 0.17364817766694837 -3.3751733986930603e-13
  outer loop
    vertex 63.15422812244019 609.1325047674495 6.249994694427673
    vertex 62.86580295596499 610.768245170395 3.749993120733933
    vertex 62.85859312057937 610.8091341787407 4.060575974856948
  endloop
endfacet
facet normal 0.9848077530122049 0.17364817766694837 -3.3751733986930603e-13
  outer loop
    vertex 63.15422812244019 609.1325047674495 6.249994694427673
    vertex 62.85859312057937 610.8091341787407 4.060575974856948
    vertex 62.837454952788974 610.9290146854311 4.3499931207342355
  endloop
endfacet
facet normal 0.9848077530122049 0.17364817766694837 -3.3751733986930603e-13
  outer loop
    vertex 63.15422812244019 609.1325047674495 6.249994694427673
    vertex 62.837454952788974 610.9290146854311 4.3499931207342355
    vertex 62.80382898379615 611.1197170320474 4.598521258158091
  endloop
endfacet
facet normal 0.9848077530122049 0.17364817766694837 -3.3751733986930603e-13
  outer loop
    vertex 63.15422812244019 609.1325047674495 6.249994694427673
    vertex 62.80382898379615 611.1197170320474 4.598521258158091
    vertex 62.760006767818226 611.3682451688189 4.789223605275068
  endloop
endfacet
facet normal 0.9848077530122049 0.17364817766694837 -3.3751733986930603e-13
  outer loop
    vertex 63.15422812244019 609.1325047674495 6.249994694427673
    vertex 62.760006767818226 611.3682451688189 4.789223605275068
    vertex 62.708974716454584 611.6576623139355 4.909104112280647
  endloop
endfacet
facet normal 0.9848077530122049 0.17364817766694837 -3.3751733986930603e-13
  outer loop
    vertex 63.15422812244019 609.1325047674495 6.249994694427673
    vertex 62.708974716454584 611.6576623139355 4.909104112280647
    vertex 62.65421057967122 611.9682451672421 4.949993120733999
  endloop
endfacet
facet normal 0.9848077530122049 0.17364817766694837 -3.3751733986930603e-13
  outer loop
    vertex 63.15422812244019 609.1325047674495 6.249994694427673
    vertex 62.65421057967122 611.9682451672421 4.949993120733999
    vertex 62.272451469008935 614.1333086710146 4.999993120733776
  endloop
endfacet
facet normal 0.9848077530122049 0.17364817766694837 -3.3751733986930603e-13
  outer loop
    vertex 63.15422812244019 609.1325047674495 6.249994694427673
    vertex 62.272451469008935 614.1333086710146 4.999993120733776
    vertex 62.342505571077616 613.7360121155635 5.517760073700106
  endloop
endfacet
facet normal 0.9848077530122049 0.17364817766694837 -3.3751733986930603e-13
  outer loop
    vertex 63.15422812244019 609.1325047674495 6.249994694427673
    vertex 62.342505571077616 613.7360121155635 5.517760073700106
    vertex 62.43380185436497 613.2182451639582 5.915056630195685
  endloop
endfacet
facet normal 0.9848077530122049 0.17364817766694837 -3.3751733986930603e-13
  outer loop
    vertex 63.15422812244019 609.1325047674495 6.249994694427673
    vertex 62.43380185436497 613.2182451639582 5.915056630195685
    vertex 62.54011907089354 612.6152902667482 6.164808990223061
  endloop
endfacet
facet normal 0.9848077530122049 0.17364817766694837 -3.3751733986930603e-13
  outer loop
    vertex 63.15422812244019 609.1325047674495 6.249994694427673
    vertex 62.54011907089354 612.6152902667482 6.164808990223061
    vertex 62.65421102440719 611.9682426450214 6.249994507826371
  endloop
endfacet
facet normal 0.9999999999999147 -4.1326411916298147e-07 6.706269887395082e-09
  outer loop
    vertex 63.154228122438646 609.1325047674495 1.7500080587051141
    vertex 63.15422437479326 600.1182478588926 6.249995699068009
    vertex 63.15422437479171 600.1182478588926 1.7500064575362293
  endloop
endfacet
facet normal 0.9999999999999147 -4.1326411916298147e-07 6.706269887395082e-09
  outer loop
    vertex 63.15422437479326 600.1182478588926 6.249995699068009
    vertex 63.154228122438646 609.1325047674495 1.7500080587051141
    vertex 63.15422812244019 609.1325047674495 6.249994694427673
  endloop
endfacet
facet normal -1.901156299364936e-07 -4.7958142686359854e-08 0.9999999999999809
  outer loop
    vertex 60.454207141043995 601.6182451798146 6.24999312083125
    vertex 57.05420714104391 601.8182451337577 6.249993120832421
    vertex 58.054207141043904 601.6182451473038 6.249993120832071
  endloop
endfacet
facet normal -1.901156299364936e-07 -4.7958142686359854e-08 0.9999999999999809
  outer loop
    vertex 57.05420714104391 601.8182451337577 6.249993120832421
    vertex 60.454207141043995 601.6182451798146 6.24999312083125
    vertex 61.45420714104399 601.8182451933609 6.249993120830909
  endloop
endfacet
facet normal -1.901156299364936e-07 -4.7958142686359854e-08 0.9999999999999809
  outer loop
    vertex 63.15422437479326 600.1182478588926 6.249995699068009
    vertex 61.45420714104399 601.8182451933609 6.249993120830909
    vertex 61.45420717481697 598.4182451936657 6.249993096678504
  endloop
endfacet
facet normal -1.901156299364936e-07 -4.7958142686359854e-08 0.9999999999999809
  outer loop
    vertex 61.45420714104399 601.8182451933609 6.249993120830909
    vertex 63.15422437479326 600.1182478588926 6.249995699068009
    vertex 63.15422812244019 609.1325047674495 6.249994694427673
  endloop
endfacet
facet normal -1.901156299364936e-07 -4.7958142686359854e-08 0.9999999999999809
  outer loop
    vertex 57.05420714104391 601.8182451337577 6.249993120832421
    vertex 55.3542191123836 600.118244733064 6.249993120832973
    vertex 57.05420714375322 598.4182451337578 6.249993120832421
  endloop
endfacet
facet normal -1.901156299364936e-07 -4.7958142686359854e-08 0.9999999999999809
  outer loop
    vertex 55.3542191123836 600.118244733064 6.249993120832973
    vertex 57.05420714104391 601.8182451337577 6.249993120832421
    vertex 55.35422908307049 609.1326241053655 6.249993811936264
  endloop
endfacet
facet normal -1.901156299364936e-07 -4.7958142686359854e-08 0.9999999999999809
  outer loop
    vertex 55.35422908307049 609.1326241053655 6.249993811936264
    vertex 57.05420714104391 601.8182451337577 6.249993120832421
    vertex 61.45420714104399 601.8182451933609 6.249993120830909
  endloop
endfacet
facet normal -1.901156299364936e-07 -4.7958142686359854e-08 0.9999999999999809
  outer loop
    vertex 55.35422908307049 609.1326241053655 6.249993811936264
    vertex 61.45420714104399 601.8182451933609 6.249993120830909
    vertex 63.15422812244019 609.1325047674495 6.249994694427673
  endloop
endfacet
facet normal -1.901156299364936e-07 -4.7958142686359854e-08 0.9999999999999809
  outer loop
    vertex 55.35422908307049 609.1326241053655 6.249993811936264
    vertex 63.15422812244019 609.1325047674495 6.249994694427673
    vertex 62.65421102440719 611.9682426450214 6.249994507826371
  endloop
endfacet
facet normal -1.901156299364936e-07 -4.7958142686359854e-08 0.9999999999999809
  outer loop
    vertex 55.35422908307049 609.1326241053655 6.249993811936264
    vertex 62.65421102440719 611.9682426450214 6.249994507826371
    vertex 55.85422553530531 611.9682448947908 6.2499938581603764
  endloop
endfacet
facet normal 0.7071041341368427 -0.7071094282261977 -4.5382812149896053e-07
  outer loop
    vertex 63.15422437479326 600.1182478588926 6.249995699068009
    vertex 62.65421057966991 599.6182475585185 1.2500067022509405
    vertex 63.15422437479171 600.1182478588926 1.7500064575362293
  endloop
endfacet
facet normal 0.7071041341368427 -0.7071094282261977 -4.5382812149896053e-07
  outer loop
    vertex 62.65421057966991 599.6182475585185 1.2500067022509405
    vertex 63.15422437479326 600.1182478588926 6.249995699068009
    vertex 61.45420717481697 598.4182451936657 6.249993096678504
  endloop
endfacet
facet normal 0.7071041341368427 -0.7071094282261977 -4.5382812149896053e-07
  outer loop
    vertex 62.65421057966991 599.6182475585185 1.2500067022509405
    vertex 61.45420717481697 598.4182451936657 6.249993096678504
    vertex 61.45420718236683 598.4182451933609 4.752143586113137
  endloop
endfacet
facet normal 0.7071041341368427 -0.7071094282261977 -4.5382812149896053e-07
  outer loop
    vertex 62.65421057966991 599.6182475585185 1.2500067022509405
    vertex 61.45420718236683 598.4182451933609 4.752143586113137
    vertex 61.454207188453886 598.4182451933608 1.2500078792941602
  endloop
endfacet
facet normal 0.7071041341368427 -0.7071094282261977 -4.5382812149896053e-07
  outer loop
    vertex 61.45420714368958 598.4182451933609 2.75214358611314
    vertex 61.454207188453886 598.4182451933608 1.2500078792941602
    vertex 61.45420718236683 598.4182451933609 4.752143586113137
  endloop
endfacet
facet normal 3.576922783817414e-07 -5.152726431135884e-07 -0.9999999999998033
  outer loop
    vertex 55.854225564947264 599.6182376566451 1.2500044638001904
    vertex 57.0542071410423 602.3182451337577 1.2500032255795808
    vertex 57.05420719031652 598.4182451337578 1.250005571365067
  endloop
endfacet
facet normal 3.576922783817414e-07 -5.152726431135884e-07 -0.9999999999998033
  outer loop
    vertex 57.0542071410423 602.3182451337577 1.2500032255795808
    vertex 55.854225564947264 599.6182376566451 1.2500044638001904
    vertex 55.85422556495219 611.9682450629371 1.2499990178397915
  endloop
endfacet
facet normal 3.576922783817414e-07 -5.152726431135884e-07 -0.9999999999998033
  outer loop
    vertex 57.0542071410423 602.3182451337577 1.2500032255795808
    vertex 55.85422556495219 611.9682450629371 1.2499990178397915
    vertex 61.454207141042374 602.3182451933608 1.250006068905931
  endloop
endfacet
facet normal 3.576922783817414e-07 -5.152726431135884e-07 -0.9999999999998033
  outer loop
    vertex 61.454207141042374 602.3182451933608 1.250006068905931
    vertex 62.65421057966991 599.6182475585185 1.2500067022509405
    vertex 61.454207188453886 598.4182451933608 1.2500078792941602
  endloop
endfacet
facet normal 3.576922783817414e-07 -5.152726431135884e-07 -0.9999999999998033
  outer loop
    vertex 62.65421057966991 599.6182475585185 1.2500067022509405
    vertex 61.454207141042374 602.3182451933608 1.250006068905931
    vertex 62.654210579669865 611.9682451672423 1.2499998879516516
  endloop
endfacet
facet normal 3.576922783817414e-07 -5.152726431135884e-07 -0.9999999999998033
  outer loop
    vertex 62.654210579669865 611.9682451672423 1.2499998879516516
    vertex 61.454207141042374 602.3182451933608 1.250006068905931
    vertex 55.85422556495219 611.9682450629371 1.2499990178397915
  endloop
endfacet
facet normal 3.576922783817414e-07 -5.152726431135884e-07 -0.9999999999998033
  outer loop
    vertex 57.0542071410423 602.3182451337577 1.2500032255795808
    vertex 60.4542071410424 602.1182451798146 1.2500060689062737
    vertex 58.05420714104231 602.1182451473037 1.2500032255792344
  endloop
endfacet
facet normal 3.576922783817414e-07 -5.152726431135884e-07 -0.9999999999998033
  outer loop
    vertex 60.4542071410424 602.1182451798146 1.2500060689062737
    vertex 57.0542071410423 602.3182451337577 1.2500032255795808
    vertex 61.454207141042374 602.3182451933608 1.250006068905931
  endloop
endfacet
endsolid Indexer
