solid Indexer
facet normal -1.0 -5.365042577679609e-09 -1.5409890080370753e-08
  outer loop
    vertex 61.45420717481697 598.4182451936657 6.249993096678504
    vertex 61.45420717965752 601.8182451933609 4.752143586113137
    vertex 61.45420718236683 598.4182451933609 4.752143586113137
  endloop
endfacet
facet normal -1.0 -5.365042577679609e-09 -1.5409890080370753e-08
  outer loop
    vertex 61.45420717965752 601.8182451933609 4.752143586113137
    vertex 61.45420717481697 598.4182451936657 6.249993096678504
    vertex 61.45420714104399 601.8182451933609 6.249993120830909
  endloop
endfacet
facet normal 0.7071043253932792 -0.7071092369710185 -6.162690279524939e-07
  outer loop
    vertex 63.25422441636745 600.2182470454896 6.249995767232052
    vertex 62.754210579669866 599.7182474730138 1.2500066551693212
    vertex 63.25422450690493 600.2182470454896 1.750006457536195
  endloop
endfacet
facet normal 0.7071043253932792 -0.7071092369710185 -6.162690279524939e-07
  outer loop
    vertex 62.754210579669866 599.7182474730138 1.2500066551693212
    vertex 63.25422441636745 600.2182470454896 6.249995767232052
    vertex 61.45420717481697 598.4182451936657 6.249993096678504
  endloop
endfacet
facet normal 0.7071043253932792 -0.7071092369710185 -6.162690279524939e-07
  outer loop
    vertex 62.754210579669866 599.7182474730138 1.2500066551693212
    vertex 61.45420717481697 598.4182451936657 6.249993096678504
    vertex 61.45420718236683 598.4182451933609 4.752143586113137
  endloop
endfacet
facet normal 0.7071043253932792 -0.7071092369710185 -6.162690279524939e-07
  outer loop
    vertex 62.754210579669866 599.7182474730138 1.2500066551693212
    vertex 61.45420718236683 598.4182451933609 4.752143586113137
    vertex 61.454207188453886 598.4182451933608 1.2500078792941602
  endloop
endfacet
facet normal 0.7071043253932792 -0.7071092369710185 -6.162690279524939e-07
  outer loop
    vertex 61.45420714368958 598.4182451933609 2.75214358611314
    vertex 61.454207188453886 598.4182451933608 1.2500078792941602
    vertex 61.45420718236683 598.4182451933609 4.752143586113137
  endloop
endfacet
facet normal -0.707109520074054 -0.707104042288283 -4.595605927593459e-07
  outer loop
    vertex 57.05420719031652 598.4182451337578 1.250005571365067
    vertex 55.25422491968958 600.2182439062301 1.7500042851582998
    vertex 55.75422556494727 599.7182391430974 1.2500044638002248
  endloop
endfacet
facet normal -0.707109520074054 -0.707104042288283 -4.595605927593459e-07
  outer loop
    vertex 55.25422491968958 600.2182439062301 1.7500042851582998
    vertex 57.05420719031652 598.4182451337578 1.250005571365067
    vertex 57.05420714375322 598.4182451337578 6.249993120832421
  endloop
endfacet
facet normal -0.707109520074054 -0.707104042288283 -4.595605927593459e-07
  outer loop
    vertex 55.25422491968958 600.2182439062301 1.7500042851582998
    vertex 57.05420714375322 598.4182451337578 6.249993120832421
    vertex 55.2542191123836 600.2182439062301 6.2499931208330075
  endloop
endfacet
facet normal -1.0 -7.656968639533369e-09 -1.5801099501253778e-08
  outer loop
    vertex 61.454207188453886 598.4182451933608 1.2500078792941602
    vertex 61.45420714102173 601.8182451933609 1.750006068905928
    vertex 61.454207141042374 602.3182451933608 1.250006068905931
  endloop
endfacet
facet normal -1.0 -7.656968639533369e-09 -1.5801099501253778e-08
  outer loop
    vertex 61.45420714102173 601.8182451933609 1.750006068905928
    vertex 61.454207188453886 598.4182451933608 1.2500078792941602
    vertex 61.45420714368958 598.4182451933609 2.75214358611314
  endloop
endfacet
facet normal -1.0 -7.656968639533369e-09 -1.5801099501253778e-08
  outer loop
    vertex 61.45420714102173 601.8182451933609 1.750006068905928
    vertex 61.45420714368958 598.4182451933609 2.75214358611314
    vertex 61.45420714098036 601.8182451933609 2.75214358611314
  endloop
endfacet
facet normal 1.4773365951771789e-08 -0.9914448613737994 0.13052619222013392
  outer loop
    vertex 62.54261820337653 613.1682451640895 3.7499931207339987
    vertex 55.958607941860244 613.1273560575294 3.4394102666132143
    vertex 62.549828038762186 613.1273561557438 3.4394102666109596
  endloop
endfacet
facet normal 1.4773365951771789e-08 -0.9914448613737994 0.13052619222013392
  outer loop
    vertex 55.958607941860244 613.1273560575294 3.4394102666132143
    vertex 62.54261820337653 613.1682451640895 3.7499931207339987
    vertex 55.965817795138335 613.16824506609 3.749993120736244
  endloop
endfacet
facet normal -1.4773311205174034e-08 0.9914448613738162 -0.13052619222000808
  outer loop
    vertex 56.18002239297887 614.3830596350044 3.1029455079798733
    vertex 62.31339312905783 614.4682451606735 3.7499931207341133
    vertex 62.3284136194446 614.3830597266201 3.1029455079777923
  endloop
endfacet
facet normal -1.4773311205174034e-08 0.9914448613738162 -0.13052619222000808
  outer loop
    vertex 62.31339312905783 614.4682451606735 3.7499931207341133
    vertex 56.18002239297887 614.3830596350044 3.1029455079798733
    vertex 56.19504292064157 614.4682450695055 3.749993120736181
  endloop
endfacet
facet normal -5.701966724639557e-09 0.382683432364994 0.9238795325113264
  outer loop
    vertex 62.8600067678175 611.3682451688188 2.710762636192474
    vertex 55.69946116181816 611.6576622079981 2.590882129189331
    vertex 55.64842910534413 611.3682450613607 2.710762636194911
  endloop
endfacet
facet normal -5.701966724639557e-09 0.382683432364994 0.9238795325113264
  outer loop
    vertex 55.69946116181816 611.6576622079981 2.590882129189331
    vertex 62.8600067678175 611.3682451688188 2.710762636192474
    vertex 62.80897471645382 611.6576623139354 2.5908821291870296
  endloop
endfacet
facet normal -1.4773321158572875e-08 0.9914448613738234 -0.13052619221995265
  outer loop
    vertex 55.54263294805543 610.7682450597841 3.749993120736395
    vertex 62.95859312057937 610.8091341787407 4.0605759748569135
    vertex 62.96580295596501 610.768245170395 3.749993120733898
  endloop
endfacet
facet normal -1.4773321158572875e-08 0.9914448613738234 -0.13052619221995265
  outer loop
    vertex 62.95859312057937 610.8091341787407 4.0605759748569135
    vertex 55.54263294805543 610.7682450597841 3.749993120736395
    vertex 55.54984280133354 610.8091340683446 4.060575974859416
  endloop
endfacet
facet normal 1.9452947831779413e-09 -0.13052619222003806 0.9914448613738123
  outer loop
    vertex 62.754210579670364 611.9682451672421 2.5499931207338125
    vertex 55.80898945984195 612.2788279178759 2.5908821291893873
    vertex 55.75422530868641 611.9682450629368 2.549993120736294
  endloop
endfacet
facet normal 1.9452947831779413e-09 -0.13052619222003806 0.9914448613738123
  outer loop
    vertex 55.80898945984195 612.2788279178759 2.5908821291893873
    vertex 62.754210579670364 611.9682451672421 2.5499931207338125
    vertex 62.69944644288693 612.2788280205491 2.590882129186951
  endloop
endfacet
facet normal 9.071275247885733e-09 -0.6087614290088 0.7933533402911742
  outer loop
    vertex 62.64841439152331 612.5682451656658 2.710762636192655
    vertex 55.90384376464632 612.8167732025904 2.90146498331244
    vertex 55.86002152888554 612.5682450645135 2.710762636194911
  endloop
endfacet
facet normal 9.071275247885733e-09 -0.6087614290088 0.7933533402911742
  outer loop
    vertex 55.90384376464632 612.8167732025904 2.90146498331244
    vertex 62.64841439152331 612.5682451656658 2.710762636192655
    vertex 62.60459217554544 612.8167733024367 2.901464983310238
  endloop
endfacet
facet normal 9.070832505795469e-09 -0.6087614290086574 -0.7933533402912836
  outer loop
    vertex 55.90384385361517 612.8167732025903 4.598521258160234
    vertex 62.64841439152397 612.5682451656661 4.7892236052758905
    vertex 55.860021637849684 612.5682450645135 4.789223605277695
  endloop
endfacet
facet normal 9.070832505795469e-09 -0.6087614290086574 -0.7933533402912836
  outer loop
    vertex 62.64841439152397 612.5682451656661 4.7892236052758905
    vertex 55.90384385361517 612.8167732025903 4.598521258160234
    vertex 62.604592175545996 612.816773302437 4.598521258158429
  endloop
endfacet
facet normal -5.702631860423413e-09 0.382683432365158 -0.9238795325112584
  outer loop
    vertex 55.699461283351845 611.6576622079981 4.9091041122833206
    vertex 62.86000676781822 611.3682451688189 4.789223605275034
    vertex 55.64842921430826 611.3682450613607 4.7892236052777415
  endloop
endfacet
facet normal -5.702631860423413e-09 0.382683432365158 -0.9238795325112584
  outer loop
    vertex 62.86000676781822 611.3682451688189 4.789223605275034
    vertex 55.699461283351845 611.6576622079981 4.9091041122833206
    vertex 62.808974716454586 611.6576623139355 4.909104112280613
  endloop
endfacet
facet normal 1.3766656832100221e-08 -0.9238795325112364 0.3826834323652111
  outer loop
    vertex 62.549828038762186 613.1273561557438 3.4394102666109596
    vertex 55.93746975417688 613.0074755502088 3.149993120736261
    vertex 62.57096620655265 613.007475649053 3.1499931207340928
  endloop
endfacet
facet normal 1.3766656832100221e-08 -0.9238795325112364 0.3826834323652111
  outer loop
    vertex 55.93746975417688 613.0074755502088 3.149993120736261
    vertex 62.549828038762186 613.1273561557438 3.4394102666109596
    vertex 55.958607941860244 613.1273560575294 3.4394102666132143
  endloop
endfacet
facet normal -1.182129576608782e-08 0.7933533402911884 0.6087614290087817
  outer loop
    vertex 62.372451469008936 614.1333086710146 4.999993120733741
    vertex 56.0659305424683 613.7360120205482 5.517760073702623
    vertex 62.44250557107764 613.7360121155635 5.517760073700072
  endloop
endfacet
facet normal -1.182129576608782e-08 0.7933533402911884 0.6087614290087817
  outer loop
    vertex 56.0659305424683 613.7360120205482 5.517760073702623
    vertex 62.372451469008936 614.1333086710146 4.999993120733741
    vertex 56.13598463303534 614.1333085780867 4.999993120736231
  endloop
endfacet
facet normal 5.70202651464715e-09 -0.38268343236465224 -0.9238795325114679
  outer loop
    vertex 55.860021637849684 612.5682450645135 4.789223605277695
    vertex 62.69944644288767 612.2788280205496 4.909104112280975
    vertex 55.80898958137573 612.2788279178762 4.90910411228314
  endloop
endfacet
facet normal 5.70202651464715e-09 -0.38268343236465224 -0.9238795325114679
  outer loop
    vertex 62.69944644288767 612.2788280205496 4.909104112280975
    vertex 55.860021637849684 612.5682450645135 4.789223605277695
    vertex 62.64841439152397 612.5682451656661 4.7892236052758905
  endloop
endfacet
facet normal -9.070742746291381e-09 0.6087614290091709 0.7933533402908897
  outer loop
    vertex 62.533801854364995 613.2182451639582 5.91505663019565
    vertex 56.0659305424683 613.7360120205482 5.517760073702623
    vertex 55.97463425962356 613.2182450662215 5.9150566301973635
  endloop
endfacet
facet normal -9.070742746291381e-09 0.6087614290091709 0.7933533402908897
  outer loop
    vertex 56.0659305424683 613.7360120205482 5.517760073702623
    vertex 62.533801854364995 613.2182451639582 5.91505663019565
    vertex 62.44250557107764 613.7360121155635 5.517760073700072
  endloop
endfacet
facet normal -1.1821724132297225e-08 0.7933533402911852 -0.6087614290087857
  outer loop
    vertex 55.570980989016924 610.9290145756652 4.349993120736412
    vertex 62.90382898379615 611.1197170320474 4.598521258158057
    vertex 62.937454952788976 610.9290146854311 4.349993120734201
  endloop
endfacet
facet normal -1.1821724132297225e-08 0.7933533402911852 -0.6087614290087857
  outer loop
    vertex 62.90382898379615 611.1197170320474 4.598521258158057
    vertex 55.570980989016924 610.9290145756652 4.349993120736412
    vertex 55.60460697854747 611.1197169232837 4.598521258160244
  endloop
endfacet
facet normal 1.1821770535118781e-08 -0.7933533402912357 0.6087614290087198
  outer loop
    vertex 62.57096620655265 613.007475649053 3.1499931207340928
    vertex 55.90384376464632 612.8167732025904 2.90146498331244
    vertex 62.60459217554544 612.8167733024367 2.901464983310238
  endloop
endfacet
facet normal 1.1821770535118781e-08 -0.7933533402912357 0.6087614290087198
  outer loop
    vertex 55.90384376464632 612.8167732025904 2.90146498331244
    vertex 62.57096620655265 613.007475649053 3.1499931207340928
    vertex 55.93746975417688 613.0074755502088 3.149993120736261
  endloop
endfacet
facet normal -1.4773268669523517e-08 0.9914448613738649 0.1305261922196375
  outer loop
    vertex 62.31339312905783 614.4682451606735 3.7499931207341133
    vertex 56.18002246082237 614.3830596350045 4.397040733492507
    vertex 62.328413619444945 614.3830597266207 4.397040733490569
  endloop
endfacet
facet normal -1.4773268669523517e-08 0.9914448613738649 0.1305261922196375
  outer loop
    vertex 56.18002246082237 614.3830596350045 4.397040733492507
    vertex 62.31339312905783 614.4682451606735 3.7499931207341133
    vertex 56.19504292064157 614.4682450695055 3.749993120736181
  endloop
endfacet
facet normal -1.3766610644514855e-08 0.9238795325114141 -0.3826834323647819
  outer loop
    vertex 55.54984280133354 610.8091340683446 4.060575974859416
    vertex 62.937454952788976 610.9290146854311 4.349993120734201
    vertex 62.95859312057937 610.8091341787407 4.0605759748569135
  endloop
endfacet
facet normal -1.3766610644514855e-08 0.9238795325114141 -0.3826834323647819
  outer loop
    vertex 62.937454952788976 610.9290146854311 4.349993120734201
    vertex 55.54984280133354 610.8091340683446 4.060575974859416
    vertex 55.570980989016924 610.9290145756652 4.349993120736412
  endloop
endfacet
facet normal 1.3766388988268483e-08 -0.9238795325112913 -0.3826834323650786
  outer loop
    vertex 55.937469817087354 613.0074755502089 4.349993120736294
    vertex 62.5498280387624 613.1273561557438 4.060575974857013
    vertex 62.57096620655307 613.0074756490529 4.349993120733915
  endloop
endfacet
facet normal 1.3766388988268483e-08 -0.9238795325112913 -0.3826834323650786
  outer loop
    vertex 62.5498280387624 613.1273561557438 4.060575974857013
    vertex 55.937469817087354 613.0074755502089 4.349993120736294
    vertex 55.95860797442509 613.1273560575293 4.060575974859264
  endloop
endfacet
facet normal -9.07127513419774e-09 0.6087614290080327 -0.7933533402917631
  outer loop
    vertex 55.64842921430826 611.3682450613607 4.7892236052777415
    vertex 62.90382898379615 611.1197170320474 4.598521258158057
    vertex 55.60460697854747 611.1197169232837 4.598521258160244
  endloop
endfacet
facet normal -9.07127513419774e-09 0.6087614290080327 -0.7933533402917631
  outer loop
    vertex 62.90382898379615 611.1197170320474 4.598521258158057
    vertex 55.64842921430826 611.3682450613607 4.7892236052777415
    vertex 62.86000676781822 611.3682451688189 4.789223605275034
  endloop
endfacet
facet normal -1.3766389689002372e-08 0.9238795325117859 0.38268343236388447
  outer loop
    vertex 62.93745495278857 610.929014685431 3.1499931207336473
    vertex 55.54984276876869 610.8091340683447 3.4394102666133763
    vertex 62.9585931205791 610.8091341787413 3.439410266610868
  endloop
endfacet
facet normal -1.3766389689002372e-08 0.9238795325117859 0.38268343236388447
  outer loop
    vertex 55.54984276876869 610.8091340683447 3.4394102666133763
    vertex 62.93745495278857 610.929014685431 3.1499931207336473
    vertex 55.570980926106415 610.9290145756651 3.1499931207363003
  endloop
endfacet
facet normal -9.071307007490781e-09 0.6087614290086938 -0.7933533402912557
  outer loop
    vertex 56.06593035711658 613.7360120205481 1.9822261677698172
    vertex 62.53380185436357 613.2182451639579 1.5849296112727151
    vertex 55.97463403261498 613.2182450662214 1.5849296112752418
  endloop
endfacet
facet normal -9.071307007490781e-09 0.6087614290086938 -0.7933533402912557
  outer loop
    vertex 62.53380185436357 613.2182451639579 1.5849296112727151
    vertex 56.06593035711658 613.7360120205481 1.9822261677698172
    vertex 62.44250557107639 613.7360121155639 1.9822261677674708
  endloop
endfacet
facet normal -9.070759143643189e-09 0.6087614290088819 0.7933533402911114
  outer loop
    vertex 62.90382898379553 611.1197170320478 2.901464983310296
    vertex 55.64842910534413 611.3682450613607 2.710762636194911
    vertex 55.60460688957861 611.1197169232838 2.901464983312462
  endloop
endfacet
facet normal -9.070759143643189e-09 0.6087614290088819 0.7933533402911114
  outer loop
    vertex 55.64842910534413 611.3682450613607 2.710762636194911
    vertex 62.90382898379553 611.1197170320478 2.901464983310296
    vertex 62.8600067678175 611.3682451688188 2.710762636192474
  endloop
endfacet
facet normal -1.376660158640512e-08 0.9238795325111862 -0.38268343236533275
  outer loop
    vertex 56.135984501971826 614.1333085780866 2.499993120736226
    vertex 62.3284136194446 614.3830597266201 3.1029455079777923
    vertex 62.372451469008105 614.1333086710143 2.4999931207342616
  endloop
endfacet
facet normal -1.376660158640512e-08 0.9238795325111862 -0.38268343236533275
  outer loop
    vertex 62.3284136194446 614.3830597266201 3.1029455079777923
    vertex 56.135984501971826 614.1333085780866 2.499993120736226
    vertex 56.18002239297887 614.3830596350044 3.1029455079798733
  endloop
endfacet
facet normal -1.944598384878244e-09 0.13052619222014866 0.9914448613737976
  outer loop
    vertex 62.80897471645382 611.6576623139354 2.5908821291870296
    vertex 55.75422530868641 611.9682450629368 2.549993120736294
    vertex 55.69946116181816 611.6576622079981 2.590882129189331
  endloop
endfacet
facet normal -1.944598384878244e-09 0.13052619222014866 0.9914448613737976
  outer loop
    vertex 55.75422530868641 611.9682450629368 2.549993120736294
    vertex 62.80897471645382 611.6576623139354 2.5908821291870296
    vertex 62.754210579670364 611.9682451672421 2.5499931207338125
  endloop
endfacet
facet normal 1.944617671396662e-09 -0.13052619221990394 -0.9914448613738299
  outer loop
    vertex 55.80898958137573 612.2788279178762 4.90910411228314
    vertex 62.754210579671216 611.9682451672421 4.949993120733966
    vertex 55.75422543450736 611.968245062937 4.949993120736336
  endloop
endfacet
facet normal 1.944617671396662e-09 -0.13052619221990394 -0.9914448613738299
  outer loop
    vertex 62.754210579671216 611.9682451672421 4.949993120733966
    vertex 55.80898958137573 612.2788279178762 4.90910411228314
    vertex 62.69944644288767 612.2788280205496 4.909104112280975
  endloop
endfacet
facet normal 1.4773279264441352e-08 -0.9914448613737861 -0.1305261922202367
  outer loop
    vertex 55.95860797442509 613.1273560575293 4.060575974859264
    vertex 62.54261820337653 613.1682451640895 3.7499931207339987
    vertex 62.5498280387624 613.1273561557438 4.060575974857013
  endloop
endfacet
facet normal 1.4773279264441352e-08 -0.9914448613737861 -0.1305261922202367
  outer loop
    vertex 62.54261820337653 613.1682451640895 3.7499931207339987
    vertex 55.95860797442509 613.1273560575293 4.060575974859264
    vertex 55.965817795138335 613.16824506609 3.749993120736244
  endloop
endfacet
facet normal 1.1821398040786815e-08 -0.7933533402916735 -0.6087614290081493
  outer loop
    vertex 55.90384385361517 612.8167732025903 4.598521258160234
    vertex 62.57096620655307 613.0074756490529 4.349993120733915
    vertex 62.604592175545996 612.816773302437 4.598521258158429
  endloop
endfacet
facet normal 1.1821398040786815e-08 -0.7933533402916735 -0.6087614290081493
  outer loop
    vertex 62.57096620655307 613.0074756490529 4.349993120733915
    vertex 55.90384385361517 612.8167732025903 4.598521258160234
    vertex 55.937469817087354 613.0074755502089 4.349993120736294
  endloop
endfacet
facet normal -1.182135002416242e-08 0.7933533402906726 0.6087614290094536
  outer loop
    vertex 62.90382898379553 611.1197170320478 2.901464983310296
    vertex 55.570980926106415 610.9290145756651 3.1499931207363003
    vertex 62.93745495278857 610.929014685431 3.1499931207336473
  endloop
endfacet
facet normal -1.182135002416242e-08 0.7933533402906726 0.6087614290094536
  outer loop
    vertex 55.570980926106415 610.9290145756651 3.1499931207363003
    vertex 62.90382898379553 611.1197170320478 2.901464983310296
    vertex 55.60460688957861 611.1197169232838 2.901464983312462
  endloop
endfacet
facet normal -1.1821758559314054e-08 0.7933533402914389 -0.608761429008455
  outer loop
    vertex 56.06593035711658 613.7360120205481 1.9822261677698172
    vertex 62.372451469008105 614.1333086710143 2.4999931207342616
    vertex 62.44250557107639 613.7360121155639 1.9822261677674708
  endloop
endfacet
facet normal -1.1821758559314054e-08 0.7933533402914389 -0.608761429008455
  outer loop
    vertex 62.372451469008105 614.1333086710143 2.4999931207342616
    vertex 56.06593035711658 613.7360120205481 1.9822261677698172
    vertex 56.135984501971826 614.1333085780866 2.499993120736226
  endloop
endfacet
facet normal -1.4773271628754252e-08 0.9914448613737246 0.13052619222070366
  outer loop
    vertex 62.9585931205791 610.8091341787413 3.439410266610868
    vertex 55.54263294805543 610.7682450597841 3.749993120736395
    vertex 62.96580295596501 610.768245170395 3.749993120733898
  endloop
endfacet
facet normal -1.4773271628754252e-08 0.9914448613737246 0.13052619222070366
  outer loop
    vertex 55.54263294805543 610.7682450597841 3.749993120736395
    vertex 62.9585931205791 610.8091341787413 3.439410266610868
    vertex 55.54984276876869 610.8091340683447 3.4394102666133763
  endloop
endfacet
facet normal -1.3766389883136323e-08 0.9238795325110997 0.38268343236554136
  outer loop
    vertex 62.328413619444945 614.3830597266207 4.397040733490569
    vertex 56.13598463303534 614.1333085780867 4.999993120736231
    vertex 62.372451469008936 614.1333086710146 4.999993120733741
  endloop
endfacet
facet normal -1.3766389883136323e-08 0.9238795325110997 0.38268343236554136
  outer loop
    vertex 56.13598463303534 614.1333085780867 4.999993120736231
    vertex 62.328413619444945 614.3830597266207 4.397040733490569
    vertex 56.18002246082237 614.3830596350045 4.397040733492507
  endloop
endfacet
facet normal -1.945295193016928e-09 0.13052619222026665 -0.9914448613737822
  outer loop
    vertex 55.75422543450736 611.968245062937 4.949993120736336
    vertex 62.808974716454586 611.6576623139355 4.909104112280613
    vertex 55.699461283351845 611.6576622079981 4.9091041122833206
  endloop
endfacet
facet normal -1.945295193016928e-09 0.13052619222026665 -0.9914448613737822
  outer loop
    vertex 62.808974716454586 611.6576623139355 4.909104112280613
    vertex 55.75422543450736 611.968245062937 4.949993120736336
    vertex 62.754210579671216 611.9682451672421 4.949993120733966
  endloop
endfacet
facet normal -1.981346278774058e-08 0.3826835979025065 0.9238794639434261
  outer loop
    vertex 62.533801854364995 613.2182451639582 5.91505663019565
    vertex 55.86831744436499 612.6152925019369 6.1648078754000375
    vertex 62.64011907089354 612.6152902667482 6.164808990223026
  endloop
endfacet
facet normal -1.981346278774058e-08 0.3826835979025065 0.9238794639434261
  outer loop
    vertex 55.86831744436499 612.6152925019369 6.1648078754000375
    vertex 62.533801854364995 613.2182451639582 5.91505663019565
    vertex 55.97463425962356 613.2182450662215 5.9150566301973635
  endloop
endfacet
facet normal 5.702598949614994e-09 -0.38268343236507674 0.9238795325112922
  outer loop
    vertex 62.69944644288693 612.2788280205491 2.590882129186951
    vertex 55.86002152888554 612.5682450645135 2.710762636194911
    vertex 55.80898945984195 612.2788279178759 2.5908821291893873
  endloop
endfacet
facet normal 5.702598949614994e-09 -0.38268343236507674 0.9238795325112922
  outer loop
    vertex 55.86002152888554 612.5682450645135 2.710762636194911
    vertex 62.69944644288693 612.2788280205491 2.590882129186951
    vertex 62.64841439152331 612.5682451656658 2.710762636192655
  endloop
endfacet
facet normal 7.459148347720287e-08 0.3826829634458589 -0.9238797267438494
  outer loop
    vertex 55.868317223512705 612.6152926853629 1.3351784944738325
    vertex 62.53380185436357 613.2182451639579 1.5849296112727151
    vertex 62.64011865359758 612.6152926333416 1.3351796561277909
  endloop
endfacet
facet normal 7.459148347720287e-08 0.3826829634458589 -0.9238797267438494
  outer loop
    vertex 62.53380185436357 613.2182451639579 1.5849296112727151
    vertex 55.868317223512705 612.6152926853629 1.3351784944738325
    vertex 55.97463403261498 613.2182450662214 1.5849296112752418
  endloop
endfacet
facet normal -1.1443068080098856e-07 0.13052650919855424 0.9914448196427408
  outer loop
    vertex 62.64011907089354 612.6152902667482 6.164808990223026
    vertex 55.754225535305316 611.9682448947908 6.249993858160411
    vertex 62.754211024407184 611.9682426450214 6.249994507826338
  endloop
endfacet
facet normal -1.1443068080098856e-07 0.13052650919855424 0.9914448196427408
  outer loop
    vertex 55.754225535305316 611.9682448947908 6.249993858160411
    vertex 62.64011907089354 612.6152902667482 6.164808990223026
    vertex 55.86831744436499 612.6152925019369 6.1648078754000375
  endloop
endfacet
facet normal -1.0 -1.9650459943106773e-09 -3.164837103497938e-09
  outer loop
    vertex 60.954207154752446 598.9182451933609 4.25214358593747
    vertex 60.954207152218636 601.8182451933609 3.2521435861133114
    vertex 60.954207161082444 598.9182451933609 3.2521435838273476
  endloop
endfacet
facet normal -1.0 -1.9650459943106773e-09 -3.164837103497938e-09
  outer loop
    vertex 60.954207152218636 601.8182451933609 3.2521435861133114
    vertex 60.954207154752446 598.9182451933609 4.25214358593747
    vertex 60.954207152218984 601.8182451933609 4.252143586113309
  endloop
endfacet
facet normal -0.7071067619355336 -6.043733348034759e-10 0.7071068004375611
  outer loop
    vertex 61.45420717965752 601.8182451933609 4.752143586113137
    vertex 60.954207154752446 598.9182451933609 4.25214358593747
    vertex 61.45420718236683 598.4182451933609 4.752143586113137
  endloop
endfacet
facet normal -0.7071067619355336 -6.043733348034759e-10 0.7071068004375611
  outer loop
    vertex 60.954207154752446 598.9182451933609 4.25214358593747
    vertex 61.45420717965752 601.8182451933609 4.752143586113137
    vertex 60.954207152218984 601.8182451933609 4.252143586113309
  endloop
endfacet
facet normal -0.7071067907515052 -1.0016025103310277e-09 -0.7071067716215899
  outer loop
    vertex 60.954207161082444 598.9182451933609 3.2521435838273476
    vertex 61.45420714098036 601.8182451933609 2.75214358611314
    vertex 61.45420714368958 598.4182451933609 2.75214358611314
  endloop
endfacet
facet normal -0.7071067907515052 -1.0016025103310277e-09 -0.7071067716215899
  outer loop
    vertex 61.45420714098036 601.8182451933609 2.75214358611314
    vertex 60.954207161082444 598.9182451933609 3.2521435838273476
    vertex 60.954207152218636 601.8182451933609 3.2521435861133114
  endloop
endfacet
facet normal -0.7071067775726458 -0.7071067848004492 1.0044408065345453e-08
  outer loop
    vertex 60.954207154752446 598.9182451933609 4.25214358593747
    vertex 61.45420714368958 598.4182451933609 2.75214358611314
    vertex 61.45420718236683 598.4182451933609 4.752143586113137
  endloop
endfacet
facet normal -0.7071067775726458 -0.7071067848004492 1.0044408065345453e-08
  outer loop
    vertex 61.45420714368958 598.4182451933609 2.75214358611314
    vertex 60.954207154752446 598.9182451933609 4.25214358593747
    vertex 60.954207161082444 598.9182451933609 3.2521435838273476
  endloop
endfacet
facet normal 0.196116147910494 -0.9805806731364581 5.055739346809863e-09
  outer loop
    vertex 61.45420714104399 601.8182451933609 6.249993120830909
    vertex 60.45420717965752 601.6182451798146 4.752143586113478
    vertex 61.45420717965752 601.8182451933609 4.752143586113137
  endloop
endfacet
facet normal 0.196116147910494 -0.9805806731364581 5.055739346809863e-09
  outer loop
    vertex 60.45420717965752 601.6182451798146 4.752143586113478
    vertex 61.45420714104399 601.8182451933609 6.249993120830909
    vertex 60.454207141043995 601.6182451798146 6.24999312083125
  endloop
endfacet
facet normal 4.2365018302002273e-07 -0.7071077979497877 -0.7071057644217185
  outer loop
    vertex 60.45420714102176 601.6182451798146 1.750006068906273
    vertex 58.05420714104231 602.1182451473037 1.2500032255792342
    vertex 60.4542071410424 602.1182451798146 1.2500060689062735
  endloop
endfacet
facet normal 4.2365018302002273e-07 -0.7071077979497877 -0.7071057644217185
  outer loop
    vertex 58.05420714104231 602.1182451473037 1.2500032255792342
    vertex 60.45420714102176 601.6182451798146 1.750006068906273
    vertex 58.054206978487784 601.6182451798146 1.7500060689070993
  endloop
endfacet
facet normal 0.1961161479104983 -0.9805806731364572 -6.636257528086455e-14
  outer loop
    vertex 59.95420715221901 601.6182451798146 4.25214358611365
    vertex 60.954207152218636 601.8182451933609 3.2521435861133114
    vertex 60.954207152218984 601.8182451933609 4.252143586113309
  endloop
endfacet
facet normal 0.1961161479104983 -0.9805806731364572 -6.636257528086455e-14
  outer loop
    vertex 60.954207152218636 601.8182451933609 3.2521435861133114
    vertex 59.95420715221901 601.6182451798146 4.25214358611365
    vertex 59.954207152218665 601.6182451798146 3.2521435861136525
  endloop
endfacet
facet normal 0.19245010140801067 -0.9622504418658893 -0.19245011196917391
  outer loop
    vertex 60.45420717965752 601.6182451798146 4.752143586113478
    vertex 60.954207152218984 601.8182451933609 4.252143586113309
    vertex 61.45420717965752 601.8182451933609 4.752143586113137
  endloop
endfacet
facet normal 0.19245010140801067 -0.9622504418658893 -0.19245011196917391
  outer loop
    vertex 60.954207152218984 601.8182451933609 4.252143586113309
    vertex 60.45420717965752 601.6182451798146 4.752143586113478
    vertex 59.95420715221901 601.6182451798146 4.25214358611365
  endloop
endfacet
facet normal 0.19611614791049833 -0.9805806731364572 8.096772721876909e-12
  outer loop
    vertex 61.45420714098036 601.8182451933609 2.75214358611314
    vertex 60.45420714102176 601.6182451798146 1.750006068906273
    vertex 61.45420714102173 601.8182451933609 1.750006068905928
  endloop
endfacet
facet normal 0.19611614791049833 -0.9805806731364572 8.096772721876909e-12
  outer loop
    vertex 60.45420714102176 601.6182451798146 1.750006068906273
    vertex 61.45420714098036 601.8182451933609 2.75214358611314
    vertex 60.45420714098039 601.6182451798146 2.7521435861134815
  endloop
endfacet
facet normal 0.19245010195949913 -0.9622504446226638 0.19245009763381343
  outer loop
    vertex 60.954207152218636 601.8182451933609 3.2521435861133114
    vertex 60.45420714098039 601.6182451798146 2.7521435861134815
    vertex 61.45420714098036 601.8182451933609 2.75214358611314
  endloop
endfacet
facet normal 0.19245010195949913 -0.9622504446226638 0.19245009763381343
  outer loop
    vertex 60.45420714098039 601.6182451798146 2.7521435861134815
    vertex 60.954207152218636 601.8182451933609 3.2521435861133114
    vertex 59.954207152218665 601.6182451798146 3.2521435861136525
  endloop
endfacet
facet normal 1.0 8.3084063515915e-09 4.5011616921726565e-09
  outer loop
    vertex 57.054207141042454 601.8182451337577 1.7500060689074437
    vertex 57.05420719031652 598.4182451337578 1.250005571365067
    vertex 57.0542071410423 602.3182451337577 1.2500032255795808
  endloop
endfacet
facet normal 1.0 8.3084063515915e-09 4.5011616921726565e-09
  outer loop
    vertex 57.05420719031652 598.4182451337578 1.250005571365067
    vertex 57.054207141042454 601.8182451337577 1.7500060689074437
    vertex 57.05420714375322 598.4182451337578 6.249993120832421
  endloop
endfacet
facet normal 1.0 8.3084063515915e-09 4.5011616921726565e-09
  outer loop
    vertex 57.05420714375322 598.4182451337578 6.249993120832421
    vertex 57.054207141042454 601.8182451337577 1.7500060689074437
    vertex 57.05420714104391 601.8182451337577 6.249993120832421
  endloop
endfacet
facet normal -0.19611612236612708 -0.9805806782453315 6.32687993055476e-14
  outer loop
    vertex 57.05420714104391 601.8182451337577 6.249993120832421
    vertex 58.054206978487784 601.6182451798146 1.7500060689070993
    vertex 58.054207141043904 601.6182451473038 6.249993120832071
  endloop
endfacet
facet normal -0.19611612236612708 -0.9805806782453315 6.32687993055476e-14
  outer loop
    vertex 58.054206978487784 601.6182451798146 1.7500060689070993
    vertex 57.05420714104391 601.8182451337577 6.249993120832421
    vertex 57.054207141042454 601.8182451337577 1.7500060689074437
  endloop
endfacet
facet normal 6.77316557802442e-09 -1.0 -3.234788233997396e-09
  outer loop
    vertex 60.454207141043995 601.6182451798146 6.24999312083125
    vertex 59.95420715221901 601.6182451798146 4.25214358611365
    vertex 60.45420717965752 601.6182451798146 4.752143586113478
  endloop
endfacet
facet normal 6.77316557802442e-09 -1.0 -3.234788233997396e-09
  outer loop
    vertex 59.95420715221901 601.6182451798146 4.25214358611365
    vertex 60.454207141043995 601.6182451798146 6.24999312083125
    vertex 58.054207141043904 601.6182451473038 6.249993120832071
  endloop
endfacet
facet normal 6.77316557802442e-09 -1.0 -3.234788233997396e-09
  outer loop
    vertex 59.95420715221901 601.6182451798146 4.25214358611365
    vertex 58.054207141043904 601.6182451473038 6.249993120832071
    vertex 59.954207152218665 601.6182451798146 3.2521435861136525
  endloop
endfacet
facet normal 6.77316557802442e-09 -1.0 -3.234788233997396e-09
  outer loop
    vertex 60.45420714098039 601.6182451798146 2.7521435861134815
    vertex 58.054206978487784 601.6182451798146 1.7500060689070993
    vertex 60.45420714102176 601.6182451798146 1.750006068906273
  endloop
endfacet
facet normal 6.77316557802442e-09 -1.0 -3.234788233997396e-09
  outer loop
    vertex 58.054206978487784 601.6182451798146 1.7500060689070993
    vertex 60.45420714098039 601.6182451798146 2.7521435861134815
    vertex 59.954207152218665 601.6182451798146 3.2521435861136525
  endloop
endfacet
facet normal 6.77316557802442e-09 -1.0 -3.234788233997396e-09
  outer loop
    vertex 58.054206978487784 601.6182451798146 1.7500060689070993
    vertex 59.954207152218665 601.6182451798146 3.2521435861136525
    vertex 58.054207141043904 601.6182451473038 6.249993120832071
  endloop
endfacet
facet normal -0.1400283894419843 -0.7001419946291269 -0.7001380131852805
  outer loop
    vertex 58.054206978487784 601.6182451798146 1.7500060689070993
    vertex 57.0542071410423 602.3182451337577 1.2500032255795808
    vertex 58.05420714104231 602.1182451473037 1.2500032255792342
  endloop
endfacet
facet normal -0.1400283894419843 -0.7001419946291269 -0.7001380131852805
  outer loop
    vertex 57.0542071410423 602.3182451337577 1.2500032255795808
    vertex 58.054206978487784 601.6182451798146 1.7500060689070993
    vertex 57.054207141042454 601.8182451337577 1.7500060689074437
  endloop
endfacet
facet normal 0.14002801770145218 -0.7001400410870456 -0.7001400410812338
  outer loop
    vertex 61.45420714102173 601.8182451933609 1.750006068905928
    vertex 60.4542071410424 602.1182451798146 1.2500060689062735
    vertex 61.454207141042374 602.3182451933608 1.250006068905931
  endloop
endfacet
facet normal 0.14002801770145218 -0.7001400410870456 -0.7001400410812338
  outer loop
    vertex 60.4542071410424 602.1182451798146 1.2500060689062735
    vertex 61.45420714102173 601.8182451933609 1.750006068905928
    vertex 60.45420714102176 601.6182451798146 1.750006068906273
  endloop
endfacet
facet normal 3.5738346366611794e-07 -5.229775134249437e-07 -0.9999999999997995
  outer loop
    vertex 55.75422556494727 599.7182391430974 1.2500044638002248
    vertex 57.0542071410423 602.3182451337577 1.2500032255795808
    vertex 57.05420719031652 598.4182451337578 1.250005571365067
  endloop
endfacet
facet normal 3.5738346366611794e-07 -5.229775134249437e-07 -0.9999999999997995
  outer loop
    vertex 57.0542071410423 602.3182451337577 1.2500032255795808
    vertex 55.75422556494727 599.7182391430974 1.2500044638002248
    vertex 55.754225564952186 611.9682450629371 1.249999017839826
  endloop
endfacet
facet normal 3.5738346366611794e-07 -5.229775134249437e-07 -0.9999999999997995
  outer loop
    vertex 57.0542071410423 602.3182451337577 1.2500032255795808
    vertex 55.754225564952186 611.9682450629371 1.249999017839826
    vertex 61.454207141042374 602.3182451933608 1.250006068905931
  endloop
endfacet
facet normal 3.5738346366611794e-07 -5.229775134249437e-07 -0.9999999999997995
  outer loop
    vertex 61.454207141042374 602.3182451933608 1.250006068905931
    vertex 62.754210579669866 599.7182474730138 1.2500066551693212
    vertex 61.454207188453886 598.4182451933608 1.2500078792941602
  endloop
endfacet
facet normal 3.5738346366611794e-07 -5.229775134249437e-07 -0.9999999999997995
  outer loop
    vertex 62.754210579669866 599.7182474730138 1.2500066551693212
    vertex 61.454207141042374 602.3182451933608 1.250006068905931
    vertex 62.754210579669866 611.9682451672423 1.249999887951617
  endloop
endfacet
facet normal 3.5738346366611794e-07 -5.229775134249437e-07 -0.9999999999997995
  outer loop
    vertex 62.754210579669866 611.9682451672423 1.249999887951617
    vertex 61.454207141042374 602.3182451933608 1.250006068905931
    vertex 55.754225564952186 611.9682450629371 1.249999017839826
  endloop
endfacet
facet normal 3.5738346366611794e-07 -5.229775134249437e-07 -0.9999999999997995
  outer loop
    vertex 57.0542071410423 602.3182451337577 1.2500032255795808
    vertex 60.4542071410424 602.1182451798146 1.2500060689062735
    vertex 58.05420714104231 602.1182451473037 1.2500032255792342
  endloop
endfacet
facet normal 3.5738346366611794e-07 -5.229775134249437e-07 -0.9999999999997995
  outer loop
    vertex 60.4542071410424 602.1182451798146 1.2500060689062735
    vertex 57.0542071410423 602.3182451337577 1.2500032255795808
    vertex 61.454207141042374 602.3182451933608 1.250006068905931
  endloop
endfacet
facet normal -0.9999999999995706 7.451818301231756e-07 -5.50990832904406e-07
  outer loop
    vertex 55.2542191123836 600.2182439062301 6.2499931208330075
    vertex 55.254228234670606 609.1326241053656 1.7500042851583477
    vertex 55.25422491968958 600.2182439062301 1.7500042851582998
  endloop
endfacet
facet normal -0.9999999999995706 7.451818301231756e-07 -5.50990832904406e-07
  outer loop
    vertex 55.254228234670606 609.1326241053656 1.7500042851583477
    vertex 55.2542191123836 600.2182439062301 6.2499931208330075
    vertex 55.25422908307049 609.1326241053655 6.2499938119362985
  endloop
endfacet
facet normal 1.4521872879442944e-07 0.13051745364217887 -0.9914460117902237
  outer loop
    vertex 55.868317223512705 612.6152926853629 1.3351784944738325
    vertex 62.754210579669866 611.9682451672423 1.249999887951617
    vertex 55.754225564952186 611.9682450629371 1.249999017839826
  endloop
endfacet
facet normal 1.4521872879442944e-07 0.13051745364217887 -0.9914460117902237
  outer loop
    vertex 62.754210579669866 611.9682451672423 1.249999887951617
    vertex 55.868317223512705 612.6152926853629 1.3351784944738325
    vertex 62.64011865359758 612.6152926333416 1.3351796561277909
  endloop
endfacet
facet normal -1.4751967179508665e-07 -6.744962732660726e-08 0.9999999999999869
  outer loop
    vertex 60.454207141043995 601.6182451798146 6.24999312083125
    vertex 57.05420714104391 601.8182451337577 6.249993120832421
    vertex 58.054207141043904 601.6182451473038 6.249993120832071
  endloop
endfacet
facet normal -1.4751967179508665e-07 -6.744962732660726e-08 0.9999999999999869
  outer loop
    vertex 57.05420714104391 601.8182451337577 6.249993120832421
    vertex 60.454207141043995 601.6182451798146 6.24999312083125
    vertex 61.45420714104399 601.8182451933609 6.249993120830909
  endloop
endfacet
facet normal -1.4751967179508665e-07 -6.744962732660726e-08 0.9999999999999869
  outer loop
    vertex 63.25422441636745 600.2182470454896 6.249995767232052
    vertex 61.45420714104399 601.8182451933609 6.249993120830909
    vertex 61.45420717481697 598.4182451936657 6.249993096678504
  endloop
endfacet
facet normal -1.4751967179508665e-07 -6.744962732660726e-08 0.9999999999999869
  outer loop
    vertex 61.45420714104399 601.8182451933609 6.249993120830909
    vertex 63.25422441636745 600.2182470454896 6.249995767232052
    vertex 63.25422812244019 609.1325047674495 6.249994694427638
  endloop
endfacet
facet normal -1.4751967179508665e-07 -6.744962732660726e-08 0.9999999999999869
  outer loop
    vertex 57.05420714104391 601.8182451337577 6.249993120832421
    vertex 55.2542191123836 600.2182439062301 6.2499931208330075
    vertex 57.05420714375322 598.4182451337578 6.249993120832421
  endloop
endfacet
facet normal -1.4751967179508665e-07 -6.744962732660726e-08 0.9999999999999869
  outer loop
    vertex 55.2542191123836 600.2182439062301 6.2499931208330075
    vertex 57.05420714104391 601.8182451337577 6.249993120832421
    vertex 55.25422908307049 609.1326241053655 6.2499938119362985
  endloop
endfacet
facet normal -1.4751967179508665e-07 -6.744962732660726e-08 0.9999999999999869
  outer loop
    vertex 55.25422908307049 609.1326241053655 6.2499938119362985
    vertex 57.05420714104391 601.8182451337577 6.249993120832421
    vertex 61.45420714104399 601.8182451933609 6.249993120830909
  endloop
endfacet
facet normal -1.4751967179508665e-07 -6.744962732660726e-08 0.9999999999999869
  outer loop
    vertex 55.25422908307049 609.1326241053655 6.2499938119362985
    vertex 61.45420714104399 601.8182451933609 6.249993120830909
    vertex 63.25422812244019 609.1325047674495 6.249994694427638
  endloop
endfacet
facet normal -1.4751967179508665e-07 -6.744962732660726e-08 0.9999999999999869
  outer loop
    vertex 55.25422908307049 609.1326241053655 6.2499938119362985
    vertex 63.25422812244019 609.1325047674495 6.249994694427638
    vertex 62.754211024407184 611.9682426450214 6.249994507826338
  endloop
endfacet
facet normal -1.4751967179508665e-07 -6.744962732660726e-08 0.9999999999999869
  outer loop
    vertex 55.25422908307049 609.1326241053655 6.2499938119362985
    vertex 62.754211024407184 611.9682426450214 6.249994507826338
    vertex 55.754225535305316 611.9682448947908 6.249993858160411
  endloop
endfacet
facet normal 0.9848077530122054 0.17364817766694646 -3.3843302432105004e-13
  outer loop
    vertex 62.372451469008105 614.1333086710143 2.4999931207342616
    vertex 62.69944644288693 612.2788280205491 2.590882129186951
    vertex 62.754210579670364 611.9682451672421 2.5499931207338125
  endloop
endfacet
facet normal 0.9848077530122054 0.17364817766694646 -3.3843302432105004e-13
  outer loop
    vertex 62.69944644288693 612.2788280205491 2.590882129186951
    vertex 62.372451469008105 614.1333086710143 2.4999931207342616
    vertex 62.3284136194446 614.3830597266201 3.1029455079777923
  endloop
endfacet
facet normal 0.9848077530122054 0.17364817766694646 -3.3843302432105004e-13
  outer loop
    vertex 62.69944644288693 612.2788280205491 2.590882129186951
    vertex 62.3284136194446 614.3830597266201 3.1029455079777923
    vertex 62.64841439152331 612.5682451656658 2.710762636192655
  endloop
endfacet
facet normal 0.9848077530122054 0.17364817766694646 -3.3843302432105004e-13
  outer loop
    vertex 62.64841439152331 612.5682451656658 2.710762636192655
    vertex 62.3284136194446 614.3830597266201 3.1029455079777923
    vertex 62.60459217554544 612.8167733024367 2.901464983310238
  endloop
endfacet
facet normal 0.9848077530122054 0.17364817766694646 -3.3843302432105004e-13
  outer loop
    vertex 62.60459217554544 612.8167733024367 2.901464983310238
    vertex 62.3284136194446 614.3830597266201 3.1029455079777923
    vertex 62.57096620655265 613.007475649053 3.1499931207340928
  endloop
endfacet
facet normal 0.9848077530122054 0.17364817766694646 -3.3843302432105004e-13
  outer loop
    vertex 62.57096620655265 613.007475649053 3.1499931207340928
    vertex 62.3284136194446 614.3830597266201 3.1029455079777923
    vertex 62.31339312905783 614.4682451606735 3.7499931207341133
  endloop
endfacet
facet normal 0.9848077530122054 0.17364817766694646 -3.3843302432105004e-13
  outer loop
    vertex 62.57096620655265 613.007475649053 3.1499931207340928
    vertex 62.31339312905783 614.4682451606735 3.7499931207341133
    vertex 62.549828038762186 613.1273561557438 3.4394102666109596
  endloop
endfacet
facet normal 0.9848077530122054 0.17364817766694646 -3.3843302432105004e-13
  outer loop
    vertex 62.549828038762186 613.1273561557438 3.4394102666109596
    vertex 62.31339312905783 614.4682451606735 3.7499931207341133
    vertex 62.54261820337653 613.1682451640895 3.7499931207339987
  endloop
endfacet
facet normal 0.9848077530122054 0.17364817766694646 -3.3843302432105004e-13
  outer loop
    vertex 62.54261820337653 613.1682451640895 3.7499931207339987
    vertex 62.31339312905783 614.4682451606735 3.7499931207341133
    vertex 62.5498280387624 613.1273561557438 4.060575974857013
  endloop
endfacet
facet normal 0.9848077530122054 0.17364817766694646 -3.3843302432105004e-13
  outer loop
    vertex 62.5498280387624 613.1273561557438 4.060575974857013
    vertex 62.31339312905783 614.4682451606735 3.7499931207341133
    vertex 62.328413619444945 614.3830597266207 4.397040733490569
  endloop
endfacet
facet normal 0.9848077530122054 0.17364817766694646 -3.3843302432105004e-13
  outer loop
    vertex 62.5498280387624 613.1273561557438 4.060575974857013
    vertex 62.328413619444945 614.3830597266207 4.397040733490569
    vertex 62.57096620655307 613.0074756490529 4.349993120733915
  endloop
endfacet
facet normal 0.9848077530122054 0.17364817766694646 -3.3843302432105004e-13
  outer loop
    vertex 62.57096620655307 613.0074756490529 4.349993120733915
    vertex 62.328413619444945 614.3830597266207 4.397040733490569
    vertex 62.604592175545996 612.816773302437 4.598521258158429
  endloop
endfacet
facet normal 0.9848077530122054 0.17364817766694646 -3.3843302432105004e-13
  outer loop
    vertex 62.604592175545996 612.816773302437 4.598521258158429
    vertex 62.328413619444945 614.3830597266207 4.397040733490569
    vertex 62.372451469008936 614.1333086710146 4.999993120733741
  endloop
endfacet
facet normal 0.9848077530122054 0.17364817766694646 -3.3843302432105004e-13
  outer loop
    vertex 62.604592175545996 612.816773302437 4.598521258158429
    vertex 62.372451469008936 614.1333086710146 4.999993120733741
    vertex 62.64841439152397 612.5682451656661 4.7892236052758905
  endloop
endfacet
facet normal 0.9848077530122054 0.17364817766694646 -3.3843302432105004e-13
  outer loop
    vertex 62.64841439152397 612.5682451656661 4.7892236052758905
    vertex 62.372451469008936 614.1333086710146 4.999993120733741
    vertex 62.69944644288767 612.2788280205496 4.909104112280975
  endloop
endfacet
facet normal 0.9848077530122054 0.17364817766694646 -3.3843302432105004e-13
  outer loop
    vertex 62.69944644288767 612.2788280205496 4.909104112280975
    vertex 62.372451469008936 614.1333086710146 4.999993120733741
    vertex 62.754210579671216 611.9682451672421 4.949993120733966
  endloop
endfacet
facet normal 0.9848077530122054 0.17364817766694646 -3.3843302432105004e-13
  outer loop
    vertex 62.64011865359758 612.6152926333416 1.3351796561277909
    vertex 63.25422812243865 609.1325047674495 1.7500080587050795
    vertex 62.754210579669866 611.9682451672423 1.249999887951617
  endloop
endfacet
facet normal 0.9848077530122054 0.17364817766694646 -3.3843302432105004e-13
  outer loop
    vertex 63.25422812243865 609.1325047674495 1.7500080587050795
    vertex 62.64011865359758 612.6152926333416 1.3351796561277909
    vertex 62.53380185436357 613.2182451639579 1.5849296112727151
  endloop
endfacet
facet normal 0.9848077530122054 0.17364817766694646 -3.3843302432105004e-13
  outer loop
    vertex 63.25422812243865 609.1325047674495 1.7500080587050795
    vertex 62.53380185436357 613.2182451639579 1.5849296112727151
    vertex 62.44250557107639 613.7360121155639 1.9822261677674708
  endloop
endfacet
facet normal 0.9848077530122054 0.17364817766694646 -3.3843302432105004e-13
  outer loop
    vertex 63.25422812243865 609.1325047674495 1.7500080587050795
    vertex 62.44250557107639 613.7360121155639 1.9822261677674708
    vertex 62.80897471645382 611.6576623139354 2.5908821291870296
  endloop
endfacet
facet normal 0.9848077530122054 0.17364817766694646 -3.3843302432105004e-13
  outer loop
    vertex 63.25422812243865 609.1325047674495 1.7500080587050795
    vertex 62.80897471645382 611.6576623139354 2.5908821291870296
    vertex 62.8600067678175 611.3682451688188 2.710762636192474
  endloop
endfacet
facet normal 0.9848077530122054 0.17364817766694646 -3.3843302432105004e-13
  outer loop
    vertex 63.25422812243865 609.1325047674495 1.7500080587050795
    vertex 62.8600067678175 611.3682451688188 2.710762636192474
    vertex 62.90382898379553 611.1197170320478 2.901464983310296
  endloop
endfacet
facet normal 0.9848077530122054 0.17364817766694646 -3.3843302432105004e-13
  outer loop
    vertex 63.25422812243865 609.1325047674495 1.7500080587050795
    vertex 62.90382898379553 611.1197170320478 2.901464983310296
    vertex 62.93745495278857 610.929014685431 3.1499931207336473
  endloop
endfacet
facet normal 0.9848077530122054 0.17364817766694646 -3.3843302432105004e-13
  outer loop
    vertex 63.25422812243865 609.1325047674495 1.7500080587050795
    vertex 62.93745495278857 610.929014685431 3.1499931207336473
    vertex 63.25422812244019 609.1325047674495 6.249994694427638
  endloop
endfacet
facet normal 0.9848077530122054 0.17364817766694646 -3.3843302432105004e-13
  outer loop
    vertex 62.80897471645382 611.6576623139354 2.5908821291870296
    vertex 62.44250557107639 613.7360121155639 1.9822261677674708
    vertex 62.754210579670364 611.9682451672421 2.5499931207338125
  endloop
endfacet
facet normal 0.9848077530122054 0.17364817766694646 -3.3843302432105004e-13
  outer loop
    vertex 62.754210579670364 611.9682451672421 2.5499931207338125
    vertex 62.44250557107639 613.7360121155639 1.9822261677674708
    vertex 62.372451469008105 614.1333086710143 2.4999931207342616
  endloop
endfacet
facet normal 0.9848077530122054 0.17364817766694646 -3.3843302432105004e-13
  outer loop
    vertex 63.25422812244019 609.1325047674495 6.249994694427638
    vertex 62.93745495278857 610.929014685431 3.1499931207336473
    vertex 62.9585931205791 610.8091341787413 3.439410266610868
  endloop
endfacet
facet normal 0.9848077530122054 0.17364817766694646 -3.3843302432105004e-13
  outer loop
    vertex 63.25422812244019 609.1325047674495 6.249994694427638
    vertex 62.9585931205791 610.8091341787413 3.439410266610868
    vertex 62.96580295596501 610.768245170395 3.749993120733898
  endloop
endfacet
facet normal 0.9848077530122054 0.17364817766694646 -3.3843302432105004e-13
  outer loop
    vertex 63.25422812244019 609.1325047674495 6.249994694427638
    vertex 62.96580295596501 610.768245170395 3.749993120733898
    vertex 62.95859312057937 610.8091341787407 4.0605759748569135
  endloop
endfacet
facet normal 0.9848077530122054 0.17364817766694646 -3.3843302432105004e-13
  outer loop
    vertex 63.25422812244019 609.1325047674495 6.249994694427638
    vertex 62.95859312057937 610.8091341787407 4.0605759748569135
    vertex 62.937454952788976 610.9290146854311 4.349993120734201
  endloop
endfacet
facet normal 0.9848077530122054 0.17364817766694646 -3.3843302432105004e-13
  outer loop
    vertex 63.25422812244019 609.1325047674495 6.249994694427638
    vertex 62.937454952788976 610.9290146854311 4.349993120734201
    vertex 62.90382898379615 611.1197170320474 4.598521258158057
  endloop
endfacet
facet normal 0.9848077530122054 0.17364817766694646 -3.3843302432105004e-13
  outer loop
    vertex 63.25422812244019 609.1325047674495 6.249994694427638
    vertex 62.90382898379615 611.1197170320474 4.598521258158057
    vertex 62.86000676781822 611.3682451688189 4.789223605275034
  endloop
endfacet
facet normal 0.9848077530122054 0.17364817766694646 -3.3843302432105004e-13
  outer loop
    vertex 63.25422812244019 609.1325047674495 6.249994694427638
    vertex 62.86000676781822 611.3682451688189 4.789223605275034
    vertex 62.808974716454586 611.6576623139355 4.909104112280613
  endloop
endfacet
facet normal 0.9848077530122054 0.17364817766694646 -3.3843302432105004e-13
  outer loop
    vertex 63.25422812244019 609.1325047674495 6.249994694427638
    vertex 62.808974716454586 611.6576623139355 4.909104112280613
    vertex 62.754210579671216 611.9682451672421 4.949993120733966
  endloop
endfacet
facet normal 0.9848077530122054 0.17364817766694646 -3.3843302432105004e-13
  outer loop
    vertex 63.25422812244019 609.1325047674495 6.249994694427638
    vertex 62.754210579671216 611.9682451672421 4.949993120733966
    vertex 62.372451469008936 614.1333086710146 4.999993120733741
  endloop
endfacet
facet normal 0.9848077530122054 0.17364817766694646 -3.3843302432105004e-13
  outer loop
    vertex 63.25422812244019 609.1325047674495 6.249994694427638
    vertex 62.372451469008936 614.1333086710146 4.999993120733741
    vertex 62.44250557107764 613.7360121155635 5.517760073700072
  endloop
endfacet
facet normal 0.9848077530122054 0.17364817766694646 -3.3843302432105004e-13
  outer loop
    vertex 63.25422812244019 609.1325047674495 6.249994694427638
    vertex 62.44250557107764 613.7360121155635 5.517760073700072
    vertex 62.533801854364995 613.2182451639582 5.91505663019565
  endloop
endfacet
facet normal 0.9848077530122054 0.17364817766694646 -3.3843302432105004e-13
  outer loop
    vertex 63.25422812244019 609.1325047674495 6.249994694427638
    vertex 62.533801854364995 613.2182451639582 5.91505663019565
    vertex 62.64011907089354 612.6152902667482 6.164808990223026
  endloop
endfacet
facet normal 0.9848077530122054 0.17364817766694646 -3.3843302432105004e-13
  outer loop
    vertex 63.25422812244019 609.1325047674495 6.249994694427638
    vertex 62.64011907089354 612.6152902667482 6.164808990223026
    vertex 62.754211024407184 611.9682426450214 6.249994507826338
  endloop
endfacet
facet normal -0.9848077437746602 0.17364823005564783 6.4069818775774e-08
  outer loop
    vertex 55.254228234670606 609.1326241053656 1.7500042851583477
    vertex 55.868317223512705 612.6152926853629 1.3351784944738325
    vertex 55.754225564952186 611.9682450629371 1.249999017839826
  endloop
endfacet
facet normal -0.9848077437746602 0.17364823005564783 6.4069818775774e-08
  outer loop
    vertex 55.868317223512705 612.6152926853629 1.3351784944738325
    vertex 55.254228234670606 609.1326241053656 1.7500042851583477
    vertex 55.97463403261498 613.2182450662214 1.5849296112752418
  endloop
endfacet
facet normal -0.9848077437746602 0.17364823005564783 6.4069818775774e-08
  outer loop
    vertex 55.97463403261498 613.2182450662214 1.5849296112752418
    vertex 55.254228234670606 609.1326241053656 1.7500042851583477
    vertex 56.06593035711658 613.7360120205481 1.9822261677698172
  endloop
endfacet
facet normal -0.9848077437746602 0.17364823005564783 6.4069818775774e-08
  outer loop
    vertex 56.06593035711658 613.7360120205481 1.9822261677698172
    vertex 55.254228234670606 609.1326241053656 1.7500042851583477
    vertex 55.69946116181816 611.6576622079981 2.590882129189331
  endloop
endfacet
facet normal -0.9848077437746602 0.17364823005564783 6.4069818775774e-08
  outer loop
    vertex 55.69946116181816 611.6576622079981 2.590882129189331
    vertex 55.254228234670606 609.1326241053656 1.7500042851583477
    vertex 55.64842910534413 611.3682450613607 2.710762636194911
  endloop
endfacet
facet normal -0.9848077437746602 0.17364823005564783 6.4069818775774e-08
  outer loop
    vertex 55.64842910534413 611.3682450613607 2.710762636194911
    vertex 55.254228234670606 609.1326241053656 1.7500042851583477
    vertex 55.60460688957861 611.1197169232838 2.901464983312462
  endloop
endfacet
facet normal -0.9848077437746602 0.17364823005564783 6.4069818775774e-08
  outer loop
    vertex 55.60460688957861 611.1197169232838 2.901464983312462
    vertex 55.254228234670606 609.1326241053656 1.7500042851583477
    vertex 55.570980926106415 610.9290145756651 3.1499931207363003
  endloop
endfacet
facet normal -0.9848077437746602 0.17364823005564783 6.4069818775774e-08
  outer loop
    vertex 55.570980926106415 610.9290145756651 3.1499931207363003
    vertex 55.254228234670606 609.1326241053656 1.7500042851583477
    vertex 55.25422908307049 609.1326241053655 6.2499938119362985
  endloop
endfacet
facet normal -0.9848077437746602 0.17364823005564783 6.4069818775774e-08
  outer loop
    vertex 56.06593035711658 613.7360120205481 1.9822261677698172
    vertex 55.69946116181816 611.6576622079981 2.590882129189331
    vertex 55.75422530868641 611.9682450629368 2.549993120736294
  endloop
endfacet
facet normal -0.9848077437746602 0.17364823005564783 6.4069818775774e-08
  outer loop
    vertex 56.06593035711658 613.7360120205481 1.9822261677698172
    vertex 55.75422530868641 611.9682450629368 2.549993120736294
    vertex 56.135984501971826 614.1333085780866 2.499993120736226
  endloop
endfacet
facet normal -0.9848077437746602 0.17364823005564783 6.4069818775774e-08
  outer loop
    vertex 55.570980926106415 610.9290145756651 3.1499931207363003
    vertex 55.25422908307049 609.1326241053655 6.2499938119362985
    vertex 55.54984276876869 610.8091340683447 3.4394102666133763
  endloop
endfacet
facet normal -0.9848077437746602 0.17364823005564783 6.4069818775774e-08
  outer loop
    vertex 55.54984276876869 610.8091340683447 3.4394102666133763
    vertex 55.25422908307049 609.1326241053655 6.2499938119362985
    vertex 55.54263294805543 610.7682450597841 3.749993120736395
  endloop
endfacet
facet normal -0.9848077437746602 0.17364823005564783 6.4069818775774e-08
  outer loop
    vertex 55.54263294805543 610.7682450597841 3.749993120736395
    vertex 55.25422908307049 609.1326241053655 6.2499938119362985
    vertex 55.54984280133354 610.8091340683446 4.060575974859416
  endloop
endfacet
facet normal -0.9848077437746602 0.17364823005564783 6.4069818775774e-08
  outer loop
    vertex 55.54984280133354 610.8091340683446 4.060575974859416
    vertex 55.25422908307049 609.1326241053655 6.2499938119362985
    vertex 55.570980989016924 610.9290145756652 4.349993120736412
  endloop
endfacet
facet normal -0.9848077437746602 0.17364823005564783 6.4069818775774e-08
  outer loop
    vertex 55.570980989016924 610.9290145756652 4.349993120736412
    vertex 55.25422908307049 609.1326241053655 6.2499938119362985
    vertex 55.60460697854747 611.1197169232837 4.598521258160244
  endloop
endfacet
facet normal -0.9848077437746602 0.17364823005564783 6.4069818775774e-08
  outer loop
    vertex 55.60460697854747 611.1197169232837 4.598521258160244
    vertex 55.25422908307049 609.1326241053655 6.2499938119362985
    vertex 55.64842921430826 611.3682450613607 4.7892236052777415
  endloop
endfacet
facet normal -0.9848077437746602 0.17364823005564783 6.4069818775774e-08
  outer loop
    vertex 55.64842921430826 611.3682450613607 4.7892236052777415
    vertex 55.25422908307049 609.1326241053655 6.2499938119362985
    vertex 55.699461283351845 611.6576622079981 4.9091041122833206
  endloop
endfacet
facet normal -0.9848077437746602 0.17364823005564783 6.4069818775774e-08
  outer loop
    vertex 55.699461283351845 611.6576622079981 4.9091041122833206
    vertex 55.25422908307049 609.1326241053655 6.2499938119362985
    vertex 55.75422543450736 611.968245062937 4.949993120736336
  endloop
endfacet
facet normal -0.9848077437746602 0.17364823005564783 6.4069818775774e-08
  outer loop
    vertex 55.75422543450736 611.968245062937 4.949993120736336
    vertex 55.25422908307049 609.1326241053655 6.2499938119362985
    vertex 56.13598463303534 614.1333085780867 4.999993120736231
  endloop
endfacet
facet normal -0.9848077437746602 0.17364823005564783 6.4069818775774e-08
  outer loop
    vertex 56.13598463303534 614.1333085780867 4.999993120736231
    vertex 55.25422908307049 609.1326241053655 6.2499938119362985
    vertex 56.0659305424683 613.7360120205482 5.517760073702623
  endloop
endfacet
facet normal -0.9848077437746602 0.17364823005564783 6.4069818775774e-08
  outer loop
    vertex 56.0659305424683 613.7360120205482 5.517760073702623
    vertex 55.25422908307049 609.1326241053655 6.2499938119362985
    vertex 55.97463425962356 613.2182450662215 5.9150566301973635
  endloop
endfacet
facet normal -0.9848077437746602 0.17364823005564783 6.4069818775774e-08
  outer loop
    vertex 55.97463425962356 613.2182450662215 5.9150566301973635
    vertex 55.25422908307049 609.1326241053655 6.2499938119362985
    vertex 55.86831744436499 612.6152925019369 6.1648078754000375
  endloop
endfacet
facet normal -0.9848077437746602 0.17364823005564783 6.4069818775774e-08
  outer loop
    vertex 55.86831744436499 612.6152925019369 6.1648078754000375
    vertex 55.25422908307049 609.1326241053655 6.2499938119362985
    vertex 55.754225535305316 611.9682448947908 6.249993858160411
  endloop
endfacet
facet normal -0.9848077437746602 0.17364823005564783 6.4069818775774e-08
  outer loop
    vertex 56.135984501971826 614.1333085780866 2.499993120736226
    vertex 55.80898945984195 612.2788279178759 2.5908821291893873
    vertex 56.18002239297887 614.3830596350044 3.1029455079798733
  endloop
endfacet
facet normal -0.9848077437746602 0.17364823005564783 6.4069818775774e-08
  outer loop
    vertex 55.80898945984195 612.2788279178759 2.5908821291893873
    vertex 56.135984501971826 614.1333085780866 2.499993120736226
    vertex 55.75422530868641 611.9682450629368 2.549993120736294
  endloop
endfacet
facet normal -0.9848077437746602 0.17364823005564783 6.4069818775774e-08
  outer loop
    vertex 56.18002239297887 614.3830596350044 3.1029455079798733
    vertex 55.80898945984195 612.2788279178759 2.5908821291893873
    vertex 55.86002152888554 612.5682450645135 2.710762636194911
  endloop
endfacet
facet normal -0.9848077437746602 0.17364823005564783 6.4069818775774e-08
  outer loop
    vertex 56.18002239297887 614.3830596350044 3.1029455079798733
    vertex 55.86002152888554 612.5682450645135 2.710762636194911
    vertex 55.90384376464632 612.8167732025904 2.90146498331244
  endloop
endfacet
facet normal -0.9848077437746602 0.17364823005564783 6.4069818775774e-08
  outer loop
    vertex 56.18002239297887 614.3830596350044 3.1029455079798733
    vertex 55.90384376464632 612.8167732025904 2.90146498331244
    vertex 55.93746975417688 613.0074755502088 3.149993120736261
  endloop
endfacet
facet normal -0.9848077437746602 0.17364823005564783 6.4069818775774e-08
  outer loop
    vertex 56.18002239297887 614.3830596350044 3.1029455079798733
    vertex 55.93746975417688 613.0074755502088 3.149993120736261
    vertex 56.19504292064157 614.4682450695055 3.749993120736181
  endloop
endfacet
facet normal -0.9848077437746602 0.17364823005564783 6.4069818775774e-08
  outer loop
    vertex 56.19504292064157 614.4682450695055 3.749993120736181
    vertex 55.93746975417688 613.0074755502088 3.149993120736261
    vertex 55.958607941860244 613.1273560575294 3.4394102666132143
  endloop
endfacet
facet normal -0.9848077437746602 0.17364823005564783 6.4069818775774e-08
  outer loop
    vertex 56.19504292064157 614.4682450695055 3.749993120736181
    vertex 55.958607941860244 613.1273560575294 3.4394102666132143
    vertex 55.965817795138335 613.16824506609 3.749993120736244
  endloop
endfacet
facet normal -0.9848077437746602 0.17364823005564783 6.4069818775774e-08
  outer loop
    vertex 56.19504292064157 614.4682450695055 3.749993120736181
    vertex 55.965817795138335 613.16824506609 3.749993120736244
    vertex 55.95860797442509 613.1273560575293 4.060575974859264
  endloop
endfacet
facet normal -0.9848077437746602 0.17364823005564783 6.4069818775774e-08
  outer loop
    vertex 56.19504292064157 614.4682450695055 3.749993120736181
    vertex 55.95860797442509 613.1273560575293 4.060575974859264
    vertex 56.18002246082237 614.3830596350045 4.397040733492507
  endloop
endfacet
facet normal -0.9848077437746602 0.17364823005564783 6.4069818775774e-08
  outer loop
    vertex 56.18002246082237 614.3830596350045 4.397040733492507
    vertex 55.95860797442509 613.1273560575293 4.060575974859264
    vertex 55.937469817087354 613.0074755502089 4.349993120736294
  endloop
endfacet
facet normal -0.9848077437746602 0.17364823005564783 6.4069818775774e-08
  outer loop
    vertex 56.18002246082237 614.3830596350045 4.397040733492507
    vertex 55.937469817087354 613.0074755502089 4.349993120736294
    vertex 55.90384385361517 612.8167732025903 4.598521258160234
  endloop
endfacet
facet normal -0.9848077437746602 0.17364823005564783 6.4069818775774e-08
  outer loop
    vertex 56.18002246082237 614.3830596350045 4.397040733492507
    vertex 55.90384385361517 612.8167732025903 4.598521258160234
    vertex 56.13598463303534 614.1333085780867 4.999993120736231
  endloop
endfacet
facet normal -0.9848077437746602 0.17364823005564783 6.4069818775774e-08
  outer loop
    vertex 56.13598463303534 614.1333085780867 4.999993120736231
    vertex 55.90384385361517 612.8167732025903 4.598521258160234
    vertex 55.860021637849684 612.5682450645135 4.789223605277695
  endloop
endfacet
facet normal -0.9848077437746602 0.17364823005564783 6.4069818775774e-08
  outer loop
    vertex 56.13598463303534 614.1333085780867 4.999993120736231
    vertex 55.860021637849684 612.5682450645135 4.789223605277695
    vertex 55.80898958137573 612.2788279178762 4.90910411228314
  endloop
endfacet
facet normal -0.9848077437746602 0.17364823005564783 6.4069818775774e-08
  outer loop
    vertex 56.13598463303534 614.1333085780867 4.999993120736231
    vertex 55.80898958137573 612.2788279178762 4.90910411228314
    vertex 55.75422543450736 611.968245062937 4.949993120736336
  endloop
endfacet
facet normal -0.7071091623714396 -1.1448336396563708e-07 -0.7071043999936276
  outer loop
    vertex 55.75422556494727 599.7182391430974 1.2500044638002248
    vertex 55.254228234670606 609.1326241053656 1.7500042851583477
    vertex 55.754225564952186 611.9682450629371 1.249999017839826
  endloop
endfacet
facet normal -0.7071091623714396 -1.1448336396563708e-07 -0.7071043999936276
  outer loop
    vertex 55.254228234670606 609.1326241053656 1.7500042851583477
    vertex 55.75422556494727 599.7182391430974 1.2500044638002248
    vertex 55.25422491968958 600.2182439062301 1.7500042851582998
  endloop
endfacet
facet normal 0.9999999999999156 -4.1066831844462257e-07 1.0059578496692343e-08
  outer loop
    vertex 63.25422812243865 609.1325047674495 1.7500080587050795
    vertex 63.25422441636745 600.2182470454896 6.249995767232052
    vertex 63.25422450690493 600.2182470454896 1.750006457536195
  endloop
endfacet
facet normal 0.9999999999999156 -4.1066831844462257e-07 1.0059578496692343e-08
  outer loop
    vertex 63.25422441636745 600.2182470454896 6.249995767232052
    vertex 63.25422812243865 609.1325047674495 1.7500080587050795
    vertex 63.25422812244019 609.1325047674495 6.249994694427638
  endloop
endfacet
facet normal 0.7070981110405289 -3.107072898082726e-07 -0.7071154512261907
  outer loop
    vertex 62.754210579669866 611.9682451672423 1.249999887951617
    vertex 63.25422450690493 600.2182470454896 1.750006457536195
    vertex 62.754210579669866 599.7182474730138 1.2500066551693212
  endloop
endfacet
facet normal 0.7070981110405289 -3.107072898082726e-07 -0.7071154512261907
  outer loop
    vertex 63.25422450690493 600.2182470454896 1.750006457536195
    vertex 62.754210579669866 611.9682451672423 1.249999887951617
    vertex 63.25422812243865 609.1325047674495 1.7500080587050795
  endloop
endfacet
endsolid Indexer
