solid Indexer
facet normal -1.0 -5.365042577679609e-09 -1.5409890080370753e-08
  outer loop
    vertex 188.464224311116 607.929042095841 23.299988429920553
    vertex 188.46422431595653 611.3290420955361 21.802138919355183
    vertex 188.46422431866586 607.9290420955363 21.802138919355183
  endloop
endfacet
facet normal -1.0 -5.365042577679609e-09 -1.5409890080370753e-08
  outer loop
    vertex 188.46422431595653 611.3290420955361 21.802138919355183
    vertex 188.464224311116 607.929042095841 23.299988429920553
    vertex 188.46422427734302 611.3290420955361 23.299988454072956
  endloop
endfacet
facet normal 0.7071044919122113 -0.7071090704532844 -5.155325874852209e-07
  outer loop
    vertex 190.26424155266648 609.729043947665 23.2999911004741
    vertex 190.2642369928438 609.7290439476652 18.409868969226576
    vertex 190.2642415526649 609.729043947665 18.463871494745575
  endloop
endfacet
facet normal 0.7071044919122113 -0.7071090704532844 -5.155325874852209e-07
  outer loop
    vertex 190.2642369928438 609.7290439476652 18.409868969226576
    vertex 190.26424155266648 609.729043947665 23.2999911004741
    vertex 188.464224311116 607.929042095841 23.299988429920553
  endloop
endfacet
facet normal 0.7071044919122113 -0.7071090704532844 -5.155325874852209e-07
  outer loop
    vertex 190.2642369928438 609.7290439476652 18.409868969226576
    vertex 188.464224311116 607.929042095841 23.299988429920553
    vertex 190.26422771596873 609.7290439476657 18.30000179097221
  endloop
endfacet
facet normal 0.7071044919122113 -0.7071090704532844 -5.155325874852209e-07
  outer loop
    vertex 190.26422771596873 609.7290439476657 18.30000179097221
    vertex 188.464224311116 607.929042095841 23.299988429920553
    vertex 188.46422431866586 607.9290420955363 21.802138919355183
  endloop
endfacet
facet normal 0.7071044919122113 -0.7071090704532844 -5.155325874852209e-07
  outer loop
    vertex 190.26422771596873 609.7290439476657 18.30000179097221
    vertex 188.46422431866586 607.9290420955363 21.802138919355183
    vertex 188.46422432475293 607.9290420955361 18.300003212536208
  endloop
endfacet
facet normal 0.7071044919122113 -0.7071090704532844 -5.155325874852209e-07
  outer loop
    vertex 188.46422427998863 607.9290420955363 19.802138919355187
    vertex 188.46422432475293 607.9290420955361 18.300003212536208
    vertex 188.46422431866586 607.9290420955363 21.802138919355183
  endloop
endfacet
facet normal -0.707109520074054 -0.707104042288283 -4.595605927593459e-07
  outer loop
    vertex 184.06422432661554 607.9290420359331 18.300000904607113
    vertex 182.26423624868264 609.7290408084054 23.299988454075056
    vertex 182.26424270124645 609.7290408084054 18.29999961840076
  endloop
endfacet
facet normal -0.707109520074054 -0.707104042288283 -4.595605927593459e-07
  outer loop
    vertex 182.26423624868264 609.7290408084054 23.299988454075056
    vertex 184.06422432661554 607.9290420359331 18.300000904607113
    vertex 184.06422428005223 607.9290420359331 23.29998845407447
  endloop
endfacet
facet normal -1.0 -7.370699660208509e-09 -1.4920845171028034e-08
  outer loop
    vertex 188.46422432475293 607.9290420955361 18.300003212536208
    vertex 188.46422427727938 611.3290420955361 19.802138919355187
    vertex 188.4642242773414 611.3290420955361 18.300001402147977
  endloop
endfacet
facet normal -1.0 -7.370699660208509e-09 -1.4920845171028034e-08
  outer loop
    vertex 188.46422427727938 611.3290420955361 19.802138919355187
    vertex 188.46422432475293 607.9290420955361 18.300003212536208
    vertex 188.46422427998863 607.9290420955363 19.802138919355187
  endloop
endfacet
facet normal 0.9999999999995972 -8.863005852081902e-07 -1.4194073410236536e-07
  outer loop
    vertex 190.2642493587346 623.6441055863295 19.549988453975796
    vertex 190.26424938636794 621.7896249309914 19.640877462428925
    vertex 190.26424939099542 621.4790420768684 19.599988453975808
  endloop
endfacet
facet normal 0.9999999999995972 -8.863005852081902e-07 -1.4194073410236536e-07
  outer loop
    vertex 190.26424938636794 621.7896249309914 19.640877462428925
    vertex 190.2642493587346 623.6441055863295 19.549988453975796
    vertex 190.26424935501333 623.893856642591 20.152940841219493
  endloop
endfacet
facet normal 0.9999999999995972 -8.863005852081902e-07 -1.4194073410236536e-07
  outer loop
    vertex 190.26424938636794 621.7896249309914 19.640877462428925
    vertex 190.26424935501333 623.893856642591 20.152940841219493
    vertex 190.26424938205554 622.0790420768684 19.760757969434458
  endloop
endfacet
facet normal 0.9999999999995972 -8.863005852081902e-07 -1.4194073410236536e-07
  outer loop
    vertex 190.26424938205554 622.0790420768684 19.760757969434458
    vertex 190.26424935501333 623.893856642591 20.152940841219493
    vertex 190.26424937835168 622.3275702142922 19.951460316551945
  endloop
endfacet
facet normal 0.9999999999995972 -8.863005852081902e-07 -1.4194073410236536e-07
  outer loop
    vertex 190.26424937835168 622.3275702142922 19.951460316551945
    vertex 190.26424935501333 623.893856642591 20.152940841219493
    vertex 190.26424937551087 622.5182725614097 20.19998845397581
  endloop
endfacet
facet normal 0.9999999999995972 -8.863005852081902e-07 -1.4194073410236536e-07
  outer loop
    vertex 190.26424937551087 622.5182725614097 20.19998845397581
    vertex 190.26424935501333 623.893856642591 20.152940841219493
    vertex 190.26424935374425 623.9790420768684 20.799988453975807
  endloop
endfacet
facet normal 0.9999999999995972 -8.863005852081902e-07 -1.4194073410236536e-07
  outer loop
    vertex 190.26424937551087 622.5182725614097 20.19998845397581
    vertex 190.26424935374425 623.9790420768684 20.799988453975807
    vertex 190.26424937372394 622.6381530684152 20.489405599852766
  endloop
endfacet
facet normal 0.9999999999995972 -8.863005852081902e-07 -1.4194073410236536e-07
  outer loop
    vertex 190.26424937372394 622.6381530684152 20.489405599852766
    vertex 190.26424935374425 623.9790420768684 20.799988453975807
    vertex 190.2642493731154 622.6790420768684 20.799988453975807
  endloop
endfacet
facet normal 0.9999999999995972 -8.863005852081902e-07 -1.4194073410236536e-07
  outer loop
    vertex 190.2642493731154 622.6790420768684 20.799988453975807
    vertex 190.26424935374425 623.9790420768684 20.799988453975807
    vertex 190.2642493550139 623.893856642591 21.447036066732096
  endloop
endfacet
facet normal 0.9999999999995972 -8.863005852081902e-07 -1.4194073410236536e-07
  outer loop
    vertex 190.2642493731154 622.6790420768684 20.799988453975807
    vertex 190.2642493550139 623.893856642591 21.447036066732096
    vertex 190.26424937372428 622.6381530684152 21.110571308098827
  endloop
endfacet
facet normal 0.9999999999995972 -8.863005852081902e-07 -1.4194073410236536e-07
  outer loop
    vertex 190.26424937372428 622.6381530684152 21.110571308098827
    vertex 190.2642493550139 623.893856642591 21.447036066732096
    vertex 190.26424937551118 622.5182725614097 21.399988453975805
  endloop
endfacet
facet normal 0.9999999999995972 -8.863005852081902e-07 -1.4194073410236536e-07
  outer loop
    vertex 190.26424937551118 622.5182725614097 21.399988453975805
    vertex 190.2642493550139 623.893856642591 21.447036066732096
    vertex 190.26424937835225 622.3275702142922 21.64851659139965
  endloop
endfacet
facet normal 0.9999999999995972 -8.863005852081902e-07 -1.4194073410236536e-07
  outer loop
    vertex 190.26424937835225 622.3275702142922 21.64851659139965
    vertex 190.2642493550139 623.893856642591 21.447036066732096
    vertex 190.26424935873544 623.6441055863295 22.049988453975793
  endloop
endfacet
facet normal 0.9999999999995972 -8.863005852081902e-07 -1.4194073410236536e-07
  outer loop
    vertex 190.26424937835225 622.3275702142922 21.64851659139965
    vertex 190.26424935873544 623.6441055863295 22.049988453975793
    vertex 190.2642493820564 622.0790420768684 21.83921893851711
  endloop
endfacet
facet normal 0.9999999999995972 -8.863005852081902e-07 -1.4194073410236536e-07
  outer loop
    vertex 190.2642493820564 622.0790420768684 21.83921893851711
    vertex 190.26424935873544 623.6441055863295 22.049988453975793
    vertex 190.26424938636885 621.7896249309914 21.95909944552269
  endloop
endfacet
facet normal 0.9999999999995972 -8.863005852081902e-07 -1.4194073410236536e-07
  outer loop
    vertex 190.26424938636885 621.7896249309914 21.95909944552269
    vertex 190.26424935873544 623.6441055863295 22.049988453975793
    vertex 190.2642493909961 621.4790420768684 21.999988453975806
  endloop
endfacet
facet normal 0.9999999999995972 -8.863005852081902e-07 -1.4194073410236536e-07
  outer loop
    vertex 190.26424938135384 622.1260896896247 18.38517388825312
    vertex 190.26422771596873 609.7290439476657 18.30000179097221
    vertex 190.26424939099485 621.4790420768684 18.29998845397579
  endloop
endfacet
facet normal 0.9999999999995972 -8.863005852081902e-07 -1.4194073410236536e-07
  outer loop
    vertex 190.26422771596873 609.7290439476657 18.30000179097221
    vertex 190.26424938135384 622.1260896896247 18.38517388825312
    vertex 190.2642369928438 609.7290439476652 18.409868969226576
  endloop
endfacet
facet normal 0.9999999999995972 -8.863005852081902e-07 -1.4194073410236536e-07
  outer loop
    vertex 190.2642369928438 609.7290439476652 18.409868969226576
    vertex 190.26424938135384 622.1260896896247 18.38517388825312
    vertex 190.26424937236945 622.7290420768684 18.6349249445147
  endloop
endfacet
facet normal 0.9999999999995972 -8.863005852081902e-07 -1.4194073410236536e-07
  outer loop
    vertex 190.2642369928438 609.7290439476652 18.409868969226576
    vertex 190.26424937236945 622.7290420768684 18.6349249445147
    vertex 190.2642415526649 609.729043947665 18.463871494745575
  endloop
endfacet
facet normal 0.9999999999995972 -8.863005852081902e-07 -1.4194073410236536e-07
  outer loop
    vertex 190.2642415526649 609.729043947665 18.463871494745575
    vertex 190.26424937236945 622.7290420768684 18.6349249445147
    vertex 190.26424155266648 609.729043947665 23.2999911004741
  endloop
endfacet
facet normal 0.9999999999995972 -8.863005852081902e-07 -1.4194073410236536e-07
  outer loop
    vertex 190.26424155266648 609.729043947665 23.2999911004741
    vertex 190.26424937236945 622.7290420768684 18.6349249445147
    vertex 190.26424939562318 621.1684592227454 19.640877462428925
  endloop
endfacet
facet normal 0.9999999999995972 -8.863005852081902e-07 -1.4194073410236536e-07
  outer loop
    vertex 190.26424939562318 621.1684592227454 19.640877462428925
    vertex 190.26424937236945 622.7290420768684 18.6349249445147
    vertex 190.26424936465443 623.2468090298347 19.03222150100941
  endloop
endfacet
facet normal 0.9999999999995972 -8.863005852081902e-07 -1.4194073410236536e-07
  outer loop
    vertex 190.26424939562318 621.1684592227454 19.640877462428925
    vertex 190.26424936465443 623.2468090298347 19.03222150100941
    vertex 190.26424939099542 621.4790420768684 19.599988453975808
  endloop
endfacet
facet normal 0.9999999999995972 -8.863005852081902e-07 -1.4194073410236536e-07
  outer loop
    vertex 190.26424939099542 621.4790420768684 19.599988453975808
    vertex 190.26424936465443 623.2468090298347 19.03222150100941
    vertex 190.2642493587346 623.6441055863295 19.549988453975796
  endloop
endfacet
facet normal 0.9999999999995972 -8.863005852081902e-07 -1.4194073410236536e-07
  outer loop
    vertex 190.26424155266648 609.729043947665 23.2999911004741
    vertex 190.26424939562318 621.1684592227454 19.640877462428925
    vertex 190.26424939993638 620.8790420768684 19.760757969434458
  endloop
endfacet
facet normal 0.9999999999995972 -8.863005852081902e-07 -1.4194073410236536e-07
  outer loop
    vertex 190.26424155266648 609.729043947665 23.2999911004741
    vertex 190.26424939993638 620.8790420768684 19.760757969434458
    vertex 190.2642494036397 620.6305139394445 19.951460316551945
  endloop
endfacet
facet normal 0.9999999999995972 -8.863005852081902e-07 -1.4194073410236536e-07
  outer loop
    vertex 190.26424155266648 609.729043947665 23.2999911004741
    vertex 190.2642494036397 620.6305139394445 19.951460316551945
    vertex 190.2642494064816 620.439811592327 20.19998845397581
  endloop
endfacet
facet normal 0.9999999999995972 -8.863005852081902e-07 -1.4194073410236536e-07
  outer loop
    vertex 190.26424155266648 609.729043947665 23.2999911004741
    vertex 190.2642494064816 620.439811592327 20.19998845397581
    vertex 190.26424940826732 620.3199310853215 20.489405599852766
  endloop
endfacet
facet normal 0.9999999999995972 -8.863005852081902e-07 -1.4194073410236536e-07
  outer loop
    vertex 190.26424155266648 609.729043947665 23.2999911004741
    vertex 190.26424940826732 620.3199310853215 20.489405599852766
    vertex 190.26424940887725 620.2790420768684 20.799988453975807
  endloop
endfacet
facet normal 0.9999999999995972 -8.863005852081902e-07 -1.4194073410236536e-07
  outer loop
    vertex 190.26424155266648 609.729043947665 23.2999911004741
    vertex 190.26424940887725 620.2790420768684 20.799988453975807
    vertex 190.26424940826766 620.3199310853215 21.110571308098827
  endloop
endfacet
facet normal 0.9999999999995972 -8.863005852081902e-07 -1.4194073410236536e-07
  outer loop
    vertex 190.26424155266648 609.729043947665 23.2999911004741
    vertex 190.26424940826766 620.3199310853215 21.110571308098827
    vertex 190.2642494064819 620.439811592327 21.399988453975805
  endloop
endfacet
facet normal 0.9999999999995972 -8.863005852081902e-07 -1.4194073410236536e-07
  outer loop
    vertex 190.26424155266648 609.729043947665 23.2999911004741
    vertex 190.2642494064819 620.439811592327 21.399988453975805
    vertex 190.26424940364026 620.6305139394445 21.64851659139965
  endloop
endfacet
facet normal 0.9999999999995972 -8.863005852081902e-07 -1.4194073410236536e-07
  outer loop
    vertex 190.26424155266648 609.729043947665 23.2999911004741
    vertex 190.26424940364026 620.6305139394445 21.64851659139965
    vertex 190.26424939993723 620.8790420768684 21.83921893851711
  endloop
endfacet
facet normal 0.9999999999995972 -8.863005852081902e-07 -1.4194073410236536e-07
  outer loop
    vertex 190.26424155266648 609.729043947665 23.2999911004741
    vertex 190.26424939993723 620.8790420768684 21.83921893851711
    vertex 190.26424939562412 621.1684592227454 21.95909944552269
  endloop
endfacet
facet normal 0.9999999999995972 -8.863005852081902e-07 -1.4194073410236536e-07
  outer loop
    vertex 190.26424155266648 609.729043947665 23.2999911004741
    vertex 190.26424939562412 621.1684592227454 21.95909944552269
    vertex 190.2642493909961 621.4790420768684 21.999988453975806
  endloop
endfacet
facet normal 0.9999999999995972 -8.863005852081902e-07 -1.4194073410236536e-07
  outer loop
    vertex 190.26424155266648 609.729043947665 23.2999911004741
    vertex 190.2642493909961 621.4790420768684 21.999988453975806
    vertex 190.26424935873544 623.6441055863295 22.049988453975793
  endloop
endfacet
facet normal 0.9999999999995972 -8.863005852081902e-07 -1.4194073410236536e-07
  outer loop
    vertex 190.26424155266648 609.729043947665 23.2999911004741
    vertex 190.26424935873544 623.6441055863295 22.049988453975793
    vertex 190.26424936465565 623.2468090298347 22.567755406942158
  endloop
endfacet
facet normal 0.9999999999995972 -8.863005852081902e-07 -1.4194073410236536e-07
  outer loop
    vertex 190.26424155266648 609.729043947665 23.2999911004741
    vertex 190.26424936465565 623.2468090298347 22.567755406942158
    vertex 190.26424937237095 622.7290420768684 22.965051963436892
  endloop
endfacet
facet normal 0.9999999999995972 -8.863005852081902e-07 -1.4194073410236536e-07
  outer loop
    vertex 190.26424155266648 609.729043947665 23.2999911004741
    vertex 190.26424937237095 622.7290420768684 22.965051963436892
    vertex 190.2642464376879 622.1260869992491 23.214804504297934
  endloop
endfacet
facet normal 0.9999999999995972 -8.863005852081902e-07 -1.4194073410236536e-07
  outer loop
    vertex 190.26424155266648 609.729043947665 23.2999911004741
    vertex 190.2642464376879 622.1260869992491 23.214804504297934
    vertex 190.2642464376878 621.4790393864928 23.299989938575266
  endloop
endfacet
facet normal 1.477335974682e-08 -0.9914448613738123 0.13052619222003792
  outer loop
    vertex 190.2642493731154 622.6790420768684 20.799988453975807
    vertex 182.26424937372386 622.6381529492089 20.489405599855505
    vertex 190.26424937372394 622.6381530684152 20.489405599852766
  endloop
endfacet
facet normal 1.477335974682e-08 -0.9914448613738123 0.13052619222003792
  outer loop
    vertex 182.26424937372386 622.6381529492089 20.489405599855505
    vertex 190.2642493731154 622.6790420768684 20.799988453975807
    vertex 182.26424937311532 622.6790419576621 20.799988453978546
  endloop
endfacet
facet normal -1.4773348562656916e-08 0.99144486137381 -0.13052619222005368
  outer loop
    vertex 182.26424935501333 623.8938565233848 20.152940841222236
    vertex 190.26424935374425 623.9790420768684 20.799988453975807
    vertex 190.26424935501333 623.893856642591 20.152940841219493
  endloop
endfacet
facet normal -1.4773348562656916e-08 0.99144486137381 -0.13052619222005368
  outer loop
    vertex 190.26424935374425 623.9790420768684 20.799988453975807
    vertex 182.26424935501333 623.8938565233848 20.152940841222236
    vertex 182.26424935374428 623.9790419576622 20.799988453978546
  endloop
endfacet
facet normal -5.7019640790380154e-09 0.3826834323650014 0.9238795325113235
  outer loop
    vertex 190.26424939993638 620.8790420768684 19.760757969434458
    vertex 182.26424939562324 621.1684591035391 19.640877462431668
    vertex 182.26424939993632 620.8790419576621 19.7607579694372
  endloop
endfacet
facet normal -5.7019640790380154e-09 0.3826834323650014 0.9238795325113235
  outer loop
    vertex 182.26424939562324 621.1684591035391 19.640877462431668
    vertex 190.26424939993638 620.8790420768684 19.760757969434458
    vertex 190.26424939562318 621.1684592227454 19.640877462428925
  endloop
endfacet
facet normal -1.4773359746749416e-08 0.9914448613738109 -0.13052619222004724
  outer loop
    vertex 182.2642494088772 620.279041957662 20.799988453978546
    vertex 190.26424940826766 620.3199310853215 21.110571308098827
    vertex 190.26424940887725 620.2790420768684 20.799988453975807
  endloop
endfacet
facet normal -1.4773359746749416e-08 0.9914448613738109 -0.13052619222004724
  outer loop
    vertex 190.26424940826766 620.3199310853215 21.110571308098827
    vertex 182.2642494088772 620.279041957662 20.799988453978546
    vertex 182.26424940826757 620.3199309661152 21.110571308101566
  endloop
endfacet
facet normal 1.9452853291632763e-09 -0.13052619222003825 0.9914448613738123
  outer loop
    vertex 190.26424939099542 621.4790420768684 19.599988453975808
    vertex 182.26424938636796 621.7896248117851 19.640877462431668
    vertex 182.26424939099533 621.479041957662 19.59998845397855
  endloop
endfacet
facet normal 1.9452853291632763e-09 -0.13052619222003825 0.9914448613738123
  outer loop
    vertex 182.26424938636796 621.7896248117851 19.640877462431668
    vertex 190.26424939099542 621.4790420768684 19.599988453975808
    vertex 190.26424938636794 621.7896249309914 19.640877462428925
  endloop
endfacet
facet normal 9.071294555133413e-09 -0.6087614290087031 0.7933533402912485
  outer loop
    vertex 190.26424938205554 622.0790420768684 19.760757969434458
    vertex 182.2642493783516 622.327570095086 19.951460316554684
    vertex 182.26424938205483 622.0790419576621 19.7607579694372
  endloop
endfacet
facet normal 9.071294555133413e-09 -0.6087614290087031 0.7933533402912485
  outer loop
    vertex 182.2642493783516 622.327570095086 19.951460316554684
    vertex 190.26424938205554 622.0790420768684 19.760757969434458
    vertex 190.26424937835168 622.3275702142922 19.951460316551945
  endloop
endfacet
facet normal 9.07074795350192e-09 -0.6087614290086578 -0.7933533402912833
  outer loop
    vertex 182.2642493783522 622.327570095086 21.648516591402387
    vertex 190.2642493820564 622.0790420768684 21.83921893851711
    vertex 182.26424938205568 622.0790419576621 21.83921893851985
  endloop
endfacet
facet normal 9.07074795350192e-09 -0.6087614290086578 -0.7933533402912833
  outer loop
    vertex 190.2642493820564 622.0790420768684 21.83921893851711
    vertex 182.2642493783522 622.327570095086 21.648516591402387
    vertex 190.26424937835225 622.3275702142922 21.64851659139965
  endloop
endfacet
facet normal -5.702600609110893e-09 0.3826834323651242 -0.9238795325112724
  outer loop
    vertex 182.26424939562403 621.1684591035391 21.95909944552543
    vertex 190.26424939993723 620.8790420768684 21.83921893851711
    vertex 182.26424939993714 620.8790419576621 21.83921893851985
  endloop
endfacet
facet normal -5.702600609110893e-09 0.3826834323651242 -0.9238795325112724
  outer loop
    vertex 190.26424939993723 620.8790420768684 21.83921893851711
    vertex 182.26424939562403 621.1684591035391 21.95909944552543
    vertex 190.26424939562412 621.1684592227454 21.95909944552269
  endloop
endfacet
facet normal 1.3766664413264854e-08 -0.9238795325113027 0.38268343236505153
  outer loop
    vertex 190.26424937372394 622.6381530684152 20.489405599852766
    vertex 182.26424937551081 622.5182724422034 20.19998845397855
    vertex 190.26424937551087 622.5182725614097 20.19998845397581
  endloop
endfacet
facet normal 1.3766664413264854e-08 -0.9238795325113027 0.38268343236505153
  outer loop
    vertex 182.26424937551081 622.5182724422034 20.19998845397855
    vertex 190.26424937372394 622.6381530684152 20.489405599852766
    vertex 182.26424937372386 622.6381529492089 20.489405599855505
  endloop
endfacet
facet normal -1.1821375344890299e-08 0.7933533402912121 0.6087614290087509
  outer loop
    vertex 190.26424935873544 623.6441055863295 22.049988453975793
    vertex 182.26424936465565 623.2468089106285 22.567755406944897
    vertex 190.26424936465565 623.2468090298347 22.567755406942158
  endloop
endfacet
facet normal -1.1821375344890299e-08 0.7933533402912121 0.6087614290087509
  outer loop
    vertex 182.26424936465565 623.2468089106285 22.567755406944897
    vertex 190.26424935873544 623.6441055863295 22.049988453975793
    vertex 182.26424935873544 623.6441054671232 22.049988453978536
  endloop
endfacet
facet normal 5.701966237376157e-09 -0.38268343236517527 -0.9238795325112514
  outer loop
    vertex 182.26424938205568 622.0790419576621 21.83921893851985
    vertex 190.26424938636885 621.7896249309914 21.95909944552269
    vertex 182.2642493863688 621.7896248117851 21.95909944552543
  endloop
endfacet
facet normal 5.701966237376157e-09 -0.38268343236517527 -0.9238795325112514
  outer loop
    vertex 190.26424938636885 621.7896249309914 21.95909944552269
    vertex 182.26424938205568 622.0790419576621 21.83921893851985
    vertex 190.2642493820564 622.0790420768684 21.83921893851711
  endloop
endfacet
facet normal -9.070747952432223e-09 0.6087614290087631 0.7933533402912025
  outer loop
    vertex 190.26424937237095 622.7290420768684 22.965051963436892
    vertex 182.26424936465565 623.2468089106285 22.567755406944897
    vertex 182.26424937237095 622.7290419576622 22.96505196343963
  endloop
endfacet
facet normal -9.070747952432223e-09 0.6087614290087631 0.7933533402912025
  outer loop
    vertex 182.26424936465565 623.2468089106285 22.567755406944897
    vertex 190.26424937237095 622.7290420768684 22.965051963436892
    vertex 190.26424936465565 623.2468090298347 22.567755406942158
  endloop
endfacet
facet normal -1.1821799241416646e-08 0.7933533402911609 -0.6087614290088172
  outer loop
    vertex 182.2642494064818 620.4398114731207 21.399988453978548
    vertex 190.26424940364026 620.6305139394445 21.64851659139965
    vertex 190.2642494064819 620.439811592327 21.399988453975805
  endloop
endfacet
facet normal -1.1821799241416646e-08 0.7933533402911609 -0.6087614290088172
  outer loop
    vertex 190.26424940364026 620.6305139394445 21.64851659139965
    vertex 182.2642494064818 620.4398114731207 21.399988453978548
    vertex 182.2642494036403 620.6305138202382 21.648516591402387
  endloop
endfacet
facet normal 1.1821794766686382e-08 -0.7933533402912573 0.6087614290086919
  outer loop
    vertex 190.26424937551087 622.5182725614097 20.19998845397581
    vertex 182.2642493783516 622.327570095086 19.951460316554684
    vertex 190.26424937835168 622.3275702142922 19.951460316551945
  endloop
endfacet
facet normal 1.1821794766686382e-08 -0.7933533402912573 0.6087614290086919
  outer loop
    vertex 182.2642493783516 622.327570095086 19.951460316554684
    vertex 190.26424937551087 622.5182725614097 20.19998845397581
    vertex 182.26424937551081 622.5182724422034 20.19998845397855
  endloop
endfacet
facet normal -1.4773258633349589e-08 0.9914448613738096 0.1305261922200582
  outer loop
    vertex 190.26424935374425 623.9790420768684 20.799988453975807
    vertex 182.2642493550139 623.8938565233848 21.44703606673484
    vertex 190.2642493550139 623.893856642591 21.447036066732096
  endloop
endfacet
facet normal -1.4773258633349589e-08 0.9914448613738096 0.1305261922200582
  outer loop
    vertex 182.2642493550139 623.8938565233848 21.44703606673484
    vertex 190.26424935374425 623.9790420768684 20.799988453975807
    vertex 182.26424935374428 623.9790419576622 20.799988453978546
  endloop
endfacet
facet normal -1.3766664412341891e-08 0.923879532511313 -0.38268343236502594
  outer loop
    vertex 182.26424940826757 620.3199309661152 21.110571308101566
    vertex 190.2642494064819 620.439811592327 21.399988453975805
    vertex 190.26424940826766 620.3199310853215 21.110571308098827
  endloop
endfacet
facet normal -1.3766664412341891e-08 0.923879532511313 -0.38268343236502594
  outer loop
    vertex 190.2642494064819 620.439811592327 21.399988453975805
    vertex 182.26424940826757 620.3199309661152 21.110571308101566
    vertex 182.2642494064818 620.4398114731207 21.399988453978548
  endloop
endfacet
facet normal 1.3766400753458475e-08 -0.923879532511313 -0.38268343236502594
  outer loop
    vertex 182.2642493755111 622.5182724422034 21.399988453978548
    vertex 190.26424937372428 622.6381530684152 21.110571308098827
    vertex 190.26424937551118 622.5182725614097 21.399988453975805
  endloop
endfacet
facet normal 1.3766400753458475e-08 -0.923879532511313 -0.38268343236502594
  outer loop
    vertex 190.26424937372428 622.6381530684152 21.110571308098827
    vertex 182.2642493755111 622.5182724422034 21.399988453978548
    vertex 182.2642493737242 622.6381529492089 21.110571308101566
  endloop
endfacet
facet normal -9.071297987229024e-09 0.6087614290087273 -0.7933533402912302
  outer loop
    vertex 182.26424939993714 620.8790419576621 21.83921893851985
    vertex 190.26424940364026 620.6305139394445 21.64851659139965
    vertex 182.2642494036403 620.6305138202382 21.648516591402387
  endloop
endfacet
facet normal -9.071297987229024e-09 0.6087614290087273 -0.7933533402912302
  outer loop
    vertex 190.26424940364026 620.6305139394445 21.64851659139965
    vertex 182.26424939993714 620.8790419576621 21.83921893851985
    vertex 190.26424939993723 620.8790420768684 21.83921893851711
  endloop
endfacet
facet normal -1.94528459360987e-09 0.13052619222005854 -0.9914448613738096
  outer loop
    vertex 182.26424938135384 622.1260895704183 18.385173888255864
    vertex 190.26424939099485 621.4790420768684 18.29998845397579
    vertex 182.26424939099488 621.479041957662 18.29998845397853
  endloop
endfacet
facet normal -1.94528459360987e-09 0.13052619222005854 -0.9914448613738096
  outer loop
    vertex 190.26424939099485 621.4790420768684 18.29998845397579
    vertex 182.26424938135384 622.1260895704183 18.385173888255864
    vertex 190.26424938135384 622.1260896896247 18.38517388825312
  endloop
endfacet
facet normal -1.3766400753458322e-08 0.9238795325113027 0.3826834323650515
  outer loop
    vertex 190.2642494064816 620.439811592327 20.19998845397581
    vertex 182.26424940826723 620.3199309661152 20.489405599855505
    vertex 190.26424940826732 620.3199310853215 20.489405599852766
  endloop
endfacet
facet normal -1.3766400753458322e-08 0.9238795325113027 0.3826834323650515
  outer loop
    vertex 182.26424940826723 620.3199309661152 20.489405599855505
    vertex 190.2642494064816 620.439811592327 20.19998845397581
    vertex 182.26424940648153 620.4398114731207 20.19998845397855
  endloop
endfacet
facet normal -9.071297986359229e-09 0.6087614290087079 -0.7933533402912448
  outer loop
    vertex 182.26424936465446 623.2468089106285 19.032221501012152
    vertex 190.26424937236945 622.7290420768684 18.6349249445147
    vertex 182.26424937236948 622.729041957662 18.63492494451744
  endloop
endfacet
facet normal -9.071297986359229e-09 0.6087614290087079 -0.7933533402912448
  outer loop
    vertex 190.26424937236945 622.7290420768684 18.6349249445147
    vertex 182.26424936465446 623.2468089106285 19.032221501012152
    vertex 190.26424936465443 623.2468090298347 19.03222150100941
  endloop
endfacet
facet normal -9.07075138646597e-09 0.6087614290087727 0.7933533402911953
  outer loop
    vertex 190.2642494036397 620.6305139394445 19.951460316551945
    vertex 182.26424939993632 620.8790419576621 19.7607579694372
    vertex 182.2642494036397 620.6305138202382 19.951460316554684
  endloop
endfacet
facet normal -9.07075138646597e-09 0.6087614290087727 0.7933533402911953
  outer loop
    vertex 182.26424939993632 620.8790419576621 19.7607579694372
    vertex 190.2642494036397 620.6305139394445 19.951460316551945
    vertex 190.26424939993638 620.8790420768684 19.760757969434458
  endloop
endfacet
facet normal -1.3766659200579815e-08 0.9238795325112837 -0.38268343236509705
  outer loop
    vertex 182.2642493587346 623.6441054671232 19.54998845397854
    vertex 190.26424935501333 623.893856642591 20.152940841219493
    vertex 190.2642493587346 623.6441055863295 19.549988453975796
  endloop
endfacet
facet normal -1.3766659200579815e-08 0.9238795325112837 -0.38268343236509705
  outer loop
    vertex 190.26424935501333 623.893856642591 20.152940841219493
    vertex 182.2642493587346 623.6441054671232 19.54998845397854
    vertex 182.26424935501333 623.8938565233848 20.152940841222236
  endloop
endfacet
facet normal -1.9446015120297403e-09 0.13052619222005687 0.9914448613738098
  outer loop
    vertex 190.26424939562318 621.1684592227454 19.640877462428925
    vertex 182.26424939099533 621.479041957662 19.59998845397855
    vertex 182.26424939562324 621.1684591035391 19.640877462431668
  endloop
endfacet
facet normal -1.9446015120297403e-09 0.13052619222005687 0.9914448613738098
  outer loop
    vertex 182.26424939099533 621.479041957662 19.59998845397855
    vertex 190.26424939562318 621.1684592227454 19.640877462428925
    vertex 190.26424939099542 621.4790420768684 19.599988453975808
  endloop
endfacet
facet normal 1.9446022482573285e-09 -0.13052619222003825 -0.9914448613738123
  outer loop
    vertex 182.2642493863688 621.7896248117851 21.95909944552543
    vertex 190.2642493909961 621.4790420768684 21.999988453975806
    vertex 182.26424939099613 621.479041957662 21.999988453978546
  endloop
endfacet
facet normal 1.9446022482573285e-09 -0.13052619222003825 -0.9914448613738123
  outer loop
    vertex 190.2642493909961 621.4790420768684 21.999988453975806
    vertex 182.2642493863688 621.7896248117851 21.95909944552543
    vertex 190.26424938636885 621.7896249309914 21.95909944552269
  endloop
endfacet
facet normal 1.477326981751266e-08 -0.9914448613738109 -0.13052619222004722
  outer loop
    vertex 182.2642493737242 622.6381529492089 21.110571308101566
    vertex 190.2642493731154 622.6790420768684 20.799988453975807
    vertex 190.26424937372428 622.6381530684152 21.110571308098827
  endloop
endfacet
facet normal 1.477326981751266e-08 -0.9914448613738109 -0.13052619222004722
  outer loop
    vertex 190.2642493731154 622.6790420768684 20.799988453975807
    vertex 182.2642493737242 622.6381529492089 21.110571308101566
    vertex 182.26424937311532 622.6790419576621 20.799988453978546
  endloop
endfacet
facet normal 1.1821375345168327e-08 -0.7933533402912305 -0.6087614290087268
  outer loop
    vertex 182.2642493783522 622.327570095086 21.648516591402387
    vertex 190.26424937551118 622.5182725614097 21.399988453975805
    vertex 190.26424937835225 622.3275702142922 21.64851659139965
  endloop
endfacet
facet normal 1.1821375345168327e-08 -0.7933533402912305 -0.6087614290087268
  outer loop
    vertex 190.26424937551118 622.5182725614097 21.399988453975805
    vertex 182.2642493783522 622.327570095086 21.648516591402387
    vertex 182.2642493755111 622.5182724422034 21.399988453978548
  endloop
endfacet
facet normal -1.1821379819899389e-08 0.7933533402911876 0.6087614290087826
  outer loop
    vertex 190.2642494036397 620.6305139394445 19.951460316551945
    vertex 182.26424940648153 620.4398114731207 20.19998845397855
    vertex 190.2642494064816 620.439811592327 20.19998845397581
  endloop
endfacet
facet normal -1.1821379819899389e-08 0.7933533402911876 0.6087614290087826
  outer loop
    vertex 182.26424940648153 620.4398114731207 20.19998845397855
    vertex 190.2642494036397 620.6305139394445 19.951460316551945
    vertex 182.2642494036397 620.6305138202382 19.951460316554684
  endloop
endfacet
facet normal -1.1821794766408143e-08 0.793353340291225 -0.6087614290087341
  outer loop
    vertex 182.26424936465446 623.2468089106285 19.032221501012152
    vertex 190.2642493587346 623.6441055863295 19.549988453975796
    vertex 190.26424936465443 623.2468090298347 19.03222150100941
  endloop
endfacet
facet normal -1.1821794766408143e-08 0.793353340291225 -0.6087614290087341
  outer loop
    vertex 190.2642493587346 623.6441055863295 19.549988453975796
    vertex 182.26424936465446 623.2468089106285 19.032221501012152
    vertex 182.2642493587346 623.6441054671232 19.54998845397854
  endloop
endfacet
facet normal -1.4773269817442112e-08 0.9914448613738123 0.13052619222003792
  outer loop
    vertex 190.26424940826732 620.3199310853215 20.489405599852766
    vertex 182.2642494088772 620.279041957662 20.799988453978546
    vertex 190.26424940887725 620.2790420768684 20.799988453975807
  endloop
endfacet
facet normal -1.4773269817442112e-08 0.9914448613738123 0.13052619222003792
  outer loop
    vertex 182.2642494088772 620.279041957662 20.799988453978546
    vertex 190.26424940826732 620.3199310853215 20.489405599852766
    vertex 182.26424940826723 620.3199309661152 20.489405599855505
  endloop
endfacet
facet normal -1.3766395541191524e-08 0.9238795325112837 0.38268343236509694
  outer loop
    vertex 190.2642493550139 623.893856642591 21.447036066732096
    vertex 182.26424935873544 623.6441054671232 22.049988453978536
    vertex 190.26424935873544 623.6441055863295 22.049988453975793
  endloop
endfacet
facet normal -1.3766395541191524e-08 0.9238795325112837 0.38268343236509694
  outer loop
    vertex 182.26424935873544 623.6441054671232 22.049988453978536
    vertex 190.2642493550139 623.893856642591 21.447036066732096
    vertex 182.2642493550139 623.8938565233848 21.44703606673484
  endloop
endfacet
facet normal -1.945284592935688e-09 0.13052619222005687 -0.9914448613738098
  outer loop
    vertex 182.26424939099613 621.479041957662 21.999988453978546
    vertex 190.26424939562412 621.1684592227454 21.95909944552269
    vertex 182.26424939562403 621.1684591035391 21.95909944552543
  endloop
endfacet
facet normal -1.945284592935688e-09 0.13052619222005687 -0.9914448613738098
  outer loop
    vertex 190.26424939562412 621.1684592227454 21.95909944552269
    vertex 182.26424939099613 621.479041957662 21.999988453978546
    vertex 190.2642493909961 621.4790420768684 21.999988453975806
  endloop
endfacet
facet normal -0.9999999999997353 6.91304985900159e-07 -2.2730688788510679e-07
  outer loop
    vertex 182.26424270124645 609.7290408084054 18.29999961840076
    vertex 182.26424938135384 622.1260895704183 18.385173888255864
    vertex 182.26424939099488 621.479041957662 18.29998845397853
  endloop
endfacet
facet normal -0.9999999999997353 6.91304985900159e-07 -2.2730688788510679e-07
  outer loop
    vertex 182.26424938135384 622.1260895704183 18.385173888255864
    vertex 182.26424270124645 609.7290408084054 18.29999961840076
    vertex 182.26423624868264 609.7290408084054 23.299988454075056
  endloop
endfacet
facet normal -0.9999999999997353 6.91304985900159e-07 -2.2730688788510679e-07
  outer loop
    vertex 182.26424938135384 622.1260895704183 18.385173888255864
    vertex 182.26423624868264 609.7290408084054 23.299988454075056
    vertex 182.26424937236948 622.729041957662 18.63492494451744
  endloop
endfacet
facet normal -0.9999999999997353 6.91304985900159e-07 -2.2730688788510679e-07
  outer loop
    vertex 182.26424937236948 622.729041957662 18.63492494451744
    vertex 182.26423624868264 609.7290408084054 23.299988454075056
    vertex 182.26424939562324 621.1684591035391 19.640877462431668
  endloop
endfacet
facet normal -0.9999999999997353 6.91304985900159e-07 -2.2730688788510679e-07
  outer loop
    vertex 182.26424937236948 622.729041957662 18.63492494451744
    vertex 182.26424939562324 621.1684591035391 19.640877462431668
    vertex 182.26424936465446 623.2468089106285 19.032221501012152
  endloop
endfacet
facet normal -0.9999999999997353 6.91304985900159e-07 -2.2730688788510679e-07
  outer loop
    vertex 182.26424936465446 623.2468089106285 19.032221501012152
    vertex 182.26424939562324 621.1684591035391 19.640877462431668
    vertex 182.26424939099533 621.479041957662 19.59998845397855
  endloop
endfacet
facet normal -0.9999999999997353 6.91304985900159e-07 -2.2730688788510679e-07
  outer loop
    vertex 182.26424936465446 623.2468089106285 19.032221501012152
    vertex 182.26424939099533 621.479041957662 19.59998845397855
    vertex 182.2642493587346 623.6441054671232 19.54998845397854
  endloop
endfacet
facet normal -0.9999999999997353 6.91304985900159e-07 -2.2730688788510679e-07
  outer loop
    vertex 182.26424939562324 621.1684591035391 19.640877462431668
    vertex 182.26423624868264 609.7290408084054 23.299988454075056
    vertex 182.26424939993632 620.8790419576621 19.7607579694372
  endloop
endfacet
facet normal -0.9999999999997353 6.91304985900159e-07 -2.2730688788510679e-07
  outer loop
    vertex 182.26424939993632 620.8790419576621 19.7607579694372
    vertex 182.26423624868264 609.7290408084054 23.299988454075056
    vertex 182.2642494036397 620.6305138202382 19.951460316554684
  endloop
endfacet
facet normal -0.9999999999997353 6.91304985900159e-07 -2.2730688788510679e-07
  outer loop
    vertex 182.2642494036397 620.6305138202382 19.951460316554684
    vertex 182.26423624868264 609.7290408084054 23.299988454075056
    vertex 182.26424940648153 620.4398114731207 20.19998845397855
  endloop
endfacet
facet normal -0.9999999999997353 6.91304985900159e-07 -2.2730688788510679e-07
  outer loop
    vertex 182.26424940648153 620.4398114731207 20.19998845397855
    vertex 182.26423624868264 609.7290408084054 23.299988454075056
    vertex 182.26424940826723 620.3199309661152 20.489405599855505
  endloop
endfacet
facet normal -0.9999999999997353 6.91304985900159e-07 -2.2730688788510679e-07
  outer loop
    vertex 182.26424940826723 620.3199309661152 20.489405599855505
    vertex 182.26423624868264 609.7290408084054 23.299988454075056
    vertex 182.2642494088772 620.279041957662 20.799988453978546
  endloop
endfacet
facet normal -0.9999999999997353 6.91304985900159e-07 -2.2730688788510679e-07
  outer loop
    vertex 182.2642494088772 620.279041957662 20.799988453978546
    vertex 182.26423624868264 609.7290408084054 23.299988454075056
    vertex 182.26424940826757 620.3199309661152 21.110571308101566
  endloop
endfacet
facet normal -0.9999999999997353 6.91304985900159e-07 -2.2730688788510679e-07
  outer loop
    vertex 182.26424940826757 620.3199309661152 21.110571308101566
    vertex 182.26423624868264 609.7290408084054 23.299988454075056
    vertex 182.2642494064818 620.4398114731207 21.399988453978548
  endloop
endfacet
facet normal -0.9999999999997353 6.91304985900159e-07 -2.2730688788510679e-07
  outer loop
    vertex 182.2642494064818 620.4398114731207 21.399988453978548
    vertex 182.26423624868264 609.7290408084054 23.299988454075056
    vertex 182.2642494036403 620.6305138202382 21.648516591402387
  endloop
endfacet
facet normal -0.9999999999997353 6.91304985900159e-07 -2.2730688788510679e-07
  outer loop
    vertex 182.2642494036403 620.6305138202382 21.648516591402387
    vertex 182.26423624868264 609.7290408084054 23.299988454075056
    vertex 182.26424939993714 620.8790419576621 21.83921893851985
  endloop
endfacet
facet normal -0.9999999999997353 6.91304985900159e-07 -2.2730688788510679e-07
  outer loop
    vertex 182.26424939993714 620.8790419576621 21.83921893851985
    vertex 182.26423624868264 609.7290408084054 23.299988454075056
    vertex 182.26424939562403 621.1684591035391 21.95909944552543
  endloop
endfacet
facet normal -0.9999999999997353 6.91304985900159e-07 -2.2730688788510679e-07
  outer loop
    vertex 182.26424939562403 621.1684591035391 21.95909944552543
    vertex 182.26423624868264 609.7290408084054 23.299988454075056
    vertex 182.26424939099613 621.479041957662 21.999988453978546
  endloop
endfacet
facet normal -0.9999999999997353 6.91304985900159e-07 -2.2730688788510679e-07
  outer loop
    vertex 182.26424939099613 621.479041957662 21.999988453978546
    vertex 182.26423624868264 609.7290408084054 23.299988454075056
    vertex 182.26424935873544 623.6441054671232 22.049988453978536
  endloop
endfacet
facet normal -0.9999999999997353 6.91304985900159e-07 -2.2730688788510679e-07
  outer loop
    vertex 182.26424935873544 623.6441054671232 22.049988453978536
    vertex 182.26423624868264 609.7290408084054 23.299988454075056
    vertex 182.26424936465565 623.2468089106285 22.567755406944897
  endloop
endfacet
facet normal -0.9999999999997353 6.91304985900159e-07 -2.2730688788510679e-07
  outer loop
    vertex 182.26424936465565 623.2468089106285 22.567755406944897
    vertex 182.26423624868264 609.7290408084054 23.299988454075056
    vertex 182.26424937237095 622.7290419576622 22.96505196343963
  endloop
endfacet
facet normal -0.9999999999997353 6.91304985900159e-07 -2.2730688788510679e-07
  outer loop
    vertex 182.26424937237095 622.7290419576622 22.96505196343963
    vertex 182.26423624868264 609.7290408084054 23.299988454075056
    vertex 182.26424939099712 622.1260895704183 23.21480301970128
  endloop
endfacet
facet normal -0.9999999999997353 6.91304985900159e-07 -2.2730688788510679e-07
  outer loop
    vertex 182.26424939099712 622.1260895704183 23.21480301970128
    vertex 182.26423624868264 609.7290408084054 23.299988454075056
    vertex 182.26424939099647 621.479041957662 23.29998845397861
  endloop
endfacet
facet normal -0.9999999999997353 6.91304985900159e-07 -2.2730688788510679e-07
  outer loop
    vertex 182.2642493587346 623.6441054671232 19.54998845397854
    vertex 182.26424938636796 621.7896248117851 19.640877462431668
    vertex 182.26424935501333 623.8938565233848 20.152940841222236
  endloop
endfacet
facet normal -0.9999999999997353 6.91304985900159e-07 -2.2730688788510679e-07
  outer loop
    vertex 182.26424938636796 621.7896248117851 19.640877462431668
    vertex 182.2642493587346 623.6441054671232 19.54998845397854
    vertex 182.26424939099533 621.479041957662 19.59998845397855
  endloop
endfacet
facet normal -0.9999999999997353 6.91304985900159e-07 -2.2730688788510679e-07
  outer loop
    vertex 182.26424935501333 623.8938565233848 20.152940841222236
    vertex 182.26424938636796 621.7896248117851 19.640877462431668
    vertex 182.26424938205483 622.0790419576621 19.7607579694372
  endloop
endfacet
facet normal -0.9999999999997353 6.91304985900159e-07 -2.2730688788510679e-07
  outer loop
    vertex 182.26424935501333 623.8938565233848 20.152940841222236
    vertex 182.26424938205483 622.0790419576621 19.7607579694372
    vertex 182.2642493783516 622.327570095086 19.951460316554684
  endloop
endfacet
facet normal -0.9999999999997353 6.91304985900159e-07 -2.2730688788510679e-07
  outer loop
    vertex 182.26424935501333 623.8938565233848 20.152940841222236
    vertex 182.2642493783516 622.327570095086 19.951460316554684
    vertex 182.26424937551081 622.5182724422034 20.19998845397855
  endloop
endfacet
facet normal -0.9999999999997353 6.91304985900159e-07 -2.2730688788510679e-07
  outer loop
    vertex 182.26424935501333 623.8938565233848 20.152940841222236
    vertex 182.26424937551081 622.5182724422034 20.19998845397855
    vertex 182.26424935374428 623.9790419576622 20.799988453978546
  endloop
endfacet
facet normal -0.9999999999997353 6.91304985900159e-07 -2.2730688788510679e-07
  outer loop
    vertex 182.26424935374428 623.9790419576622 20.799988453978546
    vertex 182.26424937551081 622.5182724422034 20.19998845397855
    vertex 182.26424937372386 622.6381529492089 20.489405599855505
  endloop
endfacet
facet normal -0.9999999999997353 6.91304985900159e-07 -2.2730688788510679e-07
  outer loop
    vertex 182.26424935374428 623.9790419576622 20.799988453978546
    vertex 182.26424937372386 622.6381529492089 20.489405599855505
    vertex 182.26424937311532 622.6790419576621 20.799988453978546
  endloop
endfacet
facet normal -0.9999999999997353 6.91304985900159e-07 -2.2730688788510679e-07
  outer loop
    vertex 182.26424935374428 623.9790419576622 20.799988453978546
    vertex 182.26424937311532 622.6790419576621 20.799988453978546
    vertex 182.2642493737242 622.6381529492089 21.110571308101566
  endloop
endfacet
facet normal -0.9999999999997353 6.91304985900159e-07 -2.2730688788510679e-07
  outer loop
    vertex 182.26424935374428 623.9790419576622 20.799988453978546
    vertex 182.2642493737242 622.6381529492089 21.110571308101566
    vertex 182.2642493550139 623.8938565233848 21.44703606673484
  endloop
endfacet
facet normal -0.9999999999997353 6.91304985900159e-07 -2.2730688788510679e-07
  outer loop
    vertex 182.2642493550139 623.8938565233848 21.44703606673484
    vertex 182.2642493737242 622.6381529492089 21.110571308101566
    vertex 182.2642493755111 622.5182724422034 21.399988453978548
  endloop
endfacet
facet normal -0.9999999999997353 6.91304985900159e-07 -2.2730688788510679e-07
  outer loop
    vertex 182.2642493550139 623.8938565233848 21.44703606673484
    vertex 182.2642493755111 622.5182724422034 21.399988453978548
    vertex 182.2642493783522 622.327570095086 21.648516591402387
  endloop
endfacet
facet normal -0.9999999999997353 6.91304985900159e-07 -2.2730688788510679e-07
  outer loop
    vertex 182.2642493550139 623.8938565233848 21.44703606673484
    vertex 182.2642493783522 622.327570095086 21.648516591402387
    vertex 182.26424935873544 623.6441054671232 22.049988453978536
  endloop
endfacet
facet normal -0.9999999999997353 6.91304985900159e-07 -2.2730688788510679e-07
  outer loop
    vertex 182.26424935873544 623.6441054671232 22.049988453978536
    vertex 182.2642493783522 622.327570095086 21.648516591402387
    vertex 182.26424938205568 622.0790419576621 21.83921893851985
  endloop
endfacet
facet normal -0.9999999999997353 6.91304985900159e-07 -2.2730688788510679e-07
  outer loop
    vertex 182.26424935873544 623.6441054671232 22.049988453978536
    vertex 182.26424938205568 622.0790419576621 21.83921893851985
    vertex 182.2642493863688 621.7896248117851 21.95909944552543
  endloop
endfacet
facet normal -0.9999999999997353 6.91304985900159e-07 -2.2730688788510679e-07
  outer loop
    vertex 182.26424935873544 623.6441054671232 22.049988453978536
    vertex 182.2642493863688 621.7896248117851 21.95909944552543
    vertex 182.26424939099613 621.479041957662 21.999988453978546
  endloop
endfacet
facet normal -2.707872206943722e-08 0.38268367445716944 0.9238794322334265
  outer loop
    vertex 190.26424937237095 622.7290420768684 22.965051963436892
    vertex 182.26424939099712 622.1260895704183 23.21480301970128
    vertex 190.2642464376879 622.1260869992491 23.214804504297934
  endloop
endfacet
facet normal -2.707872206943722e-08 0.38268367445716944 0.9238794322334265
  outer loop
    vertex 182.26424939099712 622.1260895704183 23.21480301970128
    vertex 190.26424937237095 622.7290420768684 22.965051963436892
    vertex 182.26424937237095 622.7290419576622 22.96505196343963
  endloop
endfacet
facet normal 5.702602767950254e-09 -0.3826834323650523 0.9238795325113024
  outer loop
    vertex 190.26424938636794 621.7896249309914 19.640877462428925
    vertex 182.26424938205483 622.0790419576621 19.7607579694372
    vertex 182.26424938636796 621.7896248117851 19.640877462431668
  endloop
endfacet
facet normal 5.702602767950254e-09 -0.3826834323650523 0.9238795325113024
  outer loop
    vertex 182.26424938205483 622.0790419576621 19.7607579694372
    vertex 190.26424938636794 621.7896249309914 19.640877462428925
    vertex 190.26424938205554 622.0790420768684 19.760757969434458
  endloop
endfacet
facet normal -5.702602767707101e-09 0.3826834323650979 -0.9238795325112835
  outer loop
    vertex 182.26424937236948 622.729041957662 18.63492494451744
    vertex 190.26424938135384 622.1260896896247 18.38517388825312
    vertex 182.26424938135384 622.1260895704183 18.385173888255864
  endloop
endfacet
facet normal -5.702602767707101e-09 0.3826834323650979 -0.9238795325112835
  outer loop
    vertex 190.26424938135384 622.1260896896247 18.38517388825312
    vertex 182.26424937236948 622.729041957662 18.63492494451744
    vertex 190.26424937236945 622.7290420768684 18.6349249445147
  endloop
endfacet
facet normal -1.4203639933764282e-07 0.13052619222004827 0.9914448613738007
  outer loop
    vertex 190.2642464376879 622.1260869992491 23.214804504297934
    vertex 182.26424939099647 621.479041957662 23.29998845397861
    vertex 190.2642464376878 621.4790393864928 23.299989938575266
  endloop
endfacet
facet normal -1.4203639933764282e-07 0.13052619222004827 0.9914448613738007
  outer loop
    vertex 182.26424939099647 621.479041957662 23.29998845397861
    vertex 190.2642464376879 622.1260869992491 23.214804504297934
    vertex 182.26424939099712 622.1260895704183 23.21480301970128
  endloop
endfacet
facet normal -1.0 -1.9650459943106773e-09 -3.164837103497938e-09
  outer loop
    vertex 187.96422429105147 608.4290420955363 21.30213891917952
    vertex 187.96422428851767 611.3290420955361 20.302138919355357
    vertex 187.9642242973815 608.4290420955363 20.302138917069396
  endloop
endfacet
facet normal -1.0 -1.9650459943106773e-09 -3.164837103497938e-09
  outer loop
    vertex 187.96422428851767 611.3290420955361 20.302138919355357
    vertex 187.96422429105147 608.4290420955363 21.30213891917952
    vertex 187.964224288518 611.3290420955361 21.302138919355357
  endloop
endfacet
facet normal -0.7071067619355336 -6.043733348034759e-10 0.7071068004375611
  outer loop
    vertex 188.46422431595653 611.3290420955361 21.802138919355183
    vertex 187.96422429105147 608.4290420955363 21.30213891917952
    vertex 188.46422431866586 607.9290420955363 21.802138919355183
  endloop
endfacet
facet normal -0.7071067619355336 -6.043733348034759e-10 0.7071068004375611
  outer loop
    vertex 187.96422429105147 608.4290420955363 21.30213891917952
    vertex 188.46422431595653 611.3290420955361 21.802138919355183
    vertex 187.964224288518 611.3290420955361 21.302138919355357
  endloop
endfacet
facet normal -0.7071067907515052 -1.0016025103310277e-09 -0.7071067716215899
  outer loop
    vertex 187.9642242973815 608.4290420955363 20.302138917069396
    vertex 188.46422427727938 611.3290420955361 19.802138919355187
    vertex 188.46422427998863 607.9290420955363 19.802138919355187
  endloop
endfacet
facet normal -0.7071067907515052 -1.0016025103310277e-09 -0.7071067716215899
  outer loop
    vertex 188.46422427727938 611.3290420955361 19.802138919355187
    vertex 187.9642242973815 608.4290420955363 20.302138917069396
    vertex 187.96422428851767 611.3290420955361 20.302138919355357
  endloop
endfacet
facet normal -0.7071067775726458 -0.7071067848004492 1.0044408065345453e-08
  outer loop
    vertex 187.96422429105147 608.4290420955363 21.30213891917952
    vertex 188.46422427998863 607.9290420955363 19.802138919355187
    vertex 188.46422431866586 607.9290420955363 21.802138919355183
  endloop
endfacet
facet normal -0.7071067775726458 -0.7071067848004492 1.0044408065345453e-08
  outer loop
    vertex 188.46422427998863 607.9290420955363 19.802138919355187
    vertex 187.96422429105147 608.4290420955363 21.30213891917952
    vertex 187.9642242973815 608.4290420955363 20.302138917069396
  endloop
endfacet
facet normal 0.196116147910494 -0.9805806731364581 5.055739346809863e-09
  outer loop
    vertex 188.46422427734302 611.3290420955361 23.299988454072956
    vertex 187.46422431595656 611.12904208199 21.802138919355524
    vertex 188.46422431595653 611.3290420955361 21.802138919355183
  endloop
endfacet
facet normal 0.196116147910494 -0.9805806731364581 5.055739346809863e-09
  outer loop
    vertex 187.46422431595656 611.12904208199 21.802138919355524
    vertex 188.46422427734302 611.3290420955361 23.299988454072956
    vertex 187.46422427734302 611.12904208199 23.299988454073297
  endloop
endfacet
facet normal 1.3936183846940235e-08 -1.0 4.703707000633911e-13
  outer loop
    vertex 187.46422427734302 611.12904208199 23.299988454073297
    vertex 186.96422428851804 611.12904208199 21.3021389193557
    vertex 187.46422431595656 611.12904208199 21.802138919355524
  endloop
endfacet
facet normal 1.3936183846940235e-08 -1.0 4.703707000633911e-13
  outer loop
    vertex 186.96422428851804 611.12904208199 21.3021389193557
    vertex 187.46422427734302 611.12904208199 23.299988454073297
    vertex 185.06422427734293 611.129042049479 23.299988454074118
  endloop
endfacet
facet normal 1.3936183846940235e-08 -1.0 4.703707000633911e-13
  outer loop
    vertex 186.96422428851804 611.12904208199 21.3021389193557
    vertex 185.06422427734293 611.129042049479 23.299988454074118
    vertex 186.9642242885177 611.12904208199 20.3021389193557
  endloop
endfacet
facet normal 1.3936183846940235e-08 -1.0 4.703707000633911e-13
  outer loop
    vertex 186.9642242885177 611.12904208199 20.3021389193557
    vertex 185.06422427734293 611.129042049479 23.299988454074118
    vertex 185.06422427734134 611.129042049479 18.29999855882128
  endloop
endfacet
facet normal 1.3936183846940235e-08 -1.0 4.703707000633911e-13
  outer loop
    vertex 187.4642242772794 611.12904208199 19.802138919355528
    vertex 185.06422427734134 611.129042049479 18.29999855882128
    vertex 187.46422427734143 611.12904208199 18.30000140214832
  endloop
endfacet
facet normal 1.3936183846940235e-08 -1.0 4.703707000633911e-13
  outer loop
    vertex 185.06422427734134 611.129042049479 18.29999855882128
    vertex 187.4642242772794 611.12904208199 19.802138919355528
    vertex 186.9642242885177 611.12904208199 20.3021389193557
  endloop
endfacet
facet normal 0.1961161479104983 -0.9805806731364572 -6.636257528086455e-14
  outer loop
    vertex 186.96422428851804 611.12904208199 21.3021389193557
    vertex 187.96422428851767 611.3290420955361 20.302138919355357
    vertex 187.964224288518 611.3290420955361 21.302138919355357
  endloop
endfacet
facet normal 0.1961161479104983 -0.9805806731364572 -6.636257528086455e-14
  outer loop
    vertex 187.96422428851767 611.3290420955361 20.302138919355357
    vertex 186.96422428851804 611.12904208199 21.3021389193557
    vertex 186.9642242885177 611.12904208199 20.3021389193557
  endloop
endfacet
facet normal 0.1924501014080106 -0.962250441865889 -0.19245011196917386
  outer loop
    vertex 187.46422431595656 611.12904208199 21.802138919355524
    vertex 187.964224288518 611.3290420955361 21.302138919355357
    vertex 188.46422431595653 611.3290420955361 21.802138919355183
  endloop
endfacet
facet normal 0.1924501014080106 -0.962250441865889 -0.19245011196917386
  outer loop
    vertex 187.964224288518 611.3290420955361 21.302138919355357
    vertex 187.46422431595656 611.12904208199 21.802138919355524
    vertex 186.96422428851804 611.12904208199 21.3021389193557
  endloop
endfacet
facet normal 0.19611614791049833 -0.9805806731364572 8.096772721876909e-12
  outer loop
    vertex 188.46422427727938 611.3290420955361 19.802138919355187
    vertex 187.46422427734143 611.12904208199 18.30000140214832
    vertex 188.4642242773414 611.3290420955361 18.300001402147977
  endloop
endfacet
facet normal 0.19611614791049833 -0.9805806731364572 8.096772721876909e-12
  outer loop
    vertex 187.46422427734143 611.12904208199 18.30000140214832
    vertex 188.46422427727938 611.3290420955361 19.802138919355187
    vertex 187.4642242772794 611.12904208199 19.802138919355528
  endloop
endfacet
facet normal 0.19245010195949913 -0.9622504446226638 0.19245009763381343
  outer loop
    vertex 187.96422428851767 611.3290420955361 20.302138919355357
    vertex 187.4642242772794 611.12904208199 19.802138919355528
    vertex 188.46422427727938 611.3290420955361 19.802138919355187
  endloop
endfacet
facet normal 0.19245010195949913 -0.9622504446226638 0.19245009763381343
  outer loop
    vertex 187.4642242772794 611.12904208199 19.802138919355528
    vertex 187.96422428851767 611.3290420955361 20.302138919355357
    vertex 186.9642242885177 611.12904208199 20.3021389193557
  endloop
endfacet
facet normal 1.0 7.644638790949837e-09 4.6561756357324805e-09
  outer loop
    vertex 184.06422427734293 611.3290420359331 23.29998845407447
    vertex 184.06422432661554 607.9290420359331 18.300000904607113
    vertex 184.06422427734134 611.3290420359331 18.299998558821628
  endloop
endfacet
facet normal 1.0 7.644638790949837e-09 4.6561756357324805e-09
  outer loop
    vertex 184.06422432661554 607.9290420359331 18.300000904607113
    vertex 184.06422427734293 611.3290420359331 23.29998845407447
    vertex 184.06422428005223 607.9290420359331 23.29998845407447
  endloop
endfacet
facet normal 2.71742125129819e-07 -1.038290641426949e-06 -0.999999999999424
  outer loop
    vertex 182.26424270124645 609.7290408084054 18.29999961840076
    vertex 184.06422427734134 611.3290420359331 18.299998558821628
    vertex 184.06422432661554 607.9290420359331 18.300000904607113
  endloop
endfacet
facet normal 2.71742125129819e-07 -1.038290641426949e-06 -0.999999999999424
  outer loop
    vertex 184.06422427734134 611.3290420359331 18.299998558821628
    vertex 182.26424270124645 609.7290408084054 18.29999961840076
    vertex 182.26424939099488 621.479041957662 18.29998845397853
  endloop
endfacet
facet normal 2.71742125129819e-07 -1.038290641426949e-06 -0.999999999999424
  outer loop
    vertex 184.06422427734134 611.3290420359331 18.299998558821628
    vertex 182.26424939099488 621.479041957662 18.29998845397853
    vertex 188.4642242773414 611.3290420955361 18.300001402147977
  endloop
endfacet
facet normal 2.71742125129819e-07 -1.038290641426949e-06 -0.999999999999424
  outer loop
    vertex 188.4642242773414 611.3290420955361 18.300001402147977
    vertex 190.26422771596873 609.7290439476657 18.30000179097221
    vertex 188.46422432475293 607.9290420955361 18.300003212536208
  endloop
endfacet
facet normal 2.71742125129819e-07 -1.038290641426949e-06 -0.999999999999424
  outer loop
    vertex 190.26422771596873 609.7290439476657 18.30000179097221
    vertex 188.4642242773414 611.3290420955361 18.300001402147977
    vertex 190.26424939099485 621.4790420768684 18.29998845397579
  endloop
endfacet
facet normal 2.71742125129819e-07 -1.038290641426949e-06 -0.999999999999424
  outer loop
    vertex 190.26424939099485 621.4790420768684 18.29998845397579
    vertex 188.4642242773414 611.3290420955361 18.300001402147977
    vertex 182.26424939099488 621.479041957662 18.29998845397853
  endloop
endfacet
facet normal 2.71742125129819e-07 -1.038290641426949e-06 -0.999999999999424
  outer loop
    vertex 184.06422427734134 611.3290420359331 18.299998558821628
    vertex 187.46422427734143 611.12904208199 18.30000140214832
    vertex 185.06422427734134 611.129042049479 18.29999855882128
  endloop
endfacet
facet normal 2.71742125129819e-07 -1.038290641426949e-06 -0.999999999999424
  outer loop
    vertex 187.46422427734143 611.12904208199 18.30000140214832
    vertex 184.06422427734134 611.3290420359331 18.299998558821628
    vertex 188.4642242773414 611.3290420955361 18.300001402147977
  endloop
endfacet
facet normal -1.9098878045712707e-07 -3.049886247100605e-08 0.9999999999999813
  outer loop
    vertex 187.46422427734302 611.12904208199 23.299988454073297
    vertex 184.06422427734293 611.3290420359331 23.29998845407447
    vertex 185.06422427734293 611.129042049479 23.299988454074118
  endloop
endfacet
facet normal -1.9098878045712707e-07 -3.049886247100605e-08 0.9999999999999813
  outer loop
    vertex 184.06422427734293 611.3290420359331 23.29998845407447
    vertex 187.46422427734302 611.12904208199 23.299988454073297
    vertex 188.46422427734302 611.3290420955361 23.299988454072956
  endloop
endfacet
facet normal -1.9098878045712707e-07 -3.049886247100605e-08 0.9999999999999813
  outer loop
    vertex 190.26424155266648 609.729043947665 23.2999911004741
    vertex 188.46422427734302 611.3290420955361 23.299988454072956
    vertex 188.464224311116 607.929042095841 23.299988429920553
  endloop
endfacet
facet normal -1.9098878045712707e-07 -3.049886247100605e-08 0.9999999999999813
  outer loop
    vertex 188.46422427734302 611.3290420955361 23.299988454072956
    vertex 190.26424155266648 609.729043947665 23.2999911004741
    vertex 190.2642464376878 621.4790393864928 23.299989938575266
  endloop
endfacet
facet normal -1.9098878045712707e-07 -3.049886247100605e-08 0.9999999999999813
  outer loop
    vertex 184.06422427734293 611.3290420359331 23.29998845407447
    vertex 182.26423624868264 609.7290408084054 23.299988454075056
    vertex 184.06422428005223 607.9290420359331 23.29998845407447
  endloop
endfacet
facet normal -1.9098878045712707e-07 -3.049886247100605e-08 0.9999999999999813
  outer loop
    vertex 182.26423624868264 609.7290408084054 23.299988454075056
    vertex 184.06422427734293 611.3290420359331 23.29998845407447
    vertex 182.26424939099647 621.479041957662 23.29998845397861
  endloop
endfacet
facet normal -1.9098878045712707e-07 -3.049886247100605e-08 0.9999999999999813
  outer loop
    vertex 182.26424939099647 621.479041957662 23.29998845397861
    vertex 184.06422427734293 611.3290420359331 23.29998845407447
    vertex 188.46422427734302 611.3290420955361 23.299988454072956
  endloop
endfacet
facet normal -1.9098878045712707e-07 -3.049886247100605e-08 0.9999999999999813
  outer loop
    vertex 182.26424939099647 621.479041957662 23.29998845397861
    vertex 188.46422427734302 611.3290420955361 23.299988454072956
    vertex 190.2642464376878 621.4790393864928 23.299989938575266
  endloop
endfacet
facet normal -0.19611612236612708 -0.9805806782453315 6.32687993055476e-14
  outer loop
    vertex 185.06422427734293 611.129042049479 23.299988454074118
    vertex 184.06422427734134 611.3290420359331 18.299998558821628
    vertex 185.06422427734134 611.129042049479 18.29999855882128
  endloop
endfacet
facet normal -0.19611612236612708 -0.9805806782453315 6.32687993055476e-14
  outer loop
    vertex 184.06422427734134 611.3290420359331 18.299998558821628
    vertex 185.06422427734293 611.129042049479 23.299988454074118
    vertex 184.06422427734293 611.3290420359331 23.29998845407447
  endloop
endfacet
endsolid Indexer
