solid Indexer
facet normal -0.19611613697797037 -0.9805806753229611 -5.8447175343120335e-08
  outer loop
    vertex 21.52998213774739 595.7512364060182 6.249988843945906
    vertex 20.529982140725416 595.951236675594 1.7500018039422236
    vertex 21.52998197519054 595.7512367067499 1.7500017920208668
  endloop
endfacet
facet normal -0.19611613697797037 -0.9805806753229611 -5.8447175343120335e-08
  outer loop
    vertex 20.529982140725416 595.951236675594 1.7500018039422236
    vertex 21.52998213774739 595.7512364060182 6.249988843945906
    vertex 20.52998214072767 595.9512364073732 6.24998885586724
  endloop
endfacet
facet normal 0.19245008706935646 -0.962250433262667 -0.19245016932392317
  outer loop
    vertex 24.429982151902067 595.9512365279433 4.252139321147962
    vertex 23.929982176360355 595.7512364920451 4.752139309227189
    vertex 23.429982148921788 595.7512365292981 4.252139309227371
  endloop
endfacet
facet normal 0.19245008706935646 -0.962250433262667 -0.19245016932392317
  outer loop
    vertex 23.929982176360355 595.7512364920451 4.752139309227189
    vertex 24.429982151902067 595.9512365279433 4.252139321147962
    vertex 24.92998217934063 595.9512364906902 4.752139321147759
  endloop
endfacet
facet normal 4.1311344648680194e-07 -0.7071077558029015 -0.7071058065687296
  outer loop
    vertex 23.929982145195716 596.2512367007893 1.2500018218224531
    vertex 21.52998197519054 595.7512367067499 1.7500017920208668
    vertex 21.52998214519563 596.2512367040414 1.2499989784954013
  endloop
endfacet
facet normal 4.1311344648680194e-07 -0.7071077558029015 -0.7071058065687296
  outer loop
    vertex 21.52998197519054 595.7512367067499 1.7500017920208668
    vertex 23.929982145195716 596.2512367007893 1.2500018218224531
    vertex 23.92998213772447 595.7512366709868 1.7500017920199755
  endloop
endfacet
facet normal 0.19245008762084878 -0.9622504589613701 0.19245004027892632
  outer loop
    vertex 24.929982140663416 595.9512366098998 2.752139321147764
    vertex 23.429982148922058 595.7512365889029 3.2521393092273745
    vertex 23.929982137683137 595.7512366112547 2.7521393092271955
  endloop
endfacet
facet normal 0.19245008762084878 -0.9622504589613701 0.19245004027892632
  outer loop
    vertex 23.429982148922058 595.7512365889029 3.2521393092273745
    vertex 24.929982140663416 595.9512366098998 2.752139321147764
    vertex 24.429982151902337 595.951236587548 3.2521393211479546
  endloop
endfacet
facet normal -8.127997790700105e-09 -0.9999999999999981 -6.283954834263025e-08
  outer loop
    vertex 23.929982137683137 595.7512366112547 2.7521393092271955
    vertex 21.52998197519054 595.7512367067499 1.7500017920208668
    vertex 23.92998213772447 595.7512366709868 1.7500017920199755
  endloop
endfacet
facet normal -8.127997790700105e-09 -0.9999999999999981 -6.283954834263025e-08
  outer loop
    vertex 21.52998197519054 595.7512367067499 1.7500017920208668
    vertex 23.929982137683137 595.7512366112547 2.7521393092271955
    vertex 23.429982148922058 595.7512365889029 3.2521393092273745
  endloop
endfacet
facet normal -8.127997790700105e-09 -0.9999999999999981 -6.283954834263025e-08
  outer loop
    vertex 21.52998197519054 595.7512367067499 1.7500017920208668
    vertex 23.429982148922058 595.7512365889029 3.2521393092273745
    vertex 21.52998213774739 595.7512364060182 6.249988843945906
  endloop
endfacet
facet normal -8.127997790700105e-09 -0.9999999999999981 -6.283954834263025e-08
  outer loop
    vertex 21.52998213774739 595.7512364060182 6.249988843945906
    vertex 23.429982148922058 595.7512365889029 3.2521393092273745
    vertex 23.429982148921788 595.7512365292981 4.252139309227371
  endloop
endfacet
facet normal -8.127997790700105e-09 -0.9999999999999981 -6.283954834263025e-08
  outer loop
    vertex 21.52998213774739 595.7512364060182 6.249988843945906
    vertex 23.429982148921788 595.7512365292981 4.252139309227371
    vertex 23.929982176360355 595.7512364920451 4.752139309227189
  endloop
endfacet
facet normal -8.127997790700105e-09 -0.9999999999999981 -6.283954834263025e-08
  outer loop
    vertex 21.52998213774739 595.7512364060182 6.249988843945906
    vertex 23.929982176360355 595.7512364920451 4.752139309227189
    vertex 23.929982137747476 595.7512364027662 6.249988843945015
  endloop
endfacet
facet normal -1.0 1.2936115860046868e-08 -3.165265855528888e-09
  outer loop
    vertex 24.429982117552775 593.051236587548 3.2521391460081897
    vertex 24.429982151902067 595.9512365279433 4.252139321147962
    vertex 24.429982151902337 595.951236587548 3.2521393211479546
  endloop
endfacet
facet normal -1.0 1.2936115860046868e-08 -3.165265855528888e-09
  outer loop
    vertex 24.429982151902067 595.9512365279433 4.252139321147962
    vertex 24.429982117552775 593.051236587548 3.2521391460081897
    vertex 24.429982111222152 593.0512365279433 4.252139148118345
  endloop
endfacet
facet normal -1.0 7.244201304921435e-09 -1.5801055650990677e-08
  outer loop
    vertex 24.9299821374729 592.5512366994342 1.2500034116726135
    vertex 24.929982140704745 595.951236669632 1.7500018039405558
    vertex 24.929982148175903 596.4512366994344 1.2500018337429546
  endloop
endfacet
facet normal -1.0 7.244201304921435e-09 -1.5801055650990677e-08
  outer loop
    vertex 24.929982140704745 595.951236669632 1.7500018039405558
    vertex 24.9299821374729 592.5512366994342 1.2500034116726135
    vertex 24.929982140663416 595.9512366098998 2.752139321147764
  endloop
endfacet
facet normal -1.0 7.244201304921435e-09 -1.5801055650990677e-08
  outer loop
    vertex 24.929982140663416 595.9512366098998 2.752139321147764
    vertex 24.9299821374729 592.5512366994342 1.2500034116726135
    vertex 24.92998209270862 592.5512366098999 2.7521391184915913
  endloop
endfacet
facet normal 0.19611613329869448 -0.9805806760588167 -5.339158912996656e-08
  outer loop
    vertex 24.92998217934063 595.9512364906902 4.752139321147759
    vertex 23.929982137747476 595.7512364027662 6.249988843945015
    vertex 23.929982176360355 595.7512364920451 4.752139309227189
  endloop
endfacet
facet normal 0.19611613329869448 -0.9805806760588167 -5.339158912996656e-08
  outer loop
    vertex 23.929982137747476 595.7512364027662 6.249988843945015
    vertex 24.92998217934063 595.9512364906902 4.752139321147759
    vertex 24.929982140727752 595.9512364014113 6.249988855865551
  endloop
endfacet
facet normal 0.19611613329869443 -0.9805806760588165 -5.843918746926935e-08
  outer loop
    vertex 24.929982140704745 595.951236669632 1.7500018039405558
    vertex 23.929982137683137 595.7512366112547 2.7521393092271955
    vertex 23.92998213772447 595.7512366709868 1.7500017920199755
  endloop
endfacet
facet normal 0.19611613329869443 -0.9805806760588165 -5.843918746926935e-08
  outer loop
    vertex 23.929982137683137 595.7512366112547 2.7521393092271955
    vertex 24.929982140704745 595.951236669632 1.7500018039405558
    vertex 24.929982140663416 595.9512366098998 2.752139321147764
  endloop
endfacet
facet normal 0.19611613329870772 -0.9805806760588138 -5.844725534896692e-08
  outer loop
    vertex 24.429982151902337 595.951236587548 3.2521393211479546
    vertex 23.429982148921788 595.7512365292981 4.252139309227371
    vertex 23.429982148922058 595.7512365889029 3.2521393092273745
  endloop
endfacet
facet normal 0.19611613329870772 -0.9805806760588138 -5.844725534896692e-08
  outer loop
    vertex 23.429982148921788 595.7512365292981 4.252139309227371
    vertex 24.429982151902337 595.951236587548 3.2521393211479546
    vertex 24.429982151902067 595.9512365279433 4.252139321147962
  endloop
endfacet
facet normal -0.7071067619355209 -3.22145825774508e-08 0.7071068004375729
  outer loop
    vertex 24.92998217934063 595.9512364906902 4.752139321147759
    vertex 24.429982111222152 593.0512365279433 4.252139148118345
    vertex 24.929982131385923 592.5512364906904 4.7521391184915736
  endloop
endfacet
facet normal -0.7071067619355209 -3.22145825774508e-08 0.7071068004375729
  outer loop
    vertex 24.429982111222152 593.0512365279433 4.252139148118345
    vertex 24.92998217934063 595.9512364906902 4.752139321147759
    vertex 24.429982151902067 595.9512365279433 4.252139321147962
  endloop
endfacet
facet normal -0.14002839987494814 -0.7001419508109598 -0.7001380549170894
  outer loop
    vertex 21.52998197519054 595.7512367067499 1.7500017920208668
    vertex 20.52998214817582 596.4512367053964 1.2499989904168038
    vertex 21.52998214519563 596.2512367040414 1.2499989784954013
  endloop
endfacet
facet normal -0.14002839987494814 -0.7001419508109598 -0.7001380549170894
  outer loop
    vertex 20.52998214817582 596.4512367053964 1.2499989904168038
    vertex 21.52998197519054 595.7512367067499 1.7500017920208668
    vertex 20.529982140725416 595.951236675594 1.7500018039422236
  endloop
endfacet
facet normal 0.14002800726850503 -0.7001400014419236 -0.700140082812943
  outer loop
    vertex 24.929982140704745 595.951236669632 1.7500018039405558
    vertex 23.929982145195716 596.2512367007893 1.2500018218224531
    vertex 24.929982148175903 596.4512366994344 1.2500018337429546
  endloop
endfacet
facet normal 0.14002800726850503 -0.7001400014419236 -0.700140082812943
  outer loop
    vertex 23.929982145195716 596.2512367007893 1.2500018218224531
    vertex 24.929982140704745 595.951236669632 1.7500018039405558
    vertex 23.92998213772447 595.7512366709868 1.7500017920199755
  endloop
endfacet
facet normal -1.0 9.536139912141437e-09 -1.5409574110456246e-08
  outer loop
    vertex 24.929982131385923 592.5512364906904 4.7521391184915736
    vertex 24.929982140727752 595.9512364014113 6.249988855865551
    vertex 24.92998217934063 595.9512364906902 4.752139321147759
  endloop
endfacet
facet normal -1.0 9.536139912141437e-09 -1.5409574110456246e-08
  outer loop
    vertex 24.929982140727752 595.9512364014113 6.249988855865551
    vertex 24.929982131385923 592.5512364906904 4.7521391184915736
    vertex 24.929982123836716 592.5512364017162 6.24998862905694
  endloop
endfacet
facet normal -0.7071067907518604 5.168204745076356e-08 -0.7071067716212327
  outer loop
    vertex 24.92998209270862 592.5512366098999 2.7521391184915913
    vertex 24.429982151902337 595.951236587548 3.2521393211479546
    vertex 24.929982140663416 595.9512366098998 2.752139321147764
  endloop
endfacet
facet normal -0.7071067907518604 5.168204745076356e-08 -0.7071067716212327
  outer loop
    vertex 24.429982151902337 595.951236587548 3.2521393211479546
    vertex 24.92998209270862 592.5512366098999 2.7521391184915913
    vertex 24.429982117552775 593.051236587548 3.2521391460081897
  endloop
endfacet
facet normal 0.9848077555997643 0.17364816299216887 1.0349892867822149e-08
  outer loop
    vertex 25.909577068624767 610.3512363773751 5.91505322353882
    vertex 25.925603251667834 610.260347479458 4.06057256278278
    vertex 25.918393416891217 610.3012365064233 3.749989711097014
  endloop
endfacet
facet normal 0.9848077555997643 0.17364816299216887 1.0349892867822149e-08
  outer loop
    vertex 25.925603251667834 610.260347479458 4.06057256278278
    vertex 25.909577068624767 610.3512363773751 5.91505322353882
    vertex 26.015894276169245 609.7482814636949 6.164805547627205
  endloop
endfacet
facet normal 0.9848077555997643 0.17364816299216887 1.0349892867822149e-08
  outer loop
    vertex 25.925603251667834 610.260347479458 4.06057256278278
    vertex 26.015894276169245 609.7482814636949 6.164805547627205
    vertex 25.94674141767213 610.1404669552015 4.34998970151423
  endloop
endfacet
facet normal 0.9848077555997643 0.17364816299216887 1.0349892867822149e-08
  outer loop
    vertex 25.94674141767213 610.1404669552015 4.34998970151423
    vertex 26.015894276169245 609.7482814636949 6.164805547627205
    vertex 25.98036738382338 609.9497645932711 4.5985178275719765
  endloop
endfacet
facet normal 0.9848077555997643 0.17364816299216887 1.0349892867822149e-08
  outer loop
    vertex 25.98036738382338 609.9497645932711 4.5985178275719765
    vertex 26.015894276169245 609.7482814636949 6.164805547627205
    vertex 26.024189596097973 609.7012364444802 4.789220159875977
  endloop
endfacet
facet normal 0.9848077555997643 0.17364816299216887 1.0349892867822149e-08
  outer loop
    vertex 26.024189596097973 609.7012364444802 4.789220159875977
    vertex 26.015894276169245 609.7482814636949 6.164805547627205
    vertex 26.129986220041197 609.1012338351903 6.2499910266634835
  endloop
endfacet
facet normal 0.9848077555997643 0.17364816299216887 1.0349892867822149e-08
  outer loop
    vertex 26.024189596097973 609.7012364444802 4.789220159875977
    vertex 26.129986220041197 609.1012338351903 6.2499910266634835
    vertex 26.07522164314909 609.4118192914581 4.909100649630417
  endloop
endfacet
facet normal 0.9848077555997643 0.17364816299216887 1.0349892867822149e-08
  outer loop
    vertex 26.07522164314909 609.4118192914581 4.909100649630417
    vertex 26.129986220041197 609.1012338351903 6.2499910266634835
    vertex 26.129985775304547 609.1012364348975 4.949989639571174
  endloop
endfacet
facet normal 0.9848077555997643 0.17364816299216887 1.0349892867822149e-08
  outer loop
    vertex 26.129985775304547 609.1012364348975 4.949989639571174
    vertex 26.129986220041197 609.1012338351903 6.2499910266634835
    vertex 26.184749907459913 608.7906535832118 4.909100612605699
  endloop
endfacet
facet normal 0.9848077555997643 0.17364816299216887 1.0349892867822149e-08
  outer loop
    vertex 26.184749907459913 608.7906535832118 4.909100612605699
    vertex 26.129986220041197 609.1012338351903 6.2499910266634835
    vertex 26.630003275818343 606.2654959501675 6.249991044241305
  endloop
endfacet
facet normal 0.9848077555997643 0.17364816299216887 1.0349892867822149e-08
  outer loop
    vertex 26.184749907459913 608.7906535832118 4.909100612605699
    vertex 26.630003275818343 606.2654959501675 6.249991044241305
    vertex 26.235781954510855 608.5012364444802 4.7892200883494755
  endloop
endfacet
facet normal 0.9848077555997643 0.17364816299216887 1.0349892867822149e-08
  outer loop
    vertex 26.235781954510855 608.5012364444802 4.7892200883494755
    vertex 26.630003275818343 606.2654959501675 6.249991044241305
    vertex 26.27960416678545 608.2527083184225 4.598517726419028
  endloop
endfacet
facet normal 0.9848077555997643 0.17364816299216887 1.0349892867822149e-08
  outer loop
    vertex 26.27960416678545 608.2527083184225 4.598517726419028
    vertex 26.630003275818343 606.2654959501675 6.249991044241305
    vertex 26.31323013293652 608.0620059861185 4.349989577628336
  endloop
endfacet
facet normal 0.9848077555997643 0.17364816299216887 1.0349892867822149e-08
  outer loop
    vertex 26.31323013293652 608.0620059861185 4.349989577628336
    vertex 26.630003275818343 606.2654959501675 6.249991044241305
    vertex 26.334368298940635 607.9421254963638 4.060572424605598
  endloop
endfacet
facet normal 0.9848077555997643 0.17364816299216887 1.0349892867822149e-08
  outer loop
    vertex 26.334368298940635 607.9421254963638 4.060572424605598
    vertex 26.630003275818343 606.2654959501675 6.249991044241305
    vertex 26.34157813371689 607.901236506423 3.7499895680454878
  endloop
endfacet
facet normal 0.9848077555997643 0.17364816299216887 1.0349892867822149e-08
  outer loop
    vertex 26.34157813371689 607.901236506423 3.7499895680454878
    vertex 26.630003275818343 606.2654959501675 6.249991044241305
    vertex 26.630003275816094 606.2654962183883 1.7500044085187507
  endloop
endfacet
facet normal 0.9848077555997643 0.17364816299216887 1.0349892867822149e-08
  outer loop
    vertex 25.704188851061826 611.5160510335794 4.397037396262242
    vertex 25.704188851062096 611.516051110713 3.102942170749472
    vertex 25.689168361943995 611.6012365064229 3.7499897885832407
  endloop
endfacet
facet normal 0.9848077555997643 0.17364816299216887 1.0349892867822149e-08
  outer loop
    vertex 25.704188851062096 611.516051110713 3.102942170749472
    vertex 25.704188851061826 611.5160510335794 4.397037396262242
    vertex 25.748226696903373 611.2663000903899 2.499989768619662
  endloop
endfacet
facet normal 0.9848077555997643 0.17364816299216887 1.0349892867822149e-08
  outer loop
    vertex 25.748226696903373 611.2663000903899 2.499989768619662
    vertex 25.704188851061826 611.5160510335794 4.397037396262242
    vertex 25.748226696904272 611.2662999413782 4.999989768619056
  endloop
endfacet
facet normal 0.9848077555997643 0.17364816299216887 1.0349892867822149e-08
  outer loop
    vertex 25.748226696903373 611.2663000903899 2.499989768619662
    vertex 25.748226696904272 611.2662999413782 4.999989768619056
    vertex 25.8182807930514 610.8690035647569 1.9822227919720274
  endloop
endfacet
facet normal 0.9848077555997643 0.17364816299216887 1.0349892867822149e-08
  outer loop
    vertex 25.8182807930514 610.8690035647569 1.9822227919720274
    vertex 25.748226696904272 611.2662999413782 4.999989768619056
    vertex 25.818280793052747 610.869003354022 5.51775669790469
  endloop
endfacet
facet normal 0.9848077555997643 0.17364816299216887 1.0349892867822149e-08
  outer loop
    vertex 25.8182807930514 610.8690035647569 1.9822227919720274
    vertex 25.818280793052747 610.869003354022 5.51775669790469
    vertex 25.909577068623232 610.3512366354713 1.5849262046159704
  endloop
endfacet
facet normal 0.9848077555997643 0.17364816299216887 1.0349892867822149e-08
  outer loop
    vertex 25.909577068623232 610.3512366354713 1.5849262046159704
    vertex 25.818280793052747 610.869003354022 5.51775669790469
    vertex 25.909577068624767 610.3512363773751 5.91505322353882
  endloop
endfacet
facet normal 0.9848077555997643 0.17364816299216887 1.0349892867822149e-08
  outer loop
    vertex 25.909577068623232 610.3512366354713 1.5849262046159704
    vertex 25.909577068624767 610.3512363773751 5.91505322353882
    vertex 25.918393416891217 610.3012365064233 3.749989711097014
  endloop
endfacet
facet normal 0.9848077555997643 0.17364816299216887 1.0349892867822149e-08
  outer loop
    vertex 25.909577068623232 610.3512366354713 1.5849262046159704
    vertex 25.918393416891217 610.3012365064233 3.749989711097014
    vertex 25.92560325166756 610.2603475164824 3.439406854536722
  endloop
endfacet
facet normal 0.9848077555997643 0.17364816299216887 1.0349892867822149e-08
  outer loop
    vertex 25.909577068623232 610.3512366354713 1.5849262046159704
    vertex 25.92560325166756 610.2603475164824 3.439406854536722
    vertex 26.01589385887263 609.748284118157 1.3351762135321363
  endloop
endfacet
facet normal 0.9848077555997643 0.17364816299216887 1.0349892867822149e-08
  outer loop
    vertex 26.01589385887263 609.748284118157 1.3351762135321363
    vertex 25.92560325166756 610.2603475164824 3.439406854536722
    vertex 25.94674141767231 610.1404670267273 3.149989701514414
  endloop
endfacet
facet normal 0.9848077555997643 0.17364816299216887 1.0349892867822149e-08
  outer loop
    vertex 26.01589385887263 609.748284118157 1.3351762135321363
    vertex 25.94674141767231 610.1404670267273 3.149989701514414
    vertex 25.98036738382338 609.9497646944232 2.901461552723857
  endloop
endfacet
facet normal 0.9848077555997643 0.17364816299216887 1.0349892867822149e-08
  outer loop
    vertex 26.01589385887263 609.748284118157 1.3351762135321363
    vertex 25.98036738382338 609.9497646944232 2.901461552723857
    vertex 26.024189596097248 609.7012365683661 2.710759190792823
  endloop
endfacet
facet normal 0.9848077555997643 0.17364816299216887 1.0349892867822149e-08
  outer loop
    vertex 26.01589385887263 609.748284118157 1.3351762135321363
    vertex 26.024189596097248 609.7012365683661 2.710759190792823
    vertex 26.12998577530311 609.1012366554347 1.2499964067887521
  endloop
endfacet
facet normal 0.9848077555997643 0.17364816299216887 1.0349892867822149e-08
  outer loop
    vertex 26.12998577530311 609.1012366554347 1.2499964067887521
    vertex 26.024189596097248 609.7012365683661 2.710759190792823
    vertex 26.075221643148282 609.4118194296344 2.5908786665363963
  endloop
endfacet
facet normal 0.9848077555997643 0.17364816299216887 1.0349892867822149e-08
  outer loop
    vertex 26.12998577530311 609.1012366554347 1.2499964067887521
    vertex 26.075221643148282 609.4118194296344 2.5908786665363963
    vertex 26.12998577530365 609.1012365779487 2.549989639571046
  endloop
endfacet
facet normal 0.9848077555997643 0.17364816299216887 1.0349892867822149e-08
  outer loop
    vertex 26.12998577530311 609.1012366554347 1.2499964067887521
    vertex 26.12998577530365 609.1012365779487 2.549989639571046
    vertex 26.630003275816094 606.2654962183883 1.7500044085187507
  endloop
endfacet
facet normal 0.9848077555997643 0.17364816299216887 1.0349892867822149e-08
  outer loop
    vertex 26.630003275816094 606.2654962183883 1.7500044085187507
    vertex 26.12998577530365 609.1012365779487 2.549989639571046
    vertex 26.18474990745901 608.7906537213887 2.590878629512108
  endloop
endfacet
facet normal 0.9848077555997643 0.17364816299216887 1.0349892867822149e-08
  outer loop
    vertex 26.630003275816094 606.2654962183883 1.7500044085187507
    vertex 26.18474990745901 608.7906537213887 2.590878629512108
    vertex 26.235781954510045 608.5012365683664 2.710759119266919
  endloop
endfacet
facet normal 0.9848077555997643 0.17364816299216887 1.0349892867822149e-08
  outer loop
    vertex 26.630003275816094 606.2654962183883 1.7500044085187507
    vertex 26.235781954510045 608.5012365683664 2.710759119266919
    vertex 26.279604166785358 608.2527084195754 2.90146145157119
  endloop
endfacet
facet normal 0.9848077555997643 0.17364816299216887 1.0349892867822149e-08
  outer loop
    vertex 26.630003275816094 606.2654962183883 1.7500044085187507
    vertex 26.279604166785358 608.2527084195754 2.90146145157119
    vertex 26.31323013293679 608.0620060576441 3.1499895776277875
  endloop
endfacet
facet normal 0.9848077555997643 0.17364816299216887 1.0349892867822149e-08
  outer loop
    vertex 26.630003275816094 606.2654962183883 1.7500044085187507
    vertex 26.31323013293679 608.0620060576441 3.1499895776277875
    vertex 26.334368298940273 607.9421255333889 3.439406716359552
  endloop
endfacet
facet normal 0.9848077555997643 0.17364816299216887 1.0349892867822149e-08
  outer loop
    vertex 26.630003275816094 606.2654962183883 1.7500044085187507
    vertex 26.334368298940273 607.9421255333889 3.439406716359552
    vertex 26.34157813371689 607.901236506423 3.7499895680454878
  endloop
endfacet
facet normal -0.7071067881095944 -0.7071067742635 -3.2102599582130766e-08
  outer loop
    vertex 24.929982131385923 592.5512364906904 4.7521391184915736
    vertex 24.429982117552775 593.051236587548 3.2521391460081897
    vertex 24.92998209270862 592.5512366098999 2.7521391184915913
  endloop
endfacet
facet normal -0.7071067881095944 -0.7071067742635 -3.2102599582130766e-08
  outer loop
    vertex 24.429982117552775 593.051236587548 3.2521391460081897
    vertex 24.929982131385923 592.5512364906904 4.7521391184915736
    vertex 24.429982111222152 593.0512365279433 4.252139148118345
  endloop
endfacet
facet normal -0.7071092769001167 -0.7071042854641446 -1.8916339978584395e-07
  outer loop
    vertex 19.33000053184761 593.7512292461647 1.2500000677041372
    vertex 18.829994086735383 594.2512360320112 6.249988754539661
    vertex 18.829994086733045 594.251236300232 1.7499999188649575
  endloop
endfacet
facet normal -0.7071092769001167 -0.7071042854641446 -1.8916339978584395e-07
  outer loop
    vertex 18.829994086735383 594.2512360320112 6.249988754539661
    vertex 19.33000053184761 593.7512292461647 1.2500000677041372
    vertex 20.529982092772965 592.5512364073732 6.249988653211057
  endloop
endfacet
facet normal -0.7071092769001167 -0.7071042854641446 -1.8916339978584395e-07
  outer loop
    vertex 20.529982092772965 592.5512364073732 6.249988653211057
    vertex 19.33000053184761 593.7512292461647 1.2500000677041372
    vertex 20.529982139335534 592.5512367053964 1.250001103743709
  endloop
endfacet
facet normal 0.7071041236000655 -0.7071094387628675 -4.959752799426878e-07
  outer loop
    vertex 26.62999934914278 594.2512393098315 1.750002091242936
    vertex 24.9299821374729 592.5512366994342 1.2500034116726135
    vertex 26.129985546570406 593.7512390467103 1.2500023061552037
  endloop
endfacet
facet normal 0.7071041236000655 -0.7071094387628675 -4.959752799426878e-07
  outer loop
    vertex 24.9299821374729 592.5512366994342 1.2500034116726135
    vertex 26.62999934914278 594.2512393098315 1.750002091242936
    vertex 24.92998209270862 592.5512366098999 2.7521391184915913
  endloop
endfacet
facet normal 0.7071041236000655 -0.7071094387628675 -4.959752799426878e-07
  outer loop
    vertex 24.92998209270862 592.5512366098999 2.7521391184915913
    vertex 26.62999934914278 594.2512393098315 1.750002091242936
    vertex 26.629999349145027 594.2512390416107 6.24999133277474
  endloop
endfacet
facet normal 0.7071041236000655 -0.7071094387628675 -4.959752799426878e-07
  outer loop
    vertex 24.92998209270862 592.5512366098999 2.7521391184915913
    vertex 26.629999349145027 594.2512390416107 6.24999133277474
    vertex 24.929982131385923 592.5512364906904 4.7521391184915736
  endloop
endfacet
facet normal 0.7071041236000655 -0.7071094387628675 -4.959752799426878e-07
  outer loop
    vertex 24.929982131385923 592.5512364906904 4.7521391184915736
    vertex 26.629999349145027 594.2512390416107 6.24999133277474
    vertex 24.929982123836716 592.5512364017162 6.24998862905694
  endloop
endfacet
facet normal 0.7070982205848353 -2.1103910354207514e-07 -0.7071153416845906
  outer loop
    vertex 26.62999934914278 594.2512393098315 1.750002091242936
    vertex 26.12998577530311 609.1012366554347 1.2499964067887521
    vertex 26.630003275816094 606.2654962183883 1.7500044085187507
  endloop
endfacet
facet normal 0.7070982205848353 -2.1103910354207514e-07 -0.7071153416845906
  outer loop
    vertex 26.12998577530311 609.1012366554347 1.2499964067887521
    vertex 26.62999934914278 594.2512393098315 1.750002091242936
    vertex 26.129985546570406 593.7512390467103 1.2500023061552037
  endloop
endfacet
facet normal 0.9999999999999467 -3.2683447218516896e-07 -4.798151306686913e-13
  outer loop
    vertex 26.630003275818343 606.2654959501675 6.249991044241305
    vertex 26.62999934914278 594.2512393098315 1.750002091242936
    vertex 26.630003275816094 606.2654962183883 1.7500044085187507
  endloop
endfacet
facet normal 0.9999999999999467 -3.2683447218516896e-07 -4.798151306686913e-13
  outer loop
    vertex 26.62999934914278 594.2512393098315 1.750002091242936
    vertex 26.630003275818343 606.2654959501675 6.249991044241305
    vertex 26.629999349145027 594.2512390416107 6.24999133277474
  endloop
endfacet
facet normal -0.7071036272461961 5.09999468074207e-08 -0.7071099351128296
  outer loop
    vertex 19.33000053184761 593.7512292461647 1.2500000677041372
    vertex 18.82999641140563 597.7155029991619 1.7500001253520732
    vertex 19.33000334193664 597.7155045847912 1.2499959966293468
  endloop
endfacet
facet normal -0.7071036272461961 5.09999468074207e-08 -0.7071099351128296
  outer loop
    vertex 18.82999641140563 597.7155029991619 1.7500001253520732
    vertex 19.33000053184761 593.7512292461647 1.2500000677041372
    vertex 18.829994086733045 594.251236300232 1.7499999188649575
  endloop
endfacet
facet normal -7.762392535670675e-09 0.3826836809186519 0.9238794295569911
  outer loop
    vertex 25.909577068624767 610.3512363773751 5.91505322353882
    vertex 22.130003327715947 609.7482828463976 6.1648049122620066
    vertex 26.015894276169245 609.7482814636949 6.164805547627205
  endloop
endfacet
facet normal -7.762392535670675e-09 0.3826836809186519 0.9238794295569911
  outer loop
    vertex 22.130003327715947 609.7482828463976 6.1648049122620066
    vertex 25.909577068624767 610.3512363773751 5.91505322353882
    vertex 22.130003336700202 610.3512363754894 5.915053223388898
  endloop
endfacet
facet normal 5.032069143601955e-10 -0.9238795553129934 0.3826833773168956
  outer loop
    vertex 25.92560325166756 610.2603475164824 3.439406854536722
    vertex 22.130003333559767 610.1404670246984 3.149989701624413
    vertex 25.94674141767231 610.1404670267273 3.149989701514414
  endloop
endfacet
facet normal 5.032069143601955e-10 -0.9238795553129934 0.3826833773168956
  outer loop
    vertex 22.130003333559767 610.1404670246984 3.149989701624413
    vertex 25.92560325166756 610.2603475164824 3.439406854536722
    vertex 22.130003335345762 610.2603475144555 3.439406854645277
  endloop
endfacet
facet normal 5.364919187846416e-10 -0.9914448535974831 -0.1305262512871077
  outer loop
    vertex 25.925603251667834 610.260347479458 4.06057256278278
    vertex 22.130003335955056 610.3012365043553 3.749989711137766
    vertex 25.918393416891217 610.3012365064233 3.749989711097014
  endloop
endfacet
facet normal 5.364919187846416e-10 -0.9914448535974831 -0.1305262512871077
  outer loop
    vertex 22.130003335955056 610.3012365043553 3.749989711137766
    vertex 25.925603251667834 610.260347479458 4.06057256278278
    vertex 22.130003335345762 610.260347477431 4.06057256267712
  endloop
endfacet
facet normal 5.029537969120122e-10 -0.9238795096934546 -0.3826834874522056
  outer loop
    vertex 25.925603251667834 610.260347479458 4.06057256278278
    vertex 22.1300033335594 610.1404669531728 4.349989701407103
    vertex 22.130003335345762 610.260347477431 4.06057256267712
  endloop
endfacet
facet normal 5.029537969120122e-10 -0.9238795096934546 -0.3826834874522056
  outer loop
    vertex 22.1300033335594 610.1404669531728 4.349989701407103
    vertex 25.925603251667834 610.260347479458 4.06057256278278
    vertex 25.94674141767213 610.1404669552015 4.34998970151423
  endloop
endfacet
facet normal -4.5147935661517344e-10 0.9238795096955106 0.38268348744724134
  outer loop
    vertex 22.13000330080156 607.9421255313837 3.439406716249932
    vertex 26.31323013293679 608.0620060576441 3.1499895776277875
    vertex 22.130003302588282 608.0620060556406 3.1499895775194426
  endloop
endfacet
facet normal -4.5147935661517344e-10 0.9238795096955106 0.38268348744724134
  outer loop
    vertex 26.31323013293679 608.0620060576441 3.1499895776277875
    vertex 22.13000330080156 607.9421255313837 3.439406716249932
    vertex 26.334368298940273 607.9421255333889 3.439406716359552
  endloop
endfacet
facet normal -4.472638268533104e-10 0.9238795552811084 -0.3826833773938726
  outer loop
    vertex 22.130003300801654 607.9421254943204 4.060572424647626
    vertex 26.31323013293652 608.0620059861185 4.349989577628336
    vertex 26.334368298940635 607.9421254963638 4.060572424605598
  endloop
endfacet
facet normal -4.472638268533104e-10 0.9238795552811084 -0.3826833773938726
  outer loop
    vertex 26.31323013293652 608.0620059861185 4.349989577628336
    vertex 22.130003300801654 607.9421254943204 4.060572424647626
    vertex 22.130003302588012 608.0620059841825 4.3499895777818764
  endloop
endfacet
facet normal 2.0002316457623272e-10 -0.38268348763327176 0.9238795096184543
  outer loop
    vertex 26.024189596097248 609.7012365683661 2.710759190792823
    vertex 22.13000332270162 609.4118194278734 2.590878666577148
    vertex 26.075221643148282 609.4118194296344 2.5908786665363963
  endloop
endfacet
facet normal 2.0002316457623272e-10 -0.38268348763327176 0.9238795096184543
  outer loop
    vertex 22.13000332270162 609.4118194278734 2.590878666577148
    vertex 26.024189596097248 609.7012365683661 2.710759190792823
    vertex 22.13000332701445 609.7012365664912 2.710759190944287
  endloop
endfacet
facet normal -2.940588082748383e-10 0.6087613816118901 0.7933533766601002
  outer loop
    vertex 26.235781954510045 608.5012365683664 2.710759119266919
    vertex 22.130003305429877 608.2527084177182 2.9014614514202073
    vertex 26.279604166785358 608.2527084195754 2.90146145157119
  endloop
endfacet
facet normal -2.940588082748383e-10 0.6087613816118901 0.7933533766601002
  outer loop
    vertex 22.130003305429877 608.2527084177182 2.9014614514202073
    vertex 26.235781954510045 608.5012365683664 2.710759119266919
    vertex 22.130003309132967 608.5012365665766 2.7107591191568483
  endloop
endfacet
facet normal 9.38551860930137e-08 0.3826825032696686 -0.923879917354659
  outer loop
    vertex 22.54482424107316 609.7482841967886 1.3351756042871092
    vertex 25.909577068623232 610.3512366354713 1.5849262046159704
    vertex 26.01589385887263 609.748284118157 1.3351762135321363
  endloop
endfacet
facet normal 9.38551860930137e-08 0.3826825032696686 -0.923879917354659
  outer loop
    vertex 25.909577068623232 610.3512366354713 1.5849262046159704
    vertex 22.54482424107316 609.7482841967886 1.3351756042871092
    vertex 22.295076435525697 610.3512366908229 1.5849260667771705
  endloop
endfacet
facet normal 6.812986188578242e-11 -0.13052625130775 0.9914448535947656
  outer loop
    vertex 26.075221643148282 609.4118194296344 2.5908786665363963
    vertex 22.130003318073573 609.1012365761917 2.5499896396131967
    vertex 26.12998577530365 609.1012365779487 2.549989639571046
  endloop
endfacet
facet normal 6.812986188578242e-11 -0.13052625130775 0.9914448535947656
  outer loop
    vertex 22.130003318073573 609.1012365761917 2.5499896396131967
    vertex 26.075221643148282 609.4118194296344 2.5908786665363963
    vertex 22.13000332270162 609.4118194278734 2.590878666577148
  endloop
endfacet
facet normal 1.80318224141561e-07 0.13051782694975952 -0.9914459626466186
  outer loop
    vertex 22.630003318073463 609.1012366539021 1.2499956694335703
    vertex 26.01589385887263 609.748284118157 1.3351762135321363
    vertex 26.12998577530311 609.1012366554347 1.2499964067887521
  endloop
endfacet
facet normal 1.80318224141561e-07 0.13051782694975952 -0.9914459626466186
  outer loop
    vertex 26.01589385887263 609.748284118157 1.3351762135321363
    vertex 22.630003318073463 609.1012366539021 1.2499956694335703
    vertex 22.54482424107316 609.7482841967886 1.3351756042871092
  endloop
endfacet
facet normal 6.91720760325303e-09 0.6087615306130582 -0.7933532623274746
  outer loop
    vertex 22.295076435525697 610.3512366908229 1.5849260667771705
    vertex 25.8182807930514 610.8690035647569 1.9822227919720274
    vertex 25.909577068623232 610.3512366354713 1.5849262046159704
  endloop
endfacet
facet normal 6.91720760325303e-09 0.6087615306130582 -0.7933532623274746
  outer loop
    vertex 25.8182807930514 610.8690035647569 1.9822227919720274
    vertex 22.295076435525697 610.3512366908229 1.5849260667771705
    vertex 22.130003344415357 610.8690035627843 1.9822227921228148
  endloop
endfacet
facet normal 6.91720760325303e-09 0.6087615306130582 -0.7933532623274746
  outer loop
    vertex 22.130003344415357 610.8690035627843 1.9822227921228148
    vertex 22.295076435525697 610.3512366908229 1.5849260667771705
    vertex 22.130003339905617 610.5663661269281 1.7500008913242466
  endloop
endfacet
facet normal -5.068349583613555e-10 0.9238795096644687 0.38268348752218356
  outer loop
    vertex 22.130003350335713 611.2662999394084 4.999989768478654
    vertex 25.704188851061826 611.5160510335794 4.397037396262242
    vertex 22.130003354057294 611.5160510316682 4.39703739624752
  endloop
endfacet
facet normal -5.068349583613555e-10 0.9238795096644687 0.38268348752218356
  outer loop
    vertex 25.704188851061826 611.5160510335794 4.397037396262242
    vertex 22.130003350335713 611.2662999394084 4.999989768478654
    vertex 25.748226696904272 611.2662999413782 4.999989768619056
  endloop
endfacet
facet normal -3.0548051220164665e-09 0.991444870924538 -0.1305261196750536
  outer loop
    vertex 22.130003354057568 611.5160511086715 3.102942170855253
    vertex 25.689168361943995 611.6012365064229 3.7499897885832407
    vertex 25.704188851062096 611.516051110713 3.102942170749472
  endloop
endfacet
facet normal -3.0548051220164665e-09 0.991444870924538 -0.1305261196750536
  outer loop
    vertex 25.689168361943995 611.6012365064229 3.7499897885832407
    vertex 22.130003354057568 611.5160511086715 3.102942170855253
    vertex 22.130003355326565 611.6012364864617 3.7499897885846156
  endloop
endfacet
facet normal 4.2435966931905205e-10 -0.7933533766582858 0.6087613816142549
  outer loop
    vertex 25.94674141767231 610.1404670267273 3.149989701514414
    vertex 22.13000333071817 609.9497646925475 2.9014615528711705
    vertex 25.98036738382338 609.9497646944232 2.901461552723857
  endloop
endfacet
facet normal 4.2435966931905205e-10 -0.7933533766582858 0.6087613816142549
  outer loop
    vertex 22.13000333071817 609.9497646925475 2.9014615528711705
    vertex 25.94674141767231 610.1404670267273 3.149989701514414
    vertex 22.130003333559767 610.1404670246984 3.149989701624413
  endloop
endfacet
facet normal 3.2542262837477185e-10 -0.6087614762747388 0.7933533040227416
  outer loop
    vertex 25.98036738382338 609.9497646944232 2.901461552723857
    vertex 22.13000332701445 609.7012365664912 2.710759190944287
    vertex 26.024189596097248 609.7012365683661 2.710759190792823
  endloop
endfacet
facet normal 3.2542262837477185e-10 -0.6087614762747388 0.7933533040227416
  outer loop
    vertex 22.13000332701445 609.7012365664912 2.710759190944287
    vertex 25.98036738382338 609.9497646944232 2.901461552723857
    vertex 22.13000333071817 609.9497646925475 2.9014615528711705
  endloop
endfacet
facet normal 6.684033903536473e-11 -0.1305261333635927 -0.9914448691224086
  outer loop
    vertex 22.13000331807375 609.1012364331407 4.949989639612141
    vertex 26.07522164314909 609.4118192914581 4.909100649630417
    vertex 26.129985775304547 609.1012364348975 4.949989639571174
  endloop
endfacet
facet normal 6.684033903536473e-11 -0.1305261333635927 -0.9914448691224086
  outer loop
    vertex 26.07522164314909 609.4118192914581 4.909100649630417
    vertex 22.13000331807375 609.1012364331407 4.949989639612141
    vertex 22.130003322701796 609.4118192896563 4.909100649521282
  endloop
endfacet
facet normal -3.460062038901416e-10 0.6087613817340921 0.7933533765663312
  outer loop
    vertex 25.818280793052747 610.869003354022 5.51775669790469
    vertex 22.130003336700202 610.3512363754894 5.915053223388898
    vertex 25.909577068624767 610.3512363773751 5.91505322353882
  endloop
endfacet
facet normal -3.460062038901416e-10 0.6087613817340921 0.7933533765663312
  outer loop
    vertex 22.130003336700202 610.3512363754894 5.915053223388898
    vertex 25.818280793052747 610.869003354022 5.51775669790469
    vertex 22.13000334441562 610.8690033520494 5.517756697756922
  endloop
endfacet
facet normal 2.0137310136503853e-10 -0.3826833772781066 -0.9238795553290605
  outer loop
    vertex 22.130003322701796 609.4118192896563 4.909100649521282
    vertex 26.024189596097973 609.7012364444802 4.789220159875977
    vertex 26.07522164314909 609.4118192914581 4.909100649630417
  endloop
endfacet
facet normal 2.0137310136503853e-10 -0.3826833772781066 -0.9238795553290605
  outer loop
    vertex 26.024189596097973 609.7012364444802 4.789220159875977
    vertex 22.130003322701796 609.4118192896563 4.909100649521282
    vertex 22.13000332701445 609.7012364426758 4.789220159770171
  endloop
endfacet
facet normal -1.9320717541945158e-10 0.38268348741517555 -0.9238795097087926
  outer loop
    vertex 22.130003309133055 608.5012364426905 4.789220088462554
    vertex 26.184749907459913 608.7906535832118 4.909100612605699
    vertex 26.235781954510855 608.5012364444802 4.7892200883494755
  endloop
endfacet
facet normal -1.9320717541945158e-10 0.38268348741517555 -0.9238795097087926
  outer loop
    vertex 26.184749907459913 608.7906535832118 4.909100612605699
    vertex 22.130003309133055 608.5012364426905 4.789220088462554
    vertex 22.130003313445705 608.7906535814196 4.909100612715541
  endloop
endfacet
facet normal 4.328022806409919e-10 -0.7933533040235832 -0.6087614762736421
  outer loop
    vertex 25.94674141767213 610.1404669552015 4.34998970151423
    vertex 22.130003330717805 609.9497645913128 4.59851782742395
    vertex 22.1300033335594 610.1404669531728 4.349989701407103
  endloop
endfacet
facet normal 4.328022806409919e-10 -0.7933533040235832 -0.6087614762736421
  outer loop
    vertex 22.130003330717805 609.9497645913128 4.59851782742395
    vertex 25.94674141767213 610.1404669552015 4.34998970151423
    vertex 25.98036738382338 609.9497645932711 4.5985178275719765
  endloop
endfacet
facet normal -6.56116834845647e-11 0.13052613287893342 0.9914448691862152
  outer loop
    vertex 26.12998577530365 609.1012365779487 2.549989639571046
    vertex 22.130003313445616 608.7906537195964 2.5908786294052066
    vertex 26.18474990745901 608.7906537213887 2.590878629512108
  endloop
endfacet
facet normal -6.56116834845647e-11 0.13052613287893342 0.9914448691862152
  outer loop
    vertex 22.130003313445616 608.7906537195964 2.5908786294052066
    vertex 26.12998577530365 609.1012365779487 2.549989639571046
    vertex 22.130003318073573 609.1012365761917 2.5499896396131967
  endloop
endfacet
facet normal -3.8653967453838234e-10 0.7933533039048726 0.6087614764283485
  outer loop
    vertex 22.130003302588282 608.0620060556406 3.1499895775194426
    vertex 26.279604166785358 608.2527084195754 2.90146145157119
    vertex 22.130003305429877 608.2527084177182 2.9014614514202073
  endloop
endfacet
facet normal -3.8653967453838234e-10 0.7933533039048726 0.6087614764283485
  outer loop
    vertex 26.279604166785358 608.2527084195754 2.90146145157119
    vertex 22.130003302588282 608.0620060556406 3.1499895775194426
    vertex 26.31323013293679 608.0620060576441 3.1499895776277875
  endloop
endfacet
facet normal -5.284105917179683e-10 0.9238795553291402 -0.382683377277914
  outer loop
    vertex 22.130003350335624 611.2663000884199 2.4999897687628807
    vertex 25.704188851062096 611.516051110713 3.102942170749472
    vertex 25.748226696903373 611.2663000903899 2.499989768619662
  endloop
endfacet
facet normal -5.284105917179683e-10 0.9238795553291402 -0.382683377277914
  outer loop
    vertex 25.704188851062096 611.516051110713 3.102942170749472
    vertex 22.130003350335624 611.2663000884199 2.4999897687628807
    vertex 22.130003354057568 611.5160511086715 3.102942170855253
  endloop
endfacet
facet normal -3.9074845831966177e-10 0.7933533765608337 -0.6087613817412568
  outer loop
    vertex 22.130003302588012 608.0620059841825 4.3499895777818764
    vertex 26.27960416678545 608.2527083184225 4.598517726419028
    vertex 26.31323013293652 608.0620059861185 4.349989577628336
  endloop
endfacet
facet normal -3.9074845831966177e-10 0.7933533765608337 -0.6087613817412568
  outer loop
    vertex 26.27960416678545 608.2527083184225 4.598517726419028
    vertex 22.130003302588012 608.0620059841825 4.3499895777818764
    vertex 22.130003305429696 608.2527083164878 4.598517726569714
  endloop
endfacet
facet normal 3.216789790586288e-10 -0.608761381864087 -0.7933533764665827
  outer loop
    vertex 22.13000332701445 609.7012364426758 4.789220159770171
    vertex 25.98036738382338 609.9497645932711 4.5985178275719765
    vertex 26.024189596097973 609.7012364444802 4.789220159875977
  endloop
endfacet
facet normal 3.216789790586288e-10 -0.608761381864087 -0.7933533764665827
  outer loop
    vertex 25.98036738382338 609.9497645932711 4.5985178275719765
    vertex 22.13000332701445 609.7012364426758 4.789220159770171
    vertex 22.130003330717805 609.9497645913128 4.59851782742395
  endloop
endfacet
facet normal -7.612326254320359e-11 0.1305262511935527 -0.9914448536098001
  outer loop
    vertex 22.130003313445705 608.7906535814196 4.909100612715541
    vertex 26.129985775304547 609.1012364348975 4.949989639571174
    vertex 26.184749907459913 608.7906535832118 4.909100612605699
  endloop
endfacet
facet normal -7.612326254320359e-11 0.1305262511935527 -0.9914448536098001
  outer loop
    vertex 26.129985775304547 609.1012364348975 4.949989639571174
    vertex 22.130003313445705 608.7906535814196 4.909100612715541
    vertex 22.13000331807375 609.1012364331407 4.949989639612141
  endloop
endfacet
facet normal -3.0349678775166884e-09 0.9914448553787855 0.13052623775677985
  outer loop
    vertex 22.130003355326565 611.6012364864617 3.7499897885846156
    vertex 25.704188851061826 611.5160510335794 4.397037396262242
    vertex 25.689168361943995 611.6012365064229 3.7499897885832407
  endloop
endfacet
facet normal -3.0349678775166884e-09 0.9914448553787855 0.13052623775677985
  outer loop
    vertex 25.704188851061826 611.5160510335794 4.397037396262242
    vertex 22.130003355326565 611.6012364864617 3.7499897885846156
    vertex 22.130003354057294 611.5160510316682 4.39703739624752
  endloop
endfacet
facet normal -3.0006388573128157e-10 0.6087614761282587 -0.7933533041351398
  outer loop
    vertex 22.130003305429696 608.2527083164878 4.598517726569714
    vertex 26.235781954510855 608.5012364444802 4.7892200883494755
    vertex 26.27960416678545 608.2527083184225 4.598517726419028
  endloop
endfacet
facet normal -3.0006388573128157e-10 0.6087614761282587 -0.7933533041351398
  outer loop
    vertex 26.235781954510855 608.5012364444802 4.7892200883494755
    vertex 22.130003305429696 608.2527083164878 4.598517726569714
    vertex 22.130003309133055 608.5012364426905 4.789220088462554
  endloop
endfacet
facet normal -4.828389049145297e-10 0.991444869152931 -0.13052613313175077
  outer loop
    vertex 22.130003300192357 607.9012365043789 3.749989568087594
    vertex 26.334368298940635 607.9421254963638 4.060572424605598
    vertex 26.34157813371689 607.901236506423 3.7499895680454878
  endloop
endfacet
facet normal -4.828389049145297e-10 0.991444869152931 -0.13052613313175077
  outer loop
    vertex 26.334368298940635 607.9421254963638 4.060572424605598
    vertex 22.130003300192357 607.9012365043789 3.749989568087594
    vertex 22.130003300801654 607.9421254943204 4.060572424647626
  endloop
endfacet
facet normal -4.5253714237829796e-10 0.7933533765588998 -0.6087613817437771
  outer loop
    vertex 22.130003344415357 610.8690035627843 1.9822227921228148
    vertex 25.748226696903373 611.2663000903899 2.499989768619662
    vertex 25.8182807930514 610.8690035647569 1.9822227919720274
  endloop
endfacet
facet normal -4.5253714237829796e-10 0.7933533765588998 -0.6087613817437771
  outer loop
    vertex 25.748226696903373 611.2663000903899 2.499989768619662
    vertex 22.130003344415357 610.8690035627843 1.9822227921228148
    vertex 22.130003350335624 611.2663000884199 2.4999897687628807
  endloop
endfacet
facet normal -4.780818040542675e-10 0.9914448535889538 0.13052625135189438
  outer loop
    vertex 22.130003300192357 607.9012365043789 3.749989568087594
    vertex 26.334368298940273 607.9421255333889 3.439406716359552
    vertex 22.13000330080156 607.9421255313837 3.439406716249932
  endloop
endfacet
facet normal -4.780818040542675e-10 0.9914448535889538 0.13052625135189438
  outer loop
    vertex 26.334368298940273 607.9421255333889 3.439406716359552
    vertex 22.130003300192357 607.9012365043789 3.749989568087594
    vertex 26.34157813371689 607.901236506423 3.7499895680454878
  endloop
endfacet
facet normal -4.540853321380521e-08 0.13052665745039768 0.9914448001249614
  outer loop
    vertex 26.015894276169245 609.7482814636949 6.164805547627205
    vertex 22.130003318074184 609.1012352181857 6.249990928886498
    vertex 26.129986220041197 609.1012338351903 6.2499910266634835
  endloop
endfacet
facet normal -4.540853321380521e-08 0.13052665745039768 0.9914448001249614
  outer loop
    vertex 22.130003318074184 609.1012352181857 6.249990928886498
    vertex 26.015894276169245 609.7482814636949 6.164805547627205
    vertex 22.130003327715947 609.7482828463976 6.1648049122620066
  endloop
endfacet
facet normal 5.379197310638302e-10 -0.9914448691596255 0.13052613308090094
  outer loop
    vertex 25.918393416891217 610.3012365064233 3.749989711097014
    vertex 22.130003335345762 610.2603475144555 3.439406854645277
    vertex 25.92560325166756 610.2603475164824 3.439406854536722
  endloop
endfacet
facet normal 5.379197310638302e-10 -0.9914448691596255 0.13052613308090094
  outer loop
    vertex 22.130003335345762 610.2603475144555 3.439406854645277
    vertex 25.918393416891217 610.3012365064233 3.749989711097014
    vertex 22.130003335955056 610.3012365043553 3.749989711137766
  endloop
endfacet
facet normal -1.9252601137800733e-10 0.38268337727975016 0.9238795553283795
  outer loop
    vertex 26.18474990745901 608.7906537213887 2.590878629512108
    vertex 22.130003309132967 608.5012365665766 2.7107591191568483
    vertex 26.235781954510045 608.5012365683664 2.710759119266919
  endloop
endfacet
facet normal -1.9252601137800733e-10 0.38268337727975016 0.9238795553283795
  outer loop
    vertex 22.130003309132967 608.5012365665766 2.7107591191568483
    vertex 26.18474990745901 608.7906537213887 2.590878629512108
    vertex 22.130003313445616 608.7906537195964 2.5908786294052066
  endloop
endfacet
facet normal -4.5203142244962027e-10 0.7933533039881937 0.6087614763197625
  outer loop
    vertex 22.13000334441562 610.8690033520494 5.517756697756922
    vertex 25.748226696904272 611.2662999413782 4.999989768619056
    vertex 22.130003350335713 611.2662999394084 4.999989768478654
  endloop
endfacet
facet normal -4.5203142244962027e-10 0.7933533039881937 0.6087614763197625
  outer loop
    vertex 25.748226696904272 611.2662999413782 4.999989768619056
    vertex 22.13000334441562 610.8690033520494 5.517756697756922
    vertex 25.818280793052747 610.869003354022 5.51775669790469
  endloop
endfacet
facet normal -1.0 1.4901163005573448e-08 1.1350025698255613e-13
  outer loop
    vertex 22.130003354057568 611.5160511086715 3.102942170855253
    vertex 22.130003354057294 611.5160510316682 4.39703739624752
    vertex 22.130003355326565 611.6012364864617 3.7499897885846156
  endloop
endfacet
facet normal -1.0 1.4901163005573448e-08 1.1350025698255613e-13
  outer loop
    vertex 22.130003354057294 611.5160510316682 4.39703739624752
    vertex 22.130003354057568 611.5160511086715 3.102942170855253
    vertex 22.130003350335624 611.2663000884199 2.4999897687628807
  endloop
endfacet
facet normal -1.0 1.4901163005573448e-08 1.1350025698255613e-13
  outer loop
    vertex 22.130003354057294 611.5160510316682 4.39703739624752
    vertex 22.130003350335624 611.2663000884199 2.4999897687628807
    vertex 22.130003350335713 611.2662999394084 4.999989768478654
  endloop
endfacet
facet normal -1.0 1.4901163005573448e-08 1.1350025698255613e-13
  outer loop
    vertex 22.130003350335713 611.2662999394084 4.999989768478654
    vertex 22.130003350335624 611.2663000884199 2.4999897687628807
    vertex 22.130003344415357 610.8690035627843 1.9822227921228148
  endloop
endfacet
facet normal -1.0 1.4901163005573448e-08 1.1350025698255613e-13
  outer loop
    vertex 22.130003350335713 611.2662999394084 4.999989768478654
    vertex 22.130003344415357 610.8690035627843 1.9822227921228148
    vertex 22.13000334441562 610.8690033520494 5.517756697756922
  endloop
endfacet
facet normal -1.0 1.4901163005573448e-08 1.1350025698255613e-13
  outer loop
    vertex 22.13000334441562 610.8690033520494 5.517756697756922
    vertex 22.130003344415357 610.8690035627843 1.9822227921228148
    vertex 22.130003339905617 610.5663661269281 1.7500008913242466
  endloop
endfacet
facet normal -1.0 1.4901163005573448e-08 1.1350025698255613e-13
  outer loop
    vertex 22.13000334441562 610.8690033520494 5.517756697756922
    vertex 22.130003339905617 610.5663661269281 1.7500008913242466
    vertex 22.130003336700202 610.3512363754894 5.915053223388898
  endloop
endfacet
facet normal -1.0 1.4901163005573448e-08 1.1350025698255613e-13
  outer loop
    vertex 22.130003336700202 610.3512363754894 5.915053223388898
    vertex 22.130003339905617 610.5663661269281 1.7500008913242466
    vertex 22.130003335955056 610.3012365043553 3.749989711137766
  endloop
endfacet
facet normal -1.0 1.4901163005573448e-08 1.1350025698255613e-13
  outer loop
    vertex 22.130003335955056 610.3012365043553 3.749989711137766
    vertex 22.130003339905617 610.5663661269281 1.7500008913242466
    vertex 22.130003335345762 610.2603475144555 3.439406854645277
  endloop
endfacet
facet normal -1.0 1.4901163005573448e-08 1.1350025698255613e-13
  outer loop
    vertex 22.130003335345762 610.2603475144555 3.439406854645277
    vertex 22.130003339905617 610.5663661269281 1.7500008913242466
    vertex 22.130003333559767 610.1404670246984 3.149989701624413
  endloop
endfacet
facet normal -1.0 1.4901163005573448e-08 1.1350025698255613e-13
  outer loop
    vertex 22.130003333559767 610.1404670246984 3.149989701624413
    vertex 22.130003339905617 610.5663661269281 1.7500008913242466
    vertex 22.13000333071817 609.9497646925475 2.9014615528711705
  endloop
endfacet
facet normal -1.0 1.4901163005573448e-08 1.1350025698255613e-13
  outer loop
    vertex 22.13000333071817 609.9497646925475 2.9014615528711705
    vertex 22.130003339905617 610.5663661269281 1.7500008913242466
    vertex 22.13000332701445 609.7012365664912 2.710759190944287
  endloop
endfacet
facet normal -1.0 1.4901163005573448e-08 1.1350025698255613e-13
  outer loop
    vertex 22.13000332701445 609.7012365664912 2.710759190944287
    vertex 22.130003339905617 610.5663661269281 1.7500008913242466
    vertex 22.13000332270162 609.4118194278734 2.590878666577148
  endloop
endfacet
facet normal -1.0 1.4901163005573448e-08 1.1350025698255613e-13
  outer loop
    vertex 22.13000332270162 609.4118194278734 2.590878666577148
    vertex 22.130003339905617 610.5663661269281 1.7500008913242466
    vertex 22.130003318073573 609.1012365761917 2.5499896396131967
  endloop
endfacet
facet normal -1.0 1.4901163005573448e-08 1.1350025698255613e-13
  outer loop
    vertex 22.130003318073573 609.1012365761917 2.5499896396131967
    vertex 22.130003339905617 610.5663661269281 1.7500008913242466
    vertex 22.130003197586632 601.0155012432004 1.7500003281432068
  endloop
endfacet
facet normal -1.0 1.4901163005573448e-08 1.1350025698255613e-13
  outer loop
    vertex 22.130003318073573 609.1012365761917 2.5499896396131967
    vertex 22.130003197586632 601.0155012432004 1.7500003281432068
    vertex 22.130003313445616 608.7906537195964 2.5908786294052066
  endloop
endfacet
facet normal -1.0 1.4901163005573448e-08 1.1350025698255613e-13
  outer loop
    vertex 22.130003313445616 608.7906537195964 2.5908786294052066
    vertex 22.130003197586632 601.0155012432004 1.7500003281432068
    vertex 22.130003309132967 608.5012365665766 2.7107591191568483
  endloop
endfacet
facet normal -1.0 1.4901163005573448e-08 1.1350025698255613e-13
  outer loop
    vertex 22.130003309132967 608.5012365665766 2.7107591191568483
    vertex 22.130003197586632 601.0155012432004 1.7500003281432068
    vertex 22.130003305429877 608.2527084177182 2.9014614514202073
  endloop
endfacet
facet normal -1.0 1.4901163005573448e-08 1.1350025698255613e-13
  outer loop
    vertex 22.130003305429877 608.2527084177182 2.9014614514202073
    vertex 22.130003197586632 601.0155012432004 1.7500003281432068
    vertex 22.130003302588282 608.0620060556406 3.1499895775194426
  endloop
endfacet
facet normal -1.0 1.4901163005573448e-08 1.1350025698255613e-13
  outer loop
    vertex 22.130003302588282 608.0620060556406 3.1499895775194426
    vertex 22.130003197586632 601.0155012432004 1.7500003281432068
    vertex 22.13000330080156 607.9421255313837 3.439406716249932
  endloop
endfacet
facet normal -1.0 1.4901163005573448e-08 1.1350025698255613e-13
  outer loop
    vertex 22.13000330080156 607.9421255313837 3.439406716249932
    vertex 22.130003197586632 601.0155012432004 1.7500003281432068
    vertex 22.130003300192357 607.9012365043789 3.749989568087594
  endloop
endfacet
facet normal -1.0 1.4901163005573448e-08 1.1350025698255613e-13
  outer loop
    vertex 22.130003300192357 607.9012365043789 3.749989568087594
    vertex 22.130003197586632 601.0155012432004 1.7500003281432068
    vertex 22.13000323111444 603.2654961513333 3.9999956607923868
  endloop
endfacet
facet normal -1.0 1.4901163005573448e-08 1.1350025698255613e-13
  outer loop
    vertex 22.130003336700202 610.3512363754894 5.915053223388898
    vertex 22.130003335345762 610.260347477431 4.06057256267712
    vertex 22.130003327715947 609.7482828463976 6.1648049122620066
  endloop
endfacet
facet normal -1.0 1.4901163005573448e-08 1.1350025698255613e-13
  outer loop
    vertex 22.130003335345762 610.260347477431 4.06057256267712
    vertex 22.130003336700202 610.3512363754894 5.915053223388898
    vertex 22.130003335955056 610.3012365043553 3.749989711137766
  endloop
endfacet
facet normal -1.0 1.4901163005573448e-08 1.1350025698255613e-13
  outer loop
    vertex 22.130003327715947 609.7482828463976 6.1648049122620066
    vertex 22.130003335345762 610.260347477431 4.06057256267712
    vertex 22.1300033335594 610.1404669531728 4.349989701407103
  endloop
endfacet
facet normal -1.0 1.4901163005573448e-08 1.1350025698255613e-13
  outer loop
    vertex 22.130003327715947 609.7482828463976 6.1648049122620066
    vertex 22.1300033335594 610.1404669531728 4.349989701407103
    vertex 22.130003330717805 609.9497645913128 4.59851782742395
  endloop
endfacet
facet normal -1.0 1.4901163005573448e-08 1.1350025698255613e-13
  outer loop
    vertex 22.130003327715947 609.7482828463976 6.1648049122620066
    vertex 22.130003330717805 609.9497645913128 4.59851782742395
    vertex 22.13000332701445 609.7012364426758 4.789220159770171
  endloop
endfacet
facet normal -1.0 1.4901163005573448e-08 1.1350025698255613e-13
  outer loop
    vertex 22.130003327715947 609.7482828463976 6.1648049122620066
    vertex 22.13000332701445 609.7012364426758 4.789220159770171
    vertex 22.130003318074184 609.1012352181857 6.249990928886498
  endloop
endfacet
facet normal -1.0 1.4901163005573448e-08 1.1350025698255613e-13
  outer loop
    vertex 22.130003318074184 609.1012352181857 6.249990928886498
    vertex 22.13000332701445 609.7012364426758 4.789220159770171
    vertex 22.130003322701796 609.4118192896563 4.909100649521282
  endloop
endfacet
facet normal -1.0 1.4901163005573448e-08 1.1350025698255613e-13
  outer loop
    vertex 22.130003318074184 609.1012352181857 6.249990928886498
    vertex 22.130003322701796 609.4118192896563 4.909100649521282
    vertex 22.13000331807375 609.1012364331407 4.949989639612141
  endloop
endfacet
facet normal -1.0 1.4901163005573448e-08 1.1350025698255613e-13
  outer loop
    vertex 22.130003318074184 609.1012352181857 6.249990928886498
    vertex 22.13000331807375 609.1012364331407 4.949989639612141
    vertex 22.130003313445705 608.7906535814196 4.909100612715541
  endloop
endfacet
facet normal -1.0 1.4901163005573448e-08 1.1350025698255613e-13
  outer loop
    vertex 22.130003318074184 609.1012352181857 6.249990928886498
    vertex 22.130003313445705 608.7906535814196 4.909100612715541
    vertex 22.1300032311148 603.2654960172229 6.249990865427127
  endloop
endfacet
facet normal -1.0 1.4901163005573448e-08 1.1350025698255613e-13
  outer loop
    vertex 22.1300032311148 603.2654960172229 6.249990865427127
    vertex 22.130003313445705 608.7906535814196 4.909100612715541
    vertex 22.130003309133055 608.5012364426905 4.789220088462554
  endloop
endfacet
facet normal -1.0 1.4901163005573448e-08 1.1350025698255613e-13
  outer loop
    vertex 22.1300032311148 603.2654960172229 6.249990865427127
    vertex 22.130003309133055 608.5012364426905 4.789220088462554
    vertex 22.130003305429696 608.2527083164878 4.598517726569714
  endloop
endfacet
facet normal -1.0 1.4901163005573448e-08 1.1350025698255613e-13
  outer loop
    vertex 22.1300032311148 603.2654960172229 6.249990865427127
    vertex 22.130003305429696 608.2527083164878 4.598517726569714
    vertex 22.130003302588012 608.0620059841825 4.3499895777818764
  endloop
endfacet
facet normal -1.0 1.4901163005573448e-08 1.1350025698255613e-13
  outer loop
    vertex 22.1300032311148 603.2654960172229 6.249990865427127
    vertex 22.130003302588012 608.0620059841825 4.3499895777818764
    vertex 22.130003300801654 607.9421254943204 4.060572424647626
  endloop
endfacet
facet normal -1.0 1.4901163005573448e-08 1.1350025698255613e-13
  outer loop
    vertex 22.1300032311148 603.2654960172229 6.249990865427127
    vertex 22.130003300801654 607.9421254943204 4.060572424647626
    vertex 22.130003300192357 607.9012365043789 3.749989568087594
  endloop
endfacet
facet normal -1.0 1.4901163005573448e-08 1.1350025698255613e-13
  outer loop
    vertex 22.1300032311148 603.2654960172229 6.249990865427127
    vertex 22.130003300192357 607.9012365043789 3.749989568087594
    vertex 22.13000323111444 603.2654961513333 3.9999956607923868
  endloop
endfacet
facet normal -0.7071102919971709 3.857096780572903e-08 -0.7071032703584919
  outer loop
    vertex 22.295076435525697 610.3512366908229 1.5849260667771705
    vertex 22.130003197586632 601.0155012432004 1.7500003281432068
    vertex 22.130003339905617 610.5663661269281 1.7500008913242466
  endloop
endfacet
facet normal -0.7071102919971709 3.857096780572903e-08 -0.7071032703584919
  outer loop
    vertex 22.130003197586632 601.0155012432004 1.7500003281432068
    vertex 22.295076435525697 610.3512366908229 1.5849260667771705
    vertex 22.54482424107316 609.7482841967886 1.3351756042871092
  endloop
endfacet
facet normal -0.7071102919971709 3.857096780572903e-08 -0.7071032703584919
  outer loop
    vertex 22.130003197586632 601.0155012432004 1.7500003281432068
    vertex 22.54482424107316 609.7482841967886 1.3351756042871092
    vertex 22.630003318073463 609.1012366539021 1.2499956694335703
  endloop
endfacet
facet normal -0.7071102919971709 3.857096780572903e-08 -0.7071032703584919
  outer loop
    vertex 22.130003197586632 601.0155012432004 1.7500003281432068
    vertex 22.630003318073463 609.1012366539021 1.2499956694335703
    vertex 22.630003197586614 601.0154953672532 1.249995576843252
  endloop
endfacet
facet normal 1.0 -6.5927569438497626e-09 4.501039686542079e-09
  outer loop
    vertex 20.529982140725416 595.951236675594 1.7500018039422236
    vertex 20.529982139335534 592.5512367053964 1.250001103743709
    vertex 20.52998214817582 596.4512367053964 1.2499989904168038
  endloop
endfacet
facet normal 1.0 -6.5927569438497626e-09 4.501039686542079e-09
  outer loop
    vertex 20.529982139335534 592.5512367053964 1.250001103743709
    vertex 20.529982140725416 595.951236675594 1.7500018039422236
    vertex 20.52998214072767 595.9512364073732 6.24998885586724
  endloop
endfacet
facet normal 1.0 -6.5927569438497626e-09 4.501039686542079e-09
  outer loop
    vertex 20.529982139335534 592.5512367053964 1.250001103743709
    vertex 20.52998214072767 595.9512364073732 6.24998885586724
    vertex 20.529982092772965 592.5512364073732 6.249988653211057
  endloop
endfacet
facet normal -1.1001995989424802e-07 -1.2739015217515162e-07 0.9999999999999859
  outer loop
    vertex 26.129986220041197 609.1012338351903 6.2499910266634835
    vertex 26.629999349145027 594.2512390416107 6.24999133277474
    vertex 26.630003275818343 606.2654959501675 6.249991044241305
  endloop
endfacet
facet normal -1.1001995989424802e-07 -1.2739015217515162e-07 0.9999999999999859
  outer loop
    vertex 26.629999349145027 594.2512390416107 6.24999133277474
    vertex 26.129986220041197 609.1012338351903 6.2499910266634835
    vertex 24.929982123836716 592.5512364017162 6.24998862905694
  endloop
endfacet
facet normal -1.1001995989424802e-07 -1.2739015217515162e-07 0.9999999999999859
  outer loop
    vertex 24.929982123836716 592.5512364017162 6.24998862905694
    vertex 26.129986220041197 609.1012338351903 6.2499910266634835
    vertex 24.929982140727752 595.9512364014113 6.249988855865551
  endloop
endfacet
facet normal -1.1001995989424802e-07 -1.2739015217515162e-07 0.9999999999999859
  outer loop
    vertex 24.929982140727752 595.9512364014113 6.249988855865551
    vertex 26.129986220041197 609.1012338351903 6.2499910266634835
    vertex 22.130003318074184 609.1012352181857 6.249990928886498
  endloop
endfacet
facet normal -1.1001995989424802e-07 -1.2739015217515162e-07 0.9999999999999859
  outer loop
    vertex 24.929982140727752 595.9512364014113 6.249988855865551
    vertex 22.130003318074184 609.1012352181857 6.249990928886498
    vertex 23.929982137747476 595.7512364027662 6.249988843945015
  endloop
endfacet
facet normal -1.1001995989424802e-07 -1.2739015217515162e-07 0.9999999999999859
  outer loop
    vertex 23.929982137747476 595.7512364027662 6.249988843945015
    vertex 22.130003318074184 609.1012352181857 6.249990928886498
    vertex 22.1300032311148 603.2654960172229 6.249990865427127
  endloop
endfacet
facet normal -1.1001995989424802e-07 -1.2739015217515162e-07 0.9999999999999859
  outer loop
    vertex 23.929982137747476 595.7512364027662 6.249988843945015
    vertex 22.1300032311148 603.2654960172229 6.249990865427127
    vertex 21.52998213774739 595.7512364060182 6.249988843945906
  endloop
endfacet
facet normal -1.1001995989424802e-07 -1.2739015217515162e-07 0.9999999999999859
  outer loop
    vertex 21.52998213774739 595.7512364060182 6.249988843945906
    vertex 22.1300032311148 603.2654960172229 6.249990865427127
    vertex 18.829996968224805 599.9654960663968 6.249990037174427
  endloop
endfacet
facet normal -1.1001995989424802e-07 -1.2739015217515162e-07 0.9999999999999859
  outer loop
    vertex 21.52998213774739 595.7512364060182 6.249988843945906
    vertex 18.829996968224805 599.9654960663968 6.249990037174427
    vertex 20.52998214072767 595.9512364073732 6.24998885586724
  endloop
endfacet
facet normal -1.1001995989424802e-07 -1.2739015217515162e-07 0.9999999999999859
  outer loop
    vertex 20.52998214072767 595.9512364073732 6.24998885586724
    vertex 18.829994086735383 594.2512360320112 6.249988754539661
    vertex 20.529982092772965 592.5512364073732 6.249988653211057
  endloop
endfacet
facet normal -1.1001995989424802e-07 -1.2739015217515162e-07 0.9999999999999859
  outer loop
    vertex 18.829994086735383 594.2512360320112 6.249988754539661
    vertex 20.52998214072767 595.9512364073732 6.24998885586724
    vertex 18.829996968224805 599.9654960663968 6.249990037174427
  endloop
endfacet
facet normal -0.7071060833740981 0.7071074789983005 1.0537440855164269e-07
  outer loop
    vertex 18.829996968224805 599.9654960663968 6.249990037174427
    vertex 22.13000323111444 603.2654961513333 3.9999956607923868
    vertex 18.82999698411399 599.9654966187716 3.999994849711366
  endloop
endfacet
facet normal -0.7071060833740981 0.7071074789983005 1.0537440855164269e-07
  outer loop
    vertex 22.13000323111444 603.2654961513333 3.9999956607923868
    vertex 18.829996968224805 599.9654960663968 6.249990037174427
    vertex 22.1300032311148 603.2654960172229 6.249990865427127
  endloop
endfacet
facet normal -0.9999999999998599 5.247507096286741e-07 -6.931836587906415e-08
  outer loop
    vertex 18.82999641140563 597.7155029991619 1.7500001253520732
    vertex 18.829996968224805 599.9654960663968 6.249990037174427
    vertex 18.82999698411399 599.9654966187716 3.999994849711366
  endloop
endfacet
facet normal -0.9999999999998599 5.247507096286741e-07 -6.931836587906415e-08
  outer loop
    vertex 18.829996968224805 599.9654960663968 6.249990037174427
    vertex 18.82999641140563 597.7155029991619 1.7500001253520732
    vertex 18.829994086735383 594.2512360320112 6.249988754539661
  endloop
endfacet
facet normal -0.9999999999998599 5.247507096286741e-07 -6.931836587906415e-08
  outer loop
    vertex 18.829994086735383 594.2512360320112 6.249988754539661
    vertex 18.82999641140563 597.7155029991619 1.7500001253520732
    vertex 18.829994086733045 594.251236300232 1.7499999188649575
  endloop
endfacet
facet normal 6.618705783812351e-07 -4.4854308962448203e-07 -0.9999999999996805
  outer loop
    vertex 19.33000053184761 593.7512292461647 1.2500000677041372
    vertex 20.52998214817582 596.4512367053964 1.2499989904168038
    vertex 20.529982139335534 592.5512367053964 1.250001103743709
  endloop
endfacet
facet normal 6.618705783812351e-07 -4.4854308962448203e-07 -0.9999999999996805
  outer loop
    vertex 20.52998214817582 596.4512367053964 1.2499989904168038
    vertex 19.33000053184761 593.7512292461647 1.2500000677041372
    vertex 19.33000334193664 597.7155045847912 1.2499959966293468
  endloop
endfacet
facet normal 6.618705783812351e-07 -4.4854308962448203e-07 -0.9999999999996805
  outer loop
    vertex 21.52998214519563 596.2512367040414 1.2499989784954013
    vertex 22.630003197586614 601.0154953672532 1.249995576843252
    vertex 23.929982145195716 596.2512367007893 1.2500018218224531
  endloop
endfacet
facet normal 6.618705783812351e-07 -4.4854308962448203e-07 -0.9999999999996805
  outer loop
    vertex 22.630003197586614 601.0154953672532 1.249995576843252
    vertex 21.52998214519563 596.2512367040414 1.2499989784954013
    vertex 19.33000334193664 597.7155045847912 1.2499959966293468
  endloop
endfacet
facet normal 6.618705783812351e-07 -4.4854308962448203e-07 -0.9999999999996805
  outer loop
    vertex 19.33000334193664 597.7155045847912 1.2499959966293468
    vertex 21.52998214519563 596.2512367040414 1.2499989784954013
    vertex 20.52998214817582 596.4512367053964 1.2499989904168038
  endloop
endfacet
facet normal 6.618705783812351e-07 -4.4854308962448203e-07 -0.9999999999996805
  outer loop
    vertex 24.9299821374729 592.5512366994342 1.2500034116726135
    vertex 26.12998577530311 609.1012366554347 1.2499964067887521
    vertex 26.129985546570406 593.7512390467103 1.2500023061552037
  endloop
endfacet
facet normal 6.618705783812351e-07 -4.4854308962448203e-07 -0.9999999999996805
  outer loop
    vertex 26.12998577530311 609.1012366554347 1.2499964067887521
    vertex 24.9299821374729 592.5512366994342 1.2500034116726135
    vertex 24.929982148175903 596.4512366994344 1.2500018337429546
  endloop
endfacet
facet normal 6.618705783812351e-07 -4.4854308962448203e-07 -0.9999999999996805
  outer loop
    vertex 26.12998577530311 609.1012366554347 1.2499964067887521
    vertex 24.929982148175903 596.4512366994344 1.2500018337429546
    vertex 22.630003318073463 609.1012366539021 1.2499956694335703
  endloop
endfacet
facet normal 6.618705783812351e-07 -4.4854308962448203e-07 -0.9999999999996805
  outer loop
    vertex 22.630003318073463 609.1012366539021 1.2499956694335703
    vertex 24.929982148175903 596.4512366994344 1.2500018337429546
    vertex 23.929982145195716 596.2512367007893 1.2500018218224531
  endloop
endfacet
facet normal 6.618705783812351e-07 -4.4854308962448203e-07 -0.9999999999996805
  outer loop
    vertex 22.630003318073463 609.1012366539021 1.2499956694335703
    vertex 23.929982145195716 596.2512367007893 1.2500018218224531
    vertex 22.630003197586614 601.0154953672532 1.249995576843252
  endloop
endfacet
facet normal -0.5773493596876913 0.5773508356742749 -0.577350612205815
  outer loop
    vertex 19.33000334193664 597.7155045847912 1.2499959966293468
    vertex 22.130003197586632 601.0155012432004 1.7500003281432068
    vertex 22.630003197586614 601.0154953672532 1.249995576843252
  endloop
endfacet
facet normal -0.5773493596876913 0.5773508356742749 -0.577350612205815
  outer loop
    vertex 22.130003197586632 601.0155012432004 1.7500003281432068
    vertex 19.33000334193664 597.7155045847912 1.2499959966293468
    vertex 18.82999641140563 597.7155029991619 1.7500001253520732
  endloop
endfacet
facet normal -0.5773493596876913 0.5773508356742749 -0.577350612205815
  outer loop
    vertex 22.130003197586632 601.0155012432004 1.7500003281432068
    vertex 18.82999641140563 597.7155029991619 1.7500001253520732
    vertex 18.82999698411399 599.9654966187716 3.999994849711366
  endloop
endfacet
facet normal -0.5773493596876913 0.5773508356742749 -0.577350612205815
  outer loop
    vertex 22.130003197586632 601.0155012432004 1.7500003281432068
    vertex 18.82999698411399 599.9654966187716 3.999994849711366
    vertex 22.13000323111444 603.2654961513333 3.9999956607923868
  endloop
endfacet
endsolid Indexer
