solid Indexer
facet normal -1.0 -5.365042577679609e-09 -1.5409890080370753e-08
  outer loop
    vertex 61.45420717481697 598.4182451936657 6.249993096678504
    vertex 61.45420717965752 601.8182451933609 4.752143586113137
    vertex 61.45420718236683 598.4182451933609 4.752143586113137
  endloop
endfacet
facet normal -1.0 -5.365042577679609e-09 -1.5409890080370753e-08
  outer loop
    vertex 61.45420717965752 601.8182451933609 4.752143586113137
    vertex 61.45420717481697 598.4182451936657 6.249993096678504
    vertex 61.45420714104399 601.8182451933609 6.249993120830909
  endloop
endfacet
facet normal 0.7071043253932792 -0.7071092369710185 -6.162690279524939e-07
  outer loop
    vertex 63.25422441636745 600.2182470454896 6.249995767232052
    vertex 62.754210579669866 599.7182474730138 1.2500066551693212
    vertex 63.25422450690493 600.2182470454896 1.750006457536195
  endloop
endfacet
facet normal 0.7071043253932792 -0.7071092369710185 -6.162690279524939e-07
  outer loop
    vertex 62.754210579669866 599.7182474730138 1.2500066551693212
    vertex 63.25422441636745 600.2182470454896 6.249995767232052
    vertex 61.45420717481697 598.4182451936657 6.249993096678504
  endloop
endfacet
facet normal 0.7071043253932792 -0.7071092369710185 -6.162690279524939e-07
  outer loop
    vertex 62.754210579669866 599.7182474730138 1.2500066551693212
    vertex 61.45420717481697 598.4182451936657 6.249993096678504
    vertex 61.45420718236683 598.4182451933609 4.752143586113137
  endloop
endfacet
facet normal 0.7071043253932792 -0.7071092369710185 -6.162690279524939e-07
  outer loop
    vertex 62.754210579669866 599.7182474730138 1.2500066551693212
    vertex 61.45420718236683 598.4182451933609 4.752143586113137
    vertex 61.454207188453886 598.4182451933608 1.2500078792941602
  endloop
endfacet
facet normal 0.7071043253932792 -0.7071092369710185 -6.162690279524939e-07
  outer loop
    vertex 61.45420714368958 598.4182451933609 2.75214358611314
    vertex 61.454207188453886 598.4182451933608 1.2500078792941602
    vertex 61.45420718236683 598.4182451933609 4.752143586113137
  endloop
endfacet
facet normal -0.707109520074054 -0.707104042288283 -4.595605927593459e-07
  outer loop
    vertex 57.05420719031652 598.4182451337578 1.250005571365067
    vertex 55.25422491968958 600.2182439062301 1.7500042851582998
    vertex 55.75422556494727 599.7182391430974 1.2500044638002248
  endloop
endfacet
facet normal -0.707109520074054 -0.707104042288283 -4.595605927593459e-07
  outer loop
    vertex 55.25422491968958 600.2182439062301 1.7500042851582998
    vertex 57.05420719031652 598.4182451337578 1.250005571365067
    vertex 57.05420714375322 598.4182451337578 6.249993120832421
  endloop
endfacet
facet normal -0.707109520074054 -0.707104042288283 -4.595605927593459e-07
  outer loop
    vertex 55.25422491968958 600.2182439062301 1.7500042851582998
    vertex 57.05420714375322 598.4182451337578 6.249993120832421
    vertex 55.2542191123836 600.2182439062301 6.2499931208330075
  endloop
endfacet
facet normal -1.0 -7.656968639533369e-09 -1.5801099501253778e-08
  outer loop
    vertex 61.454207188453886 598.4182451933608 1.2500078792941602
    vertex 61.45420714102173 601.8182451933609 1.750006068905928
    vertex 61.454207141042374 602.3182451933608 1.250006068905931
  endloop
endfacet
facet normal -1.0 -7.656968639533369e-09 -1.5801099501253778e-08
  outer loop
    vertex 61.45420714102173 601.8182451933609 1.750006068905928
    vertex 61.454207188453886 598.4182451933608 1.2500078792941602
    vertex 61.45420714368958 598.4182451933609 2.75214358611314
  endloop
endfacet
facet normal -1.0 -7.656968639533369e-09 -1.5801099501253778e-08
  outer loop
    vertex 61.45420714102173 601.8182451933609 1.750006068905928
    vertex 61.45420714368958 598.4182451933609 2.75214358611314
    vertex 61.45420714098036 601.8182451933609 2.75214358611314
  endloop
endfacet
facet normal 0.999999999999859 -5.301386688455546e-07 -3.5846005229165916e-08
  outer loop
    vertex 63.25423222243555 614.1333086841541 2.4999931207337505
    vertex 63.25423225006891 612.2788280288161 2.5908821291868778
    vertex 63.25423225469637 611.968245174693 2.549993120733762
  endloop
endfacet
facet normal 0.999999999999859 -5.301386688455546e-07 -3.5846005229165916e-08
  outer loop
    vertex 63.25423225006891 612.2788280288161 2.5908821291868778
    vertex 63.25423222243555 614.1333086841541 2.4999931207337505
    vertex 63.25423221871431 614.3830597404158 3.102945507977447
  endloop
endfacet
facet normal 0.999999999999859 -5.301386688455546e-07 -3.5846005229165916e-08
  outer loop
    vertex 63.25423225006891 612.2788280288161 2.5908821291868778
    vertex 63.25423221871431 614.3830597404158 3.102945507977447
    vertex 63.254232245756526 612.5682451746931 2.7107626361924124
  endloop
endfacet
facet normal 0.999999999999859 -5.301386688455546e-07 -3.5846005229165916e-08
  outer loop
    vertex 63.254232245756526 612.5682451746931 2.7107626361924124
    vertex 63.25423221871431 614.3830597404158 3.102945507977447
    vertex 63.25423224205261 612.8167733121169 2.901464983309896
  endloop
endfacet
facet normal 0.999999999999859 -5.301386688455546e-07 -3.5846005229165916e-08
  outer loop
    vertex 63.25423224205261 612.8167733121169 2.901464983309896
    vertex 63.25423221871431 614.3830597404158 3.102945507977447
    vertex 63.254232239211845 613.0074756592344 3.1499931207337606
  endloop
endfacet
facet normal 0.999999999999859 -5.301386688455546e-07 -3.5846005229165916e-08
  outer loop
    vertex 63.254232239211845 613.0074756592344 3.1499931207337606
    vertex 63.25423221871431 614.3830597404158 3.102945507977447
    vertex 63.2542322174452 614.468245174693 3.7499931207337593
  endloop
endfacet
facet normal 0.999999999999859 -5.301386688455546e-07 -3.5846005229165916e-08
  outer loop
    vertex 63.254232239211845 613.0074756592344 3.1499931207337606
    vertex 63.2542322174452 614.468245174693 3.7499931207337593
    vertex 63.25423223742492 613.1273561662399 3.4394102666107185
  endloop
endfacet
facet normal 0.999999999999859 -5.301386688455546e-07 -3.5846005229165916e-08
  outer loop
    vertex 63.25423223742492 613.1273561662399 3.4394102666107185
    vertex 63.2542322174452 614.468245174693 3.7499931207337593
    vertex 63.254232236816335 613.1682451746931 3.7499931207337593
  endloop
endfacet
facet normal 0.999999999999859 -5.301386688455546e-07 -3.5846005229165916e-08
  outer loop
    vertex 63.254232236816335 613.1682451746931 3.7499931207337593
    vertex 63.2542322174452 614.468245174693 3.7499931207337593
    vertex 63.25423221871486 614.3830597404158 4.39704073349005
  endloop
endfacet
facet normal 0.999999999999859 -5.301386688455546e-07 -3.5846005229165916e-08
  outer loop
    vertex 63.254232236816335 613.1682451746931 3.7499931207337593
    vertex 63.25423221871486 614.3830597404158 4.39704073349005
    vertex 63.25423223742525 613.1273561662399 4.060575974856778
  endloop
endfacet
facet normal 0.999999999999859 -5.301386688455546e-07 -3.5846005229165916e-08
  outer loop
    vertex 63.25423223742525 613.1273561662399 4.060575974856778
    vertex 63.25423221871486 614.3830597404158 4.39704073349005
    vertex 63.25423223921215 613.0074756592344 4.3499931207337585
  endloop
endfacet
facet normal 0.999999999999859 -5.301386688455546e-07 -3.5846005229165916e-08
  outer loop
    vertex 63.25423223921215 613.0074756592344 4.3499931207337585
    vertex 63.25423221871486 614.3830597404158 4.39704073349005
    vertex 63.25423224205322 612.8167733121169 4.598521258157601
  endloop
endfacet
facet normal 0.999999999999859 -5.301386688455546e-07 -3.5846005229165916e-08
  outer loop
    vertex 63.25423224205322 612.8167733121169 4.598521258157601
    vertex 63.25423221871486 614.3830597404158 4.39704073349005
    vertex 63.254232222436414 614.1333086841541 4.999993120733746
  endloop
endfacet
facet normal 0.999999999999859 -5.301386688455546e-07 -3.5846005229165916e-08
  outer loop
    vertex 63.25423224205322 612.8167733121169 4.598521258157601
    vertex 63.254232222436414 614.1333086841541 4.999993120733746
    vertex 63.25423224575735 612.5682451746931 4.789223605275062
  endloop
endfacet
facet normal 0.999999999999859 -5.301386688455546e-07 -3.5846005229165916e-08
  outer loop
    vertex 63.25423224575735 612.5682451746931 4.789223605275062
    vertex 63.254232222436414 614.1333086841541 4.999993120733746
    vertex 63.25423225006982 612.2788280288161 4.909104112280642
  endloop
endfacet
facet normal 0.999999999999859 -5.301386688455546e-07 -3.5846005229165916e-08
  outer loop
    vertex 63.25423225006982 612.2788280288161 4.909104112280642
    vertex 63.254232222436414 614.1333086841541 4.999993120733746
    vertex 63.25423225469708 611.968245174693 4.949993120733757
  endloop
endfacet
facet normal 0.999999999999859 -5.301386688455546e-07 -3.5846005229165916e-08
  outer loop
    vertex 63.25422836988487 613.4333775092125 1.7500064575362704
    vertex 63.25422441636745 600.2182470454896 6.249995767232052
    vertex 63.25422450690493 600.2182470454896 1.750006457536195
  endloop
endfacet
facet normal 0.999999999999859 -5.301386688455546e-07 -3.5846005229165916e-08
  outer loop
    vertex 63.25422441636745 600.2182470454896 6.249995767232052
    vertex 63.25422836988487 613.4333775092125 1.7500064575362704
    vertex 63.25423225932417 611.65766232057 2.5908821291868778
  endloop
endfacet
facet normal 0.999999999999859 -5.301386688455546e-07 -3.5846005229165916e-08
  outer loop
    vertex 63.25423225932417 611.65766232057 2.5908821291868778
    vertex 63.25422836988487 613.4333775092125 1.7500064575362704
    vertex 63.25423222835538 613.7360121276594 1.9822261677673638
  endloop
endfacet
facet normal 0.999999999999859 -5.301386688455546e-07 -3.5846005229165916e-08
  outer loop
    vertex 63.25423225932417 611.65766232057 2.5908821291868778
    vertex 63.25423222835538 613.7360121276594 1.9822261677673638
    vertex 63.25423225469637 611.968245174693 2.549993120733762
  endloop
endfacet
facet normal 0.999999999999859 -5.301386688455546e-07 -3.5846005229165916e-08
  outer loop
    vertex 63.25423225469637 611.968245174693 2.549993120733762
    vertex 63.25423222835538 613.7360121276594 1.9822261677673638
    vertex 63.25423222243555 614.1333086841541 2.4999931207337505
  endloop
endfacet
facet normal 0.999999999999859 -5.301386688455546e-07 -3.5846005229165916e-08
  outer loop
    vertex 63.25422441636745 600.2182470454896 6.249995767232052
    vertex 63.25423225932417 611.65766232057 2.5908821291868778
    vertex 63.25423226363737 611.368245174693 2.7107626361924124
  endloop
endfacet
facet normal 0.999999999999859 -5.301386688455546e-07 -3.5846005229165916e-08
  outer loop
    vertex 63.25422441636745 600.2182470454896 6.249995767232052
    vertex 63.25423226363737 611.368245174693 2.7107626361924124
    vertex 63.254232267340626 611.1197170372692 2.901464983309896
  endloop
endfacet
facet normal 0.999999999999859 -5.301386688455546e-07 -3.5846005229165916e-08
  outer loop
    vertex 63.25422441636745 600.2182470454896 6.249995767232052
    vertex 63.254232267340626 611.1197170372692 2.901464983309896
    vertex 63.25423227018256 610.9290146901517 3.1499931207337606
  endloop
endfacet
facet normal 0.999999999999859 -5.301386688455546e-07 -3.5846005229165916e-08
  outer loop
    vertex 63.25422441636745 600.2182470454896 6.249995767232052
    vertex 63.25423227018256 610.9290146901517 3.1499931207337606
    vertex 63.25423227196829 610.8091341831462 3.4394102666107185
  endloop
endfacet
facet normal 0.999999999999859 -5.301386688455546e-07 -3.5846005229165916e-08
  outer loop
    vertex 63.25422441636745 600.2182470454896 6.249995767232052
    vertex 63.25423227196829 610.8091341831462 3.4394102666107185
    vertex 63.25423227257821 610.7682451746931 3.7499931207337593
  endloop
endfacet
facet normal 0.999999999999859 -5.301386688455546e-07 -3.5846005229165916e-08
  outer loop
    vertex 63.25422441636745 600.2182470454896 6.249995767232052
    vertex 63.25423227257821 610.7682451746931 3.7499931207337593
    vertex 63.25423227196862 610.8091341831462 4.060575974856778
  endloop
endfacet
facet normal 0.999999999999859 -5.301386688455546e-07 -3.5846005229165916e-08
  outer loop
    vertex 63.25422441636745 600.2182470454896 6.249995767232052
    vertex 63.25423227196862 610.8091341831462 4.060575974856778
    vertex 63.25423227018287 610.9290146901517 4.3499931207337585
  endloop
endfacet
facet normal 0.999999999999859 -5.301386688455546e-07 -3.5846005229165916e-08
  outer loop
    vertex 63.25422441636745 600.2182470454896 6.249995767232052
    vertex 63.25423227018287 610.9290146901517 4.3499931207337585
    vertex 63.25423226734124 611.1197170372692 4.598521258157601
  endloop
endfacet
facet normal 0.999999999999859 -5.301386688455546e-07 -3.5846005229165916e-08
  outer loop
    vertex 63.25422441636745 600.2182470454896 6.249995767232052
    vertex 63.25423226734124 611.1197170372692 4.598521258157601
    vertex 63.254232263638194 611.368245174693 4.789223605275062
  endloop
endfacet
facet normal 0.999999999999859 -5.301386688455546e-07 -3.5846005229165916e-08
  outer loop
    vertex 63.25422441636745 600.2182470454896 6.249995767232052
    vertex 63.254232263638194 611.368245174693 4.789223605275062
    vertex 63.254232259325086 611.65766232057 4.909104112280642
  endloop
endfacet
facet normal 0.999999999999859 -5.301386688455546e-07 -3.5846005229165916e-08
  outer loop
    vertex 63.25422441636745 600.2182470454896 6.249995767232052
    vertex 63.254232259325086 611.65766232057 4.909104112280642
    vertex 63.25423225469708 611.968245174693 4.949993120733757
  endloop
endfacet
facet normal 0.999999999999859 -5.301386688455546e-07 -3.5846005229165916e-08
  outer loop
    vertex 63.25422441636745 600.2182470454896 6.249995767232052
    vertex 63.25423225469708 611.968245174693 4.949993120733757
    vertex 63.254232222436414 614.1333086841541 4.999993120733746
  endloop
endfacet
facet normal 0.999999999999859 -5.301386688455546e-07 -3.5846005229165916e-08
  outer loop
    vertex 63.25422441636745 600.2182470454896 6.249995767232052
    vertex 63.254232222436414 614.1333086841541 4.999993120733746
    vertex 63.2542322283566 613.7360121276594 5.51776007370011
  endloop
endfacet
facet normal 0.999999999999859 -5.301386688455546e-07 -3.5846005229165916e-08
  outer loop
    vertex 63.25422441636745 600.2182470454896 6.249995767232052
    vertex 63.2542322283566 613.7360121276594 5.51776007370011
    vertex 63.25423223607189 613.218245174693 5.915056630194844
  endloop
endfacet
facet normal 0.999999999999859 -5.301386688455546e-07 -3.5846005229165916e-08
  outer loop
    vertex 63.25422441636745 600.2182470454896 6.249995767232052
    vertex 63.25423223607189 613.218245174693 5.915056630194844
    vertex 63.254229301388854 612.6152900970737 6.164809171055887
  endloop
endfacet
facet normal 0.999999999999859 -5.301386688455546e-07 -3.5846005229165916e-08
  outer loop
    vertex 63.25422441636745 600.2182470454896 6.249995767232052
    vertex 63.254229301388854 612.6152900970737 6.164809171055887
    vertex 63.254229301388776 611.9682424843174 6.249994605333219
  endloop
endfacet
facet normal 1.477335974682e-08 -0.9914448613738123 0.13052619222003792
  outer loop
    vertex 63.254232236816335 613.1682451746931 3.7499931207337593
    vertex 55.254232237424844 613.1273560470336 3.43941026661346
    vertex 63.25423223742492 613.1273561662399 3.4394102666107185
  endloop
endfacet
facet normal 1.477335974682e-08 -0.9914448613738123 0.13052619222003792
  outer loop
    vertex 55.254232237424844 613.1273560470336 3.43941026661346
    vertex 63.254232236816335 613.1682451746931 3.7499931207337593
    vertex 55.254232236816264 613.1682450554868 3.7499931207365007
  endloop
endfacet
facet normal -1.4773348562656916e-08 0.99144486137381 -0.13052619222005368
  outer loop
    vertex 55.25423221871432 614.3830596212094 3.1029455079801886
    vertex 63.2542322174452 614.468245174693 3.7499931207337593
    vertex 63.25423221871431 614.3830597404158 3.102945507977447
  endloop
endfacet
facet normal -1.4773348562656916e-08 0.99144486137381 -0.13052619222005368
  outer loop
    vertex 63.2542322174452 614.468245174693 3.7499931207337593
    vertex 55.25423221871432 614.3830596212094 3.1029455079801886
    vertex 55.254232217445214 614.4682450554868 3.7499931207365007
  endloop
endfacet
facet normal -5.7019640790380154e-09 0.3826834323650014 0.9238795325113235
  outer loop
    vertex 63.25423226363737 611.368245174693 2.7107626361924124
    vertex 55.25423225932418 611.6576622013638 2.590882129189619
    vertex 55.25423226363729 611.3682450554868 2.710762636195154
  endloop
endfacet
facet normal -5.7019640790380154e-09 0.3826834323650014 0.9238795325113235
  outer loop
    vertex 55.25423225932418 611.6576622013638 2.590882129189619
    vertex 63.25423226363737 611.368245174693 2.7107626361924124
    vertex 63.25423225932417 611.65766232057 2.5908821291868778
  endloop
endfacet
facet normal -1.4773359746749416e-08 0.9914448613738109 -0.13052619222004724
  outer loop
    vertex 55.25423227257813 610.7682450554868 3.7499931207365007
    vertex 63.25423227196862 610.8091341831462 4.060575974856778
    vertex 63.25423227257821 610.7682451746931 3.7499931207337593
  endloop
endfacet
facet normal -1.4773359746749416e-08 0.9914448613738109 -0.13052619222004724
  outer loop
    vertex 63.25423227196862 610.8091341831462 4.060575974856778
    vertex 55.25423227257813 610.7682450554868 3.7499931207365007
    vertex 55.25423227196855 610.8091340639398 4.0605759748595185
  endloop
endfacet
facet normal 1.9452853291632763e-09 -0.13052619222003825 0.9914448613738123
  outer loop
    vertex 63.25423225469637 611.968245174693 2.549993120733762
    vertex 55.254232250068924 612.2788279096097 2.590882129189619
    vertex 55.2542322546963 611.9682450554867 2.5499931207365036
  endloop
endfacet
facet normal 1.9452853291632763e-09 -0.13052619222003825 0.9914448613738123
  outer loop
    vertex 55.254232250068924 612.2788279096097 2.590882129189619
    vertex 63.25423225469637 611.968245174693 2.549993120733762
    vertex 63.25423225006891 612.2788280288161 2.5908821291868778
  endloop
endfacet
facet normal 9.071294555133413e-09 -0.6087614290087031 0.7933533402912485
  outer loop
    vertex 63.254232245756526 612.5682451746931 2.7107626361924124
    vertex 55.25423224205254 612.8167731929107 2.901464983312638
    vertex 55.254232245755816 612.5682450554867 2.710762636195154
  endloop
endfacet
facet normal 9.071294555133413e-09 -0.6087614290087031 0.7933533402912485
  outer loop
    vertex 55.25423224205254 612.8167731929107 2.901464983312638
    vertex 63.254232245756526 612.5682451746931 2.7107626361924124
    vertex 63.25423224205261 612.8167733121169 2.901464983309896
  endloop
endfacet
facet normal 9.07074795350192e-09 -0.6087614290086578 -0.7933533402912833
  outer loop
    vertex 55.25423224205314 612.8167731929107 4.598521258160343
    vertex 63.25423224575735 612.5682451746931 4.789223605275062
    vertex 55.25423224575664 612.5682450554867 4.789223605277804
  endloop
endfacet
facet normal 9.07074795350192e-09 -0.6087614290086578 -0.7933533402912833
  outer loop
    vertex 63.25423224575735 612.5682451746931 4.789223605275062
    vertex 55.25423224205314 612.8167731929107 4.598521258160343
    vertex 63.25423224205322 612.8167733121169 4.598521258157601
  endloop
endfacet
facet normal -5.702600609110893e-09 0.3826834323651242 -0.9238795325112724
  outer loop
    vertex 55.25423225932501 611.6576622013638 4.909104112283384
    vertex 63.254232263638194 611.368245174693 4.789223605275062
    vertex 55.254232263638116 611.3682450554868 4.789223605277804
  endloop
endfacet
facet normal -5.702600609110893e-09 0.3826834323651242 -0.9238795325112724
  outer loop
    vertex 63.254232263638194 611.368245174693 4.789223605275062
    vertex 55.25423225932501 611.6576622013638 4.909104112283384
    vertex 63.254232259325086 611.65766232057 4.909104112280642
  endloop
endfacet
facet normal 1.3766664413264854e-08 -0.9238795325113027 0.38268343236505153
  outer loop
    vertex 63.25423223742492 613.1273561662399 3.4394102666107185
    vertex 55.25423223921177 613.0074755400282 3.1499931207365024
    vertex 63.254232239211845 613.0074756592344 3.1499931207337606
  endloop
endfacet
facet normal 1.3766664413264854e-08 -0.9238795325113027 0.38268343236505153
  outer loop
    vertex 55.25423223921177 613.0074755400282 3.1499931207365024
    vertex 63.25423223742492 613.1273561662399 3.4394102666107185
    vertex 55.254232237424844 613.1273560470336 3.43941026661346
  endloop
endfacet
facet normal -1.1821375344890299e-08 0.7933533402912121 0.6087614290087509
  outer loop
    vertex 63.254232222436414 614.1333086841541 4.999993120733746
    vertex 55.254232228356614 613.7360120084531 5.517760073702852
    vertex 63.2542322283566 613.7360121276594 5.51776007370011
  endloop
endfacet
facet normal -1.1821375344890299e-08 0.7933533402912121 0.6087614290087509
  outer loop
    vertex 55.254232228356614 613.7360120084531 5.517760073702852
    vertex 63.254232222436414 614.1333086841541 4.999993120733746
    vertex 55.25423222243642 614.1333085649479 4.999993120736487
  endloop
endfacet
facet normal 5.701966237376157e-09 -0.38268343236517527 -0.9238795325112514
  outer loop
    vertex 55.25423224575664 612.5682450554867 4.789223605277804
    vertex 63.25423225006982 612.2788280288161 4.909104112280642
    vertex 55.25423225006975 612.2788279096097 4.909104112283384
  endloop
endfacet
facet normal 5.701966237376157e-09 -0.38268343236517527 -0.9238795325112514
  outer loop
    vertex 63.25423225006982 612.2788280288161 4.909104112280642
    vertex 55.25423224575664 612.5682450554867 4.789223605277804
    vertex 63.25423224575735 612.5682451746931 4.789223605275062
  endloop
endfacet
facet normal -9.070747952432223e-09 0.6087614290087631 0.7933533402912025
  outer loop
    vertex 63.25423223607189 613.218245174693 5.915056630194844
    vertex 55.254232228356614 613.7360120084531 5.517760073702852
    vertex 55.25423223607193 613.2182450554868 5.915056630197585
  endloop
endfacet
facet normal -9.070747952432223e-09 0.6087614290087631 0.7933533402912025
  outer loop
    vertex 55.254232228356614 613.7360120084531 5.517760073702852
    vertex 63.25423223607189 613.218245174693 5.915056630194844
    vertex 63.2542322283566 613.7360121276594 5.51776007370011
  endloop
endfacet
facet normal -1.1821799241416646e-08 0.7933533402911609 -0.6087614290088172
  outer loop
    vertex 55.2542322701828 610.9290145709455 4.3499931207364995
    vertex 63.25423226734124 611.1197170372692 4.598521258157601
    vertex 63.25423227018287 610.9290146901517 4.3499931207337585
  endloop
endfacet
facet normal -1.1821799241416646e-08 0.7933533402911609 -0.6087614290088172
  outer loop
    vertex 63.25423226734124 611.1197170372692 4.598521258157601
    vertex 55.2542322701828 610.9290145709455 4.3499931207364995
    vertex 55.25423226734125 611.1197169180629 4.598521258160343
  endloop
endfacet
facet normal 1.1821794766686382e-08 -0.7933533402912573 0.6087614290086919
  outer loop
    vertex 63.254232239211845 613.0074756592344 3.1499931207337606
    vertex 55.25423224205254 612.8167731929107 2.901464983312638
    vertex 63.25423224205261 612.8167733121169 2.901464983309896
  endloop
endfacet
facet normal 1.1821794766686382e-08 -0.7933533402912573 0.6087614290086919
  outer loop
    vertex 55.25423224205254 612.8167731929107 2.901464983312638
    vertex 63.254232239211845 613.0074756592344 3.1499931207337606
    vertex 55.25423223921177 613.0074755400282 3.1499931207365024
  endloop
endfacet
facet normal -1.4773258633349589e-08 0.9914448613738096 0.1305261922200582
  outer loop
    vertex 63.2542322174452 614.468245174693 3.7499931207337593
    vertex 55.254232218714876 614.3830596212094 4.397040733492791
    vertex 63.25423221871486 614.3830597404158 4.39704073349005
  endloop
endfacet
facet normal -1.4773258633349589e-08 0.9914448613738096 0.1305261922200582
  outer loop
    vertex 55.254232218714876 614.3830596212094 4.397040733492791
    vertex 63.2542322174452 614.468245174693 3.7499931207337593
    vertex 55.254232217445214 614.4682450554868 3.7499931207365007
  endloop
endfacet
facet normal -1.3766664412341891e-08 0.923879532511313 -0.38268343236502594
  outer loop
    vertex 55.25423227196855 610.8091340639398 4.0605759748595185
    vertex 63.25423227018287 610.9290146901517 4.3499931207337585
    vertex 63.25423227196862 610.8091341831462 4.060575974856778
  endloop
endfacet
facet normal -1.3766664412341891e-08 0.923879532511313 -0.38268343236502594
  outer loop
    vertex 63.25423227018287 610.9290146901517 4.3499931207337585
    vertex 55.25423227196855 610.8091340639398 4.0605759748595185
    vertex 55.2542322701828 610.9290145709455 4.3499931207364995
  endloop
endfacet
facet normal 1.3766400753458475e-08 -0.923879532511313 -0.38268343236502594
  outer loop
    vertex 55.25423223921207 613.0074755400282 4.3499931207364995
    vertex 63.25423223742525 613.1273561662399 4.060575974856778
    vertex 63.25423223921215 613.0074756592344 4.3499931207337585
  endloop
endfacet
facet normal 1.3766400753458475e-08 -0.923879532511313 -0.38268343236502594
  outer loop
    vertex 63.25423223742525 613.1273561662399 4.060575974856778
    vertex 55.25423223921207 613.0074755400282 4.3499931207364995
    vertex 55.25423223742517 613.1273560470336 4.0605759748595185
  endloop
endfacet
facet normal -9.071297987229024e-09 0.6087614290087273 -0.7933533402912302
  outer loop
    vertex 55.254232263638116 611.3682450554868 4.789223605277804
    vertex 63.25423226734124 611.1197170372692 4.598521258157601
    vertex 55.25423226734125 611.1197169180629 4.598521258160343
  endloop
endfacet
facet normal -9.071297987229024e-09 0.6087614290087273 -0.7933533402912302
  outer loop
    vertex 63.25423226734124 611.1197170372692 4.598521258157601
    vertex 55.254232263638116 611.3682450554868 4.789223605277804
    vertex 63.254232263638194 611.368245174693 4.789223605275062
  endloop
endfacet
facet normal 3.0713400999879527e-07 0.1305193054082639 -0.9914457680154019
  outer loop
    vertex 55.66905013273929 612.6152926744242 1.3351785550136734
    vertex 62.754210579669866 611.9682451672423 1.249999887951617
    vertex 55.754225564952186 611.9682450629371 1.249999017839826
  endloop
endfacet
facet normal 3.0713400999879527e-07 0.1305193054082639 -0.9914457680154019
  outer loop
    vertex 62.754210579669866 611.9682451672423 1.249999887951617
    vertex 55.66905013273929 612.6152926744242 1.3351785550136734
    vertex 62.83938747347392 612.6152927812677 1.335178555011216
  endloop
endfacet
facet normal -1.3766400753458322e-08 0.9238795325113027 0.3826834323650515
  outer loop
    vertex 63.25423227018256 610.9290146901517 3.1499931207337606
    vertex 55.25423227196822 610.8091340639398 3.43941026661346
    vertex 63.25423227196829 610.8091341831462 3.4394102666107185
  endloop
endfacet
facet normal -1.3766400753458322e-08 0.9238795325113027 0.3826834323650515
  outer loop
    vertex 55.25423227196822 610.8091340639398 3.43941026661346
    vertex 63.25423227018256 610.9290146901517 3.1499931207337606
    vertex 55.25423227018249 610.9290145709455 3.1499931207365024
  endloop
endfacet
facet normal -9.071299069325776e-09 0.6087614290087243 -0.7933533402912323
  outer loop
    vertex 55.25422857627723 613.4333745589046 1.7500042851583708
    vertex 63.08914522776283 613.2182451722332 1.5849296112727098
    vertex 55.419300010366584 613.2182450579463 1.5849296112753384
  endloop
endfacet
facet normal -9.071299069325776e-09 0.6087614290087243 -0.7933533402912323
  outer loop
    vertex 63.08914522776283 613.2182451722332 1.5849296112727098
    vertex 55.25422857627723 613.4333745589046 1.7500042851583708
    vertex 63.25422836988487 613.4333775092125 1.7500064575362704
  endloop
endfacet
facet normal -9.071299069325776e-09 0.6087614290087243 -0.7933533402912323
  outer loop
    vertex 63.25422836988487 613.4333775092125 1.7500064575362704
    vertex 55.25422857627723 613.4333745589046 1.7500042851583708
    vertex 55.25423222835539 613.7360120084531 1.9822261677701054
  endloop
endfacet
facet normal -9.071299069325776e-09 0.6087614290087243 -0.7933533402912323
  outer loop
    vertex 63.25422836988487 613.4333775092125 1.7500064575362704
    vertex 55.25423222835539 613.7360120084531 1.9822261677701054
    vertex 63.25423222835538 613.7360121276594 1.9822261677673638
  endloop
endfacet
facet normal -9.07075138646597e-09 0.6087614290087727 0.7933533402911953
  outer loop
    vertex 63.254232267340626 611.1197170372692 2.901464983309896
    vertex 55.25423226363729 611.3682450554868 2.710762636195154
    vertex 55.25423226734064 611.1197169180629 2.901464983312638
  endloop
endfacet
facet normal -9.07075138646597e-09 0.6087614290087727 0.7933533402911953
  outer loop
    vertex 55.25423226363729 611.3682450554868 2.710762636195154
    vertex 63.254232267340626 611.1197170372692 2.901464983309896
    vertex 63.25423226363737 611.368245174693 2.7107626361924124
  endloop
endfacet
facet normal -1.3766659200579815e-08 0.9238795325112837 -0.38268343236509705
  outer loop
    vertex 55.25423222243556 614.1333085649479 2.4999931207364923
    vertex 63.25423221871431 614.3830597404158 3.102945507977447
    vertex 63.25423222243555 614.1333086841541 2.4999931207337505
  endloop
endfacet
facet normal -1.3766659200579815e-08 0.9238795325112837 -0.38268343236509705
  outer loop
    vertex 63.25423221871431 614.3830597404158 3.102945507977447
    vertex 55.25423222243556 614.1333085649479 2.4999931207364923
    vertex 55.25423221871432 614.3830596212094 3.1029455079801886
  endloop
endfacet
facet normal -1.9446015120297403e-09 0.13052619222005687 0.9914448613738098
  outer loop
    vertex 63.25423225932417 611.65766232057 2.5908821291868778
    vertex 55.2542322546963 611.9682450554867 2.5499931207365036
    vertex 55.25423225932418 611.6576622013638 2.590882129189619
  endloop
endfacet
facet normal -1.9446015120297403e-09 0.13052619222005687 0.9914448613738098
  outer loop
    vertex 55.2542322546963 611.9682450554867 2.5499931207365036
    vertex 63.25423225932417 611.65766232057 2.5908821291868778
    vertex 63.25423225469637 611.968245174693 2.549993120733762
  endloop
endfacet
facet normal 1.9446022482573285e-09 -0.13052619222003825 -0.9914448613738123
  outer loop
    vertex 55.25423225006975 612.2788279096097 4.909104112283384
    vertex 63.25423225469708 611.968245174693 4.949993120733757
    vertex 55.254232254697094 611.9682450554867 4.949993120736499
  endloop
endfacet
facet normal 1.9446022482573285e-09 -0.13052619222003825 -0.9914448613738123
  outer loop
    vertex 63.25423225469708 611.968245174693 4.949993120733757
    vertex 55.25423225006975 612.2788279096097 4.909104112283384
    vertex 63.25423225006982 612.2788280288161 4.909104112280642
  endloop
endfacet
facet normal 1.477326981751266e-08 -0.9914448613738109 -0.13052619222004722
  outer loop
    vertex 55.25423223742517 613.1273560470336 4.0605759748595185
    vertex 63.254232236816335 613.1682451746931 3.7499931207337593
    vertex 63.25423223742525 613.1273561662399 4.060575974856778
  endloop
endfacet
facet normal 1.477326981751266e-08 -0.9914448613738109 -0.13052619222004722
  outer loop
    vertex 63.254232236816335 613.1682451746931 3.7499931207337593
    vertex 55.25423223742517 613.1273560470336 4.0605759748595185
    vertex 55.254232236816264 613.1682450554868 3.7499931207365007
  endloop
endfacet
facet normal 1.1821375345168327e-08 -0.7933533402912305 -0.6087614290087268
  outer loop
    vertex 55.25423224205314 612.8167731929107 4.598521258160343
    vertex 63.25423223921215 613.0074756592344 4.3499931207337585
    vertex 63.25423224205322 612.8167733121169 4.598521258157601
  endloop
endfacet
facet normal 1.1821375345168327e-08 -0.7933533402912305 -0.6087614290087268
  outer loop
    vertex 63.25423223921215 613.0074756592344 4.3499931207337585
    vertex 55.25423224205314 612.8167731929107 4.598521258160343
    vertex 55.25423223921207 613.0074755400282 4.3499931207364995
  endloop
endfacet
facet normal -1.1821379819899389e-08 0.7933533402911876 0.6087614290087826
  outer loop
    vertex 63.254232267340626 611.1197170372692 2.901464983309896
    vertex 55.25423227018249 610.9290145709455 3.1499931207365024
    vertex 63.25423227018256 610.9290146901517 3.1499931207337606
  endloop
endfacet
facet normal -1.1821379819899389e-08 0.7933533402911876 0.6087614290087826
  outer loop
    vertex 55.25423227018249 610.9290145709455 3.1499931207365024
    vertex 63.254232267340626 611.1197170372692 2.901464983309896
    vertex 55.25423226734064 611.1197169180629 2.901464983312638
  endloop
endfacet
facet normal -1.1821794766408143e-08 0.793353340291225 -0.6087614290087341
  outer loop
    vertex 55.25423222835539 613.7360120084531 1.9822261677701054
    vertex 63.25423222243555 614.1333086841541 2.4999931207337505
    vertex 63.25423222835538 613.7360121276594 1.9822261677673638
  endloop
endfacet
facet normal -1.1821794766408143e-08 0.793353340291225 -0.6087614290087341
  outer loop
    vertex 63.25423222243555 614.1333086841541 2.4999931207337505
    vertex 55.25423222835539 613.7360120084531 1.9822261677701054
    vertex 55.25423222243556 614.1333085649479 2.4999931207364923
  endloop
endfacet
facet normal -1.4773269817442112e-08 0.9914448613738123 0.13052619222003792
  outer loop
    vertex 63.25423227196829 610.8091341831462 3.4394102666107185
    vertex 55.25423227257813 610.7682450554868 3.7499931207365007
    vertex 63.25423227257821 610.7682451746931 3.7499931207337593
  endloop
endfacet
facet normal -1.4773269817442112e-08 0.9914448613738123 0.13052619222003792
  outer loop
    vertex 55.25423227257813 610.7682450554868 3.7499931207365007
    vertex 63.25423227196829 610.8091341831462 3.4394102666107185
    vertex 55.25423227196822 610.8091340639398 3.43941026661346
  endloop
endfacet
facet normal -1.3766395541191524e-08 0.9238795325112837 0.38268343236509694
  outer loop
    vertex 63.25423221871486 614.3830597404158 4.39704073349005
    vertex 55.25423222243642 614.1333085649479 4.999993120736487
    vertex 63.254232222436414 614.1333086841541 4.999993120733746
  endloop
endfacet
facet normal -1.3766395541191524e-08 0.9238795325112837 0.38268343236509694
  outer loop
    vertex 55.25423222243642 614.1333085649479 4.999993120736487
    vertex 63.25423221871486 614.3830597404158 4.39704073349005
    vertex 55.254232218714876 614.3830596212094 4.397040733492791
  endloop
endfacet
facet normal -1.945284592935688e-09 0.13052619222005687 -0.9914448613738098
  outer loop
    vertex 55.254232254697094 611.9682450554867 4.949993120736499
    vertex 63.254232259325086 611.65766232057 4.909104112280642
    vertex 55.25423225932501 611.6576622013638 4.909104112283384
  endloop
endfacet
facet normal -1.945284592935688e-09 0.13052619222005687 -0.9914448613738098
  outer loop
    vertex 63.254232259325086 611.65766232057 4.909104112280642
    vertex 55.254232254697094 611.9682450554867 4.949993120736499
    vertex 63.25423225469708 611.968245174693 4.949993120733757
  endloop
endfacet
facet normal -2.707872206943722e-08 0.38268367445716944 0.9238794322334265
  outer loop
    vertex 63.25423223607189 613.218245174693 5.915056630194844
    vertex 55.254232254698074 612.6152926682431 6.164807686459232
    vertex 63.254229301388854 612.6152900970737 6.164809171055887
  endloop
endfacet
facet normal -2.707872206943722e-08 0.38268367445716944 0.9238794322334265
  outer loop
    vertex 55.254232254698074 612.6152926682431 6.164807686459232
    vertex 63.25423223607189 613.218245174693 5.915056630194844
    vertex 55.25423223607193 613.2182450554868 5.915056630197585
  endloop
endfacet
facet normal 5.702602767950254e-09 -0.3826834323650523 0.9238795325113024
  outer loop
    vertex 63.25423225006891 612.2788280288161 2.5908821291868778
    vertex 55.254232245755816 612.5682450554867 2.710762636195154
    vertex 55.254232250068924 612.2788279096097 2.590882129189619
  endloop
endfacet
facet normal 5.702602767950254e-09 -0.3826834323650523 0.9238795325113024
  outer loop
    vertex 55.254232245755816 612.5682450554867 2.710762636195154
    vertex 63.25423225006891 612.2788280288161 2.5908821291868778
    vertex 63.254232245756526 612.5682451746931 2.7107626361924124
  endloop
endfacet
facet normal -5.702602767707101e-09 0.3826834323650979 -0.9238795325112835
  outer loop
    vertex 55.419300010366584 613.2182450579463 1.5849296112753384
    vertex 62.83938747347392 612.6152927812677 1.335178555011216
    vertex 55.66905013273929 612.6152926744242 1.3351785550136734
  endloop
endfacet
facet normal -5.702602767707101e-09 0.3826834323650979 -0.9238795325112835
  outer loop
    vertex 62.83938747347392 612.6152927812677 1.335178555011216
    vertex 55.419300010366584 613.2182450579463 1.5849296112753384
    vertex 63.08914522776283 613.2182451722332 1.5849296112727098
  endloop
endfacet
facet normal -1.4203639933764282e-07 0.13052619222004827 0.9914448613738007
  outer loop
    vertex 63.254229301388854 612.6152900970737 6.164809171055887
    vertex 55.254232254697456 611.9682450554867 6.249993120736565
    vertex 63.254229301388776 611.9682424843174 6.249994605333219
  endloop
endfacet
facet normal -1.4203639933764282e-07 0.13052619222004827 0.9914448613738007
  outer loop
    vertex 55.254232254697456 611.9682450554867 6.249993120736565
    vertex 63.254229301388854 612.6152900970737 6.164809171055887
    vertex 55.254232254698074 612.6152926682431 6.164807686459232
  endloop
endfacet
facet normal -1.0 -1.9650459943106773e-09 -3.164837103497938e-09
  outer loop
    vertex 60.954207154752446 598.9182451933609 4.25214358593747
    vertex 60.954207152218636 601.8182451933609 3.2521435861133114
    vertex 60.954207161082444 598.9182451933609 3.2521435838273476
  endloop
endfacet
facet normal -1.0 -1.9650459943106773e-09 -3.164837103497938e-09
  outer loop
    vertex 60.954207152218636 601.8182451933609 3.2521435861133114
    vertex 60.954207154752446 598.9182451933609 4.25214358593747
    vertex 60.954207152218984 601.8182451933609 4.252143586113309
  endloop
endfacet
facet normal -0.7071067619355336 -6.043733348034759e-10 0.7071068004375611
  outer loop
    vertex 61.45420717965752 601.8182451933609 4.752143586113137
    vertex 60.954207154752446 598.9182451933609 4.25214358593747
    vertex 61.45420718236683 598.4182451933609 4.752143586113137
  endloop
endfacet
facet normal -0.7071067619355336 -6.043733348034759e-10 0.7071068004375611
  outer loop
    vertex 60.954207154752446 598.9182451933609 4.25214358593747
    vertex 61.45420717965752 601.8182451933609 4.752143586113137
    vertex 60.954207152218984 601.8182451933609 4.252143586113309
  endloop
endfacet
facet normal -0.7071067907515052 -1.0016025103310277e-09 -0.7071067716215899
  outer loop
    vertex 60.954207161082444 598.9182451933609 3.2521435838273476
    vertex 61.45420714098036 601.8182451933609 2.75214358611314
    vertex 61.45420714368958 598.4182451933609 2.75214358611314
  endloop
endfacet
facet normal -0.7071067907515052 -1.0016025103310277e-09 -0.7071067716215899
  outer loop
    vertex 61.45420714098036 601.8182451933609 2.75214358611314
    vertex 60.954207161082444 598.9182451933609 3.2521435838273476
    vertex 60.954207152218636 601.8182451933609 3.2521435861133114
  endloop
endfacet
facet normal -0.7071067775726458 -0.7071067848004492 1.0044408065345453e-08
  outer loop
    vertex 60.954207154752446 598.9182451933609 4.25214358593747
    vertex 61.45420714368958 598.4182451933609 2.75214358611314
    vertex 61.45420718236683 598.4182451933609 4.752143586113137
  endloop
endfacet
facet normal -0.7071067775726458 -0.7071067848004492 1.0044408065345453e-08
  outer loop
    vertex 61.45420714368958 598.4182451933609 2.75214358611314
    vertex 60.954207154752446 598.9182451933609 4.25214358593747
    vertex 60.954207161082444 598.9182451933609 3.2521435838273476
  endloop
endfacet
facet normal 0.196116147910494 -0.9805806731364581 5.055739346809863e-09
  outer loop
    vertex 61.45420714104399 601.8182451933609 6.249993120830909
    vertex 60.45420717965752 601.6182451798146 4.752143586113478
    vertex 61.45420717965752 601.8182451933609 4.752143586113137
  endloop
endfacet
facet normal 0.196116147910494 -0.9805806731364581 5.055739346809863e-09
  outer loop
    vertex 60.45420717965752 601.6182451798146 4.752143586113478
    vertex 61.45420714104399 601.8182451933609 6.249993120830909
    vertex 60.454207141043995 601.6182451798146 6.24999312083125
  endloop
endfacet
facet normal 4.2365018302002273e-07 -0.7071077979497877 -0.7071057644217185
  outer loop
    vertex 60.45420714102176 601.6182451798146 1.750006068906273
    vertex 58.05420714104231 602.1182451473037 1.250003225579234
    vertex 60.4542071410424 602.1182451798146 1.250006068906273
  endloop
endfacet
facet normal 4.2365018302002273e-07 -0.7071077979497877 -0.7071057644217185
  outer loop
    vertex 58.05420714104231 602.1182451473037 1.250003225579234
    vertex 60.45420714102176 601.6182451798146 1.750006068906273
    vertex 58.054206978487784 601.6182451798146 1.7500060689070993
  endloop
endfacet
facet normal 0.1961161479104983 -0.9805806731364572 -6.636257528086455e-14
  outer loop
    vertex 59.95420715221901 601.6182451798146 4.25214358611365
    vertex 60.954207152218636 601.8182451933609 3.2521435861133114
    vertex 60.954207152218984 601.8182451933609 4.252143586113309
  endloop
endfacet
facet normal 0.1961161479104983 -0.9805806731364572 -6.636257528086455e-14
  outer loop
    vertex 60.954207152218636 601.8182451933609 3.2521435861133114
    vertex 59.95420715221901 601.6182451798146 4.25214358611365
    vertex 59.954207152218665 601.6182451798146 3.2521435861136525
  endloop
endfacet
facet normal 0.1924501014080106 -0.962250441865889 -0.19245011196917386
  outer loop
    vertex 60.45420717965752 601.6182451798146 4.752143586113478
    vertex 60.954207152218984 601.8182451933609 4.252143586113309
    vertex 61.45420717965752 601.8182451933609 4.752143586113137
  endloop
endfacet
facet normal 0.1924501014080106 -0.962250441865889 -0.19245011196917386
  outer loop
    vertex 60.954207152218984 601.8182451933609 4.252143586113309
    vertex 60.45420717965752 601.6182451798146 4.752143586113478
    vertex 59.95420715221901 601.6182451798146 4.25214358611365
  endloop
endfacet
facet normal 0.19611614791049833 -0.9805806731364572 8.096772721876909e-12
  outer loop
    vertex 61.45420714098036 601.8182451933609 2.75214358611314
    vertex 60.45420714102176 601.6182451798146 1.750006068906273
    vertex 61.45420714102173 601.8182451933609 1.750006068905928
  endloop
endfacet
facet normal 0.19611614791049833 -0.9805806731364572 8.096772721876909e-12
  outer loop
    vertex 60.45420714102176 601.6182451798146 1.750006068906273
    vertex 61.45420714098036 601.8182451933609 2.75214358611314
    vertex 60.45420714098039 601.6182451798146 2.7521435861134815
  endloop
endfacet
facet normal 0.19245010195949913 -0.9622504446226638 0.19245009763381343
  outer loop
    vertex 60.954207152218636 601.8182451933609 3.2521435861133114
    vertex 60.45420714098039 601.6182451798146 2.7521435861134815
    vertex 61.45420714098036 601.8182451933609 2.75214358611314
  endloop
endfacet
facet normal 0.19245010195949913 -0.9622504446226638 0.19245009763381343
  outer loop
    vertex 60.45420714098039 601.6182451798146 2.7521435861134815
    vertex 60.954207152218636 601.8182451933609 3.2521435861133114
    vertex 59.954207152218665 601.6182451798146 3.2521435861136525
  endloop
endfacet
facet normal 1.0 8.3084063515915e-09 4.5011616921726565e-09
  outer loop
    vertex 57.054207141042454 601.8182451337577 1.7500060689074437
    vertex 57.05420719031652 598.4182451337578 1.250005571365067
    vertex 57.0542071410423 602.3182451337577 1.2500032255795808
  endloop
endfacet
facet normal 1.0 8.3084063515915e-09 4.5011616921726565e-09
  outer loop
    vertex 57.05420719031652 598.4182451337578 1.250005571365067
    vertex 57.054207141042454 601.8182451337577 1.7500060689074437
    vertex 57.05420714375322 598.4182451337578 6.249993120832421
  endloop
endfacet
facet normal 1.0 8.3084063515915e-09 4.5011616921726565e-09
  outer loop
    vertex 57.05420714375322 598.4182451337578 6.249993120832421
    vertex 57.054207141042454 601.8182451337577 1.7500060689074437
    vertex 57.05420714104391 601.8182451337577 6.249993120832421
  endloop
endfacet
facet normal -1.9098878045712707e-07 -3.049886247100605e-08 0.9999999999999813
  outer loop
    vertex 60.454207141043995 601.6182451798146 6.24999312083125
    vertex 57.05420714104391 601.8182451337577 6.249993120832421
    vertex 58.054207141043904 601.6182451473038 6.249993120832071
  endloop
endfacet
facet normal -1.9098878045712707e-07 -3.049886247100605e-08 0.9999999999999813
  outer loop
    vertex 57.05420714104391 601.8182451337577 6.249993120832421
    vertex 60.454207141043995 601.6182451798146 6.24999312083125
    vertex 61.45420714104399 601.8182451933609 6.249993120830909
  endloop
endfacet
facet normal -1.9098878045712707e-07 -3.049886247100605e-08 0.9999999999999813
  outer loop
    vertex 63.25422441636745 600.2182470454896 6.249995767232052
    vertex 61.45420714104399 601.8182451933609 6.249993120830909
    vertex 61.45420717481697 598.4182451936657 6.249993096678504
  endloop
endfacet
facet normal -1.9098878045712707e-07 -3.049886247100605e-08 0.9999999999999813
  outer loop
    vertex 61.45420714104399 601.8182451933609 6.249993120830909
    vertex 63.25422441636745 600.2182470454896 6.249995767232052
    vertex 63.254229301388776 611.9682424843174 6.249994605333219
  endloop
endfacet
facet normal -1.9098878045712707e-07 -3.049886247100605e-08 0.9999999999999813
  outer loop
    vertex 57.05420714104391 601.8182451337577 6.249993120832421
    vertex 55.2542191123836 600.2182439062301 6.2499931208330075
    vertex 57.05420714375322 598.4182451337578 6.249993120832421
  endloop
endfacet
facet normal -1.9098878045712707e-07 -3.049886247100605e-08 0.9999999999999813
  outer loop
    vertex 55.2542191123836 600.2182439062301 6.2499931208330075
    vertex 57.05420714104391 601.8182451337577 6.249993120832421
    vertex 55.254232254697456 611.9682450554867 6.249993120736565
  endloop
endfacet
facet normal -1.9098878045712707e-07 -3.049886247100605e-08 0.9999999999999813
  outer loop
    vertex 55.254232254697456 611.9682450554867 6.249993120736565
    vertex 57.05420714104391 601.8182451337577 6.249993120832421
    vertex 61.45420714104399 601.8182451933609 6.249993120830909
  endloop
endfacet
facet normal -1.9098878045712707e-07 -3.049886247100605e-08 0.9999999999999813
  outer loop
    vertex 55.254232254697456 611.9682450554867 6.249993120736565
    vertex 61.45420714104399 601.8182451933609 6.249993120830909
    vertex 63.254229301388776 611.9682424843174 6.249994605333219
  endloop
endfacet
facet normal -0.19611612236612708 -0.9805806782453315 6.32687993055476e-14
  outer loop
    vertex 57.05420714104391 601.8182451337577 6.249993120832421
    vertex 58.054206978487784 601.6182451798146 1.7500060689070993
    vertex 58.054207141043904 601.6182451473038 6.249993120832071
  endloop
endfacet
facet normal -0.19611612236612708 -0.9805806782453315 6.32687993055476e-14
  outer loop
    vertex 58.054206978487784 601.6182451798146 1.7500060689070993
    vertex 57.05420714104391 601.8182451337577 6.249993120832421
    vertex 57.054207141042454 601.8182451337577 1.7500060689074437
  endloop
endfacet
facet normal 6.77316557802442e-09 -1.0 -3.234788233997396e-09
  outer loop
    vertex 60.454207141043995 601.6182451798146 6.24999312083125
    vertex 59.95420715221901 601.6182451798146 4.25214358611365
    vertex 60.45420717965752 601.6182451798146 4.752143586113478
  endloop
endfacet
facet normal 6.77316557802442e-09 -1.0 -3.234788233997396e-09
  outer loop
    vertex 59.95420715221901 601.6182451798146 4.25214358611365
    vertex 60.454207141043995 601.6182451798146 6.24999312083125
    vertex 58.054207141043904 601.6182451473038 6.249993120832071
  endloop
endfacet
facet normal 6.77316557802442e-09 -1.0 -3.234788233997396e-09
  outer loop
    vertex 59.95420715221901 601.6182451798146 4.25214358611365
    vertex 58.054207141043904 601.6182451473038 6.249993120832071
    vertex 59.954207152218665 601.6182451798146 3.2521435861136525
  endloop
endfacet
facet normal 6.77316557802442e-09 -1.0 -3.234788233997396e-09
  outer loop
    vertex 60.45420714098039 601.6182451798146 2.7521435861134815
    vertex 58.054206978487784 601.6182451798146 1.7500060689070993
    vertex 60.45420714102176 601.6182451798146 1.750006068906273
  endloop
endfacet
facet normal 6.77316557802442e-09 -1.0 -3.234788233997396e-09
  outer loop
    vertex 58.054206978487784 601.6182451798146 1.7500060689070993
    vertex 60.45420714098039 601.6182451798146 2.7521435861134815
    vertex 59.954207152218665 601.6182451798146 3.2521435861136525
  endloop
endfacet
facet normal 6.77316557802442e-09 -1.0 -3.234788233997396e-09
  outer loop
    vertex 58.054206978487784 601.6182451798146 1.7500060689070993
    vertex 59.954207152218665 601.6182451798146 3.2521435861136525
    vertex 58.054207141043904 601.6182451473038 6.249993120832071
  endloop
endfacet
facet normal -0.1400283894419843 -0.7001419946291269 -0.7001380131852805
  outer loop
    vertex 58.054206978487784 601.6182451798146 1.7500060689070993
    vertex 57.0542071410423 602.3182451337577 1.2500032255795808
    vertex 58.05420714104231 602.1182451473037 1.250003225579234
  endloop
endfacet
facet normal -0.1400283894419843 -0.7001419946291269 -0.7001380131852805
  outer loop
    vertex 57.0542071410423 602.3182451337577 1.2500032255795808
    vertex 58.054206978487784 601.6182451798146 1.7500060689070993
    vertex 57.054207141042454 601.8182451337577 1.7500060689074437
  endloop
endfacet
facet normal 0.14002801770145218 -0.7001400410870456 -0.7001400410812338
  outer loop
    vertex 61.45420714102173 601.8182451933609 1.750006068905928
    vertex 60.4542071410424 602.1182451798146 1.250006068906273
    vertex 61.454207141042374 602.3182451933608 1.250006068905931
  endloop
endfacet
facet normal 0.14002801770145218 -0.7001400410870456 -0.7001400410812338
  outer loop
    vertex 60.4542071410424 602.1182451798146 1.250006068906273
    vertex 61.45420714102173 601.8182451933609 1.750006068905928
    vertex 60.45420714102176 601.6182451798146 1.750006068906273
  endloop
endfacet
facet normal 3.602943832213752e-07 -5.222747235685364e-07 -0.9999999999997988
  outer loop
    vertex 55.75422556494727 599.7182391430974 1.2500044638002248
    vertex 57.0542071410423 602.3182451337577 1.2500032255795808
    vertex 57.05420719031652 598.4182451337578 1.250005571365067
  endloop
endfacet
facet normal 3.602943832213752e-07 -5.222747235685364e-07 -0.9999999999997988
  outer loop
    vertex 57.0542071410423 602.3182451337577 1.2500032255795808
    vertex 55.75422556494727 599.7182391430974 1.2500044638002248
    vertex 55.754225564952186 611.9682450629371 1.249999017839826
  endloop
endfacet
facet normal 3.602943832213752e-07 -5.222747235685364e-07 -0.9999999999997988
  outer loop
    vertex 57.0542071410423 602.3182451337577 1.2500032255795808
    vertex 55.754225564952186 611.9682450629371 1.249999017839826
    vertex 61.454207141042374 602.3182451933608 1.250006068905931
  endloop
endfacet
facet normal 3.602943832213752e-07 -5.222747235685364e-07 -0.9999999999997988
  outer loop
    vertex 61.454207141042374 602.3182451933608 1.250006068905931
    vertex 62.754210579669866 599.7182474730138 1.2500066551693212
    vertex 61.454207188453886 598.4182451933608 1.2500078792941602
  endloop
endfacet
facet normal 3.602943832213752e-07 -5.222747235685364e-07 -0.9999999999997988
  outer loop
    vertex 62.754210579669866 599.7182474730138 1.2500066551693212
    vertex 61.454207141042374 602.3182451933608 1.250006068905931
    vertex 62.754210579669866 611.9682451672423 1.249999887951617
  endloop
endfacet
facet normal 3.602943832213752e-07 -5.222747235685364e-07 -0.9999999999997988
  outer loop
    vertex 62.754210579669866 611.9682451672423 1.249999887951617
    vertex 61.454207141042374 602.3182451933608 1.250006068905931
    vertex 55.754225564952186 611.9682450629371 1.249999017839826
  endloop
endfacet
facet normal 3.602943832213752e-07 -5.222747235685364e-07 -0.9999999999997988
  outer loop
    vertex 57.0542071410423 602.3182451337577 1.2500032255795808
    vertex 60.4542071410424 602.1182451798146 1.250006068906273
    vertex 58.05420714104231 602.1182451473037 1.250003225579234
  endloop
endfacet
facet normal 3.602943832213752e-07 -5.222747235685364e-07 -0.9999999999997988
  outer loop
    vertex 60.4542071410424 602.1182451798146 1.250006068906273
    vertex 57.0542071410423 602.3182451337577 1.2500032255795808
    vertex 61.454207141042374 602.3182451933608 1.250006068905931
  endloop
endfacet
facet normal 0.7070977028018868 -2.145186684344082e-07 -0.707115859454622
  outer loop
    vertex 62.754210579669866 611.9682451672423 1.249999887951617
    vertex 63.25422450690493 600.2182470454896 1.750006457536195
    vertex 62.754210579669866 599.7182474730138 1.2500066551693212
  endloop
endfacet
facet normal 0.7070977028018868 -2.145186684344082e-07 -0.707115859454622
  outer loop
    vertex 63.25422450690493 600.2182470454896 1.750006457536195
    vertex 62.754210579669866 611.9682451672423 1.249999887951617
    vertex 63.25422836988487 613.4333775092125 1.7500064575362704
  endloop
endfacet
facet normal 0.7070977028018868 -2.145186684344082e-07 -0.707115859454622
  outer loop
    vertex 63.25422836988487 613.4333775092125 1.7500064575362704
    vertex 62.754210579669866 611.9682451672423 1.249999887951617
    vertex 62.83938747347392 612.6152927812677 1.335178555011216
  endloop
endfacet
facet normal 0.7070977028018868 -2.145186684344082e-07 -0.707115859454622
  outer loop
    vertex 63.25422836988487 613.4333775092125 1.7500064575362704
    vertex 62.83938747347392 612.6152927812677 1.335178555011216
    vertex 63.08914522776283 613.2182451722332 1.5849296112727098
  endloop
endfacet
facet normal -0.9999999999997382 7.229716326859482e-07 3.476296143325076e-08
  outer loop
    vertex 55.2542191123836 600.2182439062301 6.2499931208330075
    vertex 55.25422857627723 613.4333745589046 1.7500042851583708
    vertex 55.25422491968958 600.2182439062301 1.7500042851582998
  endloop
endfacet
facet normal -0.9999999999997382 7.229716326859482e-07 3.476296143325076e-08
  outer loop
    vertex 55.25422857627723 613.4333745589046 1.7500042851583708
    vertex 55.2542191123836 600.2182439062301 6.2499931208330075
    vertex 55.25423225932418 611.6576622013638 2.590882129189619
  endloop
endfacet
facet normal -0.9999999999997382 7.229716326859482e-07 3.476296143325076e-08
  outer loop
    vertex 55.25422857627723 613.4333745589046 1.7500042851583708
    vertex 55.25423225932418 611.6576622013638 2.590882129189619
    vertex 55.25423222835539 613.7360120084531 1.9822261677701054
  endloop
endfacet
facet normal -0.9999999999997382 7.229716326859482e-07 3.476296143325076e-08
  outer loop
    vertex 55.25423222835539 613.7360120084531 1.9822261677701054
    vertex 55.25423225932418 611.6576622013638 2.590882129189619
    vertex 55.2542322546963 611.9682450554867 2.5499931207365036
  endloop
endfacet
facet normal -0.9999999999997382 7.229716326859482e-07 3.476296143325076e-08
  outer loop
    vertex 55.25423222835539 613.7360120084531 1.9822261677701054
    vertex 55.2542322546963 611.9682450554867 2.5499931207365036
    vertex 55.25423222243556 614.1333085649479 2.4999931207364923
  endloop
endfacet
facet normal -0.9999999999997382 7.229716326859482e-07 3.476296143325076e-08
  outer loop
    vertex 55.25423225932418 611.6576622013638 2.590882129189619
    vertex 55.2542191123836 600.2182439062301 6.2499931208330075
    vertex 55.25423226363729 611.3682450554868 2.710762636195154
  endloop
endfacet
facet normal -0.9999999999997382 7.229716326859482e-07 3.476296143325076e-08
  outer loop
    vertex 55.25423226363729 611.3682450554868 2.710762636195154
    vertex 55.2542191123836 600.2182439062301 6.2499931208330075
    vertex 55.25423226734064 611.1197169180629 2.901464983312638
  endloop
endfacet
facet normal -0.9999999999997382 7.229716326859482e-07 3.476296143325076e-08
  outer loop
    vertex 55.25423226734064 611.1197169180629 2.901464983312638
    vertex 55.2542191123836 600.2182439062301 6.2499931208330075
    vertex 55.25423227018249 610.9290145709455 3.1499931207365024
  endloop
endfacet
facet normal -0.9999999999997382 7.229716326859482e-07 3.476296143325076e-08
  outer loop
    vertex 55.25423227018249 610.9290145709455 3.1499931207365024
    vertex 55.2542191123836 600.2182439062301 6.2499931208330075
    vertex 55.25423227196822 610.8091340639398 3.43941026661346
  endloop
endfacet
facet normal -0.9999999999997382 7.229716326859482e-07 3.476296143325076e-08
  outer loop
    vertex 55.25423227196822 610.8091340639398 3.43941026661346
    vertex 55.2542191123836 600.2182439062301 6.2499931208330075
    vertex 55.25423227257813 610.7682450554868 3.7499931207365007
  endloop
endfacet
facet normal -0.9999999999997382 7.229716326859482e-07 3.476296143325076e-08
  outer loop
    vertex 55.25423227257813 610.7682450554868 3.7499931207365007
    vertex 55.2542191123836 600.2182439062301 6.2499931208330075
    vertex 55.25423227196855 610.8091340639398 4.0605759748595185
  endloop
endfacet
facet normal -0.9999999999997382 7.229716326859482e-07 3.476296143325076e-08
  outer loop
    vertex 55.25423227196855 610.8091340639398 4.0605759748595185
    vertex 55.2542191123836 600.2182439062301 6.2499931208330075
    vertex 55.2542322701828 610.9290145709455 4.3499931207364995
  endloop
endfacet
facet normal -0.9999999999997382 7.229716326859482e-07 3.476296143325076e-08
  outer loop
    vertex 55.2542322701828 610.9290145709455 4.3499931207364995
    vertex 55.2542191123836 600.2182439062301 6.2499931208330075
    vertex 55.25423226734125 611.1197169180629 4.598521258160343
  endloop
endfacet
facet normal -0.9999999999997382 7.229716326859482e-07 3.476296143325076e-08
  outer loop
    vertex 55.25423226734125 611.1197169180629 4.598521258160343
    vertex 55.2542191123836 600.2182439062301 6.2499931208330075
    vertex 55.254232263638116 611.3682450554868 4.789223605277804
  endloop
endfacet
facet normal -0.9999999999997382 7.229716326859482e-07 3.476296143325076e-08
  outer loop
    vertex 55.254232263638116 611.3682450554868 4.789223605277804
    vertex 55.2542191123836 600.2182439062301 6.2499931208330075
    vertex 55.25423225932501 611.6576622013638 4.909104112283384
  endloop
endfacet
facet normal -0.9999999999997382 7.229716326859482e-07 3.476296143325076e-08
  outer loop
    vertex 55.25423225932501 611.6576622013638 4.909104112283384
    vertex 55.2542191123836 600.2182439062301 6.2499931208330075
    vertex 55.254232254697094 611.9682450554867 4.949993120736499
  endloop
endfacet
facet normal -0.9999999999997382 7.229716326859482e-07 3.476296143325076e-08
  outer loop
    vertex 55.254232254697094 611.9682450554867 4.949993120736499
    vertex 55.2542191123836 600.2182439062301 6.2499931208330075
    vertex 55.25423222243642 614.1333085649479 4.999993120736487
  endloop
endfacet
facet normal -0.9999999999997382 7.229716326859482e-07 3.476296143325076e-08
  outer loop
    vertex 55.25423222243642 614.1333085649479 4.999993120736487
    vertex 55.2542191123836 600.2182439062301 6.2499931208330075
    vertex 55.254232228356614 613.7360120084531 5.517760073702852
  endloop
endfacet
facet normal -0.9999999999997382 7.229716326859482e-07 3.476296143325076e-08
  outer loop
    vertex 55.254232228356614 613.7360120084531 5.517760073702852
    vertex 55.2542191123836 600.2182439062301 6.2499931208330075
    vertex 55.25423223607193 613.2182450554868 5.915056630197585
  endloop
endfacet
facet normal -0.9999999999997382 7.229716326859482e-07 3.476296143325076e-08
  outer loop
    vertex 55.25423223607193 613.2182450554868 5.915056630197585
    vertex 55.2542191123836 600.2182439062301 6.2499931208330075
    vertex 55.254232254698074 612.6152926682431 6.164807686459232
  endloop
endfacet
facet normal -0.9999999999997382 7.229716326859482e-07 3.476296143325076e-08
  outer loop
    vertex 55.254232254698074 612.6152926682431 6.164807686459232
    vertex 55.2542191123836 600.2182439062301 6.2499931208330075
    vertex 55.254232254697456 611.9682450554867 6.249993120736565
  endloop
endfacet
facet normal -0.9999999999997382 7.229716326859482e-07 3.476296143325076e-08
  outer loop
    vertex 55.25423222243556 614.1333085649479 2.4999931207364923
    vertex 55.254232250068924 612.2788279096097 2.590882129189619
    vertex 55.25423221871432 614.3830596212094 3.1029455079801886
  endloop
endfacet
facet normal -0.9999999999997382 7.229716326859482e-07 3.476296143325076e-08
  outer loop
    vertex 55.254232250068924 612.2788279096097 2.590882129189619
    vertex 55.25423222243556 614.1333085649479 2.4999931207364923
    vertex 55.2542322546963 611.9682450554867 2.5499931207365036
  endloop
endfacet
facet normal -0.9999999999997382 7.229716326859482e-07 3.476296143325076e-08
  outer loop
    vertex 55.25423221871432 614.3830596212094 3.1029455079801886
    vertex 55.254232250068924 612.2788279096097 2.590882129189619
    vertex 55.254232245755816 612.5682450554867 2.710762636195154
  endloop
endfacet
facet normal -0.9999999999997382 7.229716326859482e-07 3.476296143325076e-08
  outer loop
    vertex 55.25423221871432 614.3830596212094 3.1029455079801886
    vertex 55.254232245755816 612.5682450554867 2.710762636195154
    vertex 55.25423224205254 612.8167731929107 2.901464983312638
  endloop
endfacet
facet normal -0.9999999999997382 7.229716326859482e-07 3.476296143325076e-08
  outer loop
    vertex 55.25423221871432 614.3830596212094 3.1029455079801886
    vertex 55.25423224205254 612.8167731929107 2.901464983312638
    vertex 55.25423223921177 613.0074755400282 3.1499931207365024
  endloop
endfacet
facet normal -0.9999999999997382 7.229716326859482e-07 3.476296143325076e-08
  outer loop
    vertex 55.25423221871432 614.3830596212094 3.1029455079801886
    vertex 55.25423223921177 613.0074755400282 3.1499931207365024
    vertex 55.254232217445214 614.4682450554868 3.7499931207365007
  endloop
endfacet
facet normal -0.9999999999997382 7.229716326859482e-07 3.476296143325076e-08
  outer loop
    vertex 55.254232217445214 614.4682450554868 3.7499931207365007
    vertex 55.25423223921177 613.0074755400282 3.1499931207365024
    vertex 55.254232237424844 613.1273560470336 3.43941026661346
  endloop
endfacet
facet normal -0.9999999999997382 7.229716326859482e-07 3.476296143325076e-08
  outer loop
    vertex 55.254232217445214 614.4682450554868 3.7499931207365007
    vertex 55.254232237424844 613.1273560470336 3.43941026661346
    vertex 55.254232236816264 613.1682450554868 3.7499931207365007
  endloop
endfacet
facet normal -0.9999999999997382 7.229716326859482e-07 3.476296143325076e-08
  outer loop
    vertex 55.254232217445214 614.4682450554868 3.7499931207365007
    vertex 55.254232236816264 613.1682450554868 3.7499931207365007
    vertex 55.25423223742517 613.1273560470336 4.0605759748595185
  endloop
endfacet
facet normal -0.9999999999997382 7.229716326859482e-07 3.476296143325076e-08
  outer loop
    vertex 55.254232217445214 614.4682450554868 3.7499931207365007
    vertex 55.25423223742517 613.1273560470336 4.0605759748595185
    vertex 55.254232218714876 614.3830596212094 4.397040733492791
  endloop
endfacet
facet normal -0.9999999999997382 7.229716326859482e-07 3.476296143325076e-08
  outer loop
    vertex 55.254232218714876 614.3830596212094 4.397040733492791
    vertex 55.25423223742517 613.1273560470336 4.0605759748595185
    vertex 55.25423223921207 613.0074755400282 4.3499931207364995
  endloop
endfacet
facet normal -0.9999999999997382 7.229716326859482e-07 3.476296143325076e-08
  outer loop
    vertex 55.254232218714876 614.3830596212094 4.397040733492791
    vertex 55.25423223921207 613.0074755400282 4.3499931207364995
    vertex 55.25423224205314 612.8167731929107 4.598521258160343
  endloop
endfacet
facet normal -0.9999999999997382 7.229716326859482e-07 3.476296143325076e-08
  outer loop
    vertex 55.254232218714876 614.3830596212094 4.397040733492791
    vertex 55.25423224205314 612.8167731929107 4.598521258160343
    vertex 55.25423222243642 614.1333085649479 4.999993120736487
  endloop
endfacet
facet normal -0.9999999999997382 7.229716326859482e-07 3.476296143325076e-08
  outer loop
    vertex 55.25423222243642 614.1333085649479 4.999993120736487
    vertex 55.25423224205314 612.8167731929107 4.598521258160343
    vertex 55.25423224575664 612.5682450554867 4.789223605277804
  endloop
endfacet
facet normal -0.9999999999997382 7.229716326859482e-07 3.476296143325076e-08
  outer loop
    vertex 55.25423222243642 614.1333085649479 4.999993120736487
    vertex 55.25423224575664 612.5682450554867 4.789223605277804
    vertex 55.25423225006975 612.2788279096097 4.909104112283384
  endloop
endfacet
facet normal -0.9999999999997382 7.229716326859482e-07 3.476296143325076e-08
  outer loop
    vertex 55.25423222243642 614.1333085649479 4.999993120736487
    vertex 55.25423225006975 612.2788279096097 4.909104112283384
    vertex 55.254232254697094 611.9682450554867 4.949993120736499
  endloop
endfacet
facet normal -0.7071089036380028 -5.4664340463648976e-08 -0.7071046587287193
  outer loop
    vertex 55.75422556494727 599.7182391430974 1.2500044638002248
    vertex 55.66905013273929 612.6152926744242 1.3351785550136734
    vertex 55.754225564952186 611.9682450629371 1.249999017839826
  endloop
endfacet
facet normal -0.7071089036380028 -5.4664340463648976e-08 -0.7071046587287193
  outer loop
    vertex 55.66905013273929 612.6152926744242 1.3351785550136734
    vertex 55.75422556494727 599.7182391430974 1.2500044638002248
    vertex 55.25422491968958 600.2182439062301 1.7500042851582998
  endloop
endfacet
facet normal -0.7071089036380028 -5.4664340463648976e-08 -0.7071046587287193
  outer loop
    vertex 55.66905013273929 612.6152926744242 1.3351785550136734
    vertex 55.25422491968958 600.2182439062301 1.7500042851582998
    vertex 55.419300010366584 613.2182450579463 1.5849296112753384
  endloop
endfacet
facet normal -0.7071089036380028 -5.4664340463648976e-08 -0.7071046587287193
  outer loop
    vertex 55.419300010366584 613.2182450579463 1.5849296112753384
    vertex 55.25422491968958 600.2182439062301 1.7500042851582998
    vertex 55.25422857627723 613.4333745589046 1.7500042851583708
  endloop
endfacet
endsolid Indexer
