solid Indexer
facet normal -1.7145396213891372e-12 1.0 1.0216038581994408e-12
  outer loop
    vertex 229.310102377829 573.0280552007275 12.7999998240338
    vertex 233.310102377829 573.0280552007332 13.424999824032355
    vertex 233.310102377829 573.0280552007345 12.799999824033778
  endloop
endfacet
facet normal -1.7145396213891372e-12 1.0 1.0216038581994408e-12
  outer loop
    vertex 233.310102377829 573.0280552007332 13.424999824032355
    vertex 229.310102377829 573.0280552007275 12.7999998240338
    vertex 229.310102377829 573.0280552007264 13.42499982403222
  endloop
endfacet
facet normal -0.857492925711984 -1.8932948267716042e-12 0.5144957554284602
  outer loop
    vertex 229.3101023778356 569.1452782007248 14.79999982402799
    vertex 228.71010237783048 572.145278200724 13.799999824033012
    vertex 228.71010237783554 569.1452782007246 13.799999824030383
  endloop
endfacet
facet normal -0.857492925711984 -1.8932948267716042e-12 0.5144957554284602
  outer loop
    vertex 228.71010237783048 572.145278200724 13.799999824033012
    vertex 229.3101023778356 569.1452782007248 14.79999982402799
    vertex 229.31010237783053 572.1452782007244 14.799999824030616
  endloop
endfacet
facet normal 1.0 1.6844599789087914e-12 1.4472364400990016e-24
  outer loop
    vertex 233.9101023778356 569.1452782007348 12.799999824030394
    vertex 233.91010237783058 572.1452782007332 13.799999824033012
    vertex 233.9101023778356 569.1452782007335 13.799999824030383
  endloop
endfacet
facet normal 1.0 1.6844599789087914e-12 1.4472364400990016e-24
  outer loop
    vertex 233.91010237783058 572.1452782007332 13.799999824033012
    vertex 233.9101023778356 569.1452782007348 12.799999824030394
    vertex 233.91010237783058 572.1452782007344 12.799999824033021
  endloop
endfacet
facet normal -1.5133542977025053e-12 0.894427190999578 0.4472135955006336
  outer loop
    vertex 229.310102377829 573.0280552007246 14.79999982403141
    vertex 233.3101023778284 573.4030552007324 14.049999824031737
    vertex 229.31010237782843 573.4030552007256 14.049999824031737
  endloop
endfacet
facet normal -1.5133542977025053e-12 0.894427190999578 0.4472135955006336
  outer loop
    vertex 233.3101023778284 573.4030552007324 14.049999824031737
    vertex 229.310102377829 573.0280552007246 14.79999982403141
    vertex 233.310102377829 573.0280552007313 14.79999982403141
  endloop
endfacet
facet normal 1.0 1.7176097003406072e-12 -4.257258522936071e-15
  outer loop
    vertex 233.31010237783053 572.1452782007335 12.799999824033021
    vertex 233.310102377829 573.0280552007313 14.79999982403141
    vertex 233.31010237783053 572.1452782007312 14.799999824030616
  endloop
endfacet
facet normal 1.0 1.7176097003406072e-12 -4.257258522936071e-15
  outer loop
    vertex 233.310102377829 573.0280552007313 14.79999982403141
    vertex 233.31010237783053 572.1452782007335 12.799999824033021
    vertex 233.310102377829 573.0280552007332 13.424999824032355
  endloop
endfacet
facet normal 1.0 1.7176097003406072e-12 -4.257258522936071e-15
  outer loop
    vertex 233.310102377829 573.0280552007332 13.424999824032355
    vertex 233.31010237783053 572.1452782007335 12.799999824033021
    vertex 233.310102377829 573.0280552007345 12.799999824033778
  endloop
endfacet
facet normal 1.0 1.7176097003406072e-12 -4.257258522936071e-15
  outer loop
    vertex 233.310102377829 573.0280552007332 13.424999824032355
    vertex 233.3101023778284 573.4030552007324 14.049999824031737
    vertex 233.310102377829 573.0280552007313 14.79999982403141
  endloop
endfacet
facet normal 1.0 1.7176097003406072e-12 -4.257258522936071e-15
  outer loop
    vertex 233.3101023778284 573.4030552007324 14.049999824031737
    vertex 233.310102377829 573.0280552007332 13.424999824032355
    vertex 233.3101023778284 573.4030552007322 13.799999824031726
  endloop
endfacet
facet normal -0.4411366418108217 0.5749004991024008 -0.6891210919596652
  outer loop
    vertex 225.11010260703097 576.7074560293989 2.2925553109739045
    vertex 224.31010243963658 574.9452784162623 1.334570684673388
    vertex 224.31010243627333 576.093594311697 2.2925552855349
  endloop
endfacet
facet normal -0.4411366418108217 0.5749004991024008 -0.6891210919596652
  outer loop
    vertex 224.31010243963658 574.9452784162623 1.334570684673388
    vertex 225.11010260703097 576.7074560293989 2.2925553109739045
    vertex 224.36746193080307 574.8879189279522 1.2500001312182552
  endloop
endfacet
facet normal -0.4411366418108217 0.5749004991024008 -0.6891210919596652
  outer loop
    vertex 224.36746193080307 574.8879189279522 1.2500001312182552
    vertex 225.11010260703097 576.7074560293989 2.2925553109739045
    vertex 225.61010261792234 575.8414306635395 1.2500001650545083
  endloop
endfacet
facet normal -7.190299089463031e-09 1.0 -8.797311646379925e-10
  outer loop
    vertex 249.31010230364598 566.695278364152 1.2499998888184876
    vertex 250.31010231177356 566.6952783738637 1.7999997963508367
    vertex 250.31010230364592 566.6952783676793 1.2499998872221638
  endloop
endfacet
facet normal -7.190299089463031e-09 1.0 -8.797311646379925e-10
  outer loop
    vertex 250.31010231177356 566.6952783738637 1.7999997963508367
    vertex 249.31010230364598 566.695278364152 1.2499998888184876
    vertex 249.3101023055238 566.6952783641523 2.5179486437550955
  endloop
endfacet
facet normal -7.190299089463031e-09 1.0 -8.797311646379925e-10
  outer loop
    vertex 250.31010231177356 566.6952783738637 1.7999997963508367
    vertex 249.3101023055238 566.6952783641523 2.5179486437550955
    vertex 249.59215731639446 566.6952783651473 2.517948645566026
  endloop
endfacet
facet normal -0.18678507469587743 0.6970706601668419 -0.6922454987975138
  outer loop
    vertex 227.0571883473072 576.4408331985674 1.250000187684325
    vertex 228.61010258604904 577.6451622205301 2.043652257973825
    vertex 231.5513087433376 577.6450291293719 1.2500000880344952
  endloop
endfacet
facet normal -0.18678507469587743 0.6970706601668419 -0.6922454987975138
  outer loop
    vertex 228.61010258604904 577.6451622205301 2.043652257973825
    vertex 227.0571883473072 576.4408331985674 1.250000187684325
    vertex 226.79836928976994 577.4067589788955 2.2925553121618045
  endloop
endfacet
facet normal 0.0 1.0 -1.423383953921841e-13
  outer loop
    vertex 238.31010250194447 566.6952780946528 2.5179490742158066
    vertex 239.3101025019445 566.6952780946526 1.249999871993905
    vertex 238.31010250194447 566.6952780946526 1.249999871993905
  endloop
endfacet
facet normal 0.0 1.0 -1.423383953921841e-13
  outer loop
    vertex 239.3101025019445 566.6952780946526 1.249999871993905
    vertex 238.31010250194447 566.6952780946528 2.5179490742158066
    vertex 239.3101025019445 566.6952780946528 2.5179490742158066
  endloop
endfacet
facet normal 1.0 0.0 0.0
  outer loop
    vertex 239.3101025019445 575.5952781277368 1.2499998719927177
    vertex 239.3101025019445 574.5952781277371 2.517949040080207
    vertex 239.3101025019445 574.5952781277368 1.2499998719928473
  endloop
endfacet
facet normal 1.0 0.0 0.0
  outer loop
    vertex 239.3101025019445 574.5952781277371 2.517949040080207
    vertex 239.3101025019445 575.5952781277368 1.2499998719927177
    vertex 239.3101025019445 574.7292527373841 2.7499998745119294
  endloop
endfacet
facet normal -1.0 5.504646764967418e-09 -7.347759237685097e-22
  outer loop
    vertex 235.3101024863931 569.3952781935113 3.2500000218906764
    vertex 235.31010250015473 571.8952781935602 2.2499998695772567
    vertex 235.3101024863931 569.3952781935112 2.2499998695775907
  endloop
endfacet
facet normal -1.0 5.504646764967418e-09 -7.347759237685097e-22
  outer loop
    vertex 235.31010250015473 571.8952781935602 2.2499998695772567
    vertex 235.3101024863931 569.3952781935113 3.2500000218906764
    vertex 235.31010250015473 571.8952781935604 3.2499999585767987
  endloop
endfacet
facet normal 1.0 -4.308601401500964e-09 1.1212943333195248e-09
  outer loop
    vertex 236.31010250194447 575.5952781366976 1.2499998768929734
    vertex 236.310102446961 565.695278117959 3.249999874121325
    vertex 236.31010246816186 565.6952781179587 1.2499998768942961
  endloop
endfacet
facet normal 1.0 -4.308601401500964e-09 1.1212943333195248e-09
  outer loop
    vertex 236.310102446961 565.695278117959 3.249999874121325
    vertex 236.31010250194447 575.5952781366976 1.2499998768929734
    vertex 236.31010249773357 575.5952781366979 3.2499998110655532
  endloop
endfacet
facet normal -0.13049536848365412 0.991448918893277 -5.4468006973409e-06
  outer loop
    vertex 226.79836928976994 577.4067589788955 2.2925553121618045
    vertex 228.61010239963608 577.6452779204196 12.800000262168208
    vertex 228.61010258604904 577.6451622205301 2.043652257973825
  endloop
endfacet
facet normal -0.13049536848365412 0.991448918893277 -5.4468006973409e-06
  outer loop
    vertex 228.61010239963608 577.6452779204196 12.800000262168208
    vertex 226.79836928976994 577.4067589788955 2.2925553121618045
    vertex 226.79836908391843 577.4067587044431 12.800000250640156
  endloop
endfacet
facet normal -0.44113669169150715 -0.57490051349224 -0.6891210480240978
  outer loop
    vertex 224.3101024393988 566.3452780614423 1.3345704384759858
    vertex 225.11010258441095 564.5831003610298 2.2925551839283673
    vertex 224.31010243601227 565.19696206498 2.2925551960829726
  endloop
endfacet
facet normal -0.44113669169150715 -0.57490051349224 -0.6891210480240978
  outer loop
    vertex 225.11010258441095 564.5831003610298 2.2925551839283673
    vertex 224.3101024393988 566.3452780614423 1.3345704384759858
    vertex 224.36746193080302 566.4026375537136 1.2499998526848444
  endloop
endfacet
facet normal -0.44113669169150715 -0.57490051349224 -0.6891210480240978
  outer loop
    vertex 225.11010258441095 564.5831003610298 2.2925551839283673
    vertex 224.36746193080302 566.4026375537136 1.2499998526848444
    vertex 225.61010261792234 565.4491258181263 1.2499998239221393
  endloop
endfacet
facet normal -1.0 3.821232899354421e-11 -3.4342846077469953e-09
  outer loop
    vertex 224.31010237784213 565.1969617010348 12.799999834397516
    vertex 224.3101024347643 565.6952781224306 10.799999596620768
    vertex 224.31010243601227 565.19696206498 2.2925551960829726
  endloop
endfacet
facet normal -1.0 3.821232899354421e-11 -3.4342846077469953e-09
  outer loop
    vertex 224.3101024347643 565.6952781224306 10.799999596620768
    vertex 224.31010237784213 565.1969617010348 12.799999834397516
    vertex 224.3101023778239 576.0935941397904 12.800000013245864
  endloop
endfacet
facet normal -1.0 3.821232899354421e-11 -3.4342846077469953e-09
  outer loop
    vertex 224.31010243601227 565.19696206498 2.2925551960829726
    vertex 224.3101024347643 565.6952781224306 10.799999596620768
    vertex 224.3101024347643 565.6952781224296 3.2499998731197066
  endloop
endfacet
facet normal -1.0 3.821232899354421e-11 -3.4342846077469953e-09
  outer loop
    vertex 224.3101024347643 565.6952781224306 10.799999596620768
    vertex 224.3101023778239 576.0935941397904 12.800000013245864
    vertex 224.3101024356167 575.5952781411696 10.800000060085084
  endloop
endfacet
facet normal -1.0 3.821232899354421e-11 -3.4342846077469953e-09
  outer loop
    vertex 224.31010243761816 574.3452782408332 3.249999816820176
    vertex 224.3101024372135 574.813166580533 1.2500000646297351
    vertex 224.31010243761816 574.3452782408328 1.2500000006121503
  endloop
endfacet
facet normal -1.0 3.821232899354421e-11 -3.4342846077469953e-09
  outer loop
    vertex 224.3101024372135 574.813166580533 1.2500000646297351
    vertex 224.31010243761816 574.3452782408332 3.249999816820176
    vertex 224.3101024356167 575.5952781411686 3.2499998086844073
  endloop
endfacet
facet normal -1.0 3.821232899354421e-11 -3.4342846077469953e-09
  outer loop
    vertex 224.3101024372135 574.813166580533 1.2500000646297351
    vertex 224.3101024356167 575.5952781411686 3.2499998086844073
    vertex 224.31010243963658 574.9452784162623 1.334570684673388
  endloop
endfacet
facet normal -1.0 3.821232899354421e-11 -3.4342846077469953e-09
  outer loop
    vertex 224.31010243963658 574.9452784162623 1.334570684673388
    vertex 224.3101024356167 575.5952781411686 3.2499998086844073
    vertex 224.31010243627333 576.093594311697 2.2925552855349
  endloop
endfacet
facet normal -1.0 3.821232899354421e-11 -3.4342846077469953e-09
  outer loop
    vertex 224.31010243627333 576.093594311697 2.2925552855349
    vertex 224.3101024356167 575.5952781411686 3.2499998086844073
    vertex 224.3101024356167 575.5952781411696 10.800000060085084
  endloop
endfacet
facet normal -1.0 3.821232899354421e-11 -3.4342846077469953e-09
  outer loop
    vertex 224.31010243627333 576.093594311697 2.2925552855349
    vertex 224.3101024356167 575.5952781411696 10.800000060085084
    vertex 224.3101023778239 576.0935941397904 12.800000013245864
  endloop
endfacet
facet normal -1.0 3.821232899354421e-11 -3.4342846077469953e-09
  outer loop
    vertex 224.3101024347643 565.6952781224296 3.2499998731197066
    vertex 224.3101024393988 566.3452780614423 1.3345704384759858
    vertex 224.31010243601227 565.19696206498 2.2925551960829726
  endloop
endfacet
facet normal -1.0 3.821232899354421e-11 -3.4342846077469953e-09
  outer loop
    vertex 224.3101024393988 566.3452780614423 1.3345704384759858
    vertex 224.3101024347643 565.6952781224296 3.2499998731197066
    vertex 224.3101024374058 566.9452782408332 3.2499998168211652
  endloop
endfacet
facet normal -1.0 3.821232899354421e-11 -3.4342846077469953e-09
  outer loop
    vertex 224.3101024393988 566.3452780614423 1.3345704384759858
    vertex 224.3101024374058 566.9452782408332 3.2499998168211652
    vertex 224.31010243703122 566.4773899013703 1.2499999278173664
  endloop
endfacet
facet normal -1.0 3.821232899354421e-11 -3.4342846077469953e-09
  outer loop
    vertex 224.31010243703122 566.4773899013703 1.2499999278173664
    vertex 224.3101024374058 566.9452782408332 3.2499998168211652
    vertex 224.3101024374058 566.945278240833 1.2500000006131347
  endloop
endfacet
facet normal 1.5133503874701945e-12 -0.8944271910003285 0.44721359549913303
  outer loop
    vertex 233.31010237783724 568.1952782007314 14.79999982402716
    vertex 229.31010237783784 567.8202782007259 14.049999824026864
    vertex 233.31010237783784 567.8202782007327 14.049999824026864
  endloop
endfacet
facet normal 1.5133503874701945e-12 -0.8944271910003285 0.44721359549913303
  outer loop
    vertex 229.31010237783784 567.8202782007259 14.049999824026864
    vertex 233.31010237783724 568.1952782007314 14.79999982402716
    vertex 229.31010237783727 568.1952782007246 14.79999982402716
  endloop
endfacet
facet normal -1.0 -1.7115971610544422e-12 -4.081871864229627e-15
  outer loop
    vertex 229.31010237783784 567.8202782007259 14.049999824026864
    vertex 229.31010237783727 568.195278200725 13.42499982402797
    vertex 229.31010237783784 567.8202782007257 13.799999824026854
  endloop
endfacet
facet normal -1.0 -1.7115971610544422e-12 -4.081871864229627e-15
  outer loop
    vertex 229.31010237783727 568.195278200725 13.42499982402797
    vertex 229.31010237783784 567.8202782007259 14.049999824026864
    vertex 229.31010237783727 568.1952782007246 14.79999982402716
  endloop
endfacet
facet normal -1.0 -1.7115971610544422e-12 -4.081871864229627e-15
  outer loop
    vertex 229.31010237783727 568.195278200725 13.42499982402797
    vertex 229.31010237783727 568.1952782007246 14.79999982402716
    vertex 229.3101023778356 569.1452782007248 14.79999982402799
  endloop
endfacet
facet normal -1.0 -1.7115971610544422e-12 -4.081871864229627e-15
  outer loop
    vertex 229.31010237783727 568.195278200725 13.42499982402797
    vertex 229.3101023778356 569.1452782007248 14.79999982402799
    vertex 229.31010237783727 568.1952782007262 12.799999824029564
  endloop
endfacet
facet normal -1.0 -1.7115971610544422e-12 -4.081871864229627e-15
  outer loop
    vertex 229.31010237783727 568.1952782007262 12.799999824029564
    vertex 229.3101023778356 569.1452782007248 14.79999982402799
    vertex 229.3101023778356 569.145278200727 12.799999824030394
  endloop
endfacet
facet normal 1.1964085305742733e-12 -0.7071067811859453 -0.7071067811871498
  outer loop
    vertex 233.31010237783724 568.1952782007319 13.42499982402797
    vertex 229.31010237783784 567.8202782007257 13.799999824026854
    vertex 229.31010237783727 568.195278200725 13.42499982402797
  endloop
endfacet
facet normal 1.1964085305742733e-12 -0.7071067811859453 -0.7071067811871498
  outer loop
    vertex 229.31010237783784 567.8202782007257 13.799999824026854
    vertex 233.31010237783724 568.1952782007319 13.42499982402797
    vertex 233.31010237783784 567.8202782007324 13.799999824026854
  endloop
endfacet
facet normal -1.0 -1.6825800012538605e-12 -1.749048453795444e-24
  outer loop
    vertex 228.71010237783048 572.145278200724 13.799999824033012
    vertex 228.71010237783554 569.1452782007259 12.799999824030394
    vertex 228.71010237783554 569.1452782007246 13.799999824030383
  endloop
endfacet
facet normal -1.0 -1.6825800012538605e-12 -1.749048453795444e-24
  outer loop
    vertex 228.71010237783554 569.1452782007259 12.799999824030394
    vertex 228.71010237783048 572.145278200724 13.799999824033012
    vertex 228.71010237783048 572.1452782007256 12.799999824033021
  endloop
endfacet
facet normal -1.1844451562723134e-12 0.7071067811870859 -0.7071067811860091
  outer loop
    vertex 229.31010237782843 573.4030552007255 13.799999824031726
    vertex 233.310102377829 573.0280552007332 13.424999824032355
    vertex 229.310102377829 573.0280552007264 13.42499982403222
  endloop
endfacet
facet normal -1.1844451562723134e-12 0.7071067811870859 -0.7071067811860091
  outer loop
    vertex 233.310102377829 573.0280552007332 13.424999824032355
    vertex 229.31010237782843 573.4030552007255 13.799999824031726
    vertex 233.3101023778284 573.4030552007322 13.799999824031726
  endloop
endfacet
facet normal 0.857492925711984 9.939076940528435e-13 0.5144957554284602
  outer loop
    vertex 233.9101023778356 569.1452782007335 13.799999824030383
    vertex 233.31010237783053 572.1452782007312 14.799999824030616
    vertex 233.3101023778356 569.1452782007316 14.79999982402799
  endloop
endfacet
facet normal 0.857492925711984 9.939076940528435e-13 0.5144957554284602
  outer loop
    vertex 233.31010237783053 572.1452782007312 14.799999824030616
    vertex 233.9101023778356 569.1452782007335 13.799999824030383
    vertex 233.91010237783058 572.1452782007332 13.799999824033012
  endloop
endfacet
facet normal -1.6543803364291669e-12 1.0 8.591737888028311e-13
  outer loop
    vertex 233.31010237783053 572.1452782007312 14.799999824030616
    vertex 233.91010237783058 572.1452782007344 12.799999824033021
    vertex 233.31010237783053 572.1452782007335 12.799999824033021
  endloop
endfacet
facet normal -1.6543803364291669e-12 1.0 8.591737888028311e-13
  outer loop
    vertex 233.91010237783058 572.1452782007344 12.799999824033021
    vertex 233.31010237783053 572.1452782007312 14.799999824030616
    vertex 233.91010237783058 572.1452782007332 13.799999824033012
  endloop
endfacet
facet normal -1.0 -1.7208063828768192e-12 4.554540177541936e-15
  outer loop
    vertex 229.31010237782843 573.4030552007256 14.049999824031737
    vertex 229.310102377829 573.0280552007264 13.42499982403222
    vertex 229.310102377829 573.0280552007246 14.79999982403141
  endloop
endfacet
facet normal -1.0 -1.7208063828768192e-12 4.554540177541936e-15
  outer loop
    vertex 229.310102377829 573.0280552007264 13.42499982403222
    vertex 229.31010237782843 573.4030552007256 14.049999824031737
    vertex 229.31010237782843 573.4030552007255 13.799999824031726
  endloop
endfacet
facet normal -1.0 -1.7208063828768192e-12 4.554540177541936e-15
  outer loop
    vertex 229.310102377829 573.0280552007246 14.79999982403141
    vertex 229.31010237783053 572.1452782007267 12.799999824033021
    vertex 229.31010237783053 572.1452782007244 14.799999824030616
  endloop
endfacet
facet normal -1.0 -1.7208063828768192e-12 4.554540177541936e-15
  outer loop
    vertex 229.31010237783053 572.1452782007267 12.799999824033021
    vertex 229.310102377829 573.0280552007246 14.79999982403141
    vertex 229.310102377829 573.0280552007264 13.42499982403222
  endloop
endfacet
facet normal -1.0 -1.7208063828768192e-12 4.554540177541936e-15
  outer loop
    vertex 229.31010237783053 572.1452782007267 12.799999824033021
    vertex 229.310102377829 573.0280552007264 13.42499982403222
    vertex 229.310102377829 573.0280552007275 12.7999998240338
  endloop
endfacet
facet normal 1.6919798895287402e-12 -1.0 -9.49412716243365e-13
  outer loop
    vertex 233.31010237783784 567.8202782007327 14.049999824026864
    vertex 229.31010237783784 567.8202782007257 13.799999824026854
    vertex 233.31010237783784 567.8202782007324 13.799999824026854
  endloop
endfacet
facet normal 1.6919798895287402e-12 -1.0 -9.49412716243365e-13
  outer loop
    vertex 229.31010237783784 567.8202782007257 13.799999824026854
    vertex 233.31010237783784 567.8202782007327 14.049999824026864
    vertex 229.31010237783784 567.8202782007259 14.049999824026864
  endloop
endfacet
facet normal -2.1657342585954094e-12 1.0 9.31364930756196e-13
  outer loop
    vertex 228.71010237783048 572.145278200724 13.799999824033012
    vertex 229.31010237783053 572.1452782007267 12.799999824033021
    vertex 228.71010237783048 572.1452782007256 12.799999824033021
  endloop
endfacet
facet normal -2.1657342585954094e-12 1.0 9.31364930756196e-13
  outer loop
    vertex 229.31010237783053 572.1452782007267 12.799999824033021
    vertex 228.71010237783048 572.145278200724 13.799999824033012
    vertex 229.31010237783053 572.1452782007244 14.799999824030616
  endloop
endfacet
facet normal 1.0 1.706920974413801e-12 3.952425610638312e-15
  outer loop
    vertex 233.31010237783724 568.1952782007319 13.42499982402797
    vertex 233.31010237783784 567.8202782007327 14.049999824026864
    vertex 233.31010237783784 567.8202782007324 13.799999824026854
  endloop
endfacet
facet normal 1.0 1.706920974413801e-12 3.952425610638312e-15
  outer loop
    vertex 233.31010237783784 567.8202782007327 14.049999824026864
    vertex 233.31010237783724 568.1952782007319 13.42499982402797
    vertex 233.31010237783724 568.1952782007314 14.79999982402716
  endloop
endfacet
facet normal 1.0 1.706920974413801e-12 3.952425610638312e-15
  outer loop
    vertex 233.31010237783724 568.1952782007314 14.79999982402716
    vertex 233.31010237783724 568.1952782007319 13.42499982402797
    vertex 233.3101023778356 569.1452782007316 14.79999982402799
  endloop
endfacet
facet normal 1.0 1.706920974413801e-12 3.952425610638312e-15
  outer loop
    vertex 233.3101023778356 569.1452782007316 14.79999982402799
    vertex 233.31010237783724 568.1952782007319 13.42499982402797
    vertex 233.31010237783724 568.1952782007329 12.799999824029452
  endloop
endfacet
facet normal 1.0 1.706920974413801e-12 3.952425610638312e-15
  outer loop
    vertex 233.3101023778356 569.1452782007316 14.79999982402799
    vertex 233.31010237783724 568.1952782007329 12.799999824029452
    vertex 233.3101023778356 569.1452782007337 12.799999824030394
  endloop
endfacet
facet normal 1.8047785488293351e-12 -1.0 -8.591737888028303e-13
  outer loop
    vertex 229.3101023778356 569.1452782007248 14.79999982402799
    vertex 228.71010237783554 569.1452782007259 12.799999824030394
    vertex 229.3101023778356 569.145278200727 12.799999824030394
  endloop
endfacet
facet normal 1.8047785488293351e-12 -1.0 -8.591737888028303e-13
  outer loop
    vertex 228.71010237783554 569.1452782007259 12.799999824030394
    vertex 229.3101023778356 569.1452782007248 14.79999982402799
    vertex 228.71010237783554 569.1452782007246 13.799999824030383
  endloop
endfacet
facet normal -0.608761429008732 0.7933533402912266 -4.3633101802754696e-10
  outer loop
    vertex 230.4601026179223 567.4409842468305 1.2500000006130725
    vertex 231.22639770722748 568.02898315071 3.250000000612976
    vertex 231.2263977083125 568.0289831504426 1.2500000006129937
  endloop
endfacet
facet normal -0.608761429008732 0.7933533402912266 -4.3633101802754696e-10
  outer loop
    vertex 231.22639770722748 568.02898315071 3.250000000612976
    vertex 230.4601026179223 567.4409842468305 1.2500000006130725
    vertex 230.46010261683728 567.4409842470978 3.250000000613055
  endloop
endfacet
facet normal -0.9914448613738096 0.13052619222005785 -5.553242766030986e-10
  outer loop
    vertex 232.18402817464934 569.6876477740872 2.249999869577551
    vertex 232.31010261792235 570.6452782408329 1.250000000612644
    vertex 232.18402817519188 569.6876477739536 1.2500000006127736
  endloop
endfacet
facet normal -0.9914448613738096 0.13052619222005785 -5.553242766030986e-10
  outer loop
    vertex 232.31010261792235 570.6452782408329 1.250000000612644
    vertex 232.18402817464934 569.6876477740872 2.249999869577551
    vertex 232.31010261737978 570.6452782409665 2.2499998695774246
  endloop
endfacet
facet normal 0.13052619222005177 0.9914448613738105 -6.172780590538573e-11
  outer loop
    vertex 227.65247214995793 567.0713526838308 3.2500000006131042
    vertex 228.61010261792234 566.945278240833 1.2500000006131347
    vertex 227.65247215104299 567.0713526835634 1.2500000006131176
  endloop
endfacet
facet normal 0.13052619222005177 0.9914448613738105 -6.172780590538573e-11
  outer loop
    vertex 228.61010261792234 566.945278240833 1.2500000006131347
    vertex 227.65247214995793 567.0713526838308 3.2500000006131042
    vertex 228.61010261683725 566.9452782411004 3.250000000613121
  endloop
endfacet
facet normal 4.085785306907593e-12 -4.8377275475799785e-12 1.0
  outer loop
    vertex 235.3101024863931 569.3952781935112 2.2499998695775907
    vertex 232.18402817464934 569.6876477740872 2.249999869577551
    vertex 232.06292472915297 569.39527819352 2.249999869581956
  endloop
endfacet
facet normal 4.085785306907593e-12 -4.8377275475799785e-12 1.0
  outer loop
    vertex 232.18402817464934 569.6876477740872 2.249999869577551
    vertex 235.3101024863931 569.3952781935112 2.2499998695775907
    vertex 232.31010261737978 570.6452782409665 2.2499998695774246
  endloop
endfacet
facet normal 4.085785306907593e-12 -4.8377275475799785e-12 1.0
  outer loop
    vertex 232.18402817464937 571.6029087078457 2.2499998695772963
    vertex 235.31010250015473 571.8952781935602 2.2499998695772567
    vertex 232.06292476848293 571.8952781934623 2.2499998696262002
  endloop
endfacet
facet normal 4.085785306907593e-12 -4.8377275475799785e-12 1.0
  outer loop
    vertex 235.31010250015473 571.8952781935602 2.2499998695772567
    vertex 232.18402817464937 571.6029087078457 2.2499998695772963
    vertex 232.31010261737978 570.6452782409665 2.2499998695774246
  endloop
endfacet
facet normal 4.085785306907593e-12 -4.8377275475799785e-12 1.0
  outer loop
    vertex 235.31010250015473 571.8952781935602 2.2499998695772567
    vertex 232.31010261737978 570.6452782409665 2.2499998695774246
    vertex 235.3101024863931 569.3952781935112 2.2499998695775907
  endloop
endfacet
facet normal -0.6087614290087319 -0.7933533402912266 -2.242088596017148e-10
  outer loop
    vertex 231.2263977083125 573.2615733312232 1.2500000006122913
    vertex 230.46010261683728 573.8495722351028 3.2500000006121974
    vertex 230.4601026179223 573.8495722348354 1.250000000612218
  endloop
endfacet
facet normal -0.6087614290087319 -0.7933533402912266 -2.242088596017148e-10
  outer loop
    vertex 230.46010261683728 573.8495722351028 3.2500000006121974
    vertex 231.2263977083125 573.2615733312232 1.2500000006122913
    vertex 231.22639770722748 573.2615733314906 3.250000000612278
  endloop
endfacet
facet normal 2.6956257452527703e-12 1.0 -1.3345441305498074e-13
  outer loop
    vertex 232.06292472915297 569.39527819352 2.249999869581956
    vertex 235.3101024863931 569.3952781935113 3.2500000218906764
    vertex 235.3101024863931 569.3952781935112 2.2499998695775907
  endloop
endfacet
facet normal 2.6956257452527703e-12 1.0 -1.3345441305498074e-13
  outer loop
    vertex 235.3101024863931 569.3952781935113 3.2500000218906764
    vertex 232.06292472915297 569.39527819352 2.249999869581956
    vertex 232.06292472915297 569.3952781935201 3.2500000283018022
  endloop
endfacet
facet normal 0.3826834323650389 -0.9238795325113079 3.3112926047456715e-10
  outer loop
    vertex 227.65247214995793 574.2192037983698 3.250000000612148
    vertex 226.76010261792234 573.8495722348354 1.250000000612218
    vertex 227.65247215104299 574.2192037981024 1.2500000006121672
  endloop
endfacet
facet normal 0.3826834323650389 -0.9238795325113079 3.3112926047456715e-10
  outer loop
    vertex 226.76010261792234 573.8495722348354 1.250000000612218
    vertex 227.65247214995793 574.2192037983698 3.250000000612148
    vertex 226.76010261683726 573.8495722351028 3.2500000006121974
  endloop
endfacet
facet normal -0.13052619222005177 -0.9914448613738105 6.172780807257228e-11
  outer loop
    vertex 229.56773308480166 574.2192037981024 1.2500000006121672
    vertex 228.61010261683725 574.3452782411002 3.2500000006121312
    vertex 228.61010261792234 574.3452782408328 1.2500000006121503
  endloop
endfacet
facet normal -0.13052619222005177 -0.9914448613738105 6.172780807257228e-11
  outer loop
    vertex 228.61010261683725 574.3452782411002 3.2500000006121312
    vertex 229.56773308480166 574.2192037981024 1.2500000006121672
    vertex 229.56773308371658 574.2192037983698 3.250000000612148
  endloop
endfacet
facet normal -0.3826834323650389 -0.9238795325113079 -8.410777507966338e-11
  outer loop
    vertex 230.4601026179223 573.8495722348354 1.250000000612218
    vertex 229.56773308371658 574.2192037983698 3.250000000612148
    vertex 229.56773308480166 574.2192037981024 1.2500000006121672
  endloop
endfacet
facet normal -0.3826834323650389 -0.9238795325113079 -8.410777507966338e-11
  outer loop
    vertex 229.56773308371658 574.2192037983698 3.250000000612148
    vertex 230.4601026179223 573.8495722348354 1.250000000612218
    vertex 230.46010261683728 573.8495722351028 3.2500000006121974
  endloop
endfacet
facet normal -0.9914448613738112 -0.13052619222004638 -5.204373091327833e-10
  outer loop
    vertex 232.31010261737978 570.6452782409665 2.2499998695774246
    vertex 232.18402817519188 571.6029087077122 1.250000000612517
    vertex 232.31010261792235 570.6452782408329 1.250000000612644
  endloop
endfacet
facet normal -0.9914448613738112 -0.13052619222004638 -5.204373091327833e-10
  outer loop
    vertex 232.18402817519188 571.6029087077122 1.250000000612517
    vertex 232.31010261737978 570.6452782409665 2.2499998695774246
    vertex 232.18402817464937 571.6029087078457 2.2499998695772963
  endloop
endfacet
facet normal -0.7933533402912293 -0.6087614290087285 -3.4903263569568163e-10
  outer loop
    vertex 231.8143966108397 572.4952782411003 3.250000000612378
    vertex 231.2263977083125 573.2615733312232 1.2500000006122913
    vertex 231.81439661192474 572.4952782408329 1.2500000006123986
  endloop
endfacet
facet normal -0.7933533402912293 -0.6087614290087285 -3.4903263569568163e-10
  outer loop
    vertex 231.2263977083125 573.2615733312232 1.2500000006122913
    vertex 231.8143966108397 572.4952782411003 3.250000000612378
    vertex 231.22639770722748 573.2615733314906 3.250000000612278
  endloop
endfacet
facet normal -1.0 0.0 0.0
  outer loop
    vertex 238.31010250194447 574.5952781277371 2.517949040080207
    vertex 238.31010250194447 575.5952781277368 1.2499998719927177
    vertex 238.31010250194447 574.5952781277368 1.2499998719928473
  endloop
endfacet
facet normal -1.0 0.0 0.0
  outer loop
    vertex 238.31010250194447 575.5952781277368 1.2499998719927177
    vertex 238.31010250194447 574.5952781277371 2.517949040080207
    vertex 238.31010250194447 575.5952781277373 4.249999874511825
  endloop
endfacet
facet normal -0.9238795324512056 0.38268343251013837 -4.3277807688957824e-10
  outer loop
    vertex 232.06292472915297 569.3952781935201 3.2500000283018022
    vertex 232.06292472915297 569.39527819352 2.249999869581956
    vertex 231.8143966108397 568.7952782411003 3.250000000612874
  endloop
endfacet
facet normal -0.9238795324512056 0.38268343251013837 -4.3277807688957824e-10
  outer loop
    vertex 231.8143966108397 568.7952782411003 3.250000000612874
    vertex 232.18402817519188 569.6876477739536 1.2500000006127736
    vertex 231.81439661192474 568.7952782408329 1.250000000612892
  endloop
endfacet
facet normal -0.9238795324512056 0.38268343251013837 -4.3277807688957824e-10
  outer loop
    vertex 232.18402817519188 569.6876477739536 1.2500000006127736
    vertex 231.8143966108397 568.7952782411003 3.250000000612874
    vertex 232.06292472915297 569.39527819352 2.249999869581956
  endloop
endfacet
facet normal -0.9238795324512056 0.38268343251013837 -4.3277807688957824e-10
  outer loop
    vertex 232.18402817519188 569.6876477739536 1.2500000006127736
    vertex 232.06292472915297 569.39527819352 2.249999869581956
    vertex 232.18402817464934 569.6876477740872 2.249999869577551
  endloop
endfacet
facet normal -0.13052619222005177 0.9914448613738105 -2.0335890261840636e-10
  outer loop
    vertex 228.61010261792234 566.945278240833 1.2500000006131347
    vertex 229.56773308371658 567.0713526838308 3.2500000006131042
    vertex 229.56773308480166 567.0713526835634 1.2500000006131176
  endloop
endfacet
facet normal -0.13052619222005177 0.9914448613738105 -2.0335890261840636e-10
  outer loop
    vertex 229.56773308371658 567.0713526838308 3.2500000006131042
    vertex 228.61010261792234 566.945278240833 1.2500000006131347
    vertex 228.61010261683725 566.9452782411004 3.250000000613121
  endloop
endfacet
facet normal 0.382683432365039 0.9238795325113079 8.410778177168566e-11
  outer loop
    vertex 226.76010261683726 567.4409842470978 3.250000000613055
    vertex 227.65247215104299 567.0713526835634 1.2500000006131176
    vertex 226.76010261792234 567.4409842468305 1.2500000006130725
  endloop
endfacet
facet normal 0.382683432365039 0.9238795325113079 8.410778177168566e-11
  outer loop
    vertex 227.65247215104299 567.0713526835634 1.2500000006131176
    vertex 226.76010261683726 567.4409842470978 3.250000000613055
    vertex 227.65247214995793 567.0713526838308 3.2500000006131042
  endloop
endfacet
facet normal 0.13052619222005177 -0.9914448613738105 2.0335890045121978e-10
  outer loop
    vertex 228.61010261683725 574.3452782411002 3.2500000006121312
    vertex 227.65247215104299 574.2192037981024 1.2500000006121672
    vertex 228.61010261792234 574.3452782408328 1.2500000006121503
  endloop
endfacet
facet normal 0.13052619222005177 -0.9914448613738105 2.0335890045121978e-10
  outer loop
    vertex 227.65247215104299 574.2192037981024 1.2500000006121672
    vertex 228.61010261683725 574.3452782411002 3.2500000006121312
    vertex 227.65247214995793 574.2192037983698 3.250000000612148
  endloop
endfacet
facet normal -5.800481143359472e-09 7.111055577750205e-09 -1.0
  outer loop
    vertex 239.3101025019445 566.6952780946526 1.249999871993905
    vertex 238.31010250194447 565.6952780946526 1.2499998719940404
    vertex 238.31010250194447 566.6952780946526 1.249999871993905
  endloop
endfacet
facet normal -5.800481143359472e-09 7.111055577750205e-09 -1.0
  outer loop
    vertex 250.31010230364592 566.6952783676793 1.2499998872221638
    vertex 249.31010230364598 565.695278364152 1.249999888818623
    vertex 249.31010230364598 566.695278364152 1.2499998888184876
  endloop
endfacet
facet normal -5.800481143359472e-09 7.111055577750205e-09 -1.0
  outer loop
    vertex 224.3101024374058 566.945278240833 1.2500000006131347
    vertex 224.36746193080302 566.4026375537136 1.2499998526848444
    vertex 224.31010243703122 566.4773899013703 1.2499999278173664
  endloop
endfacet
facet normal -5.800481143359472e-09 7.111055577750205e-09 -1.0
  outer loop
    vertex 224.36746193080302 566.4026375537136 1.2499998526848444
    vertex 224.3101024374058 566.945278240833 1.2500000006131347
    vertex 225.5351025267695 567.4409842468305 1.2500000006130725
  endloop
endfacet
facet normal -5.800481143359472e-09 7.111055577750205e-09 -1.0
  outer loop
    vertex 224.36746193080302 566.4026375537136 1.2499998526848444
    vertex 225.5351025267695 567.4409842468305 1.2500000006130725
    vertex 225.61010261792234 565.4491258181263 1.2499998239221393
  endloop
endfacet
facet normal -5.800481143359472e-09 7.111055577750205e-09 -1.0
  outer loop
    vertex 225.61010261792234 565.4491258181263 1.2499998239221393
    vertex 225.5351025267695 567.4409842468305 1.2500000006130725
    vertex 226.76010261792234 567.4409842468305 1.2500000006130725
  endloop
endfacet
facet normal -5.800481143359472e-09 7.111055577750205e-09 -1.0
  outer loop
    vertex 225.61010261792234 565.4491258181263 1.2499998239221393
    vertex 226.76010261792234 567.4409842468305 1.2500000006130725
    vertex 227.0571883473072 564.8497232830985 1.2499998072006067
  endloop
endfacet
facet normal -5.800481143359472e-09 7.111055577750205e-09 -1.0
  outer loop
    vertex 227.0571883473072 564.8497232830985 1.2499998072006067
    vertex 226.76010261792234 567.4409842468305 1.2500000006130725
    vertex 227.65247215104299 567.0713526835634 1.2500000006131176
  endloop
endfacet
facet normal -5.800481143359472e-09 7.111055577750205e-09 -1.0
  outer loop
    vertex 227.0571883473072 564.8497232830985 1.2499998072006067
    vertex 227.65247215104299 567.0713526835634 1.2500000006131176
    vertex 231.55135411016872 563.6455151962881 1.2499998780579382
  endloop
endfacet
facet normal -5.800481143359472e-09 7.111055577750205e-09 -1.0
  outer loop
    vertex 231.55135411016872 563.6455151962881 1.2499998780579382
    vertex 227.65247215104299 567.0713526835634 1.2500000006131176
    vertex 228.61010261792234 566.945278240833 1.2500000006131347
  endloop
endfacet
facet normal -5.800481143359472e-09 7.111055577750205e-09 -1.0
  outer loop
    vertex 231.55135411016872 563.6455151962881 1.2499998780579382
    vertex 228.61010261792234 566.945278240833 1.2500000006131347
    vertex 229.56773308480166 567.0713526835634 1.2500000006131176
  endloop
endfacet
facet normal -5.800481143359472e-09 7.111055577750205e-09 -1.0
  outer loop
    vertex 231.55135411016872 563.6455151962881 1.2499998780579382
    vertex 229.56773308480166 567.0713526835634 1.2500000006131176
    vertex 230.4601026179223 567.4409842468305 1.2500000006130725
  endloop
endfacet
facet normal -5.800481143359472e-09 7.111055577750205e-09 -1.0
  outer loop
    vertex 231.55135411016872 563.6455151962881 1.2499998780579382
    vertex 230.4601026179223 567.4409842468305 1.2500000006130725
    vertex 231.2263977083125 568.0289831504426 1.2500000006129937
  endloop
endfacet
facet normal -5.800481143359472e-09 7.111055577750205e-09 -1.0
  outer loop
    vertex 231.55135411016872 563.6455151962881 1.2499998780579382
    vertex 231.2263977083125 568.0289831504426 1.2500000006129937
    vertex 231.81439661192474 568.7952782408329 1.250000000612892
  endloop
endfacet
facet normal -5.800481143359472e-09 7.111055577750205e-09 -1.0
  outer loop
    vertex 231.55135411016872 563.6455151962881 1.2499998780579382
    vertex 231.81439661192474 568.7952782408329 1.250000000612892
    vertex 236.31010246816186 565.6952781179587 1.2499998768942961
  endloop
endfacet
facet normal -5.800481143359472e-09 7.111055577750205e-09 -1.0
  outer loop
    vertex 231.55135411016872 563.6455151962881 1.2499998780579382
    vertex 236.31010246816186 565.6952781179587 1.2499998768942961
    vertex 250.31010232224182 563.6455153732336 1.2499998872225728
  endloop
endfacet
facet normal -5.800481143359472e-09 7.111055577750205e-09 -1.0
  outer loop
    vertex 236.31010246816186 565.6952781179587 1.2499998768942961
    vertex 231.81439661192474 568.7952782408329 1.250000000612892
    vertex 232.18402817519188 569.6876477739536 1.2500000006127736
  endloop
endfacet
facet normal -5.800481143359472e-09 7.111055577750205e-09 -1.0
  outer loop
    vertex 236.31010246816186 565.6952781179587 1.2499998768942961
    vertex 232.18402817519188 569.6876477739536 1.2500000006127736
    vertex 232.31010261792235 570.6452782408329 1.250000000612644
  endloop
endfacet
facet normal -5.800481143359472e-09 7.111055577750205e-09 -1.0
  outer loop
    vertex 250.31010232224182 563.6455153732336 1.2499998872225728
    vertex 236.31010246816186 565.6952781179587 1.2499998768942961
    vertex 238.31010250194447 565.6952780946526 1.2499998719940404
  endloop
endfacet
facet normal -5.800481143359472e-09 7.111055577750205e-09 -1.0
  outer loop
    vertex 250.31010232224182 563.6455153732336 1.2499998872225728
    vertex 238.31010250194447 565.6952780946526 1.2499998719940404
    vertex 239.3101025019445 565.6952780946526 1.2499998719940404
  endloop
endfacet
facet normal -5.800481143359472e-09 7.111055577750205e-09 -1.0
  outer loop
    vertex 239.3101025019445 565.6952780946526 1.2499998719940404
    vertex 238.31010250194447 565.6952780946526 1.2499998719940404
    vertex 239.3101025019445 566.6952780946526 1.249999871993905
  endloop
endfacet
facet normal -5.800481143359472e-09 7.111055577750205e-09 -1.0
  outer loop
    vertex 250.31010232224182 563.6455153732336 1.2499998872225728
    vertex 239.3101025019445 565.6952780946526 1.2499998719940404
    vertex 249.31010230364598 565.695278364152 1.249999888818623
  endloop
endfacet
facet normal -5.800481143359472e-09 7.111055577750205e-09 -1.0
  outer loop
    vertex 250.31010232224182 563.6455153732336 1.2499998872225728
    vertex 249.31010230364598 565.695278364152 1.249999888818623
    vertex 250.31010230364592 566.6952783676793 1.2499998872221638
  endloop
endfacet
facet normal -5.800481143359472e-09 7.111055577750205e-09 -1.0
  outer loop
    vertex 224.36746193080307 574.8879189279522 1.2500001312182552
    vertex 224.31010243761816 574.3452782408328 1.2500000006121503
    vertex 224.3101024372135 574.813166580533 1.2500000646297351
  endloop
endfacet
facet normal -5.800481143359472e-09 7.111055577750205e-09 -1.0
  outer loop
    vertex 224.31010243761816 574.3452782408328 1.2500000006121503
    vertex 224.36746193080307 574.8879189279522 1.2500001312182552
    vertex 225.53510252634334 573.8495722348354 1.250000000612218
  endloop
endfacet
facet normal -5.800481143359472e-09 7.111055577750205e-09 -1.0
  outer loop
    vertex 225.53510252634334 573.8495722348354 1.250000000612218
    vertex 224.36746193080307 574.8879189279522 1.2500001312182552
    vertex 225.61010261792234 575.8414306635395 1.2500001650545083
  endloop
endfacet
facet normal -5.800481143359472e-09 7.111055577750205e-09 -1.0
  outer loop
    vertex 225.53510252634334 573.8495722348354 1.250000000612218
    vertex 225.61010261792234 575.8414306635395 1.2500001650545083
    vertex 226.76010261792234 573.8495722348354 1.250000000612218
  endloop
endfacet
facet normal -5.800481143359472e-09 7.111055577750205e-09 -1.0
  outer loop
    vertex 226.76010261792234 573.8495722348354 1.250000000612218
    vertex 225.61010261792234 575.8414306635395 1.2500001650545083
    vertex 227.0571883473072 576.4408331985674 1.250000187684325
  endloop
endfacet
facet normal -5.800481143359472e-09 7.111055577750205e-09 -1.0
  outer loop
    vertex 226.76010261792234 573.8495722348354 1.250000000612218
    vertex 227.0571883473072 576.4408331985674 1.250000187684325
    vertex 227.65247215104299 574.2192037981024 1.2500000006121672
  endloop
endfacet
facet normal -5.800481143359472e-09 7.111055577750205e-09 -1.0
  outer loop
    vertex 227.65247215104299 574.2192037981024 1.2500000006121672
    vertex 227.0571883473072 576.4408331985674 1.250000187684325
    vertex 231.5513087433376 577.6450291293719 1.2500000880344952
  endloop
endfacet
facet normal -5.800481143359472e-09 7.111055577750205e-09 -1.0
  outer loop
    vertex 227.65247215104299 574.2192037981024 1.2500000006121672
    vertex 231.5513087433376 577.6450291293719 1.2500000880344952
    vertex 228.61010261792234 574.3452782408328 1.2500000006121503
  endloop
endfacet
facet normal -5.800481143359472e-09 7.111055577750205e-09 -1.0
  outer loop
    vertex 228.61010261792234 574.3452782408328 1.2500000006121503
    vertex 231.5513087433376 577.6450291293719 1.2500000880344952
    vertex 229.56773308480166 574.2192037981024 1.2500000006121672
  endloop
endfacet
facet normal -5.800481143359472e-09 7.111055577750205e-09 -1.0
  outer loop
    vertex 229.56773308480166 574.2192037981024 1.2500000006121672
    vertex 231.5513087433376 577.6450291293719 1.2500000880344952
    vertex 230.4601026179223 573.8495722348354 1.250000000612218
  endloop
endfacet
facet normal -5.800481143359472e-09 7.111055577750205e-09 -1.0
  outer loop
    vertex 230.4601026179223 573.8495722348354 1.250000000612218
    vertex 231.5513087433376 577.6450291293719 1.2500000880344952
    vertex 231.2263977083125 573.2615733312232 1.2500000006122913
  endloop
endfacet
facet normal -5.800481143359472e-09 7.111055577750205e-09 -1.0
  outer loop
    vertex 231.2263977083125 573.2615733312232 1.2500000006122913
    vertex 231.5513087433376 577.6450291293719 1.2500000880344952
    vertex 231.81439661192474 572.4952782408329 1.2500000006123986
  endloop
endfacet
facet normal -5.800481143359472e-09 7.111055577750205e-09 -1.0
  outer loop
    vertex 231.81439661192474 572.4952782408329 1.2500000006123986
    vertex 231.5513087433376 577.6450291293719 1.2500000880344952
    vertex 236.31010250194447 575.5952781366976 1.2499998768929734
  endloop
endfacet
facet normal -5.800481143359472e-09 7.111055577750205e-09 -1.0
  outer loop
    vertex 236.31010250194447 575.5952781366976 1.2499998768929734
    vertex 231.5513087433376 577.6450291293719 1.2500000880344952
    vertex 250.3101023141891 577.6450290809186 1.249999861916013
  endloop
endfacet
facet normal -5.800481143359472e-09 7.111055577750205e-09 -1.0
  outer loop
    vertex 231.81439661192474 572.4952782408329 1.2500000006123986
    vertex 236.31010250194447 575.5952781366976 1.2499998768929734
    vertex 232.18402817519188 571.6029087077122 1.250000000612517
  endloop
endfacet
facet normal -5.800481143359472e-09 7.111055577750205e-09 -1.0
  outer loop
    vertex 232.18402817519188 571.6029087077122 1.250000000612517
    vertex 236.31010250194447 575.5952781366976 1.2499998768929734
    vertex 232.31010261792235 570.6452782408329 1.250000000612644
  endloop
endfacet
facet normal -5.800481143359472e-09 7.111055577750205e-09 -1.0
  outer loop
    vertex 232.31010261792235 570.6452782408329 1.250000000612644
    vertex 236.31010250194447 575.5952781366976 1.2499998768929734
    vertex 236.31010246816186 565.6952781179587 1.2499998768942961
  endloop
endfacet
facet normal -5.800481143359472e-09 7.111055577750205e-09 -1.0
  outer loop
    vertex 236.31010250194447 575.5952781366976 1.2499998768929734
    vertex 250.3101023141891 577.6450290809186 1.249999861916013
    vertex 238.31010250194447 575.5952781277368 1.2499998719927177
  endloop
endfacet
facet normal -5.800481143359472e-09 7.111055577750205e-09 -1.0
  outer loop
    vertex 238.31010250194447 575.5952781277368 1.2499998719927177
    vertex 250.3101023141891 577.6450290809186 1.249999861916013
    vertex 239.3101025019445 575.5952781277368 1.2499998719927177
  endloop
endfacet
facet normal -5.800481143359472e-09 7.111055577750205e-09 -1.0
  outer loop
    vertex 238.31010250194447 575.5952781277368 1.2499998719927177
    vertex 239.3101025019445 575.5952781277368 1.2499998719927177
    vertex 238.31010250194447 574.5952781277368 1.2499998719928473
  endloop
endfacet
facet normal -5.800481143359472e-09 7.111055577750205e-09 -1.0
  outer loop
    vertex 239.3101025019445 575.5952781277368 1.2499998719927177
    vertex 250.3101023141891 577.6450290809186 1.249999861916013
    vertex 249.31010230136394 575.5952780797312 1.2499998647915835
  endloop
endfacet
facet normal -5.800481143359472e-09 7.111055577750205e-09 -1.0
  outer loop
    vertex 249.31010230136394 575.5952780797312 1.2499998647915835
    vertex 250.3101023141891 577.6450290809186 1.249999861916013
    vertex 249.31010230136394 574.5952780797312 1.2499998647917134
  endloop
endfacet
facet normal -5.800481143359472e-09 7.111055577750205e-09 -1.0
  outer loop
    vertex 249.31010230136394 574.5952780797312 1.2499998647917134
    vertex 250.3101023141891 577.6450290809186 1.249999861916013
    vertex 250.3101023013639 574.595278074011 1.2499998619164163
  endloop
endfacet
facet normal -5.800481143359472e-09 7.111055577750205e-09 -1.0
  outer loop
    vertex 239.3101025019445 574.5952781277368 1.2499998719928473
    vertex 238.31010250194447 574.5952781277368 1.2499998719928473
    vertex 239.3101025019445 575.5952781277368 1.2499998719927177
  endloop
endfacet
facet normal -0.3826834323650389 0.9238795325113079 -3.3112926716658936e-10
  outer loop
    vertex 229.56773308480166 567.0713526835634 1.2500000006131176
    vertex 230.46010261683728 567.4409842470978 3.250000000613055
    vertex 230.4601026179223 567.4409842468305 1.2500000006130725
  endloop
endfacet
facet normal -0.3826834323650389 0.9238795325113079 -3.3112926716658936e-10
  outer loop
    vertex 230.46010261683728 567.4409842470978 3.250000000613055
    vertex 229.56773308480166 567.0713526835634 1.2500000006131176
    vertex 229.56773308371658 567.0713526838308 3.2500000006131042
  endloop
endfacet
facet normal 3.015210264565812e-11 -1.0 1.334544130549777e-13
  outer loop
    vertex 235.31010250015473 571.8952781935604 3.2499999585767987
    vertex 232.06292476848293 571.8952781934623 2.2499998696262002
    vertex 235.31010250015473 571.8952781935602 2.2499998695772567
  endloop
endfacet
facet normal 3.015210264565812e-11 -1.0 1.334544130549777e-13
  outer loop
    vertex 232.06292476848293 571.8952781934623 2.2499998696262002
    vertex 235.31010250015473 571.8952781935604 3.2499999585767987
    vertex 232.06292476848293 571.8952781934626 3.249999964987922
  endloop
endfacet
facet normal -0.37510994504364625 0.9269803283400101 -1.237096156321294e-13
  outer loop
    vertex 224.3101024374058 566.945278240833 1.2500000006131347
    vertex 225.5351025267695 567.4409842468307 3.249999816821099
    vertex 225.5351025267695 567.4409842468305 1.2500000006130725
  endloop
endfacet
facet normal -0.37510994504364625 0.9269803283400101 -1.237096156321294e-13
  outer loop
    vertex 225.5351025267695 567.4409842468307 3.249999816821099
    vertex 224.3101024374058 566.945278240833 1.2500000006131347
    vertex 224.3101024374058 566.9452782408332 3.2499998168211652
  endloop
endfacet
facet normal -1.6919798895287394e-12 1.0 9.49412716243365e-13
  outer loop
    vertex 229.31010237782843 573.4030552007256 14.049999824031737
    vertex 233.3101023778284 573.4030552007322 13.799999824031726
    vertex 229.31010237782843 573.4030552007255 13.799999824031726
  endloop
endfacet
facet normal -1.6919798895287394e-12 1.0 9.49412716243365e-13
  outer loop
    vertex 233.3101023778284 573.4030552007322 13.799999824031726
    vertex 229.31010237782843 573.4030552007256 14.049999824031737
    vertex 233.3101023778284 573.4030552007324 14.049999824031737
  endloop
endfacet
facet normal -1.0902334411360272e-10 1.0 -6.691026688588409e-11
  outer loop
    vertex 225.5351025267695 567.4409842468307 3.249999816821099
    vertex 226.76010261792234 567.4409842468305 1.2500000006130725
    vertex 225.5351025267695 567.4409842468305 1.2500000006130725
  endloop
endfacet
facet normal -1.0902334411360272e-10 1.0 -6.691026688588409e-11
  outer loop
    vertex 226.76010261792234 567.4409842468305 1.2500000006130725
    vertex 225.5351025267695 567.4409842468307 3.249999816821099
    vertex 226.76010261683726 567.4409842470978 3.250000000613055
  endloop
endfacet
facet normal 1.6543803364291655e-12 -1.0 -8.591737888028303e-13
  outer loop
    vertex 233.9101023778356 569.1452782007335 13.799999824030383
    vertex 233.3101023778356 569.1452782007337 12.799999824030394
    vertex 233.9101023778356 569.1452782007348 12.799999824030394
  endloop
endfacet
facet normal 1.6543803364291655e-12 -1.0 -8.591737888028303e-13
  outer loop
    vertex 233.3101023778356 569.1452782007337 12.799999824030394
    vertex 233.9101023778356 569.1452782007335 13.799999824030383
    vertex 233.3101023778356 569.1452782007316 14.79999982402799
  endloop
endfacet
facet normal -1.260169813710305e-08 0.8660254346939542 -0.4999999464631446
  outer loop
    vertex 239.3101025019445 566.5613034994489 2.7499998899658715
    vertex 249.31010230364598 565.695278364152 1.249999888818623
    vertex 239.3101025019445 565.6952780946526 1.2499998719940404
  endloop
endfacet
facet normal -1.260169813710305e-08 0.8660254346939542 -0.4999999464631446
  outer loop
    vertex 249.31010230364598 565.695278364152 1.249999888818623
    vertex 239.3101025019445 566.5613034994489 2.7499998899658715
    vertex 249.31010230905815 566.5613035226868 2.7499998761093316
  endloop
endfacet
facet normal 1.7068136182641093e-24 -8.753542693182573e-13 1.0
  outer loop
    vertex 229.31010237783053 572.1452782007244 14.799999824030616
    vertex 233.310102377829 573.0280552007313 14.79999982403141
    vertex 229.310102377829 573.0280552007246 14.79999982403141
  endloop
endfacet
facet normal 1.7068136182641093e-24 -8.753542693182573e-13 1.0
  outer loop
    vertex 233.310102377829 573.0280552007313 14.79999982403141
    vertex 229.31010237783053 572.1452782007244 14.799999824030616
    vertex 229.3101023778356 569.1452782007248 14.79999982402799
  endloop
endfacet
facet normal 1.7068136182641093e-24 -8.753542693182573e-13 1.0
  outer loop
    vertex 233.310102377829 573.0280552007313 14.79999982403141
    vertex 229.3101023778356 569.1452782007248 14.79999982402799
    vertex 229.31010237783727 568.1952782007246 14.79999982402716
  endloop
endfacet
facet normal 1.7068136182641093e-24 -8.753542693182573e-13 1.0
  outer loop
    vertex 233.310102377829 573.0280552007313 14.79999982403141
    vertex 229.31010237783727 568.1952782007246 14.79999982402716
    vertex 233.3101023778356 569.1452782007316 14.79999982402799
  endloop
endfacet
facet normal 1.7068136182641093e-24 -8.753542693182573e-13 1.0
  outer loop
    vertex 233.3101023778356 569.1452782007316 14.79999982402799
    vertex 229.31010237783727 568.1952782007246 14.79999982402716
    vertex 233.31010237783724 568.1952782007314 14.79999982402716
  endloop
endfacet
facet normal 1.7068136182641093e-24 -8.753542693182573e-13 1.0
  outer loop
    vertex 233.310102377829 573.0280552007313 14.79999982403141
    vertex 233.3101023778356 569.1452782007316 14.79999982402799
    vertex 233.31010237783053 572.1452782007312 14.799999824030616
  endloop
endfacet
facet normal -1.0 0.0 0.0
  outer loop
    vertex 238.31010250194447 565.6952781416584 4.249999874513146
    vertex 238.31010250194447 566.6952780946526 1.249999871993905
    vertex 238.31010250194447 565.6952780946526 1.2499998719940404
  endloop
endfacet
facet normal -1.0 0.0 0.0
  outer loop
    vertex 238.31010250194447 566.6952780946526 1.249999871993905
    vertex 238.31010250194447 565.6952781416584 4.249999874513146
    vertex 238.31010250194447 566.6952780946528 2.5179490742158066
  endloop
endfacet
facet normal 1.0902334407567265e-10 -1.0 6.69102668858841e-11
  outer loop
    vertex 226.76010261683726 573.8495722351028 3.2500000006121974
    vertex 225.53510252634334 573.8495722348354 1.250000000612218
    vertex 226.76010261792234 573.8495722348354 1.250000000612218
  endloop
endfacet
facet normal 1.0902334407567265e-10 -1.0 6.69102668858841e-11
  outer loop
    vertex 225.53510252634334 573.8495722348354 1.250000000612218
    vertex 226.76010261683726 573.8495722351028 3.2500000006121974
    vertex 225.53510252634334 573.8495722348356 3.249999816820242
  endloop
endfacet
facet normal -0.37510994521167795 -0.9269803282720146 1.237096156230551e-13
  outer loop
    vertex 225.53510252634334 573.8495722348354 1.250000000612218
    vertex 224.31010243761816 574.3452782408332 3.249999816820176
    vertex 224.31010243761816 574.3452782408328 1.2500000006121503
  endloop
endfacet
facet normal -0.37510994521167795 -0.9269803282720146 1.237096156230551e-13
  outer loop
    vertex 224.31010243761816 574.3452782408332 3.249999816820176
    vertex 225.53510252634334 573.8495722348354 1.250000000612218
    vertex 225.53510252634334 573.8495722348356 3.249999816820242
  endloop
endfacet
facet normal -7.251667277970113e-09 2.8305613779583066e-09 1.0
  outer loop
    vertex 236.310102446961 565.695278117959 3.249999874121325
    vertex 224.3101024374058 566.9452782408332 3.2499998168211652
    vertex 224.3101024347643 565.6952781224296 3.2499998731197066
  endloop
endfacet
facet normal -7.251667277970113e-09 2.8305613779583066e-09 1.0
  outer loop
    vertex 224.3101024374058 566.9452782408332 3.2499998168211652
    vertex 236.310102446961 565.695278117959 3.249999874121325
    vertex 227.65247214995793 567.0713526838308 3.2500000006131042
  endloop
endfacet
facet normal -7.251667277970113e-09 2.8305613779583066e-09 1.0
  outer loop
    vertex 224.3101024374058 566.9452782408332 3.2499998168211652
    vertex 227.65247214995793 567.0713526838308 3.2500000006131042
    vertex 225.5351025267695 567.4409842468307 3.249999816821099
  endloop
endfacet
facet normal -7.251667277970113e-09 2.8305613779583066e-09 1.0
  outer loop
    vertex 225.5351025267695 567.4409842468307 3.249999816821099
    vertex 227.65247214995793 567.0713526838308 3.2500000006131042
    vertex 226.76010261683726 567.4409842470978 3.250000000613055
  endloop
endfacet
facet normal -7.251667277970113e-09 2.8305613779583066e-09 1.0
  outer loop
    vertex 227.65247214995793 567.0713526838308 3.2500000006131042
    vertex 236.310102446961 565.695278117959 3.249999874121325
    vertex 228.61010261683725 566.9452782411004 3.250000000613121
  endloop
endfacet
facet normal -7.251667277970113e-09 2.8305613779583066e-09 1.0
  outer loop
    vertex 228.61010261683725 566.9452782411004 3.250000000613121
    vertex 236.310102446961 565.695278117959 3.249999874121325
    vertex 229.56773308371658 567.0713526838308 3.2500000006131042
  endloop
endfacet
facet normal -7.251667277970113e-09 2.8305613779583066e-09 1.0
  outer loop
    vertex 229.56773308371658 567.0713526838308 3.2500000006131042
    vertex 236.310102446961 565.695278117959 3.249999874121325
    vertex 230.46010261683728 567.4409842470978 3.250000000613055
  endloop
endfacet
facet normal -7.251667277970113e-09 2.8305613779583066e-09 1.0
  outer loop
    vertex 230.46010261683728 567.4409842470978 3.250000000613055
    vertex 236.310102446961 565.695278117959 3.249999874121325
    vertex 231.22639770722748 568.02898315071 3.250000000612976
  endloop
endfacet
facet normal -7.251667277970113e-09 2.8305613779583066e-09 1.0
  outer loop
    vertex 231.22639770722748 568.02898315071 3.250000000612976
    vertex 236.310102446961 565.695278117959 3.249999874121325
    vertex 231.8143966108397 568.7952782411003 3.250000000612874
  endloop
endfacet
facet normal -7.251667277970113e-09 2.8305613779583066e-09 1.0
  outer loop
    vertex 231.8143966108397 568.7952782411003 3.250000000612874
    vertex 236.310102446961 565.695278117959 3.249999874121325
    vertex 232.06292472915297 569.3952781935201 3.2500000283018022
  endloop
endfacet
facet normal -7.251667277970113e-09 2.8305613779583066e-09 1.0
  outer loop
    vertex 232.06292472915297 569.3952781935201 3.2500000283018022
    vertex 236.310102446961 565.695278117959 3.249999874121325
    vertex 235.3101024863931 569.3952781935113 3.2500000218906764
  endloop
endfacet
facet normal -7.251667277970113e-09 2.8305613779583066e-09 1.0
  outer loop
    vertex 235.3101024863931 569.3952781935113 3.2500000218906764
    vertex 236.310102446961 565.695278117959 3.249999874121325
    vertex 235.31010250015473 571.8952781935604 3.2499999585767987
  endloop
endfacet
facet normal -7.251667277970113e-09 2.8305613779583066e-09 1.0
  outer loop
    vertex 224.31010243761816 574.3452782408332 3.249999816820176
    vertex 236.31010249773357 575.5952781366979 3.2499998110655532
    vertex 224.3101024356167 575.5952781411686 3.2499998086844073
  endloop
endfacet
facet normal -7.251667277970113e-09 2.8305613779583066e-09 1.0
  outer loop
    vertex 236.31010249773357 575.5952781366979 3.2499998110655532
    vertex 224.31010243761816 574.3452782408332 3.249999816820176
    vertex 227.65247214995793 574.2192037983698 3.250000000612148
  endloop
endfacet
facet normal -7.251667277970113e-09 2.8305613779583066e-09 1.0
  outer loop
    vertex 227.65247214995793 574.2192037983698 3.250000000612148
    vertex 224.31010243761816 574.3452782408332 3.249999816820176
    vertex 225.53510252634334 573.8495722348356 3.249999816820242
  endloop
endfacet
facet normal -7.251667277970113e-09 2.8305613779583066e-09 1.0
  outer loop
    vertex 227.65247214995793 574.2192037983698 3.250000000612148
    vertex 225.53510252634334 573.8495722348356 3.249999816820242
    vertex 226.76010261683726 573.8495722351028 3.2500000006121974
  endloop
endfacet
facet normal -7.251667277970113e-09 2.8305613779583066e-09 1.0
  outer loop
    vertex 236.31010249773357 575.5952781366979 3.2499998110655532
    vertex 227.65247214995793 574.2192037983698 3.250000000612148
    vertex 228.61010261683725 574.3452782411002 3.2500000006121312
  endloop
endfacet
facet normal -7.251667277970113e-09 2.8305613779583066e-09 1.0
  outer loop
    vertex 236.31010249773357 575.5952781366979 3.2499998110655532
    vertex 228.61010261683725 574.3452782411002 3.2500000006121312
    vertex 229.56773308371658 574.2192037983698 3.250000000612148
  endloop
endfacet
facet normal -7.251667277970113e-09 2.8305613779583066e-09 1.0
  outer loop
    vertex 236.31010249773357 575.5952781366979 3.2499998110655532
    vertex 229.56773308371658 574.2192037983698 3.250000000612148
    vertex 230.46010261683728 573.8495722351028 3.2500000006121974
  endloop
endfacet
facet normal -7.251667277970113e-09 2.8305613779583066e-09 1.0
  outer loop
    vertex 236.31010249773357 575.5952781366979 3.2499998110655532
    vertex 230.46010261683728 573.8495722351028 3.2500000006121974
    vertex 231.22639770722748 573.2615733314906 3.250000000612278
  endloop
endfacet
facet normal -7.251667277970113e-09 2.8305613779583066e-09 1.0
  outer loop
    vertex 236.31010249773357 575.5952781366979 3.2499998110655532
    vertex 231.22639770722748 573.2615733314906 3.250000000612278
    vertex 231.8143966108397 572.4952782411003 3.250000000612378
  endloop
endfacet
facet normal -7.251667277970113e-09 2.8305613779583066e-09 1.0
  outer loop
    vertex 236.31010249773357 575.5952781366979 3.2499998110655532
    vertex 231.8143966108397 572.4952782411003 3.250000000612378
    vertex 232.06292476848293 571.8952781934626 3.249999964987922
  endloop
endfacet
facet normal -7.251667277970113e-09 2.8305613779583066e-09 1.0
  outer loop
    vertex 236.31010249773357 575.5952781366979 3.2499998110655532
    vertex 232.06292476848293 571.8952781934626 3.249999964987922
    vertex 235.31010250015473 571.8952781935604 3.2499999585767987
  endloop
endfacet
facet normal -7.251667277970113e-09 2.8305613779583066e-09 1.0
  outer loop
    vertex 236.31010249773357 575.5952781366979 3.2499998110655532
    vertex 235.31010250015473 571.8952781935604 3.2499999585767987
    vertex 236.310102446961 565.695278117959 3.249999874121325
  endloop
endfacet
facet normal 0.0 -1.0 1.4233839922408534e-13
  outer loop
    vertex 239.3101025019445 574.5952781277371 2.517949040080207
    vertex 238.31010250194447 574.5952781277368 1.2499998719928473
    vertex 239.3101025019445 574.5952781277368 1.2499998719928473
  endloop
endfacet
facet normal 0.0 -1.0 1.4233839922408534e-13
  outer loop
    vertex 238.31010250194447 574.5952781277368 1.2499998719928473
    vertex 239.3101025019445 574.5952781277371 2.517949040080207
    vertex 238.31010250194447 574.5952781277371 2.517949040080207
  endloop
endfacet
facet normal -0.27731011823841417 -0.6694858334810424 -0.6891210467623166
  outer loop
    vertex 225.61010261792234 565.4491258181263 1.2499998239221393
    vertex 226.79836927677246 563.8837974019561 2.292555170184374
    vertex 225.11010258441095 564.5831003610298 2.2925551839283673
  endloop
endfacet
facet normal -0.27731011823841417 -0.6694858334810424 -0.6891210467623166
  outer loop
    vertex 226.79836927677246 563.8837974019561 2.292555170184374
    vertex 225.61010261792234 565.4491258181263 1.2499998239221393
    vertex 227.0571883473072 564.8497232830985 1.2499998072006067
  endloop
endfacet
facet normal -1.0 -5.714465844723383e-10 2.9800936939455646e-09
  outer loop
    vertex 249.31010230905815 566.5613035226868 2.7499998761093316
    vertex 249.31010230364598 566.695278364152 1.2499998888184876
    vertex 249.31010230364598 565.695278364152 1.249999888818623
  endloop
endfacet
facet normal -1.0 -5.714465844723383e-10 2.9800936939455646e-09
  outer loop
    vertex 249.31010230364598 566.695278364152 1.2499998888184876
    vertex 249.31010230905815 566.5613035226868 2.7499998761093316
    vertex 249.3101023055238 566.6952783641523 2.5179486437550955
  endloop
endfacet
facet normal -0.13049686256987103 -0.9914487222403596 -5.232442781973422e-06
  outer loop
    vertex 228.61010239963608 563.6452779204195 12.799999802611518
    vertex 226.79836927677246 563.8837974019561 2.292555170184374
    vertex 228.61010258611404 563.6453885496647 2.0436634564772223
  endloop
endfacet
facet normal -0.13049686256987103 -0.9914487222403596 -5.232442781973422e-06
  outer loop
    vertex 226.79836927677246 563.8837974019561 2.292555170184374
    vertex 228.61010239963608 563.6452779204195 12.799999802611518
    vertex 226.79836908391843 563.8837971363961 12.799999806742482
  endloop
endfacet
facet normal -0.27731009147834196 0.6694857996057928 -0.6891210904409079
  outer loop
    vertex 226.79836928976994 577.4067589788955 2.2925553121618045
    vertex 225.61010261792234 575.8414306635395 1.2500001650545083
    vertex 225.11010260703097 576.7074560293989 2.2925553109739045
  endloop
endfacet
facet normal -0.27731009147834196 0.6694857996057928 -0.6891210904409079
  outer loop
    vertex 225.61010261792234 575.8414306635395 1.2500001650545083
    vertex 226.79836928976994 577.4067589788955 2.2925553121618045
    vertex 227.0571883473072 576.4408331985674 1.250000187684325
  endloop
endfacet
facet normal -0.18678506373695924 -0.6970717191716329 -0.6922444353664999
  outer loop
    vertex 231.55135411016872 563.6455151962881 1.2499998780579382
    vertex 226.79836927677246 563.8837974019561 2.292555170184374
    vertex 227.0571883473072 564.8497232830985 1.2499998072006067
  endloop
endfacet
facet normal -0.18678506373695924 -0.6970717191716329 -0.6922444353664999
  outer loop
    vertex 226.79836927677246 563.8837974019561 2.292555170184374
    vertex 231.55135411016872 563.6455151962881 1.2499998780579382
    vertex 228.61010258611404 563.6453885496647 2.0436634564772223
  endloop
endfacet
facet normal -0.9238795324623283 -0.38268343248328585 -3.525898549575626e-10
  outer loop
    vertex 232.18402817464937 571.6029087078457 2.2499998695772963
    vertex 231.81439661192474 572.4952782408329 1.2500000006123986
    vertex 232.18402817519188 571.6029087077122 1.250000000612517
  endloop
endfacet
facet normal -0.9238795324623283 -0.38268343248328585 -3.525898549575626e-10
  outer loop
    vertex 231.81439661192474 572.4952782408329 1.2500000006123986
    vertex 232.18402817464937 571.6029087078457 2.2499998695772963
    vertex 232.06292476848293 571.8952781934623 2.2499998696262002
  endloop
endfacet
facet normal -0.9238795324623283 -0.38268343248328585 -3.525898549575626e-10
  outer loop
    vertex 231.81439661192474 572.4952782408329 1.2500000006123986
    vertex 232.06292476848293 571.8952781934623 2.2499998696262002
    vertex 232.06292476848293 571.8952781934626 3.249999964987922
  endloop
endfacet
facet normal -0.9238795324623283 -0.38268343248328585 -3.525898549575626e-10
  outer loop
    vertex 231.81439661192474 572.4952782408329 1.2500000006123986
    vertex 232.06292476848293 571.8952781934626 3.249999964987922
    vertex 231.8143966108397 572.4952782411003 3.250000000612378
  endloop
endfacet
facet normal 1.6919798895287258e-12 -1.0 -8.772215742926593e-13
  outer loop
    vertex 233.31010237783724 568.1952782007319 13.42499982402797
    vertex 229.31010237783727 568.1952782007262 12.799999824029564
    vertex 233.31010237783724 568.1952782007329 12.799999824029452
  endloop
endfacet
facet normal 1.6919798895287258e-12 -1.0 -8.772215742926593e-13
  outer loop
    vertex 229.31010237783727 568.1952782007262 12.799999824029564
    vertex 233.31010237783724 568.1952782007319 13.42499982402797
    vertex 229.31010237783727 568.195278200725 13.42499982402797
  endloop
endfacet
facet normal -0.7933533402912293 0.6087614290087284 -5.11799692604175e-10
  outer loop
    vertex 231.22639770722748 568.02898315071 3.250000000612976
    vertex 231.81439661192474 568.7952782408329 1.250000000612892
    vertex 231.2263977083125 568.0289831504426 1.2500000006129937
  endloop
endfacet
facet normal -0.7933533402912293 0.6087614290087284 -5.11799692604175e-10
  outer loop
    vertex 231.81439661192474 568.7952782408329 1.250000000612892
    vertex 231.22639770722748 568.02898315071 3.250000000612976
    vertex 231.8143966108397 568.7952782411003 3.250000000612874
  endloop
endfacet
facet normal -2.179825631653981e-09 -0.8660254174298483 -0.4999999763654567
  outer loop
    vertex 249.31010231350666 574.7292527431041 2.7499998773872374
    vertex 239.3101025019445 575.5952781277368 1.2499998719927177
    vertex 249.31010230136394 575.5952780797312 1.2499998647915835
  endloop
endfacet
facet normal -2.179825631653981e-09 -0.8660254174298483 -0.4999999763654567
  outer loop
    vertex 239.3101025019445 575.5952781277368 1.2499998719927177
    vertex 249.31010231350666 574.7292527431041 2.7499998773872374
    vertex 239.3101025019445 574.7292527373841 2.7499998745119294
  endloop
endfacet
facet normal -0.608761427851445 0.7933533411792442 9.453279985717283e-09
  outer loop
    vertex 224.3101023778239 576.0935941397904 12.800000013245864
    vertex 225.11010260703097 576.7074560293989 2.2925553109739045
    vertex 224.31010243627333 576.093594311697 2.2925552855349
  endloop
endfacet
facet normal -0.608761427851445 0.7933533411792442 9.453279985717283e-09
  outer loop
    vertex 225.11010260703097 576.7074560293989 2.2925553109739045
    vertex 224.3101023778239 576.0935941397904 12.800000013245864
    vertex 225.11010239963605 576.7074557469107 12.800000224238708
  endloop
endfacet
facet normal -0.5749000708936253 0.44113695364878336 -0.6891212495722185
  outer loop
    vertex 224.36746193080307 574.8879189279522 1.2500001312182552
    vertex 224.3101024372135 574.813166580533 1.2500000646297351
    vertex 224.31010243963658 574.9452784162623 1.334570684673388
  endloop
endfacet
facet normal -0.3826834306376429 0.9238795332268185 1.6959563946298546e-08
  outer loop
    vertex 225.11010239963605 576.7074557469107 12.800000224238708
    vertex 226.79836928976994 577.4067589788955 2.2925553121618045
    vertex 225.11010260703097 576.7074560293989 2.2925553109739045
  endloop
endfacet
facet normal -0.3826834306376429 0.9238795332268185 1.6959563946298546e-08
  outer loop
    vertex 226.79836928976994 577.4067589788955 2.2925553121618045
    vertex 225.11010239963605 576.7074557469107 12.800000224238708
    vertex 226.79836908391843 577.4067587044431 12.800000250640156
  endloop
endfacet
facet normal -0.3826834319434509 -0.9238795326859348 -3.029410067355992e-08
  outer loop
    vertex 226.79836908391843 563.8837971363961 12.799999806742482
    vertex 225.11010258441095 564.5831003610298 2.2925551839283673
    vertex 226.79836927677246 563.8837974019561 2.292555170184374
  endloop
endfacet
facet normal -0.3826834319434509 -0.9238795326859348 -3.029410067355992e-08
  outer loop
    vertex 225.11010258441095 564.5831003610298 2.2925551839283673
    vertex 226.79836908391843 563.8837971363961 12.799999806742482
    vertex 225.11010239963605 564.5831000939285 12.799999826250943
  endloop
endfacet
facet normal -0.5749008488512258 -0.4411362441099407 -0.6891210547666606
  outer loop
    vertex 224.36746193080302 566.4026375537136 1.2499998526848444
    vertex 224.3101024393988 566.3452780614423 1.3345704384759858
    vertex 224.31010243703122 566.4773899013703 1.2499999278173664
  endloop
endfacet
facet normal -0.6087614289140396 -0.7933533403638858 -3.086089385588962e-08
  outer loop
    vertex 225.11010239963605 564.5831000939285 12.799999826250943
    vertex 224.31010243601227 565.19696206498 2.2925551960829726
    vertex 225.11010258441095 564.5831003610298 2.2925551839283673
  endloop
endfacet
facet normal -0.6087614289140396 -0.7933533403638858 -3.086089385588962e-08
  outer loop
    vertex 224.31010243601227 565.19696206498 2.2925551960829726
    vertex 225.11010239963605 564.5831000939285 12.799999826250943
    vertex 224.31010237784213 565.1969617010348 12.799999834397516
  endloop
endfacet
facet normal 0.999999999999591 -6.727227176906852e-07 6.048162396943269e-07
  outer loop
    vertex 239.31010236811295 565.695278263921 10.799999828846142
    vertex 239.31010781842127 575.5952723423707 12.799999931396728
    vertex 239.31009449851192 565.6952415072603 12.799999843265166
  endloop
endfacet
facet normal 0.999999999999591 -6.727227176906852e-07 6.048162396943269e-07
  outer loop
    vertex 239.31010781842127 575.5952723423707 12.799999931396728
    vertex 239.31010236811295 565.695278263921 10.799999828846142
    vertex 239.31010236811295 575.595278102425 10.800000118390757
  endloop
endfacet
facet normal 9.684368146120051e-09 3.803075445801372e-08 -0.9999999999999993
  outer loop
    vertex 224.3101024356167 575.5952781411696 10.800000060085084
    vertex 239.31010236811295 565.695278263921 10.799999828846142
    vertex 224.3101024347643 565.6952781224306 10.799999596620768
  endloop
endfacet
facet normal 9.684368146120051e-09 3.803075445801372e-08 -0.9999999999999993
  outer loop
    vertex 239.31010236811295 565.695278263921 10.799999828846142
    vertex 224.3101024356167 575.5952781411696 10.800000060085084
    vertex 239.31010236811295 575.595278102425 10.800000118390757
  endloop
endfacet
facet normal 0.7071065362540888 1.961787900325097e-09 0.7071070261189215
  outer loop
    vertex 239.31010237784216 563.6452756792398 12.799999834397516
    vertex 247.8601034255417 565.6953368805995 4.250017834058861
    vertex 239.31009449851192 565.6952415072603 12.799999843265166
  endloop
endfacet
facet normal 0.7071065362540888 1.961787900325097e-09 0.7071070261189215
  outer loop
    vertex 247.8601034255417 565.6953368805995 4.250017834058861
    vertex 239.31010237784216 563.6452756792398 12.799999834397516
    vertex 250.31010232087203 563.645418418542 1.7999997963508367
  endloop
endfacet
facet normal 0.7071065362540888 1.961787900325097e-09 0.7071070261189215
  outer loop
    vertex 247.8601034255417 565.6953368805995 4.250017834058861
    vertex 250.31010232087203 563.645418418542 1.7999997963508367
    vertex 249.59215731639446 566.6952783651473 2.517948645566026
  endloop
endfacet
facet normal 0.7071065362540888 1.961787900325097e-09 0.7071070261189215
  outer loop
    vertex 249.59215731639446 566.6952783651473 2.517948645566026
    vertex 250.31010232087203 563.645418418542 1.7999997963508367
    vertex 250.31010231177356 566.6952783738637 1.7999997963508367
  endloop
endfacet
facet normal 0.707112430837874 1.3997805491834728e-05 0.7071011313515304
  outer loop
    vertex 250.31007528490014 577.645085350198 1.7998144745248716
    vertex 249.5920206092989 574.595278067874 2.5179489571146036
    vertex 250.31009255618903 574.5952780625558 1.799866091494643
  endloop
endfacet
facet normal 0.707112430837874 1.3997805491834728e-05 0.7071011313515304
  outer loop
    vertex 249.5920206092989 574.595278067874 2.5179489571146036
    vertex 250.31007528490014 577.645085350198 1.7998144745248716
    vertex 247.86010115340898 575.5953365872533 4.249981852556426
  endloop
endfacet
facet normal 0.707112430837874 1.3997805491834728e-05 0.7071011313515304
  outer loop
    vertex 247.86010115340898 575.5953365872533 4.249981852556426
    vertex 239.31010237784216 577.6452780586518 12.799999940264545
    vertex 239.31010781842127 575.5952723423707 12.799999931396728
  endloop
endfacet
facet normal 0.707112430837874 1.3997805491834728e-05 0.7071011313515304
  outer loop
    vertex 239.31010237784216 577.6452780586518 12.799999940264545
    vertex 247.86010115340898 575.5953365872533 4.249981852556426
    vertex 250.31007528490014 577.645085350198 1.7998144745248716
  endloop
endfacet
facet normal -1.2826012698938209e-08 -1.0 -5.861143979299469e-09
  outer loop
    vertex 250.31009255618903 574.5952780625558 1.799866091494643
    vertex 249.31010230136394 574.5952780797312 1.2499998647917134
    vertex 250.3101023013639 574.595278074011 1.2499998619164163
  endloop
endfacet
facet normal -1.2826012698938209e-08 -1.0 -5.861143979299469e-09
  outer loop
    vertex 249.31010230136394 574.5952780797312 1.2499998647917134
    vertex 250.31009255618903 574.5952780625558 1.799866091494643
    vertex 249.31010230653408 574.5952780797313 2.5179489534987978
  endloop
endfacet
facet normal -1.2826012698938209e-08 -1.0 -5.861143979299469e-09
  outer loop
    vertex 249.31010230653408 574.5952780797313 2.5179489534987978
    vertex 250.31009255618903 574.5952780625558 1.799866091494643
    vertex 249.5920206092989 574.595278067874 2.5179489571146036
  endloop
endfacet
facet normal -1.0 4.71258807829187e-09 4.209977596009512e-09
  outer loop
    vertex 249.31010230653408 574.5952780797313 2.5179489534987978
    vertex 249.31010230136394 575.5952780797312 1.2499998647915835
    vertex 249.31010230136394 574.5952780797312 1.2499998647917134
  endloop
endfacet
facet normal -1.0 4.71258807829187e-09 4.209977596009512e-09
  outer loop
    vertex 249.31010230136394 575.5952780797312 1.2499998647915835
    vertex 249.31010230653408 574.5952780797313 2.5179489534987978
    vertex 249.31010231350666 574.7292527431041 2.7499998773872374
  endloop
endfacet
facet normal 1.0 0.0 0.0
  outer loop
    vertex 239.3101025019445 566.6952780946526 1.249999871993905
    vertex 239.3101025019445 566.5613034994489 2.7499998899658715
    vertex 239.3101025019445 565.6952780946526 1.2499998719940404
  endloop
endfacet
facet normal 1.0 0.0 0.0
  outer loop
    vertex 239.3101025019445 566.5613034994489 2.7499998899658715
    vertex 239.3101025019445 566.6952780946526 1.249999871993905
    vertex 239.3101025019445 566.6952780946528 2.5179490742158066
  endloop
endfacet
facet normal 1.0 4.5403131700535375e-09 -6.143087543506291e-09
  outer loop
    vertex 250.31010232224182 563.6455153732336 1.2499998872225728
    vertex 250.31010231177356 566.6952783738637 1.7999997963508367
    vertex 250.31010232087203 563.645418418542 1.7999997963508367
  endloop
endfacet
facet normal 1.0 4.5403131700535375e-09 -6.143087543506291e-09
  outer loop
    vertex 250.31010231177356 566.6952783738637 1.7999997963508367
    vertex 250.31010232224182 563.6455153732336 1.2499998872225728
    vertex 250.31010230364592 566.6952783676793 1.2499998872221638
  endloop
endfacet
facet normal 0.9999999994368745 2.8297703630875122e-06 3.3440150841152033e-05
  outer loop
    vertex 250.3101023013639 574.595278074011 1.2499998619164163
    vertex 250.31007528490014 577.645085350198 1.7998144745248716
    vertex 250.31009255618903 574.5952780625558 1.799866091494643
  endloop
endfacet
facet normal 0.9999999994368745 2.8297703630875122e-06 3.3440150841152033e-05
  outer loop
    vertex 250.31007528490014 577.645085350198 1.7998144745248716
    vertex 250.3101023013639 574.595278074011 1.2499998619164163
    vertex 250.3101023141891 577.6450290809186 1.249999861916013
  endloop
endfacet
facet normal -1.1816508075315202e-06 0.9999999999972826 2.009635405638932e-06
  outer loop
    vertex 224.3101024347643 565.6952781224306 10.799999596620768
    vertex 236.310102446961 565.695278117959 3.249999874121325
    vertex 224.3101024347643 565.6952781224296 3.2499998731197066
  endloop
endfacet
facet normal -1.1816508075315202e-06 0.9999999999972826 2.009635405638932e-06
  outer loop
    vertex 236.310102446961 565.695278117959 3.249999874121325
    vertex 224.3101024347643 565.6952781224306 10.799999596620768
    vertex 238.31010250194447 565.6952781416584 4.249999874513146
  endloop
endfacet
facet normal -1.1816508075315202e-06 0.9999999999972826 2.009635405638932e-06
  outer loop
    vertex 238.31010250194447 565.6952781416584 4.249999874513146
    vertex 224.3101024347643 565.6952781224306 10.799999596620768
    vertex 247.8601034255417 565.6953368805995 4.250017834058861
  endloop
endfacet
facet normal -1.1816508075315202e-06 0.9999999999972826 2.009635405638932e-06
  outer loop
    vertex 247.8601034255417 565.6953368805995 4.250017834058861
    vertex 224.3101024347643 565.6952781224306 10.799999596620768
    vertex 239.31010236811295 565.695278263921 10.799999828846142
  endloop
endfacet
facet normal -1.1816508075315202e-06 0.9999999999972826 2.009635405638932e-06
  outer loop
    vertex 247.8601034255417 565.6953368805995 4.250017834058861
    vertex 239.31010236811295 565.695278263921 10.799999828846142
    vertex 239.31009449851192 565.6952415072603 12.799999843265166
  endloop
endfacet
facet normal -1.1816508075315202e-06 0.9999999999972826 2.009635405638932e-06
  outer loop
    vertex 236.31010246816186 565.6952781179587 1.2499998768942961
    vertex 238.31010250194447 565.6952781416584 4.249999874513146
    vertex 238.31010250194447 565.6952780946526 1.2499998719940404
  endloop
endfacet
facet normal -1.1816508075315202e-06 0.9999999999972826 2.009635405638932e-06
  outer loop
    vertex 238.31010250194447 565.6952781416584 4.249999874513146
    vertex 236.31010246816186 565.6952781179587 1.2499998768942961
    vertex 236.310102446961 565.695278117959 3.249999874121325
  endloop
endfacet
facet normal 1.8736773898030052e-06 0.9999999998499263 -1.722314995697651e-05
  outer loop
    vertex 231.5513087433376 577.6450291293719 1.2500000880344952
    vertex 250.31007528490014 577.645085350198 1.7998144745248716
    vertex 250.3101023141891 577.6450290809186 1.249999861916013
  endloop
endfacet
facet normal 1.8736773898030052e-06 0.9999999998499263 -1.722314995697651e-05
  outer loop
    vertex 250.31007528490014 577.645085350198 1.7998144745248716
    vertex 231.5513087433376 577.6450291293719 1.2500000880344952
    vertex 228.61010258604904 577.6451622205301 2.043652257973825
  endloop
endfacet
facet normal 1.8736773898030052e-06 0.9999999998499263 -1.722314995697651e-05
  outer loop
    vertex 250.31007528490014 577.645085350198 1.7998144745248716
    vertex 228.61010258604904 577.6451622205301 2.043652257973825
    vertex 239.31010237784216 577.6452780586518 12.799999940264545
  endloop
endfacet
facet normal 1.8736773898030052e-06 0.9999999998499263 -1.722314995697651e-05
  outer loop
    vertex 239.31010237784216 577.6452780586518 12.799999940264545
    vertex 228.61010258604904 577.6451622205301 2.043652257973825
    vertex 228.61010239963608 577.6452779204196 12.800000262168208
  endloop
endfacet
facet normal 1.9945194144294343e-06 -0.9999999999979874 -2.1699883422775827e-07
  outer loop
    vertex 247.86010115340898 575.5953365872533 4.249981852556426
    vertex 239.31010236811295 575.595278102425 10.800000118390757
    vertex 238.31010250194447 575.5952781277373 4.249999874511825
  endloop
endfacet
facet normal 1.9945194144294343e-06 -0.9999999999979874 -2.1699883422775827e-07
  outer loop
    vertex 239.31010236811295 575.595278102425 10.800000118390757
    vertex 247.86010115340898 575.5953365872533 4.249981852556426
    vertex 239.31010781842127 575.5952723423707 12.799999931396728
  endloop
endfacet
facet normal 1.9945194144294343e-06 -0.9999999999979874 -2.1699883422775827e-07
  outer loop
    vertex 238.31010250194447 575.5952781277373 4.249999874511825
    vertex 239.31010236811295 575.595278102425 10.800000118390757
    vertex 224.3101024356167 575.5952781411696 10.800000060085084
  endloop
endfacet
facet normal 1.9945194144294343e-06 -0.9999999999979874 -2.1699883422775827e-07
  outer loop
    vertex 238.31010250194447 575.5952781277373 4.249999874511825
    vertex 236.31010250194447 575.5952781366976 1.2499998768929734
    vertex 238.31010250194447 575.5952781277368 1.2499998719927177
  endloop
endfacet
facet normal 1.9945194144294343e-06 -0.9999999999979874 -2.1699883422775827e-07
  outer loop
    vertex 236.31010250194447 575.5952781366976 1.2499998768929734
    vertex 238.31010250194447 575.5952781277373 4.249999874511825
    vertex 236.31010249773357 575.5952781366979 3.2499998110655532
  endloop
endfacet
facet normal 1.9945194144294343e-06 -0.9999999999979874 -2.1699883422775827e-07
  outer loop
    vertex 236.31010249773357 575.5952781366979 3.2499998110655532
    vertex 238.31010250194447 575.5952781277373 4.249999874511825
    vertex 224.3101024356167 575.5952781411696 10.800000060085084
  endloop
endfacet
facet normal -3.7255892992449795e-10 -1.0 1.3147392964280073e-13
  outer loop
    vertex 224.3101024356167 575.5952781411696 10.800000060085084
    vertex 224.3101024356167 575.5952781411686 3.2499998086844073
    vertex 236.31010249773357 575.5952781366979 3.2499998110655532
  endloop
endfacet
facet normal 8.063920950249092e-07 -0.999999999867462 -1.626118075868843e-05
  outer loop
    vertex 250.31010232224182 563.6455153732336 1.2499998872225728
    vertex 228.61010258611404 563.6453885496647 2.0436634564772223
    vertex 231.55135411016872 563.6455151962881 1.2499998780579382
  endloop
endfacet
facet normal 8.063920950249092e-07 -0.999999999867462 -1.626118075868843e-05
  outer loop
    vertex 228.61010258611404 563.6453885496647 2.0436634564772223
    vertex 250.31010232224182 563.6455153732336 1.2499998872225728
    vertex 250.31010232087203 563.645418418542 1.7999997963508367
  endloop
endfacet
facet normal 8.063920950249092e-07 -0.999999999867462 -1.626118075868843e-05
  outer loop
    vertex 228.61010258611404 563.6453885496647 2.0436634564772223
    vertex 250.31010232087203 563.645418418542 1.7999997963508367
    vertex 239.31010237784216 563.6452756792398 12.799999834397516
  endloop
endfacet
facet normal 8.063920950249092e-07 -0.999999999867462 -1.626118075868843e-05
  outer loop
    vertex 228.61010258611404 563.6453885496647 2.0436634564772223
    vertex 239.31010237784216 563.6452756792398 12.799999834397516
    vertex 228.61010239963608 563.6452779204195 12.799999802611518
  endloop
endfacet
facet normal 1.058684729000282e-06 -0.8660170721482295 0.5000144305384469
  outer loop
    vertex 249.5920206092989 574.595278067874 2.5179489571146036
    vertex 249.31010231350666 574.7292527431041 2.7499998773872374
    vertex 249.31010230653408 574.5952780797313 2.5179489534987978
  endloop
endfacet
facet normal 1.058684729000282e-06 -0.8660170721482295 0.5000144305384469
  outer loop
    vertex 249.31010231350666 574.7292527431041 2.7499998773872374
    vertex 249.5920206092989 574.595278067874 2.5179489571146036
    vertex 247.86010115340898 575.5953365872533 4.249981852556426
  endloop
endfacet
facet normal 1.058684729000282e-06 -0.8660170721482295 0.5000144305384469
  outer loop
    vertex 239.3101025019445 574.7292527373841 2.7499998745119294
    vertex 238.31010250194447 574.5952781277371 2.517949040080207
    vertex 239.3101025019445 574.5952781277371 2.517949040080207
  endloop
endfacet
facet normal 1.058684729000282e-06 -0.8660170721482295 0.5000144305384469
  outer loop
    vertex 238.31010250194447 574.5952781277371 2.517949040080207
    vertex 239.3101025019445 574.7292527373841 2.7499998745119294
    vertex 238.31010250194447 575.5952781277373 4.249999874511825
  endloop
endfacet
facet normal 1.058684729000282e-06 -0.8660170721482295 0.5000144305384469
  outer loop
    vertex 238.31010250194447 575.5952781277373 4.249999874511825
    vertex 239.3101025019445 574.7292527373841 2.7499998745119294
    vertex 249.31010231350666 574.7292527431041 2.7499998773872374
  endloop
endfacet
facet normal 1.058684729000282e-06 -0.8660170721482295 0.5000144305384469
  outer loop
    vertex 238.31010250194447 575.5952781277373 4.249999874511825
    vertex 249.31010231350666 574.7292527431041 2.7499998773872374
    vertex 247.86010115340898 575.5953365872533 4.249981852556426
  endloop
endfacet
facet normal -1.1633702558861684e-06 0.8660336485109061 0.4999857194416007
  outer loop
    vertex 238.31010250194447 565.6952781416584 4.249999874513146
    vertex 239.3101025019445 566.6952780946528 2.5179490742158066
    vertex 238.31010250194447 566.6952780946528 2.5179490742158066
  endloop
endfacet
facet normal -1.1633702558861684e-06 0.8660336485109061 0.4999857194416007
  outer loop
    vertex 239.3101025019445 566.6952780946528 2.5179490742158066
    vertex 238.31010250194447 565.6952781416584 4.249999874513146
    vertex 239.3101025019445 566.5613034994489 2.7499998899658715
  endloop
endfacet
facet normal -1.1633702558861684e-06 0.8660336485109061 0.4999857194416007
  outer loop
    vertex 249.31010230905815 566.5613035226868 2.7499998761093316
    vertex 249.59215731639446 566.6952783651473 2.517948645566026
    vertex 249.3101023055238 566.6952783641523 2.5179486437550955
  endloop
endfacet
facet normal -1.1633702558861684e-06 0.8660336485109061 0.4999857194416007
  outer loop
    vertex 249.59215731639446 566.6952783651473 2.517948645566026
    vertex 249.31010230905815 566.5613035226868 2.7499998761093316
    vertex 247.8601034255417 565.6953368805995 4.250017834058861
  endloop
endfacet
facet normal -1.1633702558861684e-06 0.8660336485109061 0.4999857194416007
  outer loop
    vertex 247.8601034255417 565.6953368805995 4.250017834058861
    vertex 249.31010230905815 566.5613035226868 2.7499998761093316
    vertex 239.3101025019445 566.5613034994489 2.7499998899658715
  endloop
endfacet
facet normal -1.1633702558861684e-06 0.8660336485109061 0.4999857194416007
  outer loop
    vertex 247.8601034255417 565.6953368805995 4.250017834058861
    vertex 239.3101025019445 566.5613034994489 2.7499998899658715
    vertex 238.31010250194447 565.6952781416584 4.249999874513146
  endloop
endfacet
facet normal 8.431811868780351e-09 -2.198868622877992e-08 0.9999999999999998
  outer loop
    vertex 229.31010237783053 572.1452782007267 12.799999824033021
    vertex 229.310102377829 573.0280552007275 12.7999998240338
    vertex 228.71010237783048 572.1452782007256 12.799999824033021
  endloop
endfacet
facet normal 8.431811868780351e-09 -2.198868622877992e-08 0.9999999999999998
  outer loop
    vertex 224.31010237784213 565.1969617010348 12.799999834397516
    vertex 225.11010239963605 576.7074557469107 12.800000224238708
    vertex 224.3101023778239 576.0935941397904 12.800000013245864
  endloop
endfacet
facet normal 8.431811868780351e-09 -2.198868622877992e-08 0.9999999999999998
  outer loop
    vertex 225.11010239963605 576.7074557469107 12.800000224238708
    vertex 224.31010237784213 565.1969617010348 12.799999834397516
    vertex 225.11010239963605 564.5831000939285 12.799999826250943
  endloop
endfacet
facet normal 8.431811868780351e-09 -2.198868622877992e-08 0.9999999999999998
  outer loop
    vertex 225.11010239963605 576.7074557469107 12.800000224238708
    vertex 225.11010239963605 564.5831000939285 12.799999826250943
    vertex 226.79836908391843 563.8837971363961 12.799999806742482
  endloop
endfacet
facet normal 8.431811868780351e-09 -2.198868622877992e-08 0.9999999999999998
  outer loop
    vertex 225.11010239963605 576.7074557469107 12.800000224238708
    vertex 226.79836908391843 563.8837971363961 12.799999806742482
    vertex 226.79836908391843 577.4067587044431 12.800000250640156
  endloop
endfacet
facet normal 8.431811868780351e-09 -2.198868622877992e-08 0.9999999999999998
  outer loop
    vertex 226.79836908391843 577.4067587044431 12.800000250640156
    vertex 226.79836908391843 563.8837971363961 12.799999806742482
    vertex 228.61010239963608 563.6452779204195 12.799999802611518
  endloop
endfacet
facet normal 8.431811868780351e-09 -2.198868622877992e-08 0.9999999999999998
  outer loop
    vertex 226.79836908391843 577.4067587044431 12.800000250640156
    vertex 228.61010239963608 563.6452779204195 12.799999802611518
    vertex 228.61010239963608 577.6452779204196 12.800000262168208
  endloop
endfacet
facet normal 8.431811868780351e-09 -2.198868622877992e-08 0.9999999999999998
  outer loop
    vertex 228.61010239963608 577.6452779204196 12.800000262168208
    vertex 228.61010239963608 563.6452779204195 12.799999802611518
    vertex 228.71010237783554 569.1452782007259 12.799999824030394
  endloop
endfacet
facet normal 8.431811868780351e-09 -2.198868622877992e-08 0.9999999999999998
  outer loop
    vertex 228.71010237783554 569.1452782007259 12.799999824030394
    vertex 228.61010239963608 563.6452779204195 12.799999802611518
    vertex 229.31010237783727 568.1952782007262 12.799999824029564
  endloop
endfacet
facet normal 8.431811868780351e-09 -2.198868622877992e-08 0.9999999999999998
  outer loop
    vertex 229.31010237783727 568.1952782007262 12.799999824029564
    vertex 228.61010239963608 563.6452779204195 12.799999802611518
    vertex 239.31010237784216 563.6452756792398 12.799999834397516
  endloop
endfacet
facet normal 8.431811868780351e-09 -2.198868622877992e-08 0.9999999999999998
  outer loop
    vertex 228.61010239963608 577.6452779204196 12.800000262168208
    vertex 228.71010237783554 569.1452782007259 12.799999824030394
    vertex 228.71010237783048 572.1452782007256 12.799999824033021
  endloop
endfacet
facet normal 8.431811868780351e-09 -2.198868622877992e-08 0.9999999999999998
  outer loop
    vertex 228.71010237783554 569.1452782007259 12.799999824030394
    vertex 229.31010237783727 568.1952782007262 12.799999824029564
    vertex 229.3101023778356 569.145278200727 12.799999824030394
  endloop
endfacet
facet normal 8.431811868780351e-09 -2.198868622877992e-08 0.9999999999999998
  outer loop
    vertex 229.31010237783727 568.1952782007262 12.799999824029564
    vertex 239.31010237784216 563.6452756792398 12.799999834397516
    vertex 233.31010237783724 568.1952782007329 12.799999824029452
  endloop
endfacet
facet normal 8.431811868780351e-09 -2.198868622877992e-08 0.9999999999999998
  outer loop
    vertex 233.31010237783724 568.1952782007329 12.799999824029452
    vertex 239.31010237784216 563.6452756792398 12.799999834397516
    vertex 233.9101023778356 569.1452782007348 12.799999824030394
  endloop
endfacet
facet normal 8.431811868780351e-09 -2.198868622877992e-08 0.9999999999999998
  outer loop
    vertex 233.9101023778356 569.1452782007348 12.799999824030394
    vertex 239.31010237784216 563.6452756792398 12.799999834397516
    vertex 239.31009449851192 565.6952415072603 12.799999843265166
  endloop
endfacet
facet normal 8.431811868780351e-09 -2.198868622877992e-08 0.9999999999999998
  outer loop
    vertex 228.61010239963608 577.6452779204196 12.800000262168208
    vertex 229.310102377829 573.0280552007275 12.7999998240338
    vertex 239.31010237784216 577.6452780586518 12.799999940264545
  endloop
endfacet
facet normal 8.431811868780351e-09 -2.198868622877992e-08 0.9999999999999998
  outer loop
    vertex 229.310102377829 573.0280552007275 12.7999998240338
    vertex 228.61010239963608 577.6452779204196 12.800000262168208
    vertex 228.71010237783048 572.1452782007256 12.799999824033021
  endloop
endfacet
facet normal 8.431811868780351e-09 -2.198868622877992e-08 0.9999999999999998
  outer loop
    vertex 239.31010237784216 577.6452780586518 12.799999940264545
    vertex 229.310102377829 573.0280552007275 12.7999998240338
    vertex 233.310102377829 573.0280552007345 12.799999824033778
  endloop
endfacet
facet normal 8.431811868780351e-09 -2.198868622877992e-08 0.9999999999999998
  outer loop
    vertex 239.31010237784216 577.6452780586518 12.799999940264545
    vertex 233.310102377829 573.0280552007345 12.799999824033778
    vertex 233.31010237783053 572.1452782007335 12.799999824033021
  endloop
endfacet
facet normal 8.431811868780351e-09 -2.198868622877992e-08 0.9999999999999998
  outer loop
    vertex 239.31010237784216 577.6452780586518 12.799999940264545
    vertex 233.31010237783053 572.1452782007335 12.799999824033021
    vertex 233.91010237783058 572.1452782007344 12.799999824033021
  endloop
endfacet
facet normal 8.431811868780351e-09 -2.198868622877992e-08 0.9999999999999998
  outer loop
    vertex 239.31010237784216 577.6452780586518 12.799999940264545
    vertex 233.91010237783058 572.1452782007344 12.799999824033021
    vertex 233.9101023778356 569.1452782007348 12.799999824030394
  endloop
endfacet
facet normal 8.431811868780351e-09 -2.198868622877992e-08 0.9999999999999998
  outer loop
    vertex 239.31010237784216 577.6452780586518 12.799999940264545
    vertex 233.9101023778356 569.1452782007348 12.799999824030394
    vertex 239.31009449851192 565.6952415072603 12.799999843265166
  endloop
endfacet
facet normal 8.431811868780351e-09 -2.198868622877992e-08 0.9999999999999998
  outer loop
    vertex 239.31010237784216 577.6452780586518 12.799999940264545
    vertex 239.31009449851192 565.6952415072603 12.799999843265166
    vertex 239.31010781842127 575.5952723423707 12.799999931396728
  endloop
endfacet
facet normal 8.431811868780351e-09 -2.198868622877992e-08 0.9999999999999998
  outer loop
    vertex 233.9101023778356 569.1452782007348 12.799999824030394
    vertex 233.3101023778356 569.1452782007337 12.799999824030394
    vertex 233.31010237783724 568.1952782007329 12.799999824029452
  endloop
endfacet
endsolid Indexer
