solid Indexer
facet normal -7.726802742367093e-13 -1.0 1.4133691594491606e-16
  outer loop
    vertex 17.17252556788354 548.679828654086 9.871320221609755
    vertex 19.96541878669614 548.6798286540838 11.249999878051774
    vertex 18.551205224323134 548.6798286540849 11.249999878050943
  endloop
endfacet
facet normal -7.726802742367093e-13 -1.0 1.4133691594491606e-16
  outer loop
    vertex 19.96541878669614 548.6798286540838 11.249999878051774
    vertex 17.17252556788354 548.679828654086 9.871320221609755
    vertex 18.172525567883827 548.6798286540851 9.457106659237272
  endloop
endfacet
facet normal -7.726802742367093e-13 -1.0 1.4133691594491606e-16
  outer loop
    vertex 18.172525567883827 548.6798286540851 9.457106659237272
    vertex 17.17252556788354 548.679828654086 9.871320221609755
    vertex 17.172525567888673 548.679828654086 1.2499998780500834
  endloop
endfacet
facet normal -7.726802742367093e-13 -1.0 1.4133691594491606e-16
  outer loop
    vertex 18.172525567883827 548.6798286540851 9.457106659237272
    vertex 17.172525567888673 548.679828654086 1.2499998780500834
    vertex 18.172525567884673 548.6798286540851 8.04289309686415
  endloop
endfacet
facet normal -7.726802742367093e-13 -1.0 1.4133691594491606e-16
  outer loop
    vertex 18.172525567884673 548.6798286540851 8.04289309686415
    vertex 17.172525567888673 548.679828654086 1.2499998780500834
    vertex 18.172525567886808 548.6798286540851 4.45710665923727
  endloop
endfacet
facet normal -7.726802742367093e-13 -1.0 1.4133691594491606e-16
  outer loop
    vertex 18.172525567886808 548.6798286540851 4.45710665923727
    vertex 17.172525567888673 548.679828654086 1.2499998780500834
    vertex 18.17252556788872 548.6798286540851 1.2499998780507473
  endloop
endfacet
facet normal 0.3511234415876593 -0.9363291775693192 2.097250475349616e-13
  outer loop
    vertex 18.172525567886808 548.6798286540851 4.45710665923727
    vertex 19.17252556788551 549.0548286540844 7.042893096864748
    vertex 18.172525567884673 548.6798286540851 8.04289309686415
  endloop
endfacet
facet normal 0.3511234415876593 -0.9363291775693192 2.097250475349616e-13
  outer loop
    vertex 19.17252556788551 549.0548286540844 7.042893096864748
    vertex 18.172525567886808 548.6798286540851 4.45710665923727
    vertex 19.172525567886456 549.0548286540844 5.457106659237852
  endloop
endfacet
facet normal 1.0 -7.806900551179344e-13 5.953293505068891e-13
  outer loop
    vertex 18.172525567886332 550.9298286540852 8.04289309686415
    vertex 18.17252556788519 550.4298286540852 9.457106659237272
    vertex 18.172525567885945 550.4298286540852 8.04289309686415
  endloop
endfacet
facet normal 1.0 -7.806900551179344e-13 5.953293505068891e-13
  outer loop
    vertex 18.17252556788519 550.4298286540852 9.457106659237272
    vertex 18.172525567886332 550.9298286540852 8.04289309686415
    vertex 18.17252556788558 550.9298286540852 9.457106659237272
  endloop
endfacet
facet normal 0.8320502943374131 -0.5547001962258754 4.957064279584445e-13
  outer loop
    vertex 18.67252556788553 549.4298286540849 7.542893096864449
    vertex 18.172525567883827 548.6798286540851 9.457106659237272
    vertex 18.172525567884673 548.6798286540851 8.04289309686415
  endloop
endfacet
facet normal 0.8320502943374131 -0.5547001962258754 4.957064279584445e-13
  outer loop
    vertex 18.172525567883827 548.6798286540851 9.457106659237272
    vertex 18.67252556788553 549.4298286540849 7.542893096864449
    vertex 18.672525567884094 549.4298286540849 9.957106659237569
  endloop
endfacet
facet normal 0.707106781186967 -5.498315538990807e-13 -0.707106781186128
  outer loop
    vertex 19.172525567886456 549.0548286540844 5.457106659237852
    vertex 18.67252556788707 549.4298286540849 4.957106659237555
    vertex 19.172525567887917 550.9298286540844 5.457106659237852
  endloop
endfacet
facet normal 0.707106781186967 -5.498315538990807e-13 -0.707106781186128
  outer loop
    vertex 18.67252556788707 549.4298286540849 4.957106659237555
    vertex 19.172525567886456 549.0548286540844 5.457106659237852
    vertex 18.172525567886808 548.6798286540851 4.45710665923727
  endloop
endfacet
facet normal 0.707106781186967 -5.498315538990807e-13 -0.707106781186128
  outer loop
    vertex 18.67252556788707 549.4298286540849 4.957106659237555
    vertex 18.17252556788847 550.9298286540852 4.457106659237281
    vertex 19.172525567887917 550.9298286540844 5.457106659237852
  endloop
endfacet
facet normal 0.707106781186967 -5.498315538990807e-13 -0.707106781186128
  outer loop
    vertex 18.17252556788847 550.9298286540852 4.457106659237281
    vertex 18.67252556788707 549.4298286540849 4.957106659237555
    vertex 18.17252556788808 550.4298286540852 4.457106659237281
  endloop
endfacet
facet normal -0.8320502943382734 -0.5547001962245846 -4.982763947554776e-13
  outer loop
    vertex 28.172525567887075 549.4298286540774 4.957106659243203
    vertex 28.672525567888677 548.6798286540771 1.2499998780569006
    vertex 28.672525567886765 548.6798286540771 4.457106659243479
  endloop
endfacet
facet normal -0.8320502943382734 -0.5547001962245846 -4.982763947554776e-13
  outer loop
    vertex 28.672525567888677 548.6798286540771 1.2499998780569006
    vertex 28.172525567887075 549.4298286540774 4.957106659243203
    vertex 28.172525567889288 549.4298286540774 1.2499998780566073
  endloop
endfacet
facet normal 1.0 -7.792800718766603e-13 5.959133846881436e-13
  outer loop
    vertex 18.172525567890467 550.9298286540852 1.2499998780507473
    vertex 18.17252556788808 550.4298286540852 4.457106659237281
    vertex 18.17252556789008 550.4298286540852 1.2499998780507586
  endloop
endfacet
facet normal 1.0 -7.792800718766603e-13 5.959133846881436e-13
  outer loop
    vertex 18.17252556788808 550.4298286540852 4.457106659237281
    vertex 18.172525567890467 550.9298286540852 1.2499998780507473
    vertex 18.17252556788847 550.9298286540852 4.457106659237281
  endloop
endfacet
facet normal 0.7071067811861316 -5.503164278294463e-13 0.7071067811869636
  outer loop
    vertex 19.17252556788551 549.0548286540844 7.042893096864748
    vertex 18.67252556788553 549.4298286540849 7.542893096864449
    vertex 18.172525567884673 548.6798286540851 8.04289309686415
  endloop
endfacet
facet normal 0.7071067811861316 -5.503164278294463e-13 0.7071067811869636
  outer loop
    vertex 18.67252556788553 549.4298286540849 7.542893096864449
    vertex 19.17252556788551 549.0548286540844 7.042893096864748
    vertex 19.17252556788697 550.9298286540844 7.042893096864748
  endloop
endfacet
facet normal 0.7071067811861316 -5.503164278294463e-13 0.7071067811869636
  outer loop
    vertex 18.67252556788553 549.4298286540849 7.542893096864449
    vertex 19.17252556788697 550.9298286540844 7.042893096864748
    vertex 18.172525567885945 550.4298286540852 8.04289309686415
  endloop
endfacet
facet normal 0.7071067811861316 -5.503164278294463e-13 0.7071067811869636
  outer loop
    vertex 18.172525567885945 550.4298286540852 8.04289309686415
    vertex 19.17252556788697 550.9298286540844 7.042893096864748
    vertex 18.172525567886332 550.9298286540852 8.04289309686415
  endloop
endfacet
facet normal 0.8320502943374122 -0.5547001962258767 4.928961943334679e-13
  outer loop
    vertex 18.672525567889277 549.4298286540849 1.2499998780510448
    vertex 18.172525567886808 548.6798286540851 4.45710665923727
    vertex 18.17252556788872 548.6798286540851 1.2499998780507473
  endloop
endfacet
facet normal 0.8320502943374122 -0.5547001962258767 4.928961943334679e-13
  outer loop
    vertex 18.172525567886808 548.6798286540851 4.45710665923727
    vertex 18.672525567889277 549.4298286540849 1.2499998780510448
    vertex 18.67252556788707 549.4298286540849 4.957106659237555
  endloop
endfacet
facet normal 0.8944271910002692 0.4472135954992513 5.32606101703636e-13
  outer loop
    vertex 18.172525567885945 550.4298286540852 8.04289309686415
    vertex 18.672525567884094 549.4298286540849 9.957106659237569
    vertex 18.67252556788553 549.4298286540849 7.542893096864449
  endloop
endfacet
facet normal 0.8944271910002692 0.4472135954992513 5.32606101703636e-13
  outer loop
    vertex 18.672525567884094 549.4298286540849 9.957106659237569
    vertex 18.172525567885945 550.4298286540852 8.04289309686415
    vertex 18.17252556788519 550.4298286540852 9.457106659237272
  endloop
endfacet
facet normal 0.8944271910002689 0.447213595499252 5.320626213935042e-13
  outer loop
    vertex 18.17252556789008 550.4298286540852 1.2499998780507586
    vertex 18.67252556788707 549.4298286540849 4.957106659237555
    vertex 18.672525567889277 549.4298286540849 1.2499998780510448
  endloop
endfacet
facet normal 0.8944271910002689 0.447213595499252 5.320626213935042e-13
  outer loop
    vertex 18.67252556788707 549.4298286540849 4.957106659237555
    vertex 18.17252556789008 550.4298286540852 1.2499998780507586
    vertex 18.17252556788808 550.4298286540852 4.457106659237281
  endloop
endfacet
facet normal 1.0 -7.774940931043801e-13 5.953293505068891e-13
  outer loop
    vertex 19.172525567887917 550.9298286540844 5.457106659237852
    vertex 19.17252556788551 549.0548286540844 7.042893096864748
    vertex 19.172525567886456 549.0548286540844 5.457106659237852
  endloop
endfacet
facet normal 1.0 -7.774940931043801e-13 5.953293505068891e-13
  outer loop
    vertex 19.17252556788551 549.0548286540844 7.042893096864748
    vertex 19.172525567887917 550.9298286540844 5.457106659237852
    vertex 19.17252556788697 550.9298286540844 7.042893096864748
  endloop
endfacet
facet normal -0.8944271909995727 0.4472135955006448 -5.32543220464819e-13
  outer loop
    vertex 28.672525567885152 550.429828654077 9.45710665924348
    vertex 28.172525567885536 549.4298286540774 7.542893096870096
    vertex 28.172525567884097 549.4298286540774 9.95710665924318
  endloop
endfacet
facet normal -0.8944271909995727 0.4472135955006448 -5.32543220464819e-13
  outer loop
    vertex 28.172525567885536 549.4298286540774 7.542893096870096
    vertex 28.672525567885152 550.429828654077 9.45710665924348
    vertex 28.67252556788599 550.429828654077 8.04289309687036
  endloop
endfacet
facet normal -1.0 7.778700886353864e-13 -5.953293505068891e-13
  outer loop
    vertex 28.672525567888517 550.929828654077 4.457106659243479
    vertex 28.672525567890034 550.429828654077 1.2499998780569006
    vertex 28.67252556788813 550.429828654077 4.457106659243479
  endloop
endfacet
facet normal -1.0 7.778700886353864e-13 -5.953293505068891e-13
  outer loop
    vertex 28.672525567890034 550.429828654077 1.2499998780569006
    vertex 28.672525567888517 550.929828654077 4.457106659243479
    vertex 28.672525567890425 550.929828654077 1.2499998780569006
  endloop
endfacet
facet normal 0.7071067811869671 -5.5102667642667e-13 -0.7071067811861279
  outer loop
    vertex 18.172525567883827 548.6798286540851 9.457106659237272
    vertex 19.96541878669789 550.9298286540838 11.249999878051785
    vertex 19.96541878669614 548.6798286540838 11.249999878051774
  endloop
endfacet
facet normal 0.7071067811869671 -5.5102667642667e-13 -0.7071067811861279
  outer loop
    vertex 19.96541878669789 550.9298286540838 11.249999878051785
    vertex 18.172525567883827 548.6798286540851 9.457106659237272
    vertex 18.672525567884094 549.4298286540849 9.957106659237569
  endloop
endfacet
facet normal 0.7071067811869671 -5.5102667642667e-13 -0.7071067811861279
  outer loop
    vertex 18.672525567884094 549.4298286540849 9.957106659237569
    vertex 18.17252556788558 550.9298286540852 9.457106659237272
    vertex 19.96541878669789 550.9298286540838 11.249999878051785
  endloop
endfacet
facet normal 0.7071067811869671 -5.5102667642667e-13 -0.7071067811861279
  outer loop
    vertex 18.17252556788558 550.9298286540852 9.457106659237272
    vertex 18.672525567884094 549.4298286540849 9.957106659237569
    vertex 18.17252556788519 550.4298286540852 9.457106659237272
  endloop
endfacet
facet normal -0.7071067811869711 5.497125323931942e-13 0.7071067811861239
  outer loop
    vertex 28.172525567885536 549.4298286540774 7.542893096870096
    vertex 27.672525567885476 549.0548286540777 7.0428930968698
    vertex 28.672525567884634 548.6798286540771 8.042893096870394
  endloop
endfacet
facet normal -0.7071067811869711 5.497125323931942e-13 0.7071067811861239
  outer loop
    vertex 27.672525567885476 549.0548286540777 7.0428930968698
    vertex 28.172525567885536 549.4298286540774 7.542893096870096
    vertex 27.672525567886936 550.9298286540778 7.042893096869766
  endloop
endfacet
facet normal -0.7071067811869711 5.497125323931942e-13 0.7071067811861239
  outer loop
    vertex 27.672525567886936 550.9298286540778 7.042893096869766
    vertex 28.172525567885536 549.4298286540774 7.542893096870096
    vertex 28.67252556788599 550.429828654077 8.04289309687036
  endloop
endfacet
facet normal -0.7071067811869711 5.497125323931942e-13 0.7071067811861239
  outer loop
    vertex 27.672525567886936 550.9298286540778 7.042893096869766
    vertex 28.67252556788599 550.429828654077 8.04289309687036
    vertex 28.67252556788638 550.929828654077 8.04289309687036
  endloop
endfacet
facet normal -0.7071067811861244 5.508458833646396e-13 -0.7071067811869707
  outer loop
    vertex 26.87963234906925 548.6798286540784 11.249999878055892
    vertex 28.172525567884097 549.4298286540774 9.95710665924318
    vertex 28.67252556788379 548.6798286540771 9.45710665924348
  endloop
endfacet
facet normal -0.7071067811861244 5.508458833646396e-13 -0.7071067811869707
  outer loop
    vertex 28.172525567884097 549.4298286540774 9.95710665924318
    vertex 28.67252556788554 550.929828654077 9.45710665924348
    vertex 28.672525567885152 550.429828654077 9.45710665924348
  endloop
endfacet
facet normal -0.7071067811861244 5.508458833646396e-13 -0.7071067811869707
  outer loop
    vertex 28.67252556788554 550.929828654077 9.45710665924348
    vertex 28.172525567884097 549.4298286540774 9.95710665924318
    vertex 26.879632349071 550.9298286540784 11.249999878055858
  endloop
endfacet
facet normal -0.7071067811861244 5.508458833646396e-13 -0.7071067811869707
  outer loop
    vertex 26.879632349071 550.9298286540784 11.249999878055858
    vertex 28.172525567884097 549.4298286540774 9.95710665924318
    vertex 26.87963234906925 548.6798286540784 11.249999878055892
  endloop
endfacet
facet normal -0.7071067811861229 5.500837340988239e-13 -0.7071067811869721
  outer loop
    vertex 27.67252556788642 549.0548286540777 5.457106659242903
    vertex 28.172525567887075 549.4298286540774 4.957106659243203
    vertex 28.672525567886765 548.6798286540771 4.457106659243479
  endloop
endfacet
facet normal -0.7071067811861229 5.500837340988239e-13 -0.7071067811869721
  outer loop
    vertex 28.172525567887075 549.4298286540774 4.957106659243203
    vertex 28.672525567888517 550.929828654077 4.457106659243479
    vertex 28.67252556788813 550.429828654077 4.457106659243479
  endloop
endfacet
facet normal -0.7071067811861229 5.500837340988239e-13 -0.7071067811869721
  outer loop
    vertex 28.672525567888517 550.929828654077 4.457106659243479
    vertex 28.172525567887075 549.4298286540774 4.957106659243203
    vertex 27.672525567887877 550.9298286540778 5.45710665924287
  endloop
endfacet
facet normal -0.7071067811861229 5.500837340988239e-13 -0.7071067811869721
  outer loop
    vertex 27.672525567887877 550.9298286540778 5.45710665924287
    vertex 28.172525567887075 549.4298286540774 4.957106659243203
    vertex 27.67252556788642 549.0548286540777 5.457106659242903
  endloop
endfacet
facet normal -0.8320502943382744 -0.554700196224583 -4.952640063304753e-13
  outer loop
    vertex 28.172525567884097 549.4298286540774 9.95710665924318
    vertex 28.672525567884634 548.6798286540771 8.042893096870394
    vertex 28.67252556788379 548.6798286540771 9.45710665924348
  endloop
endfacet
facet normal -0.8320502943382744 -0.554700196224583 -4.952640063304753e-13
  outer loop
    vertex 28.672525567884634 548.6798286540771 8.042893096870394
    vertex 28.172525567884097 549.4298286540774 9.95710665924318
    vertex 28.172525567885536 549.4298286540774 7.542893096870096
  endloop
endfacet
facet normal -1.0 7.778700886353864e-13 -5.953293505068891e-13
  outer loop
    vertex 28.67252556788554 550.929828654077 9.45710665924348
    vertex 28.67252556788599 550.429828654077 8.04289309687036
    vertex 28.672525567885152 550.429828654077 9.45710665924348
  endloop
endfacet
facet normal -1.0 7.778700886353864e-13 -5.953293505068891e-13
  outer loop
    vertex 28.67252556788599 550.429828654077 8.04289309687036
    vertex 28.67252556788554 550.929828654077 9.45710665924348
    vertex 28.67252556788638 550.929828654077 8.04289309687036
  endloop
endfacet
facet normal -0.7071067811869602 5.456156529981071e-13 0.7071067811861348
  outer loop
    vertex 17.172525567886847 552.9298286540861 9.871320221609755
    vertex 18.551205224323134 548.6798286540849 11.249999878050943
    vertex 18.551205224326438 552.9298286540849 11.249999878050932
  endloop
endfacet
facet normal -0.7071067811869602 5.456156529981071e-13 0.7071067811861348
  outer loop
    vertex 18.551205224323134 548.6798286540849 11.249999878050943
    vertex 17.172525567886847 552.9298286540861 9.871320221609755
    vertex 17.17252556788354 548.679828654086 9.871320221609755
  endloop
endfacet
facet normal -1.0 7.778700886353864e-13 -5.953293505068891e-13
  outer loop
    vertex 27.672525567886936 550.9298286540778 7.042893096869766
    vertex 27.67252556788642 549.0548286540777 5.457106659242903
    vertex 27.672525567885476 549.0548286540777 7.0428930968698
  endloop
endfacet
facet normal -1.0 7.778700886353864e-13 -5.953293505068891e-13
  outer loop
    vertex 27.67252556788642 549.0548286540777 5.457106659242903
    vertex 27.672525567886936 550.9298286540778 7.042893096869766
    vertex 27.672525567887877 550.9298286540778 5.45710665924287
  endloop
endfacet
facet normal -7.861431906845285e-13 -1.0 -5.856749454406925e-17
  outer loop
    vertex 28.67252556788379 548.6798286540771 9.45710665924348
    vertex 28.29384591144235 548.6798286540773 11.249999878056702
    vertex 26.87963234906925 548.6798286540784 11.249999878055892
  endloop
endfacet
facet normal -7.861431906845285e-13 -1.0 -5.856749454406925e-17
  outer loop
    vertex 28.29384591144235 548.6798286540773 11.249999878056702
    vertex 28.67252556788379 548.6798286540771 9.45710665924348
    vertex 29.672525567883586 548.6798286540762 9.871320221617177
  endloop
endfacet
facet normal -7.861431906845285e-13 -1.0 -5.856749454406925e-17
  outer loop
    vertex 29.672525567883586 548.6798286540762 9.871320221617177
    vertex 28.67252556788379 548.6798286540771 9.45710665924348
    vertex 29.67252556788863 548.6798286540762 1.2499998780574955
  endloop
endfacet
facet normal -7.861431906845285e-13 -1.0 -5.856749454406925e-17
  outer loop
    vertex 29.67252556788863 548.6798286540762 1.2499998780574955
    vertex 28.67252556788379 548.6798286540771 9.45710665924348
    vertex 28.672525567884634 548.6798286540771 8.042893096870394
  endloop
endfacet
facet normal -7.861431906845285e-13 -1.0 -5.856749454406925e-17
  outer loop
    vertex 29.67252556788863 548.6798286540762 1.2499998780574955
    vertex 28.672525567884634 548.6798286540771 8.042893096870394
    vertex 28.672525567886765 548.6798286540771 4.457106659243479
  endloop
endfacet
facet normal -7.861431906845285e-13 -1.0 -5.856749454406925e-17
  outer loop
    vertex 29.67252556788863 548.6798286540762 1.2499998780574955
    vertex 28.672525567886765 548.6798286540771 4.457106659243479
    vertex 28.672525567888677 548.6798286540771 1.2499998780569006
  endloop
endfacet
facet normal -7.778700886353869e-13 -1.0 8.312366548349758e-16
  outer loop
    vertex 18.17252556788558 550.9298286540852 9.457106659237272
    vertex 26.879632349071 550.9298286540784 11.249999878055858
    vertex 19.96541878669789 550.9298286540838 11.249999878051785
  endloop
endfacet
facet normal -7.778700886353869e-13 -1.0 8.312366548349758e-16
  outer loop
    vertex 26.879632349071 550.9298286540784 11.249999878055858
    vertex 18.17252556788558 550.9298286540852 9.457106659237272
    vertex 28.67252556788554 550.929828654077 9.45710665924348
  endloop
endfacet
facet normal -7.778700886353869e-13 -1.0 8.312366548349758e-16
  outer loop
    vertex 28.67252556788554 550.929828654077 9.45710665924348
    vertex 18.17252556788558 550.9298286540852 9.457106659237272
    vertex 18.172525567886332 550.9298286540852 8.04289309686415
  endloop
endfacet
facet normal -7.778700886353869e-13 -1.0 8.312366548349758e-16
  outer loop
    vertex 28.67252556788554 550.929828654077 9.45710665924348
    vertex 18.172525567886332 550.9298286540852 8.04289309686415
    vertex 28.67252556788638 550.929828654077 8.04289309687036
  endloop
endfacet
facet normal -7.778700886353869e-13 -1.0 8.312366548349758e-16
  outer loop
    vertex 28.67252556788638 550.929828654077 8.04289309687036
    vertex 18.172525567886332 550.9298286540852 8.04289309686415
    vertex 19.17252556788697 550.9298286540844 7.042893096864748
  endloop
endfacet
facet normal -7.778700886353869e-13 -1.0 8.312366548349758e-16
  outer loop
    vertex 28.67252556788638 550.929828654077 8.04289309687036
    vertex 19.17252556788697 550.9298286540844 7.042893096864748
    vertex 27.672525567886936 550.9298286540778 7.042893096869766
  endloop
endfacet
facet normal -7.778700886353869e-13 -1.0 8.312366548349758e-16
  outer loop
    vertex 27.672525567886936 550.9298286540778 7.042893096869766
    vertex 19.17252556788697 550.9298286540844 7.042893096864748
    vertex 19.172525567887917 550.9298286540844 5.457106659237852
  endloop
endfacet
facet normal -7.778700886353869e-13 -1.0 8.312366548349758e-16
  outer loop
    vertex 27.672525567886936 550.9298286540778 7.042893096869766
    vertex 19.172525567887917 550.9298286540844 5.457106659237852
    vertex 27.672525567887877 550.9298286540778 5.45710665924287
  endloop
endfacet
facet normal -7.778700886353869e-13 -1.0 8.312366548349758e-16
  outer loop
    vertex 27.672525567887877 550.9298286540778 5.45710665924287
    vertex 19.172525567887917 550.9298286540844 5.457106659237852
    vertex 18.17252556788847 550.9298286540852 4.457106659237281
  endloop
endfacet
facet normal -7.778700886353869e-13 -1.0 8.312366548349758e-16
  outer loop
    vertex 27.672525567887877 550.9298286540778 5.45710665924287
    vertex 18.17252556788847 550.9298286540852 4.457106659237281
    vertex 28.672525567888517 550.929828654077 4.457106659243479
  endloop
endfacet
facet normal -7.778700886353869e-13 -1.0 8.312366548349758e-16
  outer loop
    vertex 28.672525567888517 550.929828654077 4.457106659243479
    vertex 18.17252556788847 550.9298286540852 4.457106659237281
    vertex 18.172525567890467 550.9298286540852 1.2499998780507473
  endloop
endfacet
facet normal -7.778700886353869e-13 -1.0 8.312366548349758e-16
  outer loop
    vertex 28.672525567888517 550.929828654077 4.457106659243479
    vertex 18.172525567890467 550.9298286540852 1.2499998780507473
    vertex 28.672525567890425 550.929828654077 1.2499998780569006
  endloop
endfacet
facet normal -0.35112344158911407 -0.9363291775687737 -2.0828561672484538e-13
  outer loop
    vertex 27.672525567885476 549.0548286540777 7.0428930968698
    vertex 28.672525567886765 548.6798286540771 4.457106659243479
    vertex 28.672525567884634 548.6798286540771 8.042893096870394
  endloop
endfacet
facet normal -0.35112344158911407 -0.9363291775687737 -2.0828561672484538e-13
  outer loop
    vertex 28.672525567886765 548.6798286540771 4.457106659243479
    vertex 27.672525567885476 549.0548286540777 7.0428930968698
    vertex 27.67252556788642 549.0548286540777 5.457106659242903
  endloop
endfacet
facet normal -1.0 7.668071432038524e-13 -5.953293505068891e-13
  outer loop
    vertex 17.172525567886847 552.9298286540861 9.871320221609755
    vertex 17.172525567888673 548.679828654086 1.2499998780500834
    vertex 17.17252556788354 548.679828654086 9.871320221609755
  endloop
endfacet
facet normal -1.0 7.668071432038524e-13 -5.953293505068891e-13
  outer loop
    vertex 17.172525567888673 548.679828654086 1.2499998780500834
    vertex 17.172525567886847 552.9298286540861 9.871320221609755
    vertex 17.17252556789198 552.9298286540861 1.2499998780500834
  endloop
endfacet
facet normal -0.8944271909995724 0.4472135955006451 -5.328948959938637e-13
  outer loop
    vertex 28.67252556788813 550.429828654077 4.457106659243479
    vertex 28.172525567889288 549.4298286540774 1.2499998780566073
    vertex 28.172525567887075 549.4298286540774 4.957106659243203
  endloop
endfacet
facet normal -0.8944271909995724 0.4472135955006451 -5.328948959938637e-13
  outer loop
    vertex 28.172525567889288 549.4298286540774 1.2499998780566073
    vertex 28.67252556788813 550.429828654077 4.457106659243479
    vertex 28.672525567890034 550.429828654077 1.2499998780569006
  endloop
endfacet
facet normal -1.0 7.788334833608875e-13 -5.973995331648231e-13
  outer loop
    vertex 23.472572126549295 552.929828654081 11.249999878053762
    vertex 23.472572126552812 554.3559030968114 7.207630344933102
    vertex 23.472572126555253 552.929828654081 1.249999878053848
  endloop
endfacet
facet normal -1.0 7.788334833608875e-13 -5.973995331648231e-13
  outer loop
    vertex 23.472572126552812 554.3559030968114 7.207630344933102
    vertex 23.472572126549295 552.929828654081 11.249999878053762
    vertex 23.472572126552567 554.7255346600786 8.09999987805378
  endloop
endfacet
facet normal -1.0 7.788334833608875e-13 -5.973995331648231e-13
  outer loop
    vertex 23.472572126552567 554.7255346600786 8.09999987805378
    vertex 23.472572126549295 552.929828654081 11.249999878053762
    vertex 23.47257212655257 555.3135335636908 8.866294968444008
  endloop
endfacet
facet normal -1.0 7.788334833608875e-13 -5.973995331648231e-13
  outer loop
    vertex 23.47257212655257 555.3135335636908 8.866294968444008
    vertex 23.472572126549295 552.929828654081 11.249999878053762
    vertex 23.472572126553185 557.929828654081 11.249999878053762
  endloop
endfacet
facet normal -1.0 7.788334833608875e-13 -5.973995331648231e-13
  outer loop
    vertex 23.472572126555253 552.929828654081 1.249999878053848
    vertex 23.472572126552812 554.3559030968114 7.207630344933102
    vertex 23.472572126553285 554.229828654081 6.249999878053771
  endloop
endfacet
facet normal -1.0 7.788334833608875e-13 -5.973995331648231e-13
  outer loop
    vertex 23.47257212655257 555.3135335636908 8.866294968444008
    vertex 23.472572126553185 557.929828654081 11.249999878053762
    vertex 23.472572126552816 556.079828654081 9.454293872056203
  endloop
endfacet
facet normal -1.0 7.788334833608875e-13 -5.973995331648231e-13
  outer loop
    vertex 23.472572126552816 556.079828654081 9.454293872056203
    vertex 23.472572126553185 557.929828654081 11.249999878053762
    vertex 23.47257212655329 556.9721981872017 9.823925435323316
  endloop
endfacet
facet normal -1.0 7.788334833608875e-13 -5.973995331648231e-13
  outer loop
    vertex 23.47257212655329 556.9721981872017 9.823925435323316
    vertex 23.472572126553185 557.929828654081 11.249999878053762
    vertex 23.472572126553956 557.929828654081 9.949999878053765
  endloop
endfacet
facet normal -1.0 7.788334833608875e-13 -5.973995331648231e-13
  outer loop
    vertex 23.472572126553956 557.929828654081 9.949999878053765
    vertex 23.472572126553185 557.929828654081 11.249999878053762
    vertex 23.472572126554294 559.2239238795936 11.07962900949912
  endloop
endfacet
facet normal -1.0 7.788334833608875e-13 -5.973995331648231e-13
  outer loop
    vertex 23.472572126553956 557.929828654081 9.949999878053765
    vertex 23.472572126554294 559.2239238795936 11.07962900949912
    vertex 23.472572126554777 558.8874591209603 9.823925435323316
  endloop
endfacet
facet normal -1.0 7.788334833608875e-13 -5.973995331648231e-13
  outer loop
    vertex 23.472572126554777 558.8874591209603 9.823925435323316
    vertex 23.472572126554294 559.2239238795936 11.07962900949912
    vertex 23.472572126555693 559.779828654081 9.45429387205618
  endloop
endfacet
facet normal -1.0 7.788334833608875e-13 -5.973995331648231e-13
  outer loop
    vertex 23.472572126555693 559.779828654081 9.45429387205618
    vertex 23.472572126554294 559.2239238795936 11.07962900949912
    vertex 23.47257212655553 560.429828654081 10.580126896975939
  endloop
endfacet
facet normal -1.0 7.788334833608875e-13 -5.973995331648231e-13
  outer loop
    vertex 23.472572126555693 559.779828654081 9.45429387205618
    vertex 23.47257212655553 560.429828654081 10.580126896975939
    vertex 23.47257212655664 560.5461237444713 8.866294968443986
  endloop
endfacet
facet normal -1.0 7.788334833608875e-13 -5.973995331648231e-13
  outer loop
    vertex 23.47257212655664 560.5461237444713 8.866294968443986
    vertex 23.47257212655553 560.429828654081 10.580126896975939
    vertex 23.472572126556805 561.4653625600138 9.785533783986494
  endloop
endfacet
facet normal -1.0 7.788334833608875e-13 -5.973995331648231e-13
  outer loop
    vertex 23.47257212655664 560.5461237444713 8.866294968443986
    vertex 23.472572126556805 561.4653625600138 9.785533783986494
    vertex 23.472572126557555 561.1341226480835 8.099999878053756
  endloop
endfacet
facet normal -1.0 7.788334833608875e-13 -5.973995331648231e-13
  outer loop
    vertex 23.472572126557555 561.1341226480835 8.099999878053756
    vertex 23.472572126556805 561.4653625600138 9.785533783986494
    vertex 23.472572126558376 561.5037542113506 7.207630344933079
  endloop
endfacet
facet normal -1.0 7.788334833608875e-13 -5.973995331648231e-13
  outer loop
    vertex 23.472572126558376 561.5037542113506 7.207630344933079
    vertex 23.472572126556805 561.4653625600138 9.785533783986494
    vertex 23.472572126558042 562.2599556730032 8.749999878053744
  endloop
endfacet
facet normal -1.0 7.788334833608875e-13 -5.973995331648231e-13
  outer loop
    vertex 23.472572126558376 561.5037542113506 7.207630344933079
    vertex 23.472572126558042 562.2599556730032 8.749999878053744
    vertex 23.47257212655904 561.629828654081 6.249999878053749
  endloop
endfacet
facet normal -1.0 7.788334833608875e-13 -5.973995331648231e-13
  outer loop
    vertex 23.47257212655904 561.629828654081 6.249999878053749
    vertex 23.472572126558042 562.2599556730032 8.749999878053744
    vertex 23.472572126562216 561.7664635939757 1.2499998780539043
  endloop
endfacet
facet normal -1.0 7.788334833608875e-13 -5.973995331648231e-13
  outer loop
    vertex 23.472572126562216 561.7664635939757 1.2499998780539043
    vertex 23.472572126558042 562.2599556730032 8.749999878053744
    vertex 23.472572126560873 562.7594577855263 4.955904652541247
  endloop
endfacet
facet normal -1.0 7.788334833608875e-13 -5.973995331648231e-13
  outer loop
    vertex 23.472572126560873 562.7594577855263 4.955904652541247
    vertex 23.472572126558042 562.2599556730032 8.749999878053744
    vertex 23.47257212655915 562.7594577855264 7.5440951035663515
  endloop
endfacet
facet normal -1.0 7.788334833608875e-13 -5.973995331648231e-13
  outer loop
    vertex 23.472572126560873 562.7594577855263 4.955904652541247
    vertex 23.47257212655915 562.7594577855264 7.5440951035663515
    vertex 23.472572126560053 562.929828654081 6.249999878053749
  endloop
endfacet
facet normal -1.0 7.788334833608875e-13 -5.973995331648231e-13
  outer loop
    vertex 23.472572126555253 552.929828654081 1.249999878053848
    vertex 23.472572126557548 556.9721981872017 2.6760743207843163
    vertex 23.472572126562216 561.7664635939757 1.2499998780539043
  endloop
endfacet
facet normal -1.0 7.788334833608875e-13 -5.973995331648231e-13
  outer loop
    vertex 23.472572126557548 556.9721981872017 2.6760743207843163
    vertex 23.472572126555253 552.929828654081 1.249999878053848
    vertex 23.47257212655663 556.079828654081 3.04570588405134
  endloop
endfacet
facet normal -1.0 7.788334833608875e-13 -5.973995331648231e-13
  outer loop
    vertex 23.47257212655663 556.079828654081 3.04570588405134
    vertex 23.472572126555253 552.929828654081 1.249999878053848
    vertex 23.472572126555686 555.3135335636908 3.633704787663557
  endloop
endfacet
facet normal -1.0 7.788334833608875e-13 -5.973995331648231e-13
  outer loop
    vertex 23.472572126555686 555.3135335636908 3.633704787663557
    vertex 23.472572126555253 552.929828654081 1.249999878053848
    vertex 23.47257212655477 554.7255346600786 4.3999998780537855
  endloop
endfacet
facet normal -1.0 7.788334833608875e-13 -5.973995331648231e-13
  outer loop
    vertex 23.47257212655477 554.7255346600786 4.3999998780537855
    vertex 23.472572126555253 552.929828654081 1.249999878053848
    vertex 23.472572126553953 554.3559030968114 5.29236941117444
  endloop
endfacet
facet normal -1.0 7.788334833608875e-13 -5.973995331648231e-13
  outer loop
    vertex 23.472572126553953 554.3559030968114 5.29236941117444
    vertex 23.472572126555253 552.929828654081 1.249999878053848
    vertex 23.472572126553285 554.229828654081 6.249999878053771
  endloop
endfacet
facet normal -1.0 7.788334833608875e-13 -5.973995331648231e-13
  outer loop
    vertex 23.472572126562216 561.7664635939757 1.2499998780539043
    vertex 23.472572126557548 556.9721981872017 2.6760743207843163
    vertex 23.472572126558365 557.929828654081 2.549999878053857
  endloop
endfacet
facet normal -1.0 7.788334833608875e-13 -5.973995331648231e-13
  outer loop
    vertex 23.472572126562216 561.7664635939757 1.2499998780539043
    vertex 23.472572126558365 557.929828654081 2.549999878053857
    vertex 23.472572126559037 558.8874591209603 2.6760743207843047
  endloop
endfacet
facet normal -1.0 7.788334833608875e-13 -5.973995331648231e-13
  outer loop
    vertex 23.472572126562216 561.7664635939757 1.2499998780539043
    vertex 23.472572126559037 558.8874591209603 2.6760743207843047
    vertex 23.47257212655951 559.779828654081 3.04570588405134
  endloop
endfacet
facet normal -1.0 7.788334833608875e-13 -5.973995331648231e-13
  outer loop
    vertex 23.472572126562216 561.7664635939757 1.2499998780539043
    vertex 23.47257212655951 559.779828654081 3.04570588405134
    vertex 23.472572126559754 560.5461237444713 3.633704787663534
  endloop
endfacet
facet normal -1.0 7.788334833608875e-13 -5.973995331648231e-13
  outer loop
    vertex 23.472572126562216 561.7664635939757 1.2499998780539043
    vertex 23.472572126559754 560.5461237444713 3.633704787663534
    vertex 23.472572126559754 561.1341226480835 4.399999878053763
  endloop
endfacet
facet normal -1.0 7.788334833608875e-13 -5.973995331648231e-13
  outer loop
    vertex 23.472572126562216 561.7664635939757 1.2499998780539043
    vertex 23.472572126559754 561.1341226480835 4.399999878053763
    vertex 23.472572126559513 561.5037542113506 5.292369411174418
  endloop
endfacet
facet normal -1.0 7.788334833608875e-13 -5.973995331648231e-13
  outer loop
    vertex 23.472572126562216 561.7664635939757 1.2499998780539043
    vertex 23.472572126559513 561.5037542113506 5.292369411174418
    vertex 23.47257212655904 561.629828654081 6.249999878053749
  endloop
endfacet
facet normal 1.0 -7.914678230026173e-13 5.891743880437235e-13
  outer loop
    vertex 29.672525567891245 551.9298286540762 1.2499998780574955
    vertex 29.672525567883586 548.6798286540762 9.871320221617177
    vertex 29.67252556788863 548.6798286540762 1.2499998780574955
  endloop
endfacet
facet normal 1.0 -7.914678230026173e-13 5.891743880437235e-13
  outer loop
    vertex 29.672525567883586 548.6798286540762 9.871320221617177
    vertex 29.672525567891245 551.9298286540762 1.2499998780574955
    vertex 29.672525567886115 551.9298286540762 9.871320221617188
  endloop
endfacet
facet normal 1.0 -7.914678230026173e-13 5.891743880437235e-13
  outer loop
    vertex 29.672525567886115 551.9298286540762 9.871320221617188
    vertex 29.672525567891245 551.9298286540762 1.2499998780574955
    vertex 29.67252556788827 551.9298286540762 6.249999878057486
  endloop
endfacet
facet normal 0.7071067811861083 -5.509518370253954e-13 0.7071067811869869
  outer loop
    vertex 28.293845911445583 552.8306972039436 11.249999878056702
    vertex 29.672525567883586 548.6798286540762 9.871320221617177
    vertex 29.672525567886115 551.9298286540762 9.871320221617188
  endloop
endfacet
facet normal 0.7071067811861083 -5.509518370253954e-13 0.7071067811869869
  outer loop
    vertex 29.672525567883586 548.6798286540762 9.871320221617177
    vertex 28.293845911445583 552.8306972039436 11.249999878056702
    vertex 28.29384591144235 548.6798286540773 11.249999878056702
  endloop
endfacet
facet normal 6.929799879409241e-13 0.9914448613738098 0.1305261922200561
  outer loop
    vertex 25.472572126560053 562.9298286540794 6.249999878054963
    vertex 23.47257212655915 562.7594577855264 7.5440951035663515
    vertex 25.47257212655915 562.7594577855248 7.544095103567565
  endloop
endfacet
facet normal 6.929799879409241e-13 0.9914448613738098 0.1305261922200561
  outer loop
    vertex 23.47257212655915 562.7594577855264 7.5440951035663515
    vertex 25.472572126560053 562.9298286540794 6.249999878054963
    vertex 23.472572126560053 562.929828654081 6.249999878053749
  endloop
endfacet
facet normal -9.969346347982206e-13 -0.793353340291249 0.6087614290087026
  outer loop
    vertex 23.472572126559754 560.5461237444713 3.633704787663534
    vertex 25.47257212655975 561.1341226480819 4.399999878054954
    vertex 23.472572126559754 561.1341226480835 4.399999878053763
  endloop
endfacet
facet normal -9.969346347982206e-13 -0.793353340291249 0.6087614290087026
  outer loop
    vertex 25.47257212655975 561.1341226480819 4.399999878054954
    vertex 23.472572126559754 560.5461237444713 3.633704787663534
    vertex 25.47257212655975 560.5461237444697 3.6337047876647257
  endloop
endfacet
facet normal -8.364219191884084e-13 -0.3826834323650431 0.9238795325113063
  outer loop
    vertex 23.47257212655951 559.779828654081 3.04570588405134
    vertex 25.472572126559037 558.8874591209589 2.6760743207854514
    vertex 25.47257212655951 559.7798286540794 3.0457058840525315
  endloop
endfacet
facet normal -8.364219191884084e-13 -0.3826834323650431 0.9238795325113063
  outer loop
    vertex 25.472572126559037 558.8874591209589 2.6760743207854514
    vertex 23.47257212655951 559.779828654081 3.04570588405134
    vertex 23.472572126559037 558.8874591209603 2.6760743207843047
  endloop
endfacet
facet normal 2.4101027667393134e-13 -0.38268343236510266 -0.9238795325112814
  outer loop
    vertex 23.472572126554777 558.8874591209603 9.823925435323316
    vertex 25.47257212655569 559.7798286540794 9.454293872057372
    vertex 25.472572126554777 558.8874591209589 9.823925435324508
  endloop
endfacet
facet normal 2.4101027667393134e-13 -0.38268343236510266 -0.9238795325112814
  outer loop
    vertex 25.47257212655569 559.7798286540794 9.454293872057372
    vertex 23.472572126554777 558.8874591209603 9.823925435323316
    vertex 23.472572126555693 559.779828654081 9.45429387205618
  endloop
endfacet
facet normal 4.891188097233772e-13 0.9238795325112835 0.3826834323650976
  outer loop
    vertex 25.47257212655915 562.7594577855248 7.544095103567565
    vertex 23.472572126558042 562.2599556730032 8.749999878053744
    vertex 25.47257212655804 562.2599556730016 8.749999878054957
  endloop
endfacet
facet normal 4.891188097233772e-13 0.9238795325112835 0.3826834323650976
  outer loop
    vertex 23.472572126558042 562.2599556730032 8.749999878053744
    vertex 25.47257212655915 562.7594577855248 7.544095103567565
    vertex 23.47257212655915 562.7594577855264 7.5440951035663515
  endloop
endfacet
facet normal 8.364299971738566e-13 0.3826834323650829 -0.9238795325112897
  outer loop
    vertex 23.472572126552816 556.079828654081 9.454293872056203
    vertex 25.472572126553285 556.9721981872002 9.823925435324508
    vertex 25.47257212655281 556.0798286540795 9.454293872057393
  endloop
endfacet
facet normal 8.364299971738566e-13 0.3826834323650829 -0.9238795325112897
  outer loop
    vertex 25.472572126553285 556.9721981872002 9.823925435324508
    vertex 23.472572126552816 556.079828654081 9.454293872056203
    vertex 23.47257212655329 556.9721981872017 9.823925435323316
  endloop
endfacet
facet normal -6.937149607215778e-13 -0.9914448613738105 -0.13052619222005177
  outer loop
    vertex 23.472572126558376 561.5037542113506 7.207630344933079
    vertex 25.472572126559037 561.6298286540795 6.249999878054963
    vertex 25.47257212655837 561.503754211349 7.2076303449342936
  endloop
endfacet
facet normal -6.937149607215778e-13 -0.9914448613738105 -0.13052619222005177
  outer loop
    vertex 25.472572126559037 561.6298286540795 6.249999878054963
    vertex 23.472572126558376 561.5037542113506 7.207630344933079
    vertex 23.47257212655904 561.629828654081 6.249999878053749
  endloop
endfacet
facet normal 9.361905287576446e-13 0.6087614290087285 -0.7933533402912293
  outer loop
    vertex 23.47257212655257 555.3135335636908 8.866294968444008
    vertex 25.47257212655281 556.0798286540795 9.454293872057393
    vertex 25.472572126552567 555.3135335636892 8.8662949684452
  endloop
endfacet
facet normal 9.361905287576446e-13 0.6087614290087285 -0.7933533402912293
  outer loop
    vertex 25.47257212655281 556.0798286540795 9.454293872057393
    vertex 23.47257212655257 555.3135335636908 8.866294968444008
    vertex 23.472572126552816 556.079828654081 9.454293872056203
  endloop
endfacet
facet normal -9.588784949754394e-13 -0.6087614290087059 0.7933533402912466
  outer loop
    vertex 23.472572126559754 560.5461237444713 3.633704787663534
    vertex 25.47257212655951 559.7798286540794 3.0457058840525315
    vertex 25.47257212655975 560.5461237444697 3.6337047876647257
  endloop
endfacet
facet normal -9.588784949754394e-13 -0.6087614290087059 0.7933533402912466
  outer loop
    vertex 25.47257212655951 559.7798286540794 3.0457058840525315
    vertex 23.472572126559754 560.5461237444713 3.633704787663534
    vertex 23.47257212655951 559.779828654081 3.04570588405134
  endloop
endfacet
facet normal -2.397097210202904e-13 0.38268343236503544 0.9238795325113093
  outer loop
    vertex 23.472572126557548 556.9721981872017 2.6760743207843163
    vertex 25.472572126556628 556.0798286540795 3.0457058840525315
    vertex 25.47257212655754 556.9721981872002 2.6760743207854567
  endloop
endfacet
facet normal -2.397097210202904e-13 0.38268343236503544 0.9238795325113093
  outer loop
    vertex 25.472572126556628 556.0798286540795 3.0457058840525315
    vertex 23.472572126557548 556.9721981872017 2.6760743207843163
    vertex 23.47257212655663 556.079828654081 3.04570588405134
  endloop
endfacet
facet normal 4.933928910988059e-13 0.923879532511275 0.3826834323651187
  outer loop
    vertex 25.472572126554653 554.674197839864 4.523937925662662
    vertex 23.472572126553953 554.3559030968114 5.29236941117444
    vertex 25.47257212655395 554.3559030968099 5.292369411175654
  endloop
endfacet
facet normal 4.933928910988059e-13 0.923879532511275 0.3826834323651187
  outer loop
    vertex 23.472572126553953 554.3559030968114 5.29236941117444
    vertex 25.472572126554653 554.674197839864 4.523937925662662
    vertex 23.47257212655477 554.7255346600786 4.3999998780537855
  endloop
endfacet
facet normal 4.933928910988059e-13 0.923879532511275 0.3826834323651187
  outer loop
    vertex 23.47257212655477 554.7255346600786 4.3999998780537855
    vertex 25.472572126554653 554.674197839864 4.523937925662662
    vertex 25.472572126554766 554.7255346600771 4.399999878054954
  endloop
endfacet
facet normal 2.622298079498054e-13 0.7933533402912266 0.6087614290087319
  outer loop
    vertex 25.472572126554766 554.7255346600771 4.399999878054954
    vertex 23.472572126555686 555.3135335636908 3.633704787663557
    vertex 23.47257212655477 554.7255346600786 4.3999998780537855
  endloop
endfacet
facet normal 2.622298079498054e-13 0.7933533402912266 0.6087614290087319
  outer loop
    vertex 23.472572126555686 555.3135335636908 3.633704787663557
    vertex 25.472572126554766 554.7255346600771 4.399999878054954
    vertex 25.47257212655568 555.3135335636892 3.6337047876647257
  endloop
endfacet
facet normal -4.912736408849122e-13 -0.9238795325112765 -0.38268343236511443
  outer loop
    vertex 23.472572126557555 561.1341226480835 8.099999878053756
    vertex 25.47257212655837 561.503754211349 7.2076303449342936
    vertex 25.472572126557548 561.1341226480819 8.09999987805497
  endloop
endfacet
facet normal -4.912736408849122e-13 -0.9238795325112765 -0.38268343236511443
  outer loop
    vertex 25.47257212655837 561.503754211349 7.2076303449342936
    vertex 23.472572126557555 561.1341226480835 8.099999878053756
    vertex 23.472572126558376 561.5037542113506 7.207630344933079
  endloop
endfacet
facet normal 7.901138341440434e-13 1.0 2.6645911319883e-15
  outer loop
    vertex 23.472572126549295 552.929828654081 11.249999878053762
    vertex 17.172525567886847 552.9298286540861 9.871320221609755
    vertex 18.551205224326438 552.9298286540849 11.249999878050932
  endloop
endfacet
facet normal 7.901138341440434e-13 1.0 2.6645911319883e-15
  outer loop
    vertex 17.172525567886847 552.9298286540861 9.871320221609755
    vertex 23.472572126549295 552.929828654081 11.249999878053762
    vertex 23.472572126555253 552.929828654081 1.249999878053848
  endloop
endfacet
facet normal 7.901138341440434e-13 1.0 2.6645911319883e-15
  outer loop
    vertex 17.172525567886847 552.9298286540861 9.871320221609755
    vertex 23.472572126555253 552.929828654081 1.249999878053848
    vertex 17.17252556789198 552.9298286540861 1.2499998780500834
  endloop
endfacet
facet normal 2.5191434746020834e-13 0.7933533402912517 0.6087614290086992
  outer loop
    vertex 25.47257212655804 562.2599556730016 8.749999878054957
    vertex 23.472572126556805 561.4653625600138 9.785533783986494
    vertex 25.472572126556802 561.4653625600122 9.78553378398771
  endloop
endfacet
facet normal 2.5191434746020834e-13 0.7933533402912517 0.6087614290086992
  outer loop
    vertex 23.472572126556805 561.4653625600138 9.785533783986494
    vertex 25.47257212655804 562.2599556730016 8.749999878054957
    vertex 23.472572126558042 562.2599556730032 8.749999878053744
  endloop
endfacet
facet normal 9.721539781849856e-13 0.7933533402912266 -0.6087614290087319
  outer loop
    vertex 25.47257212655256 554.7255346600771 8.09999987805497
    vertex 23.47257212655257 555.3135335636908 8.866294968444008
    vertex 25.472572126552567 555.3135335636892 8.8662949684452
  endloop
endfacet
facet normal 9.721539781849856e-13 0.7933533402912266 -0.6087614290087319
  outer loop
    vertex 23.47257212655257 555.3135335636908 8.866294968444008
    vertex 25.47257212655256 554.7255346600771 8.09999987805497
    vertex 23.472572126552567 554.7255346600786 8.09999987805378
  endloop
endfacet
facet normal -9.483515548119178e-13 -0.923879532511275 0.38268343236511865
  outer loop
    vertex 23.472572126559513 561.5037542113506 5.292369411174418
    vertex 25.47257212655975 561.1341226480819 4.399999878054954
    vertex 25.47257212655951 561.503754211349 5.292369411175654
  endloop
endfacet
facet normal -9.483515548119178e-13 -0.923879532511275 0.38268343236511865
  outer loop
    vertex 25.47257212655975 561.1341226480819 4.399999878054954
    vertex 23.472572126559513 561.5037542113506 5.292369411174418
    vertex 23.472572126559754 561.1341226480835 4.399999878053763
  endloop
endfacet
facet normal -4.653919458897344e-13 0.13052619222005146 0.9914448613738105
  outer loop
    vertex 23.472572126558365 557.929828654081 2.549999878053857
    vertex 25.47257212655754 556.9721981872002 2.6760743207854567
    vertex 25.472572126558365 557.9298286540795 2.549999878055009
  endloop
endfacet
facet normal -4.653919458897344e-13 0.13052619222005146 0.9914448613738105
  outer loop
    vertex 25.47257212655754 556.9721981872002 2.6760743207854567
    vertex 23.472572126558365 557.929828654081 2.549999878053857
    vertex 23.472572126557548 556.9721981872017 2.6760743207843163
  endloop
endfacet
facet normal -2.7325651724356077e-13 -0.793353340291249 -0.6087614290087026
  outer loop
    vertex 23.47257212655664 560.5461237444713 8.866294968443986
    vertex 25.472572126557548 561.1341226480819 8.09999987805497
    vertex 25.472572126556635 560.5461237444697 8.8662949684452
  endloop
endfacet
facet normal -2.7325651724356077e-13 -0.793353340291249 -0.6087614290087026
  outer loop
    vertex 25.472572126557548 561.1341226480819 8.09999987805497
    vertex 23.47257212655664 560.5461237444713 8.866294968443986
    vertex 23.472572126557555 561.1341226480835 8.099999878053756
  endloop
endfacet
facet normal -2.46216669977309e-13 0.3826834323650976 0.9238795325112835
  outer loop
    vertex 23.47257212655553 560.429828654081 10.580126896975939
    vertex 25.472572126554198 559.2239238795921 11.07962900950029
    vertex 25.472572126555526 560.4298286540795 10.580126896977152
  endloop
endfacet
facet normal -2.46216669977309e-13 0.3826834323650976 0.9238795325112835
  outer loop
    vertex 25.472572126554198 559.2239238795921 11.07962900950029
    vertex 23.47257212655553 560.429828654081 10.580126896975939
    vertex 23.472572126554294 559.2239238795936 11.07962900949912
  endloop
endfacet
facet normal -2.02369969657281e-14 -0.6087614290086987 -0.7933533402912523
  outer loop
    vertex 23.472572126555693 559.779828654081 9.45429387205618
    vertex 25.472572126556635 560.5461237444697 8.8662949684452
    vertex 25.47257212655569 559.7798286540794 9.454293872057372
  endloop
endfacet
facet normal -2.02369969657281e-14 -0.6087614290086987 -0.7933533402912523
  outer loop
    vertex 25.472572126556635 560.5461237444697 8.8662949684452
    vertex 23.472572126555693 559.779828654081 9.45429387205618
    vertex 23.47257212655664 560.5461237444713 8.866294968443986
  endloop
endfacet
facet normal 8.474062417935945e-13 0.9914448613738105 -0.13052619222005182
  outer loop
    vertex 25.472572126553285 554.2298286540795 6.249999878054963
    vertex 23.472572126552812 554.3559030968114 7.207630344933102
    vertex 25.47257212655281 554.3559030968099 7.2076303449342936
  endloop
endfacet
facet normal 8.474062417935945e-13 0.9914448613738105 -0.13052619222005182
  outer loop
    vertex 23.472572126552812 554.3559030968114 7.207630344933102
    vertex 25.472572126553285 554.2298286540795 6.249999878054963
    vertex 23.472572126553285 554.229828654081 6.249999878053771
  endloop
endfacet
facet normal -2.450969252049365e-15 0.6087614290087184 0.7933533402912369
  outer loop
    vertex 23.472572126556805 561.4653625600138 9.785533783986494
    vertex 25.472572126555526 560.4298286540795 10.580126896977152
    vertex 25.472572126556802 561.4653625600122 9.78553378398771
  endloop
endfacet
facet normal -2.450969252049365e-15 0.6087614290087184 0.7933533402912369
  outer loop
    vertex 25.472572126555526 560.4298286540795 10.580126896977152
    vertex 23.472572126556805 561.4653625600138 9.785533783986494
    vertex 23.47257212655553 560.429828654081 10.580126896975939
  endloop
endfacet
facet normal 6.796612068252569e-13 0.1305261922200457 -0.9914448613738112
  outer loop
    vertex 23.47257212655329 556.9721981872017 9.823925435323316
    vertex 25.472572126553953 557.9298286540795 9.949999878054955
    vertex 25.472572126553285 556.9721981872002 9.823925435324508
  endloop
endfacet
facet normal 6.796612068252569e-13 0.1305261922200457 -0.9914448613738112
  outer loop
    vertex 25.472572126553953 557.9298286540795 9.949999878054955
    vertex 23.47257212655329 556.9721981872017 9.823925435323316
    vertex 23.472572126553956 557.929828654081 9.949999878053765
  endloop
endfacet
facet normal 4.765746284247658e-13 -0.13052619222005782 -0.9914448613738096
  outer loop
    vertex 23.472572126553956 557.929828654081 9.949999878053765
    vertex 25.472572126554777 558.8874591209589 9.823925435324508
    vertex 25.472572126553953 557.9298286540795 9.949999878054955
  endloop
endfacet
facet normal 4.765746284247658e-13 -0.13052619222005782 -0.9914448613738096
  outer loop
    vertex 25.472572126554777 558.8874591209589 9.823925435324508
    vertex 23.472572126553956 557.929828654081 9.949999878053765
    vertex 23.472572126554777 558.8874591209603 9.823925435323316
  endloop
endfacet
facet normal 9.416029731867155e-13 0.9238795325112765 -0.38268343236511476
  outer loop
    vertex 25.4725721265526 554.674197839864 7.9760618304472635
    vertex 23.472572126552567 554.7255346600786 8.09999987805378
    vertex 25.47257212655256 554.7255346600771 8.09999987805497
  endloop
endfacet
facet normal 9.416029731867155e-13 0.9238795325112765 -0.38268343236511476
  outer loop
    vertex 23.472572126552567 554.7255346600786 8.09999987805378
    vertex 25.4725721265526 554.674197839864 7.9760618304472635
    vertex 23.472572126552812 554.3559030968114 7.207630344933102
  endloop
endfacet
facet normal 9.416029731867155e-13 0.9238795325112765 -0.38268343236511476
  outer loop
    vertex 23.472572126552812 554.3559030968114 7.207630344933102
    vertex 25.4725721265526 554.674197839864 7.9760618304472635
    vertex 25.47257212655281 554.3559030968099 7.2076303449342936
  endloop
endfacet
facet normal 6.511277309728254e-15 0.6087614290087358 0.7933533402912235
  outer loop
    vertex 23.47257212655663 556.079828654081 3.04570588405134
    vertex 25.47257212655568 555.3135335636892 3.6337047876647257
    vertex 25.472572126556628 556.0798286540795 3.0457058840525315
  endloop
endfacet
facet normal 6.511277309728254e-15 0.6087614290087358 0.7933533402912235
  outer loop
    vertex 25.47257212655568 555.3135335636892 3.6337047876647257
    vertex 23.47257212655663 556.079828654081 3.04570588405134
    vertex 23.472572126555686 555.3135335636908 3.633704787663557
  endloop
endfacet
facet normal -4.736301722538463e-13 0.1305261922200454 0.9914448613738114
  outer loop
    vertex 23.472572126554294 559.2239238795936 11.07962900949912
    vertex 25.472572126553093 557.9298286540794 11.249999878054954
    vertex 25.472572126554198 559.2239238795921 11.07962900950029
  endloop
endfacet
facet normal -4.736301722538463e-13 0.1305261922200454 0.9914448613738114
  outer loop
    vertex 25.472572126553093 557.9298286540794 11.249999878054954
    vertex 23.472572126554294 559.2239238795936 11.07962900949912
    vertex 23.472572126553185 557.929828654081 11.249999878053762
  endloop
endfacet
facet normal -6.698763596071063e-13 -0.13052619222005493 0.99144486137381
  outer loop
    vertex 23.472572126559037 558.8874591209603 2.6760743207843047
    vertex 25.472572126558365 557.9298286540795 2.549999878055009
    vertex 25.472572126559037 558.8874591209589 2.6760743207854514
  endloop
endfacet
facet normal -6.698763596071063e-13 -0.13052619222005493 0.99144486137381
  outer loop
    vertex 25.472572126558365 557.9298286540795 2.549999878055009
    vertex 23.472572126559037 558.8874591209603 2.6760743207843047
    vertex 23.472572126558365 557.929828654081 2.549999878053857
  endloop
endfacet
facet normal -8.496180077080373e-13 -0.9914448613738103 0.1305261922200533
  outer loop
    vertex 23.47257212655904 561.629828654081 6.249999878053749
    vertex 25.47257212655951 561.503754211349 5.292369411175654
    vertex 25.472572126559037 561.6298286540795 6.249999878054963
  endloop
endfacet
facet normal -8.496180077080373e-13 -0.9914448613738103 0.1305261922200533
  outer loop
    vertex 25.47257212655951 561.503754211349 5.292369411175654
    vertex 23.47257212655904 561.629828654081 6.249999878053749
    vertex 23.472572126559513 561.5037542113506 5.292369411174418
  endloop
endfacet
facet normal 6.944522160263907e-13 0.9914448613738103 0.13052619222005332
  outer loop
    vertex 25.47257212655395 554.3559030968099 5.292369411175654
    vertex 23.472572126553285 554.229828654081 6.249999878053771
    vertex 25.472572126553285 554.2298286540795 6.249999878054963
  endloop
endfacet
facet normal 6.944522160263907e-13 0.9914448613738103 0.13052619222005332
  outer loop
    vertex 23.472572126553285 554.229828654081 6.249999878053771
    vertex 25.47257212655395 554.3559030968099 5.292369411175654
    vertex 23.472572126553953 554.3559030968114 5.29236941117444
  endloop
endfacet
facet normal 5.889990007023564e-13 1.6079479491038175e-15 -1.0
  outer loop
    vertex 28.172525567889288 549.4298286540774 1.2499998780566073
    vertex 28.672525567890034 550.429828654077 1.2499998780569006
    vertex 28.672525567888677 548.6798286540771 1.2499998780569006
  endloop
endfacet
facet normal 5.889990007023564e-13 1.6079479491038175e-15 -1.0
  outer loop
    vertex 18.17252556788872 548.6798286540851 1.2499998780507473
    vertex 18.17252556789008 550.4298286540852 1.2499998780507586
    vertex 18.672525567889277 549.4298286540849 1.2499998780510448
  endloop
endfacet
facet normal 5.889990007023564e-13 1.6079479491038175e-15 -1.0
  outer loop
    vertex 18.17252556789008 550.4298286540852 1.2499998780507586
    vertex 18.17252556788872 548.6798286540851 1.2499998780507473
    vertex 17.172525567888673 548.679828654086 1.2499998780500834
  endloop
endfacet
facet normal 5.889990007023564e-13 1.6079479491038175e-15 -1.0
  outer loop
    vertex 18.17252556789008 550.4298286540852 1.2499998780507586
    vertex 17.172525567888673 548.679828654086 1.2499998780500834
    vertex 18.172525567890467 550.9298286540852 1.2499998780507473
  endloop
endfacet
facet normal 5.889990007023564e-13 1.6079479491038175e-15 -1.0
  outer loop
    vertex 29.672525567891245 551.9298286540762 1.2499998780574955
    vertex 28.672525567890425 550.929828654077 1.2499998780569006
    vertex 25.472572126556607 554.674197839864 1.249999878055
  endloop
endfacet
facet normal 5.889990007023564e-13 1.6079479491038175e-15 -1.0
  outer loop
    vertex 28.672525567890425 550.929828654077 1.2499998780569006
    vertex 29.672525567891245 551.9298286540762 1.2499998780574955
    vertex 29.67252556788863 548.6798286540762 1.2499998780574955
  endloop
endfacet
facet normal 5.889990007023564e-13 1.6079479491038175e-15 -1.0
  outer loop
    vertex 28.672525567890425 550.929828654077 1.2499998780569006
    vertex 29.67252556788863 548.6798286540762 1.2499998780574955
    vertex 28.672525567888677 548.6798286540771 1.2499998780569006
  endloop
endfacet
facet normal 5.889990007023564e-13 1.6079479491038175e-15 -1.0
  outer loop
    vertex 28.672525567890425 550.929828654077 1.2499998780569006
    vertex 28.672525567888677 548.6798286540771 1.2499998780569006
    vertex 28.672525567890034 550.429828654077 1.2499998780569006
  endloop
endfacet
facet normal 5.889990007023564e-13 1.6079479491038175e-15 -1.0
  outer loop
    vertex 25.472572126556607 554.674197839864 1.249999878055
    vertex 28.672525567890425 550.929828654077 1.2499998780569006
    vertex 23.472572126555253 552.929828654081 1.249999878053848
  endloop
endfacet
facet normal 5.889990007023564e-13 1.6079479491038175e-15 -1.0
  outer loop
    vertex 23.472572126555253 552.929828654081 1.249999878053848
    vertex 28.672525567890425 550.929828654077 1.2499998780569006
    vertex 18.172525567890467 550.9298286540852 1.2499998780507473
  endloop
endfacet
facet normal 5.889990007023564e-13 1.6079479491038175e-15 -1.0
  outer loop
    vertex 25.472572126556607 554.674197839864 1.249999878055
    vertex 23.472572126555253 552.929828654081 1.249999878053848
    vertex 25.47257212656203 561.7664635939743 1.2499998780550226
  endloop
endfacet
facet normal 5.889990007023564e-13 1.6079479491038175e-15 -1.0
  outer loop
    vertex 25.47257212656203 561.7664635939743 1.2499998780550226
    vertex 23.472572126555253 552.929828654081 1.249999878053848
    vertex 23.472572126562216 561.7664635939757 1.2499998780539043
  endloop
endfacet
facet normal 5.889990007023564e-13 1.6079479491038175e-15 -1.0
  outer loop
    vertex 23.472572126555253 552.929828654081 1.249999878053848
    vertex 18.172525567890467 550.9298286540852 1.2499998780507473
    vertex 17.17252556789198 552.9298286540861 1.2499998780500834
  endloop
endfacet
facet normal 5.889990007023564e-13 1.6079479491038175e-15 -1.0
  outer loop
    vertex 17.17252556789198 552.9298286540861 1.2499998780500834
    vertex 18.172525567890467 550.9298286540852 1.2499998780507473
    vertex 17.172525567888673 548.679828654086 1.2499998780500834
  endloop
endfacet
facet normal -5.916737060789894e-13 9.25403396958466e-15 1.0
  outer loop
    vertex 25.47257212655065 554.674197839864 11.249999878054975
    vertex 28.29384591144235 548.6798286540773 11.249999878056702
    vertex 28.293845911445583 552.8306972039436 11.249999878056702
  endloop
endfacet
facet normal -5.916737060789894e-13 9.25403396958466e-15 1.0
  outer loop
    vertex 28.29384591144235 548.6798286540773 11.249999878056702
    vertex 25.47257212655065 554.674197839864 11.249999878054975
    vertex 26.879632349071 550.9298286540784 11.249999878055858
  endloop
endfacet
facet normal -5.916737060789894e-13 9.25403396958466e-15 1.0
  outer loop
    vertex 26.879632349071 550.9298286540784 11.249999878055858
    vertex 25.47257212655065 554.674197839864 11.249999878054975
    vertex 23.472572126549295 552.929828654081 11.249999878053762
  endloop
endfacet
facet normal -5.916737060789894e-13 9.25403396958466e-15 1.0
  outer loop
    vertex 26.879632349071 550.9298286540784 11.249999878055858
    vertex 23.472572126549295 552.929828654081 11.249999878053762
    vertex 19.96541878669789 550.9298286540838 11.249999878051785
  endloop
endfacet
facet normal -5.916737060789894e-13 9.25403396958466e-15 1.0
  outer loop
    vertex 23.472572126549295 552.929828654081 11.249999878053762
    vertex 25.47257212655065 554.674197839864 11.249999878054975
    vertex 25.472572126553093 557.9298286540794 11.249999878054954
  endloop
endfacet
facet normal -5.916737060789894e-13 9.25403396958466e-15 1.0
  outer loop
    vertex 23.472572126549295 552.929828654081 11.249999878053762
    vertex 25.472572126553093 557.9298286540794 11.249999878054954
    vertex 23.472572126553185 557.929828654081 11.249999878053762
  endloop
endfacet
facet normal -5.916737060789894e-13 9.25403396958466e-15 1.0
  outer loop
    vertex 19.96541878669789 550.9298286540838 11.249999878051785
    vertex 23.472572126549295 552.929828654081 11.249999878053762
    vertex 18.551205224326438 552.9298286540849 11.249999878050932
  endloop
endfacet
facet normal -5.916737060789894e-13 9.25403396958466e-15 1.0
  outer loop
    vertex 19.96541878669789 550.9298286540838 11.249999878051785
    vertex 18.551205224326438 552.9298286540849 11.249999878050932
    vertex 19.96541878669614 548.6798286540838 11.249999878051774
  endloop
endfacet
facet normal -5.916737060789894e-13 9.25403396958466e-15 1.0
  outer loop
    vertex 19.96541878669614 548.6798286540838 11.249999878051774
    vertex 18.551205224326438 552.9298286540849 11.249999878050932
    vertex 18.551205224323134 548.6798286540849 11.249999878050943
  endloop
endfacet
facet normal -5.916737060789894e-13 9.25403396958466e-15 1.0
  outer loop
    vertex 26.87963234906925 548.6798286540784 11.249999878055892
    vertex 28.29384591144235 548.6798286540773 11.249999878056702
    vertex 26.879632349071 550.9298286540784 11.249999878055858
  endloop
endfacet
facet normal 0.5470044043086759 0.8371297280988835 3.25323333023597e-13
  outer loop
    vertex 29.672525567891245 551.9298286540762 1.2499998780574955
    vertex 29.359645047558566 552.1342736963421 4.697085607442175
    vertex 29.67252556788827 551.9298286540762 6.249999878057486
  endloop
endfacet
facet normal 0.5470044043086759 0.8371297280988835 3.25323333023597e-13
  outer loop
    vertex 29.359645047558566 552.1342736963421 4.697085607442175
    vertex 29.672525567891245 551.9298286540762 1.2499998780574955
    vertex 28.442325776969117 552.7336762313706 3.2499998780567476
  endloop
endfacet
facet normal 0.5470044043086759 0.8371297280988835 3.25323333023597e-13
  outer loop
    vertex 28.442325776969117 552.7336762313706 3.2499998780567476
    vertex 29.672525567891245 551.9298286540762 1.2499998780574955
    vertex 26.98308154846832 553.6871879669591 2.0073591909366115
  endloop
endfacet
facet normal 0.5470044043086759 0.8371297280988835 3.25323333023597e-13
  outer loop
    vertex 26.98308154846832 553.6871879669591 2.0073591909366115
    vertex 29.672525567891245 551.9298286540762 1.2499998780574955
    vertex 25.472572126556607 554.674197839864 1.249999878055
  endloop
endfacet
facet normal 0.5470044043086756 0.8371297280988838 3.2453382865746503e-13
  outer loop
    vertex 29.672525567886115 551.9298286540762 9.871320221617188
    vertex 25.47257212655065 554.674197839864 11.249999878054975
    vertex 28.293845911445583 552.8306972039436 11.249999878056702
  endloop
endfacet
facet normal 0.5470044043086756 0.8371297280988838 3.2453382865746503e-13
  outer loop
    vertex 25.47257212655065 554.674197839864 11.249999878054975
    vertex 29.672525567886115 551.9298286540762 9.871320221617188
    vertex 26.983081548463268 553.6871879669591 10.492640565175181
  endloop
endfacet
facet normal 0.5470044043086756 0.8371297280988838 3.2453382865746503e-13
  outer loop
    vertex 26.983081548463268 553.6871879669591 10.492640565175181
    vertex 29.672525567886115 551.9298286540762 9.871320221617188
    vertex 28.44232577696554 552.7336762313706 9.249999878056748
  endloop
endfacet
facet normal 0.5470044043086756 0.8371297280988838 3.2453382865746503e-13
  outer loop
    vertex 28.44232577696554 552.7336762313706 9.249999878056748
    vertex 29.672525567886115 551.9298286540762 9.871320221617188
    vertex 29.359645047556718 552.1342736963421 7.802914148672414
  endloop
endfacet
facet normal 0.5470044043086756 0.8371297280988838 3.2453382865746503e-13
  outer loop
    vertex 29.359645047556718 552.1342736963421 7.802914148672414
    vertex 29.672525567886115 551.9298286540762 9.871320221617188
    vertex 29.67252556788827 551.9298286540762 6.249999878057486
  endloop
endfacet
facet normal 8.488785394029751e-13 0.9914448613738039 -0.13052619222010217
  outer loop
    vertex 29.67252556788827 551.9298286540762 6.249999878057486
    vertex 25.472572126550723 552.1342736963451 7.802914148670099
    vertex 29.359645047556718 552.1342736963421 7.802914148672414
  endloop
endfacet
facet normal 8.488785394029751e-13 0.9914448613738039 -0.13052619222010217
  outer loop
    vertex 25.472572126550723 552.1342736963451 7.802914148670099
    vertex 29.67252556788827 551.9298286540762 6.249999878057486
    vertex 25.47257212655149 551.9298286540794 6.249999878054985
  endloop
endfacet
facet normal 9.461934734392017e-13 0.9238795325113007 -0.38268343236505625
  outer loop
    vertex 29.359645047556718 552.1342736963421 7.802914148672414
    vertex 25.47257212655033 552.7336762313728 9.249999878054979
    vertex 28.44232577696554 552.7336762313706 9.249999878056748
  endloop
endfacet
facet normal 9.461934734392017e-13 0.9238795325113007 -0.38268343236505625
  outer loop
    vertex 25.47257212655033 552.7336762313728 9.249999878054979
    vertex 29.359645047556718 552.1342736963421 7.802914148672414
    vertex 25.472572126550723 552.1342736963451 7.802914148670099
  endloop
endfacet
facet normal 9.790146346449527e-13 0.793353340291224 -0.6087614290087354
  outer loop
    vertex 28.44232577696554 552.7336762313706 9.249999878056748
    vertex 25.472572126550332 553.6871879669602 10.49264056517428
    vertex 26.983081548463268 553.6871879669591 10.492640565175181
  endloop
endfacet
facet normal 9.790146346449527e-13 0.793353340291224 -0.6087614290087354
  outer loop
    vertex 25.472572126550332 553.6871879669602 10.49264056517428
    vertex 28.44232577696554 552.7336762313706 9.249999878056748
    vertex 25.47257212655033 552.7336762313728 9.249999878054979
  endloop
endfacet
facet normal 9.451930278619751e-13 0.6087614290087277 -0.7933533402912298
  outer loop
    vertex 25.47257212655065 554.674197839864 11.249999878054975
    vertex 26.983081548463268 553.6871879669591 10.492640565175181
    vertex 25.472572126550332 553.6871879669602 10.49264056517428
  endloop
endfacet
facet normal 6.937160672216794e-13 0.9914448613738039 0.13052619222010126
  outer loop
    vertex 29.359645047558566 552.1342736963421 4.697085607442175
    vertex 25.47257212655149 551.9298286540794 6.249999878054985
    vertex 29.67252556788827 551.9298286540762 6.249999878057486
  endloop
endfacet
facet normal 6.937160672216794e-13 0.9914448613738039 0.13052619222010126
  outer loop
    vertex 25.47257212655149 551.9298286540794 6.249999878054985
    vertex 29.359645047558566 552.1342736963421 4.697085607442175
    vertex 25.472572126552574 552.1342736963451 4.697085607439848
  endloop
endfacet
facet normal 4.912703906738169e-13 0.9238795325113007 0.38268343236505625
  outer loop
    vertex 28.442325776969117 552.7336762313706 3.2499998780567476
    vertex 25.472572126552574 552.1342736963451 4.697085607439848
    vertex 29.359645047558566 552.1342736963421 4.697085607442175
  endloop
endfacet
facet normal 4.912703906738169e-13 0.9238795325113007 0.38268343236505625
  outer loop
    vertex 25.472572126552574 552.1342736963451 4.697085607439848
    vertex 28.442325776969117 552.7336762313706 3.2499998780567476
    vertex 25.472572126553903 552.7336762313728 3.249999878054968
  endloop
endfacet
facet normal 2.5533651709024116e-13 0.7933533402912158 0.6087614290087459
  outer loop
    vertex 26.98308154846832 553.6871879669591 2.0073591909366115
    vertex 25.472572126553903 552.7336762313728 3.249999878054968
    vertex 28.442325776969117 552.7336762313706 3.2499998780567476
  endloop
endfacet
facet normal 2.5533651709024116e-13 0.7933533402912158 0.6087614290087459
  outer loop
    vertex 25.472572126553903 552.7336762313728 3.249999878054968
    vertex 26.98308154846832 553.6871879669591 2.0073591909366115
    vertex 25.472572126555388 553.6871879669602 2.0073591909357065
  endloop
endfacet
facet normal 2.0301540288470176e-15 0.6087614290087333 0.7933533402912255
  outer loop
    vertex 25.472572126555388 553.6871879669602 2.0073591909357065
    vertex 26.98308154846832 553.6871879669591 2.0073591909366115
    vertex 25.472572126556607 554.674197839864 1.249999878055
  endloop
endfacet
facet normal 1.0 -7.760873929207224e-13 5.953674969202486e-13
  outer loop
    vertex 25.472572126552574 552.1342736963451 4.697085607439848
    vertex 25.472572126550723 552.1342736963451 7.802914148670099
    vertex 25.47257212655149 551.9298286540794 6.249999878054985
  endloop
endfacet
facet normal 1.0 -7.760873929207224e-13 5.953674969202486e-13
  outer loop
    vertex 25.472572126550723 552.1342736963451 7.802914148670099
    vertex 25.472572126552574 552.1342736963451 4.697085607439848
    vertex 25.472572126553903 552.7336762313728 3.249999878054968
  endloop
endfacet
facet normal 1.0 -7.760873929207224e-13 5.953674969202486e-13
  outer loop
    vertex 25.472572126550723 552.1342736963451 7.802914148670099
    vertex 25.472572126553903 552.7336762313728 3.249999878054968
    vertex 25.47257212655033 552.7336762313728 9.249999878054979
  endloop
endfacet
facet normal 1.0 -7.760873929207224e-13 5.953674969202486e-13
  outer loop
    vertex 25.47257212655033 552.7336762313728 9.249999878054979
    vertex 25.472572126553903 552.7336762313728 3.249999878054968
    vertex 25.472572126555388 553.6871879669602 2.0073591909357065
  endloop
endfacet
facet normal 1.0 -7.760873929207224e-13 5.953674969202486e-13
  outer loop
    vertex 25.47257212655033 552.7336762313728 9.249999878054979
    vertex 25.472572126555388 553.6871879669602 2.0073591909357065
    vertex 25.472572126550332 553.6871879669602 10.49264056517428
  endloop
endfacet
facet normal 1.0 -7.760873929207224e-13 5.953674969202486e-13
  outer loop
    vertex 25.472572126550332 553.6871879669602 10.49264056517428
    vertex 25.472572126555388 553.6871879669602 2.0073591909357065
    vertex 25.472572126556607 554.674197839864 1.249999878055
  endloop
endfacet
facet normal 1.0 -7.760873929207224e-13 5.953674969202486e-13
  outer loop
    vertex 25.472572126550332 553.6871879669602 10.49264056517428
    vertex 25.472572126556607 554.674197839864 1.249999878055
    vertex 25.472572126553285 554.2298286540795 6.249999878054963
  endloop
endfacet
facet normal 1.0 -7.760873929207224e-13 5.953674969202486e-13
  outer loop
    vertex 25.472572126553285 554.2298286540795 6.249999878054963
    vertex 25.472572126556607 554.674197839864 1.249999878055
    vertex 25.47257212655395 554.3559030968099 5.292369411175654
  endloop
endfacet
facet normal 1.0 -7.760873929207224e-13 5.953674969202486e-13
  outer loop
    vertex 25.47257212655395 554.3559030968099 5.292369411175654
    vertex 25.472572126556607 554.674197839864 1.249999878055
    vertex 25.472572126554653 554.674197839864 4.523937925662662
  endloop
endfacet
facet normal 1.0 -7.760873929207224e-13 5.953674969202486e-13
  outer loop
    vertex 25.472572126554653 554.674197839864 4.523937925662662
    vertex 25.472572126556607 554.674197839864 1.249999878055
    vertex 25.472572126554766 554.7255346600771 4.399999878054954
  endloop
endfacet
facet normal 1.0 -7.760873929207224e-13 5.953674969202486e-13
  outer loop
    vertex 25.472572126554766 554.7255346600771 4.399999878054954
    vertex 25.472572126556607 554.674197839864 1.249999878055
    vertex 25.47257212655568 555.3135335636892 3.6337047876647257
  endloop
endfacet
facet normal 1.0 -7.760873929207224e-13 5.953674969202486e-13
  outer loop
    vertex 25.47257212655568 555.3135335636892 3.6337047876647257
    vertex 25.472572126556607 554.674197839864 1.249999878055
    vertex 25.472572126556628 556.0798286540795 3.0457058840525315
  endloop
endfacet
facet normal 1.0 -7.760873929207224e-13 5.953674969202486e-13
  outer loop
    vertex 25.472572126556628 556.0798286540795 3.0457058840525315
    vertex 25.472572126556607 554.674197839864 1.249999878055
    vertex 25.47257212655754 556.9721981872002 2.6760743207854567
  endloop
endfacet
facet normal 1.0 -7.760873929207224e-13 5.953674969202486e-13
  outer loop
    vertex 25.47257212655754 556.9721981872002 2.6760743207854567
    vertex 25.472572126556607 554.674197839864 1.249999878055
    vertex 25.47257212656203 561.7664635939743 1.2499998780550226
  endloop
endfacet
facet normal 1.0 -7.760873929207224e-13 5.953674969202486e-13
  outer loop
    vertex 25.47257212655754 556.9721981872002 2.6760743207854567
    vertex 25.47257212656203 561.7664635939743 1.2499998780550226
    vertex 25.472572126558365 557.9298286540795 2.549999878055009
  endloop
endfacet
facet normal 1.0 -7.760873929207224e-13 5.953674969202486e-13
  outer loop
    vertex 25.472572126558365 557.9298286540795 2.549999878055009
    vertex 25.47257212656203 561.7664635939743 1.2499998780550226
    vertex 25.472572126559037 558.8874591209589 2.6760743207854514
  endloop
endfacet
facet normal 1.0 -7.760873929207224e-13 5.953674969202486e-13
  outer loop
    vertex 25.472572126559037 558.8874591209589 2.6760743207854514
    vertex 25.47257212656203 561.7664635939743 1.2499998780550226
    vertex 25.47257212655951 559.7798286540794 3.0457058840525315
  endloop
endfacet
facet normal 1.0 -7.760873929207224e-13 5.953674969202486e-13
  outer loop
    vertex 25.47257212655951 559.7798286540794 3.0457058840525315
    vertex 25.47257212656203 561.7664635939743 1.2499998780550226
    vertex 25.47257212655975 560.5461237444697 3.6337047876647257
  endloop
endfacet
facet normal 1.0 -7.760873929207224e-13 5.953674969202486e-13
  outer loop
    vertex 25.47257212655975 560.5461237444697 3.6337047876647257
    vertex 25.47257212656203 561.7664635939743 1.2499998780550226
    vertex 25.47257212655975 561.1341226480819 4.399999878054954
  endloop
endfacet
facet normal 1.0 -7.760873929207224e-13 5.953674969202486e-13
  outer loop
    vertex 25.47257212655975 561.1341226480819 4.399999878054954
    vertex 25.47257212656203 561.7664635939743 1.2499998780550226
    vertex 25.47257212655951 561.503754211349 5.292369411175654
  endloop
endfacet
facet normal 1.0 -7.760873929207224e-13 5.953674969202486e-13
  outer loop
    vertex 25.47257212655951 561.503754211349 5.292369411175654
    vertex 25.47257212656203 561.7664635939743 1.2499998780550226
    vertex 25.472572126559037 561.6298286540795 6.249999878054963
  endloop
endfacet
facet normal 1.0 -7.760873929207224e-13 5.953674969202486e-13
  outer loop
    vertex 25.472572126553285 554.2298286540795 6.249999878054963
    vertex 25.47257212655065 554.674197839864 11.249999878054975
    vertex 25.472572126550332 553.6871879669602 10.49264056517428
  endloop
endfacet
facet normal 1.0 -7.760873929207224e-13 5.953674969202486e-13
  outer loop
    vertex 25.47257212655065 554.674197839864 11.249999878054975
    vertex 25.472572126553285 554.2298286540795 6.249999878054963
    vertex 25.47257212655281 554.3559030968099 7.2076303449342936
  endloop
endfacet
facet normal 1.0 -7.760873929207224e-13 5.953674969202486e-13
  outer loop
    vertex 25.47257212655065 554.674197839864 11.249999878054975
    vertex 25.47257212655281 554.3559030968099 7.2076303449342936
    vertex 25.4725721265526 554.674197839864 7.9760618304472635
  endloop
endfacet
facet normal 1.0 -7.760873929207224e-13 5.953674969202486e-13
  outer loop
    vertex 25.47257212655065 554.674197839864 11.249999878054975
    vertex 25.4725721265526 554.674197839864 7.9760618304472635
    vertex 25.47257212655256 554.7255346600771 8.09999987805497
  endloop
endfacet
facet normal 1.0 -7.760873929207224e-13 5.953674969202486e-13
  outer loop
    vertex 25.47257212655065 554.674197839864 11.249999878054975
    vertex 25.47257212655256 554.7255346600771 8.09999987805497
    vertex 25.472572126552567 555.3135335636892 8.8662949684452
  endloop
endfacet
facet normal 1.0 -7.760873929207224e-13 5.953674969202486e-13
  outer loop
    vertex 25.47257212655065 554.674197839864 11.249999878054975
    vertex 25.472572126552567 555.3135335636892 8.8662949684452
    vertex 25.472572126553093 557.9298286540794 11.249999878054954
  endloop
endfacet
facet normal 1.0 -7.760873929207224e-13 5.953674969202486e-13
  outer loop
    vertex 25.472572126553093 557.9298286540794 11.249999878054954
    vertex 25.472572126552567 555.3135335636892 8.8662949684452
    vertex 25.47257212655281 556.0798286540795 9.454293872057393
  endloop
endfacet
facet normal 1.0 -7.760873929207224e-13 5.953674969202486e-13
  outer loop
    vertex 25.472572126553093 557.9298286540794 11.249999878054954
    vertex 25.47257212655281 556.0798286540795 9.454293872057393
    vertex 25.472572126553285 556.9721981872002 9.823925435324508
  endloop
endfacet
facet normal 1.0 -7.760873929207224e-13 5.953674969202486e-13
  outer loop
    vertex 25.472572126553093 557.9298286540794 11.249999878054954
    vertex 25.472572126553285 556.9721981872002 9.823925435324508
    vertex 25.472572126553953 557.9298286540795 9.949999878054955
  endloop
endfacet
facet normal 1.0 -7.760873929207224e-13 5.953674969202486e-13
  outer loop
    vertex 25.472572126553093 557.9298286540794 11.249999878054954
    vertex 25.472572126553953 557.9298286540795 9.949999878054955
    vertex 25.472572126554198 559.2239238795921 11.07962900950029
  endloop
endfacet
facet normal 1.0 -7.760873929207224e-13 5.953674969202486e-13
  outer loop
    vertex 25.472572126554198 559.2239238795921 11.07962900950029
    vertex 25.472572126553953 557.9298286540795 9.949999878054955
    vertex 25.472572126554777 558.8874591209589 9.823925435324508
  endloop
endfacet
facet normal 1.0 -7.760873929207224e-13 5.953674969202486e-13
  outer loop
    vertex 25.472572126554198 559.2239238795921 11.07962900950029
    vertex 25.472572126554777 558.8874591209589 9.823925435324508
    vertex 25.47257212655569 559.7798286540794 9.454293872057372
  endloop
endfacet
facet normal 1.0 -7.760873929207224e-13 5.953674969202486e-13
  outer loop
    vertex 25.472572126554198 559.2239238795921 11.07962900950029
    vertex 25.47257212655569 559.7798286540794 9.454293872057372
    vertex 25.472572126555526 560.4298286540795 10.580126896977152
  endloop
endfacet
facet normal 1.0 -7.760873929207224e-13 5.953674969202486e-13
  outer loop
    vertex 25.472572126555526 560.4298286540795 10.580126896977152
    vertex 25.47257212655569 559.7798286540794 9.454293872057372
    vertex 25.472572126556635 560.5461237444697 8.8662949684452
  endloop
endfacet
facet normal 1.0 -7.760873929207224e-13 5.953674969202486e-13
  outer loop
    vertex 25.472572126555526 560.4298286540795 10.580126896977152
    vertex 25.472572126556635 560.5461237444697 8.8662949684452
    vertex 25.472572126556802 561.4653625600122 9.78553378398771
  endloop
endfacet
facet normal 1.0 -7.760873929207224e-13 5.953674969202486e-13
  outer loop
    vertex 25.472572126556802 561.4653625600122 9.78553378398771
    vertex 25.472572126556635 560.5461237444697 8.8662949684452
    vertex 25.472572126557548 561.1341226480819 8.09999987805497
  endloop
endfacet
facet normal 1.0 -7.760873929207224e-13 5.953674969202486e-13
  outer loop
    vertex 25.472572126556802 561.4653625600122 9.78553378398771
    vertex 25.472572126557548 561.1341226480819 8.09999987805497
    vertex 25.47257212655837 561.503754211349 7.2076303449342936
  endloop
endfacet
facet normal 1.0 -7.760873929207224e-13 5.953674969202486e-13
  outer loop
    vertex 25.472572126556802 561.4653625600122 9.78553378398771
    vertex 25.47257212655837 561.503754211349 7.2076303449342936
    vertex 25.47257212655804 562.2599556730016 8.749999878054957
  endloop
endfacet
facet normal 1.0 -7.760873929207224e-13 5.953674969202486e-13
  outer loop
    vertex 25.47257212655804 562.2599556730016 8.749999878054957
    vertex 25.47257212655837 561.503754211349 7.2076303449342936
    vertex 25.472572126559037 561.6298286540795 6.249999878054963
  endloop
endfacet
facet normal 1.0 -7.760873929207224e-13 5.953674969202486e-13
  outer loop
    vertex 25.47257212655804 562.2599556730016 8.749999878054957
    vertex 25.472572126559037 561.6298286540795 6.249999878054963
    vertex 25.47257212656203 561.7664635939743 1.2499998780550226
  endloop
endfacet
facet normal 1.0 -7.760873929207224e-13 5.953674969202486e-13
  outer loop
    vertex 25.47257212655804 562.2599556730016 8.749999878054957
    vertex 25.47257212656203 561.7664635939743 1.2499998780550226
    vertex 25.47257212656069 562.7594577855248 4.955904652542372
  endloop
endfacet
facet normal 1.0 -7.760873929207224e-13 5.953674969202486e-13
  outer loop
    vertex 25.47257212655804 562.2599556730016 8.749999878054957
    vertex 25.47257212656069 562.7594577855248 4.955904652542372
    vertex 25.47257212655915 562.7594577855248 7.544095103567565
  endloop
endfacet
facet normal 1.0 -7.760873929207224e-13 5.953674969202486e-13
  outer loop
    vertex 25.47257212655915 562.7594577855248 7.544095103567565
    vertex 25.47257212656069 562.7594577855248 4.955904652542372
    vertex 25.472572126560053 562.9298286540794 6.249999878054963
  endloop
endfacet
facet normal 8.089302118993926e-13 0.9914448613738024 -0.1305261922201127
  outer loop
    vertex 25.47257212656069 562.7594577855248 4.955904652542372
    vertex 23.472572126560053 562.929828654081 6.249999878053749
    vertex 25.472572126560053 562.9298286540794 6.249999878054963
  endloop
endfacet
facet normal 8.089302118993926e-13 0.9914448613738024 -0.1305261922201127
  outer loop
    vertex 23.472572126560053 562.929828654081 6.249999878053749
    vertex 25.47257212656069 562.7594577855248 4.955904652542372
    vertex 23.472572126560873 562.7594577855263 4.955904652541247
  endloop
endfacet
facet normal 8.218521280648796e-13 0.9659258262890661 -0.2588190451025296
  outer loop
    vertex 25.47257212656069 562.7594577855248 4.955904652542372
    vertex 23.472572126562216 561.7664635939757 1.2499998780539043
    vertex 23.472572126560873 562.7594577855263 4.955904652541247
  endloop
endfacet
facet normal 8.218521280648796e-13 0.9659258262890661 -0.2588190451025296
  outer loop
    vertex 23.472572126562216 561.7664635939757 1.2499998780539043
    vertex 25.47257212656069 562.7594577855248 4.955904652542372
    vertex 25.47257212656203 561.7664635939743 1.2499998780550226
  endloop
endfacet
endsolid Indexer
