solid Indexer
facet normal 0.0 3.07184833125973e-13 -1.0
  outer loop
    vertex 129.18850255334218 553.2697574461401 1.2500000356504302
    vertex 129.18850255334218 551.19920508532 1.250000035649794
    vertex 129.05220585849844 552.2344812657301 1.2500000356501118
  endloop
endfacet
facet normal 0.0 3.07184833125973e-13 -1.0
  outer loop
    vertex 129.18850255334218 551.19920508532 1.250000035649794
    vertex 129.18850255334218 553.2697574461401 1.2500000356504302
    vertex 129.58810424336068 554.2344812657301 1.2500000356507261
  endloop
endfacet
facet normal 0.0 3.07184833125973e-13 -1.0
  outer loop
    vertex 129.18850255334218 551.19920508532 1.250000035649794
    vertex 129.58810424336068 554.2344812657301 1.2500000356507261
    vertex 129.58810424336068 550.2344812657301 1.2500000356494978
  endloop
endfacet
facet normal 0.0 3.07184833125973e-13 -1.0
  outer loop
    vertex 129.58810424336068 550.2344812657301 1.2500000356494978
    vertex 129.58810424336068 554.2344812657301 1.2500000356507261
    vertex 130.22377873375225 555.0629083904763 1.2500000356509806
  endloop
endfacet
facet normal 0.0 3.07184833125973e-13 -1.0
  outer loop
    vertex 129.58810424336068 550.2344812657301 1.2500000356494978
    vertex 130.22377873375225 555.0629083904763 1.2500000356509806
    vertex 130.22377873375225 549.406054140984 1.2500000356492433
  endloop
endfacet
facet normal 0.0 3.07184833125973e-13 -1.0
  outer loop
    vertex 130.22377873375225 549.406054140984 1.2500000356492433
    vertex 130.22377873375225 555.0629083904763 1.2500000356509806
    vertex 131.05220585849844 555.6985828808679 1.2500000356511762
  endloop
endfacet
facet normal 0.0 3.07184833125973e-13 -1.0
  outer loop
    vertex 130.22377873375225 549.406054140984 1.2500000356492433
    vertex 131.05220585849844 555.6985828808679 1.2500000356511762
    vertex 131.05220585849844 548.7703796505924 1.250000035649048
  endloop
endfacet
facet normal 0.0 3.07184833125973e-13 -1.0
  outer loop
    vertex 131.05220585849844 548.7703796505924 1.250000035649048
    vertex 131.05220585849844 555.6985828808679 1.2500000356511762
    vertex 132.01692967808833 556.0981845708864 1.2500000356512986
  endloop
endfacet
facet normal 0.0 3.07184833125973e-13 -1.0
  outer loop
    vertex 131.05220585849844 548.7703796505924 1.250000035649048
    vertex 132.01692967808833 556.0981845708864 1.2500000356512986
    vertex 132.01692967808836 548.370777960574 1.250000035648925
  endloop
endfacet
facet normal 0.0 3.07184833125973e-13 -1.0
  outer loop
    vertex 132.01692967808836 548.370777960574 1.250000035648925
    vertex 132.01692967808833 556.0981845708864 1.2500000356512986
    vertex 133.05220585849844 556.2344812657301 1.2500000356513405
  endloop
endfacet
facet normal 0.0 3.07184833125973e-13 -1.0
  outer loop
    vertex 132.01692967808836 548.370777960574 1.250000035648925
    vertex 133.05220585849844 556.2344812657301 1.2500000356513405
    vertex 133.05220585849844 548.2344812657301 1.2500000356488834
  endloop
endfacet
facet normal 0.0 3.07184833125973e-13 -1.0
  outer loop
    vertex 133.05220585849844 548.2344812657301 1.2500000356488834
    vertex 133.05220585849844 556.2344812657301 1.2500000356513405
    vertex 134.08748203890852 556.0981845708864 1.2500000356512986
  endloop
endfacet
facet normal 0.0 3.07184833125973e-13 -1.0
  outer loop
    vertex 133.05220585849844 548.2344812657301 1.2500000356488834
    vertex 134.08748203890852 556.0981845708864 1.2500000356512986
    vertex 134.08748203890852 548.370777960574 1.250000035648925
  endloop
endfacet
facet normal 0.0 3.07184833125973e-13 -1.0
  outer loop
    vertex 134.08748203890852 548.370777960574 1.250000035648925
    vertex 134.08748203890852 556.0981845708864 1.2500000356512986
    vertex 135.05220585849844 555.6985828808679 1.2500000356511762
  endloop
endfacet
facet normal 0.0 3.07184833125973e-13 -1.0
  outer loop
    vertex 134.08748203890852 548.370777960574 1.250000035648925
    vertex 135.05220585849844 555.6985828808679 1.2500000356511762
    vertex 135.05220585849844 548.7703796505924 1.250000035649048
  endloop
endfacet
facet normal 0.0 3.07184833125973e-13 -1.0
  outer loop
    vertex 135.05220585849844 548.7703796505924 1.250000035649048
    vertex 135.05220585849844 555.6985828808679 1.2500000356511762
    vertex 135.8806329832446 555.0629083904763 1.2500000356509806
  endloop
endfacet
facet normal 0.0 3.07184833125973e-13 -1.0
  outer loop
    vertex 135.05220585849844 548.7703796505924 1.250000035649048
    vertex 135.8806329832446 555.0629083904763 1.2500000356509806
    vertex 135.8806329832446 549.406054140984 1.2500000356492433
  endloop
endfacet
facet normal 0.0 3.07184833125973e-13 -1.0
  outer loop
    vertex 135.8806329832446 549.406054140984 1.2500000356492433
    vertex 135.8806329832446 555.0629083904763 1.2500000356509806
    vertex 136.51630747363618 554.2344812657301 1.2500000356507261
  endloop
endfacet
facet normal 0.0 3.07184833125973e-13 -1.0
  outer loop
    vertex 135.8806329832446 549.406054140984 1.2500000356492433
    vertex 136.51630747363618 554.2344812657301 1.2500000356507261
    vertex 136.51630747363618 550.2344812657301 1.2500000356494978
  endloop
endfacet
facet normal 0.0 3.07184833125973e-13 -1.0
  outer loop
    vertex 136.51630747363618 550.2344812657301 1.2500000356494978
    vertex 136.51630747363618 554.2344812657301 1.2500000356507261
    vertex 136.9159091636547 553.2697574461401 1.2500000356504302
  endloop
endfacet
facet normal 0.0 3.07184833125973e-13 -1.0
  outer loop
    vertex 136.51630747363618 550.2344812657301 1.2500000356494978
    vertex 136.9159091636547 553.2697574461401 1.2500000356504302
    vertex 136.9159091636547 551.19920508532 1.250000035649794
  endloop
endfacet
facet normal 0.0 3.07184833125973e-13 -1.0
  outer loop
    vertex 136.9159091636547 551.19920508532 1.250000035649794
    vertex 136.9159091636547 553.2697574461401 1.2500000356504302
    vertex 137.0522058584984 552.2344812657301 1.2500000356501118
  endloop
endfacet
facet normal 0.0 -3.07184833125973e-13 1.0
  outer loop
    vertex 129.18850255334218 551.1992050853199 2.250000035649795
    vertex 129.18850255334218 553.26975744614 2.2500000356504306
    vertex 129.05220585849844 552.23448126573 2.250000035650113
  endloop
endfacet
facet normal 0.0 -3.07184833125973e-13 1.0
  outer loop
    vertex 129.18850255334218 553.26975744614 2.2500000356504306
    vertex 129.18850255334218 551.1992050853199 2.250000035649795
    vertex 129.58810424336068 550.23448126573 2.250000035649498
  endloop
endfacet
facet normal 0.0 -3.07184833125973e-13 1.0
  outer loop
    vertex 129.18850255334218 553.26975744614 2.2500000356504306
    vertex 129.58810424336068 550.23448126573 2.250000035649498
    vertex 129.58810424336068 554.23448126573 2.2500000356507273
  endloop
endfacet
facet normal 0.0 -3.07184833125973e-13 1.0
  outer loop
    vertex 129.58810424336068 554.23448126573 2.2500000356507273
    vertex 129.58810424336068 550.23448126573 2.250000035649498
    vertex 130.22377873375225 549.4060541409838 2.2500000356492436
  endloop
endfacet
facet normal 0.0 -3.07184833125973e-13 1.0
  outer loop
    vertex 129.58810424336068 554.23448126573 2.2500000356507273
    vertex 130.22377873375225 549.4060541409838 2.2500000356492436
    vertex 130.22377873375225 555.0629083904762 2.2500000356509817
  endloop
endfacet
facet normal 0.0 -3.07184833125973e-13 1.0
  outer loop
    vertex 130.22377873375225 555.0629083904762 2.2500000356509817
    vertex 130.22377873375225 549.4060541409838 2.2500000356492436
    vertex 131.05220585849844 548.7703796505922 2.2500000356490486
  endloop
endfacet
facet normal 0.0 -3.07184833125973e-13 1.0
  outer loop
    vertex 130.22377873375225 555.0629083904762 2.2500000356509817
    vertex 131.05220585849844 548.7703796505922 2.2500000356490486
    vertex 131.05220585849844 555.6985828808677 2.250000035651177
  endloop
endfacet
facet normal 0.0 -3.07184833125973e-13 1.0
  outer loop
    vertex 131.05220585849844 555.6985828808677 2.250000035651177
    vertex 131.05220585849844 548.7703796505922 2.2500000356490486
    vertex 131.45220585849844 552.23448126573 2.250000035650113
  endloop
endfacet
facet normal 0.0 -3.07184833125973e-13 1.0
  outer loop
    vertex 131.45220585849844 552.23448126573 2.250000035650113
    vertex 131.05220585849844 548.7703796505922 2.2500000356490486
    vertex 131.50672453643594 551.8203707935659 2.250000035649985
  endloop
endfacet
facet normal 0.0 -3.07184833125973e-13 1.0
  outer loop
    vertex 131.50672453643594 551.8203707935659 2.250000035649985
    vertex 131.05220585849844 548.7703796505922 2.2500000356490486
    vertex 132.01692967808836 548.3707779605737 2.250000035648926
  endloop
endfacet
facet normal 0.0 -3.07184833125973e-13 1.0
  outer loop
    vertex 131.50672453643594 551.8203707935659 2.250000035649985
    vertex 132.01692967808836 548.3707779605737 2.250000035648926
    vertex 131.66656521244332 551.4344812657299 2.250000035649867
  endloop
endfacet
facet normal 0.0 -3.07184833125973e-13 1.0
  outer loop
    vertex 131.66656521244332 551.4344812657299 2.250000035649867
    vertex 132.01692967808836 548.3707779605737 2.250000035648926
    vertex 131.92083500859997 551.1031104158315 2.2500000356497654
  endloop
endfacet
facet normal 0.0 -3.07184833125973e-13 1.0
  outer loop
    vertex 131.92083500859997 551.1031104158315 2.2500000356497654
    vertex 132.01692967808836 548.3707779605737 2.250000035648926
    vertex 132.25220585849843 550.8488406196748 2.2500000356496876
  endloop
endfacet
facet normal 0.0 -3.07184833125973e-13 1.0
  outer loop
    vertex 132.25220585849843 550.8488406196748 2.2500000356496876
    vertex 132.01692967808836 548.3707779605737 2.250000035648926
    vertex 133.05220585849844 548.23448126573 2.250000035648884
  endloop
endfacet
facet normal 0.0 -3.07184833125973e-13 1.0
  outer loop
    vertex 132.25220585849843 550.8488406196748 2.2500000356496876
    vertex 133.05220585849844 548.23448126573 2.250000035648884
    vertex 132.63809538633438 550.6889999436675 2.250000035649638
  endloop
endfacet
facet normal 0.0 -3.07184833125973e-13 1.0
  outer loop
    vertex 132.63809538633438 550.6889999436675 2.250000035649638
    vertex 133.05220585849844 548.23448126573 2.250000035648884
    vertex 133.05220585849844 550.63448126573 2.2500000356496215
  endloop
endfacet
facet normal 0.0 -3.07184833125973e-13 1.0
  outer loop
    vertex 133.05220585849844 550.63448126573 2.2500000356496215
    vertex 133.05220585849844 548.23448126573 2.250000035648884
    vertex 134.08748203890852 548.3707779605737 2.250000035648926
  endloop
endfacet
facet normal 0.0 -3.07184833125973e-13 1.0
  outer loop
    vertex 133.05220585849844 550.63448126573 2.2500000356496215
    vertex 134.08748203890852 548.3707779605737 2.250000035648926
    vertex 133.46631633066247 550.6889999436675 2.250000035649638
  endloop
endfacet
facet normal 0.0 -3.07184833125973e-13 1.0
  outer loop
    vertex 133.46631633066247 550.6889999436675 2.250000035649638
    vertex 134.08748203890852 548.3707779605737 2.250000035648926
    vertex 133.85220585849842 550.8488406196748 2.2500000356496876
  endloop
endfacet
facet normal 0.0 -3.07184833125973e-13 1.0
  outer loop
    vertex 133.85220585849842 550.8488406196748 2.2500000356496876
    vertex 134.08748203890852 548.3707779605737 2.250000035648926
    vertex 134.1835767083969 551.1031104158315 2.2500000356497654
  endloop
endfacet
facet normal 0.0 -3.07184833125973e-13 1.0
  outer loop
    vertex 134.1835767083969 551.1031104158315 2.2500000356497654
    vertex 134.08748203890852 548.3707779605737 2.250000035648926
    vertex 135.05220585849844 548.7703796505922 2.2500000356490486
  endloop
endfacet
facet normal 0.0 -3.07184833125973e-13 1.0
  outer loop
    vertex 134.1835767083969 551.1031104158315 2.2500000356497654
    vertex 135.05220585849844 548.7703796505922 2.2500000356490486
    vertex 134.43784650455353 551.4344812657299 2.250000035649867
  endloop
endfacet
facet normal 0.0 -3.07184833125973e-13 1.0
  outer loop
    vertex 134.43784650455353 551.4344812657299 2.250000035649867
    vertex 135.05220585849844 548.7703796505922 2.2500000356490486
    vertex 134.59768718056094 551.8203707935659 2.250000035649985
  endloop
endfacet
facet normal 0.0 -3.07184833125973e-13 1.0
  outer loop
    vertex 134.59768718056094 551.8203707935659 2.250000035649985
    vertex 135.05220585849844 548.7703796505922 2.2500000356490486
    vertex 134.65220585849843 552.23448126573 2.250000035650113
  endloop
endfacet
facet normal 0.0 -3.07184833125973e-13 1.0
  outer loop
    vertex 131.05220585849844 555.6985828808677 2.250000035651177
    vertex 131.50672453643594 552.648591737894 2.25000003565024
    vertex 132.01692967808833 556.0981845708862 2.2500000356512997
  endloop
endfacet
facet normal 0.0 -3.07184833125973e-13 1.0
  outer loop
    vertex 131.50672453643594 552.648591737894 2.25000003565024
    vertex 131.05220585849844 555.6985828808677 2.250000035651177
    vertex 131.45220585849844 552.23448126573 2.250000035650113
  endloop
endfacet
facet normal 0.0 -3.07184833125973e-13 1.0
  outer loop
    vertex 132.01692967808833 556.0981845708862 2.2500000356512997
    vertex 131.50672453643594 552.648591737894 2.25000003565024
    vertex 131.66656521244332 553.0344812657299 2.250000035650358
  endloop
endfacet
facet normal 0.0 -3.07184833125973e-13 1.0
  outer loop
    vertex 132.01692967808833 556.0981845708862 2.2500000356512997
    vertex 131.66656521244332 553.0344812657299 2.250000035650358
    vertex 131.92083500859997 553.3658521156285 2.2500000356504604
  endloop
endfacet
facet normal 0.0 -3.07184833125973e-13 1.0
  outer loop
    vertex 132.01692967808833 556.0981845708862 2.2500000356512997
    vertex 131.92083500859997 553.3658521156285 2.2500000356504604
    vertex 132.25220585849843 553.6201219117851 2.250000035650539
  endloop
endfacet
facet normal 0.0 -3.07184833125973e-13 1.0
  outer loop
    vertex 132.01692967808833 556.0981845708862 2.2500000356512997
    vertex 132.25220585849843 553.6201219117851 2.250000035650539
    vertex 133.05220585849844 556.23448126573 2.250000035651342
  endloop
endfacet
facet normal 0.0 -3.07184833125973e-13 1.0
  outer loop
    vertex 133.05220585849844 556.23448126573 2.250000035651342
    vertex 132.25220585849843 553.6201219117851 2.250000035650539
    vertex 132.63809538633438 553.7799625877924 2.250000035650588
  endloop
endfacet
facet normal 0.0 -3.07184833125973e-13 1.0
  outer loop
    vertex 133.05220585849844 556.23448126573 2.250000035651342
    vertex 132.63809538633438 553.7799625877924 2.250000035650588
    vertex 133.05220585849844 553.83448126573 2.2500000356506047
  endloop
endfacet
facet normal 0.0 -3.07184833125973e-13 1.0
  outer loop
    vertex 133.05220585849844 556.23448126573 2.250000035651342
    vertex 133.05220585849844 553.83448126573 2.2500000356506047
    vertex 133.46631633066247 553.7799625877924 2.250000035650588
  endloop
endfacet
facet normal 0.0 -3.07184833125973e-13 1.0
  outer loop
    vertex 133.05220585849844 556.23448126573 2.250000035651342
    vertex 133.46631633066247 553.7799625877924 2.250000035650588
    vertex 134.08748203890852 556.0981845708862 2.2500000356512997
  endloop
endfacet
facet normal 0.0 -3.07184833125973e-13 1.0
  outer loop
    vertex 134.08748203890852 556.0981845708862 2.2500000356512997
    vertex 133.46631633066247 553.7799625877924 2.250000035650588
    vertex 133.85220585849842 553.6201219117851 2.250000035650539
  endloop
endfacet
facet normal 0.0 -3.07184833125973e-13 1.0
  outer loop
    vertex 134.08748203890852 556.0981845708862 2.2500000356512997
    vertex 133.85220585849842 553.6201219117851 2.250000035650539
    vertex 134.1835767083969 553.3658521156285 2.2500000356504604
  endloop
endfacet
facet normal 0.0 -3.07184833125973e-13 1.0
  outer loop
    vertex 134.08748203890852 556.0981845708862 2.2500000356512997
    vertex 134.1835767083969 553.3658521156285 2.2500000356504604
    vertex 135.05220585849844 555.6985828808677 2.250000035651177
  endloop
endfacet
facet normal 0.0 -3.07184833125973e-13 1.0
  outer loop
    vertex 135.05220585849844 555.6985828808677 2.250000035651177
    vertex 134.1835767083969 553.3658521156285 2.2500000356504604
    vertex 134.43784650455353 553.0344812657299 2.250000035650358
  endloop
endfacet
facet normal 0.0 -3.07184833125973e-13 1.0
  outer loop
    vertex 135.05220585849844 555.6985828808677 2.250000035651177
    vertex 134.43784650455353 553.0344812657299 2.250000035650358
    vertex 134.59768718056094 552.648591737894 2.25000003565024
  endloop
endfacet
facet normal 0.0 -3.07184833125973e-13 1.0
  outer loop
    vertex 135.05220585849844 555.6985828808677 2.250000035651177
    vertex 134.59768718056094 552.648591737894 2.25000003565024
    vertex 134.65220585849843 552.23448126573 2.250000035650113
  endloop
endfacet
facet normal 0.0 -3.07184833125973e-13 1.0
  outer loop
    vertex 135.05220585849844 555.6985828808677 2.250000035651177
    vertex 134.65220585849843 552.23448126573 2.250000035650113
    vertex 135.05220585849844 548.7703796505922 2.2500000356490486
  endloop
endfacet
facet normal 0.0 -3.07184833125973e-13 1.0
  outer loop
    vertex 135.05220585849844 555.6985828808677 2.250000035651177
    vertex 135.05220585849844 548.7703796505922 2.2500000356490486
    vertex 135.8806329832446 549.4060541409838 2.2500000356492436
  endloop
endfacet
facet normal 0.0 -3.07184833125973e-13 1.0
  outer loop
    vertex 135.05220585849844 555.6985828808677 2.250000035651177
    vertex 135.8806329832446 549.4060541409838 2.2500000356492436
    vertex 135.8806329832446 555.0629083904762 2.2500000356509817
  endloop
endfacet
facet normal 0.0 -3.07184833125973e-13 1.0
  outer loop
    vertex 135.8806329832446 555.0629083904762 2.2500000356509817
    vertex 135.8806329832446 549.4060541409838 2.2500000356492436
    vertex 136.51630747363618 550.23448126573 2.250000035649498
  endloop
endfacet
facet normal 0.0 -3.07184833125973e-13 1.0
  outer loop
    vertex 135.8806329832446 555.0629083904762 2.2500000356509817
    vertex 136.51630747363618 550.23448126573 2.250000035649498
    vertex 136.51630747363618 554.23448126573 2.2500000356507273
  endloop
endfacet
facet normal 0.0 -3.07184833125973e-13 1.0
  outer loop
    vertex 136.51630747363618 554.23448126573 2.2500000356507273
    vertex 136.51630747363618 550.23448126573 2.250000035649498
    vertex 136.9159091636547 551.1992050853199 2.250000035649795
  endloop
endfacet
facet normal 0.0 -3.07184833125973e-13 1.0
  outer loop
    vertex 136.51630747363618 554.23448126573 2.2500000356507273
    vertex 136.9159091636547 551.1992050853199 2.250000035649795
    vertex 136.9159091636547 553.26975744614 2.2500000356504306
  endloop
endfacet
facet normal 0.0 -3.07184833125973e-13 1.0
  outer loop
    vertex 136.9159091636547 553.26975744614 2.2500000356504306
    vertex 136.9159091636547 551.1992050853199 2.250000035649795
    vertex 137.0522058584984 552.23448126573 2.250000035650113
  endloop
endfacet
facet normal 0.9238795325112947 -0.38268343236507063 -1.175545463111388e-13
  outer loop
    vertex 136.51630747363618 550.23448126573 2.250000035649498
    vertex 136.9159091636547 551.19920508532 1.250000035649794
    vertex 136.9159091636547 551.1992050853199 2.250000035649795
  endloop
endfacet
facet normal 0.9238795325112947 -0.38268343236507063 -1.175545463111388e-13
  outer loop
    vertex 136.9159091636547 551.19920508532 1.250000035649794
    vertex 136.51630747363618 550.23448126573 2.250000035649498
    vertex 136.51630747363618 550.2344812657301 1.2500000356494978
  endloop
endfacet
facet normal 0.793353340291231 -0.6087614290087263 -1.8700227798357444e-13
  outer loop
    vertex 135.8806329832446 549.4060541409838 2.2500000356492436
    vertex 136.51630747363618 550.2344812657301 1.2500000356494978
    vertex 136.51630747363618 550.23448126573 2.250000035649498
  endloop
endfacet
facet normal 0.793353340291231 -0.6087614290087263 -1.8700227798357444e-13
  outer loop
    vertex 136.51630747363618 550.2344812657301 1.2500000356494978
    vertex 135.8806329832446 549.4060541409838 2.2500000356492436
    vertex 135.8806329832446 549.406054140984 1.2500000356492433
  endloop
endfacet
facet normal 0.9238795325112947 0.38268343236507063 1.175545463111388e-13
  outer loop
    vertex 136.9159091636547 553.26975744614 2.2500000356504306
    vertex 136.51630747363618 554.2344812657301 1.2500000356507261
    vertex 136.51630747363618 554.23448126573 2.2500000356507273
  endloop
endfacet
facet normal 0.9238795325112947 0.38268343236507063 1.175545463111388e-13
  outer loop
    vertex 136.51630747363618 554.2344812657301 1.2500000356507261
    vertex 136.9159091636547 553.26975744614 2.2500000356504306
    vertex 136.9159091636547 553.2697574461401 1.2500000356504302
  endloop
endfacet
facet normal 0.6087614290087096 -0.7933533402912437 -2.4370611344729897e-13
  outer loop
    vertex 135.05220585849844 548.7703796505924 1.250000035649048
    vertex 135.8806329832446 549.4060541409838 2.2500000356492436
    vertex 135.05220585849844 548.7703796505922 2.2500000356490486
  endloop
endfacet
facet normal 0.6087614290087096 -0.7933533402912437 -2.4370611344729897e-13
  outer loop
    vertex 135.8806329832446 549.4060541409838 2.2500000356492436
    vertex 135.05220585849844 548.7703796505924 1.250000035649048
    vertex 135.8806329832446 549.406054140984 1.2500000356492433
  endloop
endfacet
facet normal -0.9238795325112947 -0.38268343236507063 -1.175545463111388e-13
  outer loop
    vertex 129.18850255334218 551.19920508532 1.250000035649794
    vertex 129.58810424336068 550.23448126573 2.250000035649498
    vertex 129.18850255334218 551.1992050853199 2.250000035649795
  endloop
endfacet
facet normal -0.9238795325112947 -0.38268343236507063 -1.175545463111388e-13
  outer loop
    vertex 129.58810424336068 550.23448126573 2.250000035649498
    vertex 129.18850255334218 551.19920508532 1.250000035649794
    vertex 129.58810424336068 550.2344812657301 1.2500000356494978
  endloop
endfacet
facet normal -0.9914448613738099 -0.13052619222005635 -4.009566657568669e-14
  outer loop
    vertex 129.05220585849844 552.2344812657301 1.2500000356501118
    vertex 129.18850255334218 551.1992050853199 2.250000035649795
    vertex 129.05220585849844 552.23448126573 2.250000035650113
  endloop
endfacet
facet normal -0.9914448613738099 -0.13052619222005635 -4.009566657568669e-14
  outer loop
    vertex 129.18850255334218 551.1992050853199 2.250000035649795
    vertex 129.05220585849844 552.2344812657301 1.2500000356501118
    vertex 129.18850255334218 551.19920508532 1.250000035649794
  endloop
endfacet
facet normal 0.38268343236508595 0.9238795325112884 2.838017800229821e-13
  outer loop
    vertex 135.05220585849844 555.6985828808679 1.2500000356511762
    vertex 134.08748203890852 556.0981845708862 2.2500000356512997
    vertex 135.05220585849844 555.6985828808677 2.250000035651177
  endloop
endfacet
facet normal 0.38268343236508595 0.9238795325112884 2.838017800229821e-13
  outer loop
    vertex 134.08748203890852 556.0981845708862 2.2500000356512997
    vertex 135.05220585849844 555.6985828808679 1.2500000356511762
    vertex 134.08748203890852 556.0981845708864 1.2500000356512986
  endloop
endfacet
facet normal 0.13052619222007197 -0.9914448613738077 -3.0455682429471655e-13
  outer loop
    vertex 133.05220585849844 548.23448126573 2.250000035648884
    vertex 134.08748203890852 548.370777960574 1.250000035648925
    vertex 134.08748203890852 548.3707779605737 2.250000035648926
  endloop
endfacet
facet normal 0.13052619222007197 -0.9914448613738077 -3.0455682429471655e-13
  outer loop
    vertex 134.08748203890852 548.370777960574 1.250000035648925
    vertex 133.05220585849844 548.23448126573 2.250000035648884
    vertex 133.05220585849844 548.2344812657301 1.2500000356488834
  endloop
endfacet
facet normal -0.13052619222007478 -0.9914448613738074 -3.0455682429471645e-13
  outer loop
    vertex 132.01692967808836 548.370777960574 1.250000035648925
    vertex 133.05220585849844 548.23448126573 2.250000035648884
    vertex 132.01692967808836 548.3707779605737 2.250000035648926
  endloop
endfacet
facet normal -0.13052619222007478 -0.9914448613738074 -3.0455682429471645e-13
  outer loop
    vertex 133.05220585849844 548.23448126573 2.250000035648884
    vertex 132.01692967808836 548.370777960574 1.250000035648925
    vertex 133.05220585849844 548.2344812657301 1.2500000356488834
  endloop
endfacet
facet normal 0.6087614290087096 0.7933533402912437 2.4370611344729897e-13
  outer loop
    vertex 135.8806329832446 555.0629083904763 1.2500000356509806
    vertex 135.05220585849844 555.6985828808677 2.250000035651177
    vertex 135.8806329832446 555.0629083904762 2.2500000356509817
  endloop
endfacet
facet normal 0.6087614290087096 0.7933533402912437 2.4370611344729897e-13
  outer loop
    vertex 135.05220585849844 555.6985828808677 2.250000035651177
    vertex 135.8806329832446 555.0629083904763 1.2500000356509806
    vertex 135.05220585849844 555.6985828808679 1.2500000356511762
  endloop
endfacet
facet normal 0.9914448613738099 -0.13052619222005635 -4.009566657568669e-14
  outer loop
    vertex 136.9159091636547 551.1992050853199 2.250000035649795
    vertex 137.0522058584984 552.2344812657301 1.2500000356501118
    vertex 137.0522058584984 552.23448126573 2.250000035650113
  endloop
endfacet
facet normal 0.9914448613738099 -0.13052619222005635 -4.009566657568669e-14
  outer loop
    vertex 137.0522058584984 552.2344812657301 1.2500000356501118
    vertex 136.9159091636547 551.1992050853199 2.250000035649795
    vertex 136.9159091636547 551.19920508532 1.250000035649794
  endloop
endfacet
facet normal 0.793353340291231 0.6087614290087263 1.8700227798357444e-13
  outer loop
    vertex 136.51630747363618 554.23448126573 2.2500000356507273
    vertex 135.8806329832446 555.0629083904763 1.2500000356509806
    vertex 135.8806329832446 555.0629083904762 2.2500000356509817
  endloop
endfacet
facet normal 0.793353340291231 0.6087614290087263 1.8700227798357444e-13
  outer loop
    vertex 135.8806329832446 555.0629083904763 1.2500000356509806
    vertex 136.51630747363618 554.23448126573 2.2500000356507273
    vertex 136.51630747363618 554.2344812657301 1.2500000356507261
  endloop
endfacet
facet normal -0.38268343236507835 -0.9238795325112916 -2.8380178002298306e-13
  outer loop
    vertex 131.05220585849844 548.7703796505922 2.2500000356490486
    vertex 132.01692967808836 548.370777960574 1.250000035648925
    vertex 132.01692967808836 548.3707779605737 2.250000035648926
  endloop
endfacet
facet normal -0.38268343236507835 -0.9238795325112916 -2.8380178002298306e-13
  outer loop
    vertex 132.01692967808836 548.370777960574 1.250000035648925
    vertex 131.05220585849844 548.7703796505922 2.2500000356490486
    vertex 131.05220585849844 548.7703796505924 1.250000035649048
  endloop
endfacet
facet normal -0.793353340291231 0.6087614290087263 1.8700227798357444e-13
  outer loop
    vertex 130.22377873375225 555.0629083904763 1.2500000356509806
    vertex 129.58810424336068 554.23448126573 2.2500000356507273
    vertex 130.22377873375225 555.0629083904762 2.2500000356509817
  endloop
endfacet
facet normal -0.793353340291231 0.6087614290087263 1.8700227798357444e-13
  outer loop
    vertex 129.58810424336068 554.23448126573 2.2500000356507273
    vertex 130.22377873375225 555.0629083904763 1.2500000356509806
    vertex 129.58810424336068 554.2344812657301 1.2500000356507261
  endloop
endfacet
facet normal 0.9914448613738099 0.13052619222005635 4.009566657568669e-14
  outer loop
    vertex 137.0522058584984 552.23448126573 2.250000035650113
    vertex 136.9159091636547 553.2697574461401 1.2500000356504302
    vertex 136.9159091636547 553.26975744614 2.2500000356504306
  endloop
endfacet
facet normal 0.9914448613738099 0.13052619222005635 4.009566657568669e-14
  outer loop
    vertex 136.9159091636547 553.2697574461401 1.2500000356504302
    vertex 137.0522058584984 552.23448126573 2.250000035650113
    vertex 137.0522058584984 552.2344812657301 1.2500000356501118
  endloop
endfacet
facet normal 0.38268343236508595 -0.9238795325112884 -2.838017800229821e-13
  outer loop
    vertex 134.08748203890852 548.370777960574 1.250000035648925
    vertex 135.05220585849844 548.7703796505922 2.2500000356490486
    vertex 134.08748203890852 548.3707779605737 2.250000035648926
  endloop
endfacet
facet normal 0.38268343236508595 -0.9238795325112884 -2.838017800229821e-13
  outer loop
    vertex 135.05220585849844 548.7703796505922 2.2500000356490486
    vertex 134.08748203890852 548.370777960574 1.250000035648925
    vertex 135.05220585849844 548.7703796505924 1.250000035649048
  endloop
endfacet
facet normal -0.9914448613738099 0.13052619222005635 4.009566657568669e-14
  outer loop
    vertex 129.18850255334218 553.2697574461401 1.2500000356504302
    vertex 129.05220585849844 552.23448126573 2.250000035650113
    vertex 129.18850255334218 553.26975744614 2.2500000356504306
  endloop
endfacet
facet normal -0.9914448613738099 0.13052619222005635 4.009566657568669e-14
  outer loop
    vertex 129.05220585849844 552.23448126573 2.250000035650113
    vertex 129.18850255334218 553.2697574461401 1.2500000356504302
    vertex 129.05220585849844 552.2344812657301 1.2500000356501118
  endloop
endfacet
facet normal -0.6087614290087096 -0.7933533402912437 -2.4370611344729897e-13
  outer loop
    vertex 130.22377873375225 549.406054140984 1.2500000356492433
    vertex 131.05220585849844 548.7703796505922 2.2500000356490486
    vertex 130.22377873375225 549.4060541409838 2.2500000356492436
  endloop
endfacet
facet normal -0.6087614290087096 -0.7933533402912437 -2.4370611344729897e-13
  outer loop
    vertex 131.05220585849844 548.7703796505922 2.2500000356490486
    vertex 130.22377873375225 549.406054140984 1.2500000356492433
    vertex 131.05220585849844 548.7703796505924 1.250000035649048
  endloop
endfacet
facet normal -0.9238795325112947 0.38268343236507063 1.175545463111388e-13
  outer loop
    vertex 129.58810424336068 554.2344812657301 1.2500000356507261
    vertex 129.18850255334218 553.26975744614 2.2500000356504306
    vertex 129.58810424336068 554.23448126573 2.2500000356507273
  endloop
endfacet
facet normal -0.9238795325112947 0.38268343236507063 1.175545463111388e-13
  outer loop
    vertex 129.18850255334218 553.26975744614 2.2500000356504306
    vertex 129.58810424336068 554.2344812657301 1.2500000356507261
    vertex 129.18850255334218 553.2697574461401 1.2500000356504302
  endloop
endfacet
facet normal -0.6087614290087096 0.7933533402912437 2.4370611344729897e-13
  outer loop
    vertex 131.05220585849844 555.6985828808679 1.2500000356511762
    vertex 130.22377873375225 555.0629083904762 2.2500000356509817
    vertex 131.05220585849844 555.6985828808677 2.250000035651177
  endloop
endfacet
facet normal -0.6087614290087096 0.7933533402912437 2.4370611344729897e-13
  outer loop
    vertex 130.22377873375225 555.0629083904762 2.2500000356509817
    vertex 131.05220585849844 555.6985828808679 1.2500000356511762
    vertex 130.22377873375225 555.0629083904763 1.2500000356509806
  endloop
endfacet
facet normal -0.38268343236508595 0.9238795325112884 2.838017800229821e-13
  outer loop
    vertex 132.01692967808833 556.0981845708864 1.2500000356512986
    vertex 131.05220585849844 555.6985828808677 2.250000035651177
    vertex 132.01692967808833 556.0981845708862 2.2500000356512997
  endloop
endfacet
facet normal -0.38268343236508595 0.9238795325112884 2.838017800229821e-13
  outer loop
    vertex 131.05220585849844 555.6985828808677 2.250000035651177
    vertex 132.01692967808833 556.0981845708864 1.2500000356512986
    vertex 131.05220585849844 555.6985828808679 1.2500000356511762
  endloop
endfacet
facet normal -0.793353340291231 -0.6087614290087263 -1.8700227798357444e-13
  outer loop
    vertex 129.58810424336068 550.2344812657301 1.2500000356494978
    vertex 130.22377873375225 549.4060541409838 2.2500000356492436
    vertex 129.58810424336068 550.23448126573 2.250000035649498
  endloop
endfacet
facet normal -0.793353340291231 -0.6087614290087263 -1.8700227798357444e-13
  outer loop
    vertex 130.22377873375225 549.4060541409838 2.2500000356492436
    vertex 129.58810424336068 550.2344812657301 1.2500000356494978
    vertex 130.22377873375225 549.406054140984 1.2500000356492433
  endloop
endfacet
facet normal -0.13052619222007197 0.9914448613738077 3.0455682429471655e-13
  outer loop
    vertex 133.05220585849844 556.2344812657301 1.2500000356513405
    vertex 132.01692967808833 556.0981845708862 2.2500000356512997
    vertex 133.05220585849844 556.23448126573 2.250000035651342
  endloop
endfacet
facet normal -0.13052619222007197 0.9914448613738077 3.0455682429471655e-13
  outer loop
    vertex 132.01692967808833 556.0981845708862 2.2500000356512997
    vertex 133.05220585849844 556.2344812657301 1.2500000356513405
    vertex 132.01692967808833 556.0981845708864 1.2500000356512986
  endloop
endfacet
facet normal 0.13052619222007197 0.9914448613738077 3.0455682429471655e-13
  outer loop
    vertex 134.08748203890852 556.0981845708864 1.2500000356512986
    vertex 133.05220585849844 556.23448126573 2.250000035651342
    vertex 134.08748203890852 556.0981845708862 2.2500000356512997
  endloop
endfacet
facet normal 0.13052619222007197 0.9914448613738077 3.0455682429471655e-13
  outer loop
    vertex 133.05220585849844 556.23448126573 2.250000035651342
    vertex 134.08748203890852 556.0981845708864 1.2500000356512986
    vertex 133.05220585849844 556.2344812657301 1.2500000356513405
  endloop
endfacet
facet normal -1.6820175598971132e-30 -3.071898358427005e-13 1.0
  outer loop
    vertex 131.98968744958046 551.9497803161161 5.750000035650025
    vertex 131.98968744958046 552.5191822153416 5.750000035650199
    vertex 131.95220585849844 552.2344812657288 5.750000035650112
  endloop
endfacet
facet normal -1.6820175598971132e-30 -3.071898358427005e-13 1.0
  outer loop
    vertex 131.98968744958046 552.5191822153416 5.750000035650199
    vertex 131.98968744958046 551.9497803161161 5.750000035650025
    vertex 132.09957791433553 551.6844812657289 5.7500000356499426
  endloop
endfacet
facet normal -1.6820175598971132e-30 -3.071898358427005e-13 1.0
  outer loop
    vertex 131.98968744958046 552.5191822153416 5.750000035650199
    vertex 132.09957791433553 551.6844812657289 5.7500000356499426
    vertex 132.09957791433553 552.7844812657288 5.750000035650281
  endloop
endfacet
facet normal -1.6820175598971132e-30 -3.071898358427005e-13 1.0
  outer loop
    vertex 132.09957791433553 552.7844812657288 5.750000035650281
    vertex 132.09957791433553 551.6844812657289 5.7500000356499426
    vertex 132.27438839919324 551.4566638064236 5.750000035649873
  endloop
endfacet
facet normal -1.6820175598971132e-30 -3.071898358427005e-13 1.0
  outer loop
    vertex 132.09957791433553 552.7844812657288 5.750000035650281
    vertex 132.27438839919324 551.4566638064236 5.750000035649873
    vertex 132.27438839919324 553.012298725034 5.750000035650351
  endloop
endfacet
facet normal -1.6820175598971132e-30 -3.071898358427005e-13 1.0
  outer loop
    vertex 132.27438839919324 553.012298725034 5.750000035650351
    vertex 132.27438839919324 551.4566638064236 5.750000035649873
    vertex 132.50220585849846 551.281853321566 5.75000003564982
  endloop
endfacet
facet normal -1.6820175598971132e-30 -3.071898358427005e-13 1.0
  outer loop
    vertex 132.27438839919324 553.012298725034 5.750000035650351
    vertex 132.50220585849846 551.281853321566 5.75000003564982
    vertex 132.50220585849843 553.1871092098917 5.750000035650404
  endloop
endfacet
facet normal -1.6820175598971132e-30 -3.071898358427005e-13 1.0
  outer loop
    vertex 132.50220585849843 553.1871092098917 5.750000035650404
    vertex 132.50220585849846 551.281853321566 5.75000003564982
    vertex 132.76750490888566 553.2969996746468 5.750000035650439
  endloop
endfacet
facet normal -1.6820175598971132e-30 -3.071898358427005e-13 1.0
  outer loop
    vertex 132.76750490888566 553.2969996746468 5.750000035650439
    vertex 132.50220585849846 551.281853321566 5.75000003564982
    vertex 132.76750490888566 551.1719628568109 5.750000035649785
  endloop
endfacet
facet normal -1.6820175598971132e-30 -3.071898358427005e-13 1.0
  outer loop
    vertex 132.76750490888566 553.2969996746468 5.750000035650439
    vertex 132.76750490888566 551.1719628568109 5.750000035649785
    vertex 133.05220585849844 551.1344812657288 5.750000035649775
  endloop
endfacet
facet normal -1.6820175598971132e-30 -3.071898358427005e-13 1.0
  outer loop
    vertex 132.76750490888566 553.2969996746468 5.750000035650439
    vertex 133.05220585849844 551.1344812657288 5.750000035649775
    vertex 133.05220585849844 553.3344812657289 5.750000035650449
  endloop
endfacet
facet normal -1.6820175598971132e-30 -3.071898358427005e-13 1.0
  outer loop
    vertex 133.05220585849844 553.3344812657289 5.750000035650449
    vertex 133.05220585849844 551.1344812657288 5.750000035649775
    vertex 133.3369068081112 551.1719628568109 5.750000035649785
  endloop
endfacet
facet normal -1.6820175598971132e-30 -3.071898358427005e-13 1.0
  outer loop
    vertex 133.05220585849844 553.3344812657289 5.750000035650449
    vertex 133.3369068081112 551.1719628568109 5.750000035649785
    vertex 133.3369068081112 553.2969996746468 5.750000035650439
  endloop
endfacet
facet normal -1.6820175598971132e-30 -3.071898358427005e-13 1.0
  outer loop
    vertex 133.3369068081112 553.2969996746468 5.750000035650439
    vertex 133.3369068081112 551.1719628568109 5.750000035649785
    vertex 133.60220585849845 551.281853321566 5.75000003564982
  endloop
endfacet
facet normal -1.6820175598971132e-30 -3.071898358427005e-13 1.0
  outer loop
    vertex 133.3369068081112 553.2969996746468 5.750000035650439
    vertex 133.60220585849845 551.281853321566 5.75000003564982
    vertex 133.60220585849842 553.1871092098917 5.750000035650404
  endloop
endfacet
facet normal -1.6820175598971132e-30 -3.071898358427005e-13 1.0
  outer loop
    vertex 133.60220585849842 553.1871092098917 5.750000035650404
    vertex 133.60220585849845 551.281853321566 5.75000003564982
    vertex 133.83002331780364 553.012298725034 5.750000035650351
  endloop
endfacet
facet normal -1.6820175598971132e-30 -3.071898358427005e-13 1.0
  outer loop
    vertex 133.83002331780364 553.012298725034 5.750000035650351
    vertex 133.60220585849845 551.281853321566 5.75000003564982
    vertex 133.83002331780364 551.4566638064236 5.750000035649873
  endloop
endfacet
facet normal -1.6820175598971132e-30 -3.071898358427005e-13 1.0
  outer loop
    vertex 133.83002331780364 553.012298725034 5.750000035650351
    vertex 133.83002331780364 551.4566638064236 5.750000035649873
    vertex 134.00483380266132 551.6844812657289 5.7500000356499426
  endloop
endfacet
facet normal -1.6820175598971132e-30 -3.071898358427005e-13 1.0
  outer loop
    vertex 133.83002331780364 553.012298725034 5.750000035650351
    vertex 134.00483380266132 551.6844812657289 5.7500000356499426
    vertex 134.00483380266132 552.7844812657288 5.750000035650281
  endloop
endfacet
facet normal -1.6820175598971132e-30 -3.071898358427005e-13 1.0
  outer loop
    vertex 134.00483380266132 552.7844812657288 5.750000035650281
    vertex 134.00483380266132 551.6844812657289 5.7500000356499426
    vertex 134.11472426741642 551.9497803161161 5.750000035650025
  endloop
endfacet
facet normal -1.6820175598971132e-30 -3.071898358427005e-13 1.0
  outer loop
    vertex 134.00483380266132 552.7844812657288 5.750000035650281
    vertex 134.11472426741642 551.9497803161161 5.750000035650025
    vertex 134.11472426741642 552.5191822153416 5.750000035650199
  endloop
endfacet
facet normal -1.6820175598971132e-30 -3.071898358427005e-13 1.0
  outer loop
    vertex 134.11472426741642 552.5191822153416 5.750000035650199
    vertex 134.11472426741642 551.9497803161161 5.750000035650025
    vertex 134.15220585849843 552.2344812657288 5.750000035650112
  endloop
endfacet
facet normal -0.9238795325112897 -0.38268343236508284 -1.151106592667894e-13
  outer loop
    vertex 131.66656521244332 551.4344812657299 2.250000035649867
    vertex 131.50672453643594 551.820370793565 5.250000035649985
    vertex 131.50672453643594 551.8203707935659 2.250000035649985
  endloop
endfacet
facet normal -0.9238795325112897 -0.38268343236508284 -1.151106592667894e-13
  outer loop
    vertex 131.50672453643594 551.820370793565 5.250000035649985
    vertex 131.66656521244332 551.4344812657299 2.250000035649867
    vertex 131.66656521244332 551.434481265729 5.250000035649867
  endloop
endfacet
facet normal -0.9914448613738098 0.13052619222005574 3.926132136352325e-14
  outer loop
    vertex 131.45220585849844 552.23448126573 2.250000035650113
    vertex 131.50672453643594 552.6485917378931 5.250000035650239
    vertex 131.50672453643594 552.648591737894 2.25000003565024
  endloop
endfacet
facet normal -0.9914448613738098 0.13052619222005574 3.926132136352325e-14
  outer loop
    vertex 131.50672453643594 552.6485917378931 5.250000035650239
    vertex 131.45220585849844 552.23448126573 2.250000035650113
    vertex 131.45220585849844 552.2344812657291 5.250000035650112
  endloop
endfacet
facet normal 0.7933533402912576 -0.6087614290086913 -1.8310844868699628e-13
  outer loop
    vertex 134.1835767083969 551.1031104158305 5.250000035649765
    vertex 134.43784650455353 551.4344812657299 2.250000035649867
    vertex 134.43784650455353 551.434481265729 5.250000035649867
  endloop
endfacet
facet normal 0.7933533402912576 -0.6087614290086913 -1.8310844868699628e-13
  outer loop
    vertex 134.43784650455353 551.4344812657299 2.250000035649867
    vertex 134.1835767083969 551.1031104158305 5.250000035649765
    vertex 134.1835767083969 551.1031104158315 2.2500000356497654
  endloop
endfacet
facet normal 0.9238795325112897 -0.38268343236508284 -1.1510917215073587e-13
  outer loop
    vertex 134.43784650455353 551.434481265729 5.250000035649867
    vertex 134.59768718056094 551.8203707935659 2.250000035649985
    vertex 134.59768718056094 551.820370793565 5.250000035649985
  endloop
endfacet
facet normal 0.9238795325112897 -0.38268343236508284 -1.1510917215073587e-13
  outer loop
    vertex 134.59768718056094 551.8203707935659 2.250000035649985
    vertex 134.43784650455353 551.434481265729 5.250000035649867
    vertex 134.43784650455353 551.4344812657299 2.250000035649867
  endloop
endfacet
facet normal 0.38268343236497154 0.9238795325113358 2.7789979209334943e-13
  outer loop
    vertex 133.85220585849842 553.6201219117851 2.250000035650539
    vertex 133.46631633066247 553.7799625877915 5.2500000356505865
    vertex 133.85220585849842 553.6201219117842 5.2500000356505385
  endloop
endfacet
facet normal 0.38268343236497154 0.9238795325113358 2.7789979209334943e-13
  outer loop
    vertex 133.46631633066247 553.7799625877915 5.2500000356505865
    vertex 133.85220585849842 553.6201219117851 2.250000035650539
    vertex 133.46631633066247 553.7799625877924 2.250000035650588
  endloop
endfacet
facet normal -0.13052619222011588 0.991444861373802 2.982239856615062e-13
  outer loop
    vertex 133.05220585849844 553.83448126573 2.2500000356506047
    vertex 132.63809538633438 553.7799625877915 5.2500000356505865
    vertex 133.05220585849844 553.8344812657291 5.250000035650604
  endloop
endfacet
facet normal -0.13052619222011588 0.991444861373802 2.982239856615062e-13
  outer loop
    vertex 132.63809538633438 553.7799625877915 5.2500000356505865
    vertex 133.05220585849844 553.83448126573 2.2500000356506047
    vertex 132.63809538633438 553.7799625877924 2.250000035650588
  endloop
endfacet
facet normal -0.9914448613738098 -0.13052619222005576 -3.9261423885857214e-14
  outer loop
    vertex 131.50672453643594 551.8203707935659 2.250000035649985
    vertex 131.45220585849844 552.2344812657291 5.250000035650112
    vertex 131.45220585849844 552.23448126573 2.250000035650113
  endloop
endfacet
facet normal -0.9914448613738098 -0.13052619222005576 -3.9261423885857214e-14
  outer loop
    vertex 131.45220585849844 552.2344812657291 5.250000035650112
    vertex 131.50672453643594 551.8203707935659 2.250000035649985
    vertex 131.50672453643594 551.820370793565 5.250000035649985
  endloop
endfacet
facet normal -0.7933533402912576 -0.6087614290086913 -1.8311081434700997e-13
  outer loop
    vertex 131.92083500859997 551.1031104158315 2.2500000356497654
    vertex 131.66656521244332 551.434481265729 5.250000035649867
    vertex 131.66656521244332 551.4344812657299 2.250000035649867
  endloop
endfacet
facet normal -0.7933533402912576 -0.6087614290086913 -1.8311081434700997e-13
  outer loop
    vertex 131.66656521244332 551.434481265729 5.250000035649867
    vertex 131.92083500859997 551.1031104158315 2.2500000356497654
    vertex 131.92083500859997 551.1031104158305 5.250000035649765
  endloop
endfacet
facet normal 0.13052619222011586 0.991444861373802 2.9822398566150616e-13
  outer loop
    vertex 133.46631633066247 553.7799625877915 5.2500000356505865
    vertex 133.05220585849844 553.83448126573 2.2500000356506047
    vertex 133.05220585849844 553.8344812657291 5.250000035650604
  endloop
endfacet
facet normal 0.13052619222011586 0.991444861373802 2.9822398566150616e-13
  outer loop
    vertex 133.05220585849844 553.83448126573 2.2500000356506047
    vertex 133.46631633066247 553.7799625877915 5.2500000356505865
    vertex 133.46631633066247 553.7799625877924 2.250000035650588
  endloop
endfacet
facet normal 0.7040625922196451 -0.09269159872378138 0.7040625922196004
  outer loop
    vertex 134.11472426741642 551.9497803161161 5.750000035650025
    vertex 134.65220585849843 552.2344812657291 5.250000035650112
    vertex 134.15220585849843 552.2344812657288 5.750000035650112
  endloop
endfacet
facet normal 0.7040625922196451 -0.09269159872378138 0.7040625922196004
  outer loop
    vertex 134.65220585849843 552.2344812657291 5.250000035650112
    vertex 134.11472426741642 551.9497803161161 5.750000035650025
    vertex 134.59768718056094 551.820370793565 5.250000035649985
  endloop
endfacet
facet normal 0.7040625922196401 0.0926915987233481 0.7040625922196625
  outer loop
    vertex 134.11472426741642 552.5191822153416 5.750000035650199
    vertex 134.65220585849843 552.2344812657291 5.250000035650112
    vertex 134.59768718056094 552.6485917378931 5.250000035650239
  endloop
endfacet
facet normal 0.7040625922196401 0.0926915987233481 0.7040625922196625
  outer loop
    vertex 134.65220585849843 552.2344812657291 5.250000035650112
    vertex 134.11472426741642 552.5191822153416 5.750000035650199
    vertex 134.15220585849843 552.2344812657288 5.750000035650112
  endloop
endfacet
facet normal 0.6560818900783042 0.2717580168976032 0.7040625922197273
  outer loop
    vertex 134.11472426741642 552.5191822153416 5.750000035650199
    vertex 134.43784650455353 553.034481265729 5.250000035650357
    vertex 134.00483380266132 552.7844812657288 5.750000035650281
  endloop
endfacet
facet normal 0.6560818900783042 0.2717580168976032 0.7040625922197273
  outer loop
    vertex 134.43784650455353 553.034481265729 5.250000035650357
    vertex 134.11472426741642 552.5191822153416 5.750000035650199
    vertex 134.59768718056094 552.6485917378931 5.250000035650239
  endloop
endfacet
facet normal 0.5633902913547445 0.4323045753215683 0.7040625922197933
  outer loop
    vertex 134.00483380266132 552.7844812657288 5.750000035650281
    vertex 134.1835767083969 553.3658521156276 5.25000003565046
    vertex 133.83002331780364 553.012298725034 5.750000035650351
  endloop
endfacet
facet normal 0.5633902913547445 0.4323045753215683 0.7040625922197933
  outer loop
    vertex 134.1835767083969 553.3658521156276 5.25000003565046
    vertex 134.00483380266132 552.7844812657288 5.750000035650281
    vertex 134.43784650455353 553.034481265729 5.250000035650357
  endloop
endfacet
facet normal 0.4323045753217646 0.5633902913545192 0.7040625922198529
  outer loop
    vertex 133.83002331780364 553.012298725034 5.750000035650351
    vertex 133.85220585849842 553.6201219117842 5.2500000356505385
    vertex 133.60220585849842 553.1871092098917 5.750000035650404
  endloop
endfacet
facet normal 0.4323045753217646 0.5633902913545192 0.7040625922198529
  outer loop
    vertex 133.85220585849842 553.6201219117842 5.2500000356505385
    vertex 133.83002331780364 553.012298725034 5.750000035650351
    vertex 134.1835767083969 553.3658521156276 5.25000003565046
  endloop
endfacet
facet normal 0.27175801689779333 0.656081890078083 0.70406259221986
  outer loop
    vertex 133.60220585849842 553.1871092098917 5.750000035650404
    vertex 133.46631633066247 553.7799625877915 5.2500000356505865
    vertex 133.3369068081112 553.2969996746468 5.750000035650439
  endloop
endfacet
facet normal 0.27175801689779333 0.656081890078083 0.70406259221986
  outer loop
    vertex 133.46631633066247 553.7799625877915 5.2500000356505865
    vertex 133.60220585849842 553.1871092098917 5.750000035650404
    vertex 133.85220585849842 553.6201219117842 5.2500000356505385
  endloop
endfacet
facet normal 0.09269159872359707 0.704062592219427 0.7040625922198427
  outer loop
    vertex 133.46631633066247 553.7799625877915 5.2500000356505865
    vertex 133.05220585849844 553.3344812657289 5.750000035650449
    vertex 133.3369068081112 553.2969996746468 5.750000035650439
  endloop
endfacet
facet normal 0.09269159872359707 0.704062592219427 0.7040625922198427
  outer loop
    vertex 133.05220585849844 553.3344812657289 5.750000035650449
    vertex 133.46631633066247 553.7799625877915 5.2500000356505865
    vertex 133.05220585849844 553.8344812657291 5.250000035650604
  endloop
endfacet
facet normal -0.0926915987235971 0.704062592219427 0.7040625922198427
  outer loop
    vertex 133.05220585849844 553.3344812657289 5.750000035650449
    vertex 132.63809538633438 553.7799625877915 5.2500000356505865
    vertex 132.76750490888566 553.2969996746468 5.750000035650439
  endloop
endfacet
facet normal -0.0926915987235971 0.704062592219427 0.7040625922198427
  outer loop
    vertex 132.63809538633438 553.7799625877915 5.2500000356505865
    vertex 133.05220585849844 553.3344812657289 5.750000035650449
    vertex 133.05220585849844 553.8344812657291 5.250000035650604
  endloop
endfacet
facet normal -0.2717580168977882 0.6560818900780884 0.7040625922198571
  outer loop
    vertex 132.50220585849843 553.1871092098917 5.750000035650404
    vertex 132.63809538633438 553.7799625877915 5.2500000356505865
    vertex 132.25220585849843 553.6201219117842 5.2500000356505385
  endloop
endfacet
facet normal -0.2717580168977882 0.6560818900780884 0.7040625922198571
  outer loop
    vertex 132.63809538633438 553.7799625877915 5.2500000356505865
    vertex 132.50220585849843 553.1871092098917 5.750000035650404
    vertex 132.76750490888566 553.2969996746468 5.750000035650439
  endloop
endfacet
facet normal -0.4323045753217762 0.5633902913545166 0.7040625922198478
  outer loop
    vertex 132.27438839919324 553.012298725034 5.750000035650351
    vertex 132.25220585849843 553.6201219117842 5.2500000356505385
    vertex 131.92083500859997 553.3658521156276 5.25000003565046
  endloop
endfacet
facet normal -0.4323045753217762 0.5633902913545166 0.7040625922198478
  outer loop
    vertex 132.25220585849843 553.6201219117842 5.2500000356505385
    vertex 132.27438839919324 553.012298725034 5.750000035650351
    vertex 132.50220585849843 553.1871092098917 5.750000035650404
  endloop
endfacet
facet normal -0.5633902913547446 0.4323045753215682 0.7040625922197932
  outer loop
    vertex 132.09957791433553 552.7844812657288 5.750000035650281
    vertex 131.92083500859997 553.3658521156276 5.25000003565046
    vertex 131.66656521244332 553.034481265729 5.250000035650357
  endloop
endfacet
facet normal -0.5633902913547446 0.4323045753215682 0.7040625922197932
  outer loop
    vertex 131.92083500859997 553.3658521156276 5.25000003565046
    vertex 132.09957791433553 552.7844812657288 5.750000035650281
    vertex 132.27438839919324 553.012298725034 5.750000035650351
  endloop
endfacet
facet normal -0.6560818900783042 0.27175801689760326 0.7040625922197273
  outer loop
    vertex 131.98968744958046 552.5191822153416 5.750000035650199
    vertex 131.66656521244332 553.034481265729 5.250000035650357
    vertex 131.50672453643594 552.6485917378931 5.250000035650239
  endloop
endfacet
facet normal -0.6560818900783042 0.27175801689760326 0.7040625922197273
  outer loop
    vertex 131.66656521244332 553.034481265729 5.250000035650357
    vertex 131.98968744958046 552.5191822153416 5.750000035650199
    vertex 132.09957791433553 552.7844812657288 5.750000035650281
  endloop
endfacet
facet normal -0.7040625922196401 0.09269159872334815 0.7040625922196625
  outer loop
    vertex 131.45220585849844 552.2344812657291 5.250000035650112
    vertex 131.98968744958046 552.5191822153416 5.750000035650199
    vertex 131.50672453643594 552.6485917378931 5.250000035650239
  endloop
endfacet
facet normal -0.7040625922196401 0.09269159872334815 0.7040625922196625
  outer loop
    vertex 131.98968744958046 552.5191822153416 5.750000035650199
    vertex 131.45220585849844 552.2344812657291 5.250000035650112
    vertex 131.95220585849844 552.2344812657288 5.750000035650112
  endloop
endfacet
facet normal -0.7040625922196451 -0.09269159872378138 0.7040625922196004
  outer loop
    vertex 131.50672453643594 551.820370793565 5.250000035649985
    vertex 131.95220585849844 552.2344812657288 5.750000035650112
    vertex 131.45220585849844 552.2344812657291 5.250000035650112
  endloop
endfacet
facet normal -0.7040625922196451 -0.09269159872378138 0.7040625922196004
  outer loop
    vertex 131.95220585849844 552.2344812657288 5.750000035650112
    vertex 131.50672453643594 551.820370793565 5.250000035649985
    vertex 131.98968744958046 551.9497803161161 5.750000035650025
  endloop
endfacet
facet normal -0.6560818900783174 -0.2717580168980415 0.7040625922195459
  outer loop
    vertex 131.66656521244332 551.434481265729 5.250000035649867
    vertex 131.98968744958046 551.9497803161161 5.750000035650025
    vertex 131.50672453643594 551.820370793565 5.250000035649985
  endloop
endfacet
facet normal -0.6560818900783174 -0.2717580168980415 0.7040625922195459
  outer loop
    vertex 131.98968744958046 551.9497803161161 5.750000035650025
    vertex 131.66656521244332 551.434481265729 5.250000035649867
    vertex 132.09957791433553 551.6844812657289 5.7500000356499426
  endloop
endfacet
facet normal -0.5633902913547628 -0.43230457532201455 0.7040625922195043
  outer loop
    vertex 131.92083500859997 551.1031104158305 5.250000035649765
    vertex 132.09957791433553 551.6844812657289 5.7500000356499426
    vertex 131.66656521244332 551.434481265729 5.250000035649867
  endloop
endfacet
facet normal -0.5633902913547628 -0.43230457532201455 0.7040625922195043
  outer loop
    vertex 132.09957791433553 551.6844812657289 5.7500000356499426
    vertex 131.92083500859997 551.1031104158305 5.250000035649765
    vertex 132.27438839919324 551.4566638064236 5.750000035649873
  endloop
endfacet
facet normal -0.43230457532178307 -0.5633902913549761 0.704062592219476
  outer loop
    vertex 132.25220585849843 550.848840619674 5.250000035649687
    vertex 132.27438839919324 551.4566638064236 5.750000035649873
    vertex 131.92083500859997 551.1031104158305 5.250000035649765
  endloop
endfacet
facet normal -0.43230457532178307 -0.5633902913549761 0.704062592219476
  outer loop
    vertex 132.27438839919324 551.4566638064236 5.750000035649873
    vertex 132.25220585849843 550.848840619674 5.250000035649687
    vertex 132.50220585849846 551.281853321566 5.75000003564982
  endloop
endfacet
facet normal -0.27175801689780754 -0.6560818900785479 0.7040625922194215
  outer loop
    vertex 132.63809538633438 550.6889999436665 5.250000035649637
    vertex 132.50220585849846 551.281853321566 5.75000003564982
    vertex 132.25220585849843 550.848840619674 5.250000035649687
  endloop
endfacet
facet normal -0.27175801689780754 -0.6560818900785479 0.7040625922194215
  outer loop
    vertex 132.50220585849846 551.281853321566 5.75000003564982
    vertex 132.63809538633438 550.6889999436665 5.250000035649637
    vertex 132.76750490888566 551.1719628568109 5.750000035649785
  endloop
endfacet
facet normal -0.09269159872360204 -0.704062592219897 0.7040625922193722
  outer loop
    vertex 132.63809538633438 550.6889999436665 5.250000035649637
    vertex 133.05220585849844 551.1344812657288 5.750000035649775
    vertex 132.76750490888566 551.1719628568109 5.750000035649785
  endloop
endfacet
facet normal -0.09269159872360204 -0.704062592219897 0.7040625922193722
  outer loop
    vertex 133.05220585849844 551.1344812657288 5.750000035649775
    vertex 132.63809538633438 550.6889999436665 5.250000035649637
    vertex 133.05220585849844 550.634481265729 5.250000035649621
  endloop
endfacet
facet normal 0.09269159872360204 -0.704062592219897 0.7040625922193722
  outer loop
    vertex 133.05220585849844 550.634481265729 5.250000035649621
    vertex 133.3369068081112 551.1719628568109 5.750000035649785
    vertex 133.05220585849844 551.1344812657288 5.750000035649775
  endloop
endfacet
facet normal 0.09269159872360204 -0.704062592219897 0.7040625922193722
  outer loop
    vertex 133.3369068081112 551.1719628568109 5.750000035649785
    vertex 133.05220585849844 550.634481265729 5.250000035649621
    vertex 133.46631633066247 550.6889999436665 5.250000035649637
  endloop
endfacet
facet normal 0.2717580168978023 -0.6560818900785532 0.7040625922194184
  outer loop
    vertex 133.46631633066247 550.6889999436665 5.250000035649637
    vertex 133.60220585849845 551.281853321566 5.75000003564982
    vertex 133.3369068081112 551.1719628568109 5.750000035649785
  endloop
endfacet
facet normal 0.2717580168978023 -0.6560818900785532 0.7040625922194184
  outer loop
    vertex 133.60220585849845 551.281853321566 5.75000003564982
    vertex 133.46631633066247 550.6889999436665 5.250000035649637
    vertex 133.85220585849842 550.848840619674 5.250000035649687
  endloop
endfacet
facet normal 0.43230457532179467 -0.5633902913549732 0.7040625922194711
  outer loop
    vertex 133.85220585849842 550.848840619674 5.250000035649687
    vertex 133.83002331780364 551.4566638064236 5.750000035649873
    vertex 133.60220585849845 551.281853321566 5.75000003564982
  endloop
endfacet
facet normal 0.43230457532179467 -0.5633902913549732 0.7040625922194711
  outer loop
    vertex 133.83002331780364 551.4566638064236 5.750000035649873
    vertex 133.85220585849842 550.848840619674 5.250000035649687
    vertex 134.1835767083969 551.1031104158305 5.250000035649765
  endloop
endfacet
facet normal 0.5633902913547629 -0.43230457532201455 0.7040625922195043
  outer loop
    vertex 134.1835767083969 551.1031104158305 5.250000035649765
    vertex 134.00483380266132 551.6844812657289 5.7500000356499426
    vertex 133.83002331780364 551.4566638064236 5.750000035649873
  endloop
endfacet
facet normal 0.5633902913547629 -0.43230457532201455 0.7040625922195043
  outer loop
    vertex 134.00483380266132 551.6844812657289 5.7500000356499426
    vertex 134.1835767083969 551.1031104158305 5.250000035649765
    vertex 134.43784650455353 551.434481265729 5.250000035649867
  endloop
endfacet
facet normal 0.6560818900783173 -0.2717580168980415 0.7040625922195459
  outer loop
    vertex 134.43784650455353 551.434481265729 5.250000035649867
    vertex 134.11472426741642 551.9497803161161 5.750000035650025
    vertex 134.00483380266132 551.6844812657289 5.7500000356499426
  endloop
endfacet
facet normal 0.6560818900783173 -0.2717580168980415 0.7040625922195459
  outer loop
    vertex 134.11472426741642 551.9497803161161 5.750000035650025
    vertex 134.43784650455353 551.434481265729 5.250000035649867
    vertex 134.59768718056094 551.820370793565 5.250000035649985
  endloop
endfacet
facet normal -0.7933533402912576 0.6087614290086913 1.8311174535074432e-13
  outer loop
    vertex 131.66656521244332 553.0344812657299 2.250000035650358
    vertex 131.92083500859997 553.3658521156276 5.25000003565046
    vertex 131.92083500859997 553.3658521156285 2.2500000356504604
  endloop
endfacet
facet normal -0.7933533402912576 0.6087614290086913 1.8311174535074432e-13
  outer loop
    vertex 131.92083500859997 553.3658521156276 5.25000003565046
    vertex 131.66656521244332 553.0344812657299 2.250000035650358
    vertex 131.66656521244332 553.034481265729 5.250000035650357
  endloop
endfacet
facet normal -0.9238795325112897 0.3826834323650828 1.1510917215073587e-13
  outer loop
    vertex 131.50672453643594 552.648591737894 2.25000003565024
    vertex 131.66656521244332 553.034481265729 5.250000035650357
    vertex 131.66656521244332 553.0344812657299 2.250000035650358
  endloop
endfacet
facet normal -0.9238795325112897 0.3826834323650828 1.1510917215073587e-13
  outer loop
    vertex 131.66656521244332 553.034481265729 5.250000035650357
    vertex 131.50672453643594 552.648591737894 2.25000003565024
    vertex 131.50672453643594 552.6485917378931 5.250000035650239
  endloop
endfacet
facet normal -0.38268343236497143 -0.9238795325113358 -2.7790097121758383e-13
  outer loop
    vertex 132.25220585849843 550.8488406196748 2.2500000356496876
    vertex 132.63809538633438 550.6889999436665 5.250000035649637
    vertex 132.25220585849843 550.848840619674 5.250000035649687
  endloop
endfacet
facet normal -0.38268343236497143 -0.9238795325113358 -2.7790097121758383e-13
  outer loop
    vertex 132.63809538633438 550.6889999436665 5.250000035649637
    vertex 132.25220585849843 550.8488406196748 2.2500000356496876
    vertex 132.63809538633438 550.6889999436675 2.250000035649638
  endloop
endfacet
facet normal 0.13052619222011586 -0.991444861373802 -2.9822393440033914e-13
  outer loop
    vertex 133.05220585849844 550.63448126573 2.2500000356496215
    vertex 133.46631633066247 550.6889999436665 5.250000035649637
    vertex 133.05220585849844 550.634481265729 5.250000035649621
  endloop
endfacet
facet normal 0.13052619222011586 -0.991444861373802 -2.9822393440033914e-13
  outer loop
    vertex 133.46631633066247 550.6889999436665 5.250000035649637
    vertex 133.05220585849844 550.63448126573 2.2500000356496215
    vertex 133.46631633066247 550.6889999436675 2.250000035649638
  endloop
endfacet
facet normal 0.3826834323649715 -0.9238795325113358 -2.7789917610971114e-13
  outer loop
    vertex 133.46631633066247 550.6889999436675 2.250000035649638
    vertex 133.85220585849842 550.848840619674 5.250000035649687
    vertex 133.46631633066247 550.6889999436665 5.250000035649637
  endloop
endfacet
facet normal 0.3826834323649715 -0.9238795325113358 -2.7789917610971114e-13
  outer loop
    vertex 133.85220585849842 550.848840619674 5.250000035649687
    vertex 133.46631633066247 550.6889999436675 2.250000035649638
    vertex 133.85220585849842 550.8488406196748 2.2500000356496876
  endloop
endfacet
facet normal -0.6087614290087094 0.7933533402912438 2.386350661600723e-13
  outer loop
    vertex 132.25220585849843 553.6201219117851 2.250000035650539
    vertex 131.92083500859997 553.3658521156276 5.25000003565046
    vertex 132.25220585849843 553.6201219117842 5.2500000356505385
  endloop
endfacet
facet normal -0.6087614290087094 0.7933533402912438 2.386350661600723e-13
  outer loop
    vertex 131.92083500859997 553.3658521156276 5.25000003565046
    vertex 132.25220585849843 553.6201219117851 2.250000035650539
    vertex 131.92083500859997 553.3658521156285 2.2500000356504604
  endloop
endfacet
facet normal -0.6087614290087096 -0.7933533402912438 -2.38635783488212e-13
  outer loop
    vertex 131.92083500859997 551.1031104158315 2.2500000356497654
    vertex 132.25220585849843 550.848840619674 5.250000035649687
    vertex 131.92083500859997 551.1031104158305 5.250000035649765
  endloop
endfacet
facet normal -0.6087614290087096 -0.7933533402912438 -2.38635783488212e-13
  outer loop
    vertex 132.25220585849843 550.848840619674 5.250000035649687
    vertex 131.92083500859997 551.1031104158315 2.2500000356497654
    vertex 132.25220585849843 550.8488406196748 2.2500000356496876
  endloop
endfacet
facet normal 0.6087614290087096 -0.7933533402912438 -2.38635783488212e-13
  outer loop
    vertex 133.85220585849842 550.8488406196748 2.2500000356496876
    vertex 134.1835767083969 551.1031104158305 5.250000035649765
    vertex 133.85220585849842 550.848840619674 5.250000035649687
  endloop
endfacet
facet normal 0.6087614290087096 -0.7933533402912438 -2.38635783488212e-13
  outer loop
    vertex 134.1835767083969 551.1031104158305 5.250000035649765
    vertex 133.85220585849842 550.8488406196748 2.2500000356496876
    vertex 134.1835767083969 551.1031104158315 2.2500000356497654
  endloop
endfacet
facet normal -0.3826834323649714 0.9238795325113358 2.778997920933494e-13
  outer loop
    vertex 132.63809538633438 553.7799625877915 5.2500000356505865
    vertex 132.25220585849843 553.6201219117851 2.250000035650539
    vertex 132.25220585849843 553.6201219117842 5.2500000356505385
  endloop
endfacet
facet normal -0.3826834323649714 0.9238795325113358 2.778997920933494e-13
  outer loop
    vertex 132.25220585849843 553.6201219117851 2.250000035650539
    vertex 132.63809538633438 553.7799625877915 5.2500000356505865
    vertex 132.63809538633438 553.7799625877924 2.250000035650588
  endloop
endfacet
facet normal -0.13052619222011586 -0.991444861373802 -2.9822393440033914e-13
  outer loop
    vertex 132.63809538633438 550.6889999436675 2.250000035649638
    vertex 133.05220585849844 550.634481265729 5.250000035649621
    vertex 132.63809538633438 550.6889999436665 5.250000035649637
  endloop
endfacet
facet normal -0.13052619222011586 -0.991444861373802 -2.9822393440033914e-13
  outer loop
    vertex 133.05220585849844 550.634481265729 5.250000035649621
    vertex 132.63809538633438 550.6889999436675 2.250000035649638
    vertex 133.05220585849844 550.63448126573 2.2500000356496215
  endloop
endfacet
facet normal 0.9914448613738098 0.13052619222005576 3.9261321363523264e-14
  outer loop
    vertex 134.65220585849843 552.2344812657291 5.250000035650112
    vertex 134.59768718056094 552.648591737894 2.25000003565024
    vertex 134.59768718056094 552.6485917378931 5.250000035650239
  endloop
endfacet
facet normal 0.9914448613738098 0.13052619222005576 3.9261321363523264e-14
  outer loop
    vertex 134.59768718056094 552.648591737894 2.25000003565024
    vertex 134.65220585849843 552.2344812657291 5.250000035650112
    vertex 134.65220585849843 552.23448126573 2.250000035650113
  endloop
endfacet
facet normal 0.9914448613738098 -0.13052619222005576 -3.926142388585723e-14
  outer loop
    vertex 134.59768718056094 551.820370793565 5.250000035649985
    vertex 134.65220585849843 552.23448126573 2.250000035650113
    vertex 134.65220585849843 552.2344812657291 5.250000035650112
  endloop
endfacet
facet normal 0.9914448613738098 -0.13052619222005576 -3.926142388585723e-14
  outer loop
    vertex 134.65220585849843 552.23448126573 2.250000035650113
    vertex 134.59768718056094 551.820370793565 5.250000035649985
    vertex 134.59768718056094 551.8203707935659 2.250000035649985
  endloop
endfacet
facet normal 0.9238795325112897 0.38268343236508284 1.1510917215073587e-13
  outer loop
    vertex 134.59768718056094 552.6485917378931 5.250000035650239
    vertex 134.43784650455353 553.0344812657299 2.250000035650358
    vertex 134.43784650455353 553.034481265729 5.250000035650357
  endloop
endfacet
facet normal 0.9238795325112897 0.38268343236508284 1.1510917215073587e-13
  outer loop
    vertex 134.43784650455353 553.0344812657299 2.250000035650358
    vertex 134.59768718056094 552.6485917378931 5.250000035650239
    vertex 134.59768718056094 552.648591737894 2.25000003565024
  endloop
endfacet
facet normal 0.6087614290087094 0.7933533402912438 2.386350661600723e-13
  outer loop
    vertex 134.1835767083969 553.3658521156285 2.2500000356504604
    vertex 133.85220585849842 553.6201219117842 5.2500000356505385
    vertex 134.1835767083969 553.3658521156276 5.25000003565046
  endloop
endfacet
facet normal 0.6087614290087094 0.7933533402912438 2.386350661600723e-13
  outer loop
    vertex 133.85220585849842 553.6201219117842 5.2500000356505385
    vertex 134.1835767083969 553.3658521156285 2.2500000356504604
    vertex 133.85220585849842 553.6201219117851 2.250000035650539
  endloop
endfacet
facet normal 0.7933533402912576 0.6087614290086913 1.831148283388976e-13
  outer loop
    vertex 134.43784650455353 553.034481265729 5.250000035650357
    vertex 134.1835767083969 553.3658521156285 2.2500000356504604
    vertex 134.1835767083969 553.3658521156276 5.25000003565046
  endloop
endfacet
facet normal 0.7933533402912576 0.6087614290086913 1.831148283388976e-13
  outer loop
    vertex 134.1835767083969 553.3658521156285 2.2500000356504604
    vertex 134.43784650455353 553.034481265729 5.250000035650357
    vertex 134.43784650455353 553.0344812657299 2.250000035650358
  endloop
endfacet
endsolid Indexer
